%TF.GenerationSoftware,KiCad,Pcbnew,5.0.1-33cea8e~68~ubuntu16.04.1*%
%TF.CreationDate,2018-11-19T21:37:36+01:00*%
%TF.ProjectId,bcl4v2,62636C3476322E6B696361645F706362,rev?*%
%TF.SameCoordinates,Original*%
%TF.FileFunction,Copper,L2,Bot,Signal*%
%TF.FilePolarity,Positive*%
%FSLAX46Y46*%
G04 Gerber Fmt 4.6, Leading zero omitted, Abs format (unit mm)*
G04 Created by KiCad (PCBNEW 5.0.1-33cea8e~68~ubuntu16.04.1) date Po 19. listopad 2018, 21:37:36 CET*
%MOMM*%
%LPD*%
G01*
G04 APERTURE LIST*
%ADD10C,0.381000*%
%ADD11O,1.524000X2.286000*%
%ADD12R,1.524000X2.286000*%
%ADD13R,1.200000X1.200000*%
%ADD14R,2.300000X1.700000*%
%ADD15O,2.300000X1.700000*%
%ADD16R,1.350000X0.400000*%
%ADD17O,0.950000X1.250000*%
%ADD18O,1.550000X1.000000*%
%ADD19R,1.300000X1.500000*%
%ADD20R,1.500000X1.300000*%
%ADD21R,1.500000X1.250000*%
%ADD22C,7.000000*%
%ADD23R,1.500000X0.800000*%
%ADD24C,0.250000*%
%ADD25C,0.150000*%
%ADD26R,1.700000X2.300000*%
%ADD27O,1.700000X2.300000*%
%ADD28C,0.500000*%
%ADD29R,1.699260X3.700780*%
%ADD30C,0.750000*%
%ADD31R,2.700000X3.750000*%
%ADD32R,1.143000X0.508000*%
%ADD33R,1.800000X1.540000*%
%ADD34R,1.100000X0.400000*%
%ADD35C,0.889000*%
%ADD36C,1.346200*%
%ADD37C,0.304800*%
%ADD38C,0.609600*%
%ADD39C,0.203200*%
%ADD40C,0.249800*%
%ADD41C,0.200000*%
%ADD42C,0.254000*%
G04 APERTURE END LIST*
D10*
X129000000Y-105000000D02*
X130000000Y-105000000D01*
X129000000Y-95000000D02*
X129000000Y-105000000D01*
X130000000Y-95000000D02*
X129000000Y-95000000D01*
X74000000Y-70000000D02*
X126000000Y-70000000D01*
X70000000Y-126000000D02*
X70000000Y-74000000D01*
X126000000Y-130000000D02*
X74000000Y-130000000D01*
X130000000Y-105000000D02*
X130000000Y-126000000D01*
X126000000Y-130000000D02*
G75*
G03X130000000Y-126000000I0J4000000D01*
G01*
X70000000Y-126000000D02*
G75*
G03X74000000Y-130000000I4000000J0D01*
G01*
X74000000Y-70000000D02*
G75*
G03X70000000Y-74000000I0J-4000000D01*
G01*
X130000000Y-74000000D02*
X130000000Y-95000000D01*
X130000000Y-74000000D02*
G75*
G03X126000000Y-70000000I-4000000J0D01*
G01*
D11*
X86030000Y-77140000D03*
X88570000Y-77140000D03*
X113970000Y-77140000D03*
X111430000Y-77140000D03*
X113970000Y-122860000D03*
X111430000Y-122860000D03*
X91110000Y-122860000D03*
X88570000Y-122860000D03*
D12*
X86030000Y-122860000D03*
D11*
X93650000Y-122860000D03*
X103810000Y-122860000D03*
X96190000Y-122860000D03*
X101270000Y-122860000D03*
X98730000Y-122860000D03*
X108890000Y-122860000D03*
X106350000Y-122860000D03*
X108890000Y-77140000D03*
X106350000Y-77140000D03*
X103810000Y-77140000D03*
X101270000Y-77140000D03*
X98730000Y-77140000D03*
X96190000Y-77140000D03*
X93650000Y-77140000D03*
X91110000Y-77140000D03*
D13*
X118425000Y-89500000D03*
X114575000Y-89500000D03*
D14*
X81730000Y-96200000D03*
D15*
X81730000Y-98740000D03*
X81730000Y-101280000D03*
X81730000Y-103820000D03*
D16*
X124450000Y-98700000D03*
X124450000Y-99350000D03*
X124450000Y-100000000D03*
X124450000Y-100650000D03*
X124450000Y-101300000D03*
D17*
X124450000Y-97500000D03*
X124450000Y-102500000D03*
D18*
X127150000Y-96500000D03*
X127150000Y-103500000D03*
D19*
X120000000Y-71650000D03*
X120000000Y-74350000D03*
D20*
X117850000Y-82000000D03*
X115150000Y-82000000D03*
X82800000Y-113500000D03*
X85500000Y-113500000D03*
D21*
X118250000Y-116000000D03*
X115750000Y-116000000D03*
X115750000Y-109000000D03*
X118250000Y-109000000D03*
D22*
X75000000Y-125000000D03*
X75000000Y-75000000D03*
X125000000Y-75000000D03*
X125000000Y-125000000D03*
D21*
X117750000Y-97000000D03*
X115250000Y-97000000D03*
D20*
X117850000Y-94500000D03*
X115150000Y-94500000D03*
D23*
X115650000Y-113450000D03*
X115650000Y-111550000D03*
X118350000Y-112500000D03*
D24*
X83391154Y-85780241D03*
D25*
G36*
X82737080Y-85302944D02*
X82913857Y-85126167D01*
X84045228Y-86257538D01*
X83868451Y-86434315D01*
X82737080Y-85302944D01*
X82737080Y-85302944D01*
G37*
D24*
X83744707Y-85426687D03*
D25*
G36*
X83090633Y-84949390D02*
X83267410Y-84772613D01*
X84398781Y-85903984D01*
X84222004Y-86080761D01*
X83090633Y-84949390D01*
X83090633Y-84949390D01*
G37*
D24*
X84098260Y-85073134D03*
D25*
G36*
X83444186Y-84595837D02*
X83620963Y-84419060D01*
X84752334Y-85550431D01*
X84575557Y-85727208D01*
X83444186Y-84595837D01*
X83444186Y-84595837D01*
G37*
D24*
X84451814Y-84719581D03*
D25*
G36*
X83797740Y-84242284D02*
X83974517Y-84065507D01*
X85105888Y-85196878D01*
X84929111Y-85373655D01*
X83797740Y-84242284D01*
X83797740Y-84242284D01*
G37*
D24*
X84805367Y-84366027D03*
D25*
G36*
X84151293Y-83888730D02*
X84328070Y-83711953D01*
X85459441Y-84843324D01*
X85282664Y-85020101D01*
X84151293Y-83888730D01*
X84151293Y-83888730D01*
G37*
D24*
X85158920Y-84012474D03*
D25*
G36*
X84504846Y-83535177D02*
X84681623Y-83358400D01*
X85812994Y-84489771D01*
X85636217Y-84666548D01*
X84504846Y-83535177D01*
X84504846Y-83535177D01*
G37*
D24*
X85512474Y-83658920D03*
D25*
G36*
X84858400Y-83181623D02*
X85035177Y-83004846D01*
X86166548Y-84136217D01*
X85989771Y-84312994D01*
X84858400Y-83181623D01*
X84858400Y-83181623D01*
G37*
D24*
X85866027Y-83305367D03*
D25*
G36*
X85211953Y-82828070D02*
X85388730Y-82651293D01*
X86520101Y-83782664D01*
X86343324Y-83959441D01*
X85211953Y-82828070D01*
X85211953Y-82828070D01*
G37*
D24*
X86219581Y-82951814D03*
D25*
G36*
X85565507Y-82474517D02*
X85742284Y-82297740D01*
X86873655Y-83429111D01*
X86696878Y-83605888D01*
X85565507Y-82474517D01*
X85565507Y-82474517D01*
G37*
D24*
X86573134Y-82598260D03*
D25*
G36*
X85919060Y-82120963D02*
X86095837Y-81944186D01*
X87227208Y-83075557D01*
X87050431Y-83252334D01*
X85919060Y-82120963D01*
X85919060Y-82120963D01*
G37*
D24*
X86926687Y-82244707D03*
D25*
G36*
X86272613Y-81767410D02*
X86449390Y-81590633D01*
X87580761Y-82722004D01*
X87403984Y-82898781D01*
X86272613Y-81767410D01*
X86272613Y-81767410D01*
G37*
D24*
X87280241Y-81891154D03*
D25*
G36*
X86626167Y-81413857D02*
X86802944Y-81237080D01*
X87934315Y-82368451D01*
X87757538Y-82545228D01*
X86626167Y-81413857D01*
X86626167Y-81413857D01*
G37*
D24*
X89719759Y-81891154D03*
D25*
G36*
X90197056Y-81237080D02*
X90373833Y-81413857D01*
X89242462Y-82545228D01*
X89065685Y-82368451D01*
X90197056Y-81237080D01*
X90197056Y-81237080D01*
G37*
D24*
X90073313Y-82244707D03*
D25*
G36*
X90550610Y-81590633D02*
X90727387Y-81767410D01*
X89596016Y-82898781D01*
X89419239Y-82722004D01*
X90550610Y-81590633D01*
X90550610Y-81590633D01*
G37*
D24*
X90426866Y-82598260D03*
D25*
G36*
X90904163Y-81944186D02*
X91080940Y-82120963D01*
X89949569Y-83252334D01*
X89772792Y-83075557D01*
X90904163Y-81944186D01*
X90904163Y-81944186D01*
G37*
D24*
X90780419Y-82951814D03*
D25*
G36*
X91257716Y-82297740D02*
X91434493Y-82474517D01*
X90303122Y-83605888D01*
X90126345Y-83429111D01*
X91257716Y-82297740D01*
X91257716Y-82297740D01*
G37*
D24*
X91133973Y-83305367D03*
D25*
G36*
X91611270Y-82651293D02*
X91788047Y-82828070D01*
X90656676Y-83959441D01*
X90479899Y-83782664D01*
X91611270Y-82651293D01*
X91611270Y-82651293D01*
G37*
D24*
X91487526Y-83658920D03*
D25*
G36*
X91964823Y-83004846D02*
X92141600Y-83181623D01*
X91010229Y-84312994D01*
X90833452Y-84136217D01*
X91964823Y-83004846D01*
X91964823Y-83004846D01*
G37*
D24*
X91841080Y-84012474D03*
D25*
G36*
X92318377Y-83358400D02*
X92495154Y-83535177D01*
X91363783Y-84666548D01*
X91187006Y-84489771D01*
X92318377Y-83358400D01*
X92318377Y-83358400D01*
G37*
D24*
X92194633Y-84366027D03*
D25*
G36*
X92671930Y-83711953D02*
X92848707Y-83888730D01*
X91717336Y-85020101D01*
X91540559Y-84843324D01*
X92671930Y-83711953D01*
X92671930Y-83711953D01*
G37*
D24*
X92548186Y-84719581D03*
D25*
G36*
X93025483Y-84065507D02*
X93202260Y-84242284D01*
X92070889Y-85373655D01*
X91894112Y-85196878D01*
X93025483Y-84065507D01*
X93025483Y-84065507D01*
G37*
D24*
X92901740Y-85073134D03*
D25*
G36*
X93379037Y-84419060D02*
X93555814Y-84595837D01*
X92424443Y-85727208D01*
X92247666Y-85550431D01*
X93379037Y-84419060D01*
X93379037Y-84419060D01*
G37*
D24*
X93255293Y-85426687D03*
D25*
G36*
X93732590Y-84772613D02*
X93909367Y-84949390D01*
X92777996Y-86080761D01*
X92601219Y-85903984D01*
X93732590Y-84772613D01*
X93732590Y-84772613D01*
G37*
D24*
X93608846Y-85780241D03*
D25*
G36*
X94086143Y-85126167D02*
X94262920Y-85302944D01*
X93131549Y-86434315D01*
X92954772Y-86257538D01*
X94086143Y-85126167D01*
X94086143Y-85126167D01*
G37*
D24*
X93608846Y-88219759D03*
D25*
G36*
X92954772Y-87742462D02*
X93131549Y-87565685D01*
X94262920Y-88697056D01*
X94086143Y-88873833D01*
X92954772Y-87742462D01*
X92954772Y-87742462D01*
G37*
D24*
X93255293Y-88573313D03*
D25*
G36*
X92601219Y-88096016D02*
X92777996Y-87919239D01*
X93909367Y-89050610D01*
X93732590Y-89227387D01*
X92601219Y-88096016D01*
X92601219Y-88096016D01*
G37*
D24*
X92901740Y-88926866D03*
D25*
G36*
X92247666Y-88449569D02*
X92424443Y-88272792D01*
X93555814Y-89404163D01*
X93379037Y-89580940D01*
X92247666Y-88449569D01*
X92247666Y-88449569D01*
G37*
D24*
X92548186Y-89280419D03*
D25*
G36*
X91894112Y-88803122D02*
X92070889Y-88626345D01*
X93202260Y-89757716D01*
X93025483Y-89934493D01*
X91894112Y-88803122D01*
X91894112Y-88803122D01*
G37*
D24*
X92194633Y-89633973D03*
D25*
G36*
X91540559Y-89156676D02*
X91717336Y-88979899D01*
X92848707Y-90111270D01*
X92671930Y-90288047D01*
X91540559Y-89156676D01*
X91540559Y-89156676D01*
G37*
D24*
X91841080Y-89987526D03*
D25*
G36*
X91187006Y-89510229D02*
X91363783Y-89333452D01*
X92495154Y-90464823D01*
X92318377Y-90641600D01*
X91187006Y-89510229D01*
X91187006Y-89510229D01*
G37*
D24*
X91487526Y-90341080D03*
D25*
G36*
X90833452Y-89863783D02*
X91010229Y-89687006D01*
X92141600Y-90818377D01*
X91964823Y-90995154D01*
X90833452Y-89863783D01*
X90833452Y-89863783D01*
G37*
D24*
X91133973Y-90694633D03*
D25*
G36*
X90479899Y-90217336D02*
X90656676Y-90040559D01*
X91788047Y-91171930D01*
X91611270Y-91348707D01*
X90479899Y-90217336D01*
X90479899Y-90217336D01*
G37*
D24*
X90780419Y-91048186D03*
D25*
G36*
X90126345Y-90570889D02*
X90303122Y-90394112D01*
X91434493Y-91525483D01*
X91257716Y-91702260D01*
X90126345Y-90570889D01*
X90126345Y-90570889D01*
G37*
D24*
X90426866Y-91401740D03*
D25*
G36*
X89772792Y-90924443D02*
X89949569Y-90747666D01*
X91080940Y-91879037D01*
X90904163Y-92055814D01*
X89772792Y-90924443D01*
X89772792Y-90924443D01*
G37*
D24*
X90073313Y-91755293D03*
D25*
G36*
X89419239Y-91277996D02*
X89596016Y-91101219D01*
X90727387Y-92232590D01*
X90550610Y-92409367D01*
X89419239Y-91277996D01*
X89419239Y-91277996D01*
G37*
D24*
X89719759Y-92108846D03*
D25*
G36*
X89065685Y-91631549D02*
X89242462Y-91454772D01*
X90373833Y-92586143D01*
X90197056Y-92762920D01*
X89065685Y-91631549D01*
X89065685Y-91631549D01*
G37*
D24*
X87280241Y-92108846D03*
D25*
G36*
X87757538Y-91454772D02*
X87934315Y-91631549D01*
X86802944Y-92762920D01*
X86626167Y-92586143D01*
X87757538Y-91454772D01*
X87757538Y-91454772D01*
G37*
D24*
X86926687Y-91755293D03*
D25*
G36*
X87403984Y-91101219D02*
X87580761Y-91277996D01*
X86449390Y-92409367D01*
X86272613Y-92232590D01*
X87403984Y-91101219D01*
X87403984Y-91101219D01*
G37*
D24*
X86573134Y-91401740D03*
D25*
G36*
X87050431Y-90747666D02*
X87227208Y-90924443D01*
X86095837Y-92055814D01*
X85919060Y-91879037D01*
X87050431Y-90747666D01*
X87050431Y-90747666D01*
G37*
D24*
X86219581Y-91048186D03*
D25*
G36*
X86696878Y-90394112D02*
X86873655Y-90570889D01*
X85742284Y-91702260D01*
X85565507Y-91525483D01*
X86696878Y-90394112D01*
X86696878Y-90394112D01*
G37*
D24*
X85866027Y-90694633D03*
D25*
G36*
X86343324Y-90040559D02*
X86520101Y-90217336D01*
X85388730Y-91348707D01*
X85211953Y-91171930D01*
X86343324Y-90040559D01*
X86343324Y-90040559D01*
G37*
D24*
X85512474Y-90341080D03*
D25*
G36*
X85989771Y-89687006D02*
X86166548Y-89863783D01*
X85035177Y-90995154D01*
X84858400Y-90818377D01*
X85989771Y-89687006D01*
X85989771Y-89687006D01*
G37*
D24*
X85158920Y-89987526D03*
D25*
G36*
X85636217Y-89333452D02*
X85812994Y-89510229D01*
X84681623Y-90641600D01*
X84504846Y-90464823D01*
X85636217Y-89333452D01*
X85636217Y-89333452D01*
G37*
D24*
X84805367Y-89633973D03*
D25*
G36*
X85282664Y-88979899D02*
X85459441Y-89156676D01*
X84328070Y-90288047D01*
X84151293Y-90111270D01*
X85282664Y-88979899D01*
X85282664Y-88979899D01*
G37*
D24*
X84451814Y-89280419D03*
D25*
G36*
X84929111Y-88626345D02*
X85105888Y-88803122D01*
X83974517Y-89934493D01*
X83797740Y-89757716D01*
X84929111Y-88626345D01*
X84929111Y-88626345D01*
G37*
D24*
X84098260Y-88926866D03*
D25*
G36*
X84575557Y-88272792D02*
X84752334Y-88449569D01*
X83620963Y-89580940D01*
X83444186Y-89404163D01*
X84575557Y-88272792D01*
X84575557Y-88272792D01*
G37*
D24*
X83744707Y-88573313D03*
D25*
G36*
X84222004Y-87919239D02*
X84398781Y-88096016D01*
X83267410Y-89227387D01*
X83090633Y-89050610D01*
X84222004Y-87919239D01*
X84222004Y-87919239D01*
G37*
D24*
X83391154Y-88219759D03*
D25*
G36*
X83868451Y-87565685D02*
X84045228Y-87742462D01*
X82913857Y-88873833D01*
X82737080Y-88697056D01*
X83868451Y-87565685D01*
X83868451Y-87565685D01*
G37*
D26*
X83490000Y-71270000D03*
D27*
X86030000Y-71270000D03*
X88570000Y-71270000D03*
X91110000Y-71270000D03*
X93650000Y-71270000D03*
D26*
X116510000Y-71270000D03*
D27*
X113970000Y-71270000D03*
X111430000Y-71270000D03*
X108890000Y-71270000D03*
X106350000Y-71270000D03*
D26*
X116510000Y-128730000D03*
D27*
X113970000Y-128730000D03*
X111430000Y-128730000D03*
X108890000Y-128730000D03*
X106350000Y-128730000D03*
D26*
X83490000Y-128730000D03*
D27*
X86030000Y-128730000D03*
X88570000Y-128730000D03*
X91110000Y-128730000D03*
X93650000Y-128730000D03*
D14*
X71270000Y-116510000D03*
D15*
X71270000Y-113970000D03*
X71270000Y-111430000D03*
X71270000Y-108890000D03*
X71270000Y-106350000D03*
D14*
X71270000Y-83490000D03*
D15*
X71270000Y-86030000D03*
X71270000Y-88570000D03*
X71270000Y-91110000D03*
X71270000Y-93650000D03*
D14*
X128730000Y-83490000D03*
D15*
X128730000Y-86030000D03*
X128730000Y-88570000D03*
X128730000Y-91110000D03*
X128730000Y-93650000D03*
D14*
X128730000Y-116510000D03*
D15*
X128730000Y-113970000D03*
X128730000Y-111430000D03*
X128730000Y-108890000D03*
X128730000Y-106350000D03*
D21*
X117750000Y-99500000D03*
X115250000Y-99500000D03*
D20*
X117850000Y-102000000D03*
X115150000Y-102000000D03*
D28*
X80151472Y-83348528D03*
D25*
G36*
X80858579Y-84409188D02*
X79090812Y-82641421D01*
X79444365Y-82287868D01*
X81212132Y-84055635D01*
X80858579Y-84409188D01*
X80858579Y-84409188D01*
G37*
D28*
X81000000Y-82500000D03*
D25*
G36*
X81707107Y-83560660D02*
X79939340Y-81792893D01*
X80292893Y-81439340D01*
X82060660Y-83207107D01*
X81707107Y-83560660D01*
X81707107Y-83560660D01*
G37*
D28*
X81848528Y-81651472D03*
D25*
G36*
X82555635Y-82712132D02*
X80787868Y-80944365D01*
X81141421Y-80590812D01*
X82909188Y-82358579D01*
X82555635Y-82712132D01*
X82555635Y-82712132D01*
G37*
D29*
X102948940Y-72700000D03*
X97051060Y-72700000D03*
X97051060Y-127400000D03*
X102948940Y-127400000D03*
D30*
X86171751Y-79828249D03*
D25*
G36*
X86330850Y-79138820D02*
X86861180Y-79669150D01*
X86012652Y-80517678D01*
X85482322Y-79987348D01*
X86330850Y-79138820D01*
X86330850Y-79138820D01*
G37*
D30*
X84828249Y-81171751D03*
D25*
G36*
X84987348Y-80482322D02*
X85517678Y-81012652D01*
X84669150Y-81861180D01*
X84138820Y-81330850D01*
X84987348Y-80482322D01*
X84987348Y-80482322D01*
G37*
D30*
X95328249Y-86671751D03*
D25*
G36*
X95169150Y-87361180D02*
X94638820Y-86830850D01*
X95487348Y-85982322D01*
X96017678Y-86512652D01*
X95169150Y-87361180D01*
X95169150Y-87361180D01*
G37*
D30*
X96671751Y-85328249D03*
D25*
G36*
X96512652Y-86017678D02*
X95982322Y-85487348D01*
X96830850Y-84638820D01*
X97361180Y-85169150D01*
X96512652Y-86017678D01*
X96512652Y-86017678D01*
G37*
D30*
X81671751Y-87328249D03*
D25*
G36*
X81830850Y-86638820D02*
X82361180Y-87169150D01*
X81512652Y-88017678D01*
X80982322Y-87487348D01*
X81830850Y-86638820D01*
X81830850Y-86638820D01*
G37*
D30*
X80328249Y-88671751D03*
D25*
G36*
X80487348Y-87982322D02*
X81017678Y-88512652D01*
X80169150Y-89361180D01*
X79638820Y-88830850D01*
X80487348Y-87982322D01*
X80487348Y-87982322D01*
G37*
D30*
X88828249Y-93828249D03*
D25*
G36*
X88138820Y-93669150D02*
X88669150Y-93138820D01*
X89517678Y-93987348D01*
X88987348Y-94517678D01*
X88138820Y-93669150D01*
X88138820Y-93669150D01*
G37*
D30*
X90171751Y-95171751D03*
D25*
G36*
X89482322Y-95012652D02*
X90012652Y-94482322D01*
X90861180Y-95330850D01*
X90330850Y-95861180D01*
X89482322Y-95012652D01*
X89482322Y-95012652D01*
G37*
D26*
X76650000Y-106350000D03*
D27*
X79190000Y-106350000D03*
D21*
X82900000Y-118500000D03*
X85400000Y-118500000D03*
X83000000Y-107500000D03*
X85500000Y-107500000D03*
D20*
X117850000Y-84500000D03*
X115150000Y-84500000D03*
X106200000Y-110500000D03*
X103500000Y-110500000D03*
X117850000Y-92000000D03*
X115150000Y-92000000D03*
X82800000Y-116000000D03*
X85500000Y-116000000D03*
D31*
X124000000Y-110725000D03*
X124000000Y-118275000D03*
D23*
X85500000Y-109550000D03*
X85500000Y-111450000D03*
X82800000Y-110500000D03*
D13*
X118425000Y-87000000D03*
X114575000Y-87000000D03*
D31*
X124000000Y-89275000D03*
X124000000Y-81725000D03*
D23*
X115650000Y-120450000D03*
X115650000Y-118550000D03*
X118350000Y-119500000D03*
D20*
X115150000Y-89500000D03*
X117850000Y-89500000D03*
X115150000Y-87000000D03*
X117850000Y-87000000D03*
D21*
X103500000Y-108000000D03*
X106000000Y-108000000D03*
D32*
X89650000Y-107825000D03*
X96000000Y-106555000D03*
X96000000Y-107825000D03*
X96000000Y-109095000D03*
X96000000Y-110365000D03*
X96000000Y-111635000D03*
X96000000Y-112905000D03*
X96000000Y-114175000D03*
X96000000Y-115445000D03*
X89650000Y-115445000D03*
X89650000Y-114175000D03*
X89650000Y-112905000D03*
X89650000Y-111635000D03*
X89650000Y-110365000D03*
X89650000Y-109095000D03*
X89650000Y-106555000D03*
D33*
X103500000Y-113000000D03*
X103500000Y-115680000D03*
X106300000Y-115680000D03*
X106300000Y-113000000D03*
D34*
X101650000Y-106225000D03*
X101650000Y-105575000D03*
X101650000Y-104925000D03*
X101650000Y-104275000D03*
X101650000Y-103625000D03*
X101650000Y-102975000D03*
X101650000Y-102325000D03*
X101650000Y-101675000D03*
X101650000Y-101025000D03*
X101650000Y-100375000D03*
X101650000Y-99725000D03*
X101650000Y-99075000D03*
X101650000Y-98425000D03*
X101650000Y-97775000D03*
X107350000Y-97775000D03*
X107350000Y-98425000D03*
X107350000Y-99075000D03*
X107350000Y-99725000D03*
X107350000Y-100375000D03*
X107350000Y-101025000D03*
X107350000Y-101675000D03*
X107350000Y-102325000D03*
X107350000Y-102975000D03*
X107350000Y-103625000D03*
X107350000Y-104275000D03*
X107350000Y-104925000D03*
X107350000Y-105575000D03*
X107350000Y-106225000D03*
D35*
X98663000Y-85935200D03*
X125523500Y-85468900D03*
X99099400Y-72812600D03*
X104497000Y-126322000D03*
D36*
X73400000Y-113700000D03*
D35*
X119671000Y-120829000D03*
X103408787Y-98846702D03*
D36*
X74471092Y-86371092D03*
D35*
X100723300Y-86171900D03*
X100265228Y-82353112D03*
X83877700Y-82554400D03*
X81571900Y-107074000D03*
X98096700Y-116089500D03*
X98096700Y-113038700D03*
D36*
X124900000Y-107900000D03*
X124900000Y-92100000D03*
D35*
X123000000Y-98000000D03*
X87504400Y-105892900D03*
X87248400Y-84148200D03*
X87459400Y-94942800D03*
X87132800Y-87296800D03*
X87335300Y-80824800D03*
X116500000Y-93501800D03*
X118500000Y-74500000D03*
X106903300Y-86984000D03*
X123397800Y-86751200D03*
X113575700Y-125144500D03*
X120054500Y-98815600D03*
X120315100Y-97160100D03*
X106443600Y-74829800D03*
X74847400Y-89753400D03*
X110676000Y-118612200D03*
X119536400Y-110588000D03*
X75376600Y-108947600D03*
X83100008Y-76300000D03*
X118355000Y-71805000D03*
X117900000Y-80684400D03*
X91720500Y-86522000D03*
X92832300Y-94037100D03*
X102146600Y-92942800D03*
X102570700Y-75222600D03*
X109189500Y-108607400D03*
X108418400Y-119304800D03*
X82330700Y-84767600D03*
X86794500Y-98273200D03*
X77701200Y-103670800D03*
X120619500Y-107982700D03*
X112687200Y-121715500D03*
X82568793Y-78954330D03*
X89511900Y-78648300D03*
X98280100Y-75098500D03*
X94284400Y-79489800D03*
X98538500Y-117677800D03*
X92568000Y-80710000D03*
X94749600Y-124706100D03*
X90500800Y-85019200D03*
X92107500Y-100414700D03*
X83545900Y-103168000D03*
X86640300Y-85714900D03*
X127541000Y-97719000D03*
X96622800Y-89712200D03*
X96674800Y-83036600D03*
X96656100Y-79896500D03*
X83200000Y-77999994D03*
X110482700Y-87758100D03*
X119679800Y-87350000D03*
X111348500Y-92666200D03*
X123052400Y-106993200D03*
X102849900Y-103878100D03*
X84516000Y-94168500D03*
X85689800Y-102846600D03*
X85148800Y-92858900D03*
X87226000Y-101052700D03*
X98298800Y-99543500D03*
X106200000Y-88930500D03*
X120903000Y-92597300D03*
X106200000Y-90069500D03*
X120097000Y-93402700D03*
X110596600Y-104576700D03*
X111754900Y-103614700D03*
X108112800Y-121090400D03*
X99722900Y-98846000D03*
X92832300Y-99300500D03*
X106346605Y-96424565D03*
X102247742Y-96620744D03*
X102455721Y-79887300D03*
X105263669Y-96282522D03*
X109119700Y-98185900D03*
X104900000Y-98300000D03*
X110843100Y-99725000D03*
X107351818Y-96851734D03*
X112342400Y-101331300D03*
X109523600Y-101502800D03*
X97551000Y-102538300D03*
X104392269Y-96940996D03*
X104299400Y-106106200D03*
X98931300Y-101753300D03*
X99297100Y-120459400D03*
X103907600Y-104394200D03*
X100041000Y-101343300D03*
X100448600Y-119309500D03*
X108396300Y-115804000D03*
X108976800Y-106803100D03*
X113841700Y-100960000D03*
X97485200Y-83792800D03*
X103862302Y-100514636D03*
X95179400Y-84275900D03*
X99047900Y-102975000D03*
X113340400Y-102466300D03*
X92706300Y-104353500D03*
X91357900Y-96944200D03*
X113092000Y-98118000D03*
X90258600Y-89366800D03*
X101284400Y-108384200D03*
X97429000Y-100441900D03*
X90924700Y-108043500D03*
X97221800Y-107579400D03*
X93569600Y-109821900D03*
X97230500Y-109420700D03*
X97253400Y-110833900D03*
X97266900Y-112096300D03*
X93546200Y-113560700D03*
X97228600Y-113925900D03*
D37*
X96671800Y-85328200D02*
X96154900Y-84811300D01*
X85500000Y-111450000D02*
X86606000Y-110344000D01*
X86606000Y-110344000D02*
X86606000Y-108973800D01*
X86606000Y-108973800D02*
X86113100Y-108480900D01*
X86113100Y-108480900D02*
X85500000Y-108480900D01*
X85500000Y-111450000D02*
X85500000Y-113500000D01*
X85500000Y-107500000D02*
X85500000Y-108480900D01*
X96154900Y-84811300D02*
X95831800Y-85134400D01*
X95831800Y-85134400D02*
X94743000Y-85134400D01*
X94743000Y-85134400D02*
X94343100Y-84734500D01*
X94343100Y-84734500D02*
X94197800Y-84734500D01*
X94197800Y-84734500D02*
X94072700Y-84609300D01*
X96671800Y-85328200D02*
X97188700Y-85845100D01*
X98663000Y-85935200D02*
X98572900Y-85845100D01*
X98572900Y-85845100D02*
X97188700Y-85845100D01*
X93255300Y-85426700D02*
X94072700Y-84609300D01*
X85866000Y-83305400D02*
X85048600Y-82487900D01*
X84828200Y-81171800D02*
X85345100Y-81688700D01*
X85048600Y-82487900D02*
X85151300Y-82385200D01*
X85151300Y-82385200D02*
X85151300Y-81882500D01*
X85151300Y-81882500D02*
X85345100Y-81688700D01*
X78714400Y-87369500D02*
X79025900Y-87369500D01*
X79025900Y-87369500D02*
X80328200Y-88671800D01*
X73863600Y-87369500D02*
X78714400Y-87369500D01*
X78714400Y-87369500D02*
X78714400Y-82514400D01*
X78714400Y-82514400D02*
X79774500Y-81454300D01*
X79774500Y-81454300D02*
X79954300Y-81454300D01*
X79954300Y-81454300D02*
X79954300Y-81274600D01*
X79954300Y-81274600D02*
X81009200Y-80219700D01*
X81009200Y-80219700D02*
X83876100Y-80219700D01*
X83876100Y-80219700D02*
X84828200Y-81171800D01*
X81000000Y-82500000D02*
X79954300Y-81454300D01*
X117850000Y-84500000D02*
X118955900Y-84500000D01*
X125523500Y-85468900D02*
X119924800Y-85468900D01*
X119924800Y-85468900D02*
X118955900Y-84500000D01*
X115650000Y-114368000D02*
X106486100Y-114368000D01*
X106486100Y-114368000D02*
X106300000Y-114554100D01*
D38*
X115650000Y-114368000D02*
X115650000Y-115900000D01*
X115650000Y-115900000D02*
X115750000Y-116000000D01*
X115650000Y-113450000D02*
X115650000Y-114368000D01*
D37*
X106300000Y-115680000D02*
X106300000Y-114554100D01*
X106300000Y-114554100D02*
X98491300Y-114554100D01*
X98491300Y-114554100D02*
X97600400Y-115445000D01*
X97600400Y-115445000D02*
X96000000Y-115445000D01*
D38*
X73863600Y-87369500D02*
X73863600Y-94657700D01*
X73863600Y-94657700D02*
X71963600Y-96557700D01*
X71963600Y-96557700D02*
X71963600Y-103442000D01*
X71963600Y-103442000D02*
X73900000Y-105379000D01*
X73900000Y-105379000D02*
X73900000Y-109727000D01*
D37*
X83744700Y-88573300D02*
X82927400Y-89390600D01*
X82927400Y-89390600D02*
X82828100Y-89291400D01*
X82828100Y-89291400D02*
X80947800Y-89291400D01*
X80947800Y-89291400D02*
X80328200Y-88671800D01*
X81730000Y-96200000D02*
X83235900Y-96200000D01*
X90171800Y-95171800D02*
X89143600Y-96200000D01*
X89143600Y-96200000D02*
X83235900Y-96200000D01*
X90430300Y-94913300D02*
X90171800Y-95171800D01*
X90430300Y-94913300D02*
X90688700Y-94654900D01*
X90890700Y-92572600D02*
X90762000Y-92701300D01*
X90762000Y-92701300D02*
X90762000Y-92742500D01*
X90762000Y-92742500D02*
X90688700Y-92815800D01*
X90688700Y-92815800D02*
X90688700Y-94654900D01*
X117750000Y-100480900D02*
X118248900Y-100480900D01*
X118248900Y-100480900D02*
X120990000Y-103222000D01*
X117850000Y-93005900D02*
X118352900Y-93005900D01*
X118352900Y-93005900D02*
X118977800Y-93630800D01*
X118977800Y-93630800D02*
X118977800Y-96262600D01*
X118977800Y-96262600D02*
X117750000Y-97490400D01*
X117750000Y-99500000D02*
X117750000Y-100480900D01*
X120990000Y-103510000D02*
X120990000Y-103222000D01*
X95072600Y-115445000D02*
X93905900Y-116611700D01*
X93905900Y-116611700D02*
X86606000Y-116611700D01*
X85500000Y-113500000D02*
X85500000Y-114505900D01*
X86606000Y-116611700D02*
X86606000Y-116838700D01*
X86606000Y-116838700D02*
X85925600Y-117519100D01*
X85925600Y-117519100D02*
X85400000Y-117519100D01*
X85500000Y-114505900D02*
X86002900Y-114505900D01*
X86002900Y-114505900D02*
X86606000Y-115109000D01*
X86606000Y-115109000D02*
X86606000Y-116611700D01*
X96000000Y-115445000D02*
X95072600Y-115445000D01*
X85400000Y-118500000D02*
X85400000Y-117519100D01*
D38*
X124450000Y-102500000D02*
X122000000Y-102500000D01*
X122000000Y-102500000D02*
X120990000Y-103510000D01*
D37*
X117850000Y-92000000D02*
X117850000Y-93005900D01*
X117750000Y-97490400D02*
X117750000Y-97980900D01*
X117750000Y-97000000D02*
X117750000Y-97490400D01*
X103500000Y-108000000D02*
X103500000Y-110500000D01*
X103500000Y-107797600D02*
X103500000Y-108000000D01*
X102555900Y-106225000D02*
X103350000Y-107019100D01*
X103350000Y-107019100D02*
X103500000Y-107019100D01*
X103500000Y-107797600D02*
X103500000Y-107019100D01*
X117750000Y-97980900D02*
X117750000Y-99500000D01*
X90073300Y-91755300D02*
X90890700Y-92572600D01*
X101650000Y-106225000D02*
X102555900Y-106225000D01*
X102949000Y-127400000D02*
X102948900Y-127400000D01*
X102949000Y-127400000D02*
X104154000Y-127400000D01*
X104154000Y-127400000D02*
X104154000Y-126664000D01*
X104154000Y-126664000D02*
X104497000Y-126322000D01*
D38*
X126000000Y-102350000D02*
X127150000Y-103500000D01*
X126000000Y-97500000D02*
X126000000Y-102350000D01*
X120990000Y-103510000D02*
X120500000Y-104000000D01*
X120500000Y-104000000D02*
X120500000Y-106750000D01*
X120500000Y-106750000D02*
X118250000Y-109000000D01*
D37*
X97051100Y-72700000D02*
X98986800Y-72700000D01*
X98986800Y-72700000D02*
X99099400Y-72812600D01*
D38*
X126000000Y-97500000D02*
X126150000Y-97500000D01*
X126150000Y-97500000D02*
X127150000Y-96500000D01*
X124450000Y-97500000D02*
X126000000Y-97500000D01*
X83490000Y-128730000D02*
X83230000Y-128730000D01*
X126000000Y-102350000D02*
X124600000Y-102350000D01*
X124600000Y-102350000D02*
X124450000Y-102500000D01*
X73900000Y-109764000D02*
X73900000Y-113200000D01*
X73900000Y-113200000D02*
X73400000Y-113700000D01*
X124000000Y-81725000D02*
X126965000Y-81725000D01*
X126965000Y-81725000D02*
X128730000Y-83490000D01*
X128730000Y-116510000D02*
X128730000Y-117270000D01*
X128730000Y-117270000D02*
X127725000Y-118275000D01*
X127725000Y-118275000D02*
X124000000Y-118275000D01*
X115650000Y-113450000D02*
X116650000Y-113450000D01*
X116650000Y-113450000D02*
X117000000Y-113100000D01*
X117000000Y-113100000D02*
X117000000Y-111700000D01*
X117000000Y-111700000D02*
X118250000Y-110450000D01*
X118250000Y-110450000D02*
X118250000Y-109000000D01*
D37*
X115650000Y-120450000D02*
X118250000Y-120450000D01*
X118250000Y-120450000D02*
X118629000Y-120829000D01*
X118629000Y-120829000D02*
X119671000Y-120829000D01*
X124450000Y-101300000D02*
X124450000Y-102500000D01*
X102964288Y-101067188D02*
X102964288Y-99291201D01*
X105114700Y-103217600D02*
X102964288Y-101067188D01*
X105114700Y-106422900D02*
X105114700Y-103217600D01*
X104518500Y-107019100D02*
X105114700Y-106422900D01*
X103500000Y-107019100D02*
X104518500Y-107019100D01*
X102964288Y-99291201D02*
X103408787Y-98846702D01*
D38*
X116510000Y-71270000D02*
X116510000Y-74010000D01*
X119400000Y-75900000D02*
X124000000Y-80500000D01*
X124000000Y-80500000D02*
X124000000Y-81725000D01*
X116510000Y-74010000D02*
X118400000Y-75900000D01*
X118400000Y-75900000D02*
X119400000Y-75900000D01*
X118270000Y-128730000D02*
X116510000Y-128730000D01*
X120500000Y-126500000D02*
X118270000Y-128730000D01*
X124000000Y-118275000D02*
X121700000Y-120575000D01*
X121700000Y-120575000D02*
X121700000Y-122292974D01*
X121700000Y-122292974D02*
X120500000Y-123492974D01*
X120500000Y-123492974D02*
X120500000Y-126500000D01*
X74560000Y-119500000D02*
X71570000Y-116510000D01*
X83490000Y-128730000D02*
X82000000Y-128730000D01*
X71570000Y-116510000D02*
X71270000Y-116510000D01*
X82000000Y-128730000D02*
X82000000Y-128500000D01*
X75750000Y-119500000D02*
X74560000Y-119500000D01*
X82000000Y-128500000D02*
X79500000Y-126000000D01*
X79500000Y-123250000D02*
X75750000Y-119500000D01*
X79500000Y-126000000D02*
X79500000Y-123250000D01*
X82030400Y-71270000D02*
X83490000Y-71270000D01*
X80250000Y-73050400D02*
X82030400Y-71270000D01*
X80250000Y-74000000D02*
X80250000Y-73050400D01*
X73863600Y-87369500D02*
X74424591Y-87369500D01*
X74424591Y-87369500D02*
X74471092Y-87322999D01*
X74471092Y-87322999D02*
X74471092Y-86371092D01*
X80250000Y-75000000D02*
X80250000Y-76250000D01*
X80250000Y-75000000D02*
X80250000Y-75385512D01*
X80250000Y-74000000D02*
X80250000Y-75000000D01*
X71570000Y-83490000D02*
X71270000Y-83490000D01*
X73029600Y-82030400D02*
X71570000Y-83490000D01*
X74469600Y-82030400D02*
X73029600Y-82030400D01*
X80250000Y-76250000D02*
X74469600Y-82030400D01*
D39*
X113669900Y-89500000D02*
X110341800Y-86171900D01*
X110341800Y-86171900D02*
X100723300Y-86171900D01*
X114575000Y-89500000D02*
X113669900Y-89500000D01*
X114575000Y-89500000D02*
X114575000Y-90405100D01*
X115150000Y-92000000D02*
X115150000Y-90980100D01*
X115150000Y-90980100D02*
X114575000Y-90405100D01*
X115150000Y-89500000D02*
X114575000Y-89500000D01*
X99778416Y-81866300D02*
X99820729Y-81908613D01*
X90426900Y-82598300D02*
X91158900Y-81866300D01*
X91158900Y-81866300D02*
X99778416Y-81866300D01*
X99820729Y-81908613D02*
X100265228Y-82353112D01*
X85512500Y-83658900D02*
X84408000Y-82554400D01*
X84408000Y-82554400D02*
X83877700Y-82554400D01*
X81944900Y-107500000D02*
X81571900Y-107127000D01*
X81571900Y-107127000D02*
X81571900Y-107074000D01*
X83000000Y-107500000D02*
X81944900Y-107500000D01*
X82800000Y-110500000D02*
X82800000Y-109794900D01*
X82800000Y-109794900D02*
X83000000Y-109594900D01*
X83000000Y-109594900D02*
X83000000Y-107500000D01*
D37*
X106444100Y-106225000D02*
X106444100Y-104925000D01*
X106000000Y-108000000D02*
X106000000Y-106669100D01*
X106000000Y-106669100D02*
X106444100Y-106225000D01*
X107350000Y-104925000D02*
X106444100Y-104925000D01*
X106000000Y-108000000D02*
X106000000Y-108980900D01*
X106000000Y-108980900D02*
X105754700Y-108980900D01*
X105754700Y-108980900D02*
X105019100Y-109716500D01*
X105019100Y-109716500D02*
X105019100Y-110918000D01*
X105019100Y-110918000D02*
X104405900Y-111531200D01*
X104405900Y-111531200D02*
X99604200Y-111531200D01*
X99604200Y-111531200D02*
X98096700Y-113038700D01*
X107350000Y-106225000D02*
X106444100Y-106225000D01*
X115650000Y-117794100D02*
X115095900Y-117240000D01*
X115095900Y-117240000D02*
X99247200Y-117240000D01*
X99247200Y-117240000D02*
X98096700Y-116089500D01*
X115650000Y-118550000D02*
X115650000Y-117794100D01*
D38*
X115650000Y-118550000D02*
X116750000Y-118550000D01*
X116750000Y-118550000D02*
X117000000Y-118300000D01*
X117000000Y-118300000D02*
X117900000Y-118300000D01*
X117900000Y-118300000D02*
X118250000Y-117950000D01*
X118250000Y-117950000D02*
X118250000Y-116000000D01*
D37*
X124450000Y-98700000D02*
X123975000Y-98700000D01*
D38*
X123125000Y-110725000D02*
X124000000Y-110725000D01*
X124000000Y-110725000D02*
X123125000Y-110725000D01*
X118250000Y-116000000D02*
X118200000Y-116000000D01*
X124900000Y-107900000D02*
X124000000Y-108800000D01*
X124000000Y-108800000D02*
X124000000Y-110725000D01*
X124000000Y-89275000D02*
X124000000Y-91200000D01*
X124000000Y-91200000D02*
X124900000Y-92100000D01*
X118250000Y-116000000D02*
X118250000Y-112600000D01*
X118250000Y-112600000D02*
X118350000Y-112500000D01*
X118350000Y-112500000D02*
X120000000Y-112500000D01*
X120000000Y-112500000D02*
X121775000Y-110725000D01*
X121775000Y-110725000D02*
X123125000Y-110725000D01*
D37*
X124450000Y-98700000D02*
X123975000Y-98700000D01*
X123975000Y-98700000D02*
X123700000Y-98700000D01*
X123700000Y-98700000D02*
X123000000Y-98000000D01*
X95328200Y-86671800D02*
X94811300Y-86154900D01*
X94811300Y-86154900D02*
X93828500Y-86154900D01*
X93828500Y-86154900D02*
X93608800Y-85935200D01*
X87132800Y-87296800D02*
X87170200Y-87334200D01*
X87170200Y-87334200D02*
X92209800Y-87334200D01*
X92209800Y-87334200D02*
X93608800Y-85935200D01*
X84208600Y-87198800D02*
X84306600Y-87296800D01*
X84306600Y-87296800D02*
X87132800Y-87296800D01*
D40*
X93608800Y-85935200D02*
X93608800Y-85780200D01*
D37*
X88265800Y-106555000D02*
X87811400Y-106555000D01*
X87811400Y-106555000D02*
X87504400Y-106248000D01*
X88722600Y-106555000D02*
X88265800Y-106555000D01*
X88722600Y-114175000D02*
X88265800Y-113718200D01*
X88265800Y-113718200D02*
X88265800Y-106555000D01*
X89650000Y-106555000D02*
X88722600Y-106555000D01*
X87504400Y-105892900D02*
X87504400Y-106248000D01*
X102244100Y-113000000D02*
X99317600Y-113000000D01*
X99317600Y-113000000D02*
X97532700Y-114784900D01*
X97532700Y-114784900D02*
X94044500Y-114784900D01*
X94044500Y-114784900D02*
X92774500Y-116054900D01*
X92774500Y-116054900D02*
X88931100Y-116054900D01*
X88931100Y-116054900D02*
X88722600Y-115846400D01*
X88722600Y-115846400D02*
X88722600Y-114175000D01*
X87504400Y-106248000D02*
X80497900Y-106248000D01*
X80497900Y-106248000D02*
X80395900Y-106350000D01*
D40*
X83391200Y-88064800D02*
X83391200Y-88219800D01*
D37*
X83391200Y-88016200D02*
X83391200Y-88064800D01*
X83391200Y-88016200D02*
X83220100Y-87845100D01*
X83220100Y-87845100D02*
X82188700Y-87845100D01*
X84208600Y-87198800D02*
X83391200Y-88016200D01*
X106300000Y-113000000D02*
X107555900Y-113000000D01*
X115650000Y-111550000D02*
X115650000Y-112305900D01*
X107555900Y-113000000D02*
X108250000Y-112305900D01*
X108250000Y-112305900D02*
X115650000Y-112305900D01*
X103500000Y-113000000D02*
X106300000Y-113000000D01*
X79190000Y-106350000D02*
X80395900Y-106350000D01*
D40*
X86231400Y-82951800D02*
X86219600Y-82951800D01*
D37*
X87248400Y-84148200D02*
X87248400Y-83968800D01*
X87248400Y-83968800D02*
X86231400Y-82951800D01*
X88311300Y-94345100D02*
X87713700Y-94942700D01*
X87713700Y-94942700D02*
X87459400Y-94942700D01*
X87459400Y-94942700D02*
X87459400Y-94942800D01*
X87335300Y-80824800D02*
X86855600Y-80345100D01*
X86855600Y-80345100D02*
X86688700Y-80345100D01*
X88828200Y-93828200D02*
X88311300Y-94345100D01*
X81671800Y-87328200D02*
X82188700Y-87845100D01*
X84208700Y-86597600D02*
X84208600Y-86597700D01*
X84208600Y-86597700D02*
X84208600Y-87198800D01*
D40*
X89719800Y-92329200D02*
X89719800Y-92108800D01*
D37*
X88828200Y-93828200D02*
X89719800Y-92936600D01*
X89719800Y-92936600D02*
X89719800Y-92329200D01*
X86171800Y-79828200D02*
X86688700Y-80345100D01*
X115750000Y-109000000D02*
X115750000Y-109980900D01*
X115650000Y-111550000D02*
X115650000Y-110080900D01*
X115650000Y-110080900D02*
X115750000Y-109980900D01*
X83391200Y-85780200D02*
X84208700Y-86597600D01*
X117850000Y-95002900D02*
X116500000Y-93652900D01*
X116500000Y-93652900D02*
X116500000Y-93501800D01*
X117850000Y-95002900D02*
X117850000Y-95505900D01*
X117850000Y-94500000D02*
X117850000Y-95002900D01*
X103500000Y-113000000D02*
X102244100Y-113000000D01*
X89650000Y-114175000D02*
X88722600Y-114175000D01*
X115750000Y-108019100D02*
X117850000Y-105919100D01*
X117850000Y-105919100D02*
X117850000Y-103005900D01*
X117850000Y-102000000D02*
X117850000Y-103005900D01*
X117850000Y-102000000D02*
X117850000Y-100994100D01*
X117850000Y-95505900D02*
X117347000Y-95505900D01*
X117347000Y-95505900D02*
X116596800Y-96256100D01*
X116596800Y-96256100D02*
X116596800Y-100243900D01*
X116596800Y-100243900D02*
X117347000Y-100994100D01*
X117347000Y-100994100D02*
X117850000Y-100994100D01*
X115750000Y-109000000D02*
X115750000Y-108019100D01*
X118650000Y-74350000D02*
X118500000Y-74500000D01*
X120000000Y-74350000D02*
X118650000Y-74350000D01*
D38*
X113970000Y-71270000D02*
X113970000Y-71670000D01*
X113970000Y-71670000D02*
X115646000Y-73346400D01*
X115646000Y-73346400D02*
X115646000Y-74367700D01*
X115646000Y-74367700D02*
X118079000Y-76800000D01*
X122000000Y-83900000D02*
X122300000Y-84200000D01*
X122300000Y-84200000D02*
X126500000Y-84200000D01*
X126500000Y-84200000D02*
X128330000Y-86030000D01*
X128330000Y-86030000D02*
X128730000Y-86030000D01*
X120800000Y-120575000D02*
X120800000Y-120539000D01*
X120800000Y-120539000D02*
X120800000Y-120200000D01*
X120800000Y-120200000D02*
X122000000Y-119000000D01*
X122000000Y-119000000D02*
X122000000Y-114300000D01*
X122000000Y-114300000D02*
X122330000Y-113970000D01*
X122330000Y-113970000D02*
X128330000Y-113970000D01*
X128730000Y-113970000D02*
X128330000Y-113970000D01*
X71670000Y-86030000D02*
X72230000Y-86030000D01*
X72230000Y-86030000D02*
X73000000Y-86800000D01*
X73000000Y-86800000D02*
X73000000Y-94300000D01*
X73000000Y-94300000D02*
X71100000Y-96200000D01*
X71100000Y-96200000D02*
X71100000Y-103800000D01*
X71100000Y-103800000D02*
X73000000Y-105700000D01*
X73000000Y-105700000D02*
X73000000Y-112100000D01*
X73000000Y-112100000D02*
X71270000Y-113830000D01*
X71270000Y-113830000D02*
X71270000Y-113970000D01*
X71270000Y-86030000D02*
X71670000Y-86030000D01*
X128730000Y-86030000D02*
X127970000Y-86030000D01*
X71740000Y-86500000D02*
X71270000Y-86030000D01*
X71270000Y-86030000D02*
X71670000Y-86030000D01*
X128330000Y-113970000D02*
X128730000Y-113970000D01*
X120800000Y-120539000D02*
X120836000Y-120575000D01*
X120836000Y-120575000D02*
X120800000Y-120575000D01*
X118350000Y-119500000D02*
X119761000Y-119500000D01*
X119761000Y-119500000D02*
X120800000Y-120539000D01*
X118079000Y-76800000D02*
X118550000Y-76800000D01*
X118550000Y-76800000D02*
X122000000Y-80250000D01*
X122000000Y-80250000D02*
X122000000Y-83900000D01*
X113970000Y-128330000D02*
X113970000Y-128730000D01*
X120800000Y-120575000D02*
X120800000Y-121950000D01*
X120800000Y-121950000D02*
X115750000Y-127000000D01*
X115750000Y-127000000D02*
X115300000Y-127000000D01*
X115300000Y-127000000D02*
X113970000Y-128330000D01*
X86030000Y-128730000D02*
X86030000Y-128430000D01*
X86030000Y-128430000D02*
X71570000Y-113970000D01*
X71570000Y-113970000D02*
X71270000Y-113970000D01*
X86030000Y-71270000D02*
X86030000Y-72370640D01*
X86030000Y-72370640D02*
X85400251Y-73000389D01*
X85400251Y-73000389D02*
X84220941Y-73000389D01*
X84220941Y-73000389D02*
X81113611Y-76107719D01*
X81113611Y-76107719D02*
X81113610Y-76607720D01*
X71691330Y-86030000D02*
X71670000Y-86030000D01*
X81113610Y-76607720D02*
X71691330Y-86030000D01*
D39*
X93255300Y-88573300D02*
X94141600Y-89459600D01*
X94141600Y-89459600D02*
X95470200Y-89459600D01*
X95470200Y-89459600D02*
X95967200Y-88962600D01*
X95967200Y-88962600D02*
X97271000Y-88962600D01*
X97271000Y-88962600D02*
X99249600Y-86984000D01*
X99249600Y-86984000D02*
X106903300Y-86984000D01*
X84098300Y-88926900D02*
X84953900Y-88071300D01*
X84953900Y-88071300D02*
X87443400Y-88071300D01*
X87443400Y-88071300D02*
X87468300Y-88046400D01*
X87468300Y-88046400D02*
X91533500Y-88046400D01*
X91533500Y-88046400D02*
X91673700Y-87906200D01*
X91673700Y-87906200D02*
X92107200Y-87906200D01*
X92107200Y-87906200D02*
X92137500Y-87875900D01*
X92137500Y-87875900D02*
X92389800Y-87875900D01*
X92389800Y-87875900D02*
X92473900Y-87791800D01*
X128730000Y-89954900D02*
X128073300Y-89954900D01*
X128073300Y-89954900D02*
X126432900Y-88314500D01*
X126432900Y-88314500D02*
X126432900Y-88015500D01*
X126432900Y-88015500D02*
X125168600Y-86751200D01*
X125168600Y-86751200D02*
X123397800Y-86751200D01*
X108890000Y-72725100D02*
X108548300Y-72725100D01*
X108548300Y-72725100D02*
X106443600Y-74829800D01*
X128730000Y-91110000D02*
X128730000Y-89954900D01*
X84098300Y-88926900D02*
X83143400Y-89881800D01*
X83143400Y-89881800D02*
X74975800Y-89881800D01*
X74975800Y-89881800D02*
X74847400Y-89753400D01*
X108890000Y-128730000D02*
X110045100Y-128730000D01*
X120315100Y-97160100D02*
X120315100Y-98555000D01*
X120315100Y-98555000D02*
X120054500Y-98815600D01*
X110045100Y-128730000D02*
X110045100Y-128125000D01*
X110045100Y-128125000D02*
X113025600Y-125144500D01*
X113025600Y-125144500D02*
X113575700Y-125144500D01*
X108890000Y-71270000D02*
X108890000Y-72725100D01*
X93255300Y-88573300D02*
X92473900Y-87791800D01*
X85233300Y-88498900D02*
X85233300Y-88499000D01*
X85233300Y-88499000D02*
X91694000Y-88499000D01*
X91694000Y-88499000D02*
X91880100Y-88312900D01*
X91880100Y-88312900D02*
X92287700Y-88312900D01*
X92287700Y-88312900D02*
X92901700Y-88926900D01*
X110676000Y-118612200D02*
X110618000Y-118554200D01*
X110618000Y-118554200D02*
X100043200Y-118554200D01*
X100043200Y-118554200D02*
X97306900Y-121290500D01*
X75494800Y-108947600D02*
X75494800Y-112973000D01*
X75494800Y-112973000D02*
X83812300Y-121290500D01*
X83812300Y-121290500D02*
X97306900Y-121290500D01*
X97306900Y-121290500D02*
X97306900Y-123637600D01*
X97306900Y-123637600D02*
X94193300Y-126751200D01*
X94193300Y-126751200D02*
X93647200Y-126751200D01*
X93647200Y-126751200D02*
X92265100Y-128133300D01*
X92265100Y-128133300D02*
X92265100Y-128730000D01*
X83670400Y-90061800D02*
X82241000Y-91491200D01*
X82241000Y-91491200D02*
X81222600Y-91491200D01*
X81222600Y-91491200D02*
X81028600Y-91685200D01*
X81028600Y-91685200D02*
X80853800Y-91685200D01*
X80853800Y-91685200D02*
X77910600Y-94628400D01*
X77910600Y-94628400D02*
X77910600Y-95821600D01*
X77910600Y-95821600D02*
X75494800Y-98237400D01*
X75494800Y-98237400D02*
X75494800Y-108947600D01*
X75494800Y-108947600D02*
X75376600Y-108947600D01*
X128730000Y-108890000D02*
X128730000Y-107734900D01*
X91110000Y-128730000D02*
X92265100Y-128730000D01*
X128730000Y-107734900D02*
X127574900Y-107734900D01*
X127574900Y-107734900D02*
X126083500Y-106243500D01*
X126083500Y-106243500D02*
X122741900Y-106243500D01*
X122741900Y-106243500D02*
X121392000Y-107593400D01*
X121392000Y-107593400D02*
X121392000Y-108732400D01*
X121392000Y-108732400D02*
X119536400Y-110588000D01*
X84451800Y-89280400D02*
X83670400Y-90061800D01*
X84451800Y-89280400D02*
X85233300Y-88498900D01*
X84965808Y-74434200D02*
X83544507Y-75855501D01*
X83544507Y-75855501D02*
X83100008Y-76300000D01*
X88245800Y-74434200D02*
X84965808Y-74434200D01*
X91110000Y-71570000D02*
X88245800Y-74434200D01*
X91110000Y-71270000D02*
X91110000Y-71570000D01*
X115150000Y-81044900D02*
X101686200Y-81044900D01*
X101686200Y-81044900D02*
X101684900Y-81043600D01*
X101684900Y-81043600D02*
X101373800Y-81043600D01*
X101373800Y-81043600D02*
X101257300Y-80927100D01*
X101257300Y-80927100D02*
X94054800Y-80927100D01*
X94054800Y-80927100D02*
X93605200Y-80477500D01*
X93605200Y-80477500D02*
X93512600Y-80477500D01*
X93512600Y-80477500D02*
X93415500Y-80380400D01*
X93415500Y-80380400D02*
X93298600Y-80380400D01*
X93298600Y-80380400D02*
X92878600Y-79960400D01*
X92878600Y-79960400D02*
X92257200Y-79960400D01*
X92257200Y-79960400D02*
X91837200Y-80380400D01*
X91837200Y-80380400D02*
X91246800Y-80380400D01*
X91246800Y-80380400D02*
X91230200Y-80397000D01*
X91230200Y-80397000D02*
X90677700Y-80397000D01*
X90677700Y-80397000D02*
X90612300Y-80462400D01*
X90612300Y-80462400D02*
X90483500Y-80462400D01*
X90483500Y-80462400D02*
X88749700Y-82196200D01*
X88749700Y-82196200D02*
X88749700Y-83674300D01*
X88749700Y-83674300D02*
X87998000Y-84426000D01*
X87998000Y-84426000D02*
X87998000Y-84458800D01*
X87998000Y-84458800D02*
X87559000Y-84897800D01*
X87559000Y-84897800D02*
X87526200Y-84897800D01*
X87526200Y-84897800D02*
X87507500Y-84916500D01*
X87507500Y-84916500D02*
X86712100Y-84916500D01*
X86712100Y-84916500D02*
X86688200Y-84940400D01*
X86688200Y-84940400D02*
X86329800Y-84940400D01*
X86329800Y-84940400D02*
X86218400Y-85051800D01*
X86218400Y-85051800D02*
X85930400Y-85051800D01*
X85930400Y-85051800D02*
X85925700Y-85056500D01*
X85925700Y-85056500D02*
X85832800Y-85056500D01*
X85832800Y-85056500D02*
X85494600Y-85394700D01*
X85494600Y-85394700D02*
X85339600Y-85394700D01*
X85339600Y-85394700D02*
X85233300Y-85501000D01*
X115150000Y-82000000D02*
X115150000Y-81044900D01*
X84451800Y-84719600D02*
X85233300Y-85501000D01*
X120000000Y-71650000D02*
X119044900Y-71650000D01*
X117850000Y-82000000D02*
X117850000Y-81044900D01*
X117850000Y-81044900D02*
X117900000Y-80994900D01*
X117900000Y-80994900D02*
X117900000Y-80684400D01*
X118355000Y-71805000D02*
X118889900Y-71805000D01*
X118889900Y-71805000D02*
X119044900Y-71650000D01*
X115150000Y-83544900D02*
X103183200Y-83544900D01*
X103183200Y-83544900D02*
X101047000Y-81408700D01*
X101047000Y-81408700D02*
X97559900Y-81408700D01*
X97559900Y-81408700D02*
X97509000Y-81459600D01*
X97509000Y-81459600D02*
X90858400Y-81459600D01*
X90858400Y-81459600D02*
X90073300Y-82244700D01*
X115150000Y-84500000D02*
X115150000Y-83544900D01*
X115150000Y-87000000D02*
X115150000Y-84500000D01*
X115150000Y-87000000D02*
X114575000Y-87000000D01*
X80151500Y-83348500D02*
X81251200Y-84448200D01*
X81251200Y-84448200D02*
X81988600Y-83710800D01*
X81988600Y-83710800D02*
X84150200Y-83710800D01*
X84150200Y-83710800D02*
X84805400Y-84366000D01*
X82948200Y-82751200D02*
X83428100Y-83231100D01*
X83428100Y-83231100D02*
X83494300Y-83231100D01*
X83494300Y-83231100D02*
X83567200Y-83304000D01*
X83567200Y-83304000D02*
X84188300Y-83304000D01*
X84188300Y-83304000D02*
X84261200Y-83231100D01*
X84261200Y-83231100D02*
X84377400Y-83231100D01*
X84377400Y-83231100D02*
X84377500Y-83231000D01*
X85158900Y-84012500D02*
X84377500Y-83231000D01*
X81848500Y-81651500D02*
X82948200Y-82751200D01*
X84023900Y-90415500D02*
X82541500Y-91897900D01*
X82541500Y-91897900D02*
X81391100Y-91897900D01*
X81391100Y-91897900D02*
X81197100Y-92091900D01*
X81197100Y-92091900D02*
X81022300Y-92091900D01*
X81022300Y-92091900D02*
X78520500Y-94593700D01*
X78520500Y-94593700D02*
X78520500Y-96759000D01*
X78520500Y-96759000D02*
X78486300Y-96793200D01*
X78486300Y-96793200D02*
X78486300Y-96816000D01*
X78486300Y-96816000D02*
X78006300Y-97296000D01*
X78006300Y-97296000D02*
X78006300Y-100070600D01*
X78006300Y-100070600D02*
X76650000Y-101426900D01*
X76650000Y-101426900D02*
X76650000Y-104894900D01*
X76650000Y-106350000D02*
X76650000Y-107805100D01*
X76650000Y-107805100D02*
X76650000Y-109193500D01*
X76650000Y-109193500D02*
X82501400Y-115044900D01*
X82501400Y-115044900D02*
X82800000Y-115044900D01*
X84805400Y-89634000D02*
X84023900Y-90415500D01*
X76650000Y-106350000D02*
X76650000Y-104894900D01*
X82800000Y-116000000D02*
X82800000Y-116955100D01*
X82900000Y-118500000D02*
X82900000Y-117055100D01*
X82900000Y-117055100D02*
X82800000Y-116955100D01*
X82800000Y-116000000D02*
X82800000Y-115044900D01*
X102146600Y-92942800D02*
X101052300Y-94037100D01*
X101052300Y-94037100D02*
X92832300Y-94037100D01*
X91720500Y-86522000D02*
X84840000Y-86522000D01*
X84840000Y-86522000D02*
X83744700Y-85426700D01*
X102146600Y-92942800D02*
X102748700Y-93544900D01*
X102748700Y-93544900D02*
X115150000Y-93544900D01*
X103103100Y-72700000D02*
X103103100Y-74690200D01*
X103103100Y-74690200D02*
X102570700Y-75222600D01*
X103103100Y-72700000D02*
X103257200Y-72700000D01*
X102948900Y-72700000D02*
X103103100Y-72700000D01*
X115150000Y-94500000D02*
X115150000Y-93544900D01*
X103526300Y-72700000D02*
X103257200Y-72700000D01*
X103526300Y-72700000D02*
X104103600Y-72700000D01*
X106350000Y-71270000D02*
X105194900Y-71270000D01*
X104103600Y-72700000D02*
X104103600Y-72361300D01*
X104103600Y-72361300D02*
X105194900Y-71270000D01*
X115250000Y-97000000D02*
X115250000Y-96069900D01*
X115250000Y-96069900D02*
X115150000Y-95969900D01*
X115150000Y-95969900D02*
X115150000Y-94500000D01*
X83316800Y-84291500D02*
X83160100Y-84448200D01*
X83160100Y-84448200D02*
X82650100Y-84448200D01*
X82650100Y-84448200D02*
X82330700Y-84767600D01*
X98205800Y-127400000D02*
X100918600Y-124687200D01*
X100918600Y-124687200D02*
X103898900Y-124687200D01*
X103898900Y-124687200D02*
X105146600Y-123439500D01*
X105146600Y-123439500D02*
X105146600Y-122159700D01*
X105146600Y-122159700D02*
X108001500Y-119304800D01*
X108001500Y-119304800D02*
X108418400Y-119304800D01*
X97051100Y-127400000D02*
X98205800Y-127400000D01*
X115150000Y-102000000D02*
X115150000Y-102955100D01*
X109189500Y-108607400D02*
X114841800Y-102955100D01*
X114841800Y-102955100D02*
X115150000Y-102955100D01*
X96473800Y-127400000D02*
X97051100Y-127400000D01*
X84098300Y-85073100D02*
X83316800Y-84291500D01*
X115250000Y-99500000D02*
X115250000Y-99965000D01*
X115250000Y-99965000D02*
X115250000Y-100430100D01*
X115150000Y-102000000D02*
X115150000Y-101044900D01*
X115150000Y-101044900D02*
X115250000Y-100944900D01*
X115250000Y-100944900D02*
X115250000Y-100430100D01*
X96473800Y-127400000D02*
X95896400Y-127400000D01*
X93650000Y-128730000D02*
X94805100Y-128730000D01*
X95896400Y-127400000D02*
X95896400Y-127638700D01*
X95896400Y-127638700D02*
X94805100Y-128730000D01*
X104175278Y-95091182D02*
X104546062Y-94720398D01*
X104546062Y-94720398D02*
X108173198Y-94720398D01*
X86794500Y-98273200D02*
X91759500Y-98273200D01*
X112952800Y-99500000D02*
X114296800Y-99500000D01*
X91759500Y-98273200D02*
X94941518Y-95091182D01*
X94941518Y-95091182D02*
X104175278Y-95091182D01*
X114296800Y-99500000D02*
X115250000Y-99500000D01*
X108173198Y-94720398D02*
X112952800Y-99500000D01*
X82800000Y-112544900D02*
X77805200Y-107550100D01*
X77805200Y-107550100D02*
X77805200Y-103774800D01*
X77805200Y-103774800D02*
X77701200Y-103670800D01*
X85500000Y-109550000D02*
X85500000Y-110255100D01*
X85500000Y-110255100D02*
X85089800Y-110255100D01*
X85089800Y-110255100D02*
X82800000Y-112544900D01*
X82800000Y-113500000D02*
X82800000Y-112544900D01*
X82800000Y-113500000D02*
X82800000Y-114455100D01*
X85500000Y-116000000D02*
X85500000Y-115044900D01*
X85500000Y-115044900D02*
X83389800Y-115044900D01*
X83389800Y-115044900D02*
X82800000Y-114455100D01*
X128730000Y-94805100D02*
X128684800Y-94850300D01*
X128684800Y-94850300D02*
X128684800Y-103414500D01*
X128684800Y-103414500D02*
X126285600Y-105813700D01*
X126285600Y-105813700D02*
X122586200Y-105813700D01*
X122586200Y-105813700D02*
X120619500Y-107780400D01*
X120619500Y-107780400D02*
X120619500Y-107982700D01*
X128730000Y-93650000D02*
X128730000Y-94805100D01*
X106350000Y-128730000D02*
X107505100Y-128730000D01*
X107505100Y-128730000D02*
X107505100Y-128152000D01*
X107505100Y-128152000D02*
X109553800Y-126103300D01*
X109553800Y-126103300D02*
X110130900Y-126103300D01*
X110130900Y-126103300D02*
X112687200Y-123547000D01*
X112687200Y-123547000D02*
X112687200Y-121715500D01*
X118425000Y-87000000D02*
X118425000Y-87905100D01*
X128730000Y-93650000D02*
X124681000Y-93650000D01*
X124681000Y-93650000D02*
X118936100Y-87905100D01*
X118936100Y-87905100D02*
X118425000Y-87905100D01*
X117850000Y-87000000D02*
X118425000Y-87000000D01*
X93650000Y-72793200D02*
X93759300Y-72793200D01*
X93759300Y-72793200D02*
X97257200Y-76291100D01*
X97257200Y-76291100D02*
X97257200Y-77574400D01*
X97257200Y-77574400D02*
X99980000Y-80297200D01*
X99980000Y-80297200D02*
X101202600Y-80297200D01*
X101202600Y-80297200D02*
X101542300Y-80636900D01*
X101542300Y-80636900D02*
X115624100Y-80636900D01*
X115624100Y-80636900D02*
X116205200Y-81218000D01*
X116205200Y-81218000D02*
X116205200Y-87258300D01*
X116205200Y-87258300D02*
X117491800Y-88544900D01*
X117491800Y-88544900D02*
X117850000Y-88544900D01*
X117850000Y-89022400D02*
X117947400Y-89022400D01*
X117947400Y-89022400D02*
X118425000Y-89500000D01*
X117850000Y-89022400D02*
X117850000Y-88544900D01*
X117850000Y-89500000D02*
X117850000Y-89022400D01*
X93650000Y-72725100D02*
X93650000Y-72793200D01*
X93650000Y-71270000D02*
X93650000Y-72725100D01*
X82859666Y-77249302D02*
X82124294Y-77984674D01*
X82124294Y-77984674D02*
X82124294Y-78509831D01*
X85167970Y-74841000D02*
X84049302Y-75959668D01*
X84049302Y-75959668D02*
X84049302Y-76759666D01*
X83559666Y-77249302D02*
X82859666Y-77249302D01*
X82124294Y-78509831D02*
X82568793Y-78954330D01*
X84049302Y-76759666D02*
X83559666Y-77249302D01*
X91602200Y-74841000D02*
X85167970Y-74841000D01*
X93650000Y-72793200D02*
X91602200Y-74841000D01*
X98280100Y-75098500D02*
X101198200Y-75098500D01*
X101198200Y-75098500D02*
X102099100Y-75999400D01*
X102099100Y-75999400D02*
X102958700Y-75999400D01*
X102958700Y-75999400D02*
X103316700Y-75641400D01*
X103316700Y-75641400D02*
X106697600Y-75641400D01*
X106697600Y-75641400D02*
X110274900Y-72064100D01*
X110274900Y-72064100D02*
X110274900Y-71270000D01*
X86926700Y-82244700D02*
X85822900Y-81140900D01*
X85822900Y-81140900D02*
X85822900Y-80859400D01*
X85822900Y-80859400D02*
X85139000Y-80175500D01*
X85139000Y-80175500D02*
X85139000Y-79856300D01*
X85139000Y-79856300D02*
X86347000Y-78648300D01*
X86347000Y-78648300D02*
X89511900Y-78648300D01*
X111430000Y-71270000D02*
X110274900Y-71270000D01*
X94284400Y-79489800D02*
X93909300Y-79114700D01*
X93909300Y-79114700D02*
X90292500Y-79114700D01*
X90292500Y-79114700D02*
X87516000Y-81891200D01*
X87516000Y-81891200D02*
X87280200Y-81891200D01*
X112585100Y-128730000D02*
X112585100Y-127574900D01*
X112585100Y-127574900D02*
X115082300Y-125077700D01*
X115082300Y-125077700D02*
X115082300Y-121919700D01*
X115082300Y-121919700D02*
X110876100Y-117713500D01*
X110876100Y-117713500D02*
X98574200Y-117713500D01*
X98574200Y-117713500D02*
X98538500Y-117677800D01*
X111430000Y-128730000D02*
X112585100Y-128730000D01*
X89725100Y-128730000D02*
X89725100Y-128152400D01*
X89725100Y-128152400D02*
X93171400Y-124706100D01*
X93171400Y-124706100D02*
X94749600Y-124706100D01*
X90501400Y-81109600D02*
X90501400Y-81109700D01*
X90501400Y-81109700D02*
X90540200Y-81109700D01*
X90540200Y-81109700D02*
X90846200Y-80803700D01*
X90846200Y-80803700D02*
X91398700Y-80803700D01*
X91398700Y-80803700D02*
X91415300Y-80787100D01*
X91415300Y-80787100D02*
X92490900Y-80787100D01*
X92490900Y-80787100D02*
X92568000Y-80710000D01*
X89719800Y-81891200D02*
X90501400Y-81109600D01*
X88570000Y-128730000D02*
X89725100Y-128730000D01*
X92107500Y-100414700D02*
X91995900Y-100303100D01*
X91995900Y-100303100D02*
X86915500Y-100303100D01*
X86915500Y-100303100D02*
X84050600Y-103168000D01*
X84050600Y-103168000D02*
X83545900Y-103168000D01*
X90500800Y-85019200D02*
X90810100Y-85328500D01*
X90810100Y-85328500D02*
X91939300Y-85328500D01*
X91939300Y-85328500D02*
X92548200Y-84719600D01*
X92120200Y-85854600D02*
X92107900Y-85842400D01*
X92107900Y-85842400D02*
X92101100Y-85842400D01*
X92101100Y-85842400D02*
X92031100Y-85772400D01*
X92031100Y-85772400D02*
X86697800Y-85772400D01*
X86697800Y-85772400D02*
X86640300Y-85714900D01*
X92901700Y-85073100D02*
X92120200Y-85854600D01*
X100148100Y-85316700D02*
X110644700Y-85316700D01*
X110644700Y-85316700D02*
X113872800Y-88544800D01*
X113872800Y-88544800D02*
X116126500Y-88544800D01*
X116126500Y-88544800D02*
X116794800Y-89213100D01*
X116794800Y-89213100D02*
X116794800Y-90327200D01*
X116794800Y-90327200D02*
X117512400Y-91044800D01*
X117512400Y-91044800D02*
X121159200Y-91044800D01*
X121159200Y-91044800D02*
X125134100Y-95019700D01*
X125134100Y-95019700D02*
X127143000Y-95019700D01*
X127143000Y-95019700D02*
X128277500Y-96154200D01*
X128277500Y-96154200D02*
X128277500Y-96982500D01*
X128277500Y-96982500D02*
X127541000Y-97719000D01*
X94390400Y-89001300D02*
X94694500Y-88697200D01*
X94694500Y-88697200D02*
X95171900Y-88219800D01*
X95171900Y-88219800D02*
X96669900Y-88219800D01*
X96669900Y-88219800D02*
X98204900Y-86684800D01*
X98204900Y-86684800D02*
X98973600Y-86684800D01*
X98973600Y-86684800D02*
X99412600Y-86245800D01*
X99412600Y-86245800D02*
X99412600Y-86052200D01*
X99412600Y-86052200D02*
X100148100Y-85316700D01*
X90780400Y-82951800D02*
X91459200Y-82273000D01*
X91459200Y-82273000D02*
X97104400Y-82273000D01*
X97104400Y-82273000D02*
X100148100Y-85316700D01*
X93608800Y-88219800D02*
X94390400Y-89001300D01*
X92548200Y-89280400D02*
X93329700Y-90061800D01*
X96622800Y-89712200D02*
X96445700Y-89889300D01*
X96445700Y-89889300D02*
X93502200Y-89889300D01*
X93502200Y-89889300D02*
X93329700Y-90061800D01*
X91134000Y-83305400D02*
X91759600Y-82679800D01*
X91759600Y-82679800D02*
X96318000Y-82679800D01*
X96318000Y-82679800D02*
X96674800Y-83036600D01*
X94986600Y-78227000D02*
X94986600Y-76538900D01*
X84455715Y-77372896D02*
X83828617Y-77999994D01*
X84455715Y-76128006D02*
X84455715Y-77372896D01*
X85335821Y-75247900D02*
X84455715Y-76128006D01*
X83828617Y-77999994D02*
X83200000Y-77999994D01*
X93695600Y-75247900D02*
X85335821Y-75247900D01*
X94986600Y-76538900D02*
X93695600Y-75247900D01*
X96656100Y-79896500D02*
X94986600Y-78227000D01*
X91841100Y-89987500D02*
X92455300Y-90601700D01*
X92455300Y-90601700D02*
X96793400Y-90601700D01*
X96793400Y-90601700D02*
X99637000Y-87758100D01*
X99637000Y-87758100D02*
X110482700Y-87758100D01*
X119679800Y-87350000D02*
X121048300Y-85981500D01*
X121048300Y-85981500D02*
X124976000Y-85981500D01*
X124976000Y-85981500D02*
X127274900Y-88280400D01*
X127274900Y-88280400D02*
X127274900Y-88570000D01*
X128730000Y-88570000D02*
X127274900Y-88570000D01*
X91487500Y-90341100D02*
X92269000Y-91122500D01*
X128730000Y-110274900D02*
X128121600Y-110274900D01*
X128121600Y-110274900D02*
X127274800Y-109428100D01*
X127274800Y-109428100D02*
X127274800Y-108881400D01*
X127274800Y-108881400D02*
X125315100Y-106921700D01*
X125315100Y-106921700D02*
X123123900Y-106921700D01*
X123123900Y-106921700D02*
X123052400Y-106993200D01*
X128730000Y-111430000D02*
X128730000Y-110274900D01*
X111348500Y-92666200D02*
X106847200Y-88164900D01*
X106847200Y-88164900D02*
X101943900Y-88164900D01*
X101943900Y-88164900D02*
X99026500Y-91082300D01*
X99026500Y-91082300D02*
X92309200Y-91082300D01*
X92309200Y-91082300D02*
X92269000Y-91122500D01*
X81730000Y-101280000D02*
X81730000Y-100124900D01*
X90426900Y-91401700D02*
X91361000Y-92335800D01*
X91361000Y-92335800D02*
X91361000Y-95280600D01*
X91361000Y-95280600D02*
X89551100Y-97090500D01*
X89551100Y-97090500D02*
X85919500Y-97090500D01*
X85919500Y-97090500D02*
X82885100Y-100124900D01*
X82885100Y-100124900D02*
X81730000Y-100124900D01*
X81730000Y-97584900D02*
X80635200Y-97584900D01*
X80635200Y-97584900D02*
X80274900Y-97224600D01*
X80274900Y-97224600D02*
X80274900Y-95208200D01*
X80274900Y-95208200D02*
X80562900Y-94920200D01*
X80562900Y-94920200D02*
X84541100Y-94920200D01*
X84541100Y-94920200D02*
X84543200Y-94918100D01*
X84543200Y-94918100D02*
X84826600Y-94918100D01*
X84826600Y-94918100D02*
X85265600Y-94479100D01*
X85265600Y-94479100D02*
X85265600Y-94388100D01*
X85265600Y-94388100D02*
X86294300Y-93359400D01*
X86294300Y-93359400D02*
X86294300Y-93348800D01*
X86294300Y-93348800D02*
X86305100Y-93338000D01*
X86305100Y-93338000D02*
X86305100Y-93156200D01*
X86305100Y-93156200D02*
X86498700Y-92962600D01*
X86498700Y-92962600D02*
X86498700Y-92890400D01*
X86498700Y-92890400D02*
X86498700Y-92890300D01*
X81730000Y-98740000D02*
X81730000Y-97584900D01*
X87280200Y-92108800D02*
X86498700Y-92890300D01*
X84516000Y-94168500D02*
X85054600Y-93629900D01*
X85054600Y-93629900D02*
X85438000Y-93629900D01*
X85438000Y-93629900D02*
X85898400Y-93169500D01*
X85898400Y-93169500D02*
X85898400Y-92786100D01*
X85898400Y-92786100D02*
X86145300Y-92539200D01*
X86145300Y-92539200D02*
X86145300Y-92536800D01*
X86145300Y-92536800D02*
X86145300Y-92536700D01*
X85689800Y-102846600D02*
X88413500Y-102846600D01*
X88413500Y-102846600D02*
X92141900Y-106575000D01*
X92141900Y-106575000D02*
X92141900Y-109037000D01*
X92141900Y-109037000D02*
X90526600Y-110652300D01*
X90526600Y-110652300D02*
X90526600Y-111635000D01*
X88773400Y-111635000D02*
X88773400Y-113345300D01*
X88773400Y-113345300D02*
X88908600Y-113480500D01*
X88908600Y-113480500D02*
X90526400Y-113480500D01*
X90526400Y-113480500D02*
X92287800Y-111719100D01*
X92287800Y-111719100D02*
X92287800Y-110041500D01*
X92287800Y-110041500D02*
X93074400Y-109254900D01*
X93074400Y-109254900D02*
X93074400Y-105781900D01*
X93074400Y-105781900D02*
X91956700Y-104664200D01*
X91956700Y-104664200D02*
X91956700Y-104043000D01*
X91956700Y-104043000D02*
X92395800Y-103603900D01*
X92395800Y-103603900D02*
X93016800Y-103603900D01*
X93016800Y-103603900D02*
X94337900Y-104925000D01*
X94337900Y-104925000D02*
X101650000Y-104925000D01*
X89650000Y-111635000D02*
X88773400Y-111635000D01*
X89986600Y-111635000D02*
X89650000Y-111635000D01*
X89986600Y-111635000D02*
X90526600Y-111635000D01*
X101650000Y-104925000D02*
X102505100Y-104925000D01*
X102849900Y-103878100D02*
X102849900Y-104580200D01*
X102849900Y-104580200D02*
X102505100Y-104925000D01*
X86926700Y-91755300D02*
X86145300Y-92536700D01*
X95023500Y-101724000D02*
X97204000Y-99543500D01*
X97204000Y-99543500D02*
X98298800Y-99543500D01*
X91484500Y-103741000D02*
X89914300Y-103741000D01*
X89914300Y-103741000D02*
X87226000Y-101052700D01*
X95023500Y-101724000D02*
X95023400Y-101724000D01*
X95023400Y-101724000D02*
X93636000Y-101724000D01*
X93636000Y-101724000D02*
X91619000Y-103741000D01*
X91619000Y-103741000D02*
X91484500Y-103741000D01*
X91484500Y-103741000D02*
X91484500Y-104767200D01*
X91484500Y-104767200D02*
X92583200Y-105865900D01*
X92583200Y-105865900D02*
X92583200Y-109171000D01*
X92583200Y-109171000D02*
X91237400Y-110516800D01*
X91237400Y-110516800D02*
X91237400Y-112194200D01*
X91237400Y-112194200D02*
X90526600Y-112905000D01*
X86573100Y-91401700D02*
X85791600Y-92183200D01*
X85148800Y-92858900D02*
X85791600Y-92216100D01*
X85791600Y-92216100D02*
X85791600Y-92183300D01*
X85791600Y-92183300D02*
X85791600Y-92183200D01*
X101650000Y-104275000D02*
X97574400Y-104275000D01*
X97574400Y-104275000D02*
X95023500Y-101724000D01*
X89650000Y-112905000D02*
X90526600Y-112905000D01*
X85084500Y-91476100D02*
X84858000Y-91702600D01*
X84858000Y-91702600D02*
X84669800Y-91702600D01*
X84669800Y-91702600D02*
X84648400Y-91724000D01*
X84648400Y-91724000D02*
X84606000Y-91724000D01*
X84606000Y-91724000D02*
X84575100Y-91754900D01*
X84575100Y-91754900D02*
X84459600Y-91754900D01*
X84459600Y-91754900D02*
X83111600Y-93102900D01*
X83111600Y-93102900D02*
X81911700Y-93102900D01*
X81911700Y-93102900D02*
X81477200Y-93537400D01*
X81477200Y-93537400D02*
X80794900Y-93537400D01*
X80794900Y-93537400D02*
X79460900Y-94871400D01*
X79460900Y-94871400D02*
X79460900Y-103556400D01*
X79460900Y-103556400D02*
X80889200Y-104984700D01*
X80889200Y-104984700D02*
X85221900Y-104984700D01*
X85221900Y-104984700D02*
X85469300Y-104737300D01*
X85469300Y-104737300D02*
X87024700Y-104737300D01*
X87024700Y-104737300D02*
X87025400Y-104736600D01*
X87025400Y-104736600D02*
X87983500Y-104736600D01*
X87983500Y-104736600D02*
X87984200Y-104737300D01*
X87984200Y-104737300D02*
X89729000Y-104737300D01*
X89729000Y-104737300D02*
X91436200Y-106444500D01*
X91436200Y-106444500D02*
X91436200Y-107019700D01*
X91436200Y-107019700D02*
X91445000Y-107028500D01*
X91445000Y-107028500D02*
X91445000Y-107500000D01*
X91445000Y-107500000D02*
X91716300Y-107771300D01*
X91716300Y-107771300D02*
X91716300Y-108312200D01*
X91716300Y-108312200D02*
X91026200Y-109002300D01*
X91026200Y-109002300D02*
X90659800Y-109002300D01*
X90659800Y-109002300D02*
X90567100Y-109095000D01*
X90567100Y-109095000D02*
X89650000Y-109095000D01*
X85866000Y-90694600D02*
X85084500Y-91476100D01*
D41*
X91134000Y-90694600D02*
X91134000Y-90730000D01*
X91134000Y-90730000D02*
X93179000Y-92775000D01*
X93179000Y-92775000D02*
X97906800Y-92775000D01*
X97906800Y-92775000D02*
X101407000Y-89275000D01*
X101407000Y-89275000D02*
X105856000Y-89275000D01*
X105856000Y-89275000D02*
X106200000Y-88930500D01*
X124450000Y-99350000D02*
X123437000Y-99350000D01*
X123437000Y-99350000D02*
X123337000Y-99450000D01*
X123337000Y-99450000D02*
X123268000Y-99450000D01*
X123268000Y-99450000D02*
X122225000Y-98406800D01*
X122225000Y-98406800D02*
X122225000Y-94406800D01*
X122225000Y-94406800D02*
X120903000Y-93084500D01*
X120903000Y-93084500D02*
X120903000Y-92597300D01*
X90780400Y-91048200D02*
X90815800Y-91048200D01*
X90815800Y-91048200D02*
X92992600Y-93225000D01*
X92992600Y-93225000D02*
X98093200Y-93225000D01*
X98093200Y-93225000D02*
X101593000Y-89725000D01*
X101593000Y-89725000D02*
X105856000Y-89725000D01*
X105856000Y-89725000D02*
X106200000Y-90069500D01*
X124450000Y-100000000D02*
X123437000Y-100000000D01*
X123437000Y-100000000D02*
X123337000Y-99900000D01*
X123337000Y-99900000D02*
X123082000Y-99900000D01*
X123082000Y-99900000D02*
X121775000Y-98593200D01*
X121775000Y-98593200D02*
X121775000Y-94593200D01*
X121775000Y-94593200D02*
X120584000Y-93402700D01*
X120584000Y-93402700D02*
X120097000Y-93402700D01*
D39*
X95045600Y-79859700D02*
X94665800Y-80239500D01*
X89840000Y-77767000D02*
X90781000Y-78708000D01*
X81600851Y-79095354D02*
X82209128Y-79703631D01*
X89840000Y-76469900D02*
X89840000Y-77767000D01*
X81774020Y-76881272D02*
X81600851Y-77054441D01*
X85549700Y-75668800D02*
X89038900Y-75668800D01*
X94665800Y-80239500D02*
X93942400Y-80239500D01*
X93942400Y-80239500D02*
X93224300Y-79521400D01*
X93224300Y-79521400D02*
X90849200Y-79521400D01*
X84862126Y-76356374D02*
X85549700Y-75668800D01*
X89038900Y-75668800D02*
X89840000Y-76469900D01*
X87354700Y-83379800D02*
X86573100Y-82598300D01*
X88342900Y-82391600D02*
X87354700Y-83379800D01*
X88342900Y-82027700D02*
X88342900Y-82391600D01*
X90849200Y-79521400D02*
X88342900Y-82027700D01*
X81774021Y-76381271D02*
X81774020Y-76881272D01*
X86179200Y-73660800D02*
X84494492Y-73660800D01*
X95045600Y-79181500D02*
X95045600Y-79859700D01*
X84862126Y-78046840D02*
X84862126Y-76356374D01*
X84494492Y-73660800D02*
X81774021Y-76381271D01*
X94572100Y-78708000D02*
X95045600Y-79181500D01*
X83205335Y-79703631D02*
X84862126Y-78046840D01*
X90781000Y-78708000D02*
X94572100Y-78708000D01*
X82209128Y-79703631D02*
X83205335Y-79703631D01*
X88570000Y-71270000D02*
X86179200Y-73660800D01*
X81600851Y-77054441D02*
X81600851Y-79095354D01*
X108205100Y-102325000D02*
X110456800Y-104576700D01*
X110456800Y-104576700D02*
X110596600Y-104576700D01*
X107350000Y-102325000D02*
X108205100Y-102325000D01*
X108205100Y-101675000D02*
X110144800Y-103614700D01*
X110144800Y-103614700D02*
X111754900Y-103614700D01*
X107350000Y-101675000D02*
X108205100Y-101675000D01*
X100794900Y-97775000D02*
X100793900Y-97775000D01*
X100793900Y-97775000D02*
X99722900Y-98846000D01*
X113970000Y-122860000D02*
X113970000Y-121411900D01*
X113970000Y-121411900D02*
X113523900Y-120965800D01*
X113523900Y-120965800D02*
X108237400Y-120965800D01*
X108237400Y-120965800D02*
X108112800Y-121090400D01*
X101650000Y-97775000D02*
X100794900Y-97775000D01*
X100794900Y-98425000D02*
X100794900Y-98834200D01*
X100794900Y-98834200D02*
X100033500Y-99595600D01*
X100033500Y-99595600D02*
X99411000Y-99595600D01*
X99411000Y-99595600D02*
X98609300Y-98793900D01*
X98609300Y-98793900D02*
X93338900Y-98793900D01*
X93338900Y-98793900D02*
X92832300Y-99300500D01*
X101650000Y-98425000D02*
X100794900Y-98425000D01*
X107350000Y-97775000D02*
X107000000Y-97775000D01*
X102692241Y-96176245D02*
X102247742Y-96620744D01*
X106346605Y-96424565D02*
X106346605Y-95795948D01*
X106083877Y-95533220D02*
X104904003Y-95533220D01*
X107000000Y-97775000D02*
X106346605Y-97121605D01*
X106346605Y-97121605D02*
X106346605Y-97053182D01*
X104533219Y-95904004D02*
X102964482Y-95904004D01*
X104904003Y-95533220D02*
X104533219Y-95904004D01*
X106346605Y-97053182D02*
X106346605Y-96424565D01*
X106346605Y-95795948D02*
X106083877Y-95533220D01*
X102964482Y-95904004D02*
X102692241Y-96176245D01*
X98730000Y-77521000D02*
X101096300Y-79887300D01*
X98730000Y-77140000D02*
X98730000Y-77521000D01*
X101827104Y-79887300D02*
X102455721Y-79887300D01*
X101096300Y-79887300D02*
X101827104Y-79887300D01*
X106596800Y-98425000D02*
X105263669Y-97091869D01*
X105263669Y-96911139D02*
X105263669Y-96282522D01*
X105263669Y-97091869D02*
X105263669Y-96911139D01*
X107350000Y-98425000D02*
X106596800Y-98425000D01*
X108205100Y-99075000D02*
X109094200Y-98185900D01*
X109094200Y-98185900D02*
X109119700Y-98185900D01*
X107350000Y-99075000D02*
X108205100Y-99075000D01*
X107350000Y-99075000D02*
X105675000Y-99075000D01*
X105675000Y-99075000D02*
X104900000Y-98300000D01*
X109897100Y-99725000D02*
X110843100Y-99725000D01*
X108205100Y-99725000D02*
X109897100Y-99725000D01*
X107350000Y-99725000D02*
X108205100Y-99725000D01*
X109897100Y-97865700D02*
X108883134Y-96851734D01*
X107980435Y-96851734D02*
X107351818Y-96851734D01*
X109897100Y-99725000D02*
X109897100Y-97865700D01*
X108883134Y-96851734D02*
X107980435Y-96851734D01*
X107350000Y-100375000D02*
X110233900Y-100375000D01*
X110233900Y-100375000D02*
X111190200Y-101331300D01*
X111190200Y-101331300D02*
X112342400Y-101331300D01*
X109523600Y-101502800D02*
X109045800Y-101025000D01*
X109045800Y-101025000D02*
X107350000Y-101025000D01*
X97551000Y-102538300D02*
X97551000Y-102049200D01*
X97551000Y-102049200D02*
X99595500Y-100004700D01*
X99595500Y-100004700D02*
X100285900Y-100004700D01*
X100285900Y-100004700D02*
X100565600Y-99725000D01*
X100565600Y-99725000D02*
X101650000Y-99725000D01*
X101650000Y-99075000D02*
X102403200Y-99075000D01*
X102403200Y-99075000D02*
X102659486Y-98818714D01*
X102659486Y-98818714D02*
X102659486Y-98045162D01*
X103763652Y-96940996D02*
X104392269Y-96940996D01*
X102659486Y-98045162D02*
X103763652Y-96940996D01*
X104299400Y-106106200D02*
X104657200Y-105748400D01*
X104657200Y-105748400D02*
X104657200Y-103827100D01*
X104657200Y-103827100D02*
X102505100Y-101675000D01*
X101650000Y-101675000D02*
X102505100Y-101675000D01*
X100794900Y-101025000D02*
X100794900Y-101649800D01*
X100794900Y-101649800D02*
X100351700Y-102093000D01*
X100351700Y-102093000D02*
X99271000Y-102093000D01*
X99271000Y-102093000D02*
X98931300Y-101753300D01*
X101270000Y-121411900D02*
X100249600Y-121411900D01*
X100249600Y-121411900D02*
X99297100Y-120459400D01*
X101270000Y-122860000D02*
X101270000Y-121411900D01*
X101650000Y-101025000D02*
X100794900Y-101025000D01*
X103907600Y-104394200D02*
X103907600Y-103727500D01*
X103907600Y-103727500D02*
X102505100Y-102325000D01*
X101650000Y-102325000D02*
X102505100Y-102325000D01*
X103810000Y-121411900D02*
X101707600Y-119309500D01*
X101707600Y-119309500D02*
X100448600Y-119309500D01*
X100794900Y-100375000D02*
X100041000Y-101128900D01*
X100041000Y-101128900D02*
X100041000Y-101343300D01*
X103810000Y-122860000D02*
X103810000Y-121411900D01*
X101650000Y-100375000D02*
X100794900Y-100375000D01*
X103500000Y-116755100D02*
X107445200Y-116755100D01*
X107445200Y-116755100D02*
X108396300Y-115804000D01*
X108205100Y-104275000D02*
X108976800Y-105046700D01*
X108976800Y-105046700D02*
X108976800Y-106803100D01*
X107350000Y-104275000D02*
X108205100Y-104275000D01*
X103500000Y-115680000D02*
X103500000Y-116755100D01*
X108205100Y-107552700D02*
X109452400Y-107552700D01*
X109452400Y-107552700D02*
X114094800Y-102910300D01*
X114094800Y-102910300D02*
X114094800Y-101213100D01*
X114094800Y-101213100D02*
X113841700Y-100960000D01*
X108205100Y-107552700D02*
X108205100Y-107639300D01*
X108205100Y-107639300D02*
X106299500Y-109544900D01*
X106299500Y-109544900D02*
X106200000Y-109544900D01*
X108205100Y-105575000D02*
X108205100Y-107552700D01*
X106200000Y-110500000D02*
X106200000Y-109544900D01*
X107350000Y-105575000D02*
X108205100Y-105575000D01*
X92622600Y-83231000D02*
X92622600Y-83231100D01*
X92622600Y-83231100D02*
X92754300Y-83231100D01*
X92754300Y-83231100D02*
X92835900Y-83149500D01*
X92835900Y-83149500D02*
X94641200Y-83149500D01*
X94641200Y-83149500D02*
X94675900Y-83184200D01*
X94675900Y-83184200D02*
X95533700Y-83184200D01*
X95533700Y-83184200D02*
X96142300Y-83792800D01*
X96142300Y-83792800D02*
X97485200Y-83792800D01*
X91841100Y-84012500D02*
X92622600Y-83231000D01*
X104306801Y-100959135D02*
X103862302Y-100514636D01*
X107350000Y-102975000D02*
X106322666Y-102975000D01*
X106322666Y-102975000D02*
X104306801Y-100959135D01*
X101650000Y-102975000D02*
X99047900Y-102975000D01*
X92194600Y-84366000D02*
X92976200Y-83584400D01*
X95179400Y-84275900D02*
X94621100Y-83717600D01*
X94621100Y-83717600D02*
X93109300Y-83717600D01*
X93109300Y-83717600D02*
X92976200Y-83584400D01*
X108205100Y-103625000D02*
X109906500Y-105326400D01*
X109906500Y-105326400D02*
X111103500Y-105326400D01*
X111103500Y-105326400D02*
X113279300Y-103150600D01*
X113279300Y-103150600D02*
X113279300Y-102466300D01*
X113279300Y-102466300D02*
X113340400Y-102466300D01*
X107350000Y-103625000D02*
X108205100Y-103625000D01*
X86219600Y-91048200D02*
X85158500Y-92109300D01*
X107733409Y-95126809D02*
X113092000Y-100485400D01*
X82666700Y-94280900D02*
X80626800Y-94280900D01*
X80626800Y-94280900D02*
X79868200Y-95039500D01*
X86432300Y-99194600D02*
X91413400Y-99194600D01*
X79868200Y-101377600D02*
X80952200Y-102461600D01*
X104343619Y-95497593D02*
X104714403Y-95126809D01*
X84838300Y-92109300D02*
X82666700Y-94280900D01*
X79868200Y-95039500D02*
X79868200Y-101377600D01*
X113092000Y-100485400D02*
X113092000Y-102279000D01*
X113092000Y-102279000D02*
X113279300Y-102466300D01*
X104714403Y-95126809D02*
X107733409Y-95126809D01*
X80952200Y-102461600D02*
X83165300Y-102461600D01*
X83165300Y-102461600D02*
X86432300Y-99194600D01*
X85158500Y-92109300D02*
X84838300Y-92109300D01*
X91413400Y-99194600D02*
X95110407Y-95497593D01*
X95110407Y-95497593D02*
X104343619Y-95497593D01*
X85512500Y-90341100D02*
X84731100Y-91122500D01*
X84731100Y-91122500D02*
X84731000Y-91122500D01*
X84731000Y-91122500D02*
X84674700Y-91122500D01*
X84674700Y-91122500D02*
X84480000Y-91317200D01*
X84480000Y-91317200D02*
X84264800Y-91317200D01*
X84264800Y-91317200D02*
X82937700Y-92644300D01*
X82937700Y-92644300D02*
X81112700Y-92644300D01*
X81112700Y-92644300D02*
X79034800Y-94722200D01*
X79034800Y-94722200D02*
X79034800Y-103779800D01*
X79034800Y-103779800D02*
X80648000Y-105393000D01*
X80648000Y-105393000D02*
X86944200Y-105393000D01*
X86944200Y-105393000D02*
X87193900Y-105143300D01*
X87193900Y-105143300D02*
X87815000Y-105143300D01*
X87815000Y-105143300D02*
X87859700Y-105188000D01*
X87859700Y-105188000D02*
X89564800Y-105188000D01*
X89564800Y-105188000D02*
X90556100Y-106179300D01*
X90556100Y-106179300D02*
X90556100Y-106969800D01*
X90556100Y-106969800D02*
X90260100Y-107265800D01*
X90260100Y-107265800D02*
X88870200Y-107265800D01*
X88870200Y-107265800D02*
X88773400Y-107362600D01*
X88773400Y-107362600D02*
X88773400Y-110365000D01*
X89650000Y-110365000D02*
X88773400Y-110365000D01*
X100794900Y-105575000D02*
X93927800Y-105575000D01*
X93927800Y-105575000D02*
X92706300Y-104353500D01*
X101650000Y-105575000D02*
X100794900Y-105575000D01*
X85158900Y-89987500D02*
X85940500Y-89205900D01*
X90258600Y-89366800D02*
X86101300Y-89366800D01*
X86101300Y-89366800D02*
X85940500Y-89205900D01*
X109287987Y-94313987D02*
X112647501Y-97673501D01*
X104006939Y-94684771D02*
X104377723Y-94313987D01*
X91357900Y-96944200D02*
X93617329Y-94684771D01*
X112647501Y-97673501D02*
X113092000Y-98118000D01*
X104377723Y-94313987D02*
X109287987Y-94313987D01*
X93617329Y-94684771D02*
X104006939Y-94684771D01*
X97429000Y-100441900D02*
X96801400Y-101069500D01*
X96801400Y-101069500D02*
X96801400Y-102894000D01*
X96801400Y-102894000D02*
X97719400Y-103812000D01*
X97719400Y-103812000D02*
X100607900Y-103812000D01*
X100607900Y-103812000D02*
X100794900Y-103625000D01*
X89650000Y-115445000D02*
X90526600Y-115445000D01*
X90526600Y-115445000D02*
X94802400Y-111169200D01*
X94802400Y-111169200D02*
X94802400Y-109032300D01*
X94802400Y-109032300D02*
X95450500Y-108384200D01*
X95450500Y-108384200D02*
X101284400Y-108384200D01*
X101650000Y-103625000D02*
X100794900Y-103625000D01*
X90526600Y-107825000D02*
X90706200Y-107825000D01*
X90706200Y-107825000D02*
X90924700Y-108043500D01*
X89650000Y-107825000D02*
X90526600Y-107825000D01*
X97221800Y-107579400D02*
X96876600Y-107234200D01*
X96876600Y-107234200D02*
X96876600Y-106555000D01*
X96000000Y-106555000D02*
X96876600Y-106555000D01*
X95123400Y-107825000D02*
X93569600Y-109378800D01*
X93569600Y-109378800D02*
X93569600Y-109821900D01*
X96000000Y-107825000D02*
X95123400Y-107825000D01*
X96000000Y-109095000D02*
X96876600Y-109095000D01*
X96876600Y-109095000D02*
X97202300Y-109420700D01*
X97202300Y-109420700D02*
X97230500Y-109420700D01*
X96000000Y-110365000D02*
X96876600Y-110365000D01*
X97253400Y-110833900D02*
X96876600Y-110457100D01*
X96876600Y-110457100D02*
X96876600Y-110365000D01*
X96000000Y-111635000D02*
X96876600Y-111635000D01*
X97266900Y-112096300D02*
X96876600Y-111706000D01*
X96876600Y-111706000D02*
X96876600Y-111635000D01*
X95123400Y-112905000D02*
X94467700Y-113560700D01*
X94467700Y-113560700D02*
X93546200Y-113560700D01*
X96000000Y-112905000D02*
X95123400Y-112905000D01*
X96876600Y-114175000D02*
X96979500Y-114175000D01*
X96979500Y-114175000D02*
X97228600Y-113925900D01*
X96000000Y-114175000D02*
X96876600Y-114175000D01*
D42*
G36*
X110422821Y-124248180D02*
X110735431Y-124457059D01*
X109825791Y-125366700D01*
X109626340Y-125366700D01*
X109553799Y-125352271D01*
X109481259Y-125366700D01*
X109481256Y-125366700D01*
X109266393Y-125409439D01*
X109022742Y-125572242D01*
X108981649Y-125633742D01*
X107321949Y-127293442D01*
X106929417Y-127031161D01*
X106350000Y-126915908D01*
X105770582Y-127031161D01*
X105279375Y-127359375D01*
X104951161Y-127850583D01*
X104865000Y-128283745D01*
X104865000Y-129174500D01*
X104433570Y-129174500D01*
X104433570Y-127685750D01*
X104274820Y-127527000D01*
X103075940Y-127527000D01*
X103075940Y-127547000D01*
X102821940Y-127547000D01*
X102821940Y-127527000D01*
X101623060Y-127527000D01*
X101464310Y-127685750D01*
X101464310Y-129174500D01*
X98548130Y-129174500D01*
X98548130Y-128057162D01*
X98736858Y-127931058D01*
X98777951Y-127869558D01*
X101223710Y-125423800D01*
X101464310Y-125423800D01*
X101464310Y-127114250D01*
X101623060Y-127273000D01*
X102821940Y-127273000D01*
X102821940Y-127253000D01*
X103075940Y-127253000D01*
X103075940Y-127273000D01*
X104274820Y-127273000D01*
X104433570Y-127114250D01*
X104433570Y-125423300D01*
X104366267Y-125260815D01*
X104429958Y-125218258D01*
X104471051Y-125156758D01*
X105364886Y-124262924D01*
X105804919Y-124556944D01*
X106350000Y-124665368D01*
X106895082Y-124556944D01*
X107357180Y-124248180D01*
X107620000Y-123854842D01*
X107882821Y-124248180D01*
X108344919Y-124556944D01*
X108890000Y-124665368D01*
X109435082Y-124556944D01*
X109897180Y-124248180D01*
X110160000Y-123854842D01*
X110422821Y-124248180D01*
X110422821Y-124248180D01*
G37*
X110422821Y-124248180D02*
X110735431Y-124457059D01*
X109825791Y-125366700D01*
X109626340Y-125366700D01*
X109553799Y-125352271D01*
X109481259Y-125366700D01*
X109481256Y-125366700D01*
X109266393Y-125409439D01*
X109022742Y-125572242D01*
X108981649Y-125633742D01*
X107321949Y-127293442D01*
X106929417Y-127031161D01*
X106350000Y-126915908D01*
X105770582Y-127031161D01*
X105279375Y-127359375D01*
X104951161Y-127850583D01*
X104865000Y-128283745D01*
X104865000Y-129174500D01*
X104433570Y-129174500D01*
X104433570Y-127685750D01*
X104274820Y-127527000D01*
X103075940Y-127527000D01*
X103075940Y-127547000D01*
X102821940Y-127547000D01*
X102821940Y-127527000D01*
X101623060Y-127527000D01*
X101464310Y-127685750D01*
X101464310Y-129174500D01*
X98548130Y-129174500D01*
X98548130Y-128057162D01*
X98736858Y-127931058D01*
X98777951Y-127869558D01*
X101223710Y-125423800D01*
X101464310Y-125423800D01*
X101464310Y-127114250D01*
X101623060Y-127273000D01*
X102821940Y-127273000D01*
X102821940Y-127253000D01*
X103075940Y-127253000D01*
X103075940Y-127273000D01*
X104274820Y-127273000D01*
X104433570Y-127114250D01*
X104433570Y-125423300D01*
X104366267Y-125260815D01*
X104429958Y-125218258D01*
X104471051Y-125156758D01*
X105364886Y-124262924D01*
X105804919Y-124556944D01*
X106350000Y-124665368D01*
X106895082Y-124556944D01*
X107357180Y-124248180D01*
X107620000Y-123854842D01*
X107882821Y-124248180D01*
X108344919Y-124556944D01*
X108890000Y-124665368D01*
X109435082Y-124556944D01*
X109897180Y-124248180D01*
X110160000Y-123854842D01*
X110422821Y-124248180D01*
G36*
X71397000Y-116383000D02*
X71417000Y-116383000D01*
X71417000Y-116637000D01*
X71397000Y-116637000D01*
X71397000Y-117836250D01*
X71555750Y-117995000D01*
X72546309Y-117995000D01*
X72779698Y-117898327D01*
X72958327Y-117719699D01*
X73055000Y-117486310D01*
X73055000Y-116795750D01*
X72896252Y-116637002D01*
X72907925Y-116637002D01*
X83362998Y-127092075D01*
X83362998Y-127103748D01*
X83204250Y-126945000D01*
X82513690Y-126945000D01*
X82280301Y-127041673D01*
X82101673Y-127220302D01*
X82005000Y-127453691D01*
X82005000Y-128444250D01*
X82163750Y-128603000D01*
X83363000Y-128603000D01*
X83363000Y-128583000D01*
X83617000Y-128583000D01*
X83617000Y-128603000D01*
X83637000Y-128603000D01*
X83637000Y-128857000D01*
X83617000Y-128857000D01*
X83617000Y-128877000D01*
X83363000Y-128877000D01*
X83363000Y-128857000D01*
X82163750Y-128857000D01*
X82005000Y-129015750D01*
X82005000Y-129174500D01*
X74041818Y-129174500D01*
X73362531Y-129105501D01*
X72751106Y-128913891D01*
X72190695Y-128603250D01*
X71704195Y-128186270D01*
X71311474Y-127679977D01*
X71028579Y-127105060D01*
X70864501Y-126475153D01*
X70825500Y-125968289D01*
X70825500Y-124177497D01*
X70865000Y-124177497D01*
X70865000Y-125822503D01*
X71494517Y-127342289D01*
X72657711Y-128505483D01*
X74177497Y-129135000D01*
X75822503Y-129135000D01*
X77342289Y-128505483D01*
X78505483Y-127342289D01*
X79135000Y-125822503D01*
X79135000Y-124177497D01*
X78505483Y-122657711D01*
X77342289Y-121494517D01*
X75822503Y-120865000D01*
X74177497Y-120865000D01*
X72657711Y-121494517D01*
X71494517Y-122657711D01*
X70865000Y-124177497D01*
X70825500Y-124177497D01*
X70825500Y-117995000D01*
X70984250Y-117995000D01*
X71143000Y-117836250D01*
X71143000Y-116637000D01*
X71123000Y-116637000D01*
X71123000Y-116383000D01*
X71143000Y-116383000D01*
X71143000Y-116363000D01*
X71397000Y-116363000D01*
X71397000Y-116383000D01*
X71397000Y-116383000D01*
G37*
X71397000Y-116383000D02*
X71417000Y-116383000D01*
X71417000Y-116637000D01*
X71397000Y-116637000D01*
X71397000Y-117836250D01*
X71555750Y-117995000D01*
X72546309Y-117995000D01*
X72779698Y-117898327D01*
X72958327Y-117719699D01*
X73055000Y-117486310D01*
X73055000Y-116795750D01*
X72896252Y-116637002D01*
X72907925Y-116637002D01*
X83362998Y-127092075D01*
X83362998Y-127103748D01*
X83204250Y-126945000D01*
X82513690Y-126945000D01*
X82280301Y-127041673D01*
X82101673Y-127220302D01*
X82005000Y-127453691D01*
X82005000Y-128444250D01*
X82163750Y-128603000D01*
X83363000Y-128603000D01*
X83363000Y-128583000D01*
X83617000Y-128583000D01*
X83617000Y-128603000D01*
X83637000Y-128603000D01*
X83637000Y-128857000D01*
X83617000Y-128857000D01*
X83617000Y-128877000D01*
X83363000Y-128877000D01*
X83363000Y-128857000D01*
X82163750Y-128857000D01*
X82005000Y-129015750D01*
X82005000Y-129174500D01*
X74041818Y-129174500D01*
X73362531Y-129105501D01*
X72751106Y-128913891D01*
X72190695Y-128603250D01*
X71704195Y-128186270D01*
X71311474Y-127679977D01*
X71028579Y-127105060D01*
X70864501Y-126475153D01*
X70825500Y-125968289D01*
X70825500Y-124177497D01*
X70865000Y-124177497D01*
X70865000Y-125822503D01*
X71494517Y-127342289D01*
X72657711Y-128505483D01*
X74177497Y-129135000D01*
X75822503Y-129135000D01*
X77342289Y-128505483D01*
X78505483Y-127342289D01*
X79135000Y-125822503D01*
X79135000Y-124177497D01*
X78505483Y-122657711D01*
X77342289Y-121494517D01*
X75822503Y-120865000D01*
X74177497Y-120865000D01*
X72657711Y-121494517D01*
X71494517Y-122657711D01*
X70865000Y-124177497D01*
X70825500Y-124177497D01*
X70825500Y-117995000D01*
X70984250Y-117995000D01*
X71143000Y-117836250D01*
X71143000Y-116637000D01*
X71123000Y-116637000D01*
X71123000Y-116383000D01*
X71143000Y-116383000D01*
X71143000Y-116363000D01*
X71397000Y-116363000D01*
X71397000Y-116383000D01*
G36*
X127359375Y-115040625D02*
X127381033Y-115055096D01*
X127220302Y-115121673D01*
X127041673Y-115300301D01*
X126945000Y-115533690D01*
X126945000Y-116224250D01*
X127103750Y-116383000D01*
X128603000Y-116383000D01*
X128603000Y-116363000D01*
X128857000Y-116363000D01*
X128857000Y-116383000D01*
X128877000Y-116383000D01*
X128877000Y-116637000D01*
X128857000Y-116637000D01*
X128857000Y-117836250D01*
X129015750Y-117995000D01*
X129174501Y-117995000D01*
X129174501Y-125958172D01*
X129105501Y-126637469D01*
X128913891Y-127248894D01*
X128603250Y-127809305D01*
X128186270Y-128295805D01*
X127679977Y-128688526D01*
X127105060Y-128971421D01*
X126475153Y-129135499D01*
X125968289Y-129174500D01*
X117995000Y-129174500D01*
X117995000Y-129015750D01*
X117836250Y-128857000D01*
X116637000Y-128857000D01*
X116637000Y-128877000D01*
X116383000Y-128877000D01*
X116383000Y-128857000D01*
X116363000Y-128857000D01*
X116363000Y-128603000D01*
X116383000Y-128603000D01*
X116383000Y-128583000D01*
X116637000Y-128583000D01*
X116637000Y-128603000D01*
X117836250Y-128603000D01*
X117995000Y-128444250D01*
X117995000Y-127453691D01*
X117898327Y-127220302D01*
X117719699Y-127041673D01*
X117486310Y-126945000D01*
X117134077Y-126945000D01*
X119901580Y-124177497D01*
X120865000Y-124177497D01*
X120865000Y-125822503D01*
X121494517Y-127342289D01*
X122657711Y-128505483D01*
X124177497Y-129135000D01*
X125822503Y-129135000D01*
X127342289Y-128505483D01*
X128505483Y-127342289D01*
X129135000Y-125822503D01*
X129135000Y-124177497D01*
X128505483Y-122657711D01*
X127342289Y-121494517D01*
X125822503Y-120865000D01*
X124177497Y-120865000D01*
X122657711Y-121494517D01*
X121494517Y-122657711D01*
X120865000Y-124177497D01*
X119901580Y-124177497D01*
X121399092Y-122679986D01*
X121477557Y-122627557D01*
X121568234Y-122491851D01*
X121685271Y-122316693D01*
X121685271Y-122316692D01*
X121685272Y-122316691D01*
X121739800Y-122042559D01*
X121739800Y-122042551D01*
X121758209Y-121950001D01*
X121739800Y-121857451D01*
X121739800Y-120848544D01*
X121794211Y-120575000D01*
X121787552Y-120541525D01*
X122026062Y-120303015D01*
X122111673Y-120509698D01*
X122290301Y-120688327D01*
X122523690Y-120785000D01*
X123714250Y-120785000D01*
X123873000Y-120626250D01*
X123873000Y-118402000D01*
X124127000Y-118402000D01*
X124127000Y-120626250D01*
X124285750Y-120785000D01*
X125476310Y-120785000D01*
X125709699Y-120688327D01*
X125888327Y-120509698D01*
X125985000Y-120276309D01*
X125985000Y-118560750D01*
X125826250Y-118402000D01*
X124127000Y-118402000D01*
X123873000Y-118402000D01*
X123853000Y-118402000D01*
X123853000Y-118148000D01*
X123873000Y-118148000D01*
X123873000Y-115923750D01*
X124127000Y-115923750D01*
X124127000Y-118148000D01*
X125826250Y-118148000D01*
X125985000Y-117989250D01*
X125985000Y-116795750D01*
X126945000Y-116795750D01*
X126945000Y-117486310D01*
X127041673Y-117719699D01*
X127220302Y-117898327D01*
X127453691Y-117995000D01*
X128444250Y-117995000D01*
X128603000Y-117836250D01*
X128603000Y-116637000D01*
X127103750Y-116637000D01*
X126945000Y-116795750D01*
X125985000Y-116795750D01*
X125985000Y-116273691D01*
X125888327Y-116040302D01*
X125709699Y-115861673D01*
X125476310Y-115765000D01*
X124285750Y-115765000D01*
X124127000Y-115923750D01*
X123873000Y-115923750D01*
X123714250Y-115765000D01*
X122939800Y-115765000D01*
X122939800Y-114909800D01*
X127271961Y-114909800D01*
X127359375Y-115040625D01*
X127359375Y-115040625D01*
G37*
X127359375Y-115040625D02*
X127381033Y-115055096D01*
X127220302Y-115121673D01*
X127041673Y-115300301D01*
X126945000Y-115533690D01*
X126945000Y-116224250D01*
X127103750Y-116383000D01*
X128603000Y-116383000D01*
X128603000Y-116363000D01*
X128857000Y-116363000D01*
X128857000Y-116383000D01*
X128877000Y-116383000D01*
X128877000Y-116637000D01*
X128857000Y-116637000D01*
X128857000Y-117836250D01*
X129015750Y-117995000D01*
X129174501Y-117995000D01*
X129174501Y-125958172D01*
X129105501Y-126637469D01*
X128913891Y-127248894D01*
X128603250Y-127809305D01*
X128186270Y-128295805D01*
X127679977Y-128688526D01*
X127105060Y-128971421D01*
X126475153Y-129135499D01*
X125968289Y-129174500D01*
X117995000Y-129174500D01*
X117995000Y-129015750D01*
X117836250Y-128857000D01*
X116637000Y-128857000D01*
X116637000Y-128877000D01*
X116383000Y-128877000D01*
X116383000Y-128857000D01*
X116363000Y-128857000D01*
X116363000Y-128603000D01*
X116383000Y-128603000D01*
X116383000Y-128583000D01*
X116637000Y-128583000D01*
X116637000Y-128603000D01*
X117836250Y-128603000D01*
X117995000Y-128444250D01*
X117995000Y-127453691D01*
X117898327Y-127220302D01*
X117719699Y-127041673D01*
X117486310Y-126945000D01*
X117134077Y-126945000D01*
X119901580Y-124177497D01*
X120865000Y-124177497D01*
X120865000Y-125822503D01*
X121494517Y-127342289D01*
X122657711Y-128505483D01*
X124177497Y-129135000D01*
X125822503Y-129135000D01*
X127342289Y-128505483D01*
X128505483Y-127342289D01*
X129135000Y-125822503D01*
X129135000Y-124177497D01*
X128505483Y-122657711D01*
X127342289Y-121494517D01*
X125822503Y-120865000D01*
X124177497Y-120865000D01*
X122657711Y-121494517D01*
X121494517Y-122657711D01*
X120865000Y-124177497D01*
X119901580Y-124177497D01*
X121399092Y-122679986D01*
X121477557Y-122627557D01*
X121568234Y-122491851D01*
X121685271Y-122316693D01*
X121685271Y-122316692D01*
X121685272Y-122316691D01*
X121739800Y-122042559D01*
X121739800Y-122042551D01*
X121758209Y-121950001D01*
X121739800Y-121857451D01*
X121739800Y-120848544D01*
X121794211Y-120575000D01*
X121787552Y-120541525D01*
X122026062Y-120303015D01*
X122111673Y-120509698D01*
X122290301Y-120688327D01*
X122523690Y-120785000D01*
X123714250Y-120785000D01*
X123873000Y-120626250D01*
X123873000Y-118402000D01*
X124127000Y-118402000D01*
X124127000Y-120626250D01*
X124285750Y-120785000D01*
X125476310Y-120785000D01*
X125709699Y-120688327D01*
X125888327Y-120509698D01*
X125985000Y-120276309D01*
X125985000Y-118560750D01*
X125826250Y-118402000D01*
X124127000Y-118402000D01*
X123873000Y-118402000D01*
X123853000Y-118402000D01*
X123853000Y-118148000D01*
X123873000Y-118148000D01*
X123873000Y-115923750D01*
X124127000Y-115923750D01*
X124127000Y-118148000D01*
X125826250Y-118148000D01*
X125985000Y-117989250D01*
X125985000Y-116795750D01*
X126945000Y-116795750D01*
X126945000Y-117486310D01*
X127041673Y-117719699D01*
X127220302Y-117898327D01*
X127453691Y-117995000D01*
X128444250Y-117995000D01*
X128603000Y-117836250D01*
X128603000Y-116637000D01*
X127103750Y-116637000D01*
X126945000Y-116795750D01*
X125985000Y-116795750D01*
X125985000Y-116273691D01*
X125888327Y-116040302D01*
X125709699Y-115861673D01*
X125476310Y-115765000D01*
X124285750Y-115765000D01*
X124127000Y-115923750D01*
X123873000Y-115923750D01*
X123714250Y-115765000D01*
X122939800Y-115765000D01*
X122939800Y-114909800D01*
X127271961Y-114909800D01*
X127359375Y-115040625D01*
G36*
X74235912Y-90668556D02*
X74632674Y-90832900D01*
X75062126Y-90832900D01*
X75458888Y-90668556D01*
X75509044Y-90618400D01*
X82072091Y-90618400D01*
X81935891Y-90754600D01*
X81295138Y-90754600D01*
X81222599Y-90740171D01*
X81150060Y-90754600D01*
X81150056Y-90754600D01*
X80935193Y-90797339D01*
X80691542Y-90960142D01*
X80686685Y-90967411D01*
X80566393Y-90991339D01*
X80322742Y-91154142D01*
X80281649Y-91215642D01*
X77441042Y-94056249D01*
X77379542Y-94097342D01*
X77216739Y-94340994D01*
X77174000Y-94555857D01*
X77174000Y-94555860D01*
X77159571Y-94628400D01*
X77174000Y-94700941D01*
X77174001Y-95516489D01*
X75025242Y-97665249D01*
X74963742Y-97706342D01*
X74800939Y-97949994D01*
X74758200Y-98164857D01*
X74758200Y-98164860D01*
X74743771Y-98237400D01*
X74758200Y-98309940D01*
X74758201Y-108039355D01*
X74461444Y-108336112D01*
X74297100Y-108732874D01*
X74297100Y-109162326D01*
X74461444Y-109559088D01*
X74758200Y-109855844D01*
X74758201Y-112900455D01*
X74743771Y-112973000D01*
X74800939Y-113260406D01*
X74922649Y-113442558D01*
X74922652Y-113442561D01*
X74963743Y-113504058D01*
X75025240Y-113545149D01*
X83240149Y-121760058D01*
X83281242Y-121821558D01*
X83524893Y-121984361D01*
X83739756Y-122027100D01*
X83739759Y-122027100D01*
X83812299Y-122041529D01*
X83884840Y-122027100D01*
X84620560Y-122027100D01*
X84620560Y-124003000D01*
X84669843Y-124250765D01*
X84810191Y-124460809D01*
X85020235Y-124601157D01*
X85268000Y-124650440D01*
X86792000Y-124650440D01*
X87039765Y-124601157D01*
X87249809Y-124460809D01*
X87390157Y-124250765D01*
X87430162Y-124049643D01*
X87562821Y-124248180D01*
X88024919Y-124556944D01*
X88570000Y-124665368D01*
X89115082Y-124556944D01*
X89577180Y-124248180D01*
X89840000Y-123854842D01*
X90102821Y-124248180D01*
X90564919Y-124556944D01*
X91110000Y-124665368D01*
X91655082Y-124556944D01*
X92117180Y-124248180D01*
X92380000Y-123854842D01*
X92617147Y-124209756D01*
X92599251Y-124236539D01*
X89542189Y-127293602D01*
X89149418Y-127031161D01*
X88570000Y-126915908D01*
X87990583Y-127031161D01*
X87499375Y-127359375D01*
X87300000Y-127657761D01*
X87100625Y-127359375D01*
X86609418Y-127031161D01*
X86030000Y-126915908D01*
X85875681Y-126946604D01*
X73053396Y-114124319D01*
X73084092Y-113970000D01*
X72980396Y-113448682D01*
X73599092Y-112829986D01*
X73677557Y-112777557D01*
X73762121Y-112651000D01*
X73885271Y-112466693D01*
X73885271Y-112466692D01*
X73885272Y-112466691D01*
X73939800Y-112192559D01*
X73939800Y-112192551D01*
X73958209Y-112100001D01*
X73939800Y-112007451D01*
X73939800Y-105792554D01*
X73958210Y-105700000D01*
X73939800Y-105607446D01*
X73939800Y-105607441D01*
X73885272Y-105333309D01*
X73823960Y-105241549D01*
X73729988Y-105100910D01*
X73729986Y-105100908D01*
X73677557Y-105022443D01*
X73599093Y-104970015D01*
X72039800Y-103410723D01*
X72039800Y-96589277D01*
X73599092Y-95029986D01*
X73677557Y-94977557D01*
X73729986Y-94899092D01*
X73729988Y-94899090D01*
X73857370Y-94708449D01*
X73885272Y-94666691D01*
X73939800Y-94392559D01*
X73939800Y-94392554D01*
X73958210Y-94300000D01*
X73939800Y-94207446D01*
X73939800Y-90372444D01*
X74235912Y-90668556D01*
X74235912Y-90668556D01*
G37*
X74235912Y-90668556D02*
X74632674Y-90832900D01*
X75062126Y-90832900D01*
X75458888Y-90668556D01*
X75509044Y-90618400D01*
X82072091Y-90618400D01*
X81935891Y-90754600D01*
X81295138Y-90754600D01*
X81222599Y-90740171D01*
X81150060Y-90754600D01*
X81150056Y-90754600D01*
X80935193Y-90797339D01*
X80691542Y-90960142D01*
X80686685Y-90967411D01*
X80566393Y-90991339D01*
X80322742Y-91154142D01*
X80281649Y-91215642D01*
X77441042Y-94056249D01*
X77379542Y-94097342D01*
X77216739Y-94340994D01*
X77174000Y-94555857D01*
X77174000Y-94555860D01*
X77159571Y-94628400D01*
X77174000Y-94700941D01*
X77174001Y-95516489D01*
X75025242Y-97665249D01*
X74963742Y-97706342D01*
X74800939Y-97949994D01*
X74758200Y-98164857D01*
X74758200Y-98164860D01*
X74743771Y-98237400D01*
X74758200Y-98309940D01*
X74758201Y-108039355D01*
X74461444Y-108336112D01*
X74297100Y-108732874D01*
X74297100Y-109162326D01*
X74461444Y-109559088D01*
X74758200Y-109855844D01*
X74758201Y-112900455D01*
X74743771Y-112973000D01*
X74800939Y-113260406D01*
X74922649Y-113442558D01*
X74922652Y-113442561D01*
X74963743Y-113504058D01*
X75025240Y-113545149D01*
X83240149Y-121760058D01*
X83281242Y-121821558D01*
X83524893Y-121984361D01*
X83739756Y-122027100D01*
X83739759Y-122027100D01*
X83812299Y-122041529D01*
X83884840Y-122027100D01*
X84620560Y-122027100D01*
X84620560Y-124003000D01*
X84669843Y-124250765D01*
X84810191Y-124460809D01*
X85020235Y-124601157D01*
X85268000Y-124650440D01*
X86792000Y-124650440D01*
X87039765Y-124601157D01*
X87249809Y-124460809D01*
X87390157Y-124250765D01*
X87430162Y-124049643D01*
X87562821Y-124248180D01*
X88024919Y-124556944D01*
X88570000Y-124665368D01*
X89115082Y-124556944D01*
X89577180Y-124248180D01*
X89840000Y-123854842D01*
X90102821Y-124248180D01*
X90564919Y-124556944D01*
X91110000Y-124665368D01*
X91655082Y-124556944D01*
X92117180Y-124248180D01*
X92380000Y-123854842D01*
X92617147Y-124209756D01*
X92599251Y-124236539D01*
X89542189Y-127293602D01*
X89149418Y-127031161D01*
X88570000Y-126915908D01*
X87990583Y-127031161D01*
X87499375Y-127359375D01*
X87300000Y-127657761D01*
X87100625Y-127359375D01*
X86609418Y-127031161D01*
X86030000Y-126915908D01*
X85875681Y-126946604D01*
X73053396Y-114124319D01*
X73084092Y-113970000D01*
X72980396Y-113448682D01*
X73599092Y-112829986D01*
X73677557Y-112777557D01*
X73762121Y-112651000D01*
X73885271Y-112466693D01*
X73885271Y-112466692D01*
X73885272Y-112466691D01*
X73939800Y-112192559D01*
X73939800Y-112192551D01*
X73958209Y-112100001D01*
X73939800Y-112007451D01*
X73939800Y-105792554D01*
X73958210Y-105700000D01*
X73939800Y-105607446D01*
X73939800Y-105607441D01*
X73885272Y-105333309D01*
X73823960Y-105241549D01*
X73729988Y-105100910D01*
X73729986Y-105100908D01*
X73677557Y-105022443D01*
X73599093Y-104970015D01*
X72039800Y-103410723D01*
X72039800Y-96589277D01*
X73599092Y-95029986D01*
X73677557Y-94977557D01*
X73729986Y-94899092D01*
X73729988Y-94899090D01*
X73857370Y-94708449D01*
X73885272Y-94666691D01*
X73939800Y-94392559D01*
X73939800Y-94392554D01*
X73958210Y-94300000D01*
X73939800Y-94207446D01*
X73939800Y-90372444D01*
X74235912Y-90668556D01*
G36*
X117142191Y-120357809D02*
X117352235Y-120498157D01*
X117600000Y-120547440D01*
X119100000Y-120547440D01*
X119347765Y-120498157D01*
X119397109Y-120465186D01*
X119860200Y-120928278D01*
X119860201Y-121560721D01*
X115366004Y-126054919D01*
X115299999Y-126041790D01*
X115207445Y-126060200D01*
X115207441Y-126060200D01*
X115125139Y-126076571D01*
X115551861Y-125649849D01*
X115613358Y-125608758D01*
X115654449Y-125547261D01*
X115654451Y-125547259D01*
X115776161Y-125365107D01*
X115785613Y-125317588D01*
X115818900Y-125150244D01*
X115818900Y-125150241D01*
X115833329Y-125077701D01*
X115818900Y-125005160D01*
X115818900Y-121992240D01*
X115833329Y-121919699D01*
X115818900Y-121847159D01*
X115818900Y-121847156D01*
X115776161Y-121632293D01*
X115713758Y-121538900D01*
X115677743Y-121485000D01*
X115777002Y-121485000D01*
X115777002Y-121326252D01*
X115935750Y-121485000D01*
X116526309Y-121485000D01*
X116759698Y-121388327D01*
X116938327Y-121209699D01*
X117035000Y-120976310D01*
X117035000Y-120735750D01*
X116876250Y-120577000D01*
X115777000Y-120577000D01*
X115777000Y-120597000D01*
X115523000Y-120597000D01*
X115523000Y-120577000D01*
X115503000Y-120577000D01*
X115503000Y-120323000D01*
X115523000Y-120323000D01*
X115523000Y-120303000D01*
X115777000Y-120303000D01*
X115777000Y-120323000D01*
X116876250Y-120323000D01*
X117021727Y-120177523D01*
X117142191Y-120357809D01*
X117142191Y-120357809D01*
G37*
X117142191Y-120357809D02*
X117352235Y-120498157D01*
X117600000Y-120547440D01*
X119100000Y-120547440D01*
X119347765Y-120498157D01*
X119397109Y-120465186D01*
X119860200Y-120928278D01*
X119860201Y-121560721D01*
X115366004Y-126054919D01*
X115299999Y-126041790D01*
X115207445Y-126060200D01*
X115207441Y-126060200D01*
X115125139Y-126076571D01*
X115551861Y-125649849D01*
X115613358Y-125608758D01*
X115654449Y-125547261D01*
X115654451Y-125547259D01*
X115776161Y-125365107D01*
X115785613Y-125317588D01*
X115818900Y-125150244D01*
X115818900Y-125150241D01*
X115833329Y-125077701D01*
X115818900Y-125005160D01*
X115818900Y-121992240D01*
X115833329Y-121919699D01*
X115818900Y-121847159D01*
X115818900Y-121847156D01*
X115776161Y-121632293D01*
X115713758Y-121538900D01*
X115677743Y-121485000D01*
X115777002Y-121485000D01*
X115777002Y-121326252D01*
X115935750Y-121485000D01*
X116526309Y-121485000D01*
X116759698Y-121388327D01*
X116938327Y-121209699D01*
X117035000Y-120976310D01*
X117035000Y-120735750D01*
X116876250Y-120577000D01*
X115777000Y-120577000D01*
X115777000Y-120597000D01*
X115523000Y-120597000D01*
X115523000Y-120577000D01*
X115503000Y-120577000D01*
X115503000Y-120323000D01*
X115523000Y-120323000D01*
X115523000Y-120303000D01*
X115777000Y-120303000D01*
X115777000Y-120323000D01*
X116876250Y-120323000D01*
X117021727Y-120177523D01*
X117142191Y-120357809D01*
G36*
X87199784Y-107056935D02*
X87243716Y-107122684D01*
X87475243Y-107277385D01*
X87478401Y-107279495D01*
X87478400Y-113640649D01*
X87462974Y-113718200D01*
X87478400Y-113795751D01*
X87524085Y-114025427D01*
X87698116Y-114285884D01*
X87763865Y-114329816D01*
X87935201Y-114501152D01*
X87935200Y-115768849D01*
X87919774Y-115846400D01*
X87935200Y-115923951D01*
X87980885Y-116153627D01*
X88154916Y-116414084D01*
X88220665Y-116458016D01*
X88319484Y-116556835D01*
X88363416Y-116622584D01*
X88573031Y-116762644D01*
X88623872Y-116796615D01*
X88931100Y-116857726D01*
X89008653Y-116842300D01*
X92696949Y-116842300D01*
X92774500Y-116857726D01*
X92852051Y-116842300D01*
X92852052Y-116842300D01*
X93081728Y-116796615D01*
X93342184Y-116622584D01*
X93386116Y-116556835D01*
X94370652Y-115572300D01*
X94951950Y-115572300D01*
X94793500Y-115730750D01*
X94793500Y-115825309D01*
X94890173Y-116058698D01*
X95068801Y-116237327D01*
X95302190Y-116334000D01*
X95714250Y-116334000D01*
X95873000Y-116175250D01*
X95873000Y-115572300D01*
X96127000Y-115572300D01*
X96127000Y-116175250D01*
X96285750Y-116334000D01*
X96697810Y-116334000D01*
X96931199Y-116237327D01*
X97017200Y-116151326D01*
X97017200Y-116304226D01*
X97181544Y-116700988D01*
X97485212Y-117004656D01*
X97626484Y-117063172D01*
X97623344Y-117066312D01*
X97459000Y-117463074D01*
X97459000Y-117892526D01*
X97623344Y-118289288D01*
X97927012Y-118592956D01*
X98323774Y-118757300D01*
X98753226Y-118757300D01*
X98830326Y-118725364D01*
X97001791Y-120553900D01*
X84117409Y-120553900D01*
X83335949Y-119772440D01*
X83650000Y-119772440D01*
X83897765Y-119723157D01*
X84107809Y-119582809D01*
X84148654Y-119521680D01*
X84290302Y-119663327D01*
X84523691Y-119760000D01*
X85114250Y-119760000D01*
X85273000Y-119601250D01*
X85273000Y-118627000D01*
X85527000Y-118627000D01*
X85527000Y-119601250D01*
X85685750Y-119760000D01*
X86276309Y-119760000D01*
X86509698Y-119663327D01*
X86688327Y-119484699D01*
X86785000Y-119251310D01*
X86785000Y-118785750D01*
X86626250Y-118627000D01*
X85527000Y-118627000D01*
X85273000Y-118627000D01*
X85253000Y-118627000D01*
X85253000Y-118373000D01*
X85273000Y-118373000D01*
X85273000Y-118353000D01*
X85527000Y-118353000D01*
X85527000Y-118373000D01*
X86626250Y-118373000D01*
X86785000Y-118214250D01*
X86785000Y-117748690D01*
X86688327Y-117515301D01*
X86509698Y-117336673D01*
X86361458Y-117275270D01*
X86497765Y-117248157D01*
X86707809Y-117107809D01*
X86848157Y-116897765D01*
X86897440Y-116650000D01*
X86897440Y-115350000D01*
X86848157Y-115102235D01*
X86707809Y-114892191D01*
X86497765Y-114751843D01*
X86469791Y-114746279D01*
X86609698Y-114688327D01*
X86788327Y-114509699D01*
X86885000Y-114276310D01*
X86885000Y-113785750D01*
X86726250Y-113627000D01*
X85627000Y-113627000D01*
X85627000Y-113647000D01*
X85373000Y-113647000D01*
X85373000Y-113627000D01*
X85353000Y-113627000D01*
X85353000Y-113373000D01*
X85373000Y-113373000D01*
X85373000Y-112373750D01*
X85349250Y-112350000D01*
X85373000Y-112326250D01*
X85373000Y-111577000D01*
X85627000Y-111577000D01*
X85627000Y-112326250D01*
X85650750Y-112350000D01*
X85627000Y-112373750D01*
X85627000Y-113373000D01*
X86726250Y-113373000D01*
X86885000Y-113214250D01*
X86885000Y-112723690D01*
X86788327Y-112490301D01*
X86648025Y-112350000D01*
X86788327Y-112209699D01*
X86885000Y-111976310D01*
X86885000Y-111735750D01*
X86726250Y-111577000D01*
X85627000Y-111577000D01*
X85373000Y-111577000D01*
X85353000Y-111577000D01*
X85353000Y-111323000D01*
X85373000Y-111323000D01*
X85373000Y-111303000D01*
X85627000Y-111303000D01*
X85627000Y-111323000D01*
X86726250Y-111323000D01*
X86885000Y-111164250D01*
X86885000Y-110923690D01*
X86788327Y-110690301D01*
X86609698Y-110511673D01*
X86574306Y-110497013D01*
X86707809Y-110407809D01*
X86848157Y-110197765D01*
X86897440Y-109950000D01*
X86897440Y-109150000D01*
X86848157Y-108902235D01*
X86707809Y-108692191D01*
X86631693Y-108641332D01*
X86788327Y-108484699D01*
X86885000Y-108251310D01*
X86885000Y-107785750D01*
X86726250Y-107627000D01*
X85627000Y-107627000D01*
X85627000Y-107647000D01*
X85373000Y-107647000D01*
X85373000Y-107627000D01*
X85353000Y-107627000D01*
X85353000Y-107373000D01*
X85373000Y-107373000D01*
X85373000Y-107353000D01*
X85627000Y-107353000D01*
X85627000Y-107373000D01*
X86726250Y-107373000D01*
X86885000Y-107214250D01*
X86885000Y-107035400D01*
X87178249Y-107035400D01*
X87199784Y-107056935D01*
X87199784Y-107056935D01*
G37*
X87199784Y-107056935D02*
X87243716Y-107122684D01*
X87475243Y-107277385D01*
X87478401Y-107279495D01*
X87478400Y-113640649D01*
X87462974Y-113718200D01*
X87478400Y-113795751D01*
X87524085Y-114025427D01*
X87698116Y-114285884D01*
X87763865Y-114329816D01*
X87935201Y-114501152D01*
X87935200Y-115768849D01*
X87919774Y-115846400D01*
X87935200Y-115923951D01*
X87980885Y-116153627D01*
X88154916Y-116414084D01*
X88220665Y-116458016D01*
X88319484Y-116556835D01*
X88363416Y-116622584D01*
X88573031Y-116762644D01*
X88623872Y-116796615D01*
X88931100Y-116857726D01*
X89008653Y-116842300D01*
X92696949Y-116842300D01*
X92774500Y-116857726D01*
X92852051Y-116842300D01*
X92852052Y-116842300D01*
X93081728Y-116796615D01*
X93342184Y-116622584D01*
X93386116Y-116556835D01*
X94370652Y-115572300D01*
X94951950Y-115572300D01*
X94793500Y-115730750D01*
X94793500Y-115825309D01*
X94890173Y-116058698D01*
X95068801Y-116237327D01*
X95302190Y-116334000D01*
X95714250Y-116334000D01*
X95873000Y-116175250D01*
X95873000Y-115572300D01*
X96127000Y-115572300D01*
X96127000Y-116175250D01*
X96285750Y-116334000D01*
X96697810Y-116334000D01*
X96931199Y-116237327D01*
X97017200Y-116151326D01*
X97017200Y-116304226D01*
X97181544Y-116700988D01*
X97485212Y-117004656D01*
X97626484Y-117063172D01*
X97623344Y-117066312D01*
X97459000Y-117463074D01*
X97459000Y-117892526D01*
X97623344Y-118289288D01*
X97927012Y-118592956D01*
X98323774Y-118757300D01*
X98753226Y-118757300D01*
X98830326Y-118725364D01*
X97001791Y-120553900D01*
X84117409Y-120553900D01*
X83335949Y-119772440D01*
X83650000Y-119772440D01*
X83897765Y-119723157D01*
X84107809Y-119582809D01*
X84148654Y-119521680D01*
X84290302Y-119663327D01*
X84523691Y-119760000D01*
X85114250Y-119760000D01*
X85273000Y-119601250D01*
X85273000Y-118627000D01*
X85527000Y-118627000D01*
X85527000Y-119601250D01*
X85685750Y-119760000D01*
X86276309Y-119760000D01*
X86509698Y-119663327D01*
X86688327Y-119484699D01*
X86785000Y-119251310D01*
X86785000Y-118785750D01*
X86626250Y-118627000D01*
X85527000Y-118627000D01*
X85273000Y-118627000D01*
X85253000Y-118627000D01*
X85253000Y-118373000D01*
X85273000Y-118373000D01*
X85273000Y-118353000D01*
X85527000Y-118353000D01*
X85527000Y-118373000D01*
X86626250Y-118373000D01*
X86785000Y-118214250D01*
X86785000Y-117748690D01*
X86688327Y-117515301D01*
X86509698Y-117336673D01*
X86361458Y-117275270D01*
X86497765Y-117248157D01*
X86707809Y-117107809D01*
X86848157Y-116897765D01*
X86897440Y-116650000D01*
X86897440Y-115350000D01*
X86848157Y-115102235D01*
X86707809Y-114892191D01*
X86497765Y-114751843D01*
X86469791Y-114746279D01*
X86609698Y-114688327D01*
X86788327Y-114509699D01*
X86885000Y-114276310D01*
X86885000Y-113785750D01*
X86726250Y-113627000D01*
X85627000Y-113627000D01*
X85627000Y-113647000D01*
X85373000Y-113647000D01*
X85373000Y-113627000D01*
X85353000Y-113627000D01*
X85353000Y-113373000D01*
X85373000Y-113373000D01*
X85373000Y-112373750D01*
X85349250Y-112350000D01*
X85373000Y-112326250D01*
X85373000Y-111577000D01*
X85627000Y-111577000D01*
X85627000Y-112326250D01*
X85650750Y-112350000D01*
X85627000Y-112373750D01*
X85627000Y-113373000D01*
X86726250Y-113373000D01*
X86885000Y-113214250D01*
X86885000Y-112723690D01*
X86788327Y-112490301D01*
X86648025Y-112350000D01*
X86788327Y-112209699D01*
X86885000Y-111976310D01*
X86885000Y-111735750D01*
X86726250Y-111577000D01*
X85627000Y-111577000D01*
X85373000Y-111577000D01*
X85353000Y-111577000D01*
X85353000Y-111323000D01*
X85373000Y-111323000D01*
X85373000Y-111303000D01*
X85627000Y-111303000D01*
X85627000Y-111323000D01*
X86726250Y-111323000D01*
X86885000Y-111164250D01*
X86885000Y-110923690D01*
X86788327Y-110690301D01*
X86609698Y-110511673D01*
X86574306Y-110497013D01*
X86707809Y-110407809D01*
X86848157Y-110197765D01*
X86897440Y-109950000D01*
X86897440Y-109150000D01*
X86848157Y-108902235D01*
X86707809Y-108692191D01*
X86631693Y-108641332D01*
X86788327Y-108484699D01*
X86885000Y-108251310D01*
X86885000Y-107785750D01*
X86726250Y-107627000D01*
X85627000Y-107627000D01*
X85627000Y-107647000D01*
X85373000Y-107647000D01*
X85373000Y-107627000D01*
X85353000Y-107627000D01*
X85353000Y-107373000D01*
X85373000Y-107373000D01*
X85373000Y-107353000D01*
X85627000Y-107353000D01*
X85627000Y-107373000D01*
X86726250Y-107373000D01*
X86885000Y-107214250D01*
X86885000Y-107035400D01*
X87178249Y-107035400D01*
X87199784Y-107056935D01*
G36*
X85272998Y-117398748D02*
X85171690Y-117297440D01*
X85272998Y-117297440D01*
X85272998Y-117398748D01*
X85272998Y-117398748D01*
G37*
X85272998Y-117398748D02*
X85171690Y-117297440D01*
X85272998Y-117297440D01*
X85272998Y-117398748D01*
G36*
X85527002Y-117398748D02*
X85527002Y-117297440D01*
X85628310Y-117297440D01*
X85527002Y-117398748D01*
X85527002Y-117398748D01*
G37*
X85527002Y-117398748D02*
X85527002Y-117297440D01*
X85628310Y-117297440D01*
X85527002Y-117398748D01*
G36*
X114265000Y-113164250D02*
X114423750Y-113323000D01*
X115523000Y-113323000D01*
X115523000Y-113303000D01*
X115777000Y-113303000D01*
X115777000Y-113323000D01*
X116876250Y-113323000D01*
X117021727Y-113177523D01*
X117142191Y-113357809D01*
X117310201Y-113470070D01*
X117310200Y-114765313D01*
X117252235Y-114776843D01*
X117042191Y-114917191D01*
X117001346Y-114978320D01*
X116859698Y-114836673D01*
X116626309Y-114740000D01*
X116035750Y-114740000D01*
X115877000Y-114898750D01*
X115877000Y-115873000D01*
X115897000Y-115873000D01*
X115897000Y-116127000D01*
X115877000Y-116127000D01*
X115877000Y-116147000D01*
X115623000Y-116147000D01*
X115623000Y-116127000D01*
X114523750Y-116127000D01*
X114365000Y-116285750D01*
X114365000Y-116452600D01*
X109274344Y-116452600D01*
X109311456Y-116415488D01*
X109475800Y-116018726D01*
X109475800Y-115589274D01*
X109334726Y-115248690D01*
X114365000Y-115248690D01*
X114365000Y-115714250D01*
X114523750Y-115873000D01*
X115623000Y-115873000D01*
X115623000Y-114898750D01*
X115464250Y-114740000D01*
X114873691Y-114740000D01*
X114640302Y-114836673D01*
X114461673Y-115015301D01*
X114365000Y-115248690D01*
X109334726Y-115248690D01*
X109311456Y-115192512D01*
X109007788Y-114888844D01*
X108611026Y-114724500D01*
X108181574Y-114724500D01*
X107835000Y-114868055D01*
X107835000Y-114783691D01*
X107738327Y-114550302D01*
X107559699Y-114371673D01*
X107487352Y-114341706D01*
X107657809Y-114227809D01*
X107798157Y-114017765D01*
X107847440Y-113770000D01*
X107847440Y-113744836D01*
X107863128Y-113741715D01*
X107872055Y-113735750D01*
X114265000Y-113735750D01*
X114265000Y-113976310D01*
X114361673Y-114209699D01*
X114540302Y-114388327D01*
X114773691Y-114485000D01*
X115364250Y-114485000D01*
X115523000Y-114326250D01*
X115523000Y-113577000D01*
X115777000Y-113577000D01*
X115777000Y-114326250D01*
X115935750Y-114485000D01*
X116526309Y-114485000D01*
X116759698Y-114388327D01*
X116938327Y-114209699D01*
X117035000Y-113976310D01*
X117035000Y-113735750D01*
X116876250Y-113577000D01*
X115777000Y-113577000D01*
X115523000Y-113577000D01*
X114423750Y-113577000D01*
X114265000Y-113735750D01*
X107872055Y-113735750D01*
X108123584Y-113567684D01*
X108167516Y-113501935D01*
X108576152Y-113093300D01*
X114265000Y-113093300D01*
X114265000Y-113164250D01*
X114265000Y-113164250D01*
G37*
X114265000Y-113164250D02*
X114423750Y-113323000D01*
X115523000Y-113323000D01*
X115523000Y-113303000D01*
X115777000Y-113303000D01*
X115777000Y-113323000D01*
X116876250Y-113323000D01*
X117021727Y-113177523D01*
X117142191Y-113357809D01*
X117310201Y-113470070D01*
X117310200Y-114765313D01*
X117252235Y-114776843D01*
X117042191Y-114917191D01*
X117001346Y-114978320D01*
X116859698Y-114836673D01*
X116626309Y-114740000D01*
X116035750Y-114740000D01*
X115877000Y-114898750D01*
X115877000Y-115873000D01*
X115897000Y-115873000D01*
X115897000Y-116127000D01*
X115877000Y-116127000D01*
X115877000Y-116147000D01*
X115623000Y-116147000D01*
X115623000Y-116127000D01*
X114523750Y-116127000D01*
X114365000Y-116285750D01*
X114365000Y-116452600D01*
X109274344Y-116452600D01*
X109311456Y-116415488D01*
X109475800Y-116018726D01*
X109475800Y-115589274D01*
X109334726Y-115248690D01*
X114365000Y-115248690D01*
X114365000Y-115714250D01*
X114523750Y-115873000D01*
X115623000Y-115873000D01*
X115623000Y-114898750D01*
X115464250Y-114740000D01*
X114873691Y-114740000D01*
X114640302Y-114836673D01*
X114461673Y-115015301D01*
X114365000Y-115248690D01*
X109334726Y-115248690D01*
X109311456Y-115192512D01*
X109007788Y-114888844D01*
X108611026Y-114724500D01*
X108181574Y-114724500D01*
X107835000Y-114868055D01*
X107835000Y-114783691D01*
X107738327Y-114550302D01*
X107559699Y-114371673D01*
X107487352Y-114341706D01*
X107657809Y-114227809D01*
X107798157Y-114017765D01*
X107847440Y-113770000D01*
X107847440Y-113744836D01*
X107863128Y-113741715D01*
X107872055Y-113735750D01*
X114265000Y-113735750D01*
X114265000Y-113976310D01*
X114361673Y-114209699D01*
X114540302Y-114388327D01*
X114773691Y-114485000D01*
X115364250Y-114485000D01*
X115523000Y-114326250D01*
X115523000Y-113577000D01*
X115777000Y-113577000D01*
X115777000Y-114326250D01*
X115935750Y-114485000D01*
X116526309Y-114485000D01*
X116759698Y-114388327D01*
X116938327Y-114209699D01*
X117035000Y-113976310D01*
X117035000Y-113735750D01*
X116876250Y-113577000D01*
X115777000Y-113577000D01*
X115523000Y-113577000D01*
X114423750Y-113577000D01*
X114265000Y-113735750D01*
X107872055Y-113735750D01*
X108123584Y-113567684D01*
X108167516Y-113501935D01*
X108576152Y-113093300D01*
X114265000Y-113093300D01*
X114265000Y-113164250D01*
G36*
X106427000Y-115553000D02*
X106447000Y-115553000D01*
X106447000Y-115807000D01*
X106427000Y-115807000D01*
X106427000Y-115827000D01*
X106173000Y-115827000D01*
X106173000Y-115807000D01*
X106153000Y-115807000D01*
X106153000Y-115553000D01*
X106173000Y-115553000D01*
X106173000Y-115533000D01*
X106427000Y-115533000D01*
X106427000Y-115553000D01*
X106427000Y-115553000D01*
G37*
X106427000Y-115553000D02*
X106447000Y-115553000D01*
X106447000Y-115807000D01*
X106427000Y-115807000D01*
X106427000Y-115827000D01*
X106173000Y-115827000D01*
X106173000Y-115807000D01*
X106153000Y-115807000D01*
X106153000Y-115553000D01*
X106173000Y-115553000D01*
X106173000Y-115533000D01*
X106427000Y-115533000D01*
X106427000Y-115553000D01*
G36*
X106427002Y-114433748D02*
X106427002Y-114417440D01*
X106443310Y-114417440D01*
X106427002Y-114433748D01*
X106427002Y-114433748D01*
G37*
X106427002Y-114433748D02*
X106427002Y-114417440D01*
X106443310Y-114417440D01*
X106427002Y-114433748D01*
G36*
X106172998Y-114433748D02*
X106156690Y-114417440D01*
X106172998Y-114417440D01*
X106172998Y-114433748D01*
X106172998Y-114433748D01*
G37*
X106172998Y-114433748D02*
X106156690Y-114417440D01*
X106172998Y-114417440D01*
X106172998Y-114433748D01*
G36*
X124561949Y-95489258D02*
X124603042Y-95550758D01*
X124846693Y-95713561D01*
X125061556Y-95756300D01*
X125061560Y-95756300D01*
X125134099Y-95770729D01*
X125206638Y-95756300D01*
X126019326Y-95756300D01*
X125982632Y-95787237D01*
X125780881Y-96198126D01*
X125907046Y-96373000D01*
X127023000Y-96373000D01*
X127023000Y-96353000D01*
X127277000Y-96353000D01*
X127277000Y-96373000D01*
X127297000Y-96373000D01*
X127297000Y-96627000D01*
X127277000Y-96627000D01*
X127277000Y-96647000D01*
X127023000Y-96647000D01*
X127023000Y-96627000D01*
X125907046Y-96627000D01*
X125780881Y-96801874D01*
X125982632Y-97212763D01*
X126323322Y-97500002D01*
X126461500Y-97543926D01*
X126461500Y-97933726D01*
X126625844Y-98330488D01*
X126929512Y-98634156D01*
X127326274Y-98798500D01*
X127755726Y-98798500D01*
X127948200Y-98718775D01*
X127948201Y-102490946D01*
X127552000Y-102365000D01*
X127277000Y-102365000D01*
X127277000Y-103373000D01*
X127297000Y-103373000D01*
X127297000Y-103627000D01*
X127277000Y-103627000D01*
X127277000Y-103647000D01*
X127023000Y-103647000D01*
X127023000Y-103627000D01*
X125907046Y-103627000D01*
X125780881Y-103801874D01*
X125982632Y-104212763D01*
X126323322Y-104500002D01*
X126501082Y-104556509D01*
X125980491Y-105077100D01*
X122658740Y-105077100D01*
X122586200Y-105062671D01*
X122513659Y-105077100D01*
X122513656Y-105077100D01*
X122298793Y-105119839D01*
X122116641Y-105241549D01*
X122116639Y-105241551D01*
X122055142Y-105282642D01*
X122014050Y-105344140D01*
X120454991Y-106903200D01*
X120404774Y-106903200D01*
X120008012Y-107067544D01*
X119704344Y-107371212D01*
X119540000Y-107767974D01*
X119540000Y-108019340D01*
X119538327Y-108015301D01*
X119359698Y-107836673D01*
X119126309Y-107740000D01*
X118535750Y-107740000D01*
X118377000Y-107898750D01*
X118377000Y-108873000D01*
X119476250Y-108873000D01*
X119635000Y-108714250D01*
X119635000Y-108426777D01*
X119704344Y-108594188D01*
X120008012Y-108897856D01*
X120133044Y-108949646D01*
X119635000Y-109447691D01*
X119635000Y-109285750D01*
X119476250Y-109127000D01*
X118377000Y-109127000D01*
X118377000Y-110101250D01*
X118513172Y-110237422D01*
X118456900Y-110373274D01*
X118456900Y-110802726D01*
X118621244Y-111199488D01*
X118874316Y-111452560D01*
X117600000Y-111452560D01*
X117352235Y-111501843D01*
X117142191Y-111642191D01*
X117047440Y-111783995D01*
X117047440Y-111150000D01*
X116998157Y-110902235D01*
X116857809Y-110692191D01*
X116647765Y-110551843D01*
X116437400Y-110509999D01*
X116437400Y-110369416D01*
X116491715Y-110288128D01*
X116494836Y-110272440D01*
X116500000Y-110272440D01*
X116747765Y-110223157D01*
X116957809Y-110082809D01*
X116998654Y-110021680D01*
X117140302Y-110163327D01*
X117373691Y-110260000D01*
X117964250Y-110260000D01*
X118123000Y-110101250D01*
X118123000Y-109127000D01*
X118103000Y-109127000D01*
X118103000Y-108873000D01*
X118123000Y-108873000D01*
X118123000Y-107898750D01*
X117964250Y-107740000D01*
X117373691Y-107740000D01*
X117140302Y-107836673D01*
X116998654Y-107978320D01*
X116960874Y-107921778D01*
X118351938Y-106530714D01*
X118417684Y-106486784D01*
X118540784Y-106302552D01*
X118591714Y-106226330D01*
X118591714Y-106226329D01*
X118591715Y-106226328D01*
X118637400Y-105996652D01*
X118637400Y-105996651D01*
X118652826Y-105919101D01*
X118637400Y-105841550D01*
X118637400Y-103290001D01*
X118847765Y-103248157D01*
X119057809Y-103107809D01*
X119198157Y-102897765D01*
X119217378Y-102801131D01*
X123348771Y-102801131D01*
X123490432Y-103211049D01*
X123778179Y-103535552D01*
X124152062Y-103719268D01*
X124323000Y-103592734D01*
X124323000Y-102627000D01*
X124577000Y-102627000D01*
X124577000Y-103592734D01*
X124747938Y-103719268D01*
X125121821Y-103535552D01*
X125409568Y-103211049D01*
X125414033Y-103198126D01*
X125780881Y-103198126D01*
X125907046Y-103373000D01*
X127023000Y-103373000D01*
X127023000Y-102365000D01*
X126748000Y-102365000D01*
X126323322Y-102499998D01*
X125982632Y-102787237D01*
X125780881Y-103198126D01*
X125414033Y-103198126D01*
X125551229Y-102801131D01*
X125402563Y-102627000D01*
X124577000Y-102627000D01*
X124323000Y-102627000D01*
X123497437Y-102627000D01*
X123348771Y-102801131D01*
X119217378Y-102801131D01*
X119247440Y-102650000D01*
X119247440Y-101350000D01*
X119198157Y-101102235D01*
X119057809Y-100892191D01*
X118847765Y-100751843D01*
X118711458Y-100724730D01*
X118859698Y-100663327D01*
X119038327Y-100484699D01*
X119135000Y-100251310D01*
X119135000Y-99785750D01*
X118976250Y-99627000D01*
X117877000Y-99627000D01*
X117877000Y-99647000D01*
X117623000Y-99647000D01*
X117623000Y-99627000D01*
X117603000Y-99627000D01*
X117603000Y-99373000D01*
X117623000Y-99373000D01*
X117623000Y-98398750D01*
X117474250Y-98250000D01*
X117623000Y-98101250D01*
X117623000Y-97127000D01*
X117603000Y-97127000D01*
X117603000Y-96873000D01*
X117623000Y-96873000D01*
X117623000Y-96853000D01*
X117877000Y-96853000D01*
X117877000Y-96873000D01*
X118976250Y-96873000D01*
X119135000Y-96714250D01*
X119135000Y-96248690D01*
X119038327Y-96015301D01*
X118859698Y-95836673D01*
X118711458Y-95775270D01*
X118847765Y-95748157D01*
X119057809Y-95607809D01*
X119198157Y-95397765D01*
X119247440Y-95150000D01*
X119247440Y-94079784D01*
X119485512Y-94317856D01*
X119882274Y-94482200D01*
X120311726Y-94482200D01*
X120532714Y-94390664D01*
X121040001Y-94897739D01*
X121040001Y-96358357D01*
X120926588Y-96244944D01*
X120529826Y-96080600D01*
X120100374Y-96080600D01*
X119703612Y-96244944D01*
X119399944Y-96548612D01*
X119235600Y-96945374D01*
X119235600Y-97374826D01*
X119399944Y-97771588D01*
X119503673Y-97875317D01*
X119443012Y-97900444D01*
X119139344Y-98204112D01*
X119018612Y-98495586D01*
X118859698Y-98336673D01*
X118650451Y-98250000D01*
X118859698Y-98163327D01*
X119038327Y-97984699D01*
X119135000Y-97751310D01*
X119135000Y-97285750D01*
X118976250Y-97127000D01*
X117877000Y-97127000D01*
X117877000Y-98101250D01*
X118025750Y-98250000D01*
X117877000Y-98398750D01*
X117877000Y-99373000D01*
X118976250Y-99373000D01*
X119075733Y-99273517D01*
X119139344Y-99427088D01*
X119443012Y-99730756D01*
X119839774Y-99895100D01*
X120269226Y-99895100D01*
X120665988Y-99730756D01*
X120969656Y-99427088D01*
X121134000Y-99030326D01*
X121134000Y-98956845D01*
X121160139Y-98995959D01*
X121245095Y-99123105D01*
X121306488Y-99164127D01*
X122511106Y-100368561D01*
X122552095Y-100429905D01*
X122613487Y-100470926D01*
X122613506Y-100470945D01*
X122670687Y-100509146D01*
X122795217Y-100592354D01*
X122795247Y-100592360D01*
X122795271Y-100592376D01*
X122938603Y-100620875D01*
X123009612Y-100635000D01*
X123009640Y-100635000D01*
X123082057Y-100649399D01*
X123085041Y-100648805D01*
X123127560Y-100677215D01*
X123127560Y-100850000D01*
X123148217Y-100953852D01*
X123140000Y-100973690D01*
X123140000Y-101041250D01*
X123171958Y-101073208D01*
X123176843Y-101097765D01*
X123317191Y-101307809D01*
X123455164Y-101400000D01*
X123298750Y-101400000D01*
X123140000Y-101558750D01*
X123140000Y-101626310D01*
X123236673Y-101859699D01*
X123407090Y-102030115D01*
X123348771Y-102198869D01*
X123497437Y-102373000D01*
X124323000Y-102373000D01*
X124323000Y-102353000D01*
X124577000Y-102353000D01*
X124577000Y-102373000D01*
X125402563Y-102373000D01*
X125551229Y-102198869D01*
X125492910Y-102030115D01*
X125663327Y-101859699D01*
X125760000Y-101626310D01*
X125760000Y-101558750D01*
X125601250Y-101400000D01*
X125444836Y-101400000D01*
X125582809Y-101307809D01*
X125723157Y-101097765D01*
X125728042Y-101073208D01*
X125760000Y-101041250D01*
X125760000Y-100973690D01*
X125751783Y-100953852D01*
X125772440Y-100850000D01*
X125772440Y-100450000D01*
X125747576Y-100325000D01*
X125772440Y-100200000D01*
X125772440Y-99800000D01*
X125747576Y-99675000D01*
X125772440Y-99550000D01*
X125772440Y-99150000D01*
X125747576Y-99025000D01*
X125772440Y-98900000D01*
X125772440Y-98500000D01*
X125723157Y-98252235D01*
X125582809Y-98042191D01*
X125489475Y-97979827D01*
X125551229Y-97801131D01*
X125402563Y-97627000D01*
X124577000Y-97627000D01*
X124577000Y-97647000D01*
X124323000Y-97647000D01*
X124323000Y-97627000D01*
X124303000Y-97627000D01*
X124303000Y-97373000D01*
X124323000Y-97373000D01*
X124323000Y-96407266D01*
X124577000Y-96407266D01*
X124577000Y-97373000D01*
X125402563Y-97373000D01*
X125551229Y-97198869D01*
X125409568Y-96788951D01*
X125121821Y-96464448D01*
X124747938Y-96280732D01*
X124577000Y-96407266D01*
X124323000Y-96407266D01*
X124152062Y-96280732D01*
X123778179Y-96464448D01*
X123490432Y-96788951D01*
X123416139Y-97003928D01*
X123214726Y-96920500D01*
X122960000Y-96920500D01*
X122960000Y-94479225D01*
X122974398Y-94406884D01*
X122960000Y-94334458D01*
X122960000Y-94334412D01*
X122943573Y-94251826D01*
X122917386Y-94120096D01*
X122917363Y-94120061D01*
X122917354Y-94120017D01*
X122832814Y-93993494D01*
X122795962Y-93938327D01*
X122795934Y-93938299D01*
X122754905Y-93876895D01*
X122693571Y-93835913D01*
X121890932Y-93033092D01*
X121953860Y-92881169D01*
X124561949Y-95489258D01*
X124561949Y-95489258D01*
G37*
X124561949Y-95489258D02*
X124603042Y-95550758D01*
X124846693Y-95713561D01*
X125061556Y-95756300D01*
X125061560Y-95756300D01*
X125134099Y-95770729D01*
X125206638Y-95756300D01*
X126019326Y-95756300D01*
X125982632Y-95787237D01*
X125780881Y-96198126D01*
X125907046Y-96373000D01*
X127023000Y-96373000D01*
X127023000Y-96353000D01*
X127277000Y-96353000D01*
X127277000Y-96373000D01*
X127297000Y-96373000D01*
X127297000Y-96627000D01*
X127277000Y-96627000D01*
X127277000Y-96647000D01*
X127023000Y-96647000D01*
X127023000Y-96627000D01*
X125907046Y-96627000D01*
X125780881Y-96801874D01*
X125982632Y-97212763D01*
X126323322Y-97500002D01*
X126461500Y-97543926D01*
X126461500Y-97933726D01*
X126625844Y-98330488D01*
X126929512Y-98634156D01*
X127326274Y-98798500D01*
X127755726Y-98798500D01*
X127948200Y-98718775D01*
X127948201Y-102490946D01*
X127552000Y-102365000D01*
X127277000Y-102365000D01*
X127277000Y-103373000D01*
X127297000Y-103373000D01*
X127297000Y-103627000D01*
X127277000Y-103627000D01*
X127277000Y-103647000D01*
X127023000Y-103647000D01*
X127023000Y-103627000D01*
X125907046Y-103627000D01*
X125780881Y-103801874D01*
X125982632Y-104212763D01*
X126323322Y-104500002D01*
X126501082Y-104556509D01*
X125980491Y-105077100D01*
X122658740Y-105077100D01*
X122586200Y-105062671D01*
X122513659Y-105077100D01*
X122513656Y-105077100D01*
X122298793Y-105119839D01*
X122116641Y-105241549D01*
X122116639Y-105241551D01*
X122055142Y-105282642D01*
X122014050Y-105344140D01*
X120454991Y-106903200D01*
X120404774Y-106903200D01*
X120008012Y-107067544D01*
X119704344Y-107371212D01*
X119540000Y-107767974D01*
X119540000Y-108019340D01*
X119538327Y-108015301D01*
X119359698Y-107836673D01*
X119126309Y-107740000D01*
X118535750Y-107740000D01*
X118377000Y-107898750D01*
X118377000Y-108873000D01*
X119476250Y-108873000D01*
X119635000Y-108714250D01*
X119635000Y-108426777D01*
X119704344Y-108594188D01*
X120008012Y-108897856D01*
X120133044Y-108949646D01*
X119635000Y-109447691D01*
X119635000Y-109285750D01*
X119476250Y-109127000D01*
X118377000Y-109127000D01*
X118377000Y-110101250D01*
X118513172Y-110237422D01*
X118456900Y-110373274D01*
X118456900Y-110802726D01*
X118621244Y-111199488D01*
X118874316Y-111452560D01*
X117600000Y-111452560D01*
X117352235Y-111501843D01*
X117142191Y-111642191D01*
X117047440Y-111783995D01*
X117047440Y-111150000D01*
X116998157Y-110902235D01*
X116857809Y-110692191D01*
X116647765Y-110551843D01*
X116437400Y-110509999D01*
X116437400Y-110369416D01*
X116491715Y-110288128D01*
X116494836Y-110272440D01*
X116500000Y-110272440D01*
X116747765Y-110223157D01*
X116957809Y-110082809D01*
X116998654Y-110021680D01*
X117140302Y-110163327D01*
X117373691Y-110260000D01*
X117964250Y-110260000D01*
X118123000Y-110101250D01*
X118123000Y-109127000D01*
X118103000Y-109127000D01*
X118103000Y-108873000D01*
X118123000Y-108873000D01*
X118123000Y-107898750D01*
X117964250Y-107740000D01*
X117373691Y-107740000D01*
X117140302Y-107836673D01*
X116998654Y-107978320D01*
X116960874Y-107921778D01*
X118351938Y-106530714D01*
X118417684Y-106486784D01*
X118540784Y-106302552D01*
X118591714Y-106226330D01*
X118591714Y-106226329D01*
X118591715Y-106226328D01*
X118637400Y-105996652D01*
X118637400Y-105996651D01*
X118652826Y-105919101D01*
X118637400Y-105841550D01*
X118637400Y-103290001D01*
X118847765Y-103248157D01*
X119057809Y-103107809D01*
X119198157Y-102897765D01*
X119217378Y-102801131D01*
X123348771Y-102801131D01*
X123490432Y-103211049D01*
X123778179Y-103535552D01*
X124152062Y-103719268D01*
X124323000Y-103592734D01*
X124323000Y-102627000D01*
X124577000Y-102627000D01*
X124577000Y-103592734D01*
X124747938Y-103719268D01*
X125121821Y-103535552D01*
X125409568Y-103211049D01*
X125414033Y-103198126D01*
X125780881Y-103198126D01*
X125907046Y-103373000D01*
X127023000Y-103373000D01*
X127023000Y-102365000D01*
X126748000Y-102365000D01*
X126323322Y-102499998D01*
X125982632Y-102787237D01*
X125780881Y-103198126D01*
X125414033Y-103198126D01*
X125551229Y-102801131D01*
X125402563Y-102627000D01*
X124577000Y-102627000D01*
X124323000Y-102627000D01*
X123497437Y-102627000D01*
X123348771Y-102801131D01*
X119217378Y-102801131D01*
X119247440Y-102650000D01*
X119247440Y-101350000D01*
X119198157Y-101102235D01*
X119057809Y-100892191D01*
X118847765Y-100751843D01*
X118711458Y-100724730D01*
X118859698Y-100663327D01*
X119038327Y-100484699D01*
X119135000Y-100251310D01*
X119135000Y-99785750D01*
X118976250Y-99627000D01*
X117877000Y-99627000D01*
X117877000Y-99647000D01*
X117623000Y-99647000D01*
X117623000Y-99627000D01*
X117603000Y-99627000D01*
X117603000Y-99373000D01*
X117623000Y-99373000D01*
X117623000Y-98398750D01*
X117474250Y-98250000D01*
X117623000Y-98101250D01*
X117623000Y-97127000D01*
X117603000Y-97127000D01*
X117603000Y-96873000D01*
X117623000Y-96873000D01*
X117623000Y-96853000D01*
X117877000Y-96853000D01*
X117877000Y-96873000D01*
X118976250Y-96873000D01*
X119135000Y-96714250D01*
X119135000Y-96248690D01*
X119038327Y-96015301D01*
X118859698Y-95836673D01*
X118711458Y-95775270D01*
X118847765Y-95748157D01*
X119057809Y-95607809D01*
X119198157Y-95397765D01*
X119247440Y-95150000D01*
X119247440Y-94079784D01*
X119485512Y-94317856D01*
X119882274Y-94482200D01*
X120311726Y-94482200D01*
X120532714Y-94390664D01*
X121040001Y-94897739D01*
X121040001Y-96358357D01*
X120926588Y-96244944D01*
X120529826Y-96080600D01*
X120100374Y-96080600D01*
X119703612Y-96244944D01*
X119399944Y-96548612D01*
X119235600Y-96945374D01*
X119235600Y-97374826D01*
X119399944Y-97771588D01*
X119503673Y-97875317D01*
X119443012Y-97900444D01*
X119139344Y-98204112D01*
X119018612Y-98495586D01*
X118859698Y-98336673D01*
X118650451Y-98250000D01*
X118859698Y-98163327D01*
X119038327Y-97984699D01*
X119135000Y-97751310D01*
X119135000Y-97285750D01*
X118976250Y-97127000D01*
X117877000Y-97127000D01*
X117877000Y-98101250D01*
X118025750Y-98250000D01*
X117877000Y-98398750D01*
X117877000Y-99373000D01*
X118976250Y-99373000D01*
X119075733Y-99273517D01*
X119139344Y-99427088D01*
X119443012Y-99730756D01*
X119839774Y-99895100D01*
X120269226Y-99895100D01*
X120665988Y-99730756D01*
X120969656Y-99427088D01*
X121134000Y-99030326D01*
X121134000Y-98956845D01*
X121160139Y-98995959D01*
X121245095Y-99123105D01*
X121306488Y-99164127D01*
X122511106Y-100368561D01*
X122552095Y-100429905D01*
X122613487Y-100470926D01*
X122613506Y-100470945D01*
X122670687Y-100509146D01*
X122795217Y-100592354D01*
X122795247Y-100592360D01*
X122795271Y-100592376D01*
X122938603Y-100620875D01*
X123009612Y-100635000D01*
X123009640Y-100635000D01*
X123082057Y-100649399D01*
X123085041Y-100648805D01*
X123127560Y-100677215D01*
X123127560Y-100850000D01*
X123148217Y-100953852D01*
X123140000Y-100973690D01*
X123140000Y-101041250D01*
X123171958Y-101073208D01*
X123176843Y-101097765D01*
X123317191Y-101307809D01*
X123455164Y-101400000D01*
X123298750Y-101400000D01*
X123140000Y-101558750D01*
X123140000Y-101626310D01*
X123236673Y-101859699D01*
X123407090Y-102030115D01*
X123348771Y-102198869D01*
X123497437Y-102373000D01*
X124323000Y-102373000D01*
X124323000Y-102353000D01*
X124577000Y-102353000D01*
X124577000Y-102373000D01*
X125402563Y-102373000D01*
X125551229Y-102198869D01*
X125492910Y-102030115D01*
X125663327Y-101859699D01*
X125760000Y-101626310D01*
X125760000Y-101558750D01*
X125601250Y-101400000D01*
X125444836Y-101400000D01*
X125582809Y-101307809D01*
X125723157Y-101097765D01*
X125728042Y-101073208D01*
X125760000Y-101041250D01*
X125760000Y-100973690D01*
X125751783Y-100953852D01*
X125772440Y-100850000D01*
X125772440Y-100450000D01*
X125747576Y-100325000D01*
X125772440Y-100200000D01*
X125772440Y-99800000D01*
X125747576Y-99675000D01*
X125772440Y-99550000D01*
X125772440Y-99150000D01*
X125747576Y-99025000D01*
X125772440Y-98900000D01*
X125772440Y-98500000D01*
X125723157Y-98252235D01*
X125582809Y-98042191D01*
X125489475Y-97979827D01*
X125551229Y-97801131D01*
X125402563Y-97627000D01*
X124577000Y-97627000D01*
X124577000Y-97647000D01*
X124323000Y-97647000D01*
X124323000Y-97627000D01*
X124303000Y-97627000D01*
X124303000Y-97373000D01*
X124323000Y-97373000D01*
X124323000Y-96407266D01*
X124577000Y-96407266D01*
X124577000Y-97373000D01*
X125402563Y-97373000D01*
X125551229Y-97198869D01*
X125409568Y-96788951D01*
X125121821Y-96464448D01*
X124747938Y-96280732D01*
X124577000Y-96407266D01*
X124323000Y-96407266D01*
X124152062Y-96280732D01*
X123778179Y-96464448D01*
X123490432Y-96788951D01*
X123416139Y-97003928D01*
X123214726Y-96920500D01*
X122960000Y-96920500D01*
X122960000Y-94479225D01*
X122974398Y-94406884D01*
X122960000Y-94334458D01*
X122960000Y-94334412D01*
X122943573Y-94251826D01*
X122917386Y-94120096D01*
X122917363Y-94120061D01*
X122917354Y-94120017D01*
X122832814Y-93993494D01*
X122795962Y-93938327D01*
X122795934Y-93938299D01*
X122754905Y-93876895D01*
X122693571Y-93835913D01*
X121890932Y-93033092D01*
X121953860Y-92881169D01*
X124561949Y-95489258D01*
G36*
X103627000Y-107873000D02*
X103647000Y-107873000D01*
X103647000Y-108127000D01*
X103627000Y-108127000D01*
X103627000Y-109101250D01*
X103763250Y-109237500D01*
X103627000Y-109373750D01*
X103627000Y-110373000D01*
X103647000Y-110373000D01*
X103647000Y-110627000D01*
X103627000Y-110627000D01*
X103627000Y-110647000D01*
X103373000Y-110647000D01*
X103373000Y-110627000D01*
X102273750Y-110627000D01*
X102156950Y-110743800D01*
X99681751Y-110743800D01*
X99604200Y-110728374D01*
X99526649Y-110743800D01*
X99526648Y-110743800D01*
X99296972Y-110789485D01*
X99036516Y-110963516D01*
X98992586Y-111029262D01*
X98286027Y-111735821D01*
X98182056Y-111484812D01*
X98155594Y-111458350D01*
X98168556Y-111445388D01*
X98332900Y-111048626D01*
X98332900Y-110619174D01*
X98168556Y-110222412D01*
X98061994Y-110115850D01*
X98145656Y-110032188D01*
X98310000Y-109635426D01*
X98310000Y-109205974D01*
X98274720Y-109120800D01*
X100494356Y-109120800D01*
X100672912Y-109299356D01*
X101069674Y-109463700D01*
X101499126Y-109463700D01*
X101895888Y-109299356D01*
X102199556Y-108995688D01*
X102207890Y-108975567D01*
X102211673Y-108984699D01*
X102390302Y-109163327D01*
X102569371Y-109237500D01*
X102390302Y-109311673D01*
X102211673Y-109490301D01*
X102115000Y-109723690D01*
X102115000Y-110214250D01*
X102273750Y-110373000D01*
X103373000Y-110373000D01*
X103373000Y-109373750D01*
X103236750Y-109237500D01*
X103373000Y-109101250D01*
X103373000Y-108127000D01*
X103353000Y-108127000D01*
X103353000Y-107873000D01*
X103373000Y-107873000D01*
X103373000Y-107853000D01*
X103627000Y-107853000D01*
X103627000Y-107873000D01*
X103627000Y-107873000D01*
G37*
X103627000Y-107873000D02*
X103647000Y-107873000D01*
X103647000Y-108127000D01*
X103627000Y-108127000D01*
X103627000Y-109101250D01*
X103763250Y-109237500D01*
X103627000Y-109373750D01*
X103627000Y-110373000D01*
X103647000Y-110373000D01*
X103647000Y-110627000D01*
X103627000Y-110627000D01*
X103627000Y-110647000D01*
X103373000Y-110647000D01*
X103373000Y-110627000D01*
X102273750Y-110627000D01*
X102156950Y-110743800D01*
X99681751Y-110743800D01*
X99604200Y-110728374D01*
X99526649Y-110743800D01*
X99526648Y-110743800D01*
X99296972Y-110789485D01*
X99036516Y-110963516D01*
X98992586Y-111029262D01*
X98286027Y-111735821D01*
X98182056Y-111484812D01*
X98155594Y-111458350D01*
X98168556Y-111445388D01*
X98332900Y-111048626D01*
X98332900Y-110619174D01*
X98168556Y-110222412D01*
X98061994Y-110115850D01*
X98145656Y-110032188D01*
X98310000Y-109635426D01*
X98310000Y-109205974D01*
X98274720Y-109120800D01*
X100494356Y-109120800D01*
X100672912Y-109299356D01*
X101069674Y-109463700D01*
X101499126Y-109463700D01*
X101895888Y-109299356D01*
X102199556Y-108995688D01*
X102207890Y-108975567D01*
X102211673Y-108984699D01*
X102390302Y-109163327D01*
X102569371Y-109237500D01*
X102390302Y-109311673D01*
X102211673Y-109490301D01*
X102115000Y-109723690D01*
X102115000Y-110214250D01*
X102273750Y-110373000D01*
X103373000Y-110373000D01*
X103373000Y-109373750D01*
X103236750Y-109237500D01*
X103373000Y-109101250D01*
X103373000Y-108127000D01*
X103353000Y-108127000D01*
X103353000Y-107873000D01*
X103373000Y-107873000D01*
X103373000Y-107853000D01*
X103627000Y-107853000D01*
X103627000Y-107873000D01*
G36*
X100465000Y-106352002D02*
X100596748Y-106352002D01*
X100465000Y-106483750D01*
X100465000Y-106551310D01*
X100561673Y-106784699D01*
X100740302Y-106963327D01*
X100973691Y-107060000D01*
X101364250Y-107060000D01*
X101523000Y-106901250D01*
X101523000Y-106422440D01*
X101777000Y-106422440D01*
X101777000Y-106901250D01*
X101935750Y-107060000D01*
X102193158Y-107060000D01*
X102115000Y-107248690D01*
X102115000Y-107688156D01*
X101895888Y-107469044D01*
X101499126Y-107304700D01*
X101069674Y-107304700D01*
X100672912Y-107469044D01*
X100494356Y-107647600D01*
X98301300Y-107647600D01*
X98301300Y-107364674D01*
X98136956Y-106967912D01*
X97833288Y-106664244D01*
X97623209Y-106577226D01*
X97627630Y-106555000D01*
X97579215Y-106311600D01*
X100465000Y-106311600D01*
X100465000Y-106352002D01*
X100465000Y-106352002D01*
G37*
X100465000Y-106352002D02*
X100596748Y-106352002D01*
X100465000Y-106483750D01*
X100465000Y-106551310D01*
X100561673Y-106784699D01*
X100740302Y-106963327D01*
X100973691Y-107060000D01*
X101364250Y-107060000D01*
X101523000Y-106901250D01*
X101523000Y-106422440D01*
X101777000Y-106422440D01*
X101777000Y-106901250D01*
X101935750Y-107060000D01*
X102193158Y-107060000D01*
X102115000Y-107248690D01*
X102115000Y-107688156D01*
X101895888Y-107469044D01*
X101499126Y-107304700D01*
X101069674Y-107304700D01*
X100672912Y-107469044D01*
X100494356Y-107647600D01*
X98301300Y-107647600D01*
X98301300Y-107364674D01*
X98136956Y-106967912D01*
X97833288Y-106664244D01*
X97623209Y-106577226D01*
X97627630Y-106555000D01*
X97579215Y-106311600D01*
X100465000Y-106311600D01*
X100465000Y-106352002D01*
G36*
X103296112Y-105309356D02*
X103489497Y-105389459D01*
X103384244Y-105494712D01*
X103219900Y-105891474D01*
X103219900Y-106320926D01*
X103384244Y-106717688D01*
X103406556Y-106740000D01*
X103372998Y-106740000D01*
X103372998Y-106898748D01*
X103214250Y-106740000D01*
X102756842Y-106740000D01*
X102835000Y-106551310D01*
X102835000Y-106483750D01*
X102676250Y-106325000D01*
X102519836Y-106325000D01*
X102657809Y-106232809D01*
X102798157Y-106022765D01*
X102803042Y-105998208D01*
X102835000Y-105966250D01*
X102835000Y-105898690D01*
X102826783Y-105878852D01*
X102847440Y-105775000D01*
X102847440Y-105582156D01*
X103036158Y-105456058D01*
X103077251Y-105394558D01*
X103229283Y-105242527D01*
X103296112Y-105309356D01*
X103296112Y-105309356D01*
G37*
X103296112Y-105309356D02*
X103489497Y-105389459D01*
X103384244Y-105494712D01*
X103219900Y-105891474D01*
X103219900Y-106320926D01*
X103384244Y-106717688D01*
X103406556Y-106740000D01*
X103372998Y-106740000D01*
X103372998Y-106898748D01*
X103214250Y-106740000D01*
X102756842Y-106740000D01*
X102835000Y-106551310D01*
X102835000Y-106483750D01*
X102676250Y-106325000D01*
X102519836Y-106325000D01*
X102657809Y-106232809D01*
X102798157Y-106022765D01*
X102803042Y-105998208D01*
X102835000Y-105966250D01*
X102835000Y-105898690D01*
X102826783Y-105878852D01*
X102847440Y-105775000D01*
X102847440Y-105582156D01*
X103036158Y-105456058D01*
X103077251Y-105394558D01*
X103229283Y-105242527D01*
X103296112Y-105309356D01*
G36*
X103647576Y-101594136D02*
X103900093Y-101594136D01*
X105750516Y-103444560D01*
X105791608Y-103506058D01*
X105853105Y-103547149D01*
X105853107Y-103547151D01*
X106005477Y-103648961D01*
X106035259Y-103668861D01*
X106152560Y-103692194D01*
X106152560Y-103825000D01*
X106177424Y-103950000D01*
X106152560Y-104075000D01*
X106152560Y-104180164D01*
X106136872Y-104183285D01*
X105876416Y-104357316D01*
X105702385Y-104617772D01*
X105641274Y-104925000D01*
X105656701Y-105002557D01*
X105656700Y-105898849D01*
X105498063Y-106057486D01*
X105432317Y-106101416D01*
X105378900Y-106181360D01*
X105378900Y-105895851D01*
X105393800Y-105820944D01*
X105393800Y-105820941D01*
X105408229Y-105748400D01*
X105393800Y-105675860D01*
X105393800Y-103899640D01*
X105408229Y-103827099D01*
X105393800Y-103754559D01*
X105393800Y-103754556D01*
X105351061Y-103539693D01*
X105340972Y-103524594D01*
X105229351Y-103357541D01*
X105229349Y-103357539D01*
X105188258Y-103296042D01*
X105126760Y-103254951D01*
X103337513Y-101465704D01*
X103647576Y-101594136D01*
X103647576Y-101594136D01*
G37*
X103647576Y-101594136D02*
X103900093Y-101594136D01*
X105750516Y-103444560D01*
X105791608Y-103506058D01*
X105853105Y-103547149D01*
X105853107Y-103547151D01*
X106005477Y-103648961D01*
X106035259Y-103668861D01*
X106152560Y-103692194D01*
X106152560Y-103825000D01*
X106177424Y-103950000D01*
X106152560Y-104075000D01*
X106152560Y-104180164D01*
X106136872Y-104183285D01*
X105876416Y-104357316D01*
X105702385Y-104617772D01*
X105641274Y-104925000D01*
X105656701Y-105002557D01*
X105656700Y-105898849D01*
X105498063Y-106057486D01*
X105432317Y-106101416D01*
X105378900Y-106181360D01*
X105378900Y-105895851D01*
X105393800Y-105820944D01*
X105393800Y-105820941D01*
X105408229Y-105748400D01*
X105393800Y-105675860D01*
X105393800Y-103899640D01*
X105408229Y-103827099D01*
X105393800Y-103754559D01*
X105393800Y-103754556D01*
X105351061Y-103539693D01*
X105340972Y-103524594D01*
X105229351Y-103357541D01*
X105229349Y-103357539D01*
X105188258Y-103296042D01*
X105126760Y-103254951D01*
X103337513Y-101465704D01*
X103647576Y-101594136D01*
G36*
X103895690Y-97903749D02*
X103820500Y-98085274D01*
X103820500Y-98514726D01*
X103984844Y-98911488D01*
X104288512Y-99215156D01*
X104685274Y-99379500D01*
X104937790Y-99379500D01*
X105102850Y-99544560D01*
X105143942Y-99606058D01*
X105205439Y-99647149D01*
X105205441Y-99647151D01*
X105339585Y-99736783D01*
X105387593Y-99768861D01*
X105602456Y-99811600D01*
X105602459Y-99811600D01*
X105675000Y-99826029D01*
X105747540Y-99811600D01*
X106152560Y-99811600D01*
X106152560Y-99925000D01*
X106177424Y-100050000D01*
X106152560Y-100175000D01*
X106152560Y-100575000D01*
X106177424Y-100700000D01*
X106152560Y-100825000D01*
X106152560Y-101225000D01*
X106177424Y-101350000D01*
X106152560Y-101475000D01*
X106152560Y-101763184D01*
X104941802Y-100552427D01*
X104941802Y-100299910D01*
X104777458Y-99903148D01*
X104473790Y-99599480D01*
X104077028Y-99435136D01*
X103647576Y-99435136D01*
X103250814Y-99599480D01*
X102947146Y-99903148D01*
X102843255Y-100153962D01*
X102822576Y-100050000D01*
X102847440Y-99925000D01*
X102847440Y-99664068D01*
X102934258Y-99606058D01*
X102975351Y-99544558D01*
X103129044Y-99390865D01*
X103190544Y-99349772D01*
X103353347Y-99106121D01*
X103396086Y-98891258D01*
X103396086Y-98891255D01*
X103410515Y-98818715D01*
X103396086Y-98746174D01*
X103396086Y-98350271D01*
X103858156Y-97888202D01*
X103895690Y-97903749D01*
X103895690Y-97903749D01*
G37*
X103895690Y-97903749D02*
X103820500Y-98085274D01*
X103820500Y-98514726D01*
X103984844Y-98911488D01*
X104288512Y-99215156D01*
X104685274Y-99379500D01*
X104937790Y-99379500D01*
X105102850Y-99544560D01*
X105143942Y-99606058D01*
X105205439Y-99647149D01*
X105205441Y-99647151D01*
X105339585Y-99736783D01*
X105387593Y-99768861D01*
X105602456Y-99811600D01*
X105602459Y-99811600D01*
X105675000Y-99826029D01*
X105747540Y-99811600D01*
X106152560Y-99811600D01*
X106152560Y-99925000D01*
X106177424Y-100050000D01*
X106152560Y-100175000D01*
X106152560Y-100575000D01*
X106177424Y-100700000D01*
X106152560Y-100825000D01*
X106152560Y-101225000D01*
X106177424Y-101350000D01*
X106152560Y-101475000D01*
X106152560Y-101763184D01*
X104941802Y-100552427D01*
X104941802Y-100299910D01*
X104777458Y-99903148D01*
X104473790Y-99599480D01*
X104077028Y-99435136D01*
X103647576Y-99435136D01*
X103250814Y-99599480D01*
X102947146Y-99903148D01*
X102843255Y-100153962D01*
X102822576Y-100050000D01*
X102847440Y-99925000D01*
X102847440Y-99664068D01*
X102934258Y-99606058D01*
X102975351Y-99544558D01*
X103129044Y-99390865D01*
X103190544Y-99349772D01*
X103353347Y-99106121D01*
X103396086Y-98891258D01*
X103396086Y-98891255D01*
X103410515Y-98818715D01*
X103396086Y-98746174D01*
X103396086Y-98350271D01*
X103858156Y-97888202D01*
X103895690Y-97903749D01*
G36*
X102923287Y-101068524D02*
X102847440Y-101017844D01*
X102847440Y-100885412D01*
X102923287Y-101068524D01*
X102923287Y-101068524D01*
G37*
X102923287Y-101068524D02*
X102847440Y-101017844D01*
X102847440Y-100885412D01*
X102923287Y-101068524D01*
G36*
X88607876Y-92089358D02*
X88932400Y-92413882D01*
X88932400Y-92551010D01*
X88916915Y-92540663D01*
X88669150Y-92491380D01*
X88421385Y-92540663D01*
X88211341Y-92681011D01*
X87681011Y-93211341D01*
X87540663Y-93421385D01*
X87491380Y-93669150D01*
X87529998Y-93863300D01*
X87244674Y-93863300D01*
X86847912Y-94027644D01*
X86544244Y-94331312D01*
X86379900Y-94728074D01*
X86379900Y-95157526D01*
X86544244Y-95554288D01*
X86847912Y-95857956D01*
X87244674Y-96022300D01*
X87674126Y-96022300D01*
X88070888Y-95857956D01*
X88374556Y-95554288D01*
X88486910Y-95283042D01*
X88688350Y-95081602D01*
X88739583Y-95115835D01*
X88847322Y-95137265D01*
X88847322Y-95138962D01*
X88943995Y-95372351D01*
X89255517Y-95683873D01*
X89480024Y-95683873D01*
X89992146Y-95171751D01*
X89978004Y-95157609D01*
X90157609Y-94978004D01*
X90171751Y-94992146D01*
X90185894Y-94978004D01*
X90365499Y-95157609D01*
X90351356Y-95171751D01*
X90365499Y-95185894D01*
X90185894Y-95365499D01*
X90171751Y-95351356D01*
X89659629Y-95863478D01*
X89659629Y-95940262D01*
X89245991Y-96353900D01*
X85992040Y-96353900D01*
X85919500Y-96339471D01*
X85846959Y-96353900D01*
X85846956Y-96353900D01*
X85632093Y-96396639D01*
X85449941Y-96518349D01*
X85449939Y-96518351D01*
X85388442Y-96559442D01*
X85347351Y-96620940D01*
X83491697Y-98476593D01*
X83428839Y-98160582D01*
X83100625Y-97669375D01*
X83078967Y-97654904D01*
X83239698Y-97588327D01*
X83418327Y-97409699D01*
X83515000Y-97176310D01*
X83515000Y-96485750D01*
X83356250Y-96327000D01*
X81857000Y-96327000D01*
X81857000Y-96347000D01*
X81603000Y-96347000D01*
X81603000Y-96327000D01*
X81583000Y-96327000D01*
X81583000Y-96073000D01*
X81603000Y-96073000D01*
X81603000Y-96053000D01*
X81857000Y-96053000D01*
X81857000Y-96073000D01*
X83356250Y-96073000D01*
X83515000Y-95914250D01*
X83515000Y-95656800D01*
X84468560Y-95656800D01*
X84541100Y-95671229D01*
X84613640Y-95656800D01*
X84613644Y-95656800D01*
X84624201Y-95654700D01*
X84754060Y-95654700D01*
X84826600Y-95669129D01*
X84899140Y-95654700D01*
X84899144Y-95654700D01*
X85114007Y-95611961D01*
X85357658Y-95449158D01*
X85398751Y-95387658D01*
X85735158Y-95051251D01*
X85796658Y-95010158D01*
X85959461Y-94766507D01*
X85967049Y-94728360D01*
X86763858Y-93931551D01*
X86825358Y-93890458D01*
X86988161Y-93646807D01*
X86989644Y-93639351D01*
X86998961Y-93625407D01*
X87024464Y-93497195D01*
X87029758Y-93493658D01*
X87172901Y-93279430D01*
X87260753Y-93220729D01*
X88392124Y-92089358D01*
X88500000Y-91927911D01*
X88607876Y-92089358D01*
X88607876Y-92089358D01*
G37*
X88607876Y-92089358D02*
X88932400Y-92413882D01*
X88932400Y-92551010D01*
X88916915Y-92540663D01*
X88669150Y-92491380D01*
X88421385Y-92540663D01*
X88211341Y-92681011D01*
X87681011Y-93211341D01*
X87540663Y-93421385D01*
X87491380Y-93669150D01*
X87529998Y-93863300D01*
X87244674Y-93863300D01*
X86847912Y-94027644D01*
X86544244Y-94331312D01*
X86379900Y-94728074D01*
X86379900Y-95157526D01*
X86544244Y-95554288D01*
X86847912Y-95857956D01*
X87244674Y-96022300D01*
X87674126Y-96022300D01*
X88070888Y-95857956D01*
X88374556Y-95554288D01*
X88486910Y-95283042D01*
X88688350Y-95081602D01*
X88739583Y-95115835D01*
X88847322Y-95137265D01*
X88847322Y-95138962D01*
X88943995Y-95372351D01*
X89255517Y-95683873D01*
X89480024Y-95683873D01*
X89992146Y-95171751D01*
X89978004Y-95157609D01*
X90157609Y-94978004D01*
X90171751Y-94992146D01*
X90185894Y-94978004D01*
X90365499Y-95157609D01*
X90351356Y-95171751D01*
X90365499Y-95185894D01*
X90185894Y-95365499D01*
X90171751Y-95351356D01*
X89659629Y-95863478D01*
X89659629Y-95940262D01*
X89245991Y-96353900D01*
X85992040Y-96353900D01*
X85919500Y-96339471D01*
X85846959Y-96353900D01*
X85846956Y-96353900D01*
X85632093Y-96396639D01*
X85449941Y-96518349D01*
X85449939Y-96518351D01*
X85388442Y-96559442D01*
X85347351Y-96620940D01*
X83491697Y-98476593D01*
X83428839Y-98160582D01*
X83100625Y-97669375D01*
X83078967Y-97654904D01*
X83239698Y-97588327D01*
X83418327Y-97409699D01*
X83515000Y-97176310D01*
X83515000Y-96485750D01*
X83356250Y-96327000D01*
X81857000Y-96327000D01*
X81857000Y-96347000D01*
X81603000Y-96347000D01*
X81603000Y-96327000D01*
X81583000Y-96327000D01*
X81583000Y-96073000D01*
X81603000Y-96073000D01*
X81603000Y-96053000D01*
X81857000Y-96053000D01*
X81857000Y-96073000D01*
X83356250Y-96073000D01*
X83515000Y-95914250D01*
X83515000Y-95656800D01*
X84468560Y-95656800D01*
X84541100Y-95671229D01*
X84613640Y-95656800D01*
X84613644Y-95656800D01*
X84624201Y-95654700D01*
X84754060Y-95654700D01*
X84826600Y-95669129D01*
X84899140Y-95654700D01*
X84899144Y-95654700D01*
X85114007Y-95611961D01*
X85357658Y-95449158D01*
X85398751Y-95387658D01*
X85735158Y-95051251D01*
X85796658Y-95010158D01*
X85959461Y-94766507D01*
X85967049Y-94728360D01*
X86763858Y-93931551D01*
X86825358Y-93890458D01*
X86988161Y-93646807D01*
X86989644Y-93639351D01*
X86998961Y-93625407D01*
X87024464Y-93497195D01*
X87029758Y-93493658D01*
X87172901Y-93279430D01*
X87260753Y-93220729D01*
X88392124Y-92089358D01*
X88500000Y-91927911D01*
X88607876Y-92089358D01*
G36*
X118053310Y-93202560D02*
X117977002Y-93202560D01*
X117977002Y-93126252D01*
X118053310Y-93202560D01*
X118053310Y-93202560D01*
G37*
X118053310Y-93202560D02*
X117977002Y-93202560D01*
X117977002Y-93126252D01*
X118053310Y-93202560D01*
G36*
X117722998Y-93202560D02*
X117646690Y-93202560D01*
X117722998Y-93126252D01*
X117722998Y-93202560D01*
X117722998Y-93202560D01*
G37*
X117722998Y-93202560D02*
X117646690Y-93202560D01*
X117722998Y-93126252D01*
X117722998Y-93202560D01*
G36*
X119987844Y-91985812D02*
X119841014Y-92340290D01*
X119485512Y-92487544D01*
X119235000Y-92738056D01*
X119235000Y-92285750D01*
X119076250Y-92127000D01*
X117977000Y-92127000D01*
X117977000Y-92147000D01*
X117723000Y-92147000D01*
X117723000Y-92127000D01*
X117703000Y-92127000D01*
X117703000Y-91873000D01*
X117723000Y-91873000D01*
X117723000Y-91853000D01*
X117977000Y-91853000D01*
X117977000Y-91873000D01*
X119076250Y-91873000D01*
X119167850Y-91781400D01*
X120192256Y-91781400D01*
X119987844Y-91985812D01*
X119987844Y-91985812D01*
G37*
X119987844Y-91985812D02*
X119841014Y-92340290D01*
X119485512Y-92487544D01*
X119235000Y-92738056D01*
X119235000Y-92285750D01*
X119076250Y-92127000D01*
X117977000Y-92127000D01*
X117977000Y-92147000D01*
X117723000Y-92147000D01*
X117723000Y-92127000D01*
X117703000Y-92127000D01*
X117703000Y-91873000D01*
X117723000Y-91873000D01*
X117723000Y-91853000D01*
X117977000Y-91853000D01*
X117977000Y-91873000D01*
X119076250Y-91873000D01*
X119167850Y-91781400D01*
X120192256Y-91781400D01*
X119987844Y-91985812D01*
G36*
X80864252Y-79022809D02*
X80849822Y-79095354D01*
X80906990Y-79382760D01*
X81028700Y-79564912D01*
X81028703Y-79564915D01*
X81069794Y-79626412D01*
X81131291Y-79667503D01*
X81591877Y-80128090D01*
X81389186Y-79992655D01*
X81141421Y-79943372D01*
X80893656Y-79992655D01*
X80683612Y-80133003D01*
X80330059Y-80486556D01*
X80189711Y-80696600D01*
X80168280Y-80804340D01*
X80166583Y-80804340D01*
X79933194Y-80901013D01*
X79867745Y-80966462D01*
X79867745Y-81190969D01*
X80998586Y-82321809D01*
X81014143Y-82306253D01*
X81193748Y-82485858D01*
X81178191Y-82501414D01*
X81192334Y-82515557D01*
X81015557Y-82692334D01*
X81001414Y-82678191D01*
X80985858Y-82693748D01*
X80806253Y-82514143D01*
X80821809Y-82498586D01*
X79690969Y-81367745D01*
X79466462Y-81367745D01*
X79401013Y-81433194D01*
X79304340Y-81666583D01*
X79304340Y-81668280D01*
X79196600Y-81689711D01*
X78986556Y-81830059D01*
X78633003Y-82183612D01*
X78492655Y-82393656D01*
X78443372Y-82641421D01*
X78492655Y-82889186D01*
X78633003Y-83099230D01*
X80400770Y-84866997D01*
X80610814Y-85007345D01*
X80826335Y-85050214D01*
X80963793Y-85142061D01*
X81251200Y-85199229D01*
X81334205Y-85182718D01*
X81415544Y-85379088D01*
X81719212Y-85682756D01*
X82115974Y-85847100D01*
X82365618Y-85847100D01*
X82737162Y-86218644D01*
X82779618Y-86282175D01*
X83395683Y-86898165D01*
X83246353Y-87047496D01*
X83220100Y-87042274D01*
X83142549Y-87057700D01*
X82986451Y-87057700D01*
X82959337Y-86921385D01*
X82818989Y-86711341D01*
X82288659Y-86181011D01*
X82078615Y-86040663D01*
X81830850Y-85991380D01*
X81583085Y-86040663D01*
X81373041Y-86181011D01*
X80524513Y-87029539D01*
X80384165Y-87239583D01*
X80362735Y-87347322D01*
X80361038Y-87347322D01*
X80127649Y-87443995D01*
X79816127Y-87755517D01*
X79816127Y-87980024D01*
X80328249Y-88492146D01*
X80342392Y-88478004D01*
X80521997Y-88657609D01*
X80507854Y-88671751D01*
X80521997Y-88685894D01*
X80342392Y-88865499D01*
X80328249Y-88851356D01*
X80314107Y-88865499D01*
X80134502Y-88685894D01*
X80148644Y-88671751D01*
X79636522Y-88159629D01*
X79412015Y-88159629D01*
X79100493Y-88471151D01*
X79003820Y-88704540D01*
X79003820Y-88957159D01*
X79081708Y-89145200D01*
X75763918Y-89145200D01*
X75762556Y-89141912D01*
X75458888Y-88838244D01*
X75062126Y-88673900D01*
X74632674Y-88673900D01*
X74235912Y-88838244D01*
X73939800Y-89134356D01*
X73939800Y-86892549D01*
X73958209Y-86799999D01*
X73939800Y-86707449D01*
X73939800Y-86707441D01*
X73885272Y-86433309D01*
X73880890Y-86426751D01*
X73729987Y-86200909D01*
X73729986Y-86200908D01*
X73677557Y-86122443D01*
X73599092Y-86070015D01*
X73289742Y-85760665D01*
X80864252Y-78186155D01*
X80864252Y-79022809D01*
X80864252Y-79022809D01*
G37*
X80864252Y-79022809D02*
X80849822Y-79095354D01*
X80906990Y-79382760D01*
X81028700Y-79564912D01*
X81028703Y-79564915D01*
X81069794Y-79626412D01*
X81131291Y-79667503D01*
X81591877Y-80128090D01*
X81389186Y-79992655D01*
X81141421Y-79943372D01*
X80893656Y-79992655D01*
X80683612Y-80133003D01*
X80330059Y-80486556D01*
X80189711Y-80696600D01*
X80168280Y-80804340D01*
X80166583Y-80804340D01*
X79933194Y-80901013D01*
X79867745Y-80966462D01*
X79867745Y-81190969D01*
X80998586Y-82321809D01*
X81014143Y-82306253D01*
X81193748Y-82485858D01*
X81178191Y-82501414D01*
X81192334Y-82515557D01*
X81015557Y-82692334D01*
X81001414Y-82678191D01*
X80985858Y-82693748D01*
X80806253Y-82514143D01*
X80821809Y-82498586D01*
X79690969Y-81367745D01*
X79466462Y-81367745D01*
X79401013Y-81433194D01*
X79304340Y-81666583D01*
X79304340Y-81668280D01*
X79196600Y-81689711D01*
X78986556Y-81830059D01*
X78633003Y-82183612D01*
X78492655Y-82393656D01*
X78443372Y-82641421D01*
X78492655Y-82889186D01*
X78633003Y-83099230D01*
X80400770Y-84866997D01*
X80610814Y-85007345D01*
X80826335Y-85050214D01*
X80963793Y-85142061D01*
X81251200Y-85199229D01*
X81334205Y-85182718D01*
X81415544Y-85379088D01*
X81719212Y-85682756D01*
X82115974Y-85847100D01*
X82365618Y-85847100D01*
X82737162Y-86218644D01*
X82779618Y-86282175D01*
X83395683Y-86898165D01*
X83246353Y-87047496D01*
X83220100Y-87042274D01*
X83142549Y-87057700D01*
X82986451Y-87057700D01*
X82959337Y-86921385D01*
X82818989Y-86711341D01*
X82288659Y-86181011D01*
X82078615Y-86040663D01*
X81830850Y-85991380D01*
X81583085Y-86040663D01*
X81373041Y-86181011D01*
X80524513Y-87029539D01*
X80384165Y-87239583D01*
X80362735Y-87347322D01*
X80361038Y-87347322D01*
X80127649Y-87443995D01*
X79816127Y-87755517D01*
X79816127Y-87980024D01*
X80328249Y-88492146D01*
X80342392Y-88478004D01*
X80521997Y-88657609D01*
X80507854Y-88671751D01*
X80521997Y-88685894D01*
X80342392Y-88865499D01*
X80328249Y-88851356D01*
X80314107Y-88865499D01*
X80134502Y-88685894D01*
X80148644Y-88671751D01*
X79636522Y-88159629D01*
X79412015Y-88159629D01*
X79100493Y-88471151D01*
X79003820Y-88704540D01*
X79003820Y-88957159D01*
X79081708Y-89145200D01*
X75763918Y-89145200D01*
X75762556Y-89141912D01*
X75458888Y-88838244D01*
X75062126Y-88673900D01*
X74632674Y-88673900D01*
X74235912Y-88838244D01*
X73939800Y-89134356D01*
X73939800Y-86892549D01*
X73958209Y-86799999D01*
X73939800Y-86707449D01*
X73939800Y-86707441D01*
X73885272Y-86433309D01*
X73880890Y-86426751D01*
X73729987Y-86200909D01*
X73729986Y-86200908D01*
X73677557Y-86122443D01*
X73599092Y-86070015D01*
X73289742Y-85760665D01*
X80864252Y-78186155D01*
X80864252Y-79022809D01*
G36*
X99106390Y-85316700D02*
X98943042Y-85480049D01*
X98881542Y-85521142D01*
X98718739Y-85764793D01*
X98685675Y-85931016D01*
X98668491Y-85948200D01*
X98277440Y-85948200D01*
X98204900Y-85933771D01*
X98132359Y-85948200D01*
X98132356Y-85948200D01*
X97917493Y-85990939D01*
X97735341Y-86112649D01*
X97735339Y-86112651D01*
X97673842Y-86153742D01*
X97632750Y-86215240D01*
X96364791Y-87483200D01*
X95962748Y-87483200D01*
X96475487Y-86970461D01*
X96615835Y-86760417D01*
X96637265Y-86652678D01*
X96638962Y-86652678D01*
X96872351Y-86556005D01*
X97183873Y-86244483D01*
X97183873Y-86019976D01*
X96671751Y-85507854D01*
X96657609Y-85521997D01*
X96478004Y-85342392D01*
X96492146Y-85328249D01*
X96478004Y-85314107D01*
X96657609Y-85134502D01*
X96671751Y-85148644D01*
X96685894Y-85134502D01*
X96865499Y-85314107D01*
X96851356Y-85328249D01*
X97363478Y-85840371D01*
X97587985Y-85840371D01*
X97899507Y-85528849D01*
X97996180Y-85295460D01*
X97996180Y-85042841D01*
X97899508Y-84809452D01*
X97885492Y-84795436D01*
X98096688Y-84707956D01*
X98297167Y-84507477D01*
X99106390Y-85316700D01*
X99106390Y-85316700D01*
G37*
X99106390Y-85316700D02*
X98943042Y-85480049D01*
X98881542Y-85521142D01*
X98718739Y-85764793D01*
X98685675Y-85931016D01*
X98668491Y-85948200D01*
X98277440Y-85948200D01*
X98204900Y-85933771D01*
X98132359Y-85948200D01*
X98132356Y-85948200D01*
X97917493Y-85990939D01*
X97735341Y-86112649D01*
X97735339Y-86112651D01*
X97673842Y-86153742D01*
X97632750Y-86215240D01*
X96364791Y-87483200D01*
X95962748Y-87483200D01*
X96475487Y-86970461D01*
X96615835Y-86760417D01*
X96637265Y-86652678D01*
X96638962Y-86652678D01*
X96872351Y-86556005D01*
X97183873Y-86244483D01*
X97183873Y-86019976D01*
X96671751Y-85507854D01*
X96657609Y-85521997D01*
X96478004Y-85342392D01*
X96492146Y-85328249D01*
X96478004Y-85314107D01*
X96657609Y-85134502D01*
X96671751Y-85148644D01*
X96685894Y-85134502D01*
X96865499Y-85314107D01*
X96851356Y-85328249D01*
X97363478Y-85840371D01*
X97587985Y-85840371D01*
X97899507Y-85528849D01*
X97996180Y-85295460D01*
X97996180Y-85042841D01*
X97899508Y-84809452D01*
X97885492Y-84795436D01*
X98096688Y-84707956D01*
X98297167Y-84507477D01*
X99106390Y-85316700D01*
G36*
X112899375Y-72640625D02*
X113390583Y-72968839D01*
X113970000Y-73084092D01*
X114040764Y-73070016D01*
X114706200Y-73735612D01*
X114706201Y-74275209D01*
X114687790Y-74367837D01*
X114724062Y-74550054D01*
X114760729Y-74734391D01*
X114760768Y-74734450D01*
X114760782Y-74734519D01*
X114864952Y-74890371D01*
X114968444Y-75045257D01*
X115046968Y-75097725D01*
X117349052Y-77399148D01*
X117401443Y-77477557D01*
X117479965Y-77530024D01*
X117480015Y-77530074D01*
X117559155Y-77582937D01*
X117712309Y-77685272D01*
X117712378Y-77685286D01*
X117712435Y-77685324D01*
X117890628Y-77720742D01*
X117986441Y-77739800D01*
X117986514Y-77739800D01*
X118079138Y-77758210D01*
X118162533Y-77741610D01*
X121060200Y-80639278D01*
X121060201Y-83807441D01*
X121041790Y-83900000D01*
X121114729Y-84266692D01*
X121270012Y-84499089D01*
X121270015Y-84499092D01*
X121322444Y-84577557D01*
X121400909Y-84629986D01*
X121570012Y-84799089D01*
X121622443Y-84877557D01*
X121933309Y-85085272D01*
X122207441Y-85139800D01*
X122207445Y-85139800D01*
X122299999Y-85158210D01*
X122392553Y-85139800D01*
X126110723Y-85139800D01*
X126930013Y-85959090D01*
X126915908Y-86030000D01*
X127031161Y-86609418D01*
X127359375Y-87100625D01*
X127657761Y-87300000D01*
X127465005Y-87428795D01*
X125548151Y-85511942D01*
X125507058Y-85450442D01*
X125263407Y-85287639D01*
X125048544Y-85244900D01*
X125048540Y-85244900D01*
X124976000Y-85230471D01*
X124903460Y-85244900D01*
X121120840Y-85244900D01*
X121048299Y-85230471D01*
X120975759Y-85244900D01*
X120975756Y-85244900D01*
X120817848Y-85276310D01*
X120760893Y-85287639D01*
X120578741Y-85409349D01*
X120578739Y-85409351D01*
X120517242Y-85450442D01*
X120476150Y-85511940D01*
X119717591Y-86270500D01*
X119646681Y-86270500D01*
X119623157Y-86152235D01*
X119482809Y-85942191D01*
X119272765Y-85801843D01*
X119025000Y-85752560D01*
X118848838Y-85752560D01*
X118847765Y-85751843D01*
X118819791Y-85746279D01*
X118959698Y-85688327D01*
X119138327Y-85509699D01*
X119235000Y-85276310D01*
X119235000Y-84785750D01*
X119076250Y-84627000D01*
X117977000Y-84627000D01*
X117977000Y-84647000D01*
X117723000Y-84647000D01*
X117723000Y-84627000D01*
X117703000Y-84627000D01*
X117703000Y-84373000D01*
X117723000Y-84373000D01*
X117723000Y-84353000D01*
X117977000Y-84353000D01*
X117977000Y-84373000D01*
X119076250Y-84373000D01*
X119235000Y-84214250D01*
X119235000Y-83723690D01*
X119138327Y-83490301D01*
X118959698Y-83311673D01*
X118819791Y-83253721D01*
X118847765Y-83248157D01*
X119057809Y-83107809D01*
X119198157Y-82897765D01*
X119247440Y-82650000D01*
X119247440Y-81350000D01*
X119198157Y-81102235D01*
X119057809Y-80892191D01*
X118979500Y-80839866D01*
X118979500Y-80469674D01*
X118815156Y-80072912D01*
X118511488Y-79769244D01*
X118114726Y-79604900D01*
X117685274Y-79604900D01*
X117288512Y-79769244D01*
X116984844Y-80072912D01*
X116820500Y-80469674D01*
X116820500Y-80773048D01*
X116802036Y-80785385D01*
X116777351Y-80748441D01*
X116777349Y-80748439D01*
X116736258Y-80686942D01*
X116674761Y-80645851D01*
X116196251Y-80167342D01*
X116155158Y-80105842D01*
X115911507Y-79943039D01*
X115696644Y-79900300D01*
X115696640Y-79900300D01*
X115624100Y-79885871D01*
X115551560Y-79900300D01*
X103535221Y-79900300D01*
X103535221Y-79672574D01*
X103370877Y-79275812D01*
X103067209Y-78972144D01*
X102670447Y-78807800D01*
X102240995Y-78807800D01*
X101844233Y-78972144D01*
X101665677Y-79150700D01*
X101401410Y-79150700D01*
X101177723Y-78927013D01*
X101270000Y-78945368D01*
X101815082Y-78836944D01*
X102277180Y-78528180D01*
X102540000Y-78134842D01*
X102802821Y-78528180D01*
X103264919Y-78836944D01*
X103810000Y-78945368D01*
X104355082Y-78836944D01*
X104817180Y-78528180D01*
X105080000Y-78134842D01*
X105342821Y-78528180D01*
X105804919Y-78836944D01*
X106350000Y-78945368D01*
X106895082Y-78836944D01*
X107357180Y-78528180D01*
X107620000Y-78134842D01*
X107882821Y-78528180D01*
X108344919Y-78836944D01*
X108890000Y-78945368D01*
X109435082Y-78836944D01*
X109897180Y-78528180D01*
X110160000Y-78134842D01*
X110422821Y-78528180D01*
X110884919Y-78836944D01*
X111430000Y-78945368D01*
X111975082Y-78836944D01*
X112437180Y-78528180D01*
X112700000Y-78134842D01*
X112962821Y-78528180D01*
X113424919Y-78836944D01*
X113970000Y-78945368D01*
X114515082Y-78836944D01*
X114977180Y-78528180D01*
X115285944Y-78066082D01*
X115367000Y-77658587D01*
X115367000Y-76621412D01*
X115285944Y-76213918D01*
X114977179Y-75751820D01*
X114515081Y-75443056D01*
X113970000Y-75334632D01*
X113424918Y-75443056D01*
X112962820Y-75751821D01*
X112700000Y-76145159D01*
X112437179Y-75751820D01*
X111975081Y-75443056D01*
X111430000Y-75334632D01*
X110884918Y-75443056D01*
X110422820Y-75751821D01*
X110160000Y-76145159D01*
X109897179Y-75751820D01*
X109435081Y-75443056D01*
X108890000Y-75334632D01*
X108344918Y-75443056D01*
X107882820Y-75751821D01*
X107620000Y-76145159D01*
X107466011Y-75914698D01*
X110587594Y-72793116D01*
X110850583Y-72968839D01*
X111430000Y-73084092D01*
X112009418Y-72968839D01*
X112500625Y-72640625D01*
X112700000Y-72342239D01*
X112899375Y-72640625D01*
X112899375Y-72640625D01*
G37*
X112899375Y-72640625D02*
X113390583Y-72968839D01*
X113970000Y-73084092D01*
X114040764Y-73070016D01*
X114706200Y-73735612D01*
X114706201Y-74275209D01*
X114687790Y-74367837D01*
X114724062Y-74550054D01*
X114760729Y-74734391D01*
X114760768Y-74734450D01*
X114760782Y-74734519D01*
X114864952Y-74890371D01*
X114968444Y-75045257D01*
X115046968Y-75097725D01*
X117349052Y-77399148D01*
X117401443Y-77477557D01*
X117479965Y-77530024D01*
X117480015Y-77530074D01*
X117559155Y-77582937D01*
X117712309Y-77685272D01*
X117712378Y-77685286D01*
X117712435Y-77685324D01*
X117890628Y-77720742D01*
X117986441Y-77739800D01*
X117986514Y-77739800D01*
X118079138Y-77758210D01*
X118162533Y-77741610D01*
X121060200Y-80639278D01*
X121060201Y-83807441D01*
X121041790Y-83900000D01*
X121114729Y-84266692D01*
X121270012Y-84499089D01*
X121270015Y-84499092D01*
X121322444Y-84577557D01*
X121400909Y-84629986D01*
X121570012Y-84799089D01*
X121622443Y-84877557D01*
X121933309Y-85085272D01*
X122207441Y-85139800D01*
X122207445Y-85139800D01*
X122299999Y-85158210D01*
X122392553Y-85139800D01*
X126110723Y-85139800D01*
X126930013Y-85959090D01*
X126915908Y-86030000D01*
X127031161Y-86609418D01*
X127359375Y-87100625D01*
X127657761Y-87300000D01*
X127465005Y-87428795D01*
X125548151Y-85511942D01*
X125507058Y-85450442D01*
X125263407Y-85287639D01*
X125048544Y-85244900D01*
X125048540Y-85244900D01*
X124976000Y-85230471D01*
X124903460Y-85244900D01*
X121120840Y-85244900D01*
X121048299Y-85230471D01*
X120975759Y-85244900D01*
X120975756Y-85244900D01*
X120817848Y-85276310D01*
X120760893Y-85287639D01*
X120578741Y-85409349D01*
X120578739Y-85409351D01*
X120517242Y-85450442D01*
X120476150Y-85511940D01*
X119717591Y-86270500D01*
X119646681Y-86270500D01*
X119623157Y-86152235D01*
X119482809Y-85942191D01*
X119272765Y-85801843D01*
X119025000Y-85752560D01*
X118848838Y-85752560D01*
X118847765Y-85751843D01*
X118819791Y-85746279D01*
X118959698Y-85688327D01*
X119138327Y-85509699D01*
X119235000Y-85276310D01*
X119235000Y-84785750D01*
X119076250Y-84627000D01*
X117977000Y-84627000D01*
X117977000Y-84647000D01*
X117723000Y-84647000D01*
X117723000Y-84627000D01*
X117703000Y-84627000D01*
X117703000Y-84373000D01*
X117723000Y-84373000D01*
X117723000Y-84353000D01*
X117977000Y-84353000D01*
X117977000Y-84373000D01*
X119076250Y-84373000D01*
X119235000Y-84214250D01*
X119235000Y-83723690D01*
X119138327Y-83490301D01*
X118959698Y-83311673D01*
X118819791Y-83253721D01*
X118847765Y-83248157D01*
X119057809Y-83107809D01*
X119198157Y-82897765D01*
X119247440Y-82650000D01*
X119247440Y-81350000D01*
X119198157Y-81102235D01*
X119057809Y-80892191D01*
X118979500Y-80839866D01*
X118979500Y-80469674D01*
X118815156Y-80072912D01*
X118511488Y-79769244D01*
X118114726Y-79604900D01*
X117685274Y-79604900D01*
X117288512Y-79769244D01*
X116984844Y-80072912D01*
X116820500Y-80469674D01*
X116820500Y-80773048D01*
X116802036Y-80785385D01*
X116777351Y-80748441D01*
X116777349Y-80748439D01*
X116736258Y-80686942D01*
X116674761Y-80645851D01*
X116196251Y-80167342D01*
X116155158Y-80105842D01*
X115911507Y-79943039D01*
X115696644Y-79900300D01*
X115696640Y-79900300D01*
X115624100Y-79885871D01*
X115551560Y-79900300D01*
X103535221Y-79900300D01*
X103535221Y-79672574D01*
X103370877Y-79275812D01*
X103067209Y-78972144D01*
X102670447Y-78807800D01*
X102240995Y-78807800D01*
X101844233Y-78972144D01*
X101665677Y-79150700D01*
X101401410Y-79150700D01*
X101177723Y-78927013D01*
X101270000Y-78945368D01*
X101815082Y-78836944D01*
X102277180Y-78528180D01*
X102540000Y-78134842D01*
X102802821Y-78528180D01*
X103264919Y-78836944D01*
X103810000Y-78945368D01*
X104355082Y-78836944D01*
X104817180Y-78528180D01*
X105080000Y-78134842D01*
X105342821Y-78528180D01*
X105804919Y-78836944D01*
X106350000Y-78945368D01*
X106895082Y-78836944D01*
X107357180Y-78528180D01*
X107620000Y-78134842D01*
X107882821Y-78528180D01*
X108344919Y-78836944D01*
X108890000Y-78945368D01*
X109435082Y-78836944D01*
X109897180Y-78528180D01*
X110160000Y-78134842D01*
X110422821Y-78528180D01*
X110884919Y-78836944D01*
X111430000Y-78945368D01*
X111975082Y-78836944D01*
X112437180Y-78528180D01*
X112700000Y-78134842D01*
X112962821Y-78528180D01*
X113424919Y-78836944D01*
X113970000Y-78945368D01*
X114515082Y-78836944D01*
X114977180Y-78528180D01*
X115285944Y-78066082D01*
X115367000Y-77658587D01*
X115367000Y-76621412D01*
X115285944Y-76213918D01*
X114977179Y-75751820D01*
X114515081Y-75443056D01*
X113970000Y-75334632D01*
X113424918Y-75443056D01*
X112962820Y-75751821D01*
X112700000Y-76145159D01*
X112437179Y-75751820D01*
X111975081Y-75443056D01*
X111430000Y-75334632D01*
X110884918Y-75443056D01*
X110422820Y-75751821D01*
X110160000Y-76145159D01*
X109897179Y-75751820D01*
X109435081Y-75443056D01*
X108890000Y-75334632D01*
X108344918Y-75443056D01*
X107882820Y-75751821D01*
X107620000Y-76145159D01*
X107466011Y-75914698D01*
X110587594Y-72793116D01*
X110850583Y-72968839D01*
X111430000Y-73084092D01*
X112009418Y-72968839D01*
X112500625Y-72640625D01*
X112700000Y-72342239D01*
X112899375Y-72640625D01*
G36*
X94426439Y-84568436D02*
X94426438Y-84568436D01*
X94382270Y-84524267D01*
X94426439Y-84568436D01*
X94426439Y-84568436D01*
G37*
X94426439Y-84568436D02*
X94426438Y-84568436D01*
X94382270Y-84524267D01*
X94426439Y-84568436D01*
G36*
X126637470Y-70894499D02*
X127248893Y-71086108D01*
X127809308Y-71396751D01*
X128295807Y-71813732D01*
X128688526Y-72320023D01*
X128971420Y-72894937D01*
X129135499Y-73524847D01*
X129174500Y-74031711D01*
X129174500Y-82005000D01*
X129015750Y-82005000D01*
X128857000Y-82163750D01*
X128857000Y-83363000D01*
X128877000Y-83363000D01*
X128877000Y-83617000D01*
X128857000Y-83617000D01*
X128857000Y-83637000D01*
X128603000Y-83637000D01*
X128603000Y-83617000D01*
X128583000Y-83617000D01*
X128583000Y-83363000D01*
X128603000Y-83363000D01*
X128603000Y-82163750D01*
X128444250Y-82005000D01*
X127453691Y-82005000D01*
X127220302Y-82101673D01*
X127041673Y-82280301D01*
X126945000Y-82513690D01*
X126945000Y-83204250D01*
X127103748Y-83362998D01*
X126945000Y-83362998D01*
X126945000Y-83367053D01*
X126866691Y-83314728D01*
X126592559Y-83260200D01*
X126592554Y-83260200D01*
X126500000Y-83241790D01*
X126407446Y-83260200D01*
X125985000Y-83260200D01*
X125985000Y-82010750D01*
X125826250Y-81852000D01*
X124127000Y-81852000D01*
X124127000Y-81872000D01*
X123873000Y-81872000D01*
X123873000Y-81852000D01*
X123853000Y-81852000D01*
X123853000Y-81598000D01*
X123873000Y-81598000D01*
X123873000Y-79373750D01*
X124127000Y-79373750D01*
X124127000Y-81598000D01*
X125826250Y-81598000D01*
X125985000Y-81439250D01*
X125985000Y-79723691D01*
X125888327Y-79490302D01*
X125709699Y-79311673D01*
X125476310Y-79215000D01*
X124285750Y-79215000D01*
X124127000Y-79373750D01*
X123873000Y-79373750D01*
X123714250Y-79215000D01*
X122523690Y-79215000D01*
X122361330Y-79282252D01*
X119279988Y-76200911D01*
X119227557Y-76122443D01*
X119147527Y-76068968D01*
X119066996Y-76015159D01*
X118916691Y-75914728D01*
X118642559Y-75860200D01*
X118642554Y-75860200D01*
X118550000Y-75841790D01*
X118466414Y-75858416D01*
X118118189Y-75510291D01*
X118285274Y-75579500D01*
X118714726Y-75579500D01*
X118865073Y-75517224D01*
X118892191Y-75557809D01*
X119102235Y-75698157D01*
X119350000Y-75747440D01*
X120650000Y-75747440D01*
X120865000Y-75704674D01*
X120865000Y-75822503D01*
X121494517Y-77342289D01*
X122657711Y-78505483D01*
X124177497Y-79135000D01*
X125822503Y-79135000D01*
X127342289Y-78505483D01*
X128505483Y-77342289D01*
X129135000Y-75822503D01*
X129135000Y-74177497D01*
X128505483Y-72657711D01*
X127342289Y-71494517D01*
X125822503Y-70865000D01*
X124177497Y-70865000D01*
X122657711Y-71494517D01*
X121494517Y-72657711D01*
X121222648Y-73314059D01*
X121107809Y-73142191D01*
X120897765Y-73001843D01*
X120888500Y-73000000D01*
X120897765Y-72998157D01*
X121107809Y-72857809D01*
X121248157Y-72647765D01*
X121297440Y-72400000D01*
X121297440Y-70900000D01*
X121282621Y-70825500D01*
X125958182Y-70825500D01*
X126637470Y-70894499D01*
X126637470Y-70894499D01*
G37*
X126637470Y-70894499D02*
X127248893Y-71086108D01*
X127809308Y-71396751D01*
X128295807Y-71813732D01*
X128688526Y-72320023D01*
X128971420Y-72894937D01*
X129135499Y-73524847D01*
X129174500Y-74031711D01*
X129174500Y-82005000D01*
X129015750Y-82005000D01*
X128857000Y-82163750D01*
X128857000Y-83363000D01*
X128877000Y-83363000D01*
X128877000Y-83617000D01*
X128857000Y-83617000D01*
X128857000Y-83637000D01*
X128603000Y-83637000D01*
X128603000Y-83617000D01*
X128583000Y-83617000D01*
X128583000Y-83363000D01*
X128603000Y-83363000D01*
X128603000Y-82163750D01*
X128444250Y-82005000D01*
X127453691Y-82005000D01*
X127220302Y-82101673D01*
X127041673Y-82280301D01*
X126945000Y-82513690D01*
X126945000Y-83204250D01*
X127103748Y-83362998D01*
X126945000Y-83362998D01*
X126945000Y-83367053D01*
X126866691Y-83314728D01*
X126592559Y-83260200D01*
X126592554Y-83260200D01*
X126500000Y-83241790D01*
X126407446Y-83260200D01*
X125985000Y-83260200D01*
X125985000Y-82010750D01*
X125826250Y-81852000D01*
X124127000Y-81852000D01*
X124127000Y-81872000D01*
X123873000Y-81872000D01*
X123873000Y-81852000D01*
X123853000Y-81852000D01*
X123853000Y-81598000D01*
X123873000Y-81598000D01*
X123873000Y-79373750D01*
X124127000Y-79373750D01*
X124127000Y-81598000D01*
X125826250Y-81598000D01*
X125985000Y-81439250D01*
X125985000Y-79723691D01*
X125888327Y-79490302D01*
X125709699Y-79311673D01*
X125476310Y-79215000D01*
X124285750Y-79215000D01*
X124127000Y-79373750D01*
X123873000Y-79373750D01*
X123714250Y-79215000D01*
X122523690Y-79215000D01*
X122361330Y-79282252D01*
X119279988Y-76200911D01*
X119227557Y-76122443D01*
X119147527Y-76068968D01*
X119066996Y-76015159D01*
X118916691Y-75914728D01*
X118642559Y-75860200D01*
X118642554Y-75860200D01*
X118550000Y-75841790D01*
X118466414Y-75858416D01*
X118118189Y-75510291D01*
X118285274Y-75579500D01*
X118714726Y-75579500D01*
X118865073Y-75517224D01*
X118892191Y-75557809D01*
X119102235Y-75698157D01*
X119350000Y-75747440D01*
X120650000Y-75747440D01*
X120865000Y-75704674D01*
X120865000Y-75822503D01*
X121494517Y-77342289D01*
X122657711Y-78505483D01*
X124177497Y-79135000D01*
X125822503Y-79135000D01*
X127342289Y-78505483D01*
X128505483Y-77342289D01*
X129135000Y-75822503D01*
X129135000Y-74177497D01*
X128505483Y-72657711D01*
X127342289Y-71494517D01*
X125822503Y-70865000D01*
X124177497Y-70865000D01*
X122657711Y-71494517D01*
X121494517Y-72657711D01*
X121222648Y-73314059D01*
X121107809Y-73142191D01*
X120897765Y-73001843D01*
X120888500Y-73000000D01*
X120897765Y-72998157D01*
X121107809Y-72857809D01*
X121248157Y-72647765D01*
X121297440Y-72400000D01*
X121297440Y-70900000D01*
X121282621Y-70825500D01*
X125958182Y-70825500D01*
X126637470Y-70894499D01*
G36*
X82005000Y-70984250D02*
X82163750Y-71143000D01*
X83363000Y-71143000D01*
X83363000Y-71123000D01*
X83617000Y-71123000D01*
X83617000Y-71143000D01*
X83637000Y-71143000D01*
X83637000Y-71397000D01*
X83617000Y-71397000D01*
X83617000Y-71417000D01*
X83363000Y-71417000D01*
X83363000Y-71397000D01*
X82163750Y-71397000D01*
X82005000Y-71555750D01*
X82005000Y-72546309D01*
X82101673Y-72779698D01*
X82280301Y-72958327D01*
X82513690Y-73055000D01*
X82837252Y-73055000D01*
X80514520Y-75377733D01*
X80436056Y-75430161D01*
X80383627Y-75508626D01*
X80383623Y-75508630D01*
X80228340Y-75741027D01*
X80175268Y-76007842D01*
X80155401Y-76107719D01*
X80173811Y-76200275D01*
X80173811Y-76218442D01*
X73029255Y-83362998D01*
X72896252Y-83362998D01*
X73055000Y-83204250D01*
X73055000Y-82513690D01*
X72958327Y-82280301D01*
X72779698Y-82101673D01*
X72546309Y-82005000D01*
X71555750Y-82005000D01*
X71397000Y-82163750D01*
X71397000Y-83363000D01*
X71417000Y-83363000D01*
X71417000Y-83617000D01*
X71397000Y-83617000D01*
X71397000Y-83637000D01*
X71143000Y-83637000D01*
X71143000Y-83617000D01*
X71123000Y-83617000D01*
X71123000Y-83363000D01*
X71143000Y-83363000D01*
X71143000Y-82163750D01*
X70984250Y-82005000D01*
X70825500Y-82005000D01*
X70825500Y-74177497D01*
X70865000Y-74177497D01*
X70865000Y-75822503D01*
X71494517Y-77342289D01*
X72657711Y-78505483D01*
X74177497Y-79135000D01*
X75822503Y-79135000D01*
X77342289Y-78505483D01*
X78505483Y-77342289D01*
X79135000Y-75822503D01*
X79135000Y-74177497D01*
X78505483Y-72657711D01*
X77342289Y-71494517D01*
X75822503Y-70865000D01*
X74177497Y-70865000D01*
X72657711Y-71494517D01*
X71494517Y-72657711D01*
X70865000Y-74177497D01*
X70825500Y-74177497D01*
X70825500Y-74041818D01*
X70894499Y-73362530D01*
X71086108Y-72751107D01*
X71396751Y-72190692D01*
X71813732Y-71704193D01*
X72320023Y-71311474D01*
X72894937Y-71028580D01*
X73524847Y-70864501D01*
X74031711Y-70825500D01*
X82005000Y-70825500D01*
X82005000Y-70984250D01*
X82005000Y-70984250D01*
G37*
X82005000Y-70984250D02*
X82163750Y-71143000D01*
X83363000Y-71143000D01*
X83363000Y-71123000D01*
X83617000Y-71123000D01*
X83617000Y-71143000D01*
X83637000Y-71143000D01*
X83637000Y-71397000D01*
X83617000Y-71397000D01*
X83617000Y-71417000D01*
X83363000Y-71417000D01*
X83363000Y-71397000D01*
X82163750Y-71397000D01*
X82005000Y-71555750D01*
X82005000Y-72546309D01*
X82101673Y-72779698D01*
X82280301Y-72958327D01*
X82513690Y-73055000D01*
X82837252Y-73055000D01*
X80514520Y-75377733D01*
X80436056Y-75430161D01*
X80383627Y-75508626D01*
X80383623Y-75508630D01*
X80228340Y-75741027D01*
X80175268Y-76007842D01*
X80155401Y-76107719D01*
X80173811Y-76200275D01*
X80173811Y-76218442D01*
X73029255Y-83362998D01*
X72896252Y-83362998D01*
X73055000Y-83204250D01*
X73055000Y-82513690D01*
X72958327Y-82280301D01*
X72779698Y-82101673D01*
X72546309Y-82005000D01*
X71555750Y-82005000D01*
X71397000Y-82163750D01*
X71397000Y-83363000D01*
X71417000Y-83363000D01*
X71417000Y-83617000D01*
X71397000Y-83617000D01*
X71397000Y-83637000D01*
X71143000Y-83637000D01*
X71143000Y-83617000D01*
X71123000Y-83617000D01*
X71123000Y-83363000D01*
X71143000Y-83363000D01*
X71143000Y-82163750D01*
X70984250Y-82005000D01*
X70825500Y-82005000D01*
X70825500Y-74177497D01*
X70865000Y-74177497D01*
X70865000Y-75822503D01*
X71494517Y-77342289D01*
X72657711Y-78505483D01*
X74177497Y-79135000D01*
X75822503Y-79135000D01*
X77342289Y-78505483D01*
X78505483Y-77342289D01*
X79135000Y-75822503D01*
X79135000Y-74177497D01*
X78505483Y-72657711D01*
X77342289Y-71494517D01*
X75822503Y-70865000D01*
X74177497Y-70865000D01*
X72657711Y-71494517D01*
X71494517Y-72657711D01*
X70865000Y-74177497D01*
X70825500Y-74177497D01*
X70825500Y-74041818D01*
X70894499Y-73362530D01*
X71086108Y-72751107D01*
X71396751Y-72190692D01*
X71813732Y-71704193D01*
X72320023Y-71311474D01*
X72894937Y-71028580D01*
X73524847Y-70864501D01*
X74031711Y-70825500D01*
X82005000Y-70825500D01*
X82005000Y-70984250D01*
G36*
X84445139Y-79568893D02*
X84402400Y-79783756D01*
X84402400Y-79783760D01*
X84387971Y-79856300D01*
X84402400Y-79928840D01*
X84402400Y-80102960D01*
X84387971Y-80175500D01*
X84389327Y-80182317D01*
X84316127Y-80255517D01*
X84316127Y-80480024D01*
X84828249Y-80992146D01*
X84842392Y-80978004D01*
X85021997Y-81157609D01*
X85007854Y-81171751D01*
X85021997Y-81185894D01*
X84842392Y-81365499D01*
X84828249Y-81351356D01*
X84814107Y-81365499D01*
X84634502Y-81185894D01*
X84648644Y-81171751D01*
X84136522Y-80659629D01*
X83912015Y-80659629D01*
X83600493Y-80971151D01*
X83503820Y-81204540D01*
X83503820Y-81457159D01*
X83533400Y-81528571D01*
X83266212Y-81639244D01*
X83185842Y-81719615D01*
X81746922Y-80280695D01*
X81910315Y-80389871D01*
X81921721Y-80397492D01*
X82136584Y-80440231D01*
X82136587Y-80440231D01*
X82209128Y-80454660D01*
X82281668Y-80440231D01*
X83132795Y-80440231D01*
X83205335Y-80454660D01*
X83277875Y-80440231D01*
X83277879Y-80440231D01*
X83492742Y-80397492D01*
X83736393Y-80234689D01*
X83777486Y-80173189D01*
X84572721Y-79377954D01*
X84445139Y-79568893D01*
X84445139Y-79568893D01*
G37*
X84445139Y-79568893D02*
X84402400Y-79783756D01*
X84402400Y-79783760D01*
X84387971Y-79856300D01*
X84402400Y-79928840D01*
X84402400Y-80102960D01*
X84387971Y-80175500D01*
X84389327Y-80182317D01*
X84316127Y-80255517D01*
X84316127Y-80480024D01*
X84828249Y-80992146D01*
X84842392Y-80978004D01*
X85021997Y-81157609D01*
X85007854Y-81171751D01*
X85021997Y-81185894D01*
X84842392Y-81365499D01*
X84828249Y-81351356D01*
X84814107Y-81365499D01*
X84634502Y-81185894D01*
X84648644Y-81171751D01*
X84136522Y-80659629D01*
X83912015Y-80659629D01*
X83600493Y-80971151D01*
X83503820Y-81204540D01*
X83503820Y-81457159D01*
X83533400Y-81528571D01*
X83266212Y-81639244D01*
X83185842Y-81719615D01*
X81746922Y-80280695D01*
X81910315Y-80389871D01*
X81921721Y-80397492D01*
X82136584Y-80440231D01*
X82136587Y-80440231D01*
X82209128Y-80454660D01*
X82281668Y-80440231D01*
X83132795Y-80440231D01*
X83205335Y-80454660D01*
X83277875Y-80440231D01*
X83277879Y-80440231D01*
X83492742Y-80397492D01*
X83736393Y-80234689D01*
X83777486Y-80173189D01*
X84572721Y-79377954D01*
X84445139Y-79568893D01*
G36*
X118892191Y-72857809D02*
X119102235Y-72998157D01*
X119111500Y-73000000D01*
X119102235Y-73001843D01*
X118892191Y-73142191D01*
X118751843Y-73352235D01*
X118736473Y-73429508D01*
X118714726Y-73420500D01*
X118285274Y-73420500D01*
X117888512Y-73584844D01*
X117584844Y-73888512D01*
X117420500Y-74285274D01*
X117420500Y-74714726D01*
X117489837Y-74882120D01*
X116585800Y-73978344D01*
X116585800Y-73439010D01*
X116604210Y-73346514D01*
X116585800Y-73253902D01*
X116585800Y-73253841D01*
X116566646Y-73157549D01*
X116546261Y-73055000D01*
X116637002Y-73055000D01*
X116637002Y-72896252D01*
X116795750Y-73055000D01*
X117486310Y-73055000D01*
X117719699Y-72958327D01*
X117895085Y-72782940D01*
X118140274Y-72884500D01*
X118569726Y-72884500D01*
X118836257Y-72774099D01*
X118892191Y-72857809D01*
X118892191Y-72857809D01*
G37*
X118892191Y-72857809D02*
X119102235Y-72998157D01*
X119111500Y-73000000D01*
X119102235Y-73001843D01*
X118892191Y-73142191D01*
X118751843Y-73352235D01*
X118736473Y-73429508D01*
X118714726Y-73420500D01*
X118285274Y-73420500D01*
X117888512Y-73584844D01*
X117584844Y-73888512D01*
X117420500Y-74285274D01*
X117420500Y-74714726D01*
X117489837Y-74882120D01*
X116585800Y-73978344D01*
X116585800Y-73439010D01*
X116604210Y-73346514D01*
X116585800Y-73253902D01*
X116585800Y-73253841D01*
X116566646Y-73157549D01*
X116546261Y-73055000D01*
X116637002Y-73055000D01*
X116637002Y-72896252D01*
X116795750Y-73055000D01*
X117486310Y-73055000D01*
X117719699Y-72958327D01*
X117895085Y-72782940D01*
X118140274Y-72884500D01*
X118569726Y-72884500D01*
X118836257Y-72774099D01*
X118892191Y-72857809D01*
G36*
X95566430Y-72414250D02*
X95725180Y-72573000D01*
X96924060Y-72573000D01*
X96924060Y-72553000D01*
X97178060Y-72553000D01*
X97178060Y-72573000D01*
X98376940Y-72573000D01*
X98535690Y-72414250D01*
X98535690Y-70825500D01*
X101456666Y-70825500D01*
X101451870Y-70849610D01*
X101451870Y-74397928D01*
X101270744Y-74361900D01*
X101270740Y-74361900D01*
X101198200Y-74347471D01*
X101125660Y-74361900D01*
X99070144Y-74361900D01*
X98891588Y-74183344D01*
X98535690Y-74035926D01*
X98535690Y-72985750D01*
X98376940Y-72827000D01*
X97178060Y-72827000D01*
X97178060Y-72847000D01*
X96924060Y-72847000D01*
X96924060Y-72827000D01*
X95725180Y-72827000D01*
X95566430Y-72985750D01*
X95566430Y-73558621D01*
X94677350Y-72669541D01*
X94720625Y-72640625D01*
X95048839Y-72149418D01*
X95135000Y-71716256D01*
X95135000Y-70825500D01*
X95566430Y-70825500D01*
X95566430Y-72414250D01*
X95566430Y-72414250D01*
G37*
X95566430Y-72414250D02*
X95725180Y-72573000D01*
X96924060Y-72573000D01*
X96924060Y-72553000D01*
X97178060Y-72553000D01*
X97178060Y-72573000D01*
X98376940Y-72573000D01*
X98535690Y-72414250D01*
X98535690Y-70825500D01*
X101456666Y-70825500D01*
X101451870Y-70849610D01*
X101451870Y-74397928D01*
X101270744Y-74361900D01*
X101270740Y-74361900D01*
X101198200Y-74347471D01*
X101125660Y-74361900D01*
X99070144Y-74361900D01*
X98891588Y-74183344D01*
X98535690Y-74035926D01*
X98535690Y-72985750D01*
X98376940Y-72827000D01*
X97178060Y-72827000D01*
X97178060Y-72847000D01*
X96924060Y-72847000D01*
X96924060Y-72827000D01*
X95725180Y-72827000D01*
X95566430Y-72985750D01*
X95566430Y-73558621D01*
X94677350Y-72669541D01*
X94720625Y-72640625D01*
X95048839Y-72149418D01*
X95135000Y-71716256D01*
X95135000Y-70825500D01*
X95566430Y-70825500D01*
X95566430Y-72414250D01*
G36*
X116637000Y-71143000D02*
X116657000Y-71143000D01*
X116657000Y-71397000D01*
X116637000Y-71397000D01*
X116637000Y-71417000D01*
X116383000Y-71417000D01*
X116383000Y-71397000D01*
X116363000Y-71397000D01*
X116363000Y-71143000D01*
X116383000Y-71143000D01*
X116383000Y-71123000D01*
X116637000Y-71123000D01*
X116637000Y-71143000D01*
X116637000Y-71143000D01*
G37*
X116637000Y-71143000D02*
X116657000Y-71143000D01*
X116657000Y-71397000D01*
X116637000Y-71397000D01*
X116637000Y-71417000D01*
X116383000Y-71417000D01*
X116383000Y-71397000D01*
X116363000Y-71397000D01*
X116363000Y-71143000D01*
X116383000Y-71143000D01*
X116383000Y-71123000D01*
X116637000Y-71123000D01*
X116637000Y-71143000D01*
M02*
