%TF.GenerationSoftware,KiCad,Pcbnew,5.0.1-33cea8e~68~ubuntu16.04.1*%
%TF.CreationDate,2018-11-19T21:37:37+01:00*%
%TF.ProjectId,bcl4v2,62636C3476322E6B696361645F706362,rev?*%
%TF.SameCoordinates,Original*%
%TF.FileFunction,Soldermask,Top*%
%TF.FilePolarity,Negative*%
%FSLAX46Y46*%
G04 Gerber Fmt 4.6, Leading zero omitted, Abs format (unit mm)*
G04 Created by KiCad (PCBNEW 5.0.1-33cea8e~68~ubuntu16.04.1) date Po 19. listopad 2018, 21:37:37 CET*
%MOMM*%
%LPD*%
G01*
G04 APERTURE LIST*
%ADD10C,0.381000*%
%ADD11C,0.150000*%
G04 APERTURE END LIST*
D10*
X129000000Y-105000000D02*
X130000000Y-105000000D01*
X129000000Y-95000000D02*
X129000000Y-105000000D01*
X130000000Y-95000000D02*
X129000000Y-95000000D01*
X74000000Y-70000000D02*
X126000000Y-70000000D01*
X70000000Y-126000000D02*
X70000000Y-74000000D01*
X126000000Y-130000000D02*
X74000000Y-130000000D01*
X130000000Y-105000000D02*
X130000000Y-126000000D01*
X126000000Y-130000000D02*
G75*
G03X130000000Y-126000000I0J4000000D01*
G01*
X70000000Y-126000000D02*
G75*
G03X74000000Y-130000000I4000000J0D01*
G01*
X74000000Y-70000000D02*
G75*
G03X70000000Y-74000000I0J-4000000D01*
G01*
X130000000Y-74000000D02*
X130000000Y-95000000D01*
X130000000Y-74000000D02*
G75*
G03X126000000Y-70000000I-4000000J0D01*
G01*
D11*
G36*
X86246423Y-127341974D02*
X86454526Y-127405102D01*
X86646313Y-127507614D01*
X86814423Y-127645577D01*
X86952386Y-127813687D01*
X87054895Y-128005469D01*
X87054897Y-128005474D01*
X87054897Y-128005475D01*
X87118025Y-128213578D01*
X87118026Y-128213583D01*
X87134000Y-128375770D01*
X87134000Y-129084231D01*
X87118026Y-129246423D01*
X87054898Y-129454526D01*
X86952386Y-129646313D01*
X86952384Y-129646315D01*
X86952383Y-129646317D01*
X86814423Y-129814423D01*
X86646317Y-129952383D01*
X86646313Y-129952385D01*
X86646312Y-129952386D01*
X86454525Y-130054898D01*
X86246422Y-130118026D01*
X86030000Y-130139341D01*
X85813577Y-130118026D01*
X85605474Y-130054898D01*
X85413687Y-129952386D01*
X85245577Y-129814423D01*
X85107617Y-129646317D01*
X85107614Y-129646312D01*
X85005102Y-129454525D01*
X84941974Y-129246422D01*
X84926000Y-129084230D01*
X84926000Y-128375769D01*
X84941974Y-128213577D01*
X85005102Y-128005476D01*
X85107617Y-127813685D01*
X85107618Y-127813683D01*
X85245578Y-127645577D01*
X85413684Y-127507617D01*
X85413685Y-127507616D01*
X85413688Y-127507614D01*
X85605475Y-127405102D01*
X85813578Y-127341974D01*
X86030000Y-127320659D01*
X86246423Y-127341974D01*
X86246423Y-127341974D01*
G37*
G36*
X111646422Y-127341974D02*
X111854525Y-127405102D01*
X112046312Y-127507614D01*
X112046313Y-127507615D01*
X112046317Y-127507617D01*
X112214423Y-127645577D01*
X112352386Y-127813687D01*
X112454898Y-128005474D01*
X112518026Y-128213577D01*
X112534000Y-128375769D01*
X112534000Y-129084230D01*
X112518026Y-129246417D01*
X112518025Y-129246420D01*
X112518025Y-129246421D01*
X112518024Y-129246423D01*
X112454895Y-129454531D01*
X112352386Y-129646313D01*
X112214423Y-129814423D01*
X112046313Y-129952386D01*
X111854526Y-130054898D01*
X111646423Y-130118026D01*
X111430000Y-130139341D01*
X111213578Y-130118026D01*
X111005475Y-130054898D01*
X110813688Y-129952386D01*
X110645578Y-129814423D01*
X110507618Y-129646317D01*
X110500542Y-129633078D01*
X110405102Y-129454524D01*
X110341974Y-129246423D01*
X110326000Y-129084231D01*
X110326000Y-128375770D01*
X110341974Y-128213578D01*
X110405102Y-128005475D01*
X110507614Y-127813688D01*
X110507616Y-127813685D01*
X110507617Y-127813683D01*
X110645577Y-127645577D01*
X110813683Y-127507617D01*
X110813684Y-127507616D01*
X110813687Y-127507614D01*
X111005474Y-127405102D01*
X111213577Y-127341974D01*
X111430000Y-127320659D01*
X111646422Y-127341974D01*
X111646422Y-127341974D01*
G37*
G36*
X114186422Y-127341974D02*
X114394525Y-127405102D01*
X114586312Y-127507614D01*
X114586313Y-127507615D01*
X114586317Y-127507617D01*
X114754423Y-127645577D01*
X114892386Y-127813687D01*
X114994898Y-128005474D01*
X115058026Y-128213577D01*
X115074000Y-128375769D01*
X115074000Y-129084230D01*
X115058026Y-129246417D01*
X115058025Y-129246420D01*
X115058025Y-129246421D01*
X115058024Y-129246423D01*
X114994895Y-129454531D01*
X114892386Y-129646313D01*
X114754423Y-129814423D01*
X114586313Y-129952386D01*
X114394526Y-130054898D01*
X114186423Y-130118026D01*
X113970000Y-130139341D01*
X113753578Y-130118026D01*
X113545475Y-130054898D01*
X113353688Y-129952386D01*
X113185578Y-129814423D01*
X113047618Y-129646317D01*
X113040542Y-129633078D01*
X112945102Y-129454524D01*
X112881974Y-129246423D01*
X112866000Y-129084231D01*
X112866000Y-128375770D01*
X112881974Y-128213578D01*
X112945102Y-128005475D01*
X113047614Y-127813688D01*
X113047616Y-127813685D01*
X113047617Y-127813683D01*
X113185577Y-127645577D01*
X113353683Y-127507617D01*
X113353684Y-127507616D01*
X113353687Y-127507614D01*
X113545474Y-127405102D01*
X113753577Y-127341974D01*
X113970000Y-127320659D01*
X114186422Y-127341974D01*
X114186422Y-127341974D01*
G37*
G36*
X109106422Y-127341974D02*
X109314525Y-127405102D01*
X109506312Y-127507614D01*
X109506313Y-127507615D01*
X109506317Y-127507617D01*
X109674423Y-127645577D01*
X109812386Y-127813687D01*
X109914898Y-128005474D01*
X109978026Y-128213577D01*
X109994000Y-128375769D01*
X109994000Y-129084230D01*
X109978026Y-129246417D01*
X109978025Y-129246420D01*
X109978025Y-129246421D01*
X109978024Y-129246423D01*
X109914895Y-129454531D01*
X109812386Y-129646313D01*
X109674423Y-129814423D01*
X109506313Y-129952386D01*
X109314526Y-130054898D01*
X109106423Y-130118026D01*
X108890000Y-130139341D01*
X108673578Y-130118026D01*
X108465475Y-130054898D01*
X108273688Y-129952386D01*
X108105578Y-129814423D01*
X107967618Y-129646317D01*
X107960542Y-129633078D01*
X107865102Y-129454524D01*
X107801974Y-129246423D01*
X107786000Y-129084231D01*
X107786000Y-128375770D01*
X107801974Y-128213578D01*
X107865102Y-128005475D01*
X107967614Y-127813688D01*
X107967616Y-127813685D01*
X107967617Y-127813683D01*
X108105577Y-127645577D01*
X108273683Y-127507617D01*
X108273684Y-127507616D01*
X108273687Y-127507614D01*
X108465474Y-127405102D01*
X108673577Y-127341974D01*
X108890000Y-127320659D01*
X109106422Y-127341974D01*
X109106422Y-127341974D01*
G37*
G36*
X106566422Y-127341974D02*
X106774525Y-127405102D01*
X106966312Y-127507614D01*
X106966313Y-127507615D01*
X106966317Y-127507617D01*
X107134423Y-127645577D01*
X107272386Y-127813687D01*
X107374898Y-128005474D01*
X107438026Y-128213577D01*
X107454000Y-128375769D01*
X107454000Y-129084230D01*
X107438026Y-129246417D01*
X107438025Y-129246420D01*
X107438025Y-129246421D01*
X107438024Y-129246423D01*
X107374895Y-129454531D01*
X107272386Y-129646313D01*
X107134423Y-129814423D01*
X106966313Y-129952386D01*
X106774526Y-130054898D01*
X106566423Y-130118026D01*
X106350000Y-130139341D01*
X106133578Y-130118026D01*
X105925475Y-130054898D01*
X105733688Y-129952386D01*
X105565578Y-129814423D01*
X105427618Y-129646317D01*
X105420542Y-129633078D01*
X105325102Y-129454524D01*
X105261974Y-129246423D01*
X105246000Y-129084231D01*
X105246000Y-128375770D01*
X105261974Y-128213578D01*
X105325102Y-128005475D01*
X105427614Y-127813688D01*
X105427616Y-127813685D01*
X105427617Y-127813683D01*
X105565577Y-127645577D01*
X105733683Y-127507617D01*
X105733684Y-127507616D01*
X105733687Y-127507614D01*
X105925474Y-127405102D01*
X106133577Y-127341974D01*
X106350000Y-127320659D01*
X106566422Y-127341974D01*
X106566422Y-127341974D01*
G37*
G36*
X91326423Y-127341974D02*
X91534526Y-127405102D01*
X91726313Y-127507614D01*
X91894423Y-127645577D01*
X92032386Y-127813687D01*
X92134895Y-128005469D01*
X92134897Y-128005474D01*
X92134897Y-128005475D01*
X92198025Y-128213578D01*
X92198026Y-128213583D01*
X92214000Y-128375770D01*
X92214000Y-129084231D01*
X92198026Y-129246423D01*
X92134898Y-129454526D01*
X92032386Y-129646313D01*
X92032384Y-129646315D01*
X92032383Y-129646317D01*
X91894423Y-129814423D01*
X91726317Y-129952383D01*
X91726313Y-129952385D01*
X91726312Y-129952386D01*
X91534525Y-130054898D01*
X91326422Y-130118026D01*
X91110000Y-130139341D01*
X90893577Y-130118026D01*
X90685474Y-130054898D01*
X90493687Y-129952386D01*
X90325577Y-129814423D01*
X90187617Y-129646317D01*
X90187614Y-129646312D01*
X90085102Y-129454525D01*
X90021974Y-129246422D01*
X90006000Y-129084230D01*
X90006000Y-128375769D01*
X90021974Y-128213577D01*
X90085102Y-128005476D01*
X90187617Y-127813685D01*
X90187618Y-127813683D01*
X90325578Y-127645577D01*
X90493684Y-127507617D01*
X90493685Y-127507616D01*
X90493688Y-127507614D01*
X90685475Y-127405102D01*
X90893578Y-127341974D01*
X91110000Y-127320659D01*
X91326423Y-127341974D01*
X91326423Y-127341974D01*
G37*
G36*
X88786423Y-127341974D02*
X88994526Y-127405102D01*
X89186313Y-127507614D01*
X89354423Y-127645577D01*
X89492386Y-127813687D01*
X89594895Y-128005469D01*
X89594897Y-128005474D01*
X89594897Y-128005475D01*
X89658025Y-128213578D01*
X89658026Y-128213583D01*
X89674000Y-128375770D01*
X89674000Y-129084231D01*
X89658026Y-129246423D01*
X89594898Y-129454526D01*
X89492386Y-129646313D01*
X89492384Y-129646315D01*
X89492383Y-129646317D01*
X89354423Y-129814423D01*
X89186317Y-129952383D01*
X89186313Y-129952385D01*
X89186312Y-129952386D01*
X88994525Y-130054898D01*
X88786422Y-130118026D01*
X88570000Y-130139341D01*
X88353577Y-130118026D01*
X88145474Y-130054898D01*
X87953687Y-129952386D01*
X87785577Y-129814423D01*
X87647617Y-129646317D01*
X87647614Y-129646312D01*
X87545102Y-129454525D01*
X87481974Y-129246422D01*
X87466000Y-129084230D01*
X87466000Y-128375769D01*
X87481974Y-128213577D01*
X87545102Y-128005476D01*
X87647617Y-127813685D01*
X87647618Y-127813683D01*
X87785578Y-127645577D01*
X87953684Y-127507617D01*
X87953685Y-127507616D01*
X87953688Y-127507614D01*
X88145475Y-127405102D01*
X88353578Y-127341974D01*
X88570000Y-127320659D01*
X88786423Y-127341974D01*
X88786423Y-127341974D01*
G37*
G36*
X93866423Y-127341974D02*
X94074526Y-127405102D01*
X94266313Y-127507614D01*
X94434423Y-127645577D01*
X94572386Y-127813687D01*
X94674895Y-128005469D01*
X94674897Y-128005474D01*
X94674897Y-128005475D01*
X94738025Y-128213578D01*
X94738026Y-128213583D01*
X94754000Y-128375770D01*
X94754000Y-129084231D01*
X94738026Y-129246423D01*
X94674898Y-129454526D01*
X94572386Y-129646313D01*
X94572384Y-129646315D01*
X94572383Y-129646317D01*
X94434423Y-129814423D01*
X94266317Y-129952383D01*
X94266313Y-129952385D01*
X94266312Y-129952386D01*
X94074525Y-130054898D01*
X93866422Y-130118026D01*
X93650000Y-130139341D01*
X93433577Y-130118026D01*
X93225474Y-130054898D01*
X93033687Y-129952386D01*
X92865577Y-129814423D01*
X92727617Y-129646317D01*
X92727614Y-129646312D01*
X92625102Y-129454525D01*
X92561974Y-129246422D01*
X92546000Y-129084230D01*
X92546000Y-128375769D01*
X92561974Y-128213577D01*
X92625102Y-128005476D01*
X92727617Y-127813685D01*
X92727618Y-127813683D01*
X92865578Y-127645577D01*
X93033684Y-127507617D01*
X93033685Y-127507616D01*
X93033688Y-127507614D01*
X93225475Y-127405102D01*
X93433578Y-127341974D01*
X93650000Y-127320659D01*
X93866423Y-127341974D01*
X93866423Y-127341974D01*
G37*
G36*
X117614000Y-130134000D02*
X115406000Y-130134000D01*
X115406000Y-127326000D01*
X117614000Y-127326000D01*
X117614000Y-130134000D01*
X117614000Y-130134000D01*
G37*
G36*
X84594000Y-130134000D02*
X82386000Y-130134000D01*
X82386000Y-127326000D01*
X84594000Y-127326000D01*
X84594000Y-130134000D01*
X84594000Y-130134000D01*
G37*
G36*
X76095001Y-121390264D02*
X76778186Y-121673248D01*
X77393036Y-122084078D01*
X77915922Y-122606964D01*
X78326752Y-123221814D01*
X78609736Y-123904999D01*
X78754000Y-124630263D01*
X78754000Y-125369737D01*
X78609736Y-126095001D01*
X78326752Y-126778186D01*
X77915922Y-127393036D01*
X77393036Y-127915922D01*
X76778186Y-128326752D01*
X76095001Y-128609736D01*
X75369738Y-128754000D01*
X74630262Y-128754000D01*
X73904999Y-128609736D01*
X73221814Y-128326752D01*
X72606964Y-127915922D01*
X72084078Y-127393036D01*
X71673248Y-126778186D01*
X71390264Y-126095001D01*
X71246000Y-125369737D01*
X71246000Y-124630263D01*
X71390264Y-123904999D01*
X71673248Y-123221814D01*
X72084078Y-122606964D01*
X72606964Y-122084078D01*
X73221814Y-121673248D01*
X73904999Y-121390264D01*
X74630262Y-121246000D01*
X75369738Y-121246000D01*
X76095001Y-121390264D01*
X76095001Y-121390264D01*
G37*
G36*
X126095001Y-121390264D02*
X126778186Y-121673248D01*
X127393036Y-122084078D01*
X127915922Y-122606964D01*
X128326752Y-123221814D01*
X128609736Y-123904999D01*
X128754000Y-124630263D01*
X128754000Y-125369737D01*
X128609736Y-126095001D01*
X128326752Y-126778186D01*
X127915922Y-127393036D01*
X127393036Y-127915922D01*
X126778186Y-128326752D01*
X126095001Y-128609736D01*
X125369738Y-128754000D01*
X124630262Y-128754000D01*
X123904999Y-128609736D01*
X123221814Y-128326752D01*
X122606964Y-127915922D01*
X122084078Y-127393036D01*
X121673248Y-126778186D01*
X121390264Y-126095001D01*
X121246000Y-125369737D01*
X121246000Y-124630263D01*
X121390264Y-123904999D01*
X121673248Y-123221814D01*
X122084078Y-122606964D01*
X122606964Y-122084078D01*
X123221814Y-121673248D01*
X123904999Y-121390264D01*
X124630262Y-121246000D01*
X125369738Y-121246000D01*
X126095001Y-121390264D01*
X126095001Y-121390264D01*
G37*
G36*
X96389171Y-121477701D02*
X96580686Y-121535797D01*
X96757189Y-121630139D01*
X96911896Y-121757104D01*
X97038861Y-121911810D01*
X97133203Y-122088313D01*
X97191299Y-122279828D01*
X97206000Y-122429094D01*
X97206000Y-123290905D01*
X97191299Y-123440166D01*
X97191298Y-123440169D01*
X97191298Y-123440170D01*
X97133203Y-123631685D01*
X97133200Y-123631692D01*
X97038861Y-123808190D01*
X96911896Y-123962896D01*
X96757190Y-124089861D01*
X96580687Y-124184203D01*
X96389172Y-124242299D01*
X96190000Y-124261915D01*
X95990829Y-124242299D01*
X95799314Y-124184203D01*
X95622811Y-124089861D01*
X95468105Y-123962896D01*
X95341142Y-123808191D01*
X95246797Y-123631685D01*
X95188701Y-123440172D01*
X95174000Y-123290906D01*
X95174000Y-122429095D01*
X95188701Y-122279829D01*
X95246797Y-122088314D01*
X95341139Y-121911811D01*
X95468104Y-121757104D01*
X95622810Y-121630139D01*
X95799313Y-121535797D01*
X95990828Y-121477701D01*
X96190000Y-121458085D01*
X96389171Y-121477701D01*
X96389171Y-121477701D01*
G37*
G36*
X114169171Y-121477701D02*
X114360686Y-121535797D01*
X114537189Y-121630139D01*
X114691896Y-121757104D01*
X114818861Y-121911810D01*
X114913203Y-122088313D01*
X114971299Y-122279828D01*
X114986000Y-122429094D01*
X114986000Y-123290905D01*
X114971299Y-123440166D01*
X114971298Y-123440169D01*
X114971298Y-123440170D01*
X114913203Y-123631685D01*
X114913200Y-123631692D01*
X114818861Y-123808190D01*
X114691896Y-123962896D01*
X114537190Y-124089861D01*
X114360687Y-124184203D01*
X114169172Y-124242299D01*
X113970000Y-124261915D01*
X113770829Y-124242299D01*
X113579314Y-124184203D01*
X113402811Y-124089861D01*
X113248105Y-123962896D01*
X113121142Y-123808191D01*
X113026797Y-123631685D01*
X112968701Y-123440172D01*
X112954000Y-123290906D01*
X112954000Y-122429095D01*
X112968701Y-122279829D01*
X113026797Y-122088314D01*
X113121139Y-121911811D01*
X113248104Y-121757104D01*
X113402810Y-121630139D01*
X113579313Y-121535797D01*
X113770828Y-121477701D01*
X113970000Y-121458085D01*
X114169171Y-121477701D01*
X114169171Y-121477701D01*
G37*
G36*
X111629171Y-121477701D02*
X111820686Y-121535797D01*
X111997189Y-121630139D01*
X112151896Y-121757104D01*
X112278861Y-121911810D01*
X112373203Y-122088313D01*
X112431299Y-122279828D01*
X112446000Y-122429094D01*
X112446000Y-123290905D01*
X112431299Y-123440166D01*
X112431298Y-123440169D01*
X112431298Y-123440170D01*
X112373203Y-123631685D01*
X112373200Y-123631692D01*
X112278861Y-123808190D01*
X112151896Y-123962896D01*
X111997190Y-124089861D01*
X111820687Y-124184203D01*
X111629172Y-124242299D01*
X111430000Y-124261915D01*
X111230829Y-124242299D01*
X111039314Y-124184203D01*
X110862811Y-124089861D01*
X110708105Y-123962896D01*
X110581142Y-123808191D01*
X110486797Y-123631685D01*
X110428701Y-123440172D01*
X110414000Y-123290906D01*
X110414000Y-122429095D01*
X110428701Y-122279829D01*
X110486797Y-122088314D01*
X110581139Y-121911811D01*
X110708104Y-121757104D01*
X110862810Y-121630139D01*
X111039313Y-121535797D01*
X111230828Y-121477701D01*
X111430000Y-121458085D01*
X111629171Y-121477701D01*
X111629171Y-121477701D01*
G37*
G36*
X104009171Y-121477701D02*
X104200686Y-121535797D01*
X104377189Y-121630139D01*
X104531896Y-121757104D01*
X104658861Y-121911810D01*
X104753203Y-122088313D01*
X104811299Y-122279828D01*
X104826000Y-122429094D01*
X104826000Y-123290905D01*
X104811299Y-123440166D01*
X104811298Y-123440169D01*
X104811298Y-123440170D01*
X104753203Y-123631685D01*
X104753200Y-123631692D01*
X104658861Y-123808190D01*
X104531896Y-123962896D01*
X104377190Y-124089861D01*
X104200687Y-124184203D01*
X104009172Y-124242299D01*
X103810000Y-124261915D01*
X103610829Y-124242299D01*
X103419314Y-124184203D01*
X103242811Y-124089861D01*
X103088105Y-123962896D01*
X102961142Y-123808191D01*
X102866797Y-123631685D01*
X102808701Y-123440172D01*
X102794000Y-123290906D01*
X102794000Y-122429095D01*
X102808701Y-122279829D01*
X102866797Y-122088314D01*
X102961139Y-121911811D01*
X103088104Y-121757104D01*
X103242810Y-121630139D01*
X103419313Y-121535797D01*
X103610828Y-121477701D01*
X103810000Y-121458085D01*
X104009171Y-121477701D01*
X104009171Y-121477701D01*
G37*
G36*
X88769171Y-121477701D02*
X88960686Y-121535797D01*
X89137189Y-121630139D01*
X89291896Y-121757104D01*
X89418861Y-121911810D01*
X89513203Y-122088313D01*
X89571299Y-122279828D01*
X89586000Y-122429094D01*
X89586000Y-123290905D01*
X89571299Y-123440166D01*
X89571298Y-123440169D01*
X89571298Y-123440170D01*
X89513203Y-123631685D01*
X89513200Y-123631692D01*
X89418861Y-123808190D01*
X89291896Y-123962896D01*
X89137190Y-124089861D01*
X88960687Y-124184203D01*
X88769172Y-124242299D01*
X88570000Y-124261915D01*
X88370829Y-124242299D01*
X88179314Y-124184203D01*
X88002811Y-124089861D01*
X87848105Y-123962896D01*
X87721142Y-123808191D01*
X87626797Y-123631685D01*
X87568701Y-123440172D01*
X87554000Y-123290906D01*
X87554000Y-122429095D01*
X87568701Y-122279829D01*
X87626797Y-122088314D01*
X87721139Y-121911811D01*
X87848104Y-121757104D01*
X88002810Y-121630139D01*
X88179313Y-121535797D01*
X88370828Y-121477701D01*
X88570000Y-121458085D01*
X88769171Y-121477701D01*
X88769171Y-121477701D01*
G37*
G36*
X91309171Y-121477701D02*
X91500686Y-121535797D01*
X91677189Y-121630139D01*
X91831896Y-121757104D01*
X91958861Y-121911810D01*
X92053203Y-122088313D01*
X92111299Y-122279828D01*
X92126000Y-122429094D01*
X92126000Y-123290905D01*
X92111299Y-123440166D01*
X92111298Y-123440169D01*
X92111298Y-123440170D01*
X92053203Y-123631685D01*
X92053200Y-123631692D01*
X91958861Y-123808190D01*
X91831896Y-123962896D01*
X91677190Y-124089861D01*
X91500687Y-124184203D01*
X91309172Y-124242299D01*
X91110000Y-124261915D01*
X90910829Y-124242299D01*
X90719314Y-124184203D01*
X90542811Y-124089861D01*
X90388105Y-123962896D01*
X90261142Y-123808191D01*
X90166797Y-123631685D01*
X90108701Y-123440172D01*
X90094000Y-123290906D01*
X90094000Y-122429095D01*
X90108701Y-122279829D01*
X90166797Y-122088314D01*
X90261139Y-121911811D01*
X90388104Y-121757104D01*
X90542810Y-121630139D01*
X90719313Y-121535797D01*
X90910828Y-121477701D01*
X91110000Y-121458085D01*
X91309171Y-121477701D01*
X91309171Y-121477701D01*
G37*
G36*
X93849171Y-121477701D02*
X94040686Y-121535797D01*
X94217189Y-121630139D01*
X94371896Y-121757104D01*
X94498861Y-121911810D01*
X94593203Y-122088313D01*
X94651299Y-122279828D01*
X94666000Y-122429094D01*
X94666000Y-123290905D01*
X94651299Y-123440166D01*
X94651298Y-123440169D01*
X94651298Y-123440170D01*
X94593203Y-123631685D01*
X94593200Y-123631692D01*
X94498861Y-123808190D01*
X94371896Y-123962896D01*
X94217190Y-124089861D01*
X94040687Y-124184203D01*
X93849172Y-124242299D01*
X93650000Y-124261915D01*
X93450829Y-124242299D01*
X93259314Y-124184203D01*
X93082811Y-124089861D01*
X92928105Y-123962896D01*
X92801142Y-123808191D01*
X92706797Y-123631685D01*
X92648701Y-123440172D01*
X92634000Y-123290906D01*
X92634000Y-122429095D01*
X92648701Y-122279829D01*
X92706797Y-122088314D01*
X92801139Y-121911811D01*
X92928104Y-121757104D01*
X93082810Y-121630139D01*
X93259313Y-121535797D01*
X93450828Y-121477701D01*
X93650000Y-121458085D01*
X93849171Y-121477701D01*
X93849171Y-121477701D01*
G37*
G36*
X98929171Y-121477701D02*
X99120686Y-121535797D01*
X99297189Y-121630139D01*
X99451896Y-121757104D01*
X99578861Y-121911810D01*
X99673203Y-122088313D01*
X99731299Y-122279828D01*
X99746000Y-122429094D01*
X99746000Y-123290905D01*
X99731299Y-123440166D01*
X99731298Y-123440169D01*
X99731298Y-123440170D01*
X99673203Y-123631685D01*
X99673200Y-123631692D01*
X99578861Y-123808190D01*
X99451896Y-123962896D01*
X99297190Y-124089861D01*
X99120687Y-124184203D01*
X98929172Y-124242299D01*
X98730000Y-124261915D01*
X98530829Y-124242299D01*
X98339314Y-124184203D01*
X98162811Y-124089861D01*
X98008105Y-123962896D01*
X97881142Y-123808191D01*
X97786797Y-123631685D01*
X97728701Y-123440172D01*
X97714000Y-123290906D01*
X97714000Y-122429095D01*
X97728701Y-122279829D01*
X97786797Y-122088314D01*
X97881139Y-121911811D01*
X98008104Y-121757104D01*
X98162810Y-121630139D01*
X98339313Y-121535797D01*
X98530828Y-121477701D01*
X98730000Y-121458085D01*
X98929171Y-121477701D01*
X98929171Y-121477701D01*
G37*
G36*
X109089171Y-121477701D02*
X109280686Y-121535797D01*
X109457189Y-121630139D01*
X109611896Y-121757104D01*
X109738861Y-121911810D01*
X109833203Y-122088313D01*
X109891299Y-122279828D01*
X109906000Y-122429094D01*
X109906000Y-123290905D01*
X109891299Y-123440166D01*
X109891298Y-123440169D01*
X109891298Y-123440170D01*
X109833203Y-123631685D01*
X109833200Y-123631692D01*
X109738861Y-123808190D01*
X109611896Y-123962896D01*
X109457190Y-124089861D01*
X109280687Y-124184203D01*
X109089172Y-124242299D01*
X108890000Y-124261915D01*
X108690829Y-124242299D01*
X108499314Y-124184203D01*
X108322811Y-124089861D01*
X108168105Y-123962896D01*
X108041142Y-123808191D01*
X107946797Y-123631685D01*
X107888701Y-123440172D01*
X107874000Y-123290906D01*
X107874000Y-122429095D01*
X107888701Y-122279829D01*
X107946797Y-122088314D01*
X108041139Y-121911811D01*
X108168104Y-121757104D01*
X108322810Y-121630139D01*
X108499313Y-121535797D01*
X108690828Y-121477701D01*
X108890000Y-121458085D01*
X109089171Y-121477701D01*
X109089171Y-121477701D01*
G37*
G36*
X106549171Y-121477701D02*
X106740686Y-121535797D01*
X106917189Y-121630139D01*
X107071896Y-121757104D01*
X107198861Y-121911810D01*
X107293203Y-122088313D01*
X107351299Y-122279828D01*
X107366000Y-122429094D01*
X107366000Y-123290905D01*
X107351299Y-123440166D01*
X107351298Y-123440169D01*
X107351298Y-123440170D01*
X107293203Y-123631685D01*
X107293200Y-123631692D01*
X107198861Y-123808190D01*
X107071896Y-123962896D01*
X106917190Y-124089861D01*
X106740687Y-124184203D01*
X106549172Y-124242299D01*
X106350000Y-124261915D01*
X106150829Y-124242299D01*
X105959314Y-124184203D01*
X105782811Y-124089861D01*
X105628105Y-123962896D01*
X105501142Y-123808191D01*
X105406797Y-123631685D01*
X105348701Y-123440172D01*
X105334000Y-123290906D01*
X105334000Y-122429095D01*
X105348701Y-122279829D01*
X105406797Y-122088314D01*
X105501139Y-121911811D01*
X105628104Y-121757104D01*
X105782810Y-121630139D01*
X105959313Y-121535797D01*
X106150828Y-121477701D01*
X106350000Y-121458085D01*
X106549171Y-121477701D01*
X106549171Y-121477701D01*
G37*
G36*
X101469171Y-121477701D02*
X101660686Y-121535797D01*
X101837189Y-121630139D01*
X101991896Y-121757104D01*
X102118861Y-121911810D01*
X102213203Y-122088313D01*
X102271299Y-122279828D01*
X102286000Y-122429094D01*
X102286000Y-123290905D01*
X102271299Y-123440166D01*
X102271298Y-123440169D01*
X102271298Y-123440170D01*
X102213203Y-123631685D01*
X102213200Y-123631692D01*
X102118861Y-123808190D01*
X101991896Y-123962896D01*
X101837190Y-124089861D01*
X101660687Y-124184203D01*
X101469172Y-124242299D01*
X101270000Y-124261915D01*
X101070829Y-124242299D01*
X100879314Y-124184203D01*
X100702811Y-124089861D01*
X100548105Y-123962896D01*
X100421142Y-123808191D01*
X100326797Y-123631685D01*
X100268701Y-123440172D01*
X100254000Y-123290906D01*
X100254000Y-122429095D01*
X100268701Y-122279829D01*
X100326797Y-122088314D01*
X100421139Y-121911811D01*
X100548104Y-121757104D01*
X100702810Y-121630139D01*
X100879313Y-121535797D01*
X101070828Y-121477701D01*
X101270000Y-121458085D01*
X101469171Y-121477701D01*
X101469171Y-121477701D01*
G37*
G36*
X87046000Y-124257000D02*
X85014000Y-124257000D01*
X85014000Y-121463000D01*
X87046000Y-121463000D01*
X87046000Y-124257000D01*
X87046000Y-124257000D01*
G37*
G36*
X130134000Y-117614000D02*
X127326000Y-117614000D01*
X127326000Y-115406000D01*
X130134000Y-115406000D01*
X130134000Y-117614000D01*
X130134000Y-117614000D01*
G37*
G36*
X72674000Y-117614000D02*
X69866000Y-117614000D01*
X69866000Y-115406000D01*
X72674000Y-115406000D01*
X72674000Y-117614000D01*
X72674000Y-117614000D01*
G37*
G36*
X87054000Y-116134000D02*
X84546000Y-116134000D01*
X84546000Y-104866000D01*
X87054000Y-104866000D01*
X87054000Y-116134000D01*
X87054000Y-116134000D01*
G37*
G36*
X96454000Y-116134000D02*
X93946000Y-116134000D01*
X93946000Y-104866000D01*
X96454000Y-104866000D01*
X96454000Y-116134000D01*
X96454000Y-116134000D01*
G37*
G36*
X129246423Y-112881974D02*
X129454526Y-112945102D01*
X129646313Y-113047614D01*
X129814423Y-113185577D01*
X129952386Y-113353687D01*
X130054898Y-113545474D01*
X130118026Y-113753577D01*
X130139341Y-113970000D01*
X130118026Y-114186423D01*
X130054898Y-114394526D01*
X129952386Y-114586313D01*
X129814423Y-114754423D01*
X129646313Y-114892386D01*
X129454526Y-114994898D01*
X129246423Y-115058026D01*
X129084231Y-115074000D01*
X128375769Y-115074000D01*
X128213577Y-115058026D01*
X128005474Y-114994898D01*
X127813687Y-114892386D01*
X127645577Y-114754423D01*
X127507614Y-114586313D01*
X127405102Y-114394526D01*
X127341974Y-114186423D01*
X127320659Y-113970000D01*
X127341974Y-113753577D01*
X127405102Y-113545474D01*
X127507614Y-113353687D01*
X127645577Y-113185577D01*
X127813687Y-113047614D01*
X128005474Y-112945102D01*
X128213577Y-112881974D01*
X128375769Y-112866000D01*
X129084231Y-112866000D01*
X129246423Y-112881974D01*
X129246423Y-112881974D01*
G37*
G36*
X71786423Y-112881974D02*
X71994526Y-112945102D01*
X72186313Y-113047614D01*
X72354423Y-113185577D01*
X72492386Y-113353687D01*
X72594898Y-113545474D01*
X72658026Y-113753577D01*
X72679341Y-113970000D01*
X72658026Y-114186423D01*
X72594898Y-114394526D01*
X72492386Y-114586313D01*
X72354423Y-114754423D01*
X72186313Y-114892386D01*
X71994526Y-114994898D01*
X71786423Y-115058026D01*
X71624231Y-115074000D01*
X70915769Y-115074000D01*
X70753577Y-115058026D01*
X70545474Y-114994898D01*
X70353687Y-114892386D01*
X70185577Y-114754423D01*
X70047614Y-114586313D01*
X69945102Y-114394526D01*
X69881974Y-114186423D01*
X69860659Y-113970000D01*
X69881974Y-113753577D01*
X69945102Y-113545474D01*
X70047614Y-113353687D01*
X70185577Y-113185577D01*
X70353687Y-113047614D01*
X70545474Y-112945102D01*
X70753577Y-112881974D01*
X70915769Y-112866000D01*
X71624231Y-112866000D01*
X71786423Y-112881974D01*
X71786423Y-112881974D01*
G37*
G36*
X116754000Y-114214000D02*
X114246000Y-114214000D01*
X114246000Y-99136000D01*
X116754000Y-99136000D01*
X116754000Y-114214000D01*
X116754000Y-114214000D01*
G37*
G36*
X107354000Y-114214000D02*
X104846000Y-114214000D01*
X104846000Y-99136000D01*
X107354000Y-99136000D01*
X107354000Y-114214000D01*
X107354000Y-114214000D01*
G37*
G36*
X129246423Y-110341974D02*
X129454526Y-110405102D01*
X129646313Y-110507614D01*
X129814423Y-110645577D01*
X129952386Y-110813687D01*
X130054898Y-111005474D01*
X130118026Y-111213577D01*
X130139341Y-111430000D01*
X130118026Y-111646423D01*
X130054898Y-111854526D01*
X129952386Y-112046313D01*
X129814423Y-112214423D01*
X129646313Y-112352386D01*
X129454526Y-112454898D01*
X129246423Y-112518026D01*
X129084231Y-112534000D01*
X128375769Y-112534000D01*
X128213577Y-112518026D01*
X128005474Y-112454898D01*
X127813687Y-112352386D01*
X127645577Y-112214423D01*
X127507614Y-112046313D01*
X127405102Y-111854526D01*
X127341974Y-111646423D01*
X127320659Y-111430000D01*
X127341974Y-111213577D01*
X127405102Y-111005474D01*
X127507614Y-110813687D01*
X127645577Y-110645577D01*
X127813687Y-110507614D01*
X128005474Y-110405102D01*
X128213577Y-110341974D01*
X128375769Y-110326000D01*
X129084231Y-110326000D01*
X129246423Y-110341974D01*
X129246423Y-110341974D01*
G37*
G36*
X71786423Y-110341974D02*
X71994526Y-110405102D01*
X72186313Y-110507614D01*
X72354423Y-110645577D01*
X72492386Y-110813687D01*
X72594898Y-111005474D01*
X72658026Y-111213577D01*
X72679341Y-111430000D01*
X72658026Y-111646423D01*
X72594898Y-111854526D01*
X72492386Y-112046313D01*
X72354423Y-112214423D01*
X72186313Y-112352386D01*
X71994526Y-112454898D01*
X71786423Y-112518026D01*
X71624231Y-112534000D01*
X70915769Y-112534000D01*
X70753577Y-112518026D01*
X70545474Y-112454898D01*
X70353687Y-112352386D01*
X70185577Y-112214423D01*
X70047614Y-112046313D01*
X69945102Y-111854526D01*
X69881974Y-111646423D01*
X69860659Y-111430000D01*
X69881974Y-111213577D01*
X69945102Y-111005474D01*
X70047614Y-110813687D01*
X70185577Y-110645577D01*
X70353687Y-110507614D01*
X70545474Y-110405102D01*
X70753577Y-110341974D01*
X70915769Y-110326000D01*
X71624231Y-110326000D01*
X71786423Y-110341974D01*
X71786423Y-110341974D01*
G37*
G36*
X129246423Y-107801974D02*
X129454526Y-107865102D01*
X129646313Y-107967614D01*
X129814423Y-108105577D01*
X129952386Y-108273687D01*
X130054898Y-108465474D01*
X130118026Y-108673577D01*
X130139341Y-108890000D01*
X130118026Y-109106423D01*
X130054898Y-109314526D01*
X129952386Y-109506313D01*
X129814423Y-109674423D01*
X129646313Y-109812386D01*
X129454526Y-109914898D01*
X129246423Y-109978026D01*
X129084231Y-109994000D01*
X128375769Y-109994000D01*
X128213577Y-109978026D01*
X128005474Y-109914898D01*
X127813687Y-109812386D01*
X127645577Y-109674423D01*
X127507614Y-109506313D01*
X127405102Y-109314526D01*
X127341974Y-109106423D01*
X127320659Y-108890000D01*
X127341974Y-108673577D01*
X127405102Y-108465474D01*
X127507614Y-108273687D01*
X127645577Y-108105577D01*
X127813687Y-107967614D01*
X128005474Y-107865102D01*
X128213577Y-107801974D01*
X128375769Y-107786000D01*
X129084231Y-107786000D01*
X129246423Y-107801974D01*
X129246423Y-107801974D01*
G37*
G36*
X71786423Y-107801974D02*
X71994526Y-107865102D01*
X72186313Y-107967614D01*
X72354423Y-108105577D01*
X72492386Y-108273687D01*
X72594898Y-108465474D01*
X72658026Y-108673577D01*
X72679341Y-108890000D01*
X72658026Y-109106423D01*
X72594898Y-109314526D01*
X72492386Y-109506313D01*
X72354423Y-109674423D01*
X72186313Y-109812386D01*
X71994526Y-109914898D01*
X71786423Y-109978026D01*
X71624231Y-109994000D01*
X70915769Y-109994000D01*
X70753577Y-109978026D01*
X70545474Y-109914898D01*
X70353687Y-109812386D01*
X70185577Y-109674423D01*
X70047614Y-109506313D01*
X69945102Y-109314526D01*
X69881974Y-109106423D01*
X69860659Y-108890000D01*
X69881974Y-108673577D01*
X69945102Y-108465474D01*
X70047614Y-108273687D01*
X70185577Y-108105577D01*
X70353687Y-107967614D01*
X70545474Y-107865102D01*
X70753577Y-107801974D01*
X70915769Y-107786000D01*
X71624231Y-107786000D01*
X71786423Y-107801974D01*
X71786423Y-107801974D01*
G37*
G36*
X79406423Y-104961974D02*
X79614526Y-105025102D01*
X79806313Y-105127614D01*
X79806316Y-105127616D01*
X79806317Y-105127617D01*
X79974423Y-105265577D01*
X80023274Y-105325102D01*
X80112386Y-105433687D01*
X80214895Y-105625469D01*
X80214897Y-105625474D01*
X80214897Y-105625475D01*
X80278025Y-105833578D01*
X80278026Y-105833583D01*
X80294000Y-105995770D01*
X80294000Y-106704231D01*
X80278026Y-106866423D01*
X80214898Y-107074526D01*
X80112386Y-107266313D01*
X80112384Y-107266316D01*
X80112383Y-107266317D01*
X79974423Y-107434423D01*
X79806317Y-107572383D01*
X79806313Y-107572385D01*
X79806312Y-107572386D01*
X79614525Y-107674898D01*
X79406422Y-107738026D01*
X79190000Y-107759341D01*
X78973577Y-107738026D01*
X78765474Y-107674898D01*
X78573687Y-107572386D01*
X78405577Y-107434423D01*
X78382251Y-107406000D01*
X78267617Y-107266317D01*
X78255688Y-107244000D01*
X78165102Y-107074525D01*
X78101974Y-106866422D01*
X78086000Y-106704230D01*
X78086000Y-105995769D01*
X78101974Y-105833577D01*
X78165102Y-105625476D01*
X78267617Y-105433685D01*
X78267618Y-105433683D01*
X78405578Y-105265577D01*
X78573684Y-105127617D01*
X78573685Y-105127616D01*
X78573688Y-105127614D01*
X78765475Y-105025102D01*
X78973578Y-104961974D01*
X79190000Y-104940659D01*
X79406423Y-104961974D01*
X79406423Y-104961974D01*
G37*
G36*
X77754000Y-107754000D02*
X75546000Y-107754000D01*
X75546000Y-104946000D01*
X77754000Y-104946000D01*
X77754000Y-107754000D01*
X77754000Y-107754000D01*
G37*
G36*
X71786423Y-105261974D02*
X71994526Y-105325102D01*
X72186313Y-105427614D01*
X72354423Y-105565577D01*
X72492386Y-105733687D01*
X72594898Y-105925474D01*
X72658026Y-106133577D01*
X72679341Y-106350000D01*
X72658026Y-106566423D01*
X72594898Y-106774526D01*
X72492386Y-106966313D01*
X72492384Y-106966316D01*
X72492383Y-106966317D01*
X72354423Y-107134423D01*
X72193715Y-107266312D01*
X72186313Y-107272386D01*
X71994526Y-107374898D01*
X71786423Y-107438026D01*
X71624231Y-107454000D01*
X70915769Y-107454000D01*
X70753577Y-107438026D01*
X70545474Y-107374898D01*
X70353687Y-107272386D01*
X70346286Y-107266312D01*
X70185577Y-107134423D01*
X70047617Y-106966317D01*
X70047616Y-106966316D01*
X70047614Y-106966313D01*
X69945102Y-106774526D01*
X69881974Y-106566423D01*
X69860659Y-106350000D01*
X69881974Y-106133577D01*
X69945102Y-105925474D01*
X70047614Y-105733687D01*
X70185577Y-105565577D01*
X70353687Y-105427614D01*
X70545474Y-105325102D01*
X70753577Y-105261974D01*
X70915769Y-105246000D01*
X71624231Y-105246000D01*
X71786423Y-105261974D01*
X71786423Y-105261974D01*
G37*
G36*
X129246423Y-105261974D02*
X129454526Y-105325102D01*
X129646313Y-105427614D01*
X129814423Y-105565577D01*
X129952386Y-105733687D01*
X130054898Y-105925474D01*
X130118026Y-106133577D01*
X130139341Y-106350000D01*
X130118026Y-106566423D01*
X130054898Y-106774526D01*
X129952386Y-106966313D01*
X129952384Y-106966316D01*
X129952383Y-106966317D01*
X129814423Y-107134423D01*
X129653715Y-107266312D01*
X129646313Y-107272386D01*
X129454526Y-107374898D01*
X129246423Y-107438026D01*
X129084231Y-107454000D01*
X128375769Y-107454000D01*
X128213577Y-107438026D01*
X128005474Y-107374898D01*
X127813687Y-107272386D01*
X127806286Y-107266312D01*
X127645577Y-107134423D01*
X127507617Y-106966317D01*
X127507616Y-106966316D01*
X127507614Y-106966313D01*
X127405102Y-106774526D01*
X127341974Y-106566423D01*
X127320659Y-106350000D01*
X127341974Y-106133577D01*
X127405102Y-105925474D01*
X127507614Y-105733687D01*
X127645577Y-105565577D01*
X127813687Y-105427614D01*
X128005474Y-105325102D01*
X128213577Y-105261974D01*
X128375769Y-105246000D01*
X129084231Y-105246000D01*
X129246423Y-105261974D01*
X129246423Y-105261974D01*
G37*
G36*
X82246423Y-102731974D02*
X82454526Y-102795102D01*
X82646313Y-102897614D01*
X82646316Y-102897616D01*
X82646317Y-102897617D01*
X82814423Y-103035577D01*
X82923078Y-103167974D01*
X82952386Y-103203687D01*
X83054898Y-103395474D01*
X83118026Y-103603577D01*
X83139341Y-103820000D01*
X83118026Y-104036423D01*
X83054898Y-104244526D01*
X82952386Y-104436313D01*
X82814423Y-104604423D01*
X82646313Y-104742386D01*
X82454526Y-104844898D01*
X82246423Y-104908026D01*
X82084231Y-104924000D01*
X81375769Y-104924000D01*
X81213577Y-104908026D01*
X81005474Y-104844898D01*
X80813687Y-104742386D01*
X80645577Y-104604423D01*
X80507614Y-104436313D01*
X80405102Y-104244526D01*
X80341974Y-104036423D01*
X80320659Y-103820000D01*
X80341974Y-103603577D01*
X80405102Y-103395474D01*
X80507614Y-103203687D01*
X80536923Y-103167974D01*
X80645577Y-103035577D01*
X80813683Y-102897617D01*
X80813684Y-102897616D01*
X80813687Y-102897614D01*
X81005474Y-102795102D01*
X81213577Y-102731974D01*
X81375769Y-102716000D01*
X82084231Y-102716000D01*
X82246423Y-102731974D01*
X82246423Y-102731974D01*
G37*
G36*
X127572811Y-102756909D02*
X127714939Y-102800024D01*
X127845927Y-102870038D01*
X127960738Y-102964262D01*
X128054962Y-103079073D01*
X128124976Y-103210061D01*
X128168091Y-103352189D01*
X128182648Y-103500000D01*
X128168091Y-103647811D01*
X128124976Y-103789939D01*
X128054962Y-103920927D01*
X127960738Y-104035738D01*
X127845927Y-104129962D01*
X127714939Y-104199976D01*
X127572811Y-104243091D01*
X127462043Y-104254000D01*
X126837957Y-104254000D01*
X126727189Y-104243091D01*
X126585061Y-104199976D01*
X126454073Y-104129962D01*
X126339262Y-104035738D01*
X126245038Y-103920927D01*
X126175024Y-103789939D01*
X126131909Y-103647811D01*
X126117352Y-103500000D01*
X126131909Y-103352189D01*
X126175024Y-103210061D01*
X126245038Y-103079073D01*
X126339262Y-102964262D01*
X126454073Y-102870038D01*
X126585061Y-102800024D01*
X126727189Y-102756909D01*
X126837957Y-102746000D01*
X127462043Y-102746000D01*
X127572811Y-102756909D01*
X127572811Y-102756909D01*
G37*
G36*
X74804390Y-104052570D02*
X70595610Y-104052570D01*
X70595610Y-101845310D01*
X74804390Y-101845310D01*
X74804390Y-104052570D01*
X74804390Y-104052570D01*
G37*
G36*
X124592909Y-101631548D02*
X124684520Y-101659338D01*
X124730327Y-101673233D01*
X124856972Y-101740927D01*
X124967975Y-101832025D01*
X125059073Y-101943028D01*
X125126767Y-102069673D01*
X125126767Y-102069674D01*
X125168452Y-102207092D01*
X125179000Y-102314190D01*
X125179000Y-102685811D01*
X125168452Y-102792909D01*
X125166293Y-102800025D01*
X125126767Y-102930327D01*
X125059073Y-103056972D01*
X124967975Y-103167975D01*
X124856972Y-103259073D01*
X124730326Y-103326767D01*
X124684519Y-103340662D01*
X124592908Y-103368452D01*
X124450000Y-103382527D01*
X124307091Y-103368452D01*
X124215480Y-103340662D01*
X124169673Y-103326767D01*
X124043028Y-103259073D01*
X123932025Y-103167975D01*
X123840927Y-103056972D01*
X123773233Y-102930326D01*
X123759338Y-102884519D01*
X123731548Y-102792908D01*
X123721000Y-102685810D01*
X123721000Y-102314189D01*
X123731548Y-102207091D01*
X123773233Y-102069674D01*
X123773233Y-102069673D01*
X123840927Y-101943028D01*
X123932025Y-101832025D01*
X124043028Y-101740927D01*
X124169674Y-101673233D01*
X124215481Y-101659338D01*
X124307092Y-101631548D01*
X124450000Y-101617473D01*
X124592909Y-101631548D01*
X124592909Y-101631548D01*
G37*
G36*
X82246423Y-100191974D02*
X82454526Y-100255102D01*
X82646313Y-100357614D01*
X82814423Y-100495577D01*
X82952386Y-100663687D01*
X83054898Y-100855474D01*
X83118026Y-101063577D01*
X83139341Y-101280000D01*
X83118026Y-101496423D01*
X83054898Y-101704526D01*
X82952386Y-101896313D01*
X82952384Y-101896316D01*
X82952383Y-101896317D01*
X82914047Y-101943030D01*
X82814423Y-102064423D01*
X82646313Y-102202386D01*
X82454526Y-102304898D01*
X82246423Y-102368026D01*
X82084231Y-102384000D01*
X81375769Y-102384000D01*
X81213577Y-102368026D01*
X81005474Y-102304898D01*
X80813687Y-102202386D01*
X80645577Y-102064423D01*
X80545953Y-101943030D01*
X80507617Y-101896317D01*
X80507616Y-101896316D01*
X80507614Y-101896313D01*
X80405102Y-101704526D01*
X80341974Y-101496423D01*
X80320659Y-101280000D01*
X80341974Y-101063577D01*
X80405102Y-100855474D01*
X80507614Y-100663687D01*
X80645577Y-100495577D01*
X80813687Y-100357614D01*
X81005474Y-100255102D01*
X81213577Y-100191974D01*
X81375769Y-100176000D01*
X82084231Y-100176000D01*
X82246423Y-100191974D01*
X82246423Y-100191974D01*
G37*
G36*
X82246423Y-97651974D02*
X82454526Y-97715102D01*
X82646313Y-97817614D01*
X82646316Y-97817616D01*
X82646317Y-97817617D01*
X82814423Y-97955577D01*
X82897633Y-98056969D01*
X82952386Y-98123687D01*
X83054898Y-98315474D01*
X83118026Y-98523577D01*
X83139341Y-98740000D01*
X83118026Y-98956423D01*
X83054898Y-99164526D01*
X82952386Y-99356313D01*
X82814423Y-99524423D01*
X82646313Y-99662386D01*
X82454526Y-99764898D01*
X82246423Y-99828026D01*
X82084231Y-99844000D01*
X81375769Y-99844000D01*
X81213577Y-99828026D01*
X81005474Y-99764898D01*
X80813687Y-99662386D01*
X80645577Y-99524423D01*
X80507614Y-99356313D01*
X80405102Y-99164526D01*
X80341974Y-98956423D01*
X80320659Y-98740000D01*
X80341974Y-98523577D01*
X80405102Y-98315474D01*
X80507614Y-98123687D01*
X80562368Y-98056969D01*
X80645577Y-97955577D01*
X80813683Y-97817617D01*
X80813684Y-97817616D01*
X80813687Y-97817614D01*
X81005474Y-97715102D01*
X81213577Y-97651974D01*
X81375769Y-97636000D01*
X82084231Y-97636000D01*
X82246423Y-97651974D01*
X82246423Y-97651974D01*
G37*
G36*
X124592909Y-96631548D02*
X124684520Y-96659338D01*
X124730327Y-96673233D01*
X124856972Y-96740927D01*
X124967975Y-96832025D01*
X125059073Y-96943028D01*
X125126767Y-97069673D01*
X125126767Y-97069674D01*
X125168452Y-97207092D01*
X125179000Y-97314190D01*
X125179000Y-97685811D01*
X125168452Y-97792909D01*
X125140662Y-97884520D01*
X125126767Y-97930327D01*
X125059073Y-98056972D01*
X124967975Y-98167975D01*
X124856972Y-98259073D01*
X124730326Y-98326767D01*
X124684519Y-98340662D01*
X124592908Y-98368452D01*
X124450000Y-98382527D01*
X124307091Y-98368452D01*
X124215480Y-98340662D01*
X124169673Y-98326767D01*
X124043028Y-98259073D01*
X123932025Y-98167975D01*
X123840927Y-98056972D01*
X123773233Y-97930326D01*
X123759338Y-97884519D01*
X123731548Y-97792908D01*
X123721000Y-97685810D01*
X123721000Y-97314189D01*
X123722004Y-97304000D01*
X123728002Y-97243091D01*
X123731548Y-97207091D01*
X123773233Y-97069674D01*
X123773233Y-97069673D01*
X123840927Y-96943028D01*
X123932025Y-96832025D01*
X124043028Y-96740927D01*
X124169674Y-96673233D01*
X124215481Y-96659338D01*
X124307092Y-96631548D01*
X124450000Y-96617473D01*
X124592909Y-96631548D01*
X124592909Y-96631548D01*
G37*
G36*
X74804390Y-98154690D02*
X70595610Y-98154690D01*
X70595610Y-95947430D01*
X74804390Y-95947430D01*
X74804390Y-98154690D01*
X74804390Y-98154690D01*
G37*
G36*
X83134000Y-97304000D02*
X80326000Y-97304000D01*
X80326000Y-95096000D01*
X83134000Y-95096000D01*
X83134000Y-97304000D01*
X83134000Y-97304000D01*
G37*
G36*
X127572811Y-95756909D02*
X127714939Y-95800024D01*
X127845927Y-95870038D01*
X127960738Y-95964262D01*
X128054962Y-96079073D01*
X128124976Y-96210061D01*
X128168091Y-96352189D01*
X128182648Y-96500000D01*
X128168091Y-96647811D01*
X128124976Y-96789939D01*
X128054962Y-96920927D01*
X127960738Y-97035738D01*
X127845927Y-97129962D01*
X127714939Y-97199976D01*
X127572811Y-97243091D01*
X127462043Y-97254000D01*
X126837957Y-97254000D01*
X126727189Y-97243091D01*
X126585061Y-97199976D01*
X126454073Y-97129962D01*
X126339262Y-97035738D01*
X126245038Y-96920927D01*
X126175024Y-96789939D01*
X126131909Y-96647811D01*
X126117352Y-96500000D01*
X126131909Y-96352189D01*
X126175024Y-96210061D01*
X126245038Y-96079073D01*
X126339262Y-95964262D01*
X126454073Y-95870038D01*
X126585061Y-95800024D01*
X126727189Y-95756909D01*
X126837957Y-95746000D01*
X127462043Y-95746000D01*
X127572811Y-95756909D01*
X127572811Y-95756909D01*
G37*
G36*
X71786423Y-92561974D02*
X71994526Y-92625102D01*
X72186313Y-92727614D01*
X72354423Y-92865577D01*
X72492386Y-93033687D01*
X72594898Y-93225474D01*
X72658026Y-93433577D01*
X72679341Y-93650000D01*
X72658026Y-93866423D01*
X72594898Y-94074526D01*
X72492386Y-94266313D01*
X72354423Y-94434423D01*
X72186313Y-94572386D01*
X71994526Y-94674898D01*
X71786423Y-94738026D01*
X71624231Y-94754000D01*
X70915769Y-94754000D01*
X70753577Y-94738026D01*
X70545474Y-94674898D01*
X70353687Y-94572386D01*
X70185577Y-94434423D01*
X70047614Y-94266313D01*
X69945102Y-94074526D01*
X69881974Y-93866423D01*
X69860659Y-93650000D01*
X69881974Y-93433577D01*
X69945102Y-93225474D01*
X70047614Y-93033687D01*
X70185577Y-92865577D01*
X70353687Y-92727614D01*
X70545474Y-92625102D01*
X70753577Y-92561974D01*
X70915769Y-92546000D01*
X71624231Y-92546000D01*
X71786423Y-92561974D01*
X71786423Y-92561974D01*
G37*
G36*
X129246423Y-92561974D02*
X129454526Y-92625102D01*
X129646313Y-92727614D01*
X129814423Y-92865577D01*
X129952386Y-93033687D01*
X130054898Y-93225474D01*
X130118026Y-93433577D01*
X130139341Y-93650000D01*
X130118026Y-93866423D01*
X130054898Y-94074526D01*
X129952386Y-94266313D01*
X129814423Y-94434423D01*
X129646313Y-94572386D01*
X129454526Y-94674898D01*
X129246423Y-94738026D01*
X129084231Y-94754000D01*
X128375769Y-94754000D01*
X128213577Y-94738026D01*
X128005474Y-94674898D01*
X127813687Y-94572386D01*
X127645577Y-94434423D01*
X127507614Y-94266313D01*
X127405102Y-94074526D01*
X127341974Y-93866423D01*
X127320659Y-93650000D01*
X127341974Y-93433577D01*
X127405102Y-93225474D01*
X127507614Y-93033687D01*
X127645577Y-92865577D01*
X127813687Y-92727614D01*
X128005474Y-92625102D01*
X128213577Y-92561974D01*
X128375769Y-92546000D01*
X129084231Y-92546000D01*
X129246423Y-92561974D01*
X129246423Y-92561974D01*
G37*
G36*
X71786423Y-90021974D02*
X71994526Y-90085102D01*
X72186313Y-90187614D01*
X72354423Y-90325577D01*
X72492386Y-90493687D01*
X72594898Y-90685474D01*
X72658026Y-90893577D01*
X72679341Y-91110000D01*
X72658026Y-91326423D01*
X72594898Y-91534526D01*
X72492386Y-91726313D01*
X72354423Y-91894423D01*
X72186313Y-92032386D01*
X71994526Y-92134898D01*
X71786423Y-92198026D01*
X71624231Y-92214000D01*
X70915769Y-92214000D01*
X70753577Y-92198026D01*
X70545474Y-92134898D01*
X70353687Y-92032386D01*
X70185577Y-91894423D01*
X70047614Y-91726313D01*
X69945102Y-91534526D01*
X69881974Y-91326423D01*
X69860659Y-91110000D01*
X69881974Y-90893577D01*
X69945102Y-90685474D01*
X70047614Y-90493687D01*
X70185577Y-90325577D01*
X70353687Y-90187614D01*
X70545474Y-90085102D01*
X70753577Y-90021974D01*
X70915769Y-90006000D01*
X71624231Y-90006000D01*
X71786423Y-90021974D01*
X71786423Y-90021974D01*
G37*
G36*
X129246423Y-90021974D02*
X129454526Y-90085102D01*
X129646313Y-90187614D01*
X129814423Y-90325577D01*
X129952386Y-90493687D01*
X130054898Y-90685474D01*
X130118026Y-90893577D01*
X130139341Y-91110000D01*
X130118026Y-91326423D01*
X130054898Y-91534526D01*
X129952386Y-91726313D01*
X129814423Y-91894423D01*
X129646313Y-92032386D01*
X129454526Y-92134898D01*
X129246423Y-92198026D01*
X129084231Y-92214000D01*
X128375769Y-92214000D01*
X128213577Y-92198026D01*
X128005474Y-92134898D01*
X127813687Y-92032386D01*
X127645577Y-91894423D01*
X127507614Y-91726313D01*
X127405102Y-91534526D01*
X127341974Y-91326423D01*
X127320659Y-91110000D01*
X127341974Y-90893577D01*
X127405102Y-90685474D01*
X127507614Y-90493687D01*
X127645577Y-90325577D01*
X127813687Y-90187614D01*
X128005474Y-90085102D01*
X128213577Y-90021974D01*
X128375769Y-90006000D01*
X129084231Y-90006000D01*
X129246423Y-90021974D01*
X129246423Y-90021974D01*
G37*
G36*
X129246423Y-87481974D02*
X129454526Y-87545102D01*
X129646313Y-87647614D01*
X129814423Y-87785577D01*
X129952386Y-87953687D01*
X130054898Y-88145474D01*
X130118026Y-88353577D01*
X130139341Y-88570000D01*
X130118026Y-88786423D01*
X130054898Y-88994526D01*
X129952386Y-89186313D01*
X129814423Y-89354423D01*
X129646313Y-89492386D01*
X129454526Y-89594898D01*
X129246423Y-89658026D01*
X129084231Y-89674000D01*
X128375769Y-89674000D01*
X128213577Y-89658026D01*
X128005474Y-89594898D01*
X127813687Y-89492386D01*
X127645577Y-89354423D01*
X127507614Y-89186313D01*
X127405102Y-88994526D01*
X127341974Y-88786423D01*
X127320659Y-88570000D01*
X127341974Y-88353577D01*
X127405102Y-88145474D01*
X127507614Y-87953687D01*
X127645577Y-87785577D01*
X127813687Y-87647614D01*
X128005474Y-87545102D01*
X128213577Y-87481974D01*
X128375769Y-87466000D01*
X129084231Y-87466000D01*
X129246423Y-87481974D01*
X129246423Y-87481974D01*
G37*
G36*
X71786423Y-87481974D02*
X71994526Y-87545102D01*
X72186313Y-87647614D01*
X72354423Y-87785577D01*
X72492386Y-87953687D01*
X72594898Y-88145474D01*
X72658026Y-88353577D01*
X72679341Y-88570000D01*
X72658026Y-88786423D01*
X72594898Y-88994526D01*
X72492386Y-89186313D01*
X72354423Y-89354423D01*
X72186313Y-89492386D01*
X71994526Y-89594898D01*
X71786423Y-89658026D01*
X71624231Y-89674000D01*
X70915769Y-89674000D01*
X70753577Y-89658026D01*
X70545474Y-89594898D01*
X70353687Y-89492386D01*
X70185577Y-89354423D01*
X70047614Y-89186313D01*
X69945102Y-88994526D01*
X69881974Y-88786423D01*
X69860659Y-88570000D01*
X69881974Y-88353577D01*
X69945102Y-88145474D01*
X70047614Y-87953687D01*
X70185577Y-87785577D01*
X70353687Y-87647614D01*
X70545474Y-87545102D01*
X70753577Y-87481974D01*
X70915769Y-87466000D01*
X71624231Y-87466000D01*
X71786423Y-87481974D01*
X71786423Y-87481974D01*
G37*
G36*
X71786423Y-84941974D02*
X71994526Y-85005102D01*
X72186313Y-85107614D01*
X72354423Y-85245577D01*
X72492386Y-85413687D01*
X72594898Y-85605474D01*
X72658026Y-85813577D01*
X72679341Y-86030000D01*
X72658026Y-86246423D01*
X72594898Y-86454526D01*
X72492386Y-86646313D01*
X72354423Y-86814423D01*
X72186313Y-86952386D01*
X71994526Y-87054898D01*
X71786423Y-87118026D01*
X71624231Y-87134000D01*
X70915769Y-87134000D01*
X70753577Y-87118026D01*
X70545474Y-87054898D01*
X70353687Y-86952386D01*
X70185577Y-86814423D01*
X70047614Y-86646313D01*
X69945102Y-86454526D01*
X69881974Y-86246423D01*
X69860659Y-86030000D01*
X69881974Y-85813577D01*
X69945102Y-85605474D01*
X70047614Y-85413687D01*
X70185577Y-85245577D01*
X70353687Y-85107614D01*
X70545474Y-85005102D01*
X70753577Y-84941974D01*
X70915769Y-84926000D01*
X71624231Y-84926000D01*
X71786423Y-84941974D01*
X71786423Y-84941974D01*
G37*
G36*
X129246423Y-84941974D02*
X129454526Y-85005102D01*
X129646313Y-85107614D01*
X129814423Y-85245577D01*
X129952386Y-85413687D01*
X130054898Y-85605474D01*
X130118026Y-85813577D01*
X130139341Y-86030000D01*
X130118026Y-86246423D01*
X130054898Y-86454526D01*
X129952386Y-86646313D01*
X129814423Y-86814423D01*
X129646313Y-86952386D01*
X129454526Y-87054898D01*
X129246423Y-87118026D01*
X129084231Y-87134000D01*
X128375769Y-87134000D01*
X128213577Y-87118026D01*
X128005474Y-87054898D01*
X127813687Y-86952386D01*
X127645577Y-86814423D01*
X127507614Y-86646313D01*
X127405102Y-86454526D01*
X127341974Y-86246423D01*
X127320659Y-86030000D01*
X127341974Y-85813577D01*
X127405102Y-85605474D01*
X127507614Y-85413687D01*
X127645577Y-85245577D01*
X127813687Y-85107614D01*
X128005474Y-85005102D01*
X128213577Y-84941974D01*
X128375769Y-84926000D01*
X129084231Y-84926000D01*
X129246423Y-84941974D01*
X129246423Y-84941974D01*
G37*
G36*
X130134000Y-84594000D02*
X127326000Y-84594000D01*
X127326000Y-82386000D01*
X130134000Y-82386000D01*
X130134000Y-84594000D01*
X130134000Y-84594000D01*
G37*
G36*
X72674000Y-84594000D02*
X69866000Y-84594000D01*
X69866000Y-82386000D01*
X72674000Y-82386000D01*
X72674000Y-84594000D01*
X72674000Y-84594000D01*
G37*
G36*
X76095001Y-71390264D02*
X76778186Y-71673248D01*
X77393036Y-72084078D01*
X77915922Y-72606964D01*
X78326752Y-73221814D01*
X78609736Y-73904999D01*
X78754000Y-74630263D01*
X78754000Y-75369737D01*
X78609736Y-76095001D01*
X78326752Y-76778186D01*
X77915922Y-77393036D01*
X77393036Y-77915922D01*
X76778186Y-78326752D01*
X76095001Y-78609736D01*
X75369738Y-78754000D01*
X74630262Y-78754000D01*
X73904999Y-78609736D01*
X73221814Y-78326752D01*
X72606964Y-77915922D01*
X72084078Y-77393036D01*
X71673248Y-76778186D01*
X71390264Y-76095001D01*
X71246000Y-75369737D01*
X71246000Y-74630263D01*
X71390264Y-73904999D01*
X71673248Y-73221814D01*
X72084078Y-72606964D01*
X72606964Y-72084078D01*
X73221814Y-71673248D01*
X73904999Y-71390264D01*
X74630262Y-71246000D01*
X75369738Y-71246000D01*
X76095001Y-71390264D01*
X76095001Y-71390264D01*
G37*
G36*
X126095001Y-71390264D02*
X126778186Y-71673248D01*
X127393036Y-72084078D01*
X127915922Y-72606964D01*
X128326752Y-73221814D01*
X128609736Y-73904999D01*
X128754000Y-74630263D01*
X128754000Y-75369737D01*
X128609736Y-76095001D01*
X128326752Y-76778186D01*
X127915922Y-77393036D01*
X127393036Y-77915922D01*
X126778186Y-78326752D01*
X126095001Y-78609736D01*
X125369738Y-78754000D01*
X124630262Y-78754000D01*
X123904999Y-78609736D01*
X123221814Y-78326752D01*
X122606964Y-77915922D01*
X122084078Y-77393036D01*
X121673248Y-76778186D01*
X121390264Y-76095001D01*
X121246000Y-75369737D01*
X121246000Y-74630263D01*
X121390264Y-73904999D01*
X121673248Y-73221814D01*
X122084078Y-72606964D01*
X122606964Y-72084078D01*
X123221814Y-71673248D01*
X123904999Y-71390264D01*
X124630262Y-71246000D01*
X125369738Y-71246000D01*
X126095001Y-71390264D01*
X126095001Y-71390264D01*
G37*
G36*
X106549171Y-75757701D02*
X106740686Y-75815797D01*
X106917189Y-75910139D01*
X107071896Y-76037104D01*
X107198861Y-76191810D01*
X107293203Y-76368313D01*
X107351299Y-76559828D01*
X107366000Y-76709094D01*
X107366000Y-77570905D01*
X107351299Y-77720166D01*
X107351298Y-77720169D01*
X107351298Y-77720170D01*
X107293203Y-77911685D01*
X107293200Y-77911692D01*
X107198861Y-78088190D01*
X107071896Y-78242896D01*
X106917190Y-78369861D01*
X106740687Y-78464203D01*
X106549172Y-78522299D01*
X106350000Y-78541915D01*
X106150829Y-78522299D01*
X105959314Y-78464203D01*
X105782811Y-78369861D01*
X105628105Y-78242896D01*
X105501142Y-78088191D01*
X105406797Y-77911685D01*
X105348701Y-77720172D01*
X105334000Y-77570906D01*
X105334000Y-76709095D01*
X105348701Y-76559829D01*
X105406797Y-76368314D01*
X105501139Y-76191811D01*
X105628104Y-76037104D01*
X105782810Y-75910139D01*
X105959313Y-75815797D01*
X106150828Y-75757701D01*
X106350000Y-75738085D01*
X106549171Y-75757701D01*
X106549171Y-75757701D01*
G37*
G36*
X91309171Y-75757701D02*
X91500686Y-75815797D01*
X91677189Y-75910139D01*
X91831896Y-76037104D01*
X91958861Y-76191810D01*
X92053203Y-76368313D01*
X92111299Y-76559828D01*
X92126000Y-76709094D01*
X92126000Y-77570905D01*
X92111299Y-77720166D01*
X92111298Y-77720169D01*
X92111298Y-77720170D01*
X92053203Y-77911685D01*
X92053200Y-77911692D01*
X91958861Y-78088190D01*
X91831896Y-78242896D01*
X91677190Y-78369861D01*
X91500687Y-78464203D01*
X91309172Y-78522299D01*
X91110000Y-78541915D01*
X90910829Y-78522299D01*
X90719314Y-78464203D01*
X90542811Y-78369861D01*
X90388105Y-78242896D01*
X90261142Y-78088191D01*
X90166797Y-77911685D01*
X90108701Y-77720172D01*
X90094000Y-77570906D01*
X90094000Y-76709095D01*
X90108701Y-76559829D01*
X90166797Y-76368314D01*
X90261139Y-76191811D01*
X90388104Y-76037104D01*
X90542810Y-75910139D01*
X90719313Y-75815797D01*
X90910828Y-75757701D01*
X91110000Y-75738085D01*
X91309171Y-75757701D01*
X91309171Y-75757701D01*
G37*
G36*
X96389171Y-75757701D02*
X96580686Y-75815797D01*
X96757189Y-75910139D01*
X96911896Y-76037104D01*
X97038861Y-76191810D01*
X97133203Y-76368313D01*
X97191299Y-76559828D01*
X97206000Y-76709094D01*
X97206000Y-77570905D01*
X97191299Y-77720166D01*
X97191298Y-77720169D01*
X97191298Y-77720170D01*
X97133203Y-77911685D01*
X97133200Y-77911692D01*
X97038861Y-78088190D01*
X96911896Y-78242896D01*
X96757190Y-78369861D01*
X96580687Y-78464203D01*
X96389172Y-78522299D01*
X96190000Y-78541915D01*
X95990829Y-78522299D01*
X95799314Y-78464203D01*
X95622811Y-78369861D01*
X95468105Y-78242896D01*
X95341142Y-78088191D01*
X95246797Y-77911685D01*
X95188701Y-77720172D01*
X95174000Y-77570906D01*
X95174000Y-76709095D01*
X95188701Y-76559829D01*
X95246797Y-76368314D01*
X95341139Y-76191811D01*
X95468104Y-76037104D01*
X95622810Y-75910139D01*
X95799313Y-75815797D01*
X95990828Y-75757701D01*
X96190000Y-75738085D01*
X96389171Y-75757701D01*
X96389171Y-75757701D01*
G37*
G36*
X93849171Y-75757701D02*
X94040686Y-75815797D01*
X94217189Y-75910139D01*
X94371896Y-76037104D01*
X94498861Y-76191810D01*
X94593203Y-76368313D01*
X94651299Y-76559828D01*
X94666000Y-76709094D01*
X94666000Y-77570905D01*
X94651299Y-77720166D01*
X94651298Y-77720169D01*
X94651298Y-77720170D01*
X94593203Y-77911685D01*
X94593200Y-77911692D01*
X94498861Y-78088190D01*
X94371896Y-78242896D01*
X94217190Y-78369861D01*
X94040687Y-78464203D01*
X93849172Y-78522299D01*
X93650000Y-78541915D01*
X93450829Y-78522299D01*
X93259314Y-78464203D01*
X93082811Y-78369861D01*
X92928105Y-78242896D01*
X92801142Y-78088191D01*
X92706797Y-77911685D01*
X92648701Y-77720172D01*
X92634000Y-77570906D01*
X92634000Y-76709095D01*
X92648701Y-76559829D01*
X92706797Y-76368314D01*
X92801139Y-76191811D01*
X92928104Y-76037104D01*
X93082810Y-75910139D01*
X93259313Y-75815797D01*
X93450828Y-75757701D01*
X93650000Y-75738085D01*
X93849171Y-75757701D01*
X93849171Y-75757701D01*
G37*
G36*
X98929171Y-75757701D02*
X99120686Y-75815797D01*
X99297189Y-75910139D01*
X99451896Y-76037104D01*
X99578861Y-76191810D01*
X99673203Y-76368313D01*
X99731299Y-76559828D01*
X99746000Y-76709094D01*
X99746000Y-77570905D01*
X99731299Y-77720166D01*
X99731298Y-77720169D01*
X99731298Y-77720170D01*
X99673203Y-77911685D01*
X99673200Y-77911692D01*
X99578861Y-78088190D01*
X99451896Y-78242896D01*
X99297190Y-78369861D01*
X99120687Y-78464203D01*
X98929172Y-78522299D01*
X98730000Y-78541915D01*
X98530829Y-78522299D01*
X98339314Y-78464203D01*
X98162811Y-78369861D01*
X98008105Y-78242896D01*
X97881142Y-78088191D01*
X97786797Y-77911685D01*
X97728701Y-77720172D01*
X97714000Y-77570906D01*
X97714000Y-76709095D01*
X97728701Y-76559829D01*
X97786797Y-76368314D01*
X97881139Y-76191811D01*
X98008104Y-76037104D01*
X98162810Y-75910139D01*
X98339313Y-75815797D01*
X98530828Y-75757701D01*
X98730000Y-75738085D01*
X98929171Y-75757701D01*
X98929171Y-75757701D01*
G37*
G36*
X86229171Y-75757701D02*
X86420686Y-75815797D01*
X86597189Y-75910139D01*
X86751896Y-76037104D01*
X86878861Y-76191810D01*
X86973203Y-76368313D01*
X87031299Y-76559828D01*
X87046000Y-76709094D01*
X87046000Y-77570905D01*
X87031299Y-77720166D01*
X87031298Y-77720169D01*
X87031298Y-77720170D01*
X86973203Y-77911685D01*
X86973200Y-77911692D01*
X86878861Y-78088190D01*
X86751896Y-78242896D01*
X86597190Y-78369861D01*
X86420687Y-78464203D01*
X86229172Y-78522299D01*
X86030000Y-78541915D01*
X85830829Y-78522299D01*
X85639314Y-78464203D01*
X85462811Y-78369861D01*
X85308105Y-78242896D01*
X85181142Y-78088191D01*
X85086797Y-77911685D01*
X85028701Y-77720172D01*
X85014000Y-77570906D01*
X85014000Y-76709095D01*
X85028701Y-76559829D01*
X85086797Y-76368314D01*
X85181139Y-76191811D01*
X85308104Y-76037104D01*
X85462810Y-75910139D01*
X85639313Y-75815797D01*
X85830828Y-75757701D01*
X86030000Y-75738085D01*
X86229171Y-75757701D01*
X86229171Y-75757701D01*
G37*
G36*
X88769171Y-75757701D02*
X88960686Y-75815797D01*
X89137189Y-75910139D01*
X89291896Y-76037104D01*
X89418861Y-76191810D01*
X89513203Y-76368313D01*
X89571299Y-76559828D01*
X89586000Y-76709094D01*
X89586000Y-77570905D01*
X89571299Y-77720166D01*
X89571298Y-77720169D01*
X89571298Y-77720170D01*
X89513203Y-77911685D01*
X89513200Y-77911692D01*
X89418861Y-78088190D01*
X89291896Y-78242896D01*
X89137190Y-78369861D01*
X88960687Y-78464203D01*
X88769172Y-78522299D01*
X88570000Y-78541915D01*
X88370829Y-78522299D01*
X88179314Y-78464203D01*
X88002811Y-78369861D01*
X87848105Y-78242896D01*
X87721142Y-78088191D01*
X87626797Y-77911685D01*
X87568701Y-77720172D01*
X87554000Y-77570906D01*
X87554000Y-76709095D01*
X87568701Y-76559829D01*
X87626797Y-76368314D01*
X87721139Y-76191811D01*
X87848104Y-76037104D01*
X88002810Y-75910139D01*
X88179313Y-75815797D01*
X88370828Y-75757701D01*
X88570000Y-75738085D01*
X88769171Y-75757701D01*
X88769171Y-75757701D01*
G37*
G36*
X101469171Y-75757701D02*
X101660686Y-75815797D01*
X101837189Y-75910139D01*
X101991896Y-76037104D01*
X102118861Y-76191810D01*
X102213203Y-76368313D01*
X102271299Y-76559828D01*
X102286000Y-76709094D01*
X102286000Y-77570905D01*
X102271299Y-77720166D01*
X102271298Y-77720169D01*
X102271298Y-77720170D01*
X102213203Y-77911685D01*
X102213200Y-77911692D01*
X102118861Y-78088190D01*
X101991896Y-78242896D01*
X101837190Y-78369861D01*
X101660687Y-78464203D01*
X101469172Y-78522299D01*
X101270000Y-78541915D01*
X101070829Y-78522299D01*
X100879314Y-78464203D01*
X100702811Y-78369861D01*
X100548105Y-78242896D01*
X100421142Y-78088191D01*
X100326797Y-77911685D01*
X100268701Y-77720172D01*
X100254000Y-77570906D01*
X100254000Y-76709095D01*
X100268701Y-76559829D01*
X100326797Y-76368314D01*
X100421139Y-76191811D01*
X100548104Y-76037104D01*
X100702810Y-75910139D01*
X100879313Y-75815797D01*
X101070828Y-75757701D01*
X101270000Y-75738085D01*
X101469171Y-75757701D01*
X101469171Y-75757701D01*
G37*
G36*
X114169171Y-75757701D02*
X114360686Y-75815797D01*
X114537189Y-75910139D01*
X114691896Y-76037104D01*
X114818861Y-76191810D01*
X114913203Y-76368313D01*
X114971299Y-76559828D01*
X114986000Y-76709094D01*
X114986000Y-77570905D01*
X114971299Y-77720166D01*
X114971298Y-77720169D01*
X114971298Y-77720170D01*
X114913203Y-77911685D01*
X114913200Y-77911692D01*
X114818861Y-78088190D01*
X114691896Y-78242896D01*
X114537190Y-78369861D01*
X114360687Y-78464203D01*
X114169172Y-78522299D01*
X113970000Y-78541915D01*
X113770829Y-78522299D01*
X113579314Y-78464203D01*
X113402811Y-78369861D01*
X113248105Y-78242896D01*
X113121142Y-78088191D01*
X113026797Y-77911685D01*
X112968701Y-77720172D01*
X112954000Y-77570906D01*
X112954000Y-76709095D01*
X112968701Y-76559829D01*
X113026797Y-76368314D01*
X113121139Y-76191811D01*
X113248104Y-76037104D01*
X113402810Y-75910139D01*
X113579313Y-75815797D01*
X113770828Y-75757701D01*
X113970000Y-75738085D01*
X114169171Y-75757701D01*
X114169171Y-75757701D01*
G37*
G36*
X111629171Y-75757701D02*
X111820686Y-75815797D01*
X111997189Y-75910139D01*
X112151896Y-76037104D01*
X112278861Y-76191810D01*
X112373203Y-76368313D01*
X112431299Y-76559828D01*
X112446000Y-76709094D01*
X112446000Y-77570905D01*
X112431299Y-77720166D01*
X112431298Y-77720169D01*
X112431298Y-77720170D01*
X112373203Y-77911685D01*
X112373200Y-77911692D01*
X112278861Y-78088190D01*
X112151896Y-78242896D01*
X111997190Y-78369861D01*
X111820687Y-78464203D01*
X111629172Y-78522299D01*
X111430000Y-78541915D01*
X111230829Y-78522299D01*
X111039314Y-78464203D01*
X110862811Y-78369861D01*
X110708105Y-78242896D01*
X110581142Y-78088191D01*
X110486797Y-77911685D01*
X110428701Y-77720172D01*
X110414000Y-77570906D01*
X110414000Y-76709095D01*
X110428701Y-76559829D01*
X110486797Y-76368314D01*
X110581139Y-76191811D01*
X110708104Y-76037104D01*
X110862810Y-75910139D01*
X111039313Y-75815797D01*
X111230828Y-75757701D01*
X111430000Y-75738085D01*
X111629171Y-75757701D01*
X111629171Y-75757701D01*
G37*
G36*
X109089171Y-75757701D02*
X109280686Y-75815797D01*
X109457189Y-75910139D01*
X109611896Y-76037104D01*
X109738861Y-76191810D01*
X109833203Y-76368313D01*
X109891299Y-76559828D01*
X109906000Y-76709094D01*
X109906000Y-77570905D01*
X109891299Y-77720166D01*
X109891298Y-77720169D01*
X109891298Y-77720170D01*
X109833203Y-77911685D01*
X109833200Y-77911692D01*
X109738861Y-78088190D01*
X109611896Y-78242896D01*
X109457190Y-78369861D01*
X109280687Y-78464203D01*
X109089172Y-78522299D01*
X108890000Y-78541915D01*
X108690829Y-78522299D01*
X108499314Y-78464203D01*
X108322811Y-78369861D01*
X108168105Y-78242896D01*
X108041142Y-78088191D01*
X107946797Y-77911685D01*
X107888701Y-77720172D01*
X107874000Y-77570906D01*
X107874000Y-76709095D01*
X107888701Y-76559829D01*
X107946797Y-76368314D01*
X108041139Y-76191811D01*
X108168104Y-76037104D01*
X108322810Y-75910139D01*
X108499313Y-75815797D01*
X108690828Y-75757701D01*
X108890000Y-75738085D01*
X109089171Y-75757701D01*
X109089171Y-75757701D01*
G37*
G36*
X104009171Y-75757701D02*
X104200686Y-75815797D01*
X104377189Y-75910139D01*
X104531896Y-76037104D01*
X104658861Y-76191810D01*
X104753203Y-76368313D01*
X104811299Y-76559828D01*
X104826000Y-76709094D01*
X104826000Y-77570905D01*
X104811299Y-77720166D01*
X104811298Y-77720169D01*
X104811298Y-77720170D01*
X104753203Y-77911685D01*
X104753200Y-77911692D01*
X104658861Y-78088190D01*
X104531896Y-78242896D01*
X104377190Y-78369861D01*
X104200687Y-78464203D01*
X104009172Y-78522299D01*
X103810000Y-78541915D01*
X103610829Y-78522299D01*
X103419314Y-78464203D01*
X103242811Y-78369861D01*
X103088105Y-78242896D01*
X102961142Y-78088191D01*
X102866797Y-77911685D01*
X102808701Y-77720172D01*
X102794000Y-77570906D01*
X102794000Y-76709095D01*
X102808701Y-76559829D01*
X102866797Y-76368314D01*
X102961139Y-76191811D01*
X103088104Y-76037104D01*
X103242810Y-75910139D01*
X103419313Y-75815797D01*
X103610828Y-75757701D01*
X103810000Y-75738085D01*
X104009171Y-75757701D01*
X104009171Y-75757701D01*
G37*
G36*
X106566422Y-69881974D02*
X106774525Y-69945102D01*
X106966312Y-70047614D01*
X106966313Y-70047615D01*
X106966317Y-70047617D01*
X107134423Y-70185577D01*
X107272386Y-70353687D01*
X107374898Y-70545474D01*
X107438026Y-70753577D01*
X107454000Y-70915769D01*
X107454000Y-71624230D01*
X107438026Y-71786417D01*
X107438025Y-71786420D01*
X107438025Y-71786421D01*
X107438024Y-71786423D01*
X107374895Y-71994531D01*
X107272386Y-72186313D01*
X107134423Y-72354423D01*
X106966313Y-72492386D01*
X106774526Y-72594898D01*
X106566423Y-72658026D01*
X106350000Y-72679341D01*
X106133578Y-72658026D01*
X105925475Y-72594898D01*
X105733688Y-72492386D01*
X105565578Y-72354423D01*
X105427618Y-72186317D01*
X105372970Y-72084078D01*
X105325102Y-71994524D01*
X105261974Y-71786423D01*
X105246000Y-71624231D01*
X105246000Y-70915770D01*
X105261974Y-70753578D01*
X105325102Y-70545475D01*
X105427614Y-70353688D01*
X105427616Y-70353685D01*
X105427617Y-70353683D01*
X105565577Y-70185577D01*
X105733683Y-70047617D01*
X105733684Y-70047616D01*
X105733687Y-70047614D01*
X105925474Y-69945102D01*
X106133577Y-69881974D01*
X106350000Y-69860659D01*
X106566422Y-69881974D01*
X106566422Y-69881974D01*
G37*
G36*
X88786423Y-69881974D02*
X88994526Y-69945102D01*
X89186313Y-70047614D01*
X89354423Y-70185577D01*
X89492386Y-70353687D01*
X89594895Y-70545469D01*
X89594897Y-70545474D01*
X89594897Y-70545475D01*
X89658025Y-70753578D01*
X89658026Y-70753583D01*
X89674000Y-70915770D01*
X89674000Y-71624231D01*
X89658026Y-71786423D01*
X89594898Y-71994526D01*
X89492386Y-72186313D01*
X89492384Y-72186315D01*
X89492383Y-72186317D01*
X89354423Y-72354423D01*
X89186317Y-72492383D01*
X89186313Y-72492385D01*
X89186312Y-72492386D01*
X88994525Y-72594898D01*
X88786422Y-72658026D01*
X88570000Y-72679341D01*
X88353577Y-72658026D01*
X88145474Y-72594898D01*
X87953687Y-72492386D01*
X87785577Y-72354423D01*
X87647617Y-72186317D01*
X87647614Y-72186312D01*
X87545102Y-71994525D01*
X87481974Y-71786422D01*
X87466000Y-71624230D01*
X87466000Y-70915769D01*
X87481974Y-70753577D01*
X87545102Y-70545476D01*
X87647617Y-70353685D01*
X87647618Y-70353683D01*
X87785578Y-70185577D01*
X87953684Y-70047617D01*
X87953685Y-70047616D01*
X87953688Y-70047614D01*
X88145475Y-69945102D01*
X88353578Y-69881974D01*
X88570000Y-69860659D01*
X88786423Y-69881974D01*
X88786423Y-69881974D01*
G37*
G36*
X109106422Y-69881974D02*
X109314525Y-69945102D01*
X109506312Y-70047614D01*
X109506313Y-70047615D01*
X109506317Y-70047617D01*
X109674423Y-70185577D01*
X109812386Y-70353687D01*
X109914898Y-70545474D01*
X109978026Y-70753577D01*
X109994000Y-70915769D01*
X109994000Y-71624230D01*
X109978026Y-71786417D01*
X109978025Y-71786420D01*
X109978025Y-71786421D01*
X109978024Y-71786423D01*
X109914895Y-71994531D01*
X109812386Y-72186313D01*
X109674423Y-72354423D01*
X109506313Y-72492386D01*
X109314526Y-72594898D01*
X109106423Y-72658026D01*
X108890000Y-72679341D01*
X108673578Y-72658026D01*
X108465475Y-72594898D01*
X108273688Y-72492386D01*
X108105578Y-72354423D01*
X107967618Y-72186317D01*
X107912970Y-72084078D01*
X107865102Y-71994524D01*
X107801974Y-71786423D01*
X107786000Y-71624231D01*
X107786000Y-70915770D01*
X107801974Y-70753578D01*
X107865102Y-70545475D01*
X107967614Y-70353688D01*
X107967616Y-70353685D01*
X107967617Y-70353683D01*
X108105577Y-70185577D01*
X108273683Y-70047617D01*
X108273684Y-70047616D01*
X108273687Y-70047614D01*
X108465474Y-69945102D01*
X108673577Y-69881974D01*
X108890000Y-69860659D01*
X109106422Y-69881974D01*
X109106422Y-69881974D01*
G37*
G36*
X111646422Y-69881974D02*
X111854525Y-69945102D01*
X112046312Y-70047614D01*
X112046313Y-70047615D01*
X112046317Y-70047617D01*
X112214423Y-70185577D01*
X112352386Y-70353687D01*
X112454898Y-70545474D01*
X112518026Y-70753577D01*
X112534000Y-70915769D01*
X112534000Y-71624230D01*
X112518026Y-71786417D01*
X112518025Y-71786420D01*
X112518025Y-71786421D01*
X112518024Y-71786423D01*
X112454895Y-71994531D01*
X112352386Y-72186313D01*
X112214423Y-72354423D01*
X112046313Y-72492386D01*
X111854526Y-72594898D01*
X111646423Y-72658026D01*
X111430000Y-72679341D01*
X111213578Y-72658026D01*
X111005475Y-72594898D01*
X110813688Y-72492386D01*
X110645578Y-72354423D01*
X110507618Y-72186317D01*
X110452970Y-72084078D01*
X110405102Y-71994524D01*
X110341974Y-71786423D01*
X110326000Y-71624231D01*
X110326000Y-70915770D01*
X110341974Y-70753578D01*
X110405102Y-70545475D01*
X110507614Y-70353688D01*
X110507616Y-70353685D01*
X110507617Y-70353683D01*
X110645577Y-70185577D01*
X110813683Y-70047617D01*
X110813684Y-70047616D01*
X110813687Y-70047614D01*
X111005474Y-69945102D01*
X111213577Y-69881974D01*
X111430000Y-69860659D01*
X111646422Y-69881974D01*
X111646422Y-69881974D01*
G37*
G36*
X114186422Y-69881974D02*
X114394525Y-69945102D01*
X114586312Y-70047614D01*
X114586313Y-70047615D01*
X114586317Y-70047617D01*
X114754423Y-70185577D01*
X114892386Y-70353687D01*
X114994898Y-70545474D01*
X115058026Y-70753577D01*
X115074000Y-70915769D01*
X115074000Y-71624230D01*
X115058026Y-71786417D01*
X115058025Y-71786420D01*
X115058025Y-71786421D01*
X115058024Y-71786423D01*
X114994895Y-71994531D01*
X114892386Y-72186313D01*
X114754423Y-72354423D01*
X114586313Y-72492386D01*
X114394526Y-72594898D01*
X114186423Y-72658026D01*
X113970000Y-72679341D01*
X113753578Y-72658026D01*
X113545475Y-72594898D01*
X113353688Y-72492386D01*
X113185578Y-72354423D01*
X113047618Y-72186317D01*
X112992970Y-72084078D01*
X112945102Y-71994524D01*
X112881974Y-71786423D01*
X112866000Y-71624231D01*
X112866000Y-70915770D01*
X112881974Y-70753578D01*
X112945102Y-70545475D01*
X113047614Y-70353688D01*
X113047616Y-70353685D01*
X113047617Y-70353683D01*
X113185577Y-70185577D01*
X113353683Y-70047617D01*
X113353684Y-70047616D01*
X113353687Y-70047614D01*
X113545474Y-69945102D01*
X113753577Y-69881974D01*
X113970000Y-69860659D01*
X114186422Y-69881974D01*
X114186422Y-69881974D01*
G37*
G36*
X93866423Y-69881974D02*
X94074526Y-69945102D01*
X94266313Y-70047614D01*
X94434423Y-70185577D01*
X94572386Y-70353687D01*
X94674895Y-70545469D01*
X94674897Y-70545474D01*
X94674897Y-70545475D01*
X94738025Y-70753578D01*
X94738026Y-70753583D01*
X94754000Y-70915770D01*
X94754000Y-71624231D01*
X94738026Y-71786423D01*
X94674898Y-71994526D01*
X94572386Y-72186313D01*
X94572384Y-72186315D01*
X94572383Y-72186317D01*
X94434423Y-72354423D01*
X94266317Y-72492383D01*
X94266313Y-72492385D01*
X94266312Y-72492386D01*
X94074525Y-72594898D01*
X93866422Y-72658026D01*
X93650000Y-72679341D01*
X93433577Y-72658026D01*
X93225474Y-72594898D01*
X93033687Y-72492386D01*
X92865577Y-72354423D01*
X92727617Y-72186317D01*
X92727614Y-72186312D01*
X92625102Y-71994525D01*
X92561974Y-71786422D01*
X92546000Y-71624230D01*
X92546000Y-70915769D01*
X92561974Y-70753577D01*
X92625102Y-70545476D01*
X92727617Y-70353685D01*
X92727618Y-70353683D01*
X92865578Y-70185577D01*
X93033684Y-70047617D01*
X93033685Y-70047616D01*
X93033688Y-70047614D01*
X93225475Y-69945102D01*
X93433578Y-69881974D01*
X93650000Y-69860659D01*
X93866423Y-69881974D01*
X93866423Y-69881974D01*
G37*
G36*
X91326423Y-69881974D02*
X91534526Y-69945102D01*
X91726313Y-70047614D01*
X91894423Y-70185577D01*
X92032386Y-70353687D01*
X92134895Y-70545469D01*
X92134897Y-70545474D01*
X92134897Y-70545475D01*
X92198025Y-70753578D01*
X92198026Y-70753583D01*
X92214000Y-70915770D01*
X92214000Y-71624231D01*
X92198026Y-71786423D01*
X92134898Y-71994526D01*
X92032386Y-72186313D01*
X92032384Y-72186315D01*
X92032383Y-72186317D01*
X91894423Y-72354423D01*
X91726317Y-72492383D01*
X91726313Y-72492385D01*
X91726312Y-72492386D01*
X91534525Y-72594898D01*
X91326422Y-72658026D01*
X91110000Y-72679341D01*
X90893577Y-72658026D01*
X90685474Y-72594898D01*
X90493687Y-72492386D01*
X90325577Y-72354423D01*
X90187617Y-72186317D01*
X90187614Y-72186312D01*
X90085102Y-71994525D01*
X90021974Y-71786422D01*
X90006000Y-71624230D01*
X90006000Y-70915769D01*
X90021974Y-70753577D01*
X90085102Y-70545476D01*
X90187617Y-70353685D01*
X90187618Y-70353683D01*
X90325578Y-70185577D01*
X90493684Y-70047617D01*
X90493685Y-70047616D01*
X90493688Y-70047614D01*
X90685475Y-69945102D01*
X90893578Y-69881974D01*
X91110000Y-69860659D01*
X91326423Y-69881974D01*
X91326423Y-69881974D01*
G37*
G36*
X86246423Y-69881974D02*
X86454526Y-69945102D01*
X86646313Y-70047614D01*
X86814423Y-70185577D01*
X86952386Y-70353687D01*
X87054895Y-70545469D01*
X87054897Y-70545474D01*
X87054897Y-70545475D01*
X87118025Y-70753578D01*
X87118026Y-70753583D01*
X87134000Y-70915770D01*
X87134000Y-71624231D01*
X87118026Y-71786423D01*
X87054898Y-71994526D01*
X86952386Y-72186313D01*
X86952384Y-72186315D01*
X86952383Y-72186317D01*
X86814423Y-72354423D01*
X86646317Y-72492383D01*
X86646313Y-72492385D01*
X86646312Y-72492386D01*
X86454525Y-72594898D01*
X86246422Y-72658026D01*
X86030000Y-72679341D01*
X85813577Y-72658026D01*
X85605474Y-72594898D01*
X85413687Y-72492386D01*
X85245577Y-72354423D01*
X85107617Y-72186317D01*
X85107614Y-72186312D01*
X85005102Y-71994525D01*
X84941974Y-71786422D01*
X84926000Y-71624230D01*
X84926000Y-70915769D01*
X84941974Y-70753577D01*
X85005102Y-70545476D01*
X85107617Y-70353685D01*
X85107618Y-70353683D01*
X85245578Y-70185577D01*
X85413684Y-70047617D01*
X85413685Y-70047616D01*
X85413688Y-70047614D01*
X85605475Y-69945102D01*
X85813578Y-69881974D01*
X86030000Y-69860659D01*
X86246423Y-69881974D01*
X86246423Y-69881974D01*
G37*
G36*
X117614000Y-72674000D02*
X115406000Y-72674000D01*
X115406000Y-69866000D01*
X117614000Y-69866000D01*
X117614000Y-72674000D01*
X117614000Y-72674000D01*
G37*
G36*
X84594000Y-72674000D02*
X82386000Y-72674000D01*
X82386000Y-69866000D01*
X84594000Y-69866000D01*
X84594000Y-72674000D01*
X84594000Y-72674000D01*
G37*
M02*
