M48
;DRILL file {KiCad 5.0.1-33cea8e~68~ubuntu16.04.1} date Po 19. listopad 2018, 21:38:13 CET
;FORMAT={-:-/ absolute / inch / decimal}
FMAT,2
INCH,TZ
T1C0.0197
T2C0.0217
T3C0.0240
T4C0.0280
T5C0.0300
T6C0.0394
T7C0.1339
%
G90
G05
M72
T3
X2.9467Y-3.5336
X2.9676Y-4.2893
X3.0591Y-4.0815
X3.2115Y-4.2155
X3.2414Y-3.3373
X3.2507Y-3.1084
X3.2717Y-3.0039
X3.2756Y-3.0709
X3.2892Y-4.0617
X3.3023Y-3.2502
X3.3274Y-3.7074
X3.3523Y-3.6559
X3.3736Y-4.0491
X3.411Y-3.3746
X3.4171Y-3.869
X3.4304Y-3.4369
X3.4341Y-3.9785
X3.435Y-3.3129
X3.4384Y-3.1821
X3.4433Y-3.7379
X3.4451Y-4.169
X3.5241Y-3.0964
X3.5535Y-3.5184
X3.563Y-3.3472
X3.5797Y-4.2537
X3.5968Y-3.8167
X3.611Y-3.4064
X3.6263Y-3.9533
X3.6444Y-3.1776
X3.6499Y-4.1084
X3.6548Y-3.7022
X3.6548Y-3.9095
X3.6829Y-4.4709
X3.6838Y-4.3237
X3.712Y-3.1295
X3.7303Y-4.9097
X3.7472Y-3.3179
X3.804Y-3.532
X3.8054Y-3.1455
X3.8061Y-3.2692
X3.8276Y-4.2354
X3.8279Y-4.4853
X3.828Y-4.3079
X3.8289Y-4.3635
X3.8294Y-4.4132
X3.8358Y-3.9544
X3.838Y-3.2989
X3.8406Y-4.0369
X3.8621Y-4.4503
X3.8621Y-4.5705
X3.8693Y-2.9566
X3.87Y-3.919
X3.8795Y-4.633
X3.8949Y-4.006
X3.8995Y-4.0541
X3.9093Y-4.7425
X3.9261Y-3.8916
X3.9386Y-3.9899
X3.9474Y-3.2422
X3.9547Y-4.6972
X3.9655Y-3.3926
X3.9876Y-4.2671
X4.0215Y-3.6592
X4.0255Y-3.804
X4.0337Y-3.1452
X4.0382Y-2.9615
X4.0492Y-4.0897
X4.0712Y-3.8916
X4.0891Y-3.9573
X4.0909Y-4.11
X4.1063Y-4.1774
X4.1099Y-3.8166
X4.1299Y-3.8701
X4.1442Y-3.7907
X4.1811Y-3.5012
X4.1811Y-3.546
X4.1869Y-3.7962
X4.1907Y-2.9461
X4.2088Y-3.4246
X4.2264Y-3.8131
X4.2564Y-4.7673
X4.2676Y-4.5592
X4.2684Y-4.697
X4.2904Y-4.2048
X4.2961Y-3.8656
X4.2988Y-4.2759
X4.312Y-3.9962
X4.3497Y-3.455
X4.3542Y-4.1172
X4.3573Y-4.6698
X4.3639Y-3.9262
X4.3838Y-3.6483
X4.3998Y-4.0793
X4.4229Y-3.9894
X4.4365Y-4.7919
X4.4524Y-3.8629
X4.4622Y-4.0341
X4.4715Y-4.9269
X4.482Y-3.9748
X4.5866Y-3.6812
X4.6417Y-3.1766
X4.6596Y-2.827
X4.6654Y-2.9331
X4.7062Y-4.3539
X4.7118Y-3.439
X4.7266Y-3.8904
X4.7282Y-3.6773
X4.7368Y-3.8252
X4.7488Y-4.2513
X4.76Y-3.6456
X4.8425Y-3.8583
X4.8446Y-4.2123
X4.8582Y-3.4154
X5.0213Y-3.8472
T4
X2.8898Y-4.4764
X2.9319Y-3.4004
X3.8844Y-3.3833
X3.9016Y-2.8666
X4.1141Y-4.9733
X4.7115Y-4.757
X4.9173Y-3.626
X4.9173Y-4.248
X4.9419Y-3.3649
T5
X3.387Y-3.037
X3.387Y-4.837
X3.487Y-3.037
X3.487Y-4.837
X3.587Y-3.037
X3.587Y-4.837
X3.687Y-3.037
X3.687Y-4.837
X3.787Y-3.037
X3.787Y-4.837
X3.887Y-3.037
X3.887Y-4.837
X3.987Y-3.037
X3.987Y-4.837
X4.087Y-3.037
X4.087Y-4.837
X4.187Y-3.037
X4.187Y-4.837
X4.287Y-3.037
X4.287Y-4.837
X4.387Y-3.037
X4.387Y-4.837
X4.487Y-3.037
X4.487Y-4.837
T6
X2.8059Y-3.287
X2.8059Y-3.387
X2.8059Y-3.487
X2.8059Y-3.587
X2.8059Y-3.687
X3.2177Y-3.7874
X3.2177Y-3.8874
X3.2177Y-3.9874
X3.2177Y-4.0874
X3.287Y-2.8059
X3.387Y-2.8059
X3.487Y-2.8059
X3.587Y-2.8059
X3.687Y-2.8059
X4.187Y-2.8059
X4.287Y-2.8059
X4.387Y-2.8059
X4.487Y-2.8059
X4.587Y-2.8059
X4.187Y-5.0681
X4.287Y-5.0681
X4.387Y-5.0681
X4.487Y-5.0681
X4.587Y-5.0681
X3.287Y-5.0681
X3.387Y-5.0681
X3.487Y-5.0681
X3.587Y-5.0681
X3.687Y-5.0681
X5.0681Y-4.187
X5.0681Y-4.287
X5.0681Y-4.387
X5.0681Y-4.487
X5.0681Y-4.587
X3.0177Y-4.187
X3.1177Y-4.187
X5.0681Y-3.287
X5.0681Y-3.387
X5.0681Y-3.487
X5.0681Y-3.587
X5.0681Y-3.687
X2.8059Y-4.187
X2.8059Y-4.287
X2.8059Y-4.387
X2.8059Y-4.487
X2.8059Y-4.587
T7
X2.9528Y-2.9528
X2.9528Y-4.9213
X4.9213Y-4.9213
X4.9213Y-2.9528
T1
X5.0187Y-3.7992G85X4.9931Y-3.7992
G05
X5.0187Y-4.0748G85X4.9931Y-4.0748
G05
T2
X4.8996Y-3.8445G85X4.8996Y-3.8327
G05
X4.8996Y-4.0413G85X4.8996Y-4.0295
G05
T0
M30
