%TF.GenerationSoftware,KiCad,Pcbnew,5.0.1-33cea8e~68~ubuntu16.04.1*%
%TF.CreationDate,2018-11-19T21:37:36+01:00*%
%TF.ProjectId,bcl4v2,62636C3476322E6B696361645F706362,rev?*%
%TF.SameCoordinates,Original*%
%TF.FileFunction,Copper,L1,Top,Signal*%
%TF.FilePolarity,Positive*%
%FSLAX46Y46*%
G04 Gerber Fmt 4.6, Leading zero omitted, Abs format (unit mm)*
G04 Created by KiCad (PCBNEW 5.0.1-33cea8e~68~ubuntu16.04.1) date Po 19. listopad 2018, 21:37:36 CET*
%MOMM*%
%LPD*%
G01*
G04 APERTURE LIST*
%ADD10C,0.304800*%
%ADD11C,0.381000*%
%ADD12O,1.524000X2.286000*%
%ADD13R,1.524000X2.286000*%
%ADD14R,2.300000X1.700000*%
%ADD15O,2.300000X1.700000*%
%ADD16O,0.950000X1.250000*%
%ADD17O,1.550000X1.000000*%
%ADD18C,7.000000*%
%ADD19R,1.700000X2.300000*%
%ADD20O,1.700000X2.300000*%
%ADD21R,3.700780X1.699260*%
%ADD22R,2.000000X0.600000*%
%ADD23C,0.889000*%
%ADD24C,1.346200*%
%ADD25C,0.609600*%
%ADD26C,0.203200*%
%ADD27C,0.200000*%
%ADD28C,0.254000*%
G04 APERTURE END LIST*
D10*
X84338857Y-124734000D02*
X84193714Y-124637238D01*
X83976000Y-124637238D01*
X83758285Y-124734000D01*
X83613142Y-124927523D01*
X83540571Y-125121047D01*
X83468000Y-125508095D01*
X83468000Y-125798380D01*
X83540571Y-126185428D01*
X83613142Y-126378952D01*
X83758285Y-126572476D01*
X83976000Y-126669238D01*
X84121142Y-126669238D01*
X84338857Y-126572476D01*
X84411428Y-126475714D01*
X84411428Y-125798380D01*
X84121142Y-125798380D01*
X85064571Y-126669238D02*
X85064571Y-124637238D01*
X85935428Y-126669238D01*
X85935428Y-124637238D01*
X86661142Y-126669238D02*
X86661142Y-124637238D01*
X87024000Y-124637238D01*
X87241714Y-124734000D01*
X87386857Y-124927523D01*
X87459428Y-125121047D01*
X87532000Y-125508095D01*
X87532000Y-125798380D01*
X87459428Y-126185428D01*
X87386857Y-126378952D01*
X87241714Y-126572476D01*
X87024000Y-126669238D01*
X86661142Y-126669238D01*
D11*
X129000000Y-105000000D02*
X130000000Y-105000000D01*
X129000000Y-95000000D02*
X129000000Y-105000000D01*
X130000000Y-95000000D02*
X129000000Y-95000000D01*
X74000000Y-70000000D02*
X126000000Y-70000000D01*
X70000000Y-126000000D02*
X70000000Y-74000000D01*
X126000000Y-130000000D02*
X74000000Y-130000000D01*
X130000000Y-105000000D02*
X130000000Y-126000000D01*
X126000000Y-130000000D02*
G75*
G03X130000000Y-126000000I0J4000000D01*
G01*
X70000000Y-126000000D02*
G75*
G03X74000000Y-130000000I4000000J0D01*
G01*
X74000000Y-70000000D02*
G75*
G03X70000000Y-74000000I0J-4000000D01*
G01*
X130000000Y-74000000D02*
X130000000Y-95000000D01*
X130000000Y-74000000D02*
G75*
G03X126000000Y-70000000I-4000000J0D01*
G01*
D12*
X86030000Y-77140000D03*
X88570000Y-77140000D03*
X113970000Y-77140000D03*
X111430000Y-77140000D03*
X113970000Y-122860000D03*
X111430000Y-122860000D03*
X91110000Y-122860000D03*
X88570000Y-122860000D03*
D13*
X86030000Y-122860000D03*
D12*
X93650000Y-122860000D03*
X103810000Y-122860000D03*
X96190000Y-122860000D03*
X101270000Y-122860000D03*
X98730000Y-122860000D03*
X108890000Y-122860000D03*
X106350000Y-122860000D03*
X108890000Y-77140000D03*
X106350000Y-77140000D03*
X103810000Y-77140000D03*
X101270000Y-77140000D03*
X98730000Y-77140000D03*
X96190000Y-77140000D03*
X93650000Y-77140000D03*
X91110000Y-77140000D03*
D14*
X81730000Y-96200000D03*
D15*
X81730000Y-98740000D03*
X81730000Y-101280000D03*
X81730000Y-103820000D03*
D16*
X124450000Y-97500000D03*
X124450000Y-102500000D03*
D17*
X127150000Y-96500000D03*
X127150000Y-103500000D03*
D18*
X75000000Y-125000000D03*
X75000000Y-75000000D03*
X125000000Y-75000000D03*
X125000000Y-125000000D03*
D19*
X83490000Y-71270000D03*
D20*
X86030000Y-71270000D03*
X88570000Y-71270000D03*
X91110000Y-71270000D03*
X93650000Y-71270000D03*
D19*
X116510000Y-71270000D03*
D20*
X113970000Y-71270000D03*
X111430000Y-71270000D03*
X108890000Y-71270000D03*
X106350000Y-71270000D03*
D19*
X116510000Y-128730000D03*
D20*
X113970000Y-128730000D03*
X111430000Y-128730000D03*
X108890000Y-128730000D03*
X106350000Y-128730000D03*
D19*
X83490000Y-128730000D03*
D20*
X86030000Y-128730000D03*
X88570000Y-128730000D03*
X91110000Y-128730000D03*
X93650000Y-128730000D03*
D14*
X71270000Y-116510000D03*
D15*
X71270000Y-113970000D03*
X71270000Y-111430000D03*
X71270000Y-108890000D03*
X71270000Y-106350000D03*
D14*
X71270000Y-83490000D03*
D15*
X71270000Y-86030000D03*
X71270000Y-88570000D03*
X71270000Y-91110000D03*
X71270000Y-93650000D03*
D14*
X128730000Y-83490000D03*
D15*
X128730000Y-86030000D03*
X128730000Y-88570000D03*
X128730000Y-91110000D03*
X128730000Y-93650000D03*
D14*
X128730000Y-116510000D03*
D15*
X128730000Y-113970000D03*
X128730000Y-111430000D03*
X128730000Y-108890000D03*
X128730000Y-106350000D03*
D19*
X76650000Y-106350000D03*
D20*
X79190000Y-106350000D03*
D21*
X72700000Y-102948940D03*
X72700000Y-97051060D03*
D22*
X85800000Y-115580000D03*
X85800000Y-114310000D03*
X85800000Y-113040000D03*
X85800000Y-111770000D03*
X85800000Y-110500000D03*
X85800000Y-109230000D03*
X85800000Y-107960000D03*
X85800000Y-106690000D03*
X85800000Y-105420000D03*
X95200000Y-105420000D03*
X95200000Y-106690000D03*
X95200000Y-107960000D03*
X95200000Y-109230000D03*
X95200000Y-110500000D03*
X95200000Y-111770000D03*
X95200000Y-113040000D03*
X95200000Y-114310000D03*
X95200000Y-115580000D03*
X115500000Y-99690000D03*
X115500000Y-100960000D03*
X115500000Y-102230000D03*
X115500000Y-103500000D03*
X115500000Y-104770000D03*
X115500000Y-106040000D03*
X115500000Y-107310000D03*
X115500000Y-108580000D03*
X115500000Y-109850000D03*
X115500000Y-111120000D03*
X115500000Y-112390000D03*
X115500000Y-113660000D03*
X106100000Y-113660000D03*
X106100000Y-112390000D03*
X106100000Y-111120000D03*
X106100000Y-109850000D03*
X106100000Y-108580000D03*
X106100000Y-107310000D03*
X106100000Y-106040000D03*
X106100000Y-104770000D03*
X106100000Y-103500000D03*
X106100000Y-102230000D03*
X106100000Y-100960000D03*
X106100000Y-99690000D03*
D23*
X98663000Y-85935200D03*
X125523500Y-85468900D03*
X99099400Y-72812600D03*
X104497000Y-126322000D03*
D24*
X73400000Y-113700000D03*
D23*
X119671000Y-120829000D03*
X103408787Y-98846702D03*
D24*
X74471092Y-86371092D03*
D23*
X100723300Y-86171900D03*
X100265228Y-82353112D03*
X83877700Y-82554400D03*
X81571900Y-107074000D03*
X98096700Y-116089500D03*
X98096700Y-113038700D03*
D24*
X124900000Y-107900000D03*
X124900000Y-92100000D03*
D23*
X123000000Y-98000000D03*
X87504400Y-105892900D03*
X87248400Y-84148200D03*
X87459400Y-94942800D03*
X87132800Y-87296800D03*
X87335300Y-80824800D03*
X116500000Y-93501800D03*
X118500000Y-74500000D03*
X106903300Y-86984000D03*
X123397800Y-86751200D03*
X113575700Y-125144500D03*
X120054500Y-98815600D03*
X120315100Y-97160100D03*
X106443600Y-74829800D03*
X74847400Y-89753400D03*
X110676000Y-118612200D03*
X119536400Y-110588000D03*
X75376600Y-108947600D03*
X83100008Y-76300000D03*
X118355000Y-71805000D03*
X117900000Y-80684400D03*
X91720500Y-86522000D03*
X92832300Y-94037100D03*
X102146600Y-92942800D03*
X102570700Y-75222600D03*
X109189500Y-108607400D03*
X108418400Y-119304800D03*
X82330700Y-84767600D03*
X86794500Y-98273200D03*
X77701200Y-103670800D03*
X120619500Y-107982700D03*
X112687200Y-121715500D03*
X82568793Y-78954330D03*
X89511900Y-78648300D03*
X98280100Y-75098500D03*
X94284400Y-79489800D03*
X98538500Y-117677800D03*
X92568000Y-80710000D03*
X94749600Y-124706100D03*
X90500800Y-85019200D03*
X92107500Y-100414700D03*
X83545900Y-103168000D03*
X86640300Y-85714900D03*
X127541000Y-97719000D03*
X96622800Y-89712200D03*
X96674800Y-83036600D03*
X96656100Y-79896500D03*
X83200000Y-77999994D03*
X110482700Y-87758100D03*
X119679800Y-87350000D03*
X111348500Y-92666200D03*
X123052400Y-106993200D03*
X102849900Y-103878100D03*
X84516000Y-94168500D03*
X85689800Y-102846600D03*
X85148800Y-92858900D03*
X87226000Y-101052700D03*
X98298800Y-99543500D03*
X106200000Y-88930500D03*
X120903000Y-92597300D03*
X106200000Y-90069500D03*
X120097000Y-93402700D03*
X110596600Y-104576700D03*
X111754900Y-103614700D03*
X108112800Y-121090400D03*
X99722900Y-98846000D03*
X92832300Y-99300500D03*
X106346605Y-96424565D03*
X102247742Y-96620744D03*
X102455721Y-79887300D03*
X105263669Y-96282522D03*
X109119700Y-98185900D03*
X104900000Y-98300000D03*
X110843100Y-99725000D03*
X107351818Y-96851734D03*
X112342400Y-101331300D03*
X109523600Y-101502800D03*
X97551000Y-102538300D03*
X104392269Y-96940996D03*
X104299400Y-106106200D03*
X98931300Y-101753300D03*
X99297100Y-120459400D03*
X103907600Y-104394200D03*
X100041000Y-101343300D03*
X100448600Y-119309500D03*
X108396300Y-115804000D03*
X108976800Y-106803100D03*
X113841700Y-100960000D03*
X97485200Y-83792800D03*
X103862302Y-100514636D03*
X95179400Y-84275900D03*
X99047900Y-102975000D03*
X113340400Y-102466300D03*
X92706300Y-104353500D03*
X91357900Y-96944200D03*
X113092000Y-98118000D03*
X90258600Y-89366800D03*
X101284400Y-108384200D03*
X97429000Y-100441900D03*
X90924700Y-108043500D03*
X97221800Y-107579400D03*
X93569600Y-109821900D03*
X97230500Y-109420700D03*
X97253400Y-110833900D03*
X97266900Y-112096300D03*
X93546200Y-113560700D03*
X97228600Y-113925900D03*
D10*
X99922900Y-85935200D02*
X98663000Y-85935200D01*
D25*
X83490000Y-71270000D02*
X84270000Y-71270000D01*
X84270000Y-71270000D02*
X84600000Y-71600000D01*
X84600000Y-71600000D02*
X84600000Y-72200000D01*
X84600000Y-72200000D02*
X85400000Y-73000000D01*
X85400000Y-73000000D02*
X86278700Y-73000000D01*
X86278700Y-73000000D02*
X87142300Y-73863600D01*
X87142300Y-73863600D02*
X94657700Y-73863600D01*
X94657700Y-73863600D02*
X95857700Y-72663600D01*
X95857700Y-72663600D02*
X98950400Y-72663600D01*
D10*
X126900000Y-85702500D02*
X125757100Y-85702500D01*
X125757100Y-85702500D02*
X125523500Y-85468900D01*
D25*
X126900000Y-85702500D02*
X126900000Y-86300000D01*
X126900000Y-86300000D02*
X126136000Y-87063600D01*
X126136000Y-87063600D02*
X126136000Y-94363600D01*
X126136000Y-94363600D02*
X124450000Y-96050000D01*
X124450000Y-96050000D02*
X124450000Y-97500000D01*
X128730000Y-83490000D02*
X128610000Y-83490000D01*
X128610000Y-83490000D02*
X126986000Y-85113700D01*
X126986000Y-85113700D02*
X126900000Y-85200000D01*
X126900000Y-85200000D02*
X126900000Y-85702500D01*
D10*
X84444100Y-105420000D02*
X84444100Y-99441700D01*
X84444100Y-99441700D02*
X82408300Y-97405900D01*
X82408300Y-97405900D02*
X81730000Y-97405900D01*
D25*
X100000000Y-72663600D02*
X103864000Y-72663600D01*
X103864000Y-72663600D02*
X105064000Y-73863600D01*
X105064000Y-73863600D02*
X112936000Y-73863600D01*
X112936000Y-73863600D02*
X113800000Y-73000000D01*
X113800000Y-73000000D02*
X114780000Y-73000000D01*
X114780000Y-73000000D02*
X116510000Y-71270000D01*
X98950400Y-72663600D02*
X100000000Y-72663600D01*
D10*
X73400000Y-113700000D02*
X76657800Y-113700000D01*
X76657800Y-113700000D02*
X84444100Y-105913700D01*
X84444100Y-105913700D02*
X84444100Y-105420000D01*
X81730000Y-96200000D02*
X81730000Y-97405900D01*
X85800000Y-105420000D02*
X84444100Y-105420000D01*
D25*
X124450000Y-102500000D02*
X124450000Y-103950000D01*
X124450000Y-103950000D02*
X126136000Y-105636000D01*
X126136000Y-105636000D02*
X126136000Y-112598000D01*
X126136000Y-112598000D02*
X127000000Y-113461000D01*
X127000000Y-113461000D02*
X127000000Y-114780000D01*
X127000000Y-114780000D02*
X128730000Y-116510000D01*
D10*
X98950400Y-72663600D02*
X99099400Y-72812600D01*
X104987000Y-126413000D02*
X104896000Y-126322000D01*
X104896000Y-126322000D02*
X104497000Y-126322000D01*
D25*
X104987000Y-126413000D02*
X103600000Y-127800000D01*
X103600000Y-127800000D02*
X96400000Y-127800000D01*
X96400000Y-127800000D02*
X94736400Y-126136000D01*
X94736400Y-126136000D02*
X87642300Y-126136000D01*
X87642300Y-126136000D02*
X86778700Y-127000000D01*
X86778700Y-127000000D02*
X85220000Y-127000000D01*
X85220000Y-127000000D02*
X83490000Y-128730000D01*
X116510000Y-128730000D02*
X116330000Y-128730000D01*
X116330000Y-128730000D02*
X114600000Y-127000000D01*
X114600000Y-127000000D02*
X113461000Y-127000000D01*
X113461000Y-127000000D02*
X112598000Y-126136000D01*
X112598000Y-126136000D02*
X105264000Y-126136000D01*
X105264000Y-126136000D02*
X104987000Y-126413000D01*
X116510000Y-71270000D02*
X116510000Y-71490000D01*
X83490000Y-128730000D02*
X83490000Y-128510000D01*
X73400000Y-113700000D02*
X73000000Y-114100000D01*
X73000000Y-114100000D02*
X73000000Y-114780000D01*
X73000000Y-114780000D02*
X71270000Y-116510000D01*
D10*
X119671000Y-120829000D02*
X121371000Y-120829000D01*
X121371000Y-120829000D02*
X125690000Y-116510000D01*
X125690000Y-116510000D02*
X128730000Y-116510000D01*
X99465127Y-85477427D02*
X99465127Y-81969063D01*
X100000000Y-81434190D02*
X100000000Y-72663600D01*
X99922900Y-85935200D02*
X99465127Y-85477427D01*
X99465127Y-81969063D02*
X100000000Y-81434190D01*
X103853286Y-99291201D02*
X103408787Y-98846702D01*
X104252085Y-99690000D02*
X103853286Y-99291201D01*
X106100000Y-99690000D02*
X104252085Y-99690000D01*
X99922900Y-93055071D02*
X103142789Y-96274960D01*
X103142789Y-96274960D02*
X103142789Y-97952087D01*
X103408787Y-98218085D02*
X103408787Y-98846702D01*
X103142789Y-97952087D02*
X103408787Y-98218085D01*
X99922900Y-85935200D02*
X99922900Y-93055071D01*
D25*
X74451092Y-86371092D02*
X74471092Y-86371092D01*
X71570000Y-83490000D02*
X74451092Y-86371092D01*
X71270000Y-83490000D02*
X71570000Y-83490000D01*
D26*
X100723300Y-85598051D02*
X100265228Y-85139979D01*
X100265228Y-85139979D02*
X100265228Y-82981729D01*
X100723300Y-86171900D02*
X100723300Y-85598051D01*
X100265228Y-82981729D02*
X100265228Y-82353112D01*
X81730000Y-103820000D02*
X81730000Y-102664900D01*
X83877700Y-82554400D02*
X83476400Y-82554400D01*
X83476400Y-82554400D02*
X80245500Y-85785300D01*
X80245500Y-85785300D02*
X80245500Y-101764400D01*
X80245500Y-101764400D02*
X81146000Y-102664900D01*
X81146000Y-102664900D02*
X81730000Y-102664900D01*
X81730000Y-103820000D02*
X81730000Y-106915900D01*
X81730000Y-106915900D02*
X81571900Y-107074000D01*
D10*
X98096700Y-113038700D02*
X98096700Y-116089500D01*
X96555900Y-105420000D02*
X98096700Y-106960800D01*
X98096700Y-106960800D02*
X98096700Y-113038700D01*
X115500000Y-99690000D02*
X116855900Y-99690000D01*
X123000000Y-98000000D02*
X118545900Y-98000000D01*
X118545900Y-98000000D02*
X116855900Y-99690000D01*
X95200000Y-105420000D02*
X96555900Y-105420000D01*
D25*
X123400000Y-97600000D02*
X123400000Y-104200000D01*
X123400000Y-104200000D02*
X125200000Y-106000000D01*
X125200000Y-106000000D02*
X125200000Y-107600000D01*
X125200000Y-107600000D02*
X124900000Y-107900000D01*
X123400000Y-97500000D02*
X123400000Y-97600000D01*
X124900000Y-92100000D02*
X125200000Y-92400000D01*
X125200000Y-92400000D02*
X125200000Y-94000000D01*
X125200000Y-94000000D02*
X123400000Y-95800000D01*
X123400000Y-95800000D02*
X123400000Y-97500000D01*
D10*
X123000000Y-98000000D02*
X123400000Y-97600000D01*
X123400000Y-97600000D02*
X123500000Y-97500000D01*
X123500000Y-97500000D02*
X123400000Y-97500000D01*
X87504400Y-105892900D02*
X88026400Y-105370900D01*
X88026400Y-105370900D02*
X88026400Y-100721200D01*
X88026400Y-100721200D02*
X87594900Y-100289700D01*
X87594900Y-100289700D02*
X87594900Y-95078300D01*
X87594900Y-95078300D02*
X87459400Y-94942800D01*
X87335300Y-84148200D02*
X87440700Y-84253600D01*
X87440700Y-84253600D02*
X87440700Y-86046500D01*
X87440700Y-86046500D02*
X87335300Y-86151900D01*
X87335300Y-86151900D02*
X87335300Y-87296800D01*
X87335300Y-80824800D02*
X87335300Y-84148200D01*
X87335300Y-84148200D02*
X87248400Y-84148200D01*
X87335300Y-87296800D02*
X87132800Y-87296800D01*
X87335300Y-87296800D02*
X87335300Y-94818700D01*
X87335300Y-94818700D02*
X87459400Y-94942800D01*
X121739300Y-92895000D02*
X120415500Y-94218800D01*
X120415500Y-94218800D02*
X117217000Y-94218800D01*
X117217000Y-94218800D02*
X116500000Y-93501800D01*
X72700000Y-102948900D02*
X74906300Y-102948900D01*
X79190000Y-106350000D02*
X77984100Y-106350000D01*
X77984100Y-106350000D02*
X77984100Y-105144100D01*
X77984100Y-105144100D02*
X75788900Y-102948900D01*
X75788900Y-102948900D02*
X74906300Y-102948900D01*
X118500000Y-74500000D02*
X118500000Y-79000000D01*
X121739300Y-82239300D02*
X121739300Y-92895000D01*
X118500000Y-79000000D02*
X121739300Y-82239300D01*
D25*
X128730000Y-86030000D02*
X128470000Y-86030000D01*
X128470000Y-86030000D02*
X127000000Y-87500000D01*
X127000000Y-87500000D02*
X127000000Y-94800000D01*
X127000000Y-94800000D02*
X125800000Y-96000000D01*
X125800000Y-96000000D02*
X125800000Y-104000000D01*
X125800000Y-104000000D02*
X127000000Y-105200000D01*
X127000000Y-105200000D02*
X127000000Y-112240000D01*
X127000000Y-112240000D02*
X128730000Y-113970000D01*
X86030000Y-128730000D02*
X86030000Y-128470000D01*
X86030000Y-71270000D02*
X86030000Y-71530000D01*
X86030000Y-71530000D02*
X87500000Y-73000000D01*
X87500000Y-73000000D02*
X94300000Y-73000000D01*
X94300000Y-73000000D02*
X95500000Y-71800000D01*
X95500000Y-71800000D02*
X104300000Y-71800000D01*
X104300000Y-71800000D02*
X105500000Y-73000000D01*
X105500000Y-73000000D02*
X112500000Y-73000000D01*
X112500000Y-73000000D02*
X113970000Y-71530000D01*
X113970000Y-71530000D02*
X113970000Y-71270000D01*
X86030000Y-128730000D02*
X86270000Y-128730000D01*
X86270000Y-128730000D02*
X88000000Y-127000000D01*
X88000000Y-127000000D02*
X94300000Y-127000000D01*
X94300000Y-127000000D02*
X96000000Y-128700000D01*
X96000000Y-128700000D02*
X104000000Y-128700000D01*
X104000000Y-128700000D02*
X105700000Y-127000000D01*
X105700000Y-127000000D02*
X112240000Y-127000000D01*
X112240000Y-127000000D02*
X113970000Y-128730000D01*
D26*
X106903300Y-86984000D02*
X107202800Y-86984000D01*
X107202800Y-86984000D02*
X115887900Y-78298900D01*
X115887900Y-78298900D02*
X115887900Y-75895000D01*
X115887900Y-75895000D02*
X114822700Y-74829800D01*
X114822700Y-74829800D02*
X106443600Y-74829800D01*
X120315100Y-94815000D02*
X115539000Y-94815000D01*
X115539000Y-94815000D02*
X112511500Y-91787500D01*
X112511500Y-91787500D02*
X106836000Y-91787500D01*
X106836000Y-91787500D02*
X105450300Y-90401800D01*
X105450300Y-90401800D02*
X105450300Y-88437000D01*
X105450300Y-88437000D02*
X106903300Y-86984000D01*
X120315100Y-94815000D02*
X120534100Y-94815000D01*
X120534100Y-94815000D02*
X123397800Y-91951300D01*
X123397800Y-91951300D02*
X123397800Y-86751200D01*
X113575700Y-125144500D02*
X123814800Y-114905400D01*
X123814800Y-114905400D02*
X123814800Y-106659500D01*
X123814800Y-106659500D02*
X120054500Y-102899200D01*
X120054500Y-102899200D02*
X120054500Y-98815600D01*
X72725100Y-91110000D02*
X74081700Y-89753400D01*
X74081700Y-89753400D02*
X74847400Y-89753400D01*
X120315100Y-94815000D02*
X120315100Y-97160100D01*
X71270000Y-91110000D02*
X72725100Y-91110000D01*
X72725100Y-108890000D02*
X72782700Y-108947600D01*
X72782700Y-108947600D02*
X75376600Y-108947600D01*
X119536400Y-110588000D02*
X119536400Y-112053900D01*
X119536400Y-112053900D02*
X112978100Y-118612200D01*
X112978100Y-118612200D02*
X110676000Y-118612200D01*
X71270000Y-108890000D02*
X72725100Y-108890000D01*
X80394100Y-104753000D02*
X79838700Y-104197600D01*
X80394100Y-107109000D02*
X80394100Y-104753000D01*
X79838700Y-83070268D02*
X84149302Y-78759666D01*
X84149302Y-78759666D02*
X84149302Y-77349294D01*
X78555500Y-108947600D02*
X80394100Y-107109000D01*
X84149302Y-77349294D02*
X83544507Y-76744499D01*
X75376600Y-108947600D02*
X78555500Y-108947600D01*
X83544507Y-76744499D02*
X83100008Y-76300000D01*
X79838700Y-104197600D02*
X79838700Y-83070268D01*
X117750699Y-79906482D02*
X117900000Y-80055783D01*
X118355000Y-71805000D02*
X117750699Y-72409301D01*
X117750699Y-72409301D02*
X117750699Y-79906482D01*
X117900000Y-80055783D02*
X117900000Y-80684400D01*
X91720500Y-86522000D02*
X91720500Y-92925300D01*
X91720500Y-92925300D02*
X92832300Y-94037100D01*
X101702101Y-85127351D02*
X102006409Y-85431659D01*
X101702101Y-78977899D02*
X101702101Y-85127351D01*
X102006409Y-92173992D02*
X102146600Y-92314183D01*
X102570700Y-75222600D02*
X102570700Y-78109300D01*
X102570700Y-78109300D02*
X101702101Y-78977899D01*
X102006409Y-85431659D02*
X102006409Y-92173992D01*
X102146600Y-92314183D02*
X102146600Y-92942800D01*
X82330700Y-84767600D02*
X86591000Y-89027900D01*
X86591000Y-89027900D02*
X86591000Y-98069700D01*
X86591000Y-98069700D02*
X86794500Y-98273200D01*
X108418400Y-119304800D02*
X109189500Y-118533700D01*
X109189500Y-118533700D02*
X109189500Y-108607400D01*
D10*
X87155900Y-107960000D02*
X87288400Y-107960000D01*
X87288400Y-107960000D02*
X89043000Y-106205400D01*
X89043000Y-106205400D02*
X89043000Y-100300100D01*
X89043000Y-100300100D02*
X88770400Y-100027500D01*
X88770400Y-100027500D02*
X88770400Y-90448100D01*
X88770400Y-90448100D02*
X88441600Y-90119300D01*
X88441600Y-90119300D02*
X88441600Y-86483200D01*
X88441600Y-86483200D02*
X88557100Y-86367700D01*
X88557100Y-86367700D02*
X88557100Y-82930900D01*
X88557100Y-82930900D02*
X88759900Y-82728100D01*
X88759900Y-82728100D02*
X88759900Y-79028100D01*
X88759900Y-79028100D02*
X88570000Y-78838200D01*
X88570000Y-78838200D02*
X88570000Y-78638900D01*
X88570000Y-77140000D02*
X88570000Y-78638900D01*
X85800000Y-107960000D02*
X87155900Y-107960000D01*
X87155900Y-110500000D02*
X89310900Y-108345000D01*
X89310900Y-108345000D02*
X89310900Y-107375000D01*
X89310900Y-107375000D02*
X90059600Y-106626300D01*
X90059600Y-106626300D02*
X90059600Y-99879100D01*
X90059600Y-99879100D02*
X89792500Y-99612000D01*
X89792500Y-99612000D02*
X89792500Y-90032600D01*
X89792500Y-90032600D02*
X89458200Y-89698300D01*
X89458200Y-89698300D02*
X89458200Y-86904200D01*
X89458200Y-86904200D02*
X89573700Y-86788700D01*
X89573700Y-86788700D02*
X89573700Y-83605900D01*
X89573700Y-83605900D02*
X91767500Y-81412100D01*
X91767500Y-81412100D02*
X91767500Y-80334000D01*
X91767500Y-80334000D02*
X93462600Y-78638900D01*
X93462600Y-78638900D02*
X93650000Y-78638900D01*
X85800000Y-110500000D02*
X87155900Y-110500000D01*
X93650000Y-77140000D02*
X93650000Y-78638900D01*
X88534700Y-105994900D02*
X88534700Y-100510600D01*
X88534700Y-100510600D02*
X88259800Y-100235700D01*
X88048800Y-86157200D02*
X88048800Y-82720400D01*
X87933300Y-90329800D02*
X87933300Y-86272700D01*
X88187400Y-79678400D02*
X86030000Y-77521000D01*
X88187400Y-82581800D02*
X88187400Y-79678400D01*
X87104800Y-107294800D02*
X87234800Y-107294800D01*
X86030000Y-77521000D02*
X86030000Y-77140000D01*
X87933300Y-86272700D02*
X88048800Y-86157200D01*
X85800000Y-106690000D02*
X86500000Y-106690000D01*
X86500000Y-106690000D02*
X87104800Y-107294800D01*
X88048800Y-82720400D02*
X88187400Y-82581800D01*
X88259800Y-90656300D02*
X87933300Y-90329800D01*
X88259800Y-100235700D02*
X88259800Y-90656300D01*
X87234800Y-107294800D02*
X88534700Y-105994900D01*
X87155900Y-113040000D02*
X91110000Y-116994100D01*
X91110000Y-116994100D02*
X91110000Y-122860000D01*
X85800000Y-113040000D02*
X87155900Y-113040000D01*
X87155900Y-109230000D02*
X87155900Y-108811200D01*
X87155900Y-108811200D02*
X89551300Y-106415800D01*
X89551300Y-106415800D02*
X89551300Y-100089600D01*
X89551300Y-100089600D02*
X89278800Y-99817100D01*
X89278800Y-99817100D02*
X89278800Y-90237700D01*
X89278800Y-90237700D02*
X88949900Y-89908800D01*
X88949900Y-89908800D02*
X88949900Y-86693700D01*
X88949900Y-86693700D02*
X89065400Y-86578200D01*
X89065400Y-86578200D02*
X89065400Y-83141400D01*
X89065400Y-83141400D02*
X91110000Y-81096800D01*
X91110000Y-81096800D02*
X91110000Y-78638900D01*
X85800000Y-109230000D02*
X87155900Y-109230000D01*
X91110000Y-77140000D02*
X91110000Y-78638900D01*
X86030000Y-122860000D02*
X86030000Y-121361100D01*
X85800000Y-115580000D02*
X87155900Y-115580000D01*
X86030000Y-121361100D02*
X87155900Y-120235200D01*
X87155900Y-120235200D02*
X87155900Y-115580000D01*
X87155900Y-114310000D02*
X88570000Y-115724100D01*
X88570000Y-115724100D02*
X88570000Y-122860000D01*
X85800000Y-114310000D02*
X87155900Y-114310000D01*
X85800000Y-111770000D02*
X87155900Y-111770000D01*
X93650000Y-122860000D02*
X93650000Y-118815100D01*
X93650000Y-118815100D02*
X87155900Y-112321000D01*
X87155900Y-112321000D02*
X87155900Y-111770000D01*
D26*
X72700000Y-98205800D02*
X77701200Y-103207000D01*
X77701200Y-103207000D02*
X77701200Y-103670800D01*
X72700000Y-97051100D02*
X72700000Y-98205800D01*
X112687200Y-121715500D02*
X120619500Y-113783200D01*
X120619500Y-113783200D02*
X120619500Y-107982700D01*
X71270000Y-106350000D02*
X71270000Y-105296800D01*
X70544400Y-96073800D02*
X71258700Y-95359500D01*
X82124294Y-79398829D02*
X82568793Y-78954330D01*
X71567600Y-95359500D02*
X79431900Y-87495200D01*
X79431900Y-82091223D02*
X82124294Y-79398829D01*
X70544400Y-104571200D02*
X70544400Y-96073800D01*
X71258700Y-95359500D02*
X71567600Y-95359500D01*
X79431900Y-87495200D02*
X79431900Y-82091223D01*
X71270000Y-105296800D02*
X70544400Y-104571200D01*
X98280100Y-75098500D02*
X91257400Y-75098500D01*
X91257400Y-75098500D02*
X89840100Y-76515800D01*
X89840100Y-76515800D02*
X89840100Y-78320100D01*
X89840100Y-78320100D02*
X89511900Y-78648300D01*
X98538500Y-117677800D02*
X98862500Y-117353800D01*
X98862500Y-117353800D02*
X98862500Y-106212200D01*
X98862500Y-106212200D02*
X93988700Y-101338400D01*
X93988700Y-101338400D02*
X93988700Y-79785500D01*
X93988700Y-79785500D02*
X94284400Y-79489800D01*
X92568000Y-80710000D02*
X93582000Y-81724000D01*
X93582000Y-81724000D02*
X93582000Y-103593800D01*
X93582000Y-103593800D02*
X93862600Y-103874400D01*
X93862600Y-103874400D02*
X93862600Y-104974300D01*
X93862600Y-104974300D02*
X92693500Y-106143400D01*
X92693500Y-106143400D02*
X91764700Y-106143400D01*
X91764700Y-106143400D02*
X90175100Y-107733000D01*
X90175100Y-107733000D02*
X90175100Y-114255700D01*
X90175100Y-114255700D02*
X94749600Y-118830200D01*
X94749600Y-118830200D02*
X94749600Y-124706100D01*
X71270000Y-111430000D02*
X78280600Y-111430000D01*
X78280600Y-111430000D02*
X83545900Y-106164700D01*
X83545900Y-106164700D02*
X83545900Y-103168000D01*
X90500800Y-85019200D02*
X90500800Y-87261300D01*
X90500800Y-87261300D02*
X91031800Y-87792300D01*
X91031800Y-87792300D02*
X91031800Y-95255400D01*
X91031800Y-95255400D02*
X92107500Y-96331100D01*
X92107500Y-96331100D02*
X92107500Y-98965200D01*
X92107500Y-98965200D02*
X92082700Y-98990000D01*
X92082700Y-98990000D02*
X92082700Y-100389900D01*
X92082700Y-100389900D02*
X92107500Y-100414700D01*
X84555713Y-77805713D02*
X85737300Y-78987300D01*
X71270000Y-88570000D02*
X73794662Y-88570000D01*
X75597100Y-81445722D02*
X82581395Y-74461427D01*
X85737300Y-84811900D02*
X86195801Y-85270401D01*
X75597100Y-86767562D02*
X75597100Y-81445722D01*
X82581395Y-74461427D02*
X83261427Y-74461427D01*
X86195801Y-85270401D02*
X86640300Y-85714900D01*
X73794662Y-88570000D02*
X75597100Y-86767562D01*
X83261427Y-74461427D02*
X84555713Y-75755713D01*
X85737300Y-78987300D02*
X85737300Y-84811900D01*
X84555713Y-75755713D02*
X84555713Y-77805713D01*
X128730000Y-106350000D02*
X128730000Y-105194900D01*
X128730000Y-105194900D02*
X128684800Y-105149700D01*
X128684800Y-105149700D02*
X128684800Y-98862800D01*
X128684800Y-98862800D02*
X127541000Y-97719000D01*
X96674800Y-83036600D02*
X96674800Y-89660200D01*
X96674800Y-89660200D02*
X96622800Y-89712200D01*
X96656100Y-79896500D02*
X96674800Y-79915200D01*
X96674800Y-79915200D02*
X96674800Y-83036600D01*
X72623200Y-93650000D02*
X77894000Y-88379200D01*
X82371387Y-77999994D02*
X82571383Y-77999994D01*
X82571383Y-77999994D02*
X83200000Y-77999994D01*
X77894000Y-82477381D02*
X82371387Y-77999994D01*
X77894000Y-88379200D02*
X77894000Y-82477381D01*
X71270000Y-93650000D02*
X72623200Y-93650000D01*
X119679800Y-87350000D02*
X110890800Y-87350000D01*
X110890800Y-87350000D02*
X110482700Y-87758100D01*
X111348500Y-92666200D02*
X114190600Y-95508300D01*
X114190600Y-95508300D02*
X114190600Y-100134600D01*
X114190600Y-100134600D02*
X114410800Y-100354800D01*
X114410800Y-100354800D02*
X116626300Y-100354800D01*
X116626300Y-100354800D02*
X123052400Y-106780900D01*
X123052400Y-106780900D02*
X123052400Y-106993200D01*
X84516000Y-94168500D02*
X85171200Y-94823700D01*
X85171200Y-94823700D02*
X85171200Y-102328000D01*
X85171200Y-102328000D02*
X85689800Y-102846600D01*
X106100000Y-103500000D02*
X103228000Y-103500000D01*
X103228000Y-103500000D02*
X102849900Y-103878100D01*
X87226000Y-101052700D02*
X85708700Y-99535400D01*
X85708700Y-99535400D02*
X85708700Y-93418800D01*
X85708700Y-93418800D02*
X85148800Y-92858900D01*
X99395600Y-98063700D02*
X98743299Y-98716001D01*
X100000800Y-98063700D02*
X99395600Y-98063700D01*
X98743299Y-99099001D02*
X98298800Y-99543500D01*
X98743299Y-98716001D02*
X98743299Y-99099001D01*
X100581300Y-99557804D02*
X100581300Y-98644200D01*
X103253496Y-102230000D02*
X100581300Y-99557804D01*
X100581300Y-98644200D02*
X100000800Y-98063700D01*
X106100000Y-102230000D02*
X103253496Y-102230000D01*
D27*
X106200000Y-88930500D02*
X106544000Y-89275000D01*
X106544000Y-89275000D02*
X117093000Y-89275000D01*
X117093000Y-89275000D02*
X120416000Y-92597300D01*
X120416000Y-92597300D02*
X120903000Y-92597300D01*
X106200000Y-90069500D02*
X106544000Y-89725000D01*
X106544000Y-89725000D02*
X116907000Y-89725000D01*
X116907000Y-89725000D02*
X120097000Y-92915500D01*
X120097000Y-92915500D02*
X120097000Y-93402700D01*
D26*
X113970000Y-77140000D02*
X113970000Y-77493400D01*
X113970000Y-77493400D02*
X104111000Y-87352400D01*
X104111000Y-87352400D02*
X104111000Y-91399000D01*
X104111000Y-91399000D02*
X110093400Y-97381400D01*
X110093400Y-97381400D02*
X110093400Y-100437200D01*
X110093400Y-100437200D02*
X110715800Y-101059600D01*
X110715800Y-101059600D02*
X110715800Y-102261700D01*
X110715800Y-102261700D02*
X110525300Y-102452200D01*
X110525300Y-102452200D02*
X110525300Y-104505400D01*
X110525300Y-104505400D02*
X110596600Y-104576700D01*
X110596600Y-104576700D02*
X112218800Y-106198900D01*
X112218800Y-106198900D02*
X112218800Y-108449100D01*
X112218800Y-108449100D02*
X114224900Y-110455200D01*
X114224900Y-110455200D02*
X116648700Y-110455200D01*
X116648700Y-110455200D02*
X117211900Y-109892000D01*
X117211900Y-109892000D02*
X117211900Y-105176800D01*
X117211900Y-105176800D02*
X116805100Y-104770000D01*
X115500000Y-104770000D02*
X116805100Y-104770000D01*
X111430000Y-75691900D02*
X114478700Y-75691900D01*
X114478700Y-75691900D02*
X115061200Y-76274400D01*
X115061200Y-76274400D02*
X115061200Y-77968200D01*
X115061200Y-77968200D02*
X107415100Y-85614300D01*
X107415100Y-85614300D02*
X106601300Y-85614300D01*
X106601300Y-85614300D02*
X104588400Y-87627200D01*
X104588400Y-87627200D02*
X104588400Y-90726100D01*
X104588400Y-90726100D02*
X111592700Y-97730400D01*
X111592700Y-97730400D02*
X111592700Y-103452500D01*
X111592700Y-103452500D02*
X111754900Y-103614700D01*
X111754900Y-103614700D02*
X113098900Y-104958700D01*
X113098900Y-104958700D02*
X113098900Y-107912500D01*
X113098900Y-107912500D02*
X114371600Y-109185200D01*
X114371600Y-109185200D02*
X116662900Y-109185200D01*
X116662900Y-109185200D02*
X116805100Y-109043000D01*
X116805100Y-109043000D02*
X116805100Y-106040000D01*
X115500000Y-106040000D02*
X116805100Y-106040000D01*
X111430000Y-77140000D02*
X111430000Y-75691900D01*
X108112800Y-121090400D02*
X107208500Y-120186100D01*
X107208500Y-120186100D02*
X107208500Y-114929300D01*
X107208500Y-114929300D02*
X107405100Y-114732700D01*
X107405100Y-114732700D02*
X107405100Y-113660000D01*
X106100000Y-113660000D02*
X107405100Y-113660000D01*
X99722900Y-98846000D02*
X100167399Y-99290499D01*
X103106000Y-105272200D02*
X104525700Y-105272200D01*
X101911700Y-104077900D02*
X103106000Y-105272200D01*
X104973600Y-110455200D02*
X104794900Y-110633900D01*
X107405100Y-110276400D02*
X107226300Y-110455200D01*
X100167399Y-99290499D02*
X100167399Y-99718653D01*
X107405100Y-111929400D02*
X107405100Y-113660000D01*
X104525700Y-105272200D02*
X104658500Y-105405000D01*
X104794900Y-110633900D02*
X104794900Y-111546400D01*
X104658500Y-105405000D02*
X107233400Y-105405000D01*
X107226300Y-110455200D02*
X104973600Y-110455200D01*
X107233400Y-105405000D02*
X107405100Y-105576700D01*
X107405100Y-105576700D02*
X107405100Y-110276400D01*
X104794900Y-111546400D02*
X104973600Y-111725100D01*
X104973600Y-111725100D02*
X107200800Y-111725100D01*
X101911700Y-101462954D02*
X101911700Y-104077900D01*
X100167399Y-99718653D02*
X101911700Y-101462954D01*
X107200800Y-111725100D02*
X107405100Y-111929400D01*
X92832300Y-99300500D02*
X93148700Y-99616900D01*
X93148700Y-99616900D02*
X93148700Y-103735700D01*
X93148700Y-103735700D02*
X93455900Y-104042900D01*
X93455900Y-104042900D02*
X93455900Y-104733400D01*
X93455900Y-104733400D02*
X92605600Y-105583700D01*
X92605600Y-105583700D02*
X91749200Y-105583700D01*
X91749200Y-105583700D02*
X89768400Y-107564500D01*
X89768400Y-107564500D02*
X89768400Y-108543300D01*
X89768400Y-108543300D02*
X87206500Y-111105200D01*
X87206500Y-111105200D02*
X84664300Y-111105200D01*
X84664300Y-111105200D02*
X84494800Y-111274700D01*
X84494800Y-111274700D02*
X84494800Y-123661200D01*
X84494800Y-123661200D02*
X86289400Y-125455800D01*
X86289400Y-125455800D02*
X106089400Y-125455800D01*
X106089400Y-125455800D02*
X107822800Y-123722400D01*
X107822800Y-123722400D02*
X107822800Y-122301500D01*
X107822800Y-122301500D02*
X104794900Y-119273600D01*
X104794900Y-119273600D02*
X104794900Y-112390000D01*
X111430000Y-124308100D02*
X108408500Y-124308100D01*
X108408500Y-124308100D02*
X107822800Y-123722400D01*
X106100000Y-112390000D02*
X104794900Y-112390000D01*
X111430000Y-122860000D02*
X111430000Y-124308100D01*
X96190000Y-77140000D02*
X96190000Y-77521000D01*
X96190000Y-77521000D02*
X98271900Y-79602900D01*
X98271900Y-85266200D02*
X97913400Y-85624700D01*
X115500000Y-113660000D02*
X114800000Y-113660000D01*
X106346605Y-97049004D02*
X106346605Y-96424565D01*
X110345800Y-106536500D02*
X108774000Y-104964700D01*
X97913400Y-92286402D02*
X101803243Y-96176245D01*
X101803243Y-96176245D02*
X102247742Y-96620744D01*
X108774000Y-104964700D02*
X108774000Y-99476399D01*
X110345800Y-109205800D02*
X110345800Y-106536500D01*
X108774000Y-99476399D02*
X106346605Y-97049004D01*
X97913400Y-85624700D02*
X97913400Y-92286402D01*
X114800000Y-113660000D02*
X110345800Y-109205800D01*
X98271900Y-79602900D02*
X98271900Y-85266200D01*
X114207500Y-114273600D02*
X109939100Y-110005200D01*
X116805100Y-114152800D02*
X116684300Y-114273600D01*
X105263669Y-96540818D02*
X105263669Y-96282522D01*
X116684300Y-114273600D02*
X114207500Y-114273600D01*
X102455721Y-79887300D02*
X102455721Y-80515917D01*
X102455721Y-80515917D02*
X102412820Y-80558818D01*
X105263669Y-95653905D02*
X105263669Y-96282522D01*
X102412820Y-92001720D02*
X105263669Y-94852569D01*
X102412820Y-80558818D02*
X102412820Y-92001720D01*
X105263669Y-94852569D02*
X105263669Y-95653905D01*
X116200000Y-112390000D02*
X116805100Y-112995100D01*
X115500000Y-112390000D02*
X116200000Y-112390000D01*
X109939100Y-106705100D02*
X108367300Y-105133300D01*
X108367300Y-105133300D02*
X108367300Y-99644449D01*
X116805100Y-112995100D02*
X116805100Y-114152800D01*
X108367300Y-99644449D02*
X105263669Y-96540818D01*
X109939100Y-110005200D02*
X109939100Y-106705100D01*
X114194900Y-111120000D02*
X111632300Y-108557400D01*
X111632300Y-108557400D02*
X111632300Y-106672600D01*
X111632300Y-106672600D02*
X109846900Y-104887200D01*
X109846900Y-104887200D02*
X109846900Y-102555400D01*
X109846900Y-102555400D02*
X110306900Y-102095400D01*
X110306900Y-102095400D02*
X110306900Y-101226000D01*
X110306900Y-101226000D02*
X109686700Y-100605800D01*
X109686700Y-100605800D02*
X109686700Y-98752900D01*
X109686700Y-98752900D02*
X109119700Y-98185900D01*
X115500000Y-111120000D02*
X114194900Y-111120000D01*
X101100000Y-78656200D02*
X101270000Y-78486200D01*
X101100000Y-85439634D02*
X101100000Y-78656200D01*
X103642968Y-97442968D02*
X103642968Y-96581331D01*
X104055501Y-97855501D02*
X103642968Y-97442968D01*
X104900000Y-98300000D02*
X104455501Y-97855501D01*
X101100000Y-93200000D02*
X101100000Y-86904166D01*
X101270000Y-78486200D02*
X101270000Y-77140000D01*
X103642968Y-96581331D02*
X103700000Y-96524299D01*
X101472601Y-85812235D02*
X101100000Y-85439634D01*
X103700000Y-95800000D02*
X101100000Y-93200000D01*
X104455501Y-97855501D02*
X104055501Y-97855501D01*
X101100000Y-86904166D02*
X101472601Y-86531565D01*
X103700000Y-96524299D02*
X103700000Y-95800000D01*
X101472601Y-86531565D02*
X101472601Y-85812235D01*
X114194900Y-109850000D02*
X112648400Y-108303500D01*
X112648400Y-108303500D02*
X112648400Y-105568300D01*
X112648400Y-105568300D02*
X110989800Y-103909700D01*
X110989800Y-103909700D02*
X110989800Y-102562900D01*
X110989800Y-102562900D02*
X111186000Y-102366700D01*
X111186000Y-102366700D02*
X111186000Y-100067900D01*
X111186000Y-100067900D02*
X110843100Y-99725000D01*
X115500000Y-109850000D02*
X114194900Y-109850000D01*
X103810000Y-83914252D02*
X102819231Y-84905021D01*
X102819231Y-91832831D02*
X107351818Y-96365418D01*
X103810000Y-77140000D02*
X103810000Y-83914252D01*
X107351818Y-96365418D02*
X107351818Y-96851734D01*
X102819231Y-84905021D02*
X102819231Y-91832831D01*
X106350000Y-75691900D02*
X107798100Y-75691900D01*
X107798100Y-75691900D02*
X108253400Y-75236600D01*
X108253400Y-75236600D02*
X114654200Y-75236600D01*
X114654200Y-75236600D02*
X115481100Y-76063500D01*
X115481100Y-76063500D02*
X115481100Y-78130400D01*
X115481100Y-78130400D02*
X107590500Y-86021000D01*
X107590500Y-86021000D02*
X106791000Y-86021000D01*
X106791000Y-86021000D02*
X104995200Y-87816800D01*
X104995200Y-87816800D02*
X104995200Y-90521900D01*
X104995200Y-90521900D02*
X112127300Y-97654000D01*
X112127300Y-97654000D02*
X112127300Y-101331300D01*
X112127300Y-101331300D02*
X112342400Y-101331300D01*
X112127300Y-101331300D02*
X112127300Y-102907600D01*
X112127300Y-102907600D02*
X113731100Y-104511400D01*
X113731100Y-104511400D02*
X113731100Y-107501200D01*
X113731100Y-107501200D02*
X114809900Y-108580000D01*
X114809900Y-108580000D02*
X115500000Y-108580000D01*
X106350000Y-77140000D02*
X106350000Y-75691900D01*
X114194900Y-107310000D02*
X114194900Y-104284200D01*
X114194900Y-104284200D02*
X114314300Y-104164800D01*
X114314300Y-104164800D02*
X116837500Y-104164800D01*
X116837500Y-104164800D02*
X117660700Y-104988000D01*
X117660700Y-104988000D02*
X117660700Y-110712900D01*
X117660700Y-110712900D02*
X116648400Y-111725200D01*
X116648400Y-111725200D02*
X114198300Y-111725200D01*
X114198300Y-111725200D02*
X110752500Y-108279400D01*
X110752500Y-108279400D02*
X110752500Y-106368000D01*
X110752500Y-106368000D02*
X109439900Y-105055400D01*
X109439900Y-105055400D02*
X109439900Y-101586500D01*
X109439900Y-101586500D02*
X109523600Y-101502800D01*
X115500000Y-107310000D02*
X114194900Y-107310000D01*
X103258600Y-85040403D02*
X103258600Y-91697000D01*
X108311700Y-96750100D02*
X108311700Y-98437900D01*
X103258600Y-91697000D02*
X108311700Y-96750100D01*
X109280000Y-101259200D02*
X109523600Y-101502800D01*
X108890000Y-77140000D02*
X108890000Y-79409003D01*
X108311700Y-98437900D02*
X109280000Y-99406200D01*
X109280000Y-99406200D02*
X109280000Y-101259200D01*
X108890000Y-79409003D02*
X103258600Y-85040403D01*
X106350000Y-122860000D02*
X106350000Y-124308100D01*
X106350000Y-124308100D02*
X98271800Y-124308100D01*
X98271800Y-124308100D02*
X97618000Y-123654300D01*
X97618000Y-123654300D02*
X97618000Y-120504500D01*
X97618000Y-120504500D02*
X99696600Y-118425900D01*
X99696600Y-118425900D02*
X99696600Y-104683900D01*
X99696600Y-104683900D02*
X97551000Y-102538300D01*
X106350000Y-122860000D02*
X106350000Y-122391200D01*
X104794900Y-109850000D02*
X104388200Y-110256700D01*
X104388200Y-110256700D02*
X104388200Y-119450100D01*
X104388200Y-119450100D02*
X106350000Y-121411900D01*
X106350000Y-122391200D02*
X106350000Y-121411900D01*
X106100000Y-109850000D02*
X104794900Y-109850000D01*
X108890000Y-121411900D02*
X108890000Y-120807400D01*
X108890000Y-120807400D02*
X108423400Y-120340800D01*
X108423400Y-120340800D02*
X108394100Y-120340800D01*
X108394100Y-120340800D02*
X107631300Y-119578000D01*
X107631300Y-119578000D02*
X107631300Y-115373200D01*
X107631300Y-115373200D02*
X107819600Y-115184900D01*
X107819600Y-115184900D02*
X107819600Y-111534500D01*
X107819600Y-111534500D02*
X107405100Y-111120000D01*
X106100000Y-111120000D02*
X107405100Y-111120000D01*
X108890000Y-122860000D02*
X108890000Y-121411900D01*
X107821700Y-99673600D02*
X105600403Y-97452303D01*
X107821700Y-110703400D02*
X107821700Y-99673600D01*
X105600403Y-97452303D02*
X104903576Y-97452303D01*
X104903576Y-97452303D02*
X104836768Y-97385495D01*
X107405100Y-111120000D02*
X107821700Y-110703400D01*
X104836768Y-97385495D02*
X104392269Y-96940996D01*
X104299400Y-106106200D02*
X102761400Y-107644200D01*
X102761400Y-107644200D02*
X102761400Y-118084500D01*
X102761400Y-118084500D02*
X99434000Y-121411900D01*
X99434000Y-121411900D02*
X98730000Y-121411900D01*
X98730000Y-122860000D02*
X98730000Y-121411900D01*
X104794900Y-106040000D02*
X104365600Y-106040000D01*
X104365600Y-106040000D02*
X104299400Y-106106200D01*
X106100000Y-106040000D02*
X104794900Y-106040000D01*
X106100000Y-107310000D02*
X104794900Y-107310000D01*
X101270000Y-122860000D02*
X101270000Y-121411900D01*
X101270000Y-121411900D02*
X103292700Y-119389200D01*
X103292700Y-119389200D02*
X103292700Y-108812200D01*
X103292700Y-108812200D02*
X104794900Y-107310000D01*
X98931300Y-101753300D02*
X100107300Y-102929300D01*
X100107300Y-102929300D02*
X100107300Y-118590500D01*
X100107300Y-118590500D02*
X99297100Y-119400700D01*
X99297100Y-119400700D02*
X99297100Y-120459400D01*
X104794900Y-104770000D02*
X104419100Y-104394200D01*
X104419100Y-104394200D02*
X103907600Y-104394200D01*
X106100000Y-104770000D02*
X104794900Y-104770000D01*
X104611611Y-100855728D02*
X104611611Y-100424089D01*
X102253074Y-99165474D02*
X102253074Y-100014374D01*
X95869300Y-89060500D02*
X95869300Y-92781700D01*
X96190000Y-122860000D02*
X96190000Y-121117700D01*
X94395400Y-100594600D02*
X94395400Y-83977200D01*
X106800000Y-104770000D02*
X106100000Y-104770000D01*
X95929000Y-89000800D02*
X95869300Y-89060500D01*
X95869300Y-92781700D02*
X102253074Y-99165474D01*
X99289800Y-105489000D02*
X94395400Y-100594600D01*
X99289800Y-118017900D02*
X99289800Y-105489000D01*
X104611611Y-100424089D02*
X104680900Y-100354800D01*
X104203402Y-101263937D02*
X104611611Y-100855728D01*
X107268300Y-100354800D02*
X107405100Y-100491600D01*
X96190000Y-121117700D02*
X99289800Y-118017900D01*
X94395400Y-83977200D02*
X94871100Y-83501500D01*
X107405100Y-104164900D02*
X106800000Y-104770000D01*
X94871100Y-83501500D02*
X95534800Y-83501500D01*
X104680900Y-100354800D02*
X107268300Y-100354800D01*
X95929000Y-83895700D02*
X95929000Y-89000800D01*
X107405100Y-100491600D02*
X107405100Y-104164900D01*
X102253074Y-100014374D02*
X103502637Y-101263937D01*
X103502637Y-101263937D02*
X104203402Y-101263937D01*
X95534800Y-83501500D02*
X95929000Y-83895700D01*
X100041000Y-101343300D02*
X100520900Y-101823200D01*
X100520900Y-101823200D02*
X100520900Y-119237200D01*
X100520900Y-119237200D02*
X100448600Y-119309500D01*
X104794900Y-108580000D02*
X103810000Y-109564900D01*
X103810000Y-109564900D02*
X103810000Y-121411900D01*
X103810000Y-122860000D02*
X103810000Y-121411900D01*
X105447500Y-108580000D02*
X106100000Y-108580000D01*
X105447500Y-108580000D02*
X104794900Y-108580000D01*
X108976800Y-106803100D02*
X108396300Y-107383600D01*
X108396300Y-107383600D02*
X108396300Y-115804000D01*
X113841700Y-100960000D02*
X115500000Y-100960000D01*
X103417803Y-100070137D02*
X103862302Y-100514636D01*
X102659485Y-98736785D02*
X102659485Y-99311819D01*
X97485200Y-93562500D02*
X102659485Y-98736785D01*
X102659485Y-99311819D02*
X103417803Y-100070137D01*
X97485200Y-83792800D02*
X97485200Y-93562500D01*
X95179400Y-84275900D02*
X95179400Y-99255300D01*
X95179400Y-99255300D02*
X97712800Y-101788700D01*
X97712800Y-101788700D02*
X97861600Y-101788700D01*
X97861600Y-101788700D02*
X99047900Y-102975000D01*
X114194900Y-102230000D02*
X113958600Y-102466300D01*
X113958600Y-102466300D02*
X113340400Y-102466300D01*
X115500000Y-102230000D02*
X114194900Y-102230000D01*
X91357900Y-96944200D02*
X91357900Y-103005100D01*
X91357900Y-103005100D02*
X92706300Y-104353500D01*
X115500000Y-103500000D02*
X113295000Y-103500000D01*
X113295000Y-103500000D02*
X112559200Y-102764200D01*
X112559200Y-102764200D02*
X112559200Y-102174700D01*
X112559200Y-102174700D02*
X113092000Y-101641900D01*
X113092000Y-101641900D02*
X113092000Y-98118000D01*
X90258600Y-89366800D02*
X90258600Y-95844900D01*
X90258600Y-95844900D02*
X91357900Y-96944200D01*
X97429000Y-100441900D02*
X100239300Y-100441900D01*
X100239300Y-100441900D02*
X101284400Y-101487000D01*
X101284400Y-101487000D02*
X101284400Y-108384200D01*
X106100000Y-100960000D02*
X105400000Y-100960000D01*
X97429000Y-99813283D02*
X97429000Y-100441900D01*
X101846663Y-99334263D02*
X100119900Y-97607500D01*
X100119900Y-97607500D02*
X99174600Y-97607500D01*
X103268595Y-101670348D02*
X101846663Y-100248416D01*
X99174600Y-97607500D02*
X97429000Y-99353100D01*
X105400000Y-100960000D02*
X104689652Y-101670348D01*
X97429000Y-99353100D02*
X97429000Y-99813283D01*
X101846663Y-100248416D02*
X101846663Y-99334263D01*
X104689652Y-101670348D02*
X103268595Y-101670348D01*
X93894900Y-106690000D02*
X92278200Y-106690000D01*
X92278200Y-106690000D02*
X90924700Y-108043500D01*
X95200000Y-106690000D02*
X93894900Y-106690000D01*
X96505100Y-107960000D02*
X96885600Y-107579500D01*
X96885600Y-107579500D02*
X97221800Y-107579500D01*
X97221800Y-107579500D02*
X97221800Y-107579400D01*
X95200000Y-107960000D02*
X96505100Y-107960000D01*
X93894900Y-109230000D02*
X93894900Y-109496600D01*
X93894900Y-109496600D02*
X93569600Y-109821900D01*
X95200000Y-109230000D02*
X93894900Y-109230000D01*
X95200000Y-110500000D02*
X96505100Y-110500000D01*
X96505100Y-110500000D02*
X96505100Y-110146100D01*
X96505100Y-110146100D02*
X97230500Y-109420700D01*
X95200000Y-111770000D02*
X96505100Y-111770000D01*
X96505100Y-111770000D02*
X96505100Y-111582200D01*
X96505100Y-111582200D02*
X97253400Y-110833900D01*
X95200000Y-113040000D02*
X96505100Y-113040000D01*
X96505100Y-113040000D02*
X96505100Y-112858100D01*
X96505100Y-112858100D02*
X97266900Y-112096300D01*
X93894900Y-114310000D02*
X93894900Y-113909400D01*
X93894900Y-113909400D02*
X93546200Y-113560700D01*
X95200000Y-114310000D02*
X93894900Y-114310000D01*
X96505100Y-115580000D02*
X96505100Y-114649400D01*
X96505100Y-114649400D02*
X97228600Y-113925900D01*
X95200000Y-115580000D02*
X96505100Y-115580000D01*
D28*
G36*
X126060201Y-112147441D02*
X126041790Y-112240000D01*
X126114729Y-112606692D01*
X126270012Y-112839089D01*
X126270015Y-112839092D01*
X126322444Y-112917557D01*
X126400908Y-112969986D01*
X126996377Y-113565454D01*
X126915908Y-113970000D01*
X127031161Y-114549418D01*
X127359375Y-115040625D01*
X127381033Y-115055096D01*
X127220302Y-115121673D01*
X127041673Y-115300301D01*
X126945000Y-115533690D01*
X126945000Y-116224250D01*
X127103750Y-116383000D01*
X128603000Y-116383000D01*
X128603000Y-116363000D01*
X128857000Y-116363000D01*
X128857000Y-116383000D01*
X128877000Y-116383000D01*
X128877000Y-116637000D01*
X128857000Y-116637000D01*
X128857000Y-117836250D01*
X129015750Y-117995000D01*
X129174501Y-117995000D01*
X129174501Y-125958172D01*
X129105501Y-126637469D01*
X128913891Y-127248894D01*
X128603250Y-127809305D01*
X128186270Y-128295805D01*
X127679977Y-128688526D01*
X127105060Y-128971421D01*
X126475153Y-129135499D01*
X125968289Y-129174500D01*
X117995000Y-129174500D01*
X117995000Y-129015750D01*
X117836250Y-128857000D01*
X116637000Y-128857000D01*
X116637000Y-128877000D01*
X116383000Y-128877000D01*
X116383000Y-128857000D01*
X116363000Y-128857000D01*
X116363000Y-128603000D01*
X116383000Y-128603000D01*
X116383000Y-127103750D01*
X116637000Y-127103750D01*
X116637000Y-128603000D01*
X117836250Y-128603000D01*
X117995000Y-128444250D01*
X117995000Y-127453691D01*
X117898327Y-127220302D01*
X117719699Y-127041673D01*
X117486310Y-126945000D01*
X116795750Y-126945000D01*
X116637000Y-127103750D01*
X116383000Y-127103750D01*
X116224250Y-126945000D01*
X115533690Y-126945000D01*
X115300301Y-127041673D01*
X115121673Y-127220302D01*
X115055096Y-127381033D01*
X115040625Y-127359375D01*
X114549417Y-127031161D01*
X113970000Y-126915908D01*
X113565454Y-126996377D01*
X112969988Y-126400910D01*
X112917557Y-126322443D01*
X112805368Y-126247480D01*
X112744529Y-126206829D01*
X112606691Y-126114728D01*
X112332559Y-126060200D01*
X112332554Y-126060200D01*
X112240000Y-126041790D01*
X112147446Y-126060200D01*
X106510694Y-126060200D01*
X106620458Y-125986858D01*
X106661551Y-125925358D01*
X107822800Y-124764110D01*
X107836350Y-124777660D01*
X107877442Y-124839158D01*
X107938939Y-124880249D01*
X107938941Y-124880251D01*
X108097566Y-124986241D01*
X108121093Y-125001961D01*
X108335956Y-125044700D01*
X108335959Y-125044700D01*
X108408500Y-125059129D01*
X108481040Y-125044700D01*
X111357456Y-125044700D01*
X111430000Y-125059130D01*
X111502544Y-125044700D01*
X111717407Y-125001961D01*
X111961058Y-124839158D01*
X112123861Y-124595507D01*
X112155513Y-124436384D01*
X112437180Y-124248180D01*
X112700000Y-123854842D01*
X112955833Y-124237723D01*
X112660544Y-124533012D01*
X112496200Y-124929774D01*
X112496200Y-125359226D01*
X112660544Y-125755988D01*
X112964212Y-126059656D01*
X113360974Y-126224000D01*
X113790426Y-126224000D01*
X114187188Y-126059656D01*
X114490856Y-125755988D01*
X114655200Y-125359226D01*
X114655200Y-125106709D01*
X115584412Y-124177497D01*
X120865000Y-124177497D01*
X120865000Y-125822503D01*
X121494517Y-127342289D01*
X122657711Y-128505483D01*
X124177497Y-129135000D01*
X125822503Y-129135000D01*
X127342289Y-128505483D01*
X128505483Y-127342289D01*
X129135000Y-125822503D01*
X129135000Y-124177497D01*
X128505483Y-122657711D01*
X127342289Y-121494517D01*
X125822503Y-120865000D01*
X124177497Y-120865000D01*
X122657711Y-121494517D01*
X121494517Y-122657711D01*
X120865000Y-124177497D01*
X115584412Y-124177497D01*
X122966159Y-116795750D01*
X126945000Y-116795750D01*
X126945000Y-117486310D01*
X127041673Y-117719699D01*
X127220302Y-117898327D01*
X127453691Y-117995000D01*
X128444250Y-117995000D01*
X128603000Y-117836250D01*
X128603000Y-116637000D01*
X127103750Y-116637000D01*
X126945000Y-116795750D01*
X122966159Y-116795750D01*
X124284361Y-115477549D01*
X124345858Y-115436458D01*
X124386949Y-115374961D01*
X124386951Y-115374959D01*
X124508661Y-115192807D01*
X124511117Y-115180458D01*
X124551400Y-114977944D01*
X124551400Y-114977941D01*
X124565829Y-114905401D01*
X124551400Y-114832860D01*
X124551400Y-109171482D01*
X124639803Y-109208100D01*
X125160197Y-109208100D01*
X125640979Y-109008953D01*
X126008953Y-108640979D01*
X126060200Y-108517257D01*
X126060201Y-112147441D01*
X126060201Y-112147441D01*
G37*
X126060201Y-112147441D02*
X126041790Y-112240000D01*
X126114729Y-112606692D01*
X126270012Y-112839089D01*
X126270015Y-112839092D01*
X126322444Y-112917557D01*
X126400908Y-112969986D01*
X126996377Y-113565454D01*
X126915908Y-113970000D01*
X127031161Y-114549418D01*
X127359375Y-115040625D01*
X127381033Y-115055096D01*
X127220302Y-115121673D01*
X127041673Y-115300301D01*
X126945000Y-115533690D01*
X126945000Y-116224250D01*
X127103750Y-116383000D01*
X128603000Y-116383000D01*
X128603000Y-116363000D01*
X128857000Y-116363000D01*
X128857000Y-116383000D01*
X128877000Y-116383000D01*
X128877000Y-116637000D01*
X128857000Y-116637000D01*
X128857000Y-117836250D01*
X129015750Y-117995000D01*
X129174501Y-117995000D01*
X129174501Y-125958172D01*
X129105501Y-126637469D01*
X128913891Y-127248894D01*
X128603250Y-127809305D01*
X128186270Y-128295805D01*
X127679977Y-128688526D01*
X127105060Y-128971421D01*
X126475153Y-129135499D01*
X125968289Y-129174500D01*
X117995000Y-129174500D01*
X117995000Y-129015750D01*
X117836250Y-128857000D01*
X116637000Y-128857000D01*
X116637000Y-128877000D01*
X116383000Y-128877000D01*
X116383000Y-128857000D01*
X116363000Y-128857000D01*
X116363000Y-128603000D01*
X116383000Y-128603000D01*
X116383000Y-127103750D01*
X116637000Y-127103750D01*
X116637000Y-128603000D01*
X117836250Y-128603000D01*
X117995000Y-128444250D01*
X117995000Y-127453691D01*
X117898327Y-127220302D01*
X117719699Y-127041673D01*
X117486310Y-126945000D01*
X116795750Y-126945000D01*
X116637000Y-127103750D01*
X116383000Y-127103750D01*
X116224250Y-126945000D01*
X115533690Y-126945000D01*
X115300301Y-127041673D01*
X115121673Y-127220302D01*
X115055096Y-127381033D01*
X115040625Y-127359375D01*
X114549417Y-127031161D01*
X113970000Y-126915908D01*
X113565454Y-126996377D01*
X112969988Y-126400910D01*
X112917557Y-126322443D01*
X112805368Y-126247480D01*
X112744529Y-126206829D01*
X112606691Y-126114728D01*
X112332559Y-126060200D01*
X112332554Y-126060200D01*
X112240000Y-126041790D01*
X112147446Y-126060200D01*
X106510694Y-126060200D01*
X106620458Y-125986858D01*
X106661551Y-125925358D01*
X107822800Y-124764110D01*
X107836350Y-124777660D01*
X107877442Y-124839158D01*
X107938939Y-124880249D01*
X107938941Y-124880251D01*
X108097566Y-124986241D01*
X108121093Y-125001961D01*
X108335956Y-125044700D01*
X108335959Y-125044700D01*
X108408500Y-125059129D01*
X108481040Y-125044700D01*
X111357456Y-125044700D01*
X111430000Y-125059130D01*
X111502544Y-125044700D01*
X111717407Y-125001961D01*
X111961058Y-124839158D01*
X112123861Y-124595507D01*
X112155513Y-124436384D01*
X112437180Y-124248180D01*
X112700000Y-123854842D01*
X112955833Y-124237723D01*
X112660544Y-124533012D01*
X112496200Y-124929774D01*
X112496200Y-125359226D01*
X112660544Y-125755988D01*
X112964212Y-126059656D01*
X113360974Y-126224000D01*
X113790426Y-126224000D01*
X114187188Y-126059656D01*
X114490856Y-125755988D01*
X114655200Y-125359226D01*
X114655200Y-125106709D01*
X115584412Y-124177497D01*
X120865000Y-124177497D01*
X120865000Y-125822503D01*
X121494517Y-127342289D01*
X122657711Y-128505483D01*
X124177497Y-129135000D01*
X125822503Y-129135000D01*
X127342289Y-128505483D01*
X128505483Y-127342289D01*
X129135000Y-125822503D01*
X129135000Y-124177497D01*
X128505483Y-122657711D01*
X127342289Y-121494517D01*
X125822503Y-120865000D01*
X124177497Y-120865000D01*
X122657711Y-121494517D01*
X121494517Y-122657711D01*
X120865000Y-124177497D01*
X115584412Y-124177497D01*
X122966159Y-116795750D01*
X126945000Y-116795750D01*
X126945000Y-117486310D01*
X127041673Y-117719699D01*
X127220302Y-117898327D01*
X127453691Y-117995000D01*
X128444250Y-117995000D01*
X128603000Y-117836250D01*
X128603000Y-116637000D01*
X127103750Y-116637000D01*
X126945000Y-116795750D01*
X122966159Y-116795750D01*
X124284361Y-115477549D01*
X124345858Y-115436458D01*
X124386949Y-115374961D01*
X124386951Y-115374959D01*
X124508661Y-115192807D01*
X124511117Y-115180458D01*
X124551400Y-114977944D01*
X124551400Y-114977941D01*
X124565829Y-114905401D01*
X124551400Y-114832860D01*
X124551400Y-109171482D01*
X124639803Y-109208100D01*
X125160197Y-109208100D01*
X125640979Y-109008953D01*
X126008953Y-108640979D01*
X126060200Y-108517257D01*
X126060201Y-112147441D01*
G36*
X84152560Y-106990000D02*
X84201843Y-107237765D01*
X84260132Y-107325000D01*
X84201843Y-107412235D01*
X84152560Y-107660000D01*
X84152560Y-108260000D01*
X84201843Y-108507765D01*
X84260132Y-108595000D01*
X84201843Y-108682235D01*
X84152560Y-108930000D01*
X84152560Y-109530000D01*
X84201843Y-109777765D01*
X84260132Y-109865000D01*
X84201843Y-109952235D01*
X84152560Y-110200000D01*
X84152560Y-110561234D01*
X84133242Y-110574142D01*
X84092149Y-110635642D01*
X84025242Y-110702549D01*
X83963742Y-110743642D01*
X83922649Y-110805142D01*
X83914196Y-110817793D01*
X83800939Y-110987294D01*
X83758200Y-111202157D01*
X83758200Y-111202160D01*
X83743771Y-111274700D01*
X83758200Y-111347240D01*
X83758201Y-123575760D01*
X82390315Y-123575760D01*
X82390315Y-126996104D01*
X82280301Y-127041673D01*
X82101673Y-127220302D01*
X82005000Y-127453691D01*
X82005000Y-128444250D01*
X82163750Y-128603000D01*
X83363000Y-128603000D01*
X83363000Y-128583000D01*
X83617000Y-128583000D01*
X83617000Y-128603000D01*
X83637000Y-128603000D01*
X83637000Y-128857000D01*
X83617000Y-128857000D01*
X83617000Y-128877000D01*
X83363000Y-128877000D01*
X83363000Y-128857000D01*
X82163750Y-128857000D01*
X82005000Y-129015750D01*
X82005000Y-129174500D01*
X74041818Y-129174500D01*
X73362531Y-129105501D01*
X72751106Y-128913891D01*
X72190695Y-128603250D01*
X71704195Y-128186270D01*
X71311474Y-127679977D01*
X71028579Y-127105060D01*
X70864501Y-126475153D01*
X70825500Y-125968289D01*
X70825500Y-124177497D01*
X70865000Y-124177497D01*
X70865000Y-125822503D01*
X71494517Y-127342289D01*
X72657711Y-128505483D01*
X74177497Y-129135000D01*
X75822503Y-129135000D01*
X77342289Y-128505483D01*
X78505483Y-127342289D01*
X79135000Y-125822503D01*
X79135000Y-124177497D01*
X78505483Y-122657711D01*
X77342289Y-121494517D01*
X75822503Y-120865000D01*
X74177497Y-120865000D01*
X72657711Y-121494517D01*
X71494517Y-122657711D01*
X70865000Y-124177497D01*
X70825500Y-124177497D01*
X70825500Y-117995000D01*
X70984250Y-117995000D01*
X71143000Y-117836250D01*
X71143000Y-116637000D01*
X71397000Y-116637000D01*
X71397000Y-117836250D01*
X71555750Y-117995000D01*
X72546309Y-117995000D01*
X72779698Y-117898327D01*
X72958327Y-117719699D01*
X73055000Y-117486310D01*
X73055000Y-116795750D01*
X72896250Y-116637000D01*
X71397000Y-116637000D01*
X71143000Y-116637000D01*
X71123000Y-116637000D01*
X71123000Y-116383000D01*
X71143000Y-116383000D01*
X71143000Y-116363000D01*
X71397000Y-116363000D01*
X71397000Y-116383000D01*
X72896250Y-116383000D01*
X73055000Y-116224250D01*
X73055000Y-115533690D01*
X72958327Y-115300301D01*
X72779698Y-115121673D01*
X72618967Y-115055096D01*
X72640625Y-115040625D01*
X72968839Y-114549418D01*
X73084092Y-113970000D01*
X72968839Y-113390582D01*
X72640625Y-112899375D01*
X72342239Y-112700000D01*
X72640625Y-112500625D01*
X72863813Y-112166600D01*
X78208060Y-112166600D01*
X78280600Y-112181029D01*
X78353140Y-112166600D01*
X78353144Y-112166600D01*
X78568007Y-112123861D01*
X78811658Y-111961058D01*
X78852751Y-111899558D01*
X84015461Y-106736849D01*
X84076958Y-106695758D01*
X84118049Y-106634261D01*
X84118051Y-106634259D01*
X84152560Y-106582613D01*
X84152560Y-106990000D01*
X84152560Y-106990000D01*
G37*
X84152560Y-106990000D02*
X84201843Y-107237765D01*
X84260132Y-107325000D01*
X84201843Y-107412235D01*
X84152560Y-107660000D01*
X84152560Y-108260000D01*
X84201843Y-108507765D01*
X84260132Y-108595000D01*
X84201843Y-108682235D01*
X84152560Y-108930000D01*
X84152560Y-109530000D01*
X84201843Y-109777765D01*
X84260132Y-109865000D01*
X84201843Y-109952235D01*
X84152560Y-110200000D01*
X84152560Y-110561234D01*
X84133242Y-110574142D01*
X84092149Y-110635642D01*
X84025242Y-110702549D01*
X83963742Y-110743642D01*
X83922649Y-110805142D01*
X83914196Y-110817793D01*
X83800939Y-110987294D01*
X83758200Y-111202157D01*
X83758200Y-111202160D01*
X83743771Y-111274700D01*
X83758200Y-111347240D01*
X83758201Y-123575760D01*
X82390315Y-123575760D01*
X82390315Y-126996104D01*
X82280301Y-127041673D01*
X82101673Y-127220302D01*
X82005000Y-127453691D01*
X82005000Y-128444250D01*
X82163750Y-128603000D01*
X83363000Y-128603000D01*
X83363000Y-128583000D01*
X83617000Y-128583000D01*
X83617000Y-128603000D01*
X83637000Y-128603000D01*
X83637000Y-128857000D01*
X83617000Y-128857000D01*
X83617000Y-128877000D01*
X83363000Y-128877000D01*
X83363000Y-128857000D01*
X82163750Y-128857000D01*
X82005000Y-129015750D01*
X82005000Y-129174500D01*
X74041818Y-129174500D01*
X73362531Y-129105501D01*
X72751106Y-128913891D01*
X72190695Y-128603250D01*
X71704195Y-128186270D01*
X71311474Y-127679977D01*
X71028579Y-127105060D01*
X70864501Y-126475153D01*
X70825500Y-125968289D01*
X70825500Y-124177497D01*
X70865000Y-124177497D01*
X70865000Y-125822503D01*
X71494517Y-127342289D01*
X72657711Y-128505483D01*
X74177497Y-129135000D01*
X75822503Y-129135000D01*
X77342289Y-128505483D01*
X78505483Y-127342289D01*
X79135000Y-125822503D01*
X79135000Y-124177497D01*
X78505483Y-122657711D01*
X77342289Y-121494517D01*
X75822503Y-120865000D01*
X74177497Y-120865000D01*
X72657711Y-121494517D01*
X71494517Y-122657711D01*
X70865000Y-124177497D01*
X70825500Y-124177497D01*
X70825500Y-117995000D01*
X70984250Y-117995000D01*
X71143000Y-117836250D01*
X71143000Y-116637000D01*
X71397000Y-116637000D01*
X71397000Y-117836250D01*
X71555750Y-117995000D01*
X72546309Y-117995000D01*
X72779698Y-117898327D01*
X72958327Y-117719699D01*
X73055000Y-117486310D01*
X73055000Y-116795750D01*
X72896250Y-116637000D01*
X71397000Y-116637000D01*
X71143000Y-116637000D01*
X71123000Y-116637000D01*
X71123000Y-116383000D01*
X71143000Y-116383000D01*
X71143000Y-116363000D01*
X71397000Y-116363000D01*
X71397000Y-116383000D01*
X72896250Y-116383000D01*
X73055000Y-116224250D01*
X73055000Y-115533690D01*
X72958327Y-115300301D01*
X72779698Y-115121673D01*
X72618967Y-115055096D01*
X72640625Y-115040625D01*
X72968839Y-114549418D01*
X73084092Y-113970000D01*
X72968839Y-113390582D01*
X72640625Y-112899375D01*
X72342239Y-112700000D01*
X72640625Y-112500625D01*
X72863813Y-112166600D01*
X78208060Y-112166600D01*
X78280600Y-112181029D01*
X78353140Y-112166600D01*
X78353144Y-112166600D01*
X78568007Y-112123861D01*
X78811658Y-111961058D01*
X78852751Y-111899558D01*
X84015461Y-106736849D01*
X84076958Y-106695758D01*
X84118049Y-106634261D01*
X84118051Y-106634259D01*
X84152560Y-106582613D01*
X84152560Y-106990000D01*
G36*
X105100910Y-126270012D02*
X105100908Y-126270014D01*
X105022443Y-126322443D01*
X104970014Y-126400908D01*
X103610723Y-127760200D01*
X96389278Y-127760200D01*
X95029988Y-126400910D01*
X94977557Y-126322443D01*
X94865368Y-126247480D01*
X94804529Y-126206829D01*
X94782935Y-126192400D01*
X105217064Y-126192400D01*
X105100910Y-126270012D01*
X105100910Y-126270012D01*
G37*
X105100910Y-126270012D02*
X105100908Y-126270014D01*
X105022443Y-126322443D01*
X104970014Y-126400908D01*
X103610723Y-127760200D01*
X96389278Y-127760200D01*
X95029988Y-126400910D01*
X94977557Y-126322443D01*
X94865368Y-126247480D01*
X94804529Y-126206829D01*
X94782935Y-126192400D01*
X105217064Y-126192400D01*
X105100910Y-126270012D01*
G36*
X126060200Y-105589278D02*
X126060200Y-105595786D01*
X126047095Y-105576173D01*
X126060200Y-105589278D01*
X126060200Y-105589278D01*
G37*
X126060200Y-105589278D02*
X126060200Y-105595786D01*
X126047095Y-105576173D01*
X126060200Y-105589278D01*
G36*
X84282500Y-105588250D02*
X84282500Y-105547002D01*
X84323748Y-105547002D01*
X84282500Y-105588250D01*
X84282500Y-105588250D01*
G37*
X84282500Y-105588250D02*
X84282500Y-105547002D01*
X84323748Y-105547002D01*
X84282500Y-105588250D01*
G36*
X86146500Y-101014910D02*
X86146500Y-101267426D01*
X86310844Y-101664188D01*
X86614512Y-101967856D01*
X87011274Y-102132200D01*
X87239001Y-102132200D01*
X87239000Y-104660975D01*
X87159698Y-104581673D01*
X86926309Y-104485000D01*
X86085750Y-104485000D01*
X85927000Y-104643750D01*
X85927000Y-105293000D01*
X85947000Y-105293000D01*
X85947000Y-105547000D01*
X85927000Y-105547000D01*
X85927000Y-105567000D01*
X85673000Y-105567000D01*
X85673000Y-105547000D01*
X85653000Y-105547000D01*
X85653000Y-105293000D01*
X85673000Y-105293000D01*
X85673000Y-104643750D01*
X85514250Y-104485000D01*
X84673691Y-104485000D01*
X84440302Y-104581673D01*
X84282500Y-104739474D01*
X84282500Y-103958044D01*
X84461056Y-103779488D01*
X84625400Y-103382726D01*
X84625400Y-103097781D01*
X84774644Y-103458088D01*
X85078312Y-103761756D01*
X85475074Y-103926100D01*
X85904526Y-103926100D01*
X86301288Y-103761756D01*
X86604956Y-103458088D01*
X86769300Y-103061326D01*
X86769300Y-102631874D01*
X86604956Y-102235112D01*
X86301288Y-101931444D01*
X85907800Y-101768456D01*
X85907800Y-100776209D01*
X86146500Y-101014910D01*
X86146500Y-101014910D01*
G37*
X86146500Y-101014910D02*
X86146500Y-101267426D01*
X86310844Y-101664188D01*
X86614512Y-101967856D01*
X87011274Y-102132200D01*
X87239001Y-102132200D01*
X87239000Y-104660975D01*
X87159698Y-104581673D01*
X86926309Y-104485000D01*
X86085750Y-104485000D01*
X85927000Y-104643750D01*
X85927000Y-105293000D01*
X85947000Y-105293000D01*
X85947000Y-105547000D01*
X85927000Y-105547000D01*
X85927000Y-105567000D01*
X85673000Y-105567000D01*
X85673000Y-105547000D01*
X85653000Y-105547000D01*
X85653000Y-105293000D01*
X85673000Y-105293000D01*
X85673000Y-104643750D01*
X85514250Y-104485000D01*
X84673691Y-104485000D01*
X84440302Y-104581673D01*
X84282500Y-104739474D01*
X84282500Y-103958044D01*
X84461056Y-103779488D01*
X84625400Y-103382726D01*
X84625400Y-103097781D01*
X84774644Y-103458088D01*
X85078312Y-103761756D01*
X85475074Y-103926100D01*
X85904526Y-103926100D01*
X86301288Y-103761756D01*
X86604956Y-103458088D01*
X86769300Y-103061326D01*
X86769300Y-102631874D01*
X86604956Y-102235112D01*
X86301288Y-101931444D01*
X85907800Y-101768456D01*
X85907800Y-100776209D01*
X86146500Y-101014910D01*
G36*
X84323748Y-105292998D02*
X84282500Y-105292998D01*
X84282500Y-105251750D01*
X84323748Y-105292998D01*
X84323748Y-105292998D01*
G37*
X84323748Y-105292998D02*
X84282500Y-105292998D01*
X84282500Y-105251750D01*
X84323748Y-105292998D01*
G36*
X124922602Y-95621526D02*
X124914728Y-95633310D01*
X124860200Y-95907442D01*
X124860200Y-95907446D01*
X124841790Y-96000000D01*
X124860200Y-96092554D01*
X124860200Y-96335895D01*
X124747938Y-96280732D01*
X124577000Y-96407266D01*
X124577000Y-97373000D01*
X124597000Y-97373000D01*
X124597000Y-97627000D01*
X124577000Y-97627000D01*
X124577000Y-98592734D01*
X124747938Y-98719268D01*
X124860200Y-98664105D01*
X124860201Y-101335895D01*
X124747938Y-101280732D01*
X124577000Y-101407266D01*
X124577000Y-102373000D01*
X124597000Y-102373000D01*
X124597000Y-102627000D01*
X124577000Y-102627000D01*
X124577000Y-103592734D01*
X124747938Y-103719268D01*
X124860201Y-103664105D01*
X124860201Y-103907441D01*
X124841790Y-104000000D01*
X124914729Y-104366692D01*
X124952907Y-104423830D01*
X124339800Y-103810723D01*
X124339800Y-96189277D01*
X124952907Y-95576170D01*
X124922602Y-95621526D01*
X124922602Y-95621526D01*
G37*
X124922602Y-95621526D02*
X124914728Y-95633310D01*
X124860200Y-95907442D01*
X124860200Y-95907446D01*
X124841790Y-96000000D01*
X124860200Y-96092554D01*
X124860200Y-96335895D01*
X124747938Y-96280732D01*
X124577000Y-96407266D01*
X124577000Y-97373000D01*
X124597000Y-97373000D01*
X124597000Y-97627000D01*
X124577000Y-97627000D01*
X124577000Y-98592734D01*
X124747938Y-98719268D01*
X124860200Y-98664105D01*
X124860201Y-101335895D01*
X124747938Y-101280732D01*
X124577000Y-101407266D01*
X124577000Y-102373000D01*
X124597000Y-102373000D01*
X124597000Y-102627000D01*
X124577000Y-102627000D01*
X124577000Y-103592734D01*
X124747938Y-103719268D01*
X124860201Y-103664105D01*
X124860201Y-103907441D01*
X124841790Y-104000000D01*
X124914729Y-104366692D01*
X124952907Y-104423830D01*
X124339800Y-103810723D01*
X124339800Y-96189277D01*
X124952907Y-95576170D01*
X124922602Y-95621526D01*
G36*
X126929512Y-98634156D02*
X127326274Y-98798500D01*
X127578791Y-98798500D01*
X127948201Y-99167910D01*
X127948200Y-102490945D01*
X127552000Y-102365000D01*
X127277000Y-102365000D01*
X127277000Y-103373000D01*
X127297000Y-103373000D01*
X127297000Y-103627000D01*
X127277000Y-103627000D01*
X127277000Y-103647000D01*
X127023000Y-103647000D01*
X127023000Y-103627000D01*
X127003000Y-103627000D01*
X127003000Y-103373000D01*
X127023000Y-103373000D01*
X127023000Y-102365000D01*
X126748000Y-102365000D01*
X126739800Y-102367607D01*
X126739800Y-98444444D01*
X126929512Y-98634156D01*
X126929512Y-98634156D01*
G37*
X126929512Y-98634156D02*
X127326274Y-98798500D01*
X127578791Y-98798500D01*
X127948201Y-99167910D01*
X127948200Y-102490945D01*
X127552000Y-102365000D01*
X127277000Y-102365000D01*
X127277000Y-103373000D01*
X127297000Y-103373000D01*
X127297000Y-103627000D01*
X127277000Y-103627000D01*
X127277000Y-103647000D01*
X127023000Y-103647000D01*
X127023000Y-103627000D01*
X127003000Y-103627000D01*
X127003000Y-103373000D01*
X127023000Y-103373000D01*
X127023000Y-102365000D01*
X126748000Y-102365000D01*
X126739800Y-102367607D01*
X126739800Y-98444444D01*
X126929512Y-98634156D01*
G36*
X81719212Y-85682756D02*
X82115974Y-85847100D01*
X82368491Y-85847100D01*
X85854400Y-89333010D01*
X85854400Y-92037856D01*
X85760288Y-91943744D01*
X85363526Y-91779400D01*
X84934074Y-91779400D01*
X84537312Y-91943744D01*
X84233644Y-92247412D01*
X84069300Y-92644174D01*
X84069300Y-93073626D01*
X84108707Y-93168764D01*
X83904512Y-93253344D01*
X83600844Y-93557012D01*
X83436500Y-93953774D01*
X83436500Y-94383226D01*
X83600844Y-94779988D01*
X83904512Y-95083656D01*
X84301274Y-95248000D01*
X84434600Y-95248000D01*
X84434601Y-102255455D01*
X84420171Y-102328000D01*
X84469845Y-102577730D01*
X84461056Y-102556512D01*
X84157388Y-102252844D01*
X83760626Y-102088500D01*
X83331174Y-102088500D01*
X83254570Y-102120231D01*
X83428839Y-101859418D01*
X83544092Y-101280000D01*
X83428839Y-100700582D01*
X83100625Y-100209375D01*
X82802239Y-100010000D01*
X83100625Y-99810625D01*
X83428839Y-99319418D01*
X83544092Y-98740000D01*
X83428839Y-98160582D01*
X83100625Y-97669375D01*
X83078967Y-97654904D01*
X83239698Y-97588327D01*
X83418327Y-97409699D01*
X83515000Y-97176310D01*
X83515000Y-96485750D01*
X83356250Y-96327000D01*
X81857000Y-96327000D01*
X81857000Y-96347000D01*
X81603000Y-96347000D01*
X81603000Y-96327000D01*
X81583000Y-96327000D01*
X81583000Y-96073000D01*
X81603000Y-96073000D01*
X81603000Y-94873750D01*
X81857000Y-94873750D01*
X81857000Y-96073000D01*
X83356250Y-96073000D01*
X83515000Y-95914250D01*
X83515000Y-95223690D01*
X83418327Y-94990301D01*
X83239698Y-94811673D01*
X83006309Y-94715000D01*
X82015750Y-94715000D01*
X81857000Y-94873750D01*
X81603000Y-94873750D01*
X81444250Y-94715000D01*
X80982100Y-94715000D01*
X80982100Y-86090409D01*
X81554483Y-85518027D01*
X81719212Y-85682756D01*
X81719212Y-85682756D01*
G37*
X81719212Y-85682756D02*
X82115974Y-85847100D01*
X82368491Y-85847100D01*
X85854400Y-89333010D01*
X85854400Y-92037856D01*
X85760288Y-91943744D01*
X85363526Y-91779400D01*
X84934074Y-91779400D01*
X84537312Y-91943744D01*
X84233644Y-92247412D01*
X84069300Y-92644174D01*
X84069300Y-93073626D01*
X84108707Y-93168764D01*
X83904512Y-93253344D01*
X83600844Y-93557012D01*
X83436500Y-93953774D01*
X83436500Y-94383226D01*
X83600844Y-94779988D01*
X83904512Y-95083656D01*
X84301274Y-95248000D01*
X84434600Y-95248000D01*
X84434601Y-102255455D01*
X84420171Y-102328000D01*
X84469845Y-102577730D01*
X84461056Y-102556512D01*
X84157388Y-102252844D01*
X83760626Y-102088500D01*
X83331174Y-102088500D01*
X83254570Y-102120231D01*
X83428839Y-101859418D01*
X83544092Y-101280000D01*
X83428839Y-100700582D01*
X83100625Y-100209375D01*
X82802239Y-100010000D01*
X83100625Y-99810625D01*
X83428839Y-99319418D01*
X83544092Y-98740000D01*
X83428839Y-98160582D01*
X83100625Y-97669375D01*
X83078967Y-97654904D01*
X83239698Y-97588327D01*
X83418327Y-97409699D01*
X83515000Y-97176310D01*
X83515000Y-96485750D01*
X83356250Y-96327000D01*
X81857000Y-96327000D01*
X81857000Y-96347000D01*
X81603000Y-96347000D01*
X81603000Y-96327000D01*
X81583000Y-96327000D01*
X81583000Y-96073000D01*
X81603000Y-96073000D01*
X81603000Y-94873750D01*
X81857000Y-94873750D01*
X81857000Y-96073000D01*
X83356250Y-96073000D01*
X83515000Y-95914250D01*
X83515000Y-95223690D01*
X83418327Y-94990301D01*
X83239698Y-94811673D01*
X83006309Y-94715000D01*
X82015750Y-94715000D01*
X81857000Y-94873750D01*
X81603000Y-94873750D01*
X81444250Y-94715000D01*
X80982100Y-94715000D01*
X80982100Y-86090409D01*
X81554483Y-85518027D01*
X81719212Y-85682756D01*
G36*
X106227000Y-99563000D02*
X106247000Y-99563000D01*
X106247000Y-99618200D01*
X105953000Y-99618200D01*
X105953000Y-99563000D01*
X105973000Y-99563000D01*
X105973000Y-99543000D01*
X106227000Y-99543000D01*
X106227000Y-99563000D01*
X106227000Y-99563000D01*
G37*
X106227000Y-99563000D02*
X106247000Y-99563000D01*
X106247000Y-99618200D01*
X105953000Y-99618200D01*
X105953000Y-99563000D01*
X105973000Y-99563000D01*
X105973000Y-99543000D01*
X106227000Y-99543000D01*
X106227000Y-99563000D01*
G36*
X102906368Y-97515508D02*
X102906368Y-97515511D01*
X102949107Y-97730374D01*
X103111910Y-97974026D01*
X103173410Y-98015119D01*
X103483350Y-98325059D01*
X103524443Y-98386559D01*
X103768094Y-98549362D01*
X103840840Y-98563832D01*
X103984844Y-98911488D01*
X104288512Y-99215156D01*
X104465000Y-99288260D01*
X104465000Y-99404250D01*
X104623748Y-99562998D01*
X104465000Y-99562998D01*
X104465000Y-99595839D01*
X104077028Y-99435136D01*
X103824512Y-99435136D01*
X103396085Y-99006710D01*
X103396085Y-98809325D01*
X103410514Y-98736784D01*
X103396085Y-98664242D01*
X103396085Y-98664241D01*
X103353346Y-98449378D01*
X103310512Y-98385272D01*
X103231636Y-98267226D01*
X103231634Y-98267224D01*
X103190543Y-98205727D01*
X103129046Y-98164636D01*
X102605435Y-97641025D01*
X102859230Y-97535900D01*
X102901931Y-97493199D01*
X102906368Y-97515508D01*
X102906368Y-97515508D01*
G37*
X102906368Y-97515508D02*
X102906368Y-97515511D01*
X102949107Y-97730374D01*
X103111910Y-97974026D01*
X103173410Y-98015119D01*
X103483350Y-98325059D01*
X103524443Y-98386559D01*
X103768094Y-98549362D01*
X103840840Y-98563832D01*
X103984844Y-98911488D01*
X104288512Y-99215156D01*
X104465000Y-99288260D01*
X104465000Y-99404250D01*
X104623748Y-99562998D01*
X104465000Y-99562998D01*
X104465000Y-99595839D01*
X104077028Y-99435136D01*
X103824512Y-99435136D01*
X103396085Y-99006710D01*
X103396085Y-98809325D01*
X103410514Y-98736784D01*
X103396085Y-98664242D01*
X103396085Y-98664241D01*
X103353346Y-98449378D01*
X103310512Y-98385272D01*
X103231636Y-98267226D01*
X103231634Y-98267224D01*
X103190543Y-98205727D01*
X103129046Y-98164636D01*
X102605435Y-97641025D01*
X102859230Y-97535900D01*
X102901931Y-97493199D01*
X102906368Y-97515508D01*
G36*
X127277000Y-96373000D02*
X127297000Y-96373000D01*
X127297000Y-96627000D01*
X127277000Y-96627000D01*
X127277000Y-96647000D01*
X127023000Y-96647000D01*
X127023000Y-96627000D01*
X127003000Y-96627000D01*
X127003000Y-96373000D01*
X127023000Y-96373000D01*
X127023000Y-96353000D01*
X127277000Y-96353000D01*
X127277000Y-96373000D01*
X127277000Y-96373000D01*
G37*
X127277000Y-96373000D02*
X127297000Y-96373000D01*
X127297000Y-96627000D01*
X127277000Y-96627000D01*
X127277000Y-96647000D01*
X127023000Y-96647000D01*
X127023000Y-96627000D01*
X127003000Y-96627000D01*
X127003000Y-96373000D01*
X127023000Y-96373000D01*
X127023000Y-96353000D01*
X127277000Y-96353000D01*
X127277000Y-96373000D01*
G36*
X100262821Y-78528180D02*
X100361341Y-78594009D01*
X100348971Y-78656200D01*
X100363401Y-78728745D01*
X100363401Y-81273612D01*
X100050502Y-81273612D01*
X99653740Y-81437956D01*
X99350072Y-81741624D01*
X99185728Y-82138386D01*
X99185728Y-82567838D01*
X99350072Y-82964600D01*
X99528629Y-83143157D01*
X99528628Y-85067438D01*
X99514199Y-85139979D01*
X99528628Y-85212519D01*
X99528628Y-85212522D01*
X99571367Y-85427385D01*
X99734170Y-85671037D01*
X99756219Y-85685770D01*
X99643800Y-85957174D01*
X99643800Y-86386626D01*
X99808144Y-86783388D01*
X100111812Y-87087056D01*
X100363401Y-87191267D01*
X100363400Y-93127460D01*
X100348971Y-93200000D01*
X100363400Y-93272540D01*
X100363400Y-93272543D01*
X100403689Y-93475088D01*
X100406139Y-93487406D01*
X100504788Y-93635044D01*
X100568942Y-93731058D01*
X100630442Y-93772151D01*
X102399534Y-95541244D01*
X102209952Y-95541244D01*
X98650000Y-91981293D01*
X98650000Y-85929809D01*
X98741458Y-85838351D01*
X98802958Y-85797258D01*
X98965761Y-85553607D01*
X99008500Y-85338744D01*
X99008500Y-85338741D01*
X99022929Y-85266200D01*
X99008500Y-85193660D01*
X99008500Y-79675440D01*
X99022929Y-79602899D01*
X99008500Y-79530357D01*
X99008500Y-79530356D01*
X98965761Y-79315493D01*
X98844051Y-79133341D01*
X98844049Y-79133339D01*
X98802958Y-79071842D01*
X98741461Y-79030751D01*
X98637723Y-78927013D01*
X98730000Y-78945368D01*
X99275082Y-78836944D01*
X99737180Y-78528180D01*
X100000000Y-78134842D01*
X100262821Y-78528180D01*
X100262821Y-78528180D01*
G37*
X100262821Y-78528180D02*
X100361341Y-78594009D01*
X100348971Y-78656200D01*
X100363401Y-78728745D01*
X100363401Y-81273612D01*
X100050502Y-81273612D01*
X99653740Y-81437956D01*
X99350072Y-81741624D01*
X99185728Y-82138386D01*
X99185728Y-82567838D01*
X99350072Y-82964600D01*
X99528629Y-83143157D01*
X99528628Y-85067438D01*
X99514199Y-85139979D01*
X99528628Y-85212519D01*
X99528628Y-85212522D01*
X99571367Y-85427385D01*
X99734170Y-85671037D01*
X99756219Y-85685770D01*
X99643800Y-85957174D01*
X99643800Y-86386626D01*
X99808144Y-86783388D01*
X100111812Y-87087056D01*
X100363401Y-87191267D01*
X100363400Y-93127460D01*
X100348971Y-93200000D01*
X100363400Y-93272540D01*
X100363400Y-93272543D01*
X100403689Y-93475088D01*
X100406139Y-93487406D01*
X100504788Y-93635044D01*
X100568942Y-93731058D01*
X100630442Y-93772151D01*
X102399534Y-95541244D01*
X102209952Y-95541244D01*
X98650000Y-91981293D01*
X98650000Y-85929809D01*
X98741458Y-85838351D01*
X98802958Y-85797258D01*
X98965761Y-85553607D01*
X99008500Y-85338744D01*
X99008500Y-85338741D01*
X99022929Y-85266200D01*
X99008500Y-85193660D01*
X99008500Y-79675440D01*
X99022929Y-79602899D01*
X99008500Y-79530357D01*
X99008500Y-79530356D01*
X98965761Y-79315493D01*
X98844051Y-79133341D01*
X98844049Y-79133339D01*
X98802958Y-79071842D01*
X98741461Y-79030751D01*
X98637723Y-78927013D01*
X98730000Y-78945368D01*
X99275082Y-78836944D01*
X99737180Y-78528180D01*
X100000000Y-78134842D01*
X100262821Y-78528180D01*
G36*
X126060201Y-94410721D02*
X126047095Y-94423827D01*
X126060201Y-94404213D01*
X126060201Y-94410721D01*
X126060201Y-94410721D01*
G37*
X126060201Y-94410721D02*
X126047095Y-94423827D01*
X126060201Y-94404213D01*
X126060201Y-94410721D01*
G36*
X116637000Y-71143000D02*
X116657000Y-71143000D01*
X116657000Y-71397000D01*
X116637000Y-71397000D01*
X116637000Y-72896250D01*
X116795750Y-73055000D01*
X117014099Y-73055000D01*
X117014100Y-79833937D01*
X116999670Y-79906482D01*
X117024822Y-80032934D01*
X116984844Y-80072912D01*
X116820500Y-80469674D01*
X116820500Y-80899126D01*
X116984844Y-81295888D01*
X117288512Y-81599556D01*
X117685274Y-81763900D01*
X118114726Y-81763900D01*
X118511488Y-81599556D01*
X118815156Y-81295888D01*
X118979500Y-80899126D01*
X118979500Y-80593051D01*
X120951900Y-82565452D01*
X120951901Y-91517800D01*
X120688274Y-91517800D01*
X120467356Y-91609307D01*
X117663890Y-88806433D01*
X117622905Y-88745095D01*
X117561501Y-88704066D01*
X117561477Y-88704042D01*
X117505439Y-88666607D01*
X117379783Y-88582646D01*
X117379742Y-88582638D01*
X117379709Y-88582616D01*
X117241581Y-88555156D01*
X117165388Y-88540000D01*
X117165346Y-88540000D01*
X117092922Y-88525602D01*
X117020577Y-88540000D01*
X111227444Y-88540000D01*
X111397856Y-88369588D01*
X111515073Y-88086600D01*
X118889756Y-88086600D01*
X119068312Y-88265156D01*
X119465074Y-88429500D01*
X119894526Y-88429500D01*
X120291288Y-88265156D01*
X120594956Y-87961488D01*
X120759300Y-87564726D01*
X120759300Y-87135274D01*
X120594956Y-86738512D01*
X120291288Y-86434844D01*
X119894526Y-86270500D01*
X119465074Y-86270500D01*
X119068312Y-86434844D01*
X118889756Y-86613400D01*
X110963340Y-86613400D01*
X110890800Y-86598971D01*
X110818259Y-86613400D01*
X110818256Y-86613400D01*
X110603393Y-86656139D01*
X110569778Y-86678600D01*
X110267974Y-86678600D01*
X109871212Y-86842944D01*
X109567544Y-87146612D01*
X109403200Y-87543374D01*
X109403200Y-87972826D01*
X109567544Y-88369588D01*
X109737956Y-88540000D01*
X107206692Y-88540000D01*
X107115156Y-88319012D01*
X106862577Y-88066433D01*
X106865509Y-88063500D01*
X107118026Y-88063500D01*
X107514788Y-87899156D01*
X107818456Y-87595488D01*
X107949578Y-87278931D01*
X116357461Y-78871049D01*
X116418958Y-78829958D01*
X116460049Y-78768461D01*
X116460051Y-78768459D01*
X116581761Y-78586307D01*
X116582288Y-78583656D01*
X116624500Y-78371444D01*
X116624500Y-78371441D01*
X116638929Y-78298901D01*
X116624500Y-78226360D01*
X116624500Y-75967540D01*
X116638929Y-75894999D01*
X116624500Y-75822459D01*
X116624500Y-75822456D01*
X116581761Y-75607593D01*
X116531547Y-75532442D01*
X116460051Y-75425441D01*
X116460049Y-75425439D01*
X116418958Y-75363942D01*
X116357460Y-75322850D01*
X115394851Y-74360242D01*
X115353758Y-74298742D01*
X115110107Y-74135939D01*
X114895244Y-74093200D01*
X114895240Y-74093200D01*
X114822700Y-74078771D01*
X114750160Y-74093200D01*
X107233644Y-74093200D01*
X107080244Y-73939800D01*
X112407446Y-73939800D01*
X112500000Y-73958210D01*
X112592554Y-73939800D01*
X112592559Y-73939800D01*
X112866691Y-73885272D01*
X113065366Y-73752521D01*
X113099089Y-73729988D01*
X113099090Y-73729987D01*
X113177557Y-73677557D01*
X113229987Y-73599090D01*
X113782318Y-73046760D01*
X113970000Y-73084092D01*
X114549418Y-72968839D01*
X115040625Y-72640625D01*
X115055096Y-72618967D01*
X115121673Y-72779698D01*
X115300301Y-72958327D01*
X115533690Y-73055000D01*
X116224250Y-73055000D01*
X116383000Y-72896250D01*
X116383000Y-71397000D01*
X116363000Y-71397000D01*
X116363000Y-71143000D01*
X116383000Y-71143000D01*
X116383000Y-71123000D01*
X116637000Y-71123000D01*
X116637000Y-71143000D01*
X116637000Y-71143000D01*
G37*
X116637000Y-71143000D02*
X116657000Y-71143000D01*
X116657000Y-71397000D01*
X116637000Y-71397000D01*
X116637000Y-72896250D01*
X116795750Y-73055000D01*
X117014099Y-73055000D01*
X117014100Y-79833937D01*
X116999670Y-79906482D01*
X117024822Y-80032934D01*
X116984844Y-80072912D01*
X116820500Y-80469674D01*
X116820500Y-80899126D01*
X116984844Y-81295888D01*
X117288512Y-81599556D01*
X117685274Y-81763900D01*
X118114726Y-81763900D01*
X118511488Y-81599556D01*
X118815156Y-81295888D01*
X118979500Y-80899126D01*
X118979500Y-80593051D01*
X120951900Y-82565452D01*
X120951901Y-91517800D01*
X120688274Y-91517800D01*
X120467356Y-91609307D01*
X117663890Y-88806433D01*
X117622905Y-88745095D01*
X117561501Y-88704066D01*
X117561477Y-88704042D01*
X117505439Y-88666607D01*
X117379783Y-88582646D01*
X117379742Y-88582638D01*
X117379709Y-88582616D01*
X117241581Y-88555156D01*
X117165388Y-88540000D01*
X117165346Y-88540000D01*
X117092922Y-88525602D01*
X117020577Y-88540000D01*
X111227444Y-88540000D01*
X111397856Y-88369588D01*
X111515073Y-88086600D01*
X118889756Y-88086600D01*
X119068312Y-88265156D01*
X119465074Y-88429500D01*
X119894526Y-88429500D01*
X120291288Y-88265156D01*
X120594956Y-87961488D01*
X120759300Y-87564726D01*
X120759300Y-87135274D01*
X120594956Y-86738512D01*
X120291288Y-86434844D01*
X119894526Y-86270500D01*
X119465074Y-86270500D01*
X119068312Y-86434844D01*
X118889756Y-86613400D01*
X110963340Y-86613400D01*
X110890800Y-86598971D01*
X110818259Y-86613400D01*
X110818256Y-86613400D01*
X110603393Y-86656139D01*
X110569778Y-86678600D01*
X110267974Y-86678600D01*
X109871212Y-86842944D01*
X109567544Y-87146612D01*
X109403200Y-87543374D01*
X109403200Y-87972826D01*
X109567544Y-88369588D01*
X109737956Y-88540000D01*
X107206692Y-88540000D01*
X107115156Y-88319012D01*
X106862577Y-88066433D01*
X106865509Y-88063500D01*
X107118026Y-88063500D01*
X107514788Y-87899156D01*
X107818456Y-87595488D01*
X107949578Y-87278931D01*
X116357461Y-78871049D01*
X116418958Y-78829958D01*
X116460049Y-78768461D01*
X116460051Y-78768459D01*
X116581761Y-78586307D01*
X116582288Y-78583656D01*
X116624500Y-78371444D01*
X116624500Y-78371441D01*
X116638929Y-78298901D01*
X116624500Y-78226360D01*
X116624500Y-75967540D01*
X116638929Y-75894999D01*
X116624500Y-75822459D01*
X116624500Y-75822456D01*
X116581761Y-75607593D01*
X116531547Y-75532442D01*
X116460051Y-75425441D01*
X116460049Y-75425439D01*
X116418958Y-75363942D01*
X116357460Y-75322850D01*
X115394851Y-74360242D01*
X115353758Y-74298742D01*
X115110107Y-74135939D01*
X114895244Y-74093200D01*
X114895240Y-74093200D01*
X114822700Y-74078771D01*
X114750160Y-74093200D01*
X107233644Y-74093200D01*
X107080244Y-73939800D01*
X112407446Y-73939800D01*
X112500000Y-73958210D01*
X112592554Y-73939800D01*
X112592559Y-73939800D01*
X112866691Y-73885272D01*
X113065366Y-73752521D01*
X113099089Y-73729988D01*
X113099090Y-73729987D01*
X113177557Y-73677557D01*
X113229987Y-73599090D01*
X113782318Y-73046760D01*
X113970000Y-73084092D01*
X114549418Y-72968839D01*
X115040625Y-72640625D01*
X115055096Y-72618967D01*
X115121673Y-72779698D01*
X115300301Y-72958327D01*
X115533690Y-73055000D01*
X116224250Y-73055000D01*
X116383000Y-72896250D01*
X116383000Y-71397000D01*
X116363000Y-71397000D01*
X116363000Y-71143000D01*
X116383000Y-71143000D01*
X116383000Y-71123000D01*
X116637000Y-71123000D01*
X116637000Y-71143000D01*
G36*
X126637470Y-70894499D02*
X127248893Y-71086108D01*
X127809308Y-71396751D01*
X128295807Y-71813732D01*
X128688526Y-72320023D01*
X128971420Y-72894937D01*
X129135499Y-73524847D01*
X129174500Y-74031711D01*
X129174500Y-82005000D01*
X129015750Y-82005000D01*
X128857000Y-82163750D01*
X128857000Y-83363000D01*
X128877000Y-83363000D01*
X128877000Y-83617000D01*
X128857000Y-83617000D01*
X128857000Y-83637000D01*
X128603000Y-83637000D01*
X128603000Y-83617000D01*
X127103750Y-83617000D01*
X126945000Y-83775750D01*
X126945000Y-84466310D01*
X127041673Y-84699699D01*
X127220302Y-84878327D01*
X127381033Y-84944904D01*
X127359375Y-84959375D01*
X127031161Y-85450582D01*
X126915908Y-86030000D01*
X126953240Y-86217682D01*
X126400910Y-86770013D01*
X126322443Y-86822443D01*
X126270013Y-86900910D01*
X126270012Y-86900911D01*
X126121658Y-87122939D01*
X126114728Y-87133310D01*
X126060200Y-87407442D01*
X126060200Y-87407446D01*
X126041790Y-87500000D01*
X126060200Y-87592554D01*
X126060201Y-91482743D01*
X126008953Y-91359021D01*
X125640979Y-90991047D01*
X125160197Y-90791900D01*
X124639803Y-90791900D01*
X124159021Y-90991047D01*
X124134400Y-91015668D01*
X124134400Y-87541244D01*
X124312956Y-87362688D01*
X124477300Y-86965926D01*
X124477300Y-86536474D01*
X124312956Y-86139712D01*
X124009288Y-85836044D01*
X123612526Y-85671700D01*
X123183074Y-85671700D01*
X122786312Y-85836044D01*
X122526700Y-86095656D01*
X122526700Y-82513690D01*
X126945000Y-82513690D01*
X126945000Y-83204250D01*
X127103750Y-83363000D01*
X128603000Y-83363000D01*
X128603000Y-82163750D01*
X128444250Y-82005000D01*
X127453691Y-82005000D01*
X127220302Y-82101673D01*
X127041673Y-82280301D01*
X126945000Y-82513690D01*
X122526700Y-82513690D01*
X122526700Y-82316851D01*
X122542126Y-82239300D01*
X122514750Y-82101673D01*
X122481015Y-81932072D01*
X122306984Y-81671616D01*
X122241238Y-81627686D01*
X119287400Y-78673849D01*
X119287400Y-75239244D01*
X119415156Y-75111488D01*
X119579500Y-74714726D01*
X119579500Y-74285274D01*
X119534858Y-74177497D01*
X120865000Y-74177497D01*
X120865000Y-75822503D01*
X121494517Y-77342289D01*
X122657711Y-78505483D01*
X124177497Y-79135000D01*
X125822503Y-79135000D01*
X127342289Y-78505483D01*
X128505483Y-77342289D01*
X129135000Y-75822503D01*
X129135000Y-74177497D01*
X128505483Y-72657711D01*
X127342289Y-71494517D01*
X125822503Y-70865000D01*
X124177497Y-70865000D01*
X122657711Y-71494517D01*
X121494517Y-72657711D01*
X120865000Y-74177497D01*
X119534858Y-74177497D01*
X119415156Y-73888512D01*
X119111488Y-73584844D01*
X118714726Y-73420500D01*
X118487299Y-73420500D01*
X118487299Y-72884500D01*
X118569726Y-72884500D01*
X118966488Y-72720156D01*
X119270156Y-72416488D01*
X119434500Y-72019726D01*
X119434500Y-71590274D01*
X119270156Y-71193512D01*
X118966488Y-70889844D01*
X118811148Y-70825500D01*
X125958182Y-70825500D01*
X126637470Y-70894499D01*
X126637470Y-70894499D01*
G37*
X126637470Y-70894499D02*
X127248893Y-71086108D01*
X127809308Y-71396751D01*
X128295807Y-71813732D01*
X128688526Y-72320023D01*
X128971420Y-72894937D01*
X129135499Y-73524847D01*
X129174500Y-74031711D01*
X129174500Y-82005000D01*
X129015750Y-82005000D01*
X128857000Y-82163750D01*
X128857000Y-83363000D01*
X128877000Y-83363000D01*
X128877000Y-83617000D01*
X128857000Y-83617000D01*
X128857000Y-83637000D01*
X128603000Y-83637000D01*
X128603000Y-83617000D01*
X127103750Y-83617000D01*
X126945000Y-83775750D01*
X126945000Y-84466310D01*
X127041673Y-84699699D01*
X127220302Y-84878327D01*
X127381033Y-84944904D01*
X127359375Y-84959375D01*
X127031161Y-85450582D01*
X126915908Y-86030000D01*
X126953240Y-86217682D01*
X126400910Y-86770013D01*
X126322443Y-86822443D01*
X126270013Y-86900910D01*
X126270012Y-86900911D01*
X126121658Y-87122939D01*
X126114728Y-87133310D01*
X126060200Y-87407442D01*
X126060200Y-87407446D01*
X126041790Y-87500000D01*
X126060200Y-87592554D01*
X126060201Y-91482743D01*
X126008953Y-91359021D01*
X125640979Y-90991047D01*
X125160197Y-90791900D01*
X124639803Y-90791900D01*
X124159021Y-90991047D01*
X124134400Y-91015668D01*
X124134400Y-87541244D01*
X124312956Y-87362688D01*
X124477300Y-86965926D01*
X124477300Y-86536474D01*
X124312956Y-86139712D01*
X124009288Y-85836044D01*
X123612526Y-85671700D01*
X123183074Y-85671700D01*
X122786312Y-85836044D01*
X122526700Y-86095656D01*
X122526700Y-82513690D01*
X126945000Y-82513690D01*
X126945000Y-83204250D01*
X127103750Y-83363000D01*
X128603000Y-83363000D01*
X128603000Y-82163750D01*
X128444250Y-82005000D01*
X127453691Y-82005000D01*
X127220302Y-82101673D01*
X127041673Y-82280301D01*
X126945000Y-82513690D01*
X122526700Y-82513690D01*
X122526700Y-82316851D01*
X122542126Y-82239300D01*
X122514750Y-82101673D01*
X122481015Y-81932072D01*
X122306984Y-81671616D01*
X122241238Y-81627686D01*
X119287400Y-78673849D01*
X119287400Y-75239244D01*
X119415156Y-75111488D01*
X119579500Y-74714726D01*
X119579500Y-74285274D01*
X119534858Y-74177497D01*
X120865000Y-74177497D01*
X120865000Y-75822503D01*
X121494517Y-77342289D01*
X122657711Y-78505483D01*
X124177497Y-79135000D01*
X125822503Y-79135000D01*
X127342289Y-78505483D01*
X128505483Y-77342289D01*
X129135000Y-75822503D01*
X129135000Y-74177497D01*
X128505483Y-72657711D01*
X127342289Y-71494517D01*
X125822503Y-70865000D01*
X124177497Y-70865000D01*
X122657711Y-71494517D01*
X121494517Y-72657711D01*
X120865000Y-74177497D01*
X119534858Y-74177497D01*
X119415156Y-73888512D01*
X119111488Y-73584844D01*
X118714726Y-73420500D01*
X118487299Y-73420500D01*
X118487299Y-72884500D01*
X118569726Y-72884500D01*
X118966488Y-72720156D01*
X119270156Y-72416488D01*
X119434500Y-72019726D01*
X119434500Y-71590274D01*
X119270156Y-71193512D01*
X118966488Y-70889844D01*
X118811148Y-70825500D01*
X125958182Y-70825500D01*
X126637470Y-70894499D01*
G36*
X82005000Y-70984250D02*
X82163750Y-71143000D01*
X83363000Y-71143000D01*
X83363000Y-71123000D01*
X83617000Y-71123000D01*
X83617000Y-71143000D01*
X83637000Y-71143000D01*
X83637000Y-71397000D01*
X83617000Y-71397000D01*
X83617000Y-72896250D01*
X83775750Y-73055000D01*
X84466310Y-73055000D01*
X84699699Y-72958327D01*
X84878327Y-72779698D01*
X84944904Y-72618967D01*
X84959375Y-72640625D01*
X85450582Y-72968839D01*
X86030000Y-73084092D01*
X86217682Y-73046760D01*
X86770014Y-73599092D01*
X86822443Y-73677557D01*
X86900908Y-73729986D01*
X86900910Y-73729988D01*
X87133307Y-73885271D01*
X87133308Y-73885271D01*
X87133309Y-73885272D01*
X87407441Y-73939800D01*
X87407446Y-73939800D01*
X87500000Y-73958210D01*
X87592554Y-73939800D01*
X94207446Y-73939800D01*
X94300000Y-73958210D01*
X94392554Y-73939800D01*
X94392559Y-73939800D01*
X94666691Y-73885272D01*
X94865366Y-73752521D01*
X94899089Y-73729988D01*
X94899090Y-73729987D01*
X94977557Y-73677557D01*
X95029987Y-73599090D01*
X95889278Y-72739800D01*
X103910723Y-72739800D01*
X104770014Y-73599092D01*
X104822443Y-73677557D01*
X104900908Y-73729986D01*
X104900909Y-73729987D01*
X105133307Y-73885271D01*
X105133308Y-73885271D01*
X105133309Y-73885272D01*
X105407441Y-73939800D01*
X105407445Y-73939800D01*
X105499999Y-73958210D01*
X105592553Y-73939800D01*
X105806956Y-73939800D01*
X105528444Y-74218312D01*
X105364100Y-74615074D01*
X105364100Y-75044526D01*
X105528444Y-75441288D01*
X105628848Y-75541692D01*
X105624487Y-75563616D01*
X105342820Y-75751821D01*
X105080000Y-76145159D01*
X104817179Y-75751820D01*
X104355081Y-75443056D01*
X103810000Y-75334632D01*
X103650200Y-75366418D01*
X103650200Y-75007874D01*
X103485856Y-74611112D01*
X103182188Y-74307444D01*
X102785426Y-74143100D01*
X102355974Y-74143100D01*
X101959212Y-74307444D01*
X101655544Y-74611112D01*
X101491200Y-75007874D01*
X101491200Y-75378632D01*
X101270000Y-75334632D01*
X100724918Y-75443056D01*
X100262820Y-75751821D01*
X100000000Y-76145159D01*
X99737179Y-75751820D01*
X99299159Y-75459144D01*
X99359600Y-75313226D01*
X99359600Y-74883774D01*
X99195256Y-74487012D01*
X98891588Y-74183344D01*
X98494826Y-74019000D01*
X98065374Y-74019000D01*
X97668612Y-74183344D01*
X97490056Y-74361900D01*
X91329940Y-74361900D01*
X91257400Y-74347471D01*
X91184859Y-74361900D01*
X91184856Y-74361900D01*
X90992259Y-74400210D01*
X90969993Y-74404639D01*
X90787841Y-74526349D01*
X90787839Y-74526351D01*
X90726342Y-74567442D01*
X90685250Y-74628940D01*
X89568302Y-75745889D01*
X89115081Y-75443056D01*
X88570000Y-75334632D01*
X88024918Y-75443056D01*
X87562820Y-75751821D01*
X87300000Y-76145159D01*
X87037179Y-75751820D01*
X86575081Y-75443056D01*
X86030000Y-75334632D01*
X85484918Y-75443056D01*
X85272751Y-75584822D01*
X85249574Y-75468306D01*
X85228874Y-75437326D01*
X85127864Y-75286154D01*
X85127862Y-75286152D01*
X85086771Y-75224655D01*
X85025274Y-75183564D01*
X83833578Y-73991869D01*
X83792485Y-73930369D01*
X83548834Y-73767566D01*
X83333971Y-73724827D01*
X83333967Y-73724827D01*
X83261427Y-73710398D01*
X83188887Y-73724827D01*
X82653935Y-73724827D01*
X82581395Y-73710398D01*
X82508854Y-73724827D01*
X82508851Y-73724827D01*
X82340647Y-73758285D01*
X82293988Y-73767566D01*
X82111836Y-73889276D01*
X82111834Y-73889278D01*
X82050337Y-73930369D01*
X82009246Y-73991866D01*
X75127540Y-80873573D01*
X75066043Y-80914664D01*
X75024952Y-80976161D01*
X75024949Y-80976164D01*
X74903239Y-81158316D01*
X74846071Y-81445722D01*
X74860501Y-81518267D01*
X74860500Y-86462452D01*
X73489553Y-87833400D01*
X72863813Y-87833400D01*
X72640625Y-87499375D01*
X72342239Y-87300000D01*
X72640625Y-87100625D01*
X72968839Y-86609418D01*
X73084092Y-86030000D01*
X72968839Y-85450582D01*
X72640625Y-84959375D01*
X72618967Y-84944904D01*
X72779698Y-84878327D01*
X72958327Y-84699699D01*
X73055000Y-84466310D01*
X73055000Y-83775750D01*
X72896250Y-83617000D01*
X71397000Y-83617000D01*
X71397000Y-83637000D01*
X71143000Y-83637000D01*
X71143000Y-83617000D01*
X71123000Y-83617000D01*
X71123000Y-83363000D01*
X71143000Y-83363000D01*
X71143000Y-82163750D01*
X71397000Y-82163750D01*
X71397000Y-83363000D01*
X72896250Y-83363000D01*
X73055000Y-83204250D01*
X73055000Y-82513690D01*
X72958327Y-82280301D01*
X72779698Y-82101673D01*
X72546309Y-82005000D01*
X71555750Y-82005000D01*
X71397000Y-82163750D01*
X71143000Y-82163750D01*
X70984250Y-82005000D01*
X70825500Y-82005000D01*
X70825500Y-74177497D01*
X70865000Y-74177497D01*
X70865000Y-75822503D01*
X71494517Y-77342289D01*
X72657711Y-78505483D01*
X74177497Y-79135000D01*
X75822503Y-79135000D01*
X77342289Y-78505483D01*
X78505483Y-77342289D01*
X79135000Y-75822503D01*
X79135000Y-74177497D01*
X78505483Y-72657711D01*
X77403522Y-71555750D01*
X82005000Y-71555750D01*
X82005000Y-72546309D01*
X82101673Y-72779698D01*
X82280301Y-72958327D01*
X82513690Y-73055000D01*
X83204250Y-73055000D01*
X83363000Y-72896250D01*
X83363000Y-71397000D01*
X82163750Y-71397000D01*
X82005000Y-71555750D01*
X77403522Y-71555750D01*
X77342289Y-71494517D01*
X75822503Y-70865000D01*
X74177497Y-70865000D01*
X72657711Y-71494517D01*
X71494517Y-72657711D01*
X70865000Y-74177497D01*
X70825500Y-74177497D01*
X70825500Y-74041818D01*
X70894499Y-73362530D01*
X71086108Y-72751107D01*
X71396751Y-72190692D01*
X71813732Y-71704193D01*
X72320023Y-71311474D01*
X72894937Y-71028580D01*
X73524847Y-70864501D01*
X74031711Y-70825500D01*
X82005000Y-70825500D01*
X82005000Y-70984250D01*
X82005000Y-70984250D01*
G37*
X82005000Y-70984250D02*
X82163750Y-71143000D01*
X83363000Y-71143000D01*
X83363000Y-71123000D01*
X83617000Y-71123000D01*
X83617000Y-71143000D01*
X83637000Y-71143000D01*
X83637000Y-71397000D01*
X83617000Y-71397000D01*
X83617000Y-72896250D01*
X83775750Y-73055000D01*
X84466310Y-73055000D01*
X84699699Y-72958327D01*
X84878327Y-72779698D01*
X84944904Y-72618967D01*
X84959375Y-72640625D01*
X85450582Y-72968839D01*
X86030000Y-73084092D01*
X86217682Y-73046760D01*
X86770014Y-73599092D01*
X86822443Y-73677557D01*
X86900908Y-73729986D01*
X86900910Y-73729988D01*
X87133307Y-73885271D01*
X87133308Y-73885271D01*
X87133309Y-73885272D01*
X87407441Y-73939800D01*
X87407446Y-73939800D01*
X87500000Y-73958210D01*
X87592554Y-73939800D01*
X94207446Y-73939800D01*
X94300000Y-73958210D01*
X94392554Y-73939800D01*
X94392559Y-73939800D01*
X94666691Y-73885272D01*
X94865366Y-73752521D01*
X94899089Y-73729988D01*
X94899090Y-73729987D01*
X94977557Y-73677557D01*
X95029987Y-73599090D01*
X95889278Y-72739800D01*
X103910723Y-72739800D01*
X104770014Y-73599092D01*
X104822443Y-73677557D01*
X104900908Y-73729986D01*
X104900909Y-73729987D01*
X105133307Y-73885271D01*
X105133308Y-73885271D01*
X105133309Y-73885272D01*
X105407441Y-73939800D01*
X105407445Y-73939800D01*
X105499999Y-73958210D01*
X105592553Y-73939800D01*
X105806956Y-73939800D01*
X105528444Y-74218312D01*
X105364100Y-74615074D01*
X105364100Y-75044526D01*
X105528444Y-75441288D01*
X105628848Y-75541692D01*
X105624487Y-75563616D01*
X105342820Y-75751821D01*
X105080000Y-76145159D01*
X104817179Y-75751820D01*
X104355081Y-75443056D01*
X103810000Y-75334632D01*
X103650200Y-75366418D01*
X103650200Y-75007874D01*
X103485856Y-74611112D01*
X103182188Y-74307444D01*
X102785426Y-74143100D01*
X102355974Y-74143100D01*
X101959212Y-74307444D01*
X101655544Y-74611112D01*
X101491200Y-75007874D01*
X101491200Y-75378632D01*
X101270000Y-75334632D01*
X100724918Y-75443056D01*
X100262820Y-75751821D01*
X100000000Y-76145159D01*
X99737179Y-75751820D01*
X99299159Y-75459144D01*
X99359600Y-75313226D01*
X99359600Y-74883774D01*
X99195256Y-74487012D01*
X98891588Y-74183344D01*
X98494826Y-74019000D01*
X98065374Y-74019000D01*
X97668612Y-74183344D01*
X97490056Y-74361900D01*
X91329940Y-74361900D01*
X91257400Y-74347471D01*
X91184859Y-74361900D01*
X91184856Y-74361900D01*
X90992259Y-74400210D01*
X90969993Y-74404639D01*
X90787841Y-74526349D01*
X90787839Y-74526351D01*
X90726342Y-74567442D01*
X90685250Y-74628940D01*
X89568302Y-75745889D01*
X89115081Y-75443056D01*
X88570000Y-75334632D01*
X88024918Y-75443056D01*
X87562820Y-75751821D01*
X87300000Y-76145159D01*
X87037179Y-75751820D01*
X86575081Y-75443056D01*
X86030000Y-75334632D01*
X85484918Y-75443056D01*
X85272751Y-75584822D01*
X85249574Y-75468306D01*
X85228874Y-75437326D01*
X85127864Y-75286154D01*
X85127862Y-75286152D01*
X85086771Y-75224655D01*
X85025274Y-75183564D01*
X83833578Y-73991869D01*
X83792485Y-73930369D01*
X83548834Y-73767566D01*
X83333971Y-73724827D01*
X83333967Y-73724827D01*
X83261427Y-73710398D01*
X83188887Y-73724827D01*
X82653935Y-73724827D01*
X82581395Y-73710398D01*
X82508854Y-73724827D01*
X82508851Y-73724827D01*
X82340647Y-73758285D01*
X82293988Y-73767566D01*
X82111836Y-73889276D01*
X82111834Y-73889278D01*
X82050337Y-73930369D01*
X82009246Y-73991866D01*
X75127540Y-80873573D01*
X75066043Y-80914664D01*
X75024952Y-80976161D01*
X75024949Y-80976164D01*
X74903239Y-81158316D01*
X74846071Y-81445722D01*
X74860501Y-81518267D01*
X74860500Y-86462452D01*
X73489553Y-87833400D01*
X72863813Y-87833400D01*
X72640625Y-87499375D01*
X72342239Y-87300000D01*
X72640625Y-87100625D01*
X72968839Y-86609418D01*
X73084092Y-86030000D01*
X72968839Y-85450582D01*
X72640625Y-84959375D01*
X72618967Y-84944904D01*
X72779698Y-84878327D01*
X72958327Y-84699699D01*
X73055000Y-84466310D01*
X73055000Y-83775750D01*
X72896250Y-83617000D01*
X71397000Y-83617000D01*
X71397000Y-83637000D01*
X71143000Y-83637000D01*
X71143000Y-83617000D01*
X71123000Y-83617000D01*
X71123000Y-83363000D01*
X71143000Y-83363000D01*
X71143000Y-82163750D01*
X71397000Y-82163750D01*
X71397000Y-83363000D01*
X72896250Y-83363000D01*
X73055000Y-83204250D01*
X73055000Y-82513690D01*
X72958327Y-82280301D01*
X72779698Y-82101673D01*
X72546309Y-82005000D01*
X71555750Y-82005000D01*
X71397000Y-82163750D01*
X71143000Y-82163750D01*
X70984250Y-82005000D01*
X70825500Y-82005000D01*
X70825500Y-74177497D01*
X70865000Y-74177497D01*
X70865000Y-75822503D01*
X71494517Y-77342289D01*
X72657711Y-78505483D01*
X74177497Y-79135000D01*
X75822503Y-79135000D01*
X77342289Y-78505483D01*
X78505483Y-77342289D01*
X79135000Y-75822503D01*
X79135000Y-74177497D01*
X78505483Y-72657711D01*
X77403522Y-71555750D01*
X82005000Y-71555750D01*
X82005000Y-72546309D01*
X82101673Y-72779698D01*
X82280301Y-72958327D01*
X82513690Y-73055000D01*
X83204250Y-73055000D01*
X83363000Y-72896250D01*
X83363000Y-71397000D01*
X82163750Y-71397000D01*
X82005000Y-71555750D01*
X77403522Y-71555750D01*
X77342289Y-71494517D01*
X75822503Y-70865000D01*
X74177497Y-70865000D01*
X72657711Y-71494517D01*
X71494517Y-72657711D01*
X70865000Y-74177497D01*
X70825500Y-74177497D01*
X70825500Y-74041818D01*
X70894499Y-73362530D01*
X71086108Y-72751107D01*
X71396751Y-72190692D01*
X71813732Y-71704193D01*
X72320023Y-71311474D01*
X72894937Y-71028580D01*
X73524847Y-70864501D01*
X74031711Y-70825500D01*
X82005000Y-70825500D01*
X82005000Y-70984250D01*
M02*
