%TF.GenerationSoftware,KiCad,Pcbnew,5.0.2-bee76a0~70~ubuntu16.04.1*%
%TF.CreationDate,2019-04-28T15:28:11+02:00*%
%TF.ProjectId,bcl4v2,62636c34-7632-42e6-9b69-6361645f7063,rev?*%
%TF.SameCoordinates,Original*%
%TF.FileFunction,Copper,L2,Bot*%
%TF.FilePolarity,Positive*%
%FSLAX46Y46*%
G04 Gerber Fmt 4.6, Leading zero omitted, Abs format (unit mm)*
G04 Created by KiCad (PCBNEW 5.0.2-bee76a0~70~ubuntu16.04.1) date Ne 28. duben 2019, 15:28:11 CEST*
%MOMM*%
%LPD*%
G01*
G04 APERTURE LIST*
%ADD10C,0.381000*%
%ADD11C,7.000000*%
%ADD12C,0.910000*%
%ADD13R,1.200000X1.500000*%
%ADD14R,1.500000X0.700000*%
%ADD15R,1.200000X1.700000*%
%ADD16R,1.200000X1.600000*%
%ADD17R,1.700000X2.300000*%
%ADD18O,1.700000X2.300000*%
%ADD19R,1.200000X1.200000*%
%ADD20R,2.300000X1.700000*%
%ADD21O,2.300000X1.700000*%
%ADD22R,1.500000X1.300000*%
%ADD23R,1.500000X1.250000*%
%ADD24R,1.500000X0.800000*%
%ADD25C,0.500000*%
%ADD26C,0.150000*%
%ADD27C,0.750000*%
%ADD28R,2.700000X3.750000*%
%ADD29R,1.143000X0.508000*%
%ADD30O,1.524000X2.286000*%
%ADD31R,1.524000X2.286000*%
%ADD32C,1.000000*%
%ADD33R,2.300000X0.600000*%
%ADD34C,1.600000*%
%ADD35R,1.300000X1.500000*%
%ADD36O,1.550000X1.000000*%
%ADD37O,0.950000X1.250000*%
%ADD38R,1.350000X0.400000*%
%ADD39C,0.250000*%
%ADD40C,0.889000*%
%ADD41C,1.346200*%
%ADD42C,0.304800*%
%ADD43C,0.249800*%
%ADD44C,0.609600*%
%ADD45C,0.203200*%
%ADD46C,0.254000*%
G04 APERTURE END LIST*
D10*
X95000000Y-129000000D02*
X95000000Y-130000000D01*
X105000000Y-129000000D02*
X105000000Y-130000000D01*
X105000000Y-70000000D02*
X105000000Y-71000000D01*
X95000000Y-70000000D02*
X95000000Y-71000000D01*
X70000000Y-95000000D02*
X70000000Y-75000000D01*
X70000000Y-125000000D02*
X70000000Y-105000000D01*
X95000000Y-130000000D02*
X75000000Y-130000000D01*
X125000000Y-130000000D02*
X105000000Y-130000000D01*
X130000000Y-105000000D02*
X130000000Y-125000000D01*
X130000000Y-75000000D02*
X130000000Y-95000000D01*
X105000000Y-70000000D02*
X125000000Y-70000000D01*
X75000000Y-70000000D02*
X95000000Y-70000000D01*
X75000000Y-130000000D02*
G75*
G02X70000000Y-125000000I0J5000000D01*
G01*
X130000000Y-125000000D02*
G75*
G02X125000000Y-130000000I-5000000J0D01*
G01*
X125000000Y-70000000D02*
G75*
G02X130000000Y-75000000I0J-5000000D01*
G01*
X70000000Y-75000000D02*
G75*
G02X75000000Y-70000000I5000000J0D01*
G01*
X95000000Y-71000000D02*
X105000000Y-71000000D01*
X70750000Y-105000000D02*
X70000000Y-105000000D01*
X70750000Y-95000000D02*
X70750000Y-105000000D01*
X70000000Y-95000000D02*
X70750000Y-95000000D01*
X95000000Y-129000000D02*
X105000000Y-129000000D01*
X129000000Y-105000000D02*
X130000000Y-105000000D01*
X129000000Y-95000000D02*
X129000000Y-105000000D01*
X130000000Y-95000000D02*
X129000000Y-95000000D01*
D11*
X125000000Y-125000000D03*
D12*
X98850000Y-127500000D03*
X101150000Y-127500000D03*
D13*
X96000000Y-128050000D03*
X104000000Y-128050000D03*
D14*
X96550000Y-128450000D03*
X103450000Y-128450000D03*
D15*
X97900000Y-126000000D03*
D16*
X102100000Y-126000000D03*
D17*
X83490000Y-128730000D03*
D18*
X86030000Y-128730000D03*
X88570000Y-128730000D03*
X91110000Y-128730000D03*
X93650000Y-128730000D03*
D19*
X118425000Y-89500000D03*
X114575000Y-89500000D03*
D20*
X81730000Y-96200000D03*
D21*
X81730000Y-98740000D03*
X81730000Y-101280000D03*
X81730000Y-103820000D03*
D22*
X117850000Y-79750000D03*
X115150000Y-79750000D03*
X84250000Y-115950000D03*
X81550000Y-115950000D03*
D23*
X118250000Y-116000000D03*
X115750000Y-116000000D03*
X115750000Y-109000000D03*
X118250000Y-109000000D03*
D11*
X75000000Y-125000000D03*
X75000000Y-75000000D03*
X125000000Y-75000000D03*
D23*
X117750000Y-97000000D03*
X115250000Y-97000000D03*
D22*
X117850000Y-94500000D03*
X115150000Y-94500000D03*
D24*
X115650000Y-113450000D03*
X115650000Y-111550000D03*
X118350000Y-112500000D03*
D17*
X83490000Y-71270000D03*
D18*
X86030000Y-71270000D03*
X88570000Y-71270000D03*
X91110000Y-71270000D03*
X93650000Y-71270000D03*
D17*
X116510000Y-71270000D03*
D18*
X113970000Y-71270000D03*
X111430000Y-71270000D03*
X108890000Y-71270000D03*
X106350000Y-71270000D03*
D17*
X116510000Y-128730000D03*
D18*
X113970000Y-128730000D03*
X111430000Y-128730000D03*
X108890000Y-128730000D03*
X106350000Y-128730000D03*
D20*
X71270000Y-116510000D03*
D21*
X71270000Y-113970000D03*
X71270000Y-111430000D03*
X71270000Y-108890000D03*
X71270000Y-106350000D03*
D20*
X71270000Y-83490000D03*
D21*
X71270000Y-86030000D03*
X71270000Y-88570000D03*
X71270000Y-91110000D03*
X71270000Y-93650000D03*
D20*
X128730000Y-83490000D03*
D21*
X128730000Y-86030000D03*
X128730000Y-88570000D03*
X128730000Y-91110000D03*
X128730000Y-93650000D03*
D20*
X128730000Y-116510000D03*
D21*
X128730000Y-113970000D03*
X128730000Y-111430000D03*
X128730000Y-108890000D03*
X128730000Y-106350000D03*
D23*
X117750000Y-99500000D03*
X115250000Y-99500000D03*
D22*
X117850000Y-102000000D03*
X115150000Y-102000000D03*
D25*
X81650000Y-80900000D03*
D26*
G36*
X82357107Y-81960660D02*
X80589340Y-80192893D01*
X80942893Y-79839340D01*
X82710660Y-81607107D01*
X82357107Y-81960660D01*
X82357107Y-81960660D01*
G37*
D25*
X82498528Y-80051472D03*
D26*
G36*
X83205635Y-81112132D02*
X81437868Y-79344365D01*
X81791421Y-78990812D01*
X83559188Y-80758579D01*
X83205635Y-81112132D01*
X83205635Y-81112132D01*
G37*
D25*
X83347056Y-79202944D03*
D26*
G36*
X84054163Y-80263604D02*
X82286396Y-78495837D01*
X82639949Y-78142284D01*
X84407716Y-79910051D01*
X84054163Y-80263604D01*
X84054163Y-80263604D01*
G37*
D27*
X87143502Y-79206498D03*
D26*
G36*
X87302601Y-78517069D02*
X87832931Y-79047399D01*
X86984403Y-79895927D01*
X86454073Y-79365597D01*
X87302601Y-78517069D01*
X87302601Y-78517069D01*
G37*
D27*
X85800000Y-80550000D03*
D26*
G36*
X85959099Y-79860571D02*
X86489429Y-80390901D01*
X85640901Y-81239429D01*
X85110571Y-80709099D01*
X85959099Y-79860571D01*
X85959099Y-79860571D01*
G37*
D27*
X95328249Y-86671751D03*
D26*
G36*
X95169150Y-87361180D02*
X94638820Y-86830850D01*
X95487348Y-85982322D01*
X96017678Y-86512652D01*
X95169150Y-87361180D01*
X95169150Y-87361180D01*
G37*
D27*
X96671751Y-85328249D03*
D26*
G36*
X96512652Y-86017678D02*
X95982322Y-85487348D01*
X96830850Y-84638820D01*
X97361180Y-85169150D01*
X96512652Y-86017678D01*
X96512652Y-86017678D01*
G37*
D27*
X81671751Y-87328249D03*
D26*
G36*
X81830850Y-86638820D02*
X82361180Y-87169150D01*
X81512652Y-88017678D01*
X80982322Y-87487348D01*
X81830850Y-86638820D01*
X81830850Y-86638820D01*
G37*
D27*
X80328249Y-88671751D03*
D26*
G36*
X80487348Y-87982322D02*
X81017678Y-88512652D01*
X80169150Y-89361180D01*
X79638820Y-88830850D01*
X80487348Y-87982322D01*
X80487348Y-87982322D01*
G37*
D27*
X88828249Y-93828249D03*
D26*
G36*
X88138820Y-93669150D02*
X88669150Y-93138820D01*
X89517678Y-93987348D01*
X88987348Y-94517678D01*
X88138820Y-93669150D01*
X88138820Y-93669150D01*
G37*
D27*
X90171751Y-95171751D03*
D26*
G36*
X89482322Y-95012652D02*
X90012652Y-94482322D01*
X90861180Y-95330850D01*
X90330850Y-95861180D01*
X89482322Y-95012652D01*
X89482322Y-95012652D01*
G37*
D17*
X76650000Y-106350000D03*
D18*
X79190000Y-106350000D03*
D23*
X84150000Y-120950000D03*
X81650000Y-120950000D03*
X84150000Y-109950000D03*
X81650000Y-109950000D03*
D22*
X117850000Y-84500000D03*
X115150000Y-84500000D03*
X115050000Y-82000000D03*
X117750000Y-82000000D03*
X117850000Y-92000000D03*
X115150000Y-92000000D03*
X84250000Y-118450000D03*
X81550000Y-118450000D03*
D28*
X124000000Y-110725000D03*
X124000000Y-118275000D03*
D24*
X81550000Y-113900000D03*
X81550000Y-112000000D03*
X84250000Y-112950000D03*
D19*
X118425000Y-87000000D03*
X114575000Y-87000000D03*
D28*
X124000000Y-89275000D03*
X124000000Y-81725000D03*
D24*
X115650000Y-120450000D03*
X115650000Y-118550000D03*
X118350000Y-119500000D03*
D22*
X115150000Y-89500000D03*
X117850000Y-89500000D03*
X115150000Y-87000000D03*
X117850000Y-87000000D03*
D16*
X97900000Y-74000000D03*
D15*
X102100000Y-74000000D03*
D14*
X96550000Y-71550000D03*
X103450000Y-71550000D03*
D13*
X96000000Y-71950000D03*
X104000000Y-71950000D03*
D29*
X108475000Y-103775000D03*
X102125000Y-105045000D03*
X102125000Y-103775000D03*
X102125000Y-102505000D03*
X102125000Y-101235000D03*
X102125000Y-99965000D03*
X102125000Y-98695000D03*
X102125000Y-97425000D03*
X102125000Y-96155000D03*
X108475000Y-96155000D03*
X108475000Y-97425000D03*
X108475000Y-98695000D03*
X108475000Y-99965000D03*
X108475000Y-101235000D03*
X108475000Y-102505000D03*
X108475000Y-105045000D03*
X108275000Y-92595000D03*
X108275000Y-90055000D03*
X108275000Y-88785000D03*
X108275000Y-87515000D03*
X108275000Y-86245000D03*
X108275000Y-84975000D03*
X108275000Y-83705000D03*
X101925000Y-83705000D03*
X101925000Y-84975000D03*
X101925000Y-86245000D03*
X101925000Y-87515000D03*
X101925000Y-88785000D03*
X101925000Y-90055000D03*
X101925000Y-91325000D03*
X101925000Y-92595000D03*
X108275000Y-91325000D03*
D30*
X91110000Y-77140000D03*
X93650000Y-77140000D03*
X96190000Y-77140000D03*
X98730000Y-77140000D03*
X101270000Y-77140000D03*
X103810000Y-77140000D03*
X106350000Y-77140000D03*
X108890000Y-77140000D03*
X106350000Y-122860000D03*
X108890000Y-122860000D03*
X98730000Y-122860000D03*
X101270000Y-122860000D03*
X96190000Y-122860000D03*
X103810000Y-122860000D03*
X93650000Y-122860000D03*
D31*
X91110000Y-122860000D03*
D32*
X113000000Y-117000000D03*
X121000000Y-106000000D03*
X113000000Y-111000000D03*
X121000000Y-97000000D03*
X121000000Y-101000000D03*
X113000000Y-79000000D03*
X76835000Y-86360000D03*
X76835000Y-88900000D03*
X76835000Y-91440000D03*
X79375000Y-93980000D03*
X76835000Y-93980000D03*
D27*
X78471751Y-83671751D03*
D26*
G36*
X79161180Y-83830850D02*
X78630850Y-84361180D01*
X77782322Y-83512652D01*
X78312652Y-82982322D01*
X79161180Y-83830850D01*
X79161180Y-83830850D01*
G37*
D27*
X77128249Y-82328249D03*
D26*
G36*
X77817678Y-82487348D02*
X77287348Y-83017678D01*
X76438820Y-82169150D01*
X76969150Y-81638820D01*
X77817678Y-82487348D01*
X77817678Y-82487348D01*
G37*
D27*
X78256498Y-81256498D03*
D26*
G36*
X78945927Y-81415597D02*
X78415597Y-81945927D01*
X77567069Y-81097399D01*
X78097399Y-80567069D01*
X78945927Y-81415597D01*
X78945927Y-81415597D01*
G37*
D27*
X79600000Y-82600000D03*
D26*
G36*
X80289429Y-82759099D02*
X79759099Y-83289429D01*
X78910571Y-82440901D01*
X79440901Y-81910571D01*
X80289429Y-82759099D01*
X80289429Y-82759099D01*
G37*
D33*
X92250000Y-118280000D03*
X92250000Y-117010000D03*
X92250000Y-115740000D03*
X92250000Y-114470000D03*
X92250000Y-113200000D03*
X92250000Y-111930000D03*
X92250000Y-110660000D03*
X92250000Y-109390000D03*
X92250000Y-108120000D03*
X101950000Y-108120000D03*
X101950000Y-109390000D03*
X101950000Y-110660000D03*
X101950000Y-111930000D03*
X101950000Y-113200000D03*
X101950000Y-114470000D03*
X101950000Y-115740000D03*
X101950000Y-117010000D03*
X101950000Y-118280000D03*
D34*
X81505097Y-83589806D03*
D26*
G36*
X81575808Y-84791888D02*
X80303015Y-83519095D01*
X81434386Y-82387724D01*
X82707179Y-83660517D01*
X81575808Y-84791888D01*
X81575808Y-84791888D01*
G37*
D34*
X79694903Y-85400000D03*
D26*
G36*
X79765614Y-86602082D02*
X78492821Y-85329289D01*
X79624192Y-84197918D01*
X80896985Y-85470711D01*
X79765614Y-86602082D01*
X79765614Y-86602082D01*
G37*
D35*
X118872000Y-72000000D03*
X118872000Y-74700000D03*
D36*
X127150000Y-103500000D03*
X127150000Y-96500000D03*
D37*
X124450000Y-102500000D03*
X124450000Y-97500000D03*
D38*
X124450000Y-101300000D03*
X124450000Y-100650000D03*
X124450000Y-100000000D03*
X124450000Y-99350000D03*
X124450000Y-98700000D03*
D39*
X83391154Y-85780241D03*
D26*
G36*
X82737080Y-85302944D02*
X82913857Y-85126167D01*
X84045228Y-86257538D01*
X83868451Y-86434315D01*
X82737080Y-85302944D01*
X82737080Y-85302944D01*
G37*
D39*
X83744707Y-85426687D03*
D26*
G36*
X83090633Y-84949390D02*
X83267410Y-84772613D01*
X84398781Y-85903984D01*
X84222004Y-86080761D01*
X83090633Y-84949390D01*
X83090633Y-84949390D01*
G37*
D39*
X84098260Y-85073134D03*
D26*
G36*
X83444186Y-84595837D02*
X83620963Y-84419060D01*
X84752334Y-85550431D01*
X84575557Y-85727208D01*
X83444186Y-84595837D01*
X83444186Y-84595837D01*
G37*
D39*
X84451814Y-84719581D03*
D26*
G36*
X83797740Y-84242284D02*
X83974517Y-84065507D01*
X85105888Y-85196878D01*
X84929111Y-85373655D01*
X83797740Y-84242284D01*
X83797740Y-84242284D01*
G37*
D39*
X84805367Y-84366027D03*
D26*
G36*
X84151293Y-83888730D02*
X84328070Y-83711953D01*
X85459441Y-84843324D01*
X85282664Y-85020101D01*
X84151293Y-83888730D01*
X84151293Y-83888730D01*
G37*
D39*
X85158920Y-84012474D03*
D26*
G36*
X84504846Y-83535177D02*
X84681623Y-83358400D01*
X85812994Y-84489771D01*
X85636217Y-84666548D01*
X84504846Y-83535177D01*
X84504846Y-83535177D01*
G37*
D39*
X85512474Y-83658920D03*
D26*
G36*
X84858400Y-83181623D02*
X85035177Y-83004846D01*
X86166548Y-84136217D01*
X85989771Y-84312994D01*
X84858400Y-83181623D01*
X84858400Y-83181623D01*
G37*
D39*
X85866027Y-83305367D03*
D26*
G36*
X85211953Y-82828070D02*
X85388730Y-82651293D01*
X86520101Y-83782664D01*
X86343324Y-83959441D01*
X85211953Y-82828070D01*
X85211953Y-82828070D01*
G37*
D39*
X86219581Y-82951814D03*
D26*
G36*
X85565507Y-82474517D02*
X85742284Y-82297740D01*
X86873655Y-83429111D01*
X86696878Y-83605888D01*
X85565507Y-82474517D01*
X85565507Y-82474517D01*
G37*
D39*
X86573134Y-82598260D03*
D26*
G36*
X85919060Y-82120963D02*
X86095837Y-81944186D01*
X87227208Y-83075557D01*
X87050431Y-83252334D01*
X85919060Y-82120963D01*
X85919060Y-82120963D01*
G37*
D39*
X86926687Y-82244707D03*
D26*
G36*
X86272613Y-81767410D02*
X86449390Y-81590633D01*
X87580761Y-82722004D01*
X87403984Y-82898781D01*
X86272613Y-81767410D01*
X86272613Y-81767410D01*
G37*
D39*
X87280241Y-81891154D03*
D26*
G36*
X86626167Y-81413857D02*
X86802944Y-81237080D01*
X87934315Y-82368451D01*
X87757538Y-82545228D01*
X86626167Y-81413857D01*
X86626167Y-81413857D01*
G37*
D39*
X89719759Y-81891154D03*
D26*
G36*
X90197056Y-81237080D02*
X90373833Y-81413857D01*
X89242462Y-82545228D01*
X89065685Y-82368451D01*
X90197056Y-81237080D01*
X90197056Y-81237080D01*
G37*
D39*
X90073313Y-82244707D03*
D26*
G36*
X90550610Y-81590633D02*
X90727387Y-81767410D01*
X89596016Y-82898781D01*
X89419239Y-82722004D01*
X90550610Y-81590633D01*
X90550610Y-81590633D01*
G37*
D39*
X90426866Y-82598260D03*
D26*
G36*
X90904163Y-81944186D02*
X91080940Y-82120963D01*
X89949569Y-83252334D01*
X89772792Y-83075557D01*
X90904163Y-81944186D01*
X90904163Y-81944186D01*
G37*
D39*
X90780419Y-82951814D03*
D26*
G36*
X91257716Y-82297740D02*
X91434493Y-82474517D01*
X90303122Y-83605888D01*
X90126345Y-83429111D01*
X91257716Y-82297740D01*
X91257716Y-82297740D01*
G37*
D39*
X91133973Y-83305367D03*
D26*
G36*
X91611270Y-82651293D02*
X91788047Y-82828070D01*
X90656676Y-83959441D01*
X90479899Y-83782664D01*
X91611270Y-82651293D01*
X91611270Y-82651293D01*
G37*
D39*
X91487526Y-83658920D03*
D26*
G36*
X91964823Y-83004846D02*
X92141600Y-83181623D01*
X91010229Y-84312994D01*
X90833452Y-84136217D01*
X91964823Y-83004846D01*
X91964823Y-83004846D01*
G37*
D39*
X91841080Y-84012474D03*
D26*
G36*
X92318377Y-83358400D02*
X92495154Y-83535177D01*
X91363783Y-84666548D01*
X91187006Y-84489771D01*
X92318377Y-83358400D01*
X92318377Y-83358400D01*
G37*
D39*
X92194633Y-84366027D03*
D26*
G36*
X92671930Y-83711953D02*
X92848707Y-83888730D01*
X91717336Y-85020101D01*
X91540559Y-84843324D01*
X92671930Y-83711953D01*
X92671930Y-83711953D01*
G37*
D39*
X92548186Y-84719581D03*
D26*
G36*
X93025483Y-84065507D02*
X93202260Y-84242284D01*
X92070889Y-85373655D01*
X91894112Y-85196878D01*
X93025483Y-84065507D01*
X93025483Y-84065507D01*
G37*
D39*
X92901740Y-85073134D03*
D26*
G36*
X93379037Y-84419060D02*
X93555814Y-84595837D01*
X92424443Y-85727208D01*
X92247666Y-85550431D01*
X93379037Y-84419060D01*
X93379037Y-84419060D01*
G37*
D39*
X93255293Y-85426687D03*
D26*
G36*
X93732590Y-84772613D02*
X93909367Y-84949390D01*
X92777996Y-86080761D01*
X92601219Y-85903984D01*
X93732590Y-84772613D01*
X93732590Y-84772613D01*
G37*
D39*
X93608846Y-85780241D03*
D26*
G36*
X94086143Y-85126167D02*
X94262920Y-85302944D01*
X93131549Y-86434315D01*
X92954772Y-86257538D01*
X94086143Y-85126167D01*
X94086143Y-85126167D01*
G37*
D39*
X93608846Y-88219759D03*
D26*
G36*
X92954772Y-87742462D02*
X93131549Y-87565685D01*
X94262920Y-88697056D01*
X94086143Y-88873833D01*
X92954772Y-87742462D01*
X92954772Y-87742462D01*
G37*
D39*
X93255293Y-88573313D03*
D26*
G36*
X92601219Y-88096016D02*
X92777996Y-87919239D01*
X93909367Y-89050610D01*
X93732590Y-89227387D01*
X92601219Y-88096016D01*
X92601219Y-88096016D01*
G37*
D39*
X92901740Y-88926866D03*
D26*
G36*
X92247666Y-88449569D02*
X92424443Y-88272792D01*
X93555814Y-89404163D01*
X93379037Y-89580940D01*
X92247666Y-88449569D01*
X92247666Y-88449569D01*
G37*
D39*
X92548186Y-89280419D03*
D26*
G36*
X91894112Y-88803122D02*
X92070889Y-88626345D01*
X93202260Y-89757716D01*
X93025483Y-89934493D01*
X91894112Y-88803122D01*
X91894112Y-88803122D01*
G37*
D39*
X92194633Y-89633973D03*
D26*
G36*
X91540559Y-89156676D02*
X91717336Y-88979899D01*
X92848707Y-90111270D01*
X92671930Y-90288047D01*
X91540559Y-89156676D01*
X91540559Y-89156676D01*
G37*
D39*
X91841080Y-89987526D03*
D26*
G36*
X91187006Y-89510229D02*
X91363783Y-89333452D01*
X92495154Y-90464823D01*
X92318377Y-90641600D01*
X91187006Y-89510229D01*
X91187006Y-89510229D01*
G37*
D39*
X91487526Y-90341080D03*
D26*
G36*
X90833452Y-89863783D02*
X91010229Y-89687006D01*
X92141600Y-90818377D01*
X91964823Y-90995154D01*
X90833452Y-89863783D01*
X90833452Y-89863783D01*
G37*
D39*
X91133973Y-90694633D03*
D26*
G36*
X90479899Y-90217336D02*
X90656676Y-90040559D01*
X91788047Y-91171930D01*
X91611270Y-91348707D01*
X90479899Y-90217336D01*
X90479899Y-90217336D01*
G37*
D39*
X90780419Y-91048186D03*
D26*
G36*
X90126345Y-90570889D02*
X90303122Y-90394112D01*
X91434493Y-91525483D01*
X91257716Y-91702260D01*
X90126345Y-90570889D01*
X90126345Y-90570889D01*
G37*
D39*
X90426866Y-91401740D03*
D26*
G36*
X89772792Y-90924443D02*
X89949569Y-90747666D01*
X91080940Y-91879037D01*
X90904163Y-92055814D01*
X89772792Y-90924443D01*
X89772792Y-90924443D01*
G37*
D39*
X90073313Y-91755293D03*
D26*
G36*
X89419239Y-91277996D02*
X89596016Y-91101219D01*
X90727387Y-92232590D01*
X90550610Y-92409367D01*
X89419239Y-91277996D01*
X89419239Y-91277996D01*
G37*
D39*
X89719759Y-92108846D03*
D26*
G36*
X89065685Y-91631549D02*
X89242462Y-91454772D01*
X90373833Y-92586143D01*
X90197056Y-92762920D01*
X89065685Y-91631549D01*
X89065685Y-91631549D01*
G37*
D39*
X87280241Y-92108846D03*
D26*
G36*
X87757538Y-91454772D02*
X87934315Y-91631549D01*
X86802944Y-92762920D01*
X86626167Y-92586143D01*
X87757538Y-91454772D01*
X87757538Y-91454772D01*
G37*
D39*
X86926687Y-91755293D03*
D26*
G36*
X87403984Y-91101219D02*
X87580761Y-91277996D01*
X86449390Y-92409367D01*
X86272613Y-92232590D01*
X87403984Y-91101219D01*
X87403984Y-91101219D01*
G37*
D39*
X86573134Y-91401740D03*
D26*
G36*
X87050431Y-90747666D02*
X87227208Y-90924443D01*
X86095837Y-92055814D01*
X85919060Y-91879037D01*
X87050431Y-90747666D01*
X87050431Y-90747666D01*
G37*
D39*
X86219581Y-91048186D03*
D26*
G36*
X86696878Y-90394112D02*
X86873655Y-90570889D01*
X85742284Y-91702260D01*
X85565507Y-91525483D01*
X86696878Y-90394112D01*
X86696878Y-90394112D01*
G37*
D39*
X85866027Y-90694633D03*
D26*
G36*
X86343324Y-90040559D02*
X86520101Y-90217336D01*
X85388730Y-91348707D01*
X85211953Y-91171930D01*
X86343324Y-90040559D01*
X86343324Y-90040559D01*
G37*
D39*
X85512474Y-90341080D03*
D26*
G36*
X85989771Y-89687006D02*
X86166548Y-89863783D01*
X85035177Y-90995154D01*
X84858400Y-90818377D01*
X85989771Y-89687006D01*
X85989771Y-89687006D01*
G37*
D39*
X85158920Y-89987526D03*
D26*
G36*
X85636217Y-89333452D02*
X85812994Y-89510229D01*
X84681623Y-90641600D01*
X84504846Y-90464823D01*
X85636217Y-89333452D01*
X85636217Y-89333452D01*
G37*
D39*
X84805367Y-89633973D03*
D26*
G36*
X85282664Y-88979899D02*
X85459441Y-89156676D01*
X84328070Y-90288047D01*
X84151293Y-90111270D01*
X85282664Y-88979899D01*
X85282664Y-88979899D01*
G37*
D39*
X84451814Y-89280419D03*
D26*
G36*
X84929111Y-88626345D02*
X85105888Y-88803122D01*
X83974517Y-89934493D01*
X83797740Y-89757716D01*
X84929111Y-88626345D01*
X84929111Y-88626345D01*
G37*
D39*
X84098260Y-88926866D03*
D26*
G36*
X84575557Y-88272792D02*
X84752334Y-88449569D01*
X83620963Y-89580940D01*
X83444186Y-89404163D01*
X84575557Y-88272792D01*
X84575557Y-88272792D01*
G37*
D39*
X83744707Y-88573313D03*
D26*
G36*
X84222004Y-87919239D02*
X84398781Y-88096016D01*
X83267410Y-89227387D01*
X83090633Y-89050610D01*
X84222004Y-87919239D01*
X84222004Y-87919239D01*
G37*
D39*
X83391154Y-88219759D03*
D26*
G36*
X83868451Y-87565685D02*
X84045228Y-87742462D01*
X82913857Y-88873833D01*
X82737080Y-88697056D01*
X83868451Y-87565685D01*
X83868451Y-87565685D01*
G37*
D40*
X100893600Y-96200000D03*
X89143600Y-96200000D03*
X96474100Y-74457500D03*
X100762000Y-125281500D03*
X80125300Y-113900000D03*
D41*
X73800000Y-113900000D03*
D40*
X123532578Y-85216901D03*
X86360000Y-114300000D03*
X88950000Y-85601389D03*
D41*
X73699988Y-86100000D03*
D40*
X81100000Y-107050000D03*
X75854980Y-83445000D03*
X113650000Y-88195900D03*
X89330700Y-83553400D03*
X84178059Y-81971941D03*
X78300000Y-98900000D03*
X75650000Y-87000004D03*
X98789600Y-102920300D03*
D41*
X124868000Y-92500000D03*
X124768000Y-107500000D03*
X122422592Y-97877408D03*
D40*
X121000000Y-103750000D03*
X119195700Y-101002000D03*
X90308500Y-93448800D03*
X118955900Y-98126000D03*
X119278800Y-94429100D03*
X120553200Y-76364900D03*
X109070246Y-94076300D03*
X96426500Y-94080500D03*
X83268000Y-90483200D03*
X94094400Y-89765119D03*
X111900000Y-82800000D03*
X121034359Y-107960513D03*
X92378908Y-94372544D03*
X91450000Y-98350000D03*
X91756200Y-87748600D03*
X123277962Y-92185190D03*
X96950000Y-91600000D03*
X85650000Y-77100000D03*
X89938910Y-106062926D03*
X107321425Y-114862190D03*
X85600000Y-87600000D03*
X114097600Y-78477500D03*
X86249310Y-85301100D03*
X117809200Y-78120300D03*
X120250000Y-73249999D03*
X113629840Y-82370154D03*
X91361767Y-81399310D03*
X102105613Y-78843318D03*
X99823600Y-113852600D03*
X95181700Y-106759100D03*
X96007906Y-104417092D03*
X103251249Y-78815249D03*
X105750001Y-111750000D03*
X103730118Y-112749988D03*
X103750012Y-115750000D03*
X100141200Y-109791000D03*
X96157000Y-105594800D03*
X80025200Y-104688300D03*
X116500000Y-87969300D03*
X93463853Y-94246762D03*
X90850000Y-101850000D03*
X92479192Y-81399310D03*
X112102700Y-75847100D03*
X88973272Y-80970104D03*
X109350000Y-79800000D03*
X107794754Y-111694754D03*
X108850000Y-118950000D03*
X88276007Y-80056557D03*
X84300000Y-77750000D03*
X75250000Y-85850000D03*
X90249968Y-107250000D03*
X89300000Y-87800000D03*
X95650000Y-90075000D03*
X119300000Y-91550000D03*
X89561900Y-90216500D03*
X93373300Y-90591900D03*
X120100000Y-86700000D03*
X122015600Y-114032000D03*
X92826778Y-100086464D03*
X121549473Y-98868472D03*
X94400000Y-92355500D03*
X120766502Y-99629973D03*
X94400000Y-93444500D03*
X88529269Y-76600690D03*
X88900000Y-79000000D03*
X106442500Y-89587868D03*
X112205721Y-83996052D03*
X91027900Y-85301600D03*
X100150000Y-87800000D03*
X79700000Y-90500000D03*
X85702400Y-93356600D03*
X103980000Y-95285600D03*
X76362399Y-92766045D03*
X88394700Y-92484800D03*
X105165200Y-95029500D03*
X77777219Y-90237820D03*
X104750000Y-88250000D03*
X87554343Y-89088457D03*
X80855452Y-90595248D03*
X106589800Y-101676300D03*
X76200000Y-90250000D03*
X84400000Y-97299990D03*
D42*
X102720500Y-96155000D02*
X103052500Y-96487000D01*
X103052500Y-96487000D02*
X103052500Y-106867500D01*
X103052500Y-106867500D02*
X101800000Y-108120000D01*
X102125000Y-96155000D02*
X102720500Y-96155000D01*
X102852400Y-92595000D02*
X102852400Y-94706100D01*
X102852400Y-94706100D02*
X102720500Y-94838000D01*
X102720500Y-94838000D02*
X102720500Y-96155000D01*
X124450000Y-102500000D02*
X123619100Y-102500000D01*
X124450000Y-101300000D02*
X123419100Y-101300000D01*
X123619100Y-102500000D02*
X123419100Y-102300000D01*
X123419100Y-102300000D02*
X123419100Y-101300000D01*
X97900000Y-74000000D02*
X96931600Y-74000000D01*
X96931600Y-74000000D02*
X96474100Y-74457500D01*
X102125000Y-96155000D02*
X100938600Y-96155000D01*
X100938600Y-96155000D02*
X100893600Y-96200000D01*
X82446100Y-89371200D02*
X81730000Y-89371200D01*
X101925000Y-92595000D02*
X102852400Y-92595000D01*
D43*
X82946800Y-89371200D02*
X82446100Y-89371200D01*
D42*
X117850000Y-92000000D02*
X117850000Y-93005900D01*
X117750000Y-97000000D02*
X117750000Y-96019100D01*
X117750000Y-96019100D02*
X117387200Y-96019100D01*
X117387200Y-96019100D02*
X116744000Y-95375900D01*
X116744000Y-95375900D02*
X116744000Y-93609000D01*
X116744000Y-93609000D02*
X117347100Y-93005900D01*
X117347100Y-93005900D02*
X117850000Y-93005900D01*
X117750000Y-99500000D02*
X117750000Y-97000000D01*
D44*
X124676600Y-97273400D02*
X124450000Y-97500000D01*
X127150000Y-96500000D02*
X125450000Y-96500000D01*
X125450000Y-96500000D02*
X124676600Y-97273400D01*
D42*
X102100000Y-126000000D02*
X101144100Y-126000000D01*
X100762000Y-125281500D02*
X101144100Y-125663600D01*
X101144100Y-125663600D02*
X101144100Y-126000000D01*
X81650000Y-110440400D02*
X81650000Y-109950000D01*
D43*
X83744700Y-88573300D02*
X83489500Y-88828500D01*
X83345800Y-88972200D02*
X82946800Y-89371200D01*
D42*
X83345800Y-88972200D02*
X83489500Y-88828500D01*
X80444100Y-115950000D02*
X80125300Y-115631200D01*
X80125300Y-115631200D02*
X80125300Y-113900000D01*
X81650000Y-110440400D02*
X81650000Y-110930900D01*
X81650000Y-110930900D02*
X81550000Y-111030900D01*
X81550000Y-111030900D02*
X81550000Y-112000000D01*
X81550000Y-115950000D02*
X80444100Y-115950000D01*
X115750000Y-116980900D02*
X115504800Y-116980900D01*
X115504800Y-116980900D02*
X114544100Y-117941600D01*
X114544100Y-117941600D02*
X114544100Y-120450000D01*
X115750000Y-116000000D02*
X115750000Y-116980900D01*
X117750000Y-82000000D02*
X117750000Y-83005900D01*
X117750000Y-83005900D02*
X117850000Y-83105900D01*
X117850000Y-83105900D02*
X117850000Y-84500000D01*
X115650000Y-120450000D02*
X114544100Y-120450000D01*
D44*
X71270000Y-83490000D02*
X71270000Y-80830000D01*
X71270000Y-80830000D02*
X72700000Y-79400000D01*
X72700000Y-79400000D02*
X77119600Y-79400000D01*
X77119600Y-79400000D02*
X80000000Y-76519600D01*
X80000000Y-76519600D02*
X80000000Y-73000000D01*
X80000000Y-73000000D02*
X81730000Y-71270000D01*
X81730000Y-71270000D02*
X83490000Y-71270000D01*
X71270000Y-83490000D02*
X71570000Y-83490000D01*
X83490000Y-128730000D02*
X82130000Y-128730000D01*
X82130000Y-128730000D02*
X79500000Y-126100000D01*
X79500000Y-126100000D02*
X79500000Y-123200000D01*
X79500000Y-123200000D02*
X76800000Y-120500000D01*
X76800000Y-120500000D02*
X73000000Y-120500000D01*
X73000000Y-120500000D02*
X71270000Y-118770000D01*
X71270000Y-118770000D02*
X71270000Y-116510000D01*
X118250000Y-109000000D02*
X118250000Y-110235000D01*
X118250000Y-110235000D02*
X116959000Y-111526000D01*
X116959000Y-111526000D02*
X116959000Y-112441000D01*
X116959000Y-112441000D02*
X115950000Y-113450000D01*
X115950000Y-113450000D02*
X115650000Y-113450000D01*
X115750000Y-116000000D02*
X115750000Y-113550000D01*
X115750000Y-113550000D02*
X115650000Y-113450000D01*
X116510000Y-128730000D02*
X117770000Y-128730000D01*
X117770000Y-128730000D02*
X120100000Y-126400000D01*
X120100000Y-126400000D02*
X120100000Y-122700000D01*
X120100000Y-122700000D02*
X124000000Y-118800000D01*
X124000000Y-118800000D02*
X124000000Y-118275000D01*
X128730000Y-116510000D02*
X128390000Y-116510000D01*
X128390000Y-116510000D02*
X126625000Y-118275000D01*
X126625000Y-118275000D02*
X124000000Y-118275000D01*
X127150000Y-103500000D02*
X125450000Y-103500000D01*
X125450000Y-103500000D02*
X124450000Y-102500000D01*
X116510000Y-71270000D02*
X116510000Y-73029600D01*
X116510000Y-73029600D02*
X116500000Y-73039600D01*
X116500000Y-73039600D02*
X116500000Y-74800000D01*
X116500000Y-74800000D02*
X118000000Y-76300000D01*
X118000000Y-76300000D02*
X119100000Y-76300000D01*
X119100000Y-76300000D02*
X124000000Y-81200000D01*
X124000000Y-81200000D02*
X124000000Y-81725000D01*
X71570000Y-116510000D02*
X71270000Y-116510000D01*
X128730000Y-83490000D02*
X125765000Y-83490000D01*
X125765000Y-83490000D02*
X124000000Y-81725000D01*
D42*
X80125000Y-120479800D02*
X80595200Y-120950000D01*
X80595200Y-120950000D02*
X81650000Y-120950000D01*
X80125000Y-120225000D02*
X80125000Y-120479800D01*
X80125000Y-120225000D02*
X73800000Y-113900000D01*
X89300000Y-89288000D02*
X89646150Y-89288000D01*
X94072700Y-84609300D02*
X95952900Y-84609300D01*
X90955800Y-87417100D02*
X92128900Y-86244000D01*
X95952900Y-84609300D02*
X96671800Y-85328200D01*
X90955800Y-87978350D02*
X90955800Y-87417100D01*
X92128900Y-86244000D02*
X92438000Y-86244000D01*
X89646150Y-89288000D02*
X90955800Y-87978350D01*
X92438000Y-86244000D02*
X94072700Y-84609300D01*
X81730000Y-89600000D02*
X81730000Y-89371200D01*
X81730000Y-89600000D02*
X81400000Y-89600000D01*
X81400000Y-89600000D02*
X81350000Y-89650000D01*
X118904800Y-84500000D02*
X119621701Y-85216901D01*
X119621701Y-85216901D02*
X123532578Y-85216901D01*
X117850000Y-84500000D02*
X118904800Y-84500000D01*
X123273400Y-97273400D02*
X124676600Y-97273400D01*
X118000000Y-92000000D02*
X123273400Y-97273400D01*
X117850000Y-92000000D02*
X118000000Y-92000000D01*
X87122000Y-114300000D02*
X86360000Y-114300000D01*
X88499899Y-86051490D02*
X88950000Y-85601389D01*
X89300000Y-89288000D02*
X89300000Y-88984150D01*
X88499899Y-88184049D02*
X88499899Y-86051490D01*
X89300000Y-88984150D02*
X88499899Y-88184049D01*
X81730000Y-91554152D02*
X82000102Y-91284050D01*
X81730000Y-96200000D02*
X81730000Y-91554152D01*
X82000102Y-91284050D02*
X82000102Y-89870102D01*
X82000102Y-89870102D02*
X81730000Y-89600000D01*
D44*
X118375000Y-109000000D02*
X120366999Y-107008001D01*
X118250000Y-109000000D02*
X118375000Y-109000000D01*
X120366999Y-107008001D02*
X121483841Y-107008001D01*
X124450000Y-104041842D02*
X124450000Y-102500000D01*
X121483841Y-107008001D02*
X124450000Y-104041842D01*
D42*
X80125300Y-113424700D02*
X81550000Y-112000000D01*
X80125300Y-113900000D02*
X80125300Y-113424700D01*
X77184747Y-82328249D02*
X78256498Y-81256498D01*
X77128249Y-82328249D02*
X77184747Y-82328249D01*
X85763100Y-83202500D02*
X85866000Y-83305400D01*
X85050000Y-82489400D02*
X85763100Y-83202500D01*
X85800000Y-80550000D02*
X85050000Y-81300000D01*
X85050000Y-81300000D02*
X85050000Y-82489400D01*
X81543935Y-79096879D02*
X82498528Y-80051472D01*
X80416117Y-79096879D02*
X81543935Y-79096879D01*
X78256498Y-81256498D02*
X80416117Y-79096879D01*
X81500000Y-79052944D02*
X81500000Y-78600000D01*
X82498528Y-80051472D02*
X81500000Y-79052944D01*
X83036674Y-77786674D02*
X85800000Y-80550000D01*
X82313326Y-77786674D02*
X83036674Y-77786674D01*
X81500000Y-78600000D02*
X82313326Y-77786674D01*
X89300000Y-89346500D02*
X89300000Y-89288000D01*
X88761500Y-89885000D02*
X89300000Y-89346500D01*
X89143600Y-96200000D02*
X89588099Y-95755501D01*
X89346236Y-91016900D02*
X89230400Y-91016900D01*
X91108900Y-92779564D02*
X89346236Y-91016900D01*
X88761500Y-90548000D02*
X88761500Y-89885000D01*
X89230400Y-91016900D02*
X88761500Y-90548000D01*
X91108900Y-93785539D02*
X91108900Y-92779564D01*
X81650000Y-109950000D02*
X81650000Y-107600000D01*
X81650000Y-107600000D02*
X81100000Y-107050000D01*
D44*
X73740821Y-87092740D02*
X73699988Y-87051907D01*
X73740821Y-97083121D02*
X73740821Y-87092740D01*
X74400000Y-97742300D02*
X73740821Y-97083121D01*
X73842400Y-102522000D02*
X74400000Y-101964000D01*
X73800000Y-113900000D02*
X73800000Y-102564400D01*
X73800000Y-102564400D02*
X73842400Y-102522000D01*
X73699988Y-87051907D02*
X73699988Y-86100000D01*
X74400000Y-101964000D02*
X74400000Y-97742300D01*
D42*
X77128249Y-82328249D02*
X76011498Y-83445000D01*
X76011498Y-83445000D02*
X75854980Y-83445000D01*
X79811300Y-88154900D02*
X79811300Y-87401320D01*
X79811300Y-87401320D02*
X75854980Y-83445000D01*
X81730000Y-89371200D02*
X81027600Y-89371200D01*
X81027600Y-89371200D02*
X79811300Y-88154900D01*
X90171751Y-95171849D02*
X89143600Y-96200000D01*
X90171751Y-95171751D02*
X90171751Y-95171849D01*
X90507626Y-94835876D02*
X90171751Y-95171751D01*
X90507626Y-94386813D02*
X90507626Y-94835876D01*
X91108900Y-93785539D02*
X90507626Y-94386813D01*
X113941600Y-117941600D02*
X114544100Y-117941600D01*
X113000000Y-117000000D02*
X113941600Y-117941600D01*
D45*
X115150000Y-89500000D02*
X115150000Y-92000000D01*
X115150000Y-89500000D02*
X114575000Y-89500000D01*
X114575000Y-88594900D02*
X114049000Y-88594900D01*
X114049000Y-88594900D02*
X113650000Y-88195900D01*
X90426900Y-82598300D02*
X89471800Y-83553400D01*
X89471800Y-83553400D02*
X89330700Y-83553400D01*
X114575000Y-89500000D02*
X114575000Y-88594900D01*
X84150000Y-109950000D02*
X84150000Y-110880100D01*
X84150000Y-110880100D02*
X84250000Y-110980100D01*
X84250000Y-110980100D02*
X84250000Y-112950000D01*
X84150000Y-107395100D02*
X84150000Y-109950000D01*
X81730000Y-103820000D02*
X81730000Y-104975100D01*
X81730000Y-104975100D02*
X84150000Y-107395100D01*
X85512474Y-83658920D02*
X84178059Y-82324505D01*
X84178059Y-82324505D02*
X84178059Y-81971941D01*
X75205501Y-95805501D02*
X75205501Y-87444503D01*
X78300000Y-98900000D02*
X75205501Y-95805501D01*
X75205501Y-87444503D02*
X75650000Y-87000004D01*
D42*
X92400000Y-108120000D02*
X94952800Y-108120000D01*
X94952800Y-108120000D02*
X95982100Y-107090700D01*
X95982100Y-107090700D02*
X95982100Y-106901700D01*
X95982100Y-106901700D02*
X97917000Y-104966800D01*
X97917000Y-104966800D02*
X97917000Y-103792900D01*
X97917000Y-103792900D02*
X98789600Y-102920300D01*
X124450000Y-98700000D02*
X123470000Y-98700000D01*
D44*
X124000000Y-89275000D02*
X124275000Y-89275000D01*
X124275000Y-89275000D02*
X124868000Y-89868100D01*
X124868000Y-89868100D02*
X124868000Y-92500000D01*
X124000000Y-110725000D02*
X124000000Y-109600000D01*
X124000000Y-109600000D02*
X125000000Y-108600000D01*
X125000000Y-108600000D02*
X125000000Y-107732000D01*
X125000000Y-107732000D02*
X124768000Y-107500000D01*
X118350000Y-112500000D02*
X122225000Y-112500000D01*
X122225000Y-112500000D02*
X124000000Y-110725000D01*
X118350000Y-112500000D02*
X118350000Y-115900000D01*
X118350000Y-115900000D02*
X118250000Y-116000000D01*
X118250000Y-116000000D02*
X118250000Y-116300000D01*
X118250000Y-116300000D02*
X116000000Y-118550000D01*
X116000000Y-118550000D02*
X115650000Y-118550000D01*
D42*
X121000000Y-103750000D02*
X121000000Y-106000000D01*
X123245184Y-98700000D02*
X122422592Y-97877408D01*
X124250000Y-98700000D02*
X123245184Y-98700000D01*
X108475000Y-105045000D02*
X109402400Y-105045000D01*
X117850000Y-102000000D02*
X118955900Y-102000000D01*
X118955900Y-102000000D02*
X118955900Y-101241800D01*
X118955900Y-101241800D02*
X119195700Y-101002000D01*
X109402400Y-105045000D02*
X109402400Y-97425000D01*
X108475000Y-97425000D02*
X109402400Y-97425000D01*
X89739000Y-92917400D02*
X89719800Y-92898300D01*
X89719800Y-92898300D02*
X89719800Y-92329200D01*
X90308500Y-93448800D02*
X89796300Y-92936600D01*
X89796300Y-92936600D02*
X89758100Y-92936600D01*
X89758100Y-92936600D02*
X89739000Y-92917400D01*
D43*
X89719800Y-92108900D02*
X89719800Y-92108800D01*
X89719800Y-92219000D02*
X89719800Y-92108900D01*
D42*
X89719800Y-92245500D02*
X89719800Y-92219000D01*
D43*
X89719800Y-92329200D02*
X89719800Y-92245500D01*
D42*
X84208600Y-86597700D02*
X84208700Y-86597600D01*
X84208700Y-87402300D02*
X84208600Y-87402300D01*
X84208600Y-87402300D02*
X84208600Y-86597700D01*
D43*
X86231400Y-82951800D02*
X86219600Y-82951800D01*
D42*
X83391200Y-88219800D02*
X84208700Y-87402300D01*
X83391200Y-85780200D02*
X84208700Y-86597600D01*
X82188700Y-87845100D02*
X83016500Y-87845100D01*
X83016500Y-87845100D02*
X83391200Y-88219800D01*
X81671800Y-87328200D02*
X82188700Y-87845100D01*
X118955900Y-94500000D02*
X118955900Y-98126000D01*
X119278800Y-94429100D02*
X119026800Y-94429100D01*
X119026800Y-94429100D02*
X118955900Y-94500000D01*
X117850000Y-94500000D02*
X118955900Y-94500000D01*
X115750000Y-109000000D02*
X115750000Y-108019100D01*
X115750000Y-108019100D02*
X117850000Y-105919100D01*
X117850000Y-105919100D02*
X117850000Y-102000000D01*
D43*
X93614900Y-85786300D02*
X93608800Y-85780200D01*
D42*
X120553200Y-76364900D02*
X120553200Y-76009100D01*
X120553200Y-76009100D02*
X120000000Y-75455900D01*
X95306849Y-86671751D02*
X94903600Y-87075000D01*
X95328249Y-86671751D02*
X95306849Y-86671751D01*
X93614900Y-85786300D02*
X94903600Y-87075000D01*
X108275000Y-92595000D02*
X108275000Y-93281054D01*
X109402400Y-95037071D02*
X109070246Y-94704917D01*
X108275000Y-93281054D02*
X109070246Y-94076300D01*
X109070246Y-94704917D02*
X109070246Y-94076300D01*
X109402400Y-97425000D02*
X109402400Y-95037071D01*
X89719800Y-92108900D02*
X89603600Y-92108900D01*
X88222400Y-90727700D02*
X88222400Y-89704900D01*
X88438000Y-89489300D02*
X88438000Y-88840586D01*
X89603600Y-92108900D02*
X88222400Y-90727700D01*
X88222400Y-89704900D02*
X88438000Y-89489300D01*
X86372800Y-86775386D02*
X86372800Y-86597700D01*
X88438000Y-88840586D02*
X86372800Y-86775386D01*
X115100000Y-111000000D02*
X115650000Y-111550000D01*
X113000000Y-111000000D02*
X115100000Y-111000000D01*
X115750000Y-111450000D02*
X115650000Y-111550000D01*
X115750000Y-109000000D02*
X115750000Y-111450000D01*
X84210900Y-86600000D02*
X84208600Y-86597700D01*
X86372800Y-86597700D02*
X86370500Y-86600000D01*
X86370500Y-86600000D02*
X84210900Y-86600000D01*
X94903600Y-87075000D02*
X97400000Y-89571400D01*
X97750102Y-93099898D02*
X96769500Y-94080500D01*
X97400000Y-89571400D02*
X97400000Y-90400000D01*
X97750102Y-90750102D02*
X97750102Y-93099898D01*
X97400000Y-90400000D02*
X97750102Y-90750102D01*
X96769500Y-94080500D02*
X96426500Y-94080500D01*
X86372800Y-86597700D02*
X87049412Y-85921088D01*
X87049412Y-83769812D02*
X86231400Y-82951800D01*
X87049412Y-85921088D02*
X87049412Y-83769812D01*
X87143502Y-80393610D02*
X85563450Y-81973662D01*
X85563450Y-82284416D02*
X86225214Y-82946180D01*
X87143502Y-79206498D02*
X87143502Y-80393610D01*
X85563450Y-81973662D02*
X85563450Y-82284416D01*
X80954800Y-100010000D02*
X83745559Y-100010000D01*
X79190000Y-106350000D02*
X79190000Y-101774800D01*
X79190000Y-101774800D02*
X80954800Y-100010000D01*
X119826800Y-74700000D02*
X118872000Y-74700000D01*
X120000000Y-74873200D02*
X119826800Y-74700000D01*
X120000000Y-75455900D02*
X120000000Y-74873200D01*
X89719898Y-92936600D02*
X88828249Y-93828249D01*
X89758100Y-92936600D02*
X89719898Y-92936600D01*
X88828249Y-93828249D02*
X88828249Y-94927310D01*
X88828249Y-94927310D02*
X88000000Y-95755559D01*
X83745559Y-100010000D02*
X88000000Y-95755559D01*
D44*
X120879000Y-120700000D02*
X121800000Y-119779000D01*
X121800000Y-119779000D02*
X121800000Y-115900000D01*
X121800000Y-115900000D02*
X123730000Y-113970000D01*
X123730000Y-113970000D02*
X128730000Y-113970000D01*
X113970000Y-128730000D02*
X113970000Y-128430000D01*
X113970000Y-128430000D02*
X115700000Y-126700000D01*
X115700000Y-126700000D02*
X118400000Y-126700000D01*
X118400000Y-126700000D02*
X119200000Y-125900000D01*
X119200000Y-125900000D02*
X119200000Y-122379000D01*
X119200000Y-122379000D02*
X120879000Y-120700000D01*
X74100000Y-119600000D02*
X73100000Y-118600000D01*
X73100000Y-118600000D02*
X73100000Y-115500000D01*
X73100000Y-115500000D02*
X71570000Y-113970000D01*
X86030000Y-71270000D02*
X86030000Y-73029600D01*
X86030000Y-73029600D02*
X85659600Y-73400000D01*
X85659600Y-73400000D02*
X82800000Y-73400000D01*
X82800000Y-73400000D02*
X80900000Y-75300000D01*
X80900000Y-75300000D02*
X80900000Y-76840900D01*
X80900000Y-76840900D02*
X78020500Y-79720500D01*
X78020500Y-79720500D02*
X77440900Y-80300000D01*
X77440900Y-80300000D02*
X74400000Y-80300000D01*
X74400000Y-80300000D02*
X73300000Y-81400000D01*
X73300000Y-81400000D02*
X73300000Y-84300000D01*
X73300000Y-84300000D02*
X71570000Y-86030000D01*
X71570000Y-86030000D02*
X71270000Y-86030000D01*
X86030000Y-128730000D02*
X86030000Y-126970000D01*
X86030000Y-126970000D02*
X85659600Y-126600000D01*
X85659600Y-126600000D02*
X81500000Y-126600000D01*
X81500000Y-126600000D02*
X80400000Y-125500000D01*
X80400000Y-125500000D02*
X80400000Y-122879000D01*
X80400000Y-122879000D02*
X77760700Y-120239000D01*
X77760700Y-120239000D02*
X77121300Y-119600000D01*
X77121300Y-119600000D02*
X74100000Y-119600000D01*
X118350000Y-119500000D02*
X119710000Y-119500000D01*
X119710000Y-119500000D02*
X120879000Y-120669000D01*
X120879000Y-120669000D02*
X120879000Y-120700000D01*
X71570000Y-113970000D02*
X71270000Y-113970000D01*
X125140000Y-84200000D02*
X121800000Y-84200000D01*
X126970000Y-86030000D02*
X125140000Y-84200000D01*
X121800000Y-80300000D02*
X118664000Y-77163600D01*
X117564000Y-77163600D02*
X113970000Y-73569600D01*
X118664000Y-77163600D02*
X117564000Y-77163600D01*
X121800000Y-84200000D02*
X121800000Y-80300000D01*
X128730000Y-86030000D02*
X126970000Y-86030000D01*
X113970000Y-73569600D02*
X113970000Y-71270000D01*
X72978800Y-102164000D02*
X72978800Y-112014000D01*
X72978800Y-112014000D02*
X72540000Y-112452000D01*
X73536400Y-98100000D02*
X73536400Y-101607000D01*
X72540000Y-113000000D02*
X71570000Y-113970000D01*
X73536400Y-101607000D02*
X72978800Y-102164000D01*
X71570000Y-86030000D02*
X72928010Y-87388010D01*
X72928010Y-87388010D02*
X72928010Y-97491610D01*
X72928010Y-97491610D02*
X73536400Y-98100000D01*
X72540000Y-112452000D02*
X72540000Y-113000000D01*
D45*
X83268000Y-90483200D02*
X83268000Y-89757200D01*
X83268000Y-89757200D02*
X84098300Y-88926900D01*
X93255300Y-88573300D02*
X94094400Y-89412400D01*
X94094400Y-89412400D02*
X94094400Y-89765119D01*
X121951530Y-107960513D02*
X121034359Y-107960513D01*
X126062099Y-106522099D02*
X123389944Y-106522099D01*
X123389944Y-106522099D02*
X121951530Y-107960513D01*
X128430000Y-108890000D02*
X126062099Y-106522099D01*
X128730000Y-108890000D02*
X128430000Y-108890000D01*
X91110000Y-128730000D02*
X91110000Y-128430000D01*
X89189608Y-126509608D02*
X89189608Y-98617821D01*
X91110000Y-128430000D02*
X89189608Y-126509608D01*
X89189608Y-98617821D02*
X90900000Y-96907429D01*
X92378908Y-95428521D02*
X92378908Y-94372544D01*
X90900000Y-96907429D02*
X92378908Y-95428521D01*
X90900000Y-97800000D02*
X91450000Y-98350000D01*
X90900000Y-96907429D02*
X90900000Y-97800000D01*
X111255501Y-82155501D02*
X111900000Y-82800000D01*
X108890000Y-71270000D02*
X108890000Y-71570000D01*
X108890000Y-71570000D02*
X111255501Y-73935501D01*
X111255501Y-73935501D02*
X111255501Y-82155501D01*
X92120200Y-88079400D02*
X92087000Y-88079400D01*
X92087000Y-88079400D02*
X91756200Y-87748600D01*
X92120200Y-88079400D02*
X92120200Y-88145300D01*
X92901700Y-88926900D02*
X92120200Y-88145300D01*
X123277962Y-92357256D02*
X123277962Y-92185190D01*
X128730000Y-91110000D02*
X128430000Y-91110000D01*
X128430000Y-91110000D02*
X126062099Y-93477901D01*
X126062099Y-93477901D02*
X124398607Y-93477901D01*
X124398607Y-93477901D02*
X123277962Y-92357256D01*
X92120200Y-88079400D02*
X92940200Y-87259400D01*
X92940200Y-87259400D02*
X93918368Y-87259400D01*
X93918368Y-87259400D02*
X96549302Y-89890334D01*
X96505501Y-91155501D02*
X96950000Y-91600000D01*
X96505501Y-90493801D02*
X96505501Y-91155501D01*
X96549302Y-90450000D02*
X96505501Y-90493801D01*
X96549302Y-89890334D02*
X96549302Y-90450000D01*
X91110000Y-71570000D02*
X89599303Y-73080697D01*
X88741325Y-77544499D02*
X86094499Y-77544499D01*
X89599303Y-73080697D02*
X89599303Y-76686521D01*
X89599303Y-76686521D02*
X88741325Y-77544499D01*
X91110000Y-71270000D02*
X91110000Y-71570000D01*
X86094499Y-77544499D02*
X85650000Y-77100000D01*
X89954900Y-106412500D02*
X89954900Y-106078916D01*
X89954900Y-106078916D02*
X89938910Y-106062926D01*
X107444497Y-126984497D02*
X107444497Y-115613879D01*
X107444497Y-115613879D02*
X107321425Y-115490807D01*
X108890000Y-128430000D02*
X107444497Y-126984497D01*
X108890000Y-128730000D02*
X108890000Y-128430000D01*
X107321425Y-115490807D02*
X107321425Y-114862190D01*
X85155501Y-88044499D02*
X85600000Y-87600000D01*
X85155501Y-88576699D02*
X85155501Y-88044499D01*
X84451800Y-89280400D02*
X85155501Y-88576699D01*
X96950000Y-91600000D02*
X95676900Y-92873100D01*
X95676900Y-92873100D02*
X95676900Y-94934614D01*
X95676900Y-94934614D02*
X97654333Y-96912047D01*
X97654333Y-96912047D02*
X97654333Y-97729386D01*
X97654333Y-97729386D02*
X90383409Y-105000310D01*
X90383409Y-105000310D02*
X90383409Y-105618427D01*
X90383409Y-105618427D02*
X89938910Y-106062926D01*
X115150000Y-79750000D02*
X115150000Y-78794900D01*
X114097600Y-78477500D02*
X114415000Y-78794900D01*
X114415000Y-78794900D02*
X115150000Y-78794900D01*
X113522500Y-78477500D02*
X113000000Y-79000000D01*
X114097600Y-78477500D02*
X113522500Y-78477500D01*
X85876900Y-85390800D02*
X85966600Y-85301100D01*
X83744707Y-85426687D02*
X84381102Y-86063082D01*
X85487328Y-86063082D02*
X86249310Y-85301100D01*
X85966600Y-85301100D02*
X86249310Y-85301100D01*
X84381102Y-86063082D02*
X85487328Y-86063082D01*
X117850000Y-78794900D02*
X117809200Y-78754100D01*
X117809200Y-78754100D02*
X117809200Y-78120300D01*
X117850000Y-79750000D02*
X117850000Y-78794900D01*
X120121999Y-73249999D02*
X118872000Y-72000000D01*
X120250000Y-73249999D02*
X120121999Y-73249999D01*
X115150000Y-87000000D02*
X114575000Y-87000000D01*
X115150000Y-87000000D02*
X115150000Y-84500000D01*
X115150000Y-84500000D02*
X115050000Y-84500000D01*
X113629840Y-83079840D02*
X113629840Y-82370154D01*
X115050000Y-84500000D02*
X113629840Y-83079840D01*
X90073300Y-82244700D02*
X90918690Y-81399310D01*
X90918690Y-81399310D02*
X91361767Y-81399310D01*
X82850000Y-82100000D02*
X81650000Y-80900000D01*
X84805367Y-84366027D02*
X82850000Y-82410660D01*
X82850000Y-82410660D02*
X82850000Y-82100000D01*
X84050000Y-80900000D02*
X84050000Y-79950000D01*
X83347056Y-79247056D02*
X83347056Y-79202944D01*
X84050000Y-79950000D02*
X83347056Y-79247056D01*
X83300000Y-81650000D02*
X84050000Y-80900000D01*
X85158920Y-84012474D02*
X83300000Y-82153554D01*
X83300000Y-82153554D02*
X83300000Y-81650000D01*
X84250000Y-119405100D02*
X80620100Y-119405100D01*
X80620100Y-119405100D02*
X76650000Y-115435000D01*
X76650000Y-115435000D02*
X76650000Y-106350000D01*
X84150000Y-120019900D02*
X84250000Y-119919900D01*
X84250000Y-119919900D02*
X84250000Y-119405100D01*
X84250000Y-118450000D02*
X84250000Y-119405100D01*
X84150000Y-120950000D02*
X84150000Y-120019900D01*
X83070600Y-97355200D02*
X81128700Y-97355200D01*
X84023900Y-90415500D02*
X84023900Y-90924700D01*
X83379316Y-91569284D02*
X83379316Y-97046484D01*
X76650000Y-104996800D02*
X76650000Y-106350000D01*
X84023900Y-90924700D02*
X83379316Y-91569284D01*
X76650000Y-101833900D02*
X76650000Y-104996800D01*
X81128700Y-97355200D02*
X76650000Y-101833900D01*
X84805400Y-89634000D02*
X84023900Y-90415500D01*
X83379316Y-97046484D02*
X83070600Y-97355200D01*
X115250000Y-96069900D02*
X115150000Y-95969900D01*
X115150000Y-95969900D02*
X115150000Y-94500000D01*
X106350000Y-71270000D02*
X106350000Y-72725100D01*
X102100000Y-74000000D02*
X105075100Y-74000000D01*
X105075100Y-74000000D02*
X106350000Y-72725100D01*
X115250000Y-97000000D02*
X115250000Y-96069900D01*
X93660100Y-75233600D02*
X99165000Y-75233600D01*
X93228493Y-81733761D02*
X93228493Y-79066293D01*
X99165000Y-75233600D02*
X100398600Y-74000000D01*
X92557500Y-78395300D02*
X92557500Y-76336200D01*
X93228493Y-79066293D02*
X92557500Y-78395300D01*
X90780400Y-82951800D02*
X91583588Y-82148612D01*
X92813644Y-82148612D02*
X93228493Y-81733761D01*
X92557500Y-76336200D02*
X93660100Y-75233600D01*
X91583588Y-82148612D02*
X92813644Y-82148612D01*
X100398600Y-74000000D02*
X102100000Y-74000000D01*
X110706411Y-82681661D02*
X111456411Y-83431660D01*
X111750000Y-88125249D02*
X113306411Y-89681660D01*
X113306411Y-92756411D02*
X115050000Y-94500000D01*
X110706411Y-76436011D02*
X110706411Y-82681661D01*
X106995500Y-72725100D02*
X110706411Y-76436011D01*
X106350000Y-72725100D02*
X106995500Y-72725100D01*
X111750000Y-85044638D02*
X111750000Y-88125249D01*
X111456411Y-83431660D02*
X111456411Y-84751049D01*
X111456411Y-84751049D02*
X111750000Y-85044638D01*
X113306411Y-89681660D02*
X113306411Y-92756411D01*
X115050000Y-94500000D02*
X115150000Y-94500000D01*
X115200000Y-99500000D02*
X115150000Y-99550000D01*
X115150000Y-99550000D02*
X115150000Y-102000000D01*
X115250000Y-99500000D02*
X115200000Y-99500000D01*
X97900000Y-126000000D02*
X94924900Y-126000000D01*
X93650000Y-127274900D02*
X94924900Y-126000000D01*
X93650000Y-128730000D02*
X93650000Y-127274900D01*
X112900000Y-97200000D02*
X115200000Y-99500000D01*
X111343589Y-88293589D02*
X112900000Y-89850000D01*
X111050000Y-84919389D02*
X111343589Y-85212978D01*
X110300000Y-82850000D02*
X111050000Y-83600000D01*
X108861900Y-75183500D02*
X110300000Y-76621600D01*
X99790400Y-75183500D02*
X108861900Y-75183500D01*
X99282100Y-75691800D02*
X99790400Y-75183500D01*
X95708300Y-75691800D02*
X99282100Y-75691800D01*
X111050000Y-83600000D02*
X111050000Y-84919389D01*
X95078200Y-76321900D02*
X95708300Y-75691800D01*
X110300000Y-76621600D02*
X110300000Y-82850000D01*
X91134000Y-83305400D02*
X91884377Y-82555023D01*
X112900000Y-89850000D02*
X112900000Y-97200000D01*
X91884377Y-82555023D02*
X92981984Y-82555023D01*
X111343589Y-85212978D02*
X111343589Y-88293589D01*
X92981984Y-82555023D02*
X95078200Y-80458807D01*
X95078200Y-80458807D02*
X95078200Y-76321900D01*
X115150000Y-105075250D02*
X115150000Y-102000000D01*
X113300000Y-106925250D02*
X115150000Y-105075250D01*
X113300000Y-107249180D02*
X113300000Y-106925250D01*
X100000000Y-123650000D02*
X100000000Y-122173500D01*
X97900000Y-126000000D02*
X97900000Y-125750000D01*
X100000000Y-122173500D02*
X105757313Y-116416187D01*
X105757314Y-114791866D02*
X113300000Y-107249180D01*
X97900000Y-125750000D02*
X100000000Y-123650000D01*
X105757313Y-116416187D02*
X105757314Y-114791866D01*
D42*
X107957500Y-87515000D02*
X107398700Y-86956200D01*
X102105613Y-81605613D02*
X102105613Y-78843318D01*
X108275000Y-87515000D02*
X107957500Y-87515000D01*
X107398700Y-86956200D02*
X107398700Y-86898700D01*
X107398700Y-86898700D02*
X102105613Y-81605613D01*
X100444100Y-117010000D02*
X99823600Y-116389500D01*
X99823600Y-116389500D02*
X99823600Y-113852600D01*
X101800000Y-117010000D02*
X100444100Y-117010000D01*
X94699793Y-103630517D02*
X94699793Y-106277193D01*
X98142000Y-89020214D02*
X98314422Y-89192636D01*
X98314422Y-90021236D02*
X98664524Y-90371338D01*
X98314422Y-89192636D02*
X98314422Y-90021236D01*
X98664524Y-98179212D02*
X98171441Y-98672295D01*
X97112923Y-100060260D02*
X97112923Y-101217387D01*
X98142000Y-79473000D02*
X98142000Y-89020214D01*
X98664524Y-90371338D02*
X98664524Y-98179212D01*
X98171441Y-99001742D02*
X97112923Y-100060260D01*
X94699793Y-106277193D02*
X95181700Y-106759100D01*
X97112923Y-101217387D02*
X94699793Y-103630517D01*
X96190000Y-77140000D02*
X96190000Y-77521000D01*
X98171441Y-98672295D02*
X98171441Y-99001742D01*
X96190000Y-77521000D02*
X98142000Y-79473000D01*
X99187463Y-99093145D02*
X99187463Y-99422592D01*
X99035357Y-99574698D02*
X99035357Y-101389641D01*
X99680546Y-98600062D02*
X99187463Y-99093145D01*
X99035357Y-101389641D02*
X96007906Y-104417092D01*
X101925000Y-86245000D02*
X100420848Y-86245000D01*
X99187463Y-99422592D02*
X99035357Y-99574698D01*
X99680546Y-89950488D02*
X99680546Y-98600062D01*
X99330444Y-87335404D02*
X99330444Y-89600386D01*
X99330444Y-89600386D02*
X99680546Y-89950488D01*
X100420848Y-86245000D02*
X99330444Y-87335404D01*
X109929015Y-94837231D02*
X109929015Y-106136833D01*
X104449898Y-112282932D02*
X104530225Y-112363259D01*
X109870358Y-94778574D02*
X109929015Y-94837231D01*
X103874810Y-114470000D02*
X101800000Y-114470000D01*
X105365950Y-110699898D02*
X105264832Y-110699898D01*
X101270000Y-77140000D02*
X100549899Y-77860101D01*
X109929015Y-106136833D02*
X105365950Y-110699898D01*
X109276385Y-91934601D02*
X109870356Y-92528572D01*
X104530225Y-112363259D02*
X104530225Y-113814585D01*
X100549899Y-77860101D02*
X100549899Y-80864317D01*
X103949898Y-88634050D02*
X107250449Y-91934601D01*
X104449898Y-111514832D02*
X104449898Y-112282932D01*
X107250449Y-91934601D02*
X109276385Y-91934601D01*
X104530225Y-113814585D02*
X103874810Y-114470000D01*
X100549899Y-80864317D02*
X103949898Y-84264316D01*
X103949898Y-84264316D02*
X103949898Y-88634050D01*
X109870356Y-92528572D02*
X109870358Y-94778574D01*
X105264832Y-110699898D02*
X104449898Y-111514832D01*
X103251249Y-81538749D02*
X103251249Y-78815249D01*
X107712500Y-86000000D02*
X103251249Y-81538749D01*
X109202101Y-89770537D02*
X110378368Y-90946804D01*
X110378368Y-90946804D02*
X110378369Y-94568149D01*
X110486100Y-94675880D02*
X110486100Y-107013901D01*
X110378369Y-94568149D02*
X110486100Y-94675880D01*
X110486100Y-107013901D02*
X105750001Y-111750000D01*
X109202101Y-84436519D02*
X109202101Y-89770537D01*
X108470582Y-83705000D02*
X109202101Y-84436519D01*
X108275000Y-83705000D02*
X108470582Y-83705000D01*
X102770082Y-118280000D02*
X101800000Y-118280000D01*
X105300102Y-115749980D02*
X102770082Y-118280000D01*
X105300102Y-114602486D02*
X105300102Y-115749980D01*
X106769027Y-113133561D02*
X105300102Y-114602486D01*
X106769027Y-111480973D02*
X106769027Y-113133561D01*
X110994400Y-107255600D02*
X106769027Y-111480973D01*
X110886379Y-89986379D02*
X110886379Y-94357723D01*
X108890000Y-77140000D02*
X108890000Y-77521000D01*
X107823200Y-81869793D02*
X109710112Y-83756705D01*
X107823200Y-78587800D02*
X107823200Y-81869793D01*
X110994400Y-94465744D02*
X110994400Y-107255600D01*
X109710112Y-83756705D02*
X109710112Y-88810112D01*
X110886379Y-94357723D02*
X110994400Y-94465744D01*
X108890000Y-77521000D02*
X107823200Y-78587800D01*
X109710112Y-88810112D02*
X110886379Y-89986379D01*
X102910130Y-111930000D02*
X103730118Y-112749988D01*
X101800000Y-111930000D02*
X102910130Y-111930000D01*
X101800000Y-115740000D02*
X101810000Y-115750000D01*
X101810000Y-115750000D02*
X103750012Y-115750000D01*
X101925000Y-83146200D02*
X101925000Y-83705000D01*
X99891990Y-76553910D02*
X99891990Y-78789574D01*
X106350000Y-77140000D02*
X106350000Y-76759000D01*
X99691990Y-80913190D02*
X101925000Y-83146200D01*
X100804800Y-75641100D02*
X99891990Y-76553910D01*
X99691990Y-78989574D02*
X99691990Y-80913190D01*
X105232100Y-75641100D02*
X100804800Y-75641100D01*
X99891990Y-78789574D02*
X99691990Y-78989574D01*
X106350000Y-76759000D02*
X105232100Y-75641100D01*
X100444100Y-109390000D02*
X100444100Y-109488100D01*
X100444100Y-109488100D02*
X100141200Y-109791000D01*
X101800000Y-109390000D02*
X100444100Y-109390000D01*
X95528383Y-105594800D02*
X95207804Y-105274221D01*
X98527346Y-99364273D02*
X98679452Y-99212167D01*
X98822433Y-87124979D02*
X100972412Y-84975000D01*
X96157000Y-105594800D02*
X95528383Y-105594800D01*
X95207804Y-105274221D02*
X95207804Y-103883046D01*
X95207804Y-103883046D02*
X98527346Y-100563504D01*
X98527346Y-100563504D02*
X98527346Y-99364273D01*
X98679452Y-98882720D02*
X99172535Y-98389637D01*
X98822433Y-89810811D02*
X98822433Y-87124979D01*
X100972412Y-84975000D02*
X101925000Y-84975000D01*
X99172535Y-98389637D02*
X99172535Y-90160913D01*
X98679452Y-99212167D02*
X98679452Y-98882720D01*
X99172535Y-90160913D02*
X98822433Y-89810811D01*
X104876800Y-81894300D02*
X107957500Y-84975000D01*
X103810000Y-77521000D02*
X104876800Y-78587800D01*
X107957500Y-84975000D02*
X108275000Y-84975000D01*
X103810000Y-77140000D02*
X103810000Y-77521000D01*
X104876800Y-78587800D02*
X104876800Y-81894300D01*
X98272200Y-113310600D02*
X98272200Y-116738900D01*
X98272200Y-116738900D02*
X93650000Y-121361100D01*
X93650000Y-122860000D02*
X93650000Y-121361100D01*
X101950000Y-110660000D02*
X100495200Y-110660000D01*
X100000000Y-111155200D02*
X100000000Y-111582800D01*
X100495200Y-110660000D02*
X100000000Y-111155200D01*
X100000000Y-111582800D02*
X98272200Y-113310600D01*
X101800000Y-113200000D02*
X100444100Y-113200000D01*
X91110000Y-122860000D02*
X91110000Y-124358900D01*
X91110000Y-124358900D02*
X94145500Y-124358900D01*
X94145500Y-124358900D02*
X94920000Y-123584400D01*
X94920000Y-123584400D02*
X94920000Y-121361000D01*
X94920000Y-121361000D02*
X98780500Y-117500500D01*
X98780500Y-117500500D02*
X98780500Y-113700800D01*
X98780500Y-113700800D02*
X99477900Y-113003400D01*
X99477900Y-113003400D02*
X100247500Y-113003400D01*
X100247500Y-113003400D02*
X100444100Y-113200000D01*
D45*
X81650000Y-118450000D02*
X84150000Y-115950000D01*
X81550000Y-118450000D02*
X81650000Y-118450000D01*
X84150000Y-115950000D02*
X84250000Y-115950000D01*
X82100000Y-113900000D02*
X84150000Y-115950000D01*
X81550000Y-113900000D02*
X82100000Y-113900000D01*
X82705200Y-112744800D02*
X81550000Y-113900000D01*
X82705200Y-107368300D02*
X82705200Y-112744800D01*
X80025200Y-104688300D02*
X82705200Y-107368300D01*
X127274900Y-93650000D02*
X127016200Y-93908700D01*
X127016200Y-93908700D02*
X123941800Y-93908700D01*
X123941800Y-93908700D02*
X120063800Y-90030700D01*
X120063800Y-90030700D02*
X119537700Y-90030700D01*
X119537700Y-90030700D02*
X119537700Y-88940600D01*
X119537700Y-88940600D02*
X118502200Y-87905100D01*
X118502200Y-87905100D02*
X118425000Y-87905100D01*
X118425000Y-87000000D02*
X118425000Y-87905100D01*
X117850000Y-87000000D02*
X118425000Y-87000000D01*
X128730000Y-93650000D02*
X127274900Y-93650000D01*
X105100698Y-117804797D02*
X106163724Y-116741771D01*
X116305200Y-95683100D02*
X116286400Y-95664300D01*
X106163724Y-116741771D02*
X106163724Y-114960207D01*
X116286400Y-95664300D02*
X116286400Y-91732100D01*
X105100698Y-126127498D02*
X105100698Y-117804797D01*
X106350000Y-128730000D02*
X106350000Y-127376800D01*
X106163724Y-114960207D02*
X114173931Y-106950000D01*
X106350000Y-127376800D02*
X105100698Y-126127498D01*
X119163599Y-90404801D02*
X119537700Y-90030700D01*
X114173931Y-106950000D02*
X114200000Y-106950000D01*
X118786231Y-90404801D02*
X119163599Y-90404801D01*
X116305200Y-104269550D02*
X116305200Y-95683100D01*
X115556411Y-105243589D02*
X115556411Y-105018339D01*
X118736231Y-90454801D02*
X118786231Y-90404801D01*
X114200000Y-106600000D02*
X115556411Y-105243589D01*
X115556411Y-105018339D02*
X116305200Y-104269550D01*
X114200000Y-106950000D02*
X114200000Y-106600000D01*
X117563699Y-90454801D02*
X118736231Y-90454801D01*
X116286400Y-91732100D02*
X117563699Y-90454801D01*
X117850000Y-88544900D02*
X117075600Y-88544900D01*
X117075600Y-88544900D02*
X116500000Y-87969300D01*
X117850000Y-89500000D02*
X117850000Y-88544900D01*
X118425000Y-89500000D02*
X117850000Y-89500000D01*
X93463853Y-99011746D02*
X93463853Y-94246762D01*
X92792530Y-99011746D02*
X93463853Y-99011746D01*
X90850000Y-101850000D02*
X90850000Y-100954276D01*
X90850000Y-100954276D02*
X92792530Y-99011746D01*
X92479192Y-80398889D02*
X92479192Y-81399310D01*
X90043190Y-75176810D02*
X90043190Y-77962887D01*
X93650000Y-71570000D02*
X90043190Y-75176810D01*
X93650000Y-71270000D02*
X93650000Y-71570000D01*
X90043190Y-77962887D02*
X92479192Y-80398889D01*
X111430000Y-71270000D02*
X111430000Y-72725100D01*
X111430000Y-72725100D02*
X112102700Y-73397800D01*
X112102700Y-73397800D02*
X112102700Y-75847100D01*
X87708200Y-83026100D02*
X88240100Y-82494200D01*
X86926700Y-82244700D02*
X87708200Y-83026100D01*
X88240100Y-81703276D02*
X88973272Y-80970104D01*
X88240100Y-82494200D02*
X88240100Y-81703276D01*
X87280200Y-81891200D02*
X87191100Y-81802100D01*
X109350000Y-79800000D02*
X109350000Y-82750001D01*
X110643590Y-84043591D02*
X110643590Y-89096998D01*
X109350000Y-82750001D02*
X110643590Y-84043591D01*
X110643590Y-89096998D02*
X111700000Y-90153408D01*
X111700000Y-90153408D02*
X111700000Y-108016280D01*
X108423228Y-111066280D02*
X107794754Y-111694754D01*
X108650000Y-111066280D02*
X108423228Y-111066280D01*
X108650000Y-111066280D02*
X108150000Y-111566280D01*
X111700000Y-108016280D02*
X108650000Y-111066280D01*
X108850000Y-118950000D02*
X109900000Y-118950000D01*
X111430000Y-120480000D02*
X111430000Y-128730000D01*
X109900000Y-118950000D02*
X111430000Y-120480000D01*
X87280241Y-81052323D02*
X88276007Y-80056557D01*
X87280241Y-81891154D02*
X87280241Y-81052323D01*
X88570000Y-128430000D02*
X82704801Y-122564801D01*
X88570000Y-128730000D02*
X88570000Y-128430000D01*
X80451759Y-119811509D02*
X75600000Y-114959750D01*
X82611510Y-119811510D02*
X80451759Y-119811509D01*
X82704801Y-119904801D02*
X82611510Y-119811510D01*
X82704801Y-122564801D02*
X82704801Y-119904801D01*
X74350431Y-95525181D02*
X74350431Y-94749569D01*
X74350431Y-94749569D02*
X74400000Y-94700000D01*
X74350431Y-94749569D02*
X74350431Y-96830613D01*
X74350431Y-96830613D02*
X75009610Y-97489792D01*
X82704801Y-120081159D02*
X82704801Y-121818841D01*
X75009610Y-114373650D02*
X80656159Y-120020199D01*
X75009610Y-97489792D02*
X75009610Y-114373650D01*
X80656159Y-120020199D02*
X82643841Y-120020199D01*
X82643841Y-120020199D02*
X82704801Y-120081159D01*
X89719759Y-81858058D02*
X90450000Y-81127817D01*
X89719759Y-81891154D02*
X89719759Y-81858058D01*
X84762259Y-78212259D02*
X84300000Y-77750000D01*
X89221225Y-78212259D02*
X84762259Y-78212259D01*
X90450000Y-81127817D02*
X90450000Y-79441034D01*
X90450000Y-79441034D02*
X89221225Y-78212259D01*
X74805501Y-86294499D02*
X75250000Y-85850000D01*
X74350431Y-94749569D02*
X74350431Y-86896851D01*
X74805501Y-86441781D02*
X74805501Y-86294499D01*
X74350431Y-86896851D02*
X74805501Y-86441781D01*
X91065358Y-105131785D02*
X91065358Y-106434610D01*
X97857211Y-90210619D02*
X98207313Y-90560720D01*
X98207313Y-90560720D02*
X98207313Y-97989830D01*
X97681300Y-85049700D02*
X97681300Y-89206107D01*
X92548200Y-84719600D02*
X93162500Y-84105300D01*
X98207313Y-97989830D02*
X91065358Y-105131785D01*
X96736900Y-84105300D02*
X97681300Y-85049700D01*
X97681300Y-89206107D02*
X97857211Y-89382018D01*
X93162500Y-84105300D02*
X96736900Y-84105300D01*
X97857211Y-89382018D02*
X97857211Y-90210619D01*
X91065358Y-106434610D02*
X90249968Y-107250000D01*
X92188400Y-85786400D02*
X91913602Y-85786400D01*
X91913602Y-85786400D02*
X90344501Y-87355501D01*
X92901700Y-85073100D02*
X92188400Y-85786400D01*
X89744499Y-87355501D02*
X89300000Y-87800000D01*
X90344501Y-87355501D02*
X89744499Y-87355501D01*
X93794800Y-88219800D02*
X95650000Y-90075000D01*
X93608800Y-88219800D02*
X93794800Y-88219800D01*
X127497400Y-95425100D02*
X123175100Y-95425100D01*
X123175100Y-95425100D02*
X119300000Y-91550000D01*
X128281200Y-105901200D02*
X128281200Y-96208900D01*
X128730000Y-106350000D02*
X128281200Y-105901200D01*
X128281200Y-96208900D02*
X127497400Y-95425100D01*
X91766800Y-88498900D02*
X91640000Y-88625700D01*
X91640000Y-88625700D02*
X91152700Y-88625700D01*
X91152700Y-88625700D02*
X89561900Y-90216500D01*
X92548200Y-89280400D02*
X91766800Y-88498900D01*
X91841100Y-89987500D02*
X92622600Y-90768900D01*
X92622600Y-90768900D02*
X92798300Y-90593200D01*
X92798300Y-90593200D02*
X93372000Y-90593200D01*
X93372000Y-90593200D02*
X93373300Y-90591900D01*
X128430000Y-88570000D02*
X126560000Y-86700000D01*
X126560000Y-86700000D02*
X120100000Y-86700000D01*
X128730000Y-88570000D02*
X128430000Y-88570000D01*
X122015600Y-114032000D02*
X122590700Y-114032000D01*
X122590700Y-114032000D02*
X123262700Y-113360000D01*
X123262700Y-113360000D02*
X126800000Y-113360000D01*
X126800000Y-113360000D02*
X127574900Y-112585100D01*
X127574900Y-112585100D02*
X128730000Y-112585100D01*
X128730000Y-111430000D02*
X128730000Y-112585100D01*
X95749302Y-95581767D02*
X95749302Y-97792557D01*
X95749302Y-97792557D02*
X93455395Y-100086464D01*
X95237302Y-92111302D02*
X95237302Y-95069767D01*
X95237302Y-95069767D02*
X95749302Y-95581767D01*
X94512700Y-91386700D02*
X95237302Y-92111302D01*
X92533100Y-91386700D02*
X94512700Y-91386700D01*
X93455395Y-100086464D02*
X92826778Y-100086464D01*
X91487500Y-90341100D02*
X92533100Y-91386700D01*
X91566400Y-93974632D02*
X91566400Y-92541200D01*
X81730000Y-101280000D02*
X85366300Y-101280000D01*
X91450698Y-94090334D02*
X91566400Y-93974632D01*
X91566400Y-92541200D02*
X90426900Y-91401700D01*
X91450698Y-95195602D02*
X91450698Y-94090334D01*
X85366300Y-101280000D02*
X91450698Y-95195602D01*
X81730000Y-98740000D02*
X84368966Y-98740000D01*
X87280200Y-95828766D02*
X87280200Y-92108800D01*
X84368966Y-98740000D02*
X87280200Y-95828766D01*
X122031001Y-99350000D02*
X121549473Y-98868472D01*
X124450000Y-99350000D02*
X122031001Y-99350000D01*
X121000000Y-98318999D02*
X121549473Y-98868472D01*
X121000000Y-97000000D02*
X121000000Y-98318999D01*
X91134000Y-90763100D02*
X93069300Y-92698400D01*
X94057100Y-92698400D02*
X94400000Y-92355500D01*
X93069300Y-92698400D02*
X94057100Y-92698400D01*
X91134000Y-90694600D02*
X91134000Y-90763100D01*
X124450000Y-100000000D02*
X121136529Y-100000000D01*
X121136529Y-100000000D02*
X120766502Y-99629973D01*
X120766502Y-100766502D02*
X121000000Y-101000000D01*
X120766502Y-99629973D02*
X120766502Y-100766502D01*
X94057100Y-93101600D02*
X94400000Y-93444500D01*
X90780400Y-91048200D02*
X90848900Y-91048200D01*
X92902300Y-93101600D02*
X94057100Y-93101600D01*
X90848900Y-91048200D02*
X92902300Y-93101600D01*
X88570000Y-76559959D02*
X88529269Y-76600690D01*
X88570000Y-71270000D02*
X88570000Y-76559959D01*
X88755501Y-82638999D02*
X88755501Y-82247566D01*
X87920400Y-83474100D02*
X88755501Y-82638999D01*
X86573100Y-82598300D02*
X87448900Y-83474100D01*
X87448900Y-83474100D02*
X87920400Y-83474100D01*
X89844505Y-79944505D02*
X88900000Y-79000000D01*
X88755501Y-82247566D02*
X89844505Y-81158562D01*
X89844505Y-81158562D02*
X89844505Y-79944505D01*
X101925000Y-87515000D02*
X102801600Y-87515000D01*
X98730000Y-77140000D02*
X98730000Y-81771300D01*
X98730000Y-81771300D02*
X101222900Y-84264200D01*
X101222900Y-84264200D02*
X102552400Y-84264200D01*
X102552400Y-84264200D02*
X102801600Y-84513400D01*
X102801600Y-84513400D02*
X102801600Y-87515000D01*
X106442500Y-90334675D02*
X106442500Y-89587868D01*
X107432825Y-91325000D02*
X106442500Y-90334675D01*
X108275000Y-91325000D02*
X107432825Y-91325000D01*
X114950000Y-82000000D02*
X114096800Y-81146800D01*
X112850000Y-82021387D02*
X112850000Y-83351773D01*
X112850000Y-83351773D02*
X112205721Y-83996052D01*
X115050000Y-82000000D02*
X114950000Y-82000000D01*
X113724587Y-81146800D02*
X112850000Y-82021387D01*
X114096800Y-81146800D02*
X113724587Y-81146800D01*
X91027900Y-85301600D02*
X91259000Y-85301600D01*
X91259000Y-85301600D02*
X92194600Y-84366000D01*
X103230400Y-94975100D02*
X103312400Y-94893100D01*
X103230400Y-95596100D02*
X103230400Y-94975100D01*
X102873800Y-91899500D02*
X101031200Y-91899500D01*
X108157500Y-101235000D02*
X103558300Y-96635800D01*
X100150000Y-91018300D02*
X100150000Y-87800000D01*
X103312400Y-94893100D02*
X103312400Y-92338100D01*
X108475000Y-101235000D02*
X108157500Y-101235000D01*
X103558300Y-95924000D02*
X103230400Y-95596100D01*
X103312400Y-92338100D02*
X102873800Y-91899500D01*
X101031200Y-91899500D02*
X100150000Y-91018300D01*
X103558300Y-96635800D02*
X103558300Y-95924000D01*
X76853635Y-93980000D02*
X76909969Y-93923666D01*
X76909969Y-93923666D02*
X76909969Y-93295049D01*
X76835000Y-93980000D02*
X76853635Y-93980000D01*
X76835000Y-93365000D02*
X76835000Y-93980000D01*
X79700000Y-90500000D02*
X76835000Y-93365000D01*
X107598400Y-99965000D02*
X103980000Y-96346600D01*
X103980000Y-96346600D02*
X103980000Y-95285600D01*
X103980000Y-95285600D02*
X103980000Y-92118000D01*
X103980000Y-92118000D02*
X102492400Y-90630400D01*
X102492400Y-90630400D02*
X101243400Y-90630400D01*
X101243400Y-90630400D02*
X101048400Y-90435400D01*
X101048400Y-90435400D02*
X101048400Y-89661600D01*
X101048400Y-89661600D02*
X101925000Y-88785000D01*
X85702400Y-93356600D02*
X85702400Y-92979600D01*
X85702400Y-92979600D02*
X86926700Y-91755300D01*
X108475000Y-99965000D02*
X107598400Y-99965000D01*
X76835000Y-92293444D02*
X76362399Y-92766045D01*
X76835000Y-91440000D02*
X76835000Y-92293444D01*
X87354700Y-90620100D02*
X88394700Y-91660200D01*
X88394700Y-91660200D02*
X88394700Y-92484800D01*
X107598400Y-98695000D02*
X107598400Y-97462700D01*
X107598400Y-97462700D02*
X105165200Y-95029500D01*
X102801600Y-90055000D02*
X105165200Y-92418600D01*
X105165200Y-92418600D02*
X105165200Y-95029500D01*
X86573100Y-91401700D02*
X87354700Y-90620100D01*
X101925000Y-90055000D02*
X102801600Y-90055000D01*
X108475000Y-98695000D02*
X107598400Y-98695000D01*
X76835000Y-86360000D02*
X77777219Y-87302219D01*
X77777219Y-87302219D02*
X77777219Y-90237820D01*
X105285000Y-88785000D02*
X104750000Y-88250000D01*
X108275000Y-88785000D02*
X105285000Y-88785000D01*
X86219600Y-91048200D02*
X87109844Y-90157956D01*
X87109844Y-89532956D02*
X87554343Y-89088457D01*
X87109844Y-90157956D02*
X87109844Y-89532956D01*
X80782729Y-92572271D02*
X80831943Y-92572271D01*
X80555000Y-92800000D02*
X80782729Y-92572271D01*
X79375000Y-93980000D02*
X80555000Y-92800000D01*
X80555000Y-92800000D02*
X80855452Y-92499548D01*
X80855452Y-92499548D02*
X80855452Y-90595248D01*
X108475000Y-102505000D02*
X107418500Y-102505000D01*
X107418500Y-102505000D02*
X106589800Y-101676300D01*
X76200000Y-89535000D02*
X76200000Y-90250000D01*
X76835000Y-88900000D02*
X76200000Y-89535000D01*
X85866000Y-90694600D02*
X84400000Y-92160600D01*
X84400000Y-92160600D02*
X84400000Y-96671373D01*
X84400000Y-96671373D02*
X84400000Y-97299990D01*
X97814990Y-113565010D02*
X93100000Y-118280000D01*
X97814990Y-113120360D02*
X97814990Y-113565010D01*
X99391899Y-111543451D02*
X97814990Y-113120360D01*
X99391899Y-109431335D02*
X99391899Y-111543451D01*
X108475000Y-103775000D02*
X107700300Y-103775000D01*
X107700300Y-103775000D02*
X107598400Y-103876900D01*
X93100000Y-118280000D02*
X92250000Y-118280000D01*
X107598400Y-104470242D02*
X103343841Y-108724801D01*
X100098433Y-108724801D02*
X99391899Y-109431335D01*
X107598400Y-103876900D02*
X107598400Y-104470242D01*
X103343841Y-108724801D02*
X100098433Y-108724801D01*
X102125000Y-105045000D02*
X98929900Y-108240100D01*
X98929900Y-108240100D02*
X98929900Y-111430700D01*
X98929900Y-111430700D02*
X93705100Y-116655500D01*
X93603200Y-117010000D02*
X92250000Y-117010000D01*
X93705100Y-116908100D02*
X93603200Y-117010000D01*
X93705100Y-116655500D02*
X93705100Y-116908100D01*
X93705100Y-115740000D02*
X98473100Y-110972000D01*
X98473100Y-110972000D02*
X98473100Y-107933700D01*
X98473100Y-107933700D02*
X100408000Y-105998800D01*
X100408000Y-105998800D02*
X100408000Y-105503600D01*
X100408000Y-105503600D02*
X102125000Y-103786600D01*
X102125000Y-103786600D02*
X102125000Y-103775000D01*
X92400000Y-115740000D02*
X93705100Y-115740000D01*
X93705100Y-114470000D02*
X98066400Y-110108700D01*
X98066400Y-110108700D02*
X98066400Y-107765200D01*
X98066400Y-107765200D02*
X100001300Y-105830300D01*
X100001300Y-105830300D02*
X100001300Y-105335100D01*
X100001300Y-105335100D02*
X101248400Y-104088000D01*
X101248400Y-104088000D02*
X101248400Y-102505000D01*
X102125000Y-102505000D02*
X101248400Y-102505000D01*
X92400000Y-114470000D02*
X93705100Y-114470000D01*
X93705100Y-113200000D02*
X97659700Y-109245400D01*
X97659700Y-109245400D02*
X97659700Y-107596700D01*
X97659700Y-107596700D02*
X99594600Y-105661800D01*
X99594600Y-105661800D02*
X99594600Y-105166600D01*
X99594600Y-105166600D02*
X100828100Y-103933100D01*
X100828100Y-103933100D02*
X100828100Y-101655300D01*
X100828100Y-101655300D02*
X101248400Y-101235000D01*
X102125000Y-101235000D02*
X101248400Y-101235000D01*
X92400000Y-113200000D02*
X93705100Y-113200000D01*
X93705100Y-111930000D02*
X97253000Y-108382100D01*
X97253000Y-108382100D02*
X97253000Y-107428200D01*
X97253000Y-107428200D02*
X99187900Y-105493300D01*
X99187900Y-105493300D02*
X99187900Y-104998000D01*
X99187900Y-104998000D02*
X100363200Y-103822700D01*
X100363200Y-103822700D02*
X100363200Y-100850200D01*
X100363200Y-100850200D02*
X101248400Y-99965000D01*
X102125000Y-99965000D02*
X101248400Y-99965000D01*
X92400000Y-111930000D02*
X93705100Y-111930000D01*
X96846300Y-107518800D02*
X96846300Y-107259700D01*
X98781200Y-104829400D02*
X99952300Y-103658300D01*
X101807500Y-98695000D02*
X102125000Y-98695000D01*
X98781200Y-105324800D02*
X98781200Y-104829400D01*
X93705100Y-110660000D02*
X96846300Y-107518800D01*
X99952300Y-103658300D02*
X99952300Y-100610979D01*
X101350300Y-99152200D02*
X101807500Y-98695000D01*
X92400000Y-110660000D02*
X93705100Y-110660000D01*
X101350300Y-99212979D02*
X101350300Y-99152200D01*
X96846300Y-107259700D02*
X98781200Y-105324800D01*
X99952300Y-100610979D02*
X101350300Y-99212979D01*
X96439600Y-107091200D02*
X98374500Y-105156300D01*
X98374500Y-104593700D02*
X99545500Y-103422700D01*
X96439600Y-107280200D02*
X96439600Y-107091200D01*
X99742568Y-99489932D02*
X101807500Y-97425000D01*
X99545500Y-103422700D02*
X99545500Y-100443028D01*
X94329800Y-109390000D02*
X96439600Y-107280200D01*
X92400000Y-109390000D02*
X94329800Y-109390000D01*
X99742568Y-100245960D02*
X99742568Y-99489932D01*
X101807500Y-97425000D02*
X102125000Y-97425000D01*
X99545500Y-100443028D02*
X99742568Y-100245960D01*
X98374500Y-105156300D02*
X98374500Y-104593700D01*
X107598400Y-94821200D02*
X108475000Y-95697800D01*
X108475000Y-95697800D02*
X108475000Y-96155000D01*
X101049301Y-88459665D02*
X101049301Y-88321699D01*
X100613500Y-88895466D02*
X101049301Y-88459665D01*
X101145200Y-88225800D02*
X102645400Y-88225800D01*
X107598400Y-93178800D02*
X107598400Y-94821200D01*
X102645400Y-88225800D02*
X107598400Y-93178800D01*
X101049301Y-88321699D02*
X101145200Y-88225800D01*
X101150300Y-91325000D02*
X100613500Y-90788200D01*
X100613500Y-90788200D02*
X100613500Y-88895466D01*
X101925000Y-91325000D02*
X101150300Y-91325000D01*
X83425126Y-84400000D02*
X82400000Y-84400000D01*
X84098260Y-85073134D02*
X83425126Y-84400000D01*
X81400000Y-85400000D02*
X79694903Y-85400000D01*
X82400000Y-84400000D02*
X81400000Y-85400000D01*
X79694903Y-84894903D02*
X79694903Y-85400000D01*
X78471751Y-83671751D02*
X79694903Y-84894903D01*
X83322039Y-83589806D02*
X81505097Y-83589806D01*
X84451814Y-84719581D02*
X83322039Y-83589806D01*
X81505097Y-83589806D02*
X81465291Y-83550000D01*
X80550000Y-83550000D02*
X79600000Y-82600000D01*
X81465291Y-83550000D02*
X80550000Y-83550000D01*
D46*
G36*
X127359375Y-115040625D02*
X127381033Y-115055096D01*
X127220302Y-115121673D01*
X127041673Y-115300301D01*
X126945000Y-115533690D01*
X126945000Y-116224250D01*
X127103750Y-116383000D01*
X128603000Y-116383000D01*
X128603000Y-116363000D01*
X128857000Y-116363000D01*
X128857000Y-116383000D01*
X128877000Y-116383000D01*
X128877000Y-116637000D01*
X128857000Y-116637000D01*
X128857000Y-117836250D01*
X129015750Y-117995000D01*
X129174501Y-117995000D01*
X129174501Y-124963224D01*
X129135000Y-125405824D01*
X129135000Y-124177497D01*
X128505483Y-122657711D01*
X127342289Y-121494517D01*
X125822503Y-120865000D01*
X124177497Y-120865000D01*
X122657711Y-121494517D01*
X121494517Y-122657711D01*
X120865000Y-124177497D01*
X120865000Y-125822503D01*
X121494517Y-127342289D01*
X122657711Y-128505483D01*
X124177497Y-129135000D01*
X125507623Y-129135000D01*
X124969732Y-129174500D01*
X117995000Y-129174500D01*
X117995000Y-129015750D01*
X117836250Y-128857000D01*
X116637000Y-128857000D01*
X116637000Y-128877000D01*
X116383000Y-128877000D01*
X116383000Y-128857000D01*
X116363000Y-128857000D01*
X116363000Y-128603000D01*
X116383000Y-128603000D01*
X116383000Y-128583000D01*
X116637000Y-128583000D01*
X116637000Y-128603000D01*
X117836250Y-128603000D01*
X117995000Y-128444250D01*
X117995000Y-127639800D01*
X118307446Y-127639800D01*
X118400000Y-127658210D01*
X118492554Y-127639800D01*
X118492559Y-127639800D01*
X118766691Y-127585272D01*
X119077557Y-127377557D01*
X119129987Y-127299090D01*
X119799092Y-126629985D01*
X119877557Y-126577557D01*
X119929986Y-126499092D01*
X119929988Y-126499090D01*
X120085271Y-126266693D01*
X120085271Y-126266692D01*
X120085272Y-126266691D01*
X120139800Y-125992559D01*
X120139800Y-125992554D01*
X120158210Y-125900000D01*
X120139800Y-125807446D01*
X120139800Y-122768277D01*
X121478092Y-121429986D01*
X121556557Y-121377557D01*
X121608985Y-121299093D01*
X121608988Y-121299090D01*
X121608990Y-121299087D01*
X122255026Y-120653052D01*
X122290301Y-120688327D01*
X122523690Y-120785000D01*
X123714250Y-120785000D01*
X123873000Y-120626250D01*
X123873000Y-118402000D01*
X124127000Y-118402000D01*
X124127000Y-120626250D01*
X124285750Y-120785000D01*
X125476310Y-120785000D01*
X125709699Y-120688327D01*
X125888327Y-120509698D01*
X125985000Y-120276309D01*
X125985000Y-118560750D01*
X125826250Y-118402000D01*
X124127000Y-118402000D01*
X123873000Y-118402000D01*
X123853000Y-118402000D01*
X123853000Y-118148000D01*
X123873000Y-118148000D01*
X123873000Y-115923750D01*
X124127000Y-115923750D01*
X124127000Y-118148000D01*
X125826250Y-118148000D01*
X125985000Y-117989250D01*
X125985000Y-116795750D01*
X126945000Y-116795750D01*
X126945000Y-117486310D01*
X127041673Y-117719699D01*
X127220302Y-117898327D01*
X127453691Y-117995000D01*
X128444250Y-117995000D01*
X128603000Y-117836250D01*
X128603000Y-116637000D01*
X127103750Y-116637000D01*
X126945000Y-116795750D01*
X125985000Y-116795750D01*
X125985000Y-116273691D01*
X125888327Y-116040302D01*
X125709699Y-115861673D01*
X125476310Y-115765000D01*
X124285750Y-115765000D01*
X124127000Y-115923750D01*
X123873000Y-115923750D01*
X123714250Y-115765000D01*
X123264077Y-115765000D01*
X124119277Y-114909800D01*
X127271961Y-114909800D01*
X127359375Y-115040625D01*
X127359375Y-115040625D01*
G37*
X127359375Y-115040625D02*
X127381033Y-115055096D01*
X127220302Y-115121673D01*
X127041673Y-115300301D01*
X126945000Y-115533690D01*
X126945000Y-116224250D01*
X127103750Y-116383000D01*
X128603000Y-116383000D01*
X128603000Y-116363000D01*
X128857000Y-116363000D01*
X128857000Y-116383000D01*
X128877000Y-116383000D01*
X128877000Y-116637000D01*
X128857000Y-116637000D01*
X128857000Y-117836250D01*
X129015750Y-117995000D01*
X129174501Y-117995000D01*
X129174501Y-124963224D01*
X129135000Y-125405824D01*
X129135000Y-124177497D01*
X128505483Y-122657711D01*
X127342289Y-121494517D01*
X125822503Y-120865000D01*
X124177497Y-120865000D01*
X122657711Y-121494517D01*
X121494517Y-122657711D01*
X120865000Y-124177497D01*
X120865000Y-125822503D01*
X121494517Y-127342289D01*
X122657711Y-128505483D01*
X124177497Y-129135000D01*
X125507623Y-129135000D01*
X124969732Y-129174500D01*
X117995000Y-129174500D01*
X117995000Y-129015750D01*
X117836250Y-128857000D01*
X116637000Y-128857000D01*
X116637000Y-128877000D01*
X116383000Y-128877000D01*
X116383000Y-128857000D01*
X116363000Y-128857000D01*
X116363000Y-128603000D01*
X116383000Y-128603000D01*
X116383000Y-128583000D01*
X116637000Y-128583000D01*
X116637000Y-128603000D01*
X117836250Y-128603000D01*
X117995000Y-128444250D01*
X117995000Y-127639800D01*
X118307446Y-127639800D01*
X118400000Y-127658210D01*
X118492554Y-127639800D01*
X118492559Y-127639800D01*
X118766691Y-127585272D01*
X119077557Y-127377557D01*
X119129987Y-127299090D01*
X119799092Y-126629985D01*
X119877557Y-126577557D01*
X119929986Y-126499092D01*
X119929988Y-126499090D01*
X120085271Y-126266693D01*
X120085271Y-126266692D01*
X120085272Y-126266691D01*
X120139800Y-125992559D01*
X120139800Y-125992554D01*
X120158210Y-125900000D01*
X120139800Y-125807446D01*
X120139800Y-122768277D01*
X121478092Y-121429986D01*
X121556557Y-121377557D01*
X121608985Y-121299093D01*
X121608988Y-121299090D01*
X121608990Y-121299087D01*
X122255026Y-120653052D01*
X122290301Y-120688327D01*
X122523690Y-120785000D01*
X123714250Y-120785000D01*
X123873000Y-120626250D01*
X123873000Y-118402000D01*
X124127000Y-118402000D01*
X124127000Y-120626250D01*
X124285750Y-120785000D01*
X125476310Y-120785000D01*
X125709699Y-120688327D01*
X125888327Y-120509698D01*
X125985000Y-120276309D01*
X125985000Y-118560750D01*
X125826250Y-118402000D01*
X124127000Y-118402000D01*
X123873000Y-118402000D01*
X123853000Y-118402000D01*
X123853000Y-118148000D01*
X123873000Y-118148000D01*
X123873000Y-115923750D01*
X124127000Y-115923750D01*
X124127000Y-118148000D01*
X125826250Y-118148000D01*
X125985000Y-117989250D01*
X125985000Y-116795750D01*
X126945000Y-116795750D01*
X126945000Y-117486310D01*
X127041673Y-117719699D01*
X127220302Y-117898327D01*
X127453691Y-117995000D01*
X128444250Y-117995000D01*
X128603000Y-117836250D01*
X128603000Y-116637000D01*
X127103750Y-116637000D01*
X126945000Y-116795750D01*
X125985000Y-116795750D01*
X125985000Y-116273691D01*
X125888327Y-116040302D01*
X125709699Y-115861673D01*
X125476310Y-115765000D01*
X124285750Y-115765000D01*
X124127000Y-115923750D01*
X123873000Y-115923750D01*
X123714250Y-115765000D01*
X123264077Y-115765000D01*
X124119277Y-114909800D01*
X127271961Y-114909800D01*
X127359375Y-115040625D01*
G36*
X71397000Y-116383000D02*
X71417000Y-116383000D01*
X71417000Y-116637000D01*
X71397000Y-116637000D01*
X71397000Y-117836250D01*
X71555750Y-117995000D01*
X72160200Y-117995000D01*
X72160200Y-118507446D01*
X72141790Y-118600000D01*
X72160200Y-118692554D01*
X72160200Y-118692558D01*
X72214728Y-118966690D01*
X72214729Y-118966691D01*
X72214729Y-118966692D01*
X72370012Y-119199089D01*
X72422443Y-119277557D01*
X72500910Y-119329987D01*
X73370014Y-120199092D01*
X73422443Y-120277557D01*
X73500908Y-120329986D01*
X73500910Y-120329988D01*
X73616851Y-120407457D01*
X73733309Y-120485272D01*
X74007441Y-120539800D01*
X74007446Y-120539800D01*
X74100000Y-120558210D01*
X74192554Y-120539800D01*
X76732195Y-120539800D01*
X77096861Y-120904238D01*
X79460201Y-123268205D01*
X79460200Y-125407446D01*
X79441790Y-125500000D01*
X79460200Y-125592554D01*
X79460200Y-125592558D01*
X79514728Y-125866690D01*
X79514729Y-125866691D01*
X79514729Y-125866692D01*
X79662567Y-126087947D01*
X79722443Y-126177557D01*
X79800910Y-126229987D01*
X80770014Y-127199092D01*
X80822443Y-127277557D01*
X80900908Y-127329986D01*
X80900910Y-127329988D01*
X81133307Y-127485271D01*
X81133308Y-127485271D01*
X81133309Y-127485272D01*
X81407441Y-127539800D01*
X81407446Y-127539800D01*
X81500000Y-127558210D01*
X81592554Y-127539800D01*
X82005000Y-127539800D01*
X82005000Y-128444250D01*
X82163750Y-128603000D01*
X83363000Y-128603000D01*
X83363000Y-128583000D01*
X83617000Y-128583000D01*
X83617000Y-128603000D01*
X83637000Y-128603000D01*
X83637000Y-128857000D01*
X83617000Y-128857000D01*
X83617000Y-128877000D01*
X83363000Y-128877000D01*
X83363000Y-128857000D01*
X82163750Y-128857000D01*
X82005000Y-129015750D01*
X82005000Y-129174500D01*
X75036765Y-129174500D01*
X74594176Y-129135000D01*
X75822503Y-129135000D01*
X77342289Y-128505483D01*
X78505483Y-127342289D01*
X79135000Y-125822503D01*
X79135000Y-124177497D01*
X78505483Y-122657711D01*
X77342289Y-121494517D01*
X75822503Y-120865000D01*
X74177497Y-120865000D01*
X72657711Y-121494517D01*
X71494517Y-122657711D01*
X70865000Y-124177497D01*
X70865000Y-125507623D01*
X70825500Y-124969732D01*
X70825500Y-117995000D01*
X70984250Y-117995000D01*
X71143000Y-117836250D01*
X71143000Y-116637000D01*
X71123000Y-116637000D01*
X71123000Y-116383000D01*
X71143000Y-116383000D01*
X71143000Y-116363000D01*
X71397000Y-116363000D01*
X71397000Y-116383000D01*
X71397000Y-116383000D01*
G37*
X71397000Y-116383000D02*
X71417000Y-116383000D01*
X71417000Y-116637000D01*
X71397000Y-116637000D01*
X71397000Y-117836250D01*
X71555750Y-117995000D01*
X72160200Y-117995000D01*
X72160200Y-118507446D01*
X72141790Y-118600000D01*
X72160200Y-118692554D01*
X72160200Y-118692558D01*
X72214728Y-118966690D01*
X72214729Y-118966691D01*
X72214729Y-118966692D01*
X72370012Y-119199089D01*
X72422443Y-119277557D01*
X72500910Y-119329987D01*
X73370014Y-120199092D01*
X73422443Y-120277557D01*
X73500908Y-120329986D01*
X73500910Y-120329988D01*
X73616851Y-120407457D01*
X73733309Y-120485272D01*
X74007441Y-120539800D01*
X74007446Y-120539800D01*
X74100000Y-120558210D01*
X74192554Y-120539800D01*
X76732195Y-120539800D01*
X77096861Y-120904238D01*
X79460201Y-123268205D01*
X79460200Y-125407446D01*
X79441790Y-125500000D01*
X79460200Y-125592554D01*
X79460200Y-125592558D01*
X79514728Y-125866690D01*
X79514729Y-125866691D01*
X79514729Y-125866692D01*
X79662567Y-126087947D01*
X79722443Y-126177557D01*
X79800910Y-126229987D01*
X80770014Y-127199092D01*
X80822443Y-127277557D01*
X80900908Y-127329986D01*
X80900910Y-127329988D01*
X81133307Y-127485271D01*
X81133308Y-127485271D01*
X81133309Y-127485272D01*
X81407441Y-127539800D01*
X81407446Y-127539800D01*
X81500000Y-127558210D01*
X81592554Y-127539800D01*
X82005000Y-127539800D01*
X82005000Y-128444250D01*
X82163750Y-128603000D01*
X83363000Y-128603000D01*
X83363000Y-128583000D01*
X83617000Y-128583000D01*
X83617000Y-128603000D01*
X83637000Y-128603000D01*
X83637000Y-128857000D01*
X83617000Y-128857000D01*
X83617000Y-128877000D01*
X83363000Y-128877000D01*
X83363000Y-128857000D01*
X82163750Y-128857000D01*
X82005000Y-129015750D01*
X82005000Y-129174500D01*
X75036765Y-129174500D01*
X74594176Y-129135000D01*
X75822503Y-129135000D01*
X77342289Y-128505483D01*
X78505483Y-127342289D01*
X79135000Y-125822503D01*
X79135000Y-124177497D01*
X78505483Y-122657711D01*
X77342289Y-121494517D01*
X75822503Y-120865000D01*
X74177497Y-120865000D01*
X72657711Y-121494517D01*
X71494517Y-122657711D01*
X70865000Y-124177497D01*
X70865000Y-125507623D01*
X70825500Y-124969732D01*
X70825500Y-117995000D01*
X70984250Y-117995000D01*
X71143000Y-117836250D01*
X71143000Y-116637000D01*
X71123000Y-116637000D01*
X71123000Y-116383000D01*
X71143000Y-116383000D01*
X71143000Y-116363000D01*
X71397000Y-116363000D01*
X71397000Y-116383000D01*
G36*
X102802821Y-124248180D02*
X103264919Y-124556944D01*
X103810000Y-124665368D01*
X104355082Y-124556944D01*
X104364098Y-124550920D01*
X104364098Y-126054958D01*
X104349669Y-126127498D01*
X104364098Y-126200038D01*
X104364098Y-126200041D01*
X104406837Y-126414904D01*
X104565634Y-126652560D01*
X103400000Y-126652560D01*
X103335000Y-126665489D01*
X103335000Y-126285750D01*
X103176250Y-126127000D01*
X102227000Y-126127000D01*
X102227000Y-126147000D01*
X101973000Y-126147000D01*
X101973000Y-126127000D01*
X101023750Y-126127000D01*
X100865000Y-126285750D01*
X100865000Y-126438244D01*
X100532565Y-126575943D01*
X100225943Y-126882565D01*
X100060000Y-127283186D01*
X100060000Y-127716814D01*
X100225943Y-128117435D01*
X100283008Y-128174500D01*
X99716992Y-128174500D01*
X99774057Y-128117435D01*
X99940000Y-127716814D01*
X99940000Y-127283186D01*
X99774057Y-126882565D01*
X99467435Y-126575943D01*
X99147440Y-126443396D01*
X99147440Y-125544269D01*
X100371148Y-124320561D01*
X100724919Y-124556944D01*
X101176353Y-124646740D01*
X101140302Y-124661673D01*
X100961673Y-124840301D01*
X100865000Y-125073690D01*
X100865000Y-125714250D01*
X101023750Y-125873000D01*
X101973000Y-125873000D01*
X101973000Y-124723750D01*
X102227000Y-124723750D01*
X102227000Y-125873000D01*
X103176250Y-125873000D01*
X103335000Y-125714250D01*
X103335000Y-125073690D01*
X103238327Y-124840301D01*
X103059698Y-124661673D01*
X102826309Y-124565000D01*
X102385750Y-124565000D01*
X102227000Y-124723750D01*
X101973000Y-124723750D01*
X101814250Y-124565000D01*
X101774582Y-124565000D01*
X101815082Y-124556944D01*
X102277180Y-124248180D01*
X102540000Y-123854842D01*
X102802821Y-124248180D01*
X102802821Y-124248180D01*
G37*
X102802821Y-124248180D02*
X103264919Y-124556944D01*
X103810000Y-124665368D01*
X104355082Y-124556944D01*
X104364098Y-124550920D01*
X104364098Y-126054958D01*
X104349669Y-126127498D01*
X104364098Y-126200038D01*
X104364098Y-126200041D01*
X104406837Y-126414904D01*
X104565634Y-126652560D01*
X103400000Y-126652560D01*
X103335000Y-126665489D01*
X103335000Y-126285750D01*
X103176250Y-126127000D01*
X102227000Y-126127000D01*
X102227000Y-126147000D01*
X101973000Y-126147000D01*
X101973000Y-126127000D01*
X101023750Y-126127000D01*
X100865000Y-126285750D01*
X100865000Y-126438244D01*
X100532565Y-126575943D01*
X100225943Y-126882565D01*
X100060000Y-127283186D01*
X100060000Y-127716814D01*
X100225943Y-128117435D01*
X100283008Y-128174500D01*
X99716992Y-128174500D01*
X99774057Y-128117435D01*
X99940000Y-127716814D01*
X99940000Y-127283186D01*
X99774057Y-126882565D01*
X99467435Y-126575943D01*
X99147440Y-126443396D01*
X99147440Y-125544269D01*
X100371148Y-124320561D01*
X100724919Y-124556944D01*
X101176353Y-124646740D01*
X101140302Y-124661673D01*
X100961673Y-124840301D01*
X100865000Y-125073690D01*
X100865000Y-125714250D01*
X101023750Y-125873000D01*
X101973000Y-125873000D01*
X101973000Y-124723750D01*
X102227000Y-124723750D01*
X102227000Y-125873000D01*
X103176250Y-125873000D01*
X103335000Y-125714250D01*
X103335000Y-125073690D01*
X103238327Y-124840301D01*
X103059698Y-124661673D01*
X102826309Y-124565000D01*
X102385750Y-124565000D01*
X102227000Y-124723750D01*
X101973000Y-124723750D01*
X101814250Y-124565000D01*
X101774582Y-124565000D01*
X101815082Y-124556944D01*
X102277180Y-124248180D01*
X102540000Y-123854842D01*
X102802821Y-124248180D01*
G36*
X117062601Y-103290001D02*
X117062600Y-105592948D01*
X115248063Y-107407486D01*
X115182317Y-107451416D01*
X115133714Y-107524156D01*
X115008286Y-107711872D01*
X115005165Y-107727560D01*
X115000000Y-107727560D01*
X114752235Y-107776843D01*
X114542191Y-107917191D01*
X114401843Y-108127235D01*
X114352560Y-108375000D01*
X114352560Y-109625000D01*
X114401843Y-109872765D01*
X114542191Y-110082809D01*
X114736435Y-110212600D01*
X113817733Y-110212600D01*
X113642926Y-110037793D01*
X113225766Y-109865000D01*
X112774234Y-109865000D01*
X112357074Y-110037793D01*
X112037793Y-110357074D01*
X111865000Y-110774234D01*
X111865000Y-111225766D01*
X112037793Y-111642926D01*
X112357074Y-111962207D01*
X112774234Y-112135000D01*
X113225766Y-112135000D01*
X113642926Y-111962207D01*
X113817733Y-111787400D01*
X114252560Y-111787400D01*
X114252560Y-111950000D01*
X114301843Y-112197765D01*
X114442191Y-112407809D01*
X114575694Y-112497013D01*
X114540302Y-112511673D01*
X114361673Y-112690301D01*
X114265000Y-112923690D01*
X114265000Y-113164250D01*
X114423750Y-113323000D01*
X115523000Y-113323000D01*
X115523000Y-113303000D01*
X115777000Y-113303000D01*
X115777000Y-113323000D01*
X116876250Y-113323000D01*
X117021727Y-113177523D01*
X117142191Y-113357809D01*
X117352235Y-113498157D01*
X117410200Y-113509687D01*
X117410201Y-114745422D01*
X117252235Y-114776843D01*
X117042191Y-114917191D01*
X117001346Y-114978320D01*
X116859698Y-114836673D01*
X116626309Y-114740000D01*
X116035750Y-114740000D01*
X115877000Y-114898750D01*
X115877000Y-115873000D01*
X115897000Y-115873000D01*
X115897000Y-116127000D01*
X115877000Y-116127000D01*
X115877000Y-117101250D01*
X115998336Y-117222586D01*
X115718363Y-117502560D01*
X114900000Y-117502560D01*
X114652235Y-117551843D01*
X114442191Y-117692191D01*
X114301843Y-117902235D01*
X114252560Y-118150000D01*
X114252560Y-118950000D01*
X114301843Y-119197765D01*
X114442191Y-119407809D01*
X114575694Y-119497013D01*
X114540302Y-119511673D01*
X114361673Y-119690301D01*
X114265000Y-119923690D01*
X114265000Y-120164250D01*
X114423750Y-120323000D01*
X115523000Y-120323000D01*
X115523000Y-120303000D01*
X115777000Y-120303000D01*
X115777000Y-120323000D01*
X116876250Y-120323000D01*
X117021727Y-120177523D01*
X117142191Y-120357809D01*
X117352235Y-120498157D01*
X117600000Y-120547440D01*
X119100000Y-120547440D01*
X119347765Y-120498157D01*
X119366537Y-120485614D01*
X119565422Y-120684500D01*
X118600908Y-121649014D01*
X118522444Y-121701443D01*
X118470015Y-121779908D01*
X118470012Y-121779911D01*
X118314729Y-122012308D01*
X118241790Y-122379000D01*
X118260201Y-122471559D01*
X118260200Y-125510722D01*
X118010723Y-125760200D01*
X115792549Y-125760200D01*
X115699999Y-125741791D01*
X115607449Y-125760200D01*
X115607441Y-125760200D01*
X115333309Y-125814728D01*
X115333308Y-125814729D01*
X115333307Y-125814729D01*
X115100909Y-125970013D01*
X115100908Y-125970014D01*
X115022443Y-126022443D01*
X114970014Y-126100908D01*
X114124319Y-126946604D01*
X113970000Y-126915908D01*
X113390582Y-127031161D01*
X112899375Y-127359375D01*
X112700000Y-127657761D01*
X112500625Y-127359375D01*
X112166600Y-127136187D01*
X112166600Y-120735750D01*
X114265000Y-120735750D01*
X114265000Y-120976310D01*
X114361673Y-121209699D01*
X114540302Y-121388327D01*
X114773691Y-121485000D01*
X115364250Y-121485000D01*
X115523000Y-121326250D01*
X115523000Y-120577000D01*
X115777000Y-120577000D01*
X115777000Y-121326250D01*
X115935750Y-121485000D01*
X116526309Y-121485000D01*
X116759698Y-121388327D01*
X116938327Y-121209699D01*
X117035000Y-120976310D01*
X117035000Y-120735750D01*
X116876250Y-120577000D01*
X115777000Y-120577000D01*
X115523000Y-120577000D01*
X114423750Y-120577000D01*
X114265000Y-120735750D01*
X112166600Y-120735750D01*
X112166600Y-120552540D01*
X112181029Y-120480000D01*
X112166600Y-120407457D01*
X112166600Y-120407456D01*
X112123861Y-120192593D01*
X112099497Y-120156130D01*
X112002151Y-120010441D01*
X112002149Y-120010439D01*
X111961058Y-119948942D01*
X111899561Y-119907851D01*
X110472151Y-118480442D01*
X110431058Y-118418942D01*
X110187407Y-118256139D01*
X109972544Y-118213400D01*
X109972540Y-118213400D01*
X109900000Y-118198971D01*
X109827460Y-118213400D01*
X109640044Y-118213400D01*
X109461488Y-118034844D01*
X109064726Y-117870500D01*
X108635274Y-117870500D01*
X108238512Y-118034844D01*
X108181097Y-118092259D01*
X108181097Y-117790104D01*
X112389501Y-117790104D01*
X112426648Y-118005217D01*
X112854972Y-118148112D01*
X113305375Y-118116217D01*
X113573352Y-118005217D01*
X113610499Y-117790104D01*
X113000000Y-117179605D01*
X112389501Y-117790104D01*
X108181097Y-117790104D01*
X108181097Y-116854972D01*
X111851888Y-116854972D01*
X111883783Y-117305375D01*
X111994783Y-117573352D01*
X112209896Y-117610499D01*
X112820395Y-117000000D01*
X113179605Y-117000000D01*
X113790104Y-117610499D01*
X114005217Y-117573352D01*
X114148112Y-117145028D01*
X114116217Y-116694625D01*
X114005217Y-116426648D01*
X113790104Y-116389501D01*
X113179605Y-117000000D01*
X112820395Y-117000000D01*
X112209896Y-116389501D01*
X111994783Y-116426648D01*
X111851888Y-116854972D01*
X108181097Y-116854972D01*
X108181097Y-116209896D01*
X112389501Y-116209896D01*
X113000000Y-116820395D01*
X113534645Y-116285750D01*
X114365000Y-116285750D01*
X114365000Y-116751310D01*
X114461673Y-116984699D01*
X114640302Y-117163327D01*
X114873691Y-117260000D01*
X115464250Y-117260000D01*
X115623000Y-117101250D01*
X115623000Y-116127000D01*
X114523750Y-116127000D01*
X114365000Y-116285750D01*
X113534645Y-116285750D01*
X113610499Y-116209896D01*
X113573352Y-115994783D01*
X113145028Y-115851888D01*
X112694625Y-115883783D01*
X112426648Y-115994783D01*
X112389501Y-116209896D01*
X108181097Y-116209896D01*
X108181097Y-115686419D01*
X108195526Y-115613878D01*
X108181097Y-115541338D01*
X108181097Y-115541335D01*
X108179077Y-115531182D01*
X108236581Y-115473678D01*
X108329773Y-115248690D01*
X114365000Y-115248690D01*
X114365000Y-115714250D01*
X114523750Y-115873000D01*
X115623000Y-115873000D01*
X115623000Y-114898750D01*
X115464250Y-114740000D01*
X114873691Y-114740000D01*
X114640302Y-114836673D01*
X114461673Y-115015301D01*
X114365000Y-115248690D01*
X108329773Y-115248690D01*
X108400925Y-115076916D01*
X108400925Y-114647464D01*
X108236581Y-114250702D01*
X108075760Y-114089881D01*
X108429890Y-113735750D01*
X114265000Y-113735750D01*
X114265000Y-113976310D01*
X114361673Y-114209699D01*
X114540302Y-114388327D01*
X114773691Y-114485000D01*
X115364250Y-114485000D01*
X115523000Y-114326250D01*
X115523000Y-113577000D01*
X115777000Y-113577000D01*
X115777000Y-114326250D01*
X115935750Y-114485000D01*
X116526309Y-114485000D01*
X116759698Y-114388327D01*
X116938327Y-114209699D01*
X117035000Y-113976310D01*
X117035000Y-113735750D01*
X116876250Y-113577000D01*
X115777000Y-113577000D01*
X115523000Y-113577000D01*
X114423750Y-113577000D01*
X114265000Y-113735750D01*
X108429890Y-113735750D01*
X114590994Y-107574646D01*
X114731058Y-107481058D01*
X114893861Y-107237407D01*
X114951030Y-106950000D01*
X114941188Y-106900521D01*
X116025972Y-105815738D01*
X116087469Y-105774647D01*
X116128560Y-105713150D01*
X116128562Y-105713148D01*
X116250272Y-105530996D01*
X116251811Y-105523261D01*
X116291195Y-105325265D01*
X116774761Y-104841699D01*
X116836258Y-104800608D01*
X116877349Y-104739111D01*
X116877351Y-104739109D01*
X116999061Y-104556957D01*
X117002037Y-104541994D01*
X117041800Y-104342094D01*
X117041800Y-104342091D01*
X117056229Y-104269550D01*
X117041800Y-104197010D01*
X117041800Y-103285863D01*
X117062601Y-103290001D01*
X117062601Y-103290001D01*
G37*
X117062601Y-103290001D02*
X117062600Y-105592948D01*
X115248063Y-107407486D01*
X115182317Y-107451416D01*
X115133714Y-107524156D01*
X115008286Y-107711872D01*
X115005165Y-107727560D01*
X115000000Y-107727560D01*
X114752235Y-107776843D01*
X114542191Y-107917191D01*
X114401843Y-108127235D01*
X114352560Y-108375000D01*
X114352560Y-109625000D01*
X114401843Y-109872765D01*
X114542191Y-110082809D01*
X114736435Y-110212600D01*
X113817733Y-110212600D01*
X113642926Y-110037793D01*
X113225766Y-109865000D01*
X112774234Y-109865000D01*
X112357074Y-110037793D01*
X112037793Y-110357074D01*
X111865000Y-110774234D01*
X111865000Y-111225766D01*
X112037793Y-111642926D01*
X112357074Y-111962207D01*
X112774234Y-112135000D01*
X113225766Y-112135000D01*
X113642926Y-111962207D01*
X113817733Y-111787400D01*
X114252560Y-111787400D01*
X114252560Y-111950000D01*
X114301843Y-112197765D01*
X114442191Y-112407809D01*
X114575694Y-112497013D01*
X114540302Y-112511673D01*
X114361673Y-112690301D01*
X114265000Y-112923690D01*
X114265000Y-113164250D01*
X114423750Y-113323000D01*
X115523000Y-113323000D01*
X115523000Y-113303000D01*
X115777000Y-113303000D01*
X115777000Y-113323000D01*
X116876250Y-113323000D01*
X117021727Y-113177523D01*
X117142191Y-113357809D01*
X117352235Y-113498157D01*
X117410200Y-113509687D01*
X117410201Y-114745422D01*
X117252235Y-114776843D01*
X117042191Y-114917191D01*
X117001346Y-114978320D01*
X116859698Y-114836673D01*
X116626309Y-114740000D01*
X116035750Y-114740000D01*
X115877000Y-114898750D01*
X115877000Y-115873000D01*
X115897000Y-115873000D01*
X115897000Y-116127000D01*
X115877000Y-116127000D01*
X115877000Y-117101250D01*
X115998336Y-117222586D01*
X115718363Y-117502560D01*
X114900000Y-117502560D01*
X114652235Y-117551843D01*
X114442191Y-117692191D01*
X114301843Y-117902235D01*
X114252560Y-118150000D01*
X114252560Y-118950000D01*
X114301843Y-119197765D01*
X114442191Y-119407809D01*
X114575694Y-119497013D01*
X114540302Y-119511673D01*
X114361673Y-119690301D01*
X114265000Y-119923690D01*
X114265000Y-120164250D01*
X114423750Y-120323000D01*
X115523000Y-120323000D01*
X115523000Y-120303000D01*
X115777000Y-120303000D01*
X115777000Y-120323000D01*
X116876250Y-120323000D01*
X117021727Y-120177523D01*
X117142191Y-120357809D01*
X117352235Y-120498157D01*
X117600000Y-120547440D01*
X119100000Y-120547440D01*
X119347765Y-120498157D01*
X119366537Y-120485614D01*
X119565422Y-120684500D01*
X118600908Y-121649014D01*
X118522444Y-121701443D01*
X118470015Y-121779908D01*
X118470012Y-121779911D01*
X118314729Y-122012308D01*
X118241790Y-122379000D01*
X118260201Y-122471559D01*
X118260200Y-125510722D01*
X118010723Y-125760200D01*
X115792549Y-125760200D01*
X115699999Y-125741791D01*
X115607449Y-125760200D01*
X115607441Y-125760200D01*
X115333309Y-125814728D01*
X115333308Y-125814729D01*
X115333307Y-125814729D01*
X115100909Y-125970013D01*
X115100908Y-125970014D01*
X115022443Y-126022443D01*
X114970014Y-126100908D01*
X114124319Y-126946604D01*
X113970000Y-126915908D01*
X113390582Y-127031161D01*
X112899375Y-127359375D01*
X112700000Y-127657761D01*
X112500625Y-127359375D01*
X112166600Y-127136187D01*
X112166600Y-120735750D01*
X114265000Y-120735750D01*
X114265000Y-120976310D01*
X114361673Y-121209699D01*
X114540302Y-121388327D01*
X114773691Y-121485000D01*
X115364250Y-121485000D01*
X115523000Y-121326250D01*
X115523000Y-120577000D01*
X115777000Y-120577000D01*
X115777000Y-121326250D01*
X115935750Y-121485000D01*
X116526309Y-121485000D01*
X116759698Y-121388327D01*
X116938327Y-121209699D01*
X117035000Y-120976310D01*
X117035000Y-120735750D01*
X116876250Y-120577000D01*
X115777000Y-120577000D01*
X115523000Y-120577000D01*
X114423750Y-120577000D01*
X114265000Y-120735750D01*
X112166600Y-120735750D01*
X112166600Y-120552540D01*
X112181029Y-120480000D01*
X112166600Y-120407457D01*
X112166600Y-120407456D01*
X112123861Y-120192593D01*
X112099497Y-120156130D01*
X112002151Y-120010441D01*
X112002149Y-120010439D01*
X111961058Y-119948942D01*
X111899561Y-119907851D01*
X110472151Y-118480442D01*
X110431058Y-118418942D01*
X110187407Y-118256139D01*
X109972544Y-118213400D01*
X109972540Y-118213400D01*
X109900000Y-118198971D01*
X109827460Y-118213400D01*
X109640044Y-118213400D01*
X109461488Y-118034844D01*
X109064726Y-117870500D01*
X108635274Y-117870500D01*
X108238512Y-118034844D01*
X108181097Y-118092259D01*
X108181097Y-117790104D01*
X112389501Y-117790104D01*
X112426648Y-118005217D01*
X112854972Y-118148112D01*
X113305375Y-118116217D01*
X113573352Y-118005217D01*
X113610499Y-117790104D01*
X113000000Y-117179605D01*
X112389501Y-117790104D01*
X108181097Y-117790104D01*
X108181097Y-116854972D01*
X111851888Y-116854972D01*
X111883783Y-117305375D01*
X111994783Y-117573352D01*
X112209896Y-117610499D01*
X112820395Y-117000000D01*
X113179605Y-117000000D01*
X113790104Y-117610499D01*
X114005217Y-117573352D01*
X114148112Y-117145028D01*
X114116217Y-116694625D01*
X114005217Y-116426648D01*
X113790104Y-116389501D01*
X113179605Y-117000000D01*
X112820395Y-117000000D01*
X112209896Y-116389501D01*
X111994783Y-116426648D01*
X111851888Y-116854972D01*
X108181097Y-116854972D01*
X108181097Y-116209896D01*
X112389501Y-116209896D01*
X113000000Y-116820395D01*
X113534645Y-116285750D01*
X114365000Y-116285750D01*
X114365000Y-116751310D01*
X114461673Y-116984699D01*
X114640302Y-117163327D01*
X114873691Y-117260000D01*
X115464250Y-117260000D01*
X115623000Y-117101250D01*
X115623000Y-116127000D01*
X114523750Y-116127000D01*
X114365000Y-116285750D01*
X113534645Y-116285750D01*
X113610499Y-116209896D01*
X113573352Y-115994783D01*
X113145028Y-115851888D01*
X112694625Y-115883783D01*
X112426648Y-115994783D01*
X112389501Y-116209896D01*
X108181097Y-116209896D01*
X108181097Y-115686419D01*
X108195526Y-115613878D01*
X108181097Y-115541338D01*
X108181097Y-115541335D01*
X108179077Y-115531182D01*
X108236581Y-115473678D01*
X108329773Y-115248690D01*
X114365000Y-115248690D01*
X114365000Y-115714250D01*
X114523750Y-115873000D01*
X115623000Y-115873000D01*
X115623000Y-114898750D01*
X115464250Y-114740000D01*
X114873691Y-114740000D01*
X114640302Y-114836673D01*
X114461673Y-115015301D01*
X114365000Y-115248690D01*
X108329773Y-115248690D01*
X108400925Y-115076916D01*
X108400925Y-114647464D01*
X108236581Y-114250702D01*
X108075760Y-114089881D01*
X108429890Y-113735750D01*
X114265000Y-113735750D01*
X114265000Y-113976310D01*
X114361673Y-114209699D01*
X114540302Y-114388327D01*
X114773691Y-114485000D01*
X115364250Y-114485000D01*
X115523000Y-114326250D01*
X115523000Y-113577000D01*
X115777000Y-113577000D01*
X115777000Y-114326250D01*
X115935750Y-114485000D01*
X116526309Y-114485000D01*
X116759698Y-114388327D01*
X116938327Y-114209699D01*
X117035000Y-113976310D01*
X117035000Y-113735750D01*
X116876250Y-113577000D01*
X115777000Y-113577000D01*
X115523000Y-113577000D01*
X114423750Y-113577000D01*
X114265000Y-113735750D01*
X108429890Y-113735750D01*
X114590994Y-107574646D01*
X114731058Y-107481058D01*
X114893861Y-107237407D01*
X114951030Y-106950000D01*
X114941188Y-106900521D01*
X116025972Y-105815738D01*
X116087469Y-105774647D01*
X116128560Y-105713150D01*
X116128562Y-105713148D01*
X116250272Y-105530996D01*
X116251811Y-105523261D01*
X116291195Y-105325265D01*
X116774761Y-104841699D01*
X116836258Y-104800608D01*
X116877349Y-104739111D01*
X116877351Y-104739109D01*
X116999061Y-104556957D01*
X117002037Y-104541994D01*
X117041800Y-104342094D01*
X117041800Y-104342091D01*
X117056229Y-104269550D01*
X117041800Y-104197010D01*
X117041800Y-103285863D01*
X117062601Y-103290001D01*
G36*
X88453008Y-126437068D02*
X88438579Y-126509608D01*
X88453008Y-126582148D01*
X88453008Y-126582151D01*
X88486600Y-126751030D01*
X88495747Y-126797014D01*
X88575985Y-126917098D01*
X88570000Y-126915908D01*
X88175991Y-126994281D01*
X83441401Y-122259692D01*
X83441401Y-122222440D01*
X84900000Y-122222440D01*
X85147765Y-122173157D01*
X85357809Y-122032809D01*
X85498157Y-121822765D01*
X85547440Y-121575000D01*
X85547440Y-120325000D01*
X85498157Y-120077235D01*
X85357809Y-119867191D01*
X85147765Y-119726843D01*
X85125657Y-119722446D01*
X85247765Y-119698157D01*
X85457809Y-119557809D01*
X85598157Y-119347765D01*
X85647440Y-119100000D01*
X85647440Y-117800000D01*
X85598157Y-117552235D01*
X85457809Y-117342191D01*
X85247765Y-117201843D01*
X85238500Y-117200000D01*
X85247765Y-117198157D01*
X85457809Y-117057809D01*
X85598157Y-116847765D01*
X85647440Y-116600000D01*
X85647440Y-115300000D01*
X85598157Y-115052235D01*
X85457809Y-114842191D01*
X85247765Y-114701843D01*
X85000000Y-114652560D01*
X83894270Y-114652560D01*
X83064273Y-113822564D01*
X83252235Y-113948157D01*
X83500000Y-113997440D01*
X85000000Y-113997440D01*
X85247765Y-113948157D01*
X85457809Y-113807809D01*
X85598157Y-113597765D01*
X85647440Y-113350000D01*
X85647440Y-112550000D01*
X85598157Y-112302235D01*
X85457809Y-112092191D01*
X85247765Y-111951843D01*
X85000000Y-111902560D01*
X84986600Y-111902560D01*
X84986600Y-111205214D01*
X85147765Y-111173157D01*
X85357809Y-111032809D01*
X85498157Y-110822765D01*
X85547440Y-110575000D01*
X85547440Y-109325000D01*
X85498157Y-109077235D01*
X85357809Y-108867191D01*
X85147765Y-108726843D01*
X84900000Y-108677560D01*
X84886600Y-108677560D01*
X84886600Y-107467640D01*
X84901029Y-107395100D01*
X84886600Y-107322557D01*
X84886600Y-107322556D01*
X84843861Y-107107693D01*
X84815763Y-107065642D01*
X84722151Y-106925541D01*
X84722149Y-106925539D01*
X84681058Y-106864042D01*
X84619561Y-106822951D01*
X82852815Y-105056206D01*
X83100625Y-104890625D01*
X83428839Y-104399418D01*
X83544092Y-103820000D01*
X83428839Y-103240582D01*
X83100625Y-102749375D01*
X82802239Y-102550000D01*
X83100625Y-102350625D01*
X83323813Y-102016600D01*
X85293760Y-102016600D01*
X85366300Y-102031029D01*
X85438840Y-102016600D01*
X85438844Y-102016600D01*
X85653707Y-101973861D01*
X85897358Y-101811058D01*
X85938451Y-101749558D01*
X88453009Y-99235000D01*
X88453008Y-126437068D01*
X88453008Y-126437068D01*
G37*
X88453008Y-126437068D02*
X88438579Y-126509608D01*
X88453008Y-126582148D01*
X88453008Y-126582151D01*
X88486600Y-126751030D01*
X88495747Y-126797014D01*
X88575985Y-126917098D01*
X88570000Y-126915908D01*
X88175991Y-126994281D01*
X83441401Y-122259692D01*
X83441401Y-122222440D01*
X84900000Y-122222440D01*
X85147765Y-122173157D01*
X85357809Y-122032809D01*
X85498157Y-121822765D01*
X85547440Y-121575000D01*
X85547440Y-120325000D01*
X85498157Y-120077235D01*
X85357809Y-119867191D01*
X85147765Y-119726843D01*
X85125657Y-119722446D01*
X85247765Y-119698157D01*
X85457809Y-119557809D01*
X85598157Y-119347765D01*
X85647440Y-119100000D01*
X85647440Y-117800000D01*
X85598157Y-117552235D01*
X85457809Y-117342191D01*
X85247765Y-117201843D01*
X85238500Y-117200000D01*
X85247765Y-117198157D01*
X85457809Y-117057809D01*
X85598157Y-116847765D01*
X85647440Y-116600000D01*
X85647440Y-115300000D01*
X85598157Y-115052235D01*
X85457809Y-114842191D01*
X85247765Y-114701843D01*
X85000000Y-114652560D01*
X83894270Y-114652560D01*
X83064273Y-113822564D01*
X83252235Y-113948157D01*
X83500000Y-113997440D01*
X85000000Y-113997440D01*
X85247765Y-113948157D01*
X85457809Y-113807809D01*
X85598157Y-113597765D01*
X85647440Y-113350000D01*
X85647440Y-112550000D01*
X85598157Y-112302235D01*
X85457809Y-112092191D01*
X85247765Y-111951843D01*
X85000000Y-111902560D01*
X84986600Y-111902560D01*
X84986600Y-111205214D01*
X85147765Y-111173157D01*
X85357809Y-111032809D01*
X85498157Y-110822765D01*
X85547440Y-110575000D01*
X85547440Y-109325000D01*
X85498157Y-109077235D01*
X85357809Y-108867191D01*
X85147765Y-108726843D01*
X84900000Y-108677560D01*
X84886600Y-108677560D01*
X84886600Y-107467640D01*
X84901029Y-107395100D01*
X84886600Y-107322557D01*
X84886600Y-107322556D01*
X84843861Y-107107693D01*
X84815763Y-107065642D01*
X84722151Y-106925541D01*
X84722149Y-106925539D01*
X84681058Y-106864042D01*
X84619561Y-106822951D01*
X82852815Y-105056206D01*
X83100625Y-104890625D01*
X83428839Y-104399418D01*
X83544092Y-103820000D01*
X83428839Y-103240582D01*
X83100625Y-102749375D01*
X82802239Y-102550000D01*
X83100625Y-102350625D01*
X83323813Y-102016600D01*
X85293760Y-102016600D01*
X85366300Y-102031029D01*
X85438840Y-102016600D01*
X85438844Y-102016600D01*
X85653707Y-101973861D01*
X85897358Y-101811058D01*
X85938451Y-101749558D01*
X88453009Y-99235000D01*
X88453008Y-126437068D01*
G36*
X74273011Y-114301105D02*
X74258581Y-114373650D01*
X74315749Y-114661056D01*
X74437459Y-114843208D01*
X74437462Y-114843211D01*
X74478553Y-114904708D01*
X74540050Y-114945799D01*
X79888250Y-120294000D01*
X79920701Y-120342566D01*
X79969267Y-120375017D01*
X80084010Y-120489760D01*
X80125101Y-120551257D01*
X80186598Y-120592348D01*
X80186600Y-120592350D01*
X80265000Y-120644735D01*
X80265000Y-120664250D01*
X80423750Y-120823000D01*
X81523000Y-120823000D01*
X81523000Y-120803000D01*
X81777000Y-120803000D01*
X81777000Y-120823000D01*
X81797000Y-120823000D01*
X81797000Y-121077000D01*
X81777000Y-121077000D01*
X81777000Y-122051250D01*
X81935750Y-122210000D01*
X81968201Y-122210000D01*
X81968201Y-122492260D01*
X81953772Y-122564801D01*
X81968201Y-122637341D01*
X81968201Y-122637344D01*
X82010940Y-122852207D01*
X82173743Y-123095859D01*
X82235243Y-123136952D01*
X84758491Y-125660200D01*
X81889278Y-125660200D01*
X81339800Y-125110723D01*
X81339800Y-122971616D01*
X81358210Y-122879127D01*
X81339800Y-122786508D01*
X81339800Y-122786441D01*
X81320782Y-122690828D01*
X81285320Y-122512425D01*
X81285285Y-122512372D01*
X81285272Y-122512309D01*
X81182310Y-122358216D01*
X81130067Y-122280007D01*
X81130022Y-122279962D01*
X81083275Y-122210000D01*
X81364250Y-122210000D01*
X81523000Y-122051250D01*
X81523000Y-121077000D01*
X80423750Y-121077000D01*
X80265000Y-121235750D01*
X80265000Y-121414711D01*
X78490620Y-119639861D01*
X78490500Y-119639681D01*
X78423672Y-119572895D01*
X78359886Y-119509092D01*
X78359714Y-119508977D01*
X77851205Y-119000787D01*
X77798857Y-118922443D01*
X77720266Y-118869930D01*
X77720161Y-118869825D01*
X77643332Y-118818524D01*
X77487991Y-118714728D01*
X77487841Y-118714698D01*
X77487715Y-118714614D01*
X77306536Y-118678635D01*
X77213859Y-118660200D01*
X77213707Y-118660200D01*
X77121001Y-118641790D01*
X77028598Y-118660200D01*
X74489278Y-118660200D01*
X74039800Y-118210723D01*
X74039800Y-115592554D01*
X74058210Y-115500000D01*
X74039800Y-115407446D01*
X74039800Y-115407441D01*
X73985272Y-115133309D01*
X73921377Y-115037684D01*
X73829988Y-114900910D01*
X73829986Y-114900908D01*
X73777557Y-114822443D01*
X73699092Y-114770014D01*
X73053396Y-114124319D01*
X73084092Y-113970000D01*
X73053396Y-113815681D01*
X73139089Y-113729988D01*
X73217557Y-113677557D01*
X73364121Y-113458210D01*
X73425271Y-113366693D01*
X73425271Y-113366692D01*
X73425272Y-113366691D01*
X73479800Y-113092559D01*
X73479800Y-113092555D01*
X73498210Y-113000001D01*
X73479800Y-112907447D01*
X73479800Y-112841779D01*
X73577527Y-112744230D01*
X73656357Y-112691557D01*
X73760161Y-112536203D01*
X73863736Y-112381501D01*
X73863824Y-112381063D01*
X73864072Y-112380691D01*
X73900677Y-112196665D01*
X73937009Y-112014875D01*
X73918600Y-111921882D01*
X73918600Y-102553573D01*
X74135276Y-102337130D01*
X74213957Y-102284557D01*
X74273010Y-102196178D01*
X74273011Y-114301105D01*
X74273011Y-114301105D01*
G37*
X74273011Y-114301105D02*
X74258581Y-114373650D01*
X74315749Y-114661056D01*
X74437459Y-114843208D01*
X74437462Y-114843211D01*
X74478553Y-114904708D01*
X74540050Y-114945799D01*
X79888250Y-120294000D01*
X79920701Y-120342566D01*
X79969267Y-120375017D01*
X80084010Y-120489760D01*
X80125101Y-120551257D01*
X80186598Y-120592348D01*
X80186600Y-120592350D01*
X80265000Y-120644735D01*
X80265000Y-120664250D01*
X80423750Y-120823000D01*
X81523000Y-120823000D01*
X81523000Y-120803000D01*
X81777000Y-120803000D01*
X81777000Y-120823000D01*
X81797000Y-120823000D01*
X81797000Y-121077000D01*
X81777000Y-121077000D01*
X81777000Y-122051250D01*
X81935750Y-122210000D01*
X81968201Y-122210000D01*
X81968201Y-122492260D01*
X81953772Y-122564801D01*
X81968201Y-122637341D01*
X81968201Y-122637344D01*
X82010940Y-122852207D01*
X82173743Y-123095859D01*
X82235243Y-123136952D01*
X84758491Y-125660200D01*
X81889278Y-125660200D01*
X81339800Y-125110723D01*
X81339800Y-122971616D01*
X81358210Y-122879127D01*
X81339800Y-122786508D01*
X81339800Y-122786441D01*
X81320782Y-122690828D01*
X81285320Y-122512425D01*
X81285285Y-122512372D01*
X81285272Y-122512309D01*
X81182310Y-122358216D01*
X81130067Y-122280007D01*
X81130022Y-122279962D01*
X81083275Y-122210000D01*
X81364250Y-122210000D01*
X81523000Y-122051250D01*
X81523000Y-121077000D01*
X80423750Y-121077000D01*
X80265000Y-121235750D01*
X80265000Y-121414711D01*
X78490620Y-119639861D01*
X78490500Y-119639681D01*
X78423672Y-119572895D01*
X78359886Y-119509092D01*
X78359714Y-119508977D01*
X77851205Y-119000787D01*
X77798857Y-118922443D01*
X77720266Y-118869930D01*
X77720161Y-118869825D01*
X77643332Y-118818524D01*
X77487991Y-118714728D01*
X77487841Y-118714698D01*
X77487715Y-118714614D01*
X77306536Y-118678635D01*
X77213859Y-118660200D01*
X77213707Y-118660200D01*
X77121001Y-118641790D01*
X77028598Y-118660200D01*
X74489278Y-118660200D01*
X74039800Y-118210723D01*
X74039800Y-115592554D01*
X74058210Y-115500000D01*
X74039800Y-115407446D01*
X74039800Y-115407441D01*
X73985272Y-115133309D01*
X73921377Y-115037684D01*
X73829988Y-114900910D01*
X73829986Y-114900908D01*
X73777557Y-114822443D01*
X73699092Y-114770014D01*
X73053396Y-114124319D01*
X73084092Y-113970000D01*
X73053396Y-113815681D01*
X73139089Y-113729988D01*
X73217557Y-113677557D01*
X73364121Y-113458210D01*
X73425271Y-113366693D01*
X73425271Y-113366692D01*
X73425272Y-113366691D01*
X73479800Y-113092559D01*
X73479800Y-113092555D01*
X73498210Y-113000001D01*
X73479800Y-112907447D01*
X73479800Y-112841779D01*
X73577527Y-112744230D01*
X73656357Y-112691557D01*
X73760161Y-112536203D01*
X73863736Y-112381501D01*
X73863824Y-112381063D01*
X73864072Y-112380691D01*
X73900677Y-112196665D01*
X73937009Y-112014875D01*
X73918600Y-111921882D01*
X73918600Y-102553573D01*
X74135276Y-102337130D01*
X74213957Y-102284557D01*
X74273010Y-102196178D01*
X74273011Y-114301105D01*
G36*
X81968600Y-107673409D02*
X81968600Y-108690000D01*
X81935750Y-108690000D01*
X81777000Y-108848750D01*
X81777000Y-109823000D01*
X81797000Y-109823000D01*
X81797000Y-110077000D01*
X81777000Y-110077000D01*
X81777000Y-111023750D01*
X81677000Y-111123750D01*
X81677000Y-111873000D01*
X81697000Y-111873000D01*
X81697000Y-112127000D01*
X81677000Y-112127000D01*
X81677000Y-112147000D01*
X81423000Y-112147000D01*
X81423000Y-112127000D01*
X80323750Y-112127000D01*
X80165000Y-112285750D01*
X80165000Y-112526310D01*
X80261673Y-112759699D01*
X80440302Y-112938327D01*
X80475694Y-112952987D01*
X80342191Y-113042191D01*
X80201843Y-113252235D01*
X80152560Y-113500000D01*
X80152560Y-114300000D01*
X80201843Y-114547765D01*
X80342191Y-114757809D01*
X80403320Y-114798655D01*
X80261673Y-114940301D01*
X80165000Y-115173690D01*
X80165000Y-115664250D01*
X80323750Y-115823000D01*
X81423000Y-115823000D01*
X81423000Y-115803000D01*
X81677000Y-115803000D01*
X81677000Y-115823000D01*
X81697000Y-115823000D01*
X81697000Y-116077000D01*
X81677000Y-116077000D01*
X81677000Y-116097000D01*
X81423000Y-116097000D01*
X81423000Y-116077000D01*
X80323750Y-116077000D01*
X80165000Y-116235750D01*
X80165000Y-116726310D01*
X80261673Y-116959699D01*
X80440302Y-117138327D01*
X80580209Y-117196279D01*
X80552235Y-117201843D01*
X80342191Y-117342191D01*
X80201843Y-117552235D01*
X80152560Y-117800000D01*
X80152560Y-117895850D01*
X77386600Y-115129891D01*
X77386600Y-111473690D01*
X80165000Y-111473690D01*
X80165000Y-111714250D01*
X80323750Y-111873000D01*
X81423000Y-111873000D01*
X81423000Y-111151250D01*
X81523000Y-111051250D01*
X81523000Y-110077000D01*
X80423750Y-110077000D01*
X80265000Y-110235750D01*
X80265000Y-110701310D01*
X80361673Y-110934699D01*
X80474488Y-111047513D01*
X80440302Y-111061673D01*
X80261673Y-111240301D01*
X80165000Y-111473690D01*
X77386600Y-111473690D01*
X77386600Y-109198690D01*
X80265000Y-109198690D01*
X80265000Y-109664250D01*
X80423750Y-109823000D01*
X81523000Y-109823000D01*
X81523000Y-108848750D01*
X81364250Y-108690000D01*
X80773691Y-108690000D01*
X80540302Y-108786673D01*
X80361673Y-108965301D01*
X80265000Y-109198690D01*
X77386600Y-109198690D01*
X77386600Y-108147440D01*
X77500000Y-108147440D01*
X77747765Y-108098157D01*
X77957809Y-107957809D01*
X78098157Y-107747765D01*
X78107184Y-107702381D01*
X78119375Y-107720625D01*
X78610582Y-108048839D01*
X79190000Y-108164092D01*
X79769417Y-108048839D01*
X80260625Y-107720625D01*
X80588839Y-107229418D01*
X80675000Y-106796256D01*
X80675000Y-106379809D01*
X81968600Y-107673409D01*
X81968600Y-107673409D01*
G37*
X81968600Y-107673409D02*
X81968600Y-108690000D01*
X81935750Y-108690000D01*
X81777000Y-108848750D01*
X81777000Y-109823000D01*
X81797000Y-109823000D01*
X81797000Y-110077000D01*
X81777000Y-110077000D01*
X81777000Y-111023750D01*
X81677000Y-111123750D01*
X81677000Y-111873000D01*
X81697000Y-111873000D01*
X81697000Y-112127000D01*
X81677000Y-112127000D01*
X81677000Y-112147000D01*
X81423000Y-112147000D01*
X81423000Y-112127000D01*
X80323750Y-112127000D01*
X80165000Y-112285750D01*
X80165000Y-112526310D01*
X80261673Y-112759699D01*
X80440302Y-112938327D01*
X80475694Y-112952987D01*
X80342191Y-113042191D01*
X80201843Y-113252235D01*
X80152560Y-113500000D01*
X80152560Y-114300000D01*
X80201843Y-114547765D01*
X80342191Y-114757809D01*
X80403320Y-114798655D01*
X80261673Y-114940301D01*
X80165000Y-115173690D01*
X80165000Y-115664250D01*
X80323750Y-115823000D01*
X81423000Y-115823000D01*
X81423000Y-115803000D01*
X81677000Y-115803000D01*
X81677000Y-115823000D01*
X81697000Y-115823000D01*
X81697000Y-116077000D01*
X81677000Y-116077000D01*
X81677000Y-116097000D01*
X81423000Y-116097000D01*
X81423000Y-116077000D01*
X80323750Y-116077000D01*
X80165000Y-116235750D01*
X80165000Y-116726310D01*
X80261673Y-116959699D01*
X80440302Y-117138327D01*
X80580209Y-117196279D01*
X80552235Y-117201843D01*
X80342191Y-117342191D01*
X80201843Y-117552235D01*
X80152560Y-117800000D01*
X80152560Y-117895850D01*
X77386600Y-115129891D01*
X77386600Y-111473690D01*
X80165000Y-111473690D01*
X80165000Y-111714250D01*
X80323750Y-111873000D01*
X81423000Y-111873000D01*
X81423000Y-111151250D01*
X81523000Y-111051250D01*
X81523000Y-110077000D01*
X80423750Y-110077000D01*
X80265000Y-110235750D01*
X80265000Y-110701310D01*
X80361673Y-110934699D01*
X80474488Y-111047513D01*
X80440302Y-111061673D01*
X80261673Y-111240301D01*
X80165000Y-111473690D01*
X77386600Y-111473690D01*
X77386600Y-109198690D01*
X80265000Y-109198690D01*
X80265000Y-109664250D01*
X80423750Y-109823000D01*
X81523000Y-109823000D01*
X81523000Y-108848750D01*
X81364250Y-108690000D01*
X80773691Y-108690000D01*
X80540302Y-108786673D01*
X80361673Y-108965301D01*
X80265000Y-109198690D01*
X77386600Y-109198690D01*
X77386600Y-108147440D01*
X77500000Y-108147440D01*
X77747765Y-108098157D01*
X77957809Y-107957809D01*
X78098157Y-107747765D01*
X78107184Y-107702381D01*
X78119375Y-107720625D01*
X78610582Y-108048839D01*
X79190000Y-108164092D01*
X79769417Y-108048839D01*
X80260625Y-107720625D01*
X80588839Y-107229418D01*
X80675000Y-106796256D01*
X80675000Y-106379809D01*
X81968600Y-107673409D01*
G36*
X116952560Y-112724662D02*
X116938327Y-112690301D01*
X116759698Y-112511673D01*
X116724306Y-112497013D01*
X116857809Y-112407809D01*
X116952560Y-112266005D01*
X116952560Y-112724662D01*
X116952560Y-112724662D01*
G37*
X116952560Y-112724662D02*
X116938327Y-112690301D01*
X116759698Y-112511673D01*
X116724306Y-112497013D01*
X116857809Y-112407809D01*
X116952560Y-112266005D01*
X116952560Y-112724662D01*
G36*
X122602951Y-95894661D02*
X122644042Y-95956158D01*
X122705539Y-95997249D01*
X122705541Y-95997251D01*
X122848702Y-96092908D01*
X122887693Y-96118961D01*
X123102556Y-96161700D01*
X123102559Y-96161700D01*
X123175100Y-96176129D01*
X123247640Y-96161700D01*
X125798767Y-96161700D01*
X125780881Y-96198126D01*
X125907046Y-96373000D01*
X127023000Y-96373000D01*
X127023000Y-96353000D01*
X127277000Y-96353000D01*
X127277000Y-96373000D01*
X127297000Y-96373000D01*
X127297000Y-96627000D01*
X127277000Y-96627000D01*
X127277000Y-97635000D01*
X127544601Y-97635000D01*
X127544600Y-102365000D01*
X127277000Y-102365000D01*
X127277000Y-103373000D01*
X127297000Y-103373000D01*
X127297000Y-103627000D01*
X127277000Y-103627000D01*
X127277000Y-104635000D01*
X127544600Y-104635000D01*
X127544600Y-105155612D01*
X127359375Y-105279375D01*
X127031161Y-105770582D01*
X126918530Y-106336820D01*
X126634250Y-106052541D01*
X126593157Y-105991041D01*
X126349506Y-105828238D01*
X126134643Y-105785499D01*
X126134639Y-105785499D01*
X126062099Y-105771070D01*
X125989559Y-105785499D01*
X123462484Y-105785499D01*
X123389944Y-105771070D01*
X123317403Y-105785499D01*
X123317400Y-105785499D01*
X123116302Y-105825500D01*
X123102537Y-105828238D01*
X122920385Y-105949948D01*
X122920383Y-105949950D01*
X122858886Y-105991041D01*
X122817794Y-106052539D01*
X121735412Y-107134922D01*
X121645847Y-107045357D01*
X121544015Y-107003177D01*
X121642926Y-106962207D01*
X121962207Y-106642926D01*
X122135000Y-106225766D01*
X122135000Y-105774234D01*
X121962207Y-105357074D01*
X121787400Y-105182267D01*
X121787400Y-104489244D01*
X121915156Y-104361488D01*
X122079500Y-103964726D01*
X122079500Y-103801874D01*
X125780881Y-103801874D01*
X125982632Y-104212763D01*
X126323322Y-104500002D01*
X126748000Y-104635000D01*
X127023000Y-104635000D01*
X127023000Y-103627000D01*
X125907046Y-103627000D01*
X125780881Y-103801874D01*
X122079500Y-103801874D01*
X122079500Y-103535274D01*
X121915156Y-103138512D01*
X121611488Y-102834844D01*
X121530098Y-102801131D01*
X123348771Y-102801131D01*
X123490432Y-103211049D01*
X123778179Y-103535552D01*
X124152062Y-103719268D01*
X124323000Y-103592734D01*
X124323000Y-102627000D01*
X124577000Y-102627000D01*
X124577000Y-103592734D01*
X124747938Y-103719268D01*
X125121821Y-103535552D01*
X125409568Y-103211049D01*
X125414033Y-103198126D01*
X125780881Y-103198126D01*
X125907046Y-103373000D01*
X127023000Y-103373000D01*
X127023000Y-102365000D01*
X126748000Y-102365000D01*
X126323322Y-102499998D01*
X125982632Y-102787237D01*
X125780881Y-103198126D01*
X125414033Y-103198126D01*
X125551229Y-102801131D01*
X125402563Y-102627000D01*
X124577000Y-102627000D01*
X124323000Y-102627000D01*
X123497437Y-102627000D01*
X123348771Y-102801131D01*
X121530098Y-102801131D01*
X121214726Y-102670500D01*
X120785274Y-102670500D01*
X120388512Y-102834844D01*
X120084844Y-103138512D01*
X119920500Y-103535274D01*
X119920500Y-103964726D01*
X120084844Y-104361488D01*
X120212600Y-104489244D01*
X120212601Y-105182266D01*
X120037793Y-105357074D01*
X119865000Y-105774234D01*
X119865000Y-106225766D01*
X120037793Y-106642926D01*
X120357074Y-106962207D01*
X120490344Y-107017409D01*
X120422871Y-107045357D01*
X120119203Y-107349025D01*
X119954859Y-107745787D01*
X119954859Y-108175239D01*
X120119203Y-108572001D01*
X120422871Y-108875669D01*
X120819633Y-109040013D01*
X121249085Y-109040013D01*
X121645847Y-108875669D01*
X121824403Y-108697113D01*
X121878990Y-108697113D01*
X121951530Y-108711542D01*
X122024070Y-108697113D01*
X122024074Y-108697113D01*
X122033337Y-108695270D01*
X122002560Y-108850000D01*
X122002560Y-111393363D01*
X121835723Y-111560200D01*
X119435102Y-111560200D01*
X119347765Y-111501843D01*
X119100000Y-111452560D01*
X117600000Y-111452560D01*
X117352235Y-111501843D01*
X117142191Y-111642191D01*
X117047440Y-111783995D01*
X117047440Y-111150000D01*
X116998157Y-110902235D01*
X116857809Y-110692191D01*
X116647765Y-110551843D01*
X116537400Y-110529890D01*
X116537400Y-110265001D01*
X116747765Y-110223157D01*
X116957809Y-110082809D01*
X116998654Y-110021680D01*
X117140302Y-110163327D01*
X117373691Y-110260000D01*
X117964250Y-110260000D01*
X118123000Y-110101250D01*
X118123000Y-109127000D01*
X118377000Y-109127000D01*
X118377000Y-110101250D01*
X118535750Y-110260000D01*
X119126309Y-110260000D01*
X119359698Y-110163327D01*
X119538327Y-109984699D01*
X119635000Y-109751310D01*
X119635000Y-109285750D01*
X119476250Y-109127000D01*
X118377000Y-109127000D01*
X118123000Y-109127000D01*
X118103000Y-109127000D01*
X118103000Y-108873000D01*
X118123000Y-108873000D01*
X118123000Y-107898750D01*
X118377000Y-107898750D01*
X118377000Y-108873000D01*
X119476250Y-108873000D01*
X119635000Y-108714250D01*
X119635000Y-108248690D01*
X119538327Y-108015301D01*
X119359698Y-107836673D01*
X119126309Y-107740000D01*
X118535750Y-107740000D01*
X118377000Y-107898750D01*
X118123000Y-107898750D01*
X117964250Y-107740000D01*
X117373691Y-107740000D01*
X117140302Y-107836673D01*
X116998654Y-107978320D01*
X116960874Y-107921778D01*
X118351938Y-106530714D01*
X118417684Y-106486784D01*
X118551706Y-106286206D01*
X118591714Y-106226330D01*
X118591714Y-106226329D01*
X118591715Y-106226328D01*
X118637400Y-105996652D01*
X118637400Y-105996651D01*
X118652826Y-105919101D01*
X118637400Y-105841550D01*
X118637400Y-103290001D01*
X118847765Y-103248157D01*
X119057809Y-103107809D01*
X119198157Y-102897765D01*
X119227799Y-102748742D01*
X119263128Y-102741715D01*
X119523584Y-102567684D01*
X119697615Y-102307228D01*
X119758726Y-102000000D01*
X119747191Y-101942008D01*
X119807188Y-101917156D01*
X120059606Y-101664739D01*
X120357074Y-101962207D01*
X120774234Y-102135000D01*
X121225766Y-102135000D01*
X121642926Y-101962207D01*
X121962207Y-101642926D01*
X122135000Y-101225766D01*
X122135000Y-100774234D01*
X122119412Y-100736600D01*
X123127560Y-100736600D01*
X123127560Y-100850000D01*
X123148217Y-100953852D01*
X123140000Y-100973690D01*
X123140000Y-101041250D01*
X123171958Y-101073208D01*
X123176843Y-101097765D01*
X123317191Y-101307809D01*
X123455164Y-101400000D01*
X123298750Y-101400000D01*
X123140000Y-101558750D01*
X123140000Y-101626310D01*
X123236673Y-101859699D01*
X123407090Y-102030115D01*
X123348771Y-102198869D01*
X123497437Y-102373000D01*
X124323000Y-102373000D01*
X124323000Y-102353000D01*
X124577000Y-102353000D01*
X124577000Y-102373000D01*
X125402563Y-102373000D01*
X125551229Y-102198869D01*
X125492910Y-102030115D01*
X125663327Y-101859699D01*
X125760000Y-101626310D01*
X125760000Y-101558750D01*
X125601250Y-101400000D01*
X125444836Y-101400000D01*
X125582809Y-101307809D01*
X125723157Y-101097765D01*
X125728042Y-101073208D01*
X125760000Y-101041250D01*
X125760000Y-100973690D01*
X125751783Y-100953852D01*
X125772440Y-100850000D01*
X125772440Y-100450000D01*
X125747576Y-100325000D01*
X125772440Y-100200000D01*
X125772440Y-99800000D01*
X125747576Y-99675000D01*
X125772440Y-99550000D01*
X125772440Y-99150000D01*
X125747576Y-99025000D01*
X125772440Y-98900000D01*
X125772440Y-98500000D01*
X125723157Y-98252235D01*
X125582809Y-98042191D01*
X125489475Y-97979827D01*
X125551229Y-97801131D01*
X125402563Y-97627000D01*
X124577000Y-97627000D01*
X124577000Y-97647000D01*
X124323000Y-97647000D01*
X124323000Y-97627000D01*
X124303000Y-97627000D01*
X124303000Y-97373000D01*
X124323000Y-97373000D01*
X124323000Y-96407266D01*
X124577000Y-96407266D01*
X124577000Y-97373000D01*
X125402563Y-97373000D01*
X125551229Y-97198869D01*
X125414034Y-96801874D01*
X125780881Y-96801874D01*
X125982632Y-97212763D01*
X126323322Y-97500002D01*
X126748000Y-97635000D01*
X127023000Y-97635000D01*
X127023000Y-96627000D01*
X125907046Y-96627000D01*
X125780881Y-96801874D01*
X125414034Y-96801874D01*
X125409568Y-96788951D01*
X125121821Y-96464448D01*
X124747938Y-96280732D01*
X124577000Y-96407266D01*
X124323000Y-96407266D01*
X124152062Y-96280732D01*
X123778179Y-96464448D01*
X123490432Y-96788951D01*
X123411749Y-97016633D01*
X123163571Y-96768455D01*
X122682789Y-96569308D01*
X122162395Y-96569308D01*
X122066560Y-96609004D01*
X121962207Y-96357074D01*
X121642926Y-96037793D01*
X121225766Y-95865000D01*
X120774234Y-95865000D01*
X120357074Y-96037793D01*
X120037793Y-96357074D01*
X119865000Y-96774234D01*
X119865000Y-97225766D01*
X120037793Y-97642926D01*
X120263401Y-97868534D01*
X120263401Y-98246454D01*
X120248971Y-98318999D01*
X120306139Y-98606405D01*
X120330115Y-98642288D01*
X120155014Y-98714817D01*
X119851346Y-99018485D01*
X119687002Y-99415247D01*
X119687002Y-99844699D01*
X119783183Y-100076901D01*
X119410426Y-99922500D01*
X119135000Y-99922500D01*
X119135000Y-99785750D01*
X118976250Y-99627000D01*
X117877000Y-99627000D01*
X117877000Y-99647000D01*
X117623000Y-99647000D01*
X117623000Y-99627000D01*
X117603000Y-99627000D01*
X117603000Y-99373000D01*
X117623000Y-99373000D01*
X117623000Y-98398750D01*
X117474250Y-98250000D01*
X117623000Y-98101250D01*
X117623000Y-97127000D01*
X117603000Y-97127000D01*
X117603000Y-96873000D01*
X117623000Y-96873000D01*
X117623000Y-96853000D01*
X117877000Y-96853000D01*
X117877000Y-96873000D01*
X117897000Y-96873000D01*
X117897000Y-97127000D01*
X117877000Y-97127000D01*
X117877000Y-97909825D01*
X117876400Y-97911274D01*
X117876400Y-98340726D01*
X117893571Y-98382179D01*
X117877000Y-98398750D01*
X117877000Y-99373000D01*
X118976250Y-99373000D01*
X119135000Y-99214250D01*
X119135000Y-99205500D01*
X119170626Y-99205500D01*
X119567388Y-99041156D01*
X119871056Y-98737488D01*
X120035400Y-98340726D01*
X120035400Y-97911274D01*
X119871056Y-97514512D01*
X119743300Y-97386756D01*
X119743300Y-95405140D01*
X119890288Y-95344256D01*
X120193956Y-95040588D01*
X120358300Y-94643826D01*
X120358300Y-94214374D01*
X120193956Y-93817612D01*
X119890288Y-93513944D01*
X119493526Y-93349600D01*
X119064074Y-93349600D01*
X119020858Y-93367501D01*
X118847765Y-93251843D01*
X118819791Y-93246279D01*
X118959698Y-93188327D01*
X119138327Y-93009699D01*
X119235000Y-92776310D01*
X119235000Y-92629500D01*
X119337791Y-92629500D01*
X122602951Y-95894661D01*
X122602951Y-95894661D01*
G37*
X122602951Y-95894661D02*
X122644042Y-95956158D01*
X122705539Y-95997249D01*
X122705541Y-95997251D01*
X122848702Y-96092908D01*
X122887693Y-96118961D01*
X123102556Y-96161700D01*
X123102559Y-96161700D01*
X123175100Y-96176129D01*
X123247640Y-96161700D01*
X125798767Y-96161700D01*
X125780881Y-96198126D01*
X125907046Y-96373000D01*
X127023000Y-96373000D01*
X127023000Y-96353000D01*
X127277000Y-96353000D01*
X127277000Y-96373000D01*
X127297000Y-96373000D01*
X127297000Y-96627000D01*
X127277000Y-96627000D01*
X127277000Y-97635000D01*
X127544601Y-97635000D01*
X127544600Y-102365000D01*
X127277000Y-102365000D01*
X127277000Y-103373000D01*
X127297000Y-103373000D01*
X127297000Y-103627000D01*
X127277000Y-103627000D01*
X127277000Y-104635000D01*
X127544600Y-104635000D01*
X127544600Y-105155612D01*
X127359375Y-105279375D01*
X127031161Y-105770582D01*
X126918530Y-106336820D01*
X126634250Y-106052541D01*
X126593157Y-105991041D01*
X126349506Y-105828238D01*
X126134643Y-105785499D01*
X126134639Y-105785499D01*
X126062099Y-105771070D01*
X125989559Y-105785499D01*
X123462484Y-105785499D01*
X123389944Y-105771070D01*
X123317403Y-105785499D01*
X123317400Y-105785499D01*
X123116302Y-105825500D01*
X123102537Y-105828238D01*
X122920385Y-105949948D01*
X122920383Y-105949950D01*
X122858886Y-105991041D01*
X122817794Y-106052539D01*
X121735412Y-107134922D01*
X121645847Y-107045357D01*
X121544015Y-107003177D01*
X121642926Y-106962207D01*
X121962207Y-106642926D01*
X122135000Y-106225766D01*
X122135000Y-105774234D01*
X121962207Y-105357074D01*
X121787400Y-105182267D01*
X121787400Y-104489244D01*
X121915156Y-104361488D01*
X122079500Y-103964726D01*
X122079500Y-103801874D01*
X125780881Y-103801874D01*
X125982632Y-104212763D01*
X126323322Y-104500002D01*
X126748000Y-104635000D01*
X127023000Y-104635000D01*
X127023000Y-103627000D01*
X125907046Y-103627000D01*
X125780881Y-103801874D01*
X122079500Y-103801874D01*
X122079500Y-103535274D01*
X121915156Y-103138512D01*
X121611488Y-102834844D01*
X121530098Y-102801131D01*
X123348771Y-102801131D01*
X123490432Y-103211049D01*
X123778179Y-103535552D01*
X124152062Y-103719268D01*
X124323000Y-103592734D01*
X124323000Y-102627000D01*
X124577000Y-102627000D01*
X124577000Y-103592734D01*
X124747938Y-103719268D01*
X125121821Y-103535552D01*
X125409568Y-103211049D01*
X125414033Y-103198126D01*
X125780881Y-103198126D01*
X125907046Y-103373000D01*
X127023000Y-103373000D01*
X127023000Y-102365000D01*
X126748000Y-102365000D01*
X126323322Y-102499998D01*
X125982632Y-102787237D01*
X125780881Y-103198126D01*
X125414033Y-103198126D01*
X125551229Y-102801131D01*
X125402563Y-102627000D01*
X124577000Y-102627000D01*
X124323000Y-102627000D01*
X123497437Y-102627000D01*
X123348771Y-102801131D01*
X121530098Y-102801131D01*
X121214726Y-102670500D01*
X120785274Y-102670500D01*
X120388512Y-102834844D01*
X120084844Y-103138512D01*
X119920500Y-103535274D01*
X119920500Y-103964726D01*
X120084844Y-104361488D01*
X120212600Y-104489244D01*
X120212601Y-105182266D01*
X120037793Y-105357074D01*
X119865000Y-105774234D01*
X119865000Y-106225766D01*
X120037793Y-106642926D01*
X120357074Y-106962207D01*
X120490344Y-107017409D01*
X120422871Y-107045357D01*
X120119203Y-107349025D01*
X119954859Y-107745787D01*
X119954859Y-108175239D01*
X120119203Y-108572001D01*
X120422871Y-108875669D01*
X120819633Y-109040013D01*
X121249085Y-109040013D01*
X121645847Y-108875669D01*
X121824403Y-108697113D01*
X121878990Y-108697113D01*
X121951530Y-108711542D01*
X122024070Y-108697113D01*
X122024074Y-108697113D01*
X122033337Y-108695270D01*
X122002560Y-108850000D01*
X122002560Y-111393363D01*
X121835723Y-111560200D01*
X119435102Y-111560200D01*
X119347765Y-111501843D01*
X119100000Y-111452560D01*
X117600000Y-111452560D01*
X117352235Y-111501843D01*
X117142191Y-111642191D01*
X117047440Y-111783995D01*
X117047440Y-111150000D01*
X116998157Y-110902235D01*
X116857809Y-110692191D01*
X116647765Y-110551843D01*
X116537400Y-110529890D01*
X116537400Y-110265001D01*
X116747765Y-110223157D01*
X116957809Y-110082809D01*
X116998654Y-110021680D01*
X117140302Y-110163327D01*
X117373691Y-110260000D01*
X117964250Y-110260000D01*
X118123000Y-110101250D01*
X118123000Y-109127000D01*
X118377000Y-109127000D01*
X118377000Y-110101250D01*
X118535750Y-110260000D01*
X119126309Y-110260000D01*
X119359698Y-110163327D01*
X119538327Y-109984699D01*
X119635000Y-109751310D01*
X119635000Y-109285750D01*
X119476250Y-109127000D01*
X118377000Y-109127000D01*
X118123000Y-109127000D01*
X118103000Y-109127000D01*
X118103000Y-108873000D01*
X118123000Y-108873000D01*
X118123000Y-107898750D01*
X118377000Y-107898750D01*
X118377000Y-108873000D01*
X119476250Y-108873000D01*
X119635000Y-108714250D01*
X119635000Y-108248690D01*
X119538327Y-108015301D01*
X119359698Y-107836673D01*
X119126309Y-107740000D01*
X118535750Y-107740000D01*
X118377000Y-107898750D01*
X118123000Y-107898750D01*
X117964250Y-107740000D01*
X117373691Y-107740000D01*
X117140302Y-107836673D01*
X116998654Y-107978320D01*
X116960874Y-107921778D01*
X118351938Y-106530714D01*
X118417684Y-106486784D01*
X118551706Y-106286206D01*
X118591714Y-106226330D01*
X118591714Y-106226329D01*
X118591715Y-106226328D01*
X118637400Y-105996652D01*
X118637400Y-105996651D01*
X118652826Y-105919101D01*
X118637400Y-105841550D01*
X118637400Y-103290001D01*
X118847765Y-103248157D01*
X119057809Y-103107809D01*
X119198157Y-102897765D01*
X119227799Y-102748742D01*
X119263128Y-102741715D01*
X119523584Y-102567684D01*
X119697615Y-102307228D01*
X119758726Y-102000000D01*
X119747191Y-101942008D01*
X119807188Y-101917156D01*
X120059606Y-101664739D01*
X120357074Y-101962207D01*
X120774234Y-102135000D01*
X121225766Y-102135000D01*
X121642926Y-101962207D01*
X121962207Y-101642926D01*
X122135000Y-101225766D01*
X122135000Y-100774234D01*
X122119412Y-100736600D01*
X123127560Y-100736600D01*
X123127560Y-100850000D01*
X123148217Y-100953852D01*
X123140000Y-100973690D01*
X123140000Y-101041250D01*
X123171958Y-101073208D01*
X123176843Y-101097765D01*
X123317191Y-101307809D01*
X123455164Y-101400000D01*
X123298750Y-101400000D01*
X123140000Y-101558750D01*
X123140000Y-101626310D01*
X123236673Y-101859699D01*
X123407090Y-102030115D01*
X123348771Y-102198869D01*
X123497437Y-102373000D01*
X124323000Y-102373000D01*
X124323000Y-102353000D01*
X124577000Y-102353000D01*
X124577000Y-102373000D01*
X125402563Y-102373000D01*
X125551229Y-102198869D01*
X125492910Y-102030115D01*
X125663327Y-101859699D01*
X125760000Y-101626310D01*
X125760000Y-101558750D01*
X125601250Y-101400000D01*
X125444836Y-101400000D01*
X125582809Y-101307809D01*
X125723157Y-101097765D01*
X125728042Y-101073208D01*
X125760000Y-101041250D01*
X125760000Y-100973690D01*
X125751783Y-100953852D01*
X125772440Y-100850000D01*
X125772440Y-100450000D01*
X125747576Y-100325000D01*
X125772440Y-100200000D01*
X125772440Y-99800000D01*
X125747576Y-99675000D01*
X125772440Y-99550000D01*
X125772440Y-99150000D01*
X125747576Y-99025000D01*
X125772440Y-98900000D01*
X125772440Y-98500000D01*
X125723157Y-98252235D01*
X125582809Y-98042191D01*
X125489475Y-97979827D01*
X125551229Y-97801131D01*
X125402563Y-97627000D01*
X124577000Y-97627000D01*
X124577000Y-97647000D01*
X124323000Y-97647000D01*
X124323000Y-97627000D01*
X124303000Y-97627000D01*
X124303000Y-97373000D01*
X124323000Y-97373000D01*
X124323000Y-96407266D01*
X124577000Y-96407266D01*
X124577000Y-97373000D01*
X125402563Y-97373000D01*
X125551229Y-97198869D01*
X125414034Y-96801874D01*
X125780881Y-96801874D01*
X125982632Y-97212763D01*
X126323322Y-97500002D01*
X126748000Y-97635000D01*
X127023000Y-97635000D01*
X127023000Y-96627000D01*
X125907046Y-96627000D01*
X125780881Y-96801874D01*
X125414034Y-96801874D01*
X125409568Y-96788951D01*
X125121821Y-96464448D01*
X124747938Y-96280732D01*
X124577000Y-96407266D01*
X124323000Y-96407266D01*
X124152062Y-96280732D01*
X123778179Y-96464448D01*
X123490432Y-96788951D01*
X123411749Y-97016633D01*
X123163571Y-96768455D01*
X122682789Y-96569308D01*
X122162395Y-96569308D01*
X122066560Y-96609004D01*
X121962207Y-96357074D01*
X121642926Y-96037793D01*
X121225766Y-95865000D01*
X120774234Y-95865000D01*
X120357074Y-96037793D01*
X120037793Y-96357074D01*
X119865000Y-96774234D01*
X119865000Y-97225766D01*
X120037793Y-97642926D01*
X120263401Y-97868534D01*
X120263401Y-98246454D01*
X120248971Y-98318999D01*
X120306139Y-98606405D01*
X120330115Y-98642288D01*
X120155014Y-98714817D01*
X119851346Y-99018485D01*
X119687002Y-99415247D01*
X119687002Y-99844699D01*
X119783183Y-100076901D01*
X119410426Y-99922500D01*
X119135000Y-99922500D01*
X119135000Y-99785750D01*
X118976250Y-99627000D01*
X117877000Y-99627000D01*
X117877000Y-99647000D01*
X117623000Y-99647000D01*
X117623000Y-99627000D01*
X117603000Y-99627000D01*
X117603000Y-99373000D01*
X117623000Y-99373000D01*
X117623000Y-98398750D01*
X117474250Y-98250000D01*
X117623000Y-98101250D01*
X117623000Y-97127000D01*
X117603000Y-97127000D01*
X117603000Y-96873000D01*
X117623000Y-96873000D01*
X117623000Y-96853000D01*
X117877000Y-96853000D01*
X117877000Y-96873000D01*
X117897000Y-96873000D01*
X117897000Y-97127000D01*
X117877000Y-97127000D01*
X117877000Y-97909825D01*
X117876400Y-97911274D01*
X117876400Y-98340726D01*
X117893571Y-98382179D01*
X117877000Y-98398750D01*
X117877000Y-99373000D01*
X118976250Y-99373000D01*
X119135000Y-99214250D01*
X119135000Y-99205500D01*
X119170626Y-99205500D01*
X119567388Y-99041156D01*
X119871056Y-98737488D01*
X120035400Y-98340726D01*
X120035400Y-97911274D01*
X119871056Y-97514512D01*
X119743300Y-97386756D01*
X119743300Y-95405140D01*
X119890288Y-95344256D01*
X120193956Y-95040588D01*
X120358300Y-94643826D01*
X120358300Y-94214374D01*
X120193956Y-93817612D01*
X119890288Y-93513944D01*
X119493526Y-93349600D01*
X119064074Y-93349600D01*
X119020858Y-93367501D01*
X118847765Y-93251843D01*
X118819791Y-93246279D01*
X118959698Y-93188327D01*
X119138327Y-93009699D01*
X119235000Y-92776310D01*
X119235000Y-92629500D01*
X119337791Y-92629500D01*
X122602951Y-95894661D01*
G36*
X106477590Y-100596800D02*
X106375074Y-100596800D01*
X105978312Y-100761144D01*
X105674644Y-101064812D01*
X105510300Y-101461574D01*
X105510300Y-101891026D01*
X105674644Y-102287788D01*
X105978312Y-102591456D01*
X106375074Y-102755800D01*
X106627590Y-102755800D01*
X106846350Y-102974560D01*
X106887442Y-103036058D01*
X106948939Y-103077149D01*
X106948941Y-103077151D01*
X107105965Y-103182071D01*
X107131093Y-103198861D01*
X107212481Y-103215050D01*
X107169242Y-103243942D01*
X107128426Y-103305026D01*
X107067342Y-103345842D01*
X107026249Y-103407342D01*
X106963043Y-103501936D01*
X106904539Y-103589494D01*
X106861800Y-103804357D01*
X106861800Y-103804360D01*
X106847371Y-103876900D01*
X106861800Y-103949440D01*
X106861800Y-104165132D01*
X103602479Y-107424454D01*
X103459698Y-107281673D01*
X103226309Y-107185000D01*
X102235750Y-107185000D01*
X102077000Y-107343750D01*
X102077000Y-107988201D01*
X101823000Y-107988201D01*
X101823000Y-107343750D01*
X101664250Y-107185000D01*
X101026709Y-107185000D01*
X102265270Y-105946440D01*
X102696500Y-105946440D01*
X102944265Y-105897157D01*
X103154309Y-105756809D01*
X103294657Y-105546765D01*
X103343940Y-105299000D01*
X103343940Y-104791000D01*
X103294657Y-104543235D01*
X103205632Y-104410000D01*
X103294657Y-104276765D01*
X103343940Y-104029000D01*
X103343940Y-103521000D01*
X103294657Y-103273235D01*
X103205632Y-103140000D01*
X103294657Y-103006765D01*
X103343940Y-102759000D01*
X103343940Y-102251000D01*
X103294657Y-102003235D01*
X103205632Y-101870000D01*
X103294657Y-101736765D01*
X103343940Y-101489000D01*
X103343940Y-100981000D01*
X103294657Y-100733235D01*
X103205632Y-100600000D01*
X103294657Y-100466765D01*
X103343940Y-100219000D01*
X103343940Y-99711000D01*
X103294657Y-99463235D01*
X103205632Y-99330000D01*
X103294657Y-99196765D01*
X103343940Y-98949000D01*
X103343940Y-98441000D01*
X103294657Y-98193235D01*
X103205632Y-98060000D01*
X103294657Y-97926765D01*
X103343940Y-97679000D01*
X103343940Y-97463149D01*
X106477590Y-100596800D01*
X106477590Y-100596800D01*
G37*
X106477590Y-100596800D02*
X106375074Y-100596800D01*
X105978312Y-100761144D01*
X105674644Y-101064812D01*
X105510300Y-101461574D01*
X105510300Y-101891026D01*
X105674644Y-102287788D01*
X105978312Y-102591456D01*
X106375074Y-102755800D01*
X106627590Y-102755800D01*
X106846350Y-102974560D01*
X106887442Y-103036058D01*
X106948939Y-103077149D01*
X106948941Y-103077151D01*
X107105965Y-103182071D01*
X107131093Y-103198861D01*
X107212481Y-103215050D01*
X107169242Y-103243942D01*
X107128426Y-103305026D01*
X107067342Y-103345842D01*
X107026249Y-103407342D01*
X106963043Y-103501936D01*
X106904539Y-103589494D01*
X106861800Y-103804357D01*
X106861800Y-103804360D01*
X106847371Y-103876900D01*
X106861800Y-103949440D01*
X106861800Y-104165132D01*
X103602479Y-107424454D01*
X103459698Y-107281673D01*
X103226309Y-107185000D01*
X102235750Y-107185000D01*
X102077000Y-107343750D01*
X102077000Y-107988201D01*
X101823000Y-107988201D01*
X101823000Y-107343750D01*
X101664250Y-107185000D01*
X101026709Y-107185000D01*
X102265270Y-105946440D01*
X102696500Y-105946440D01*
X102944265Y-105897157D01*
X103154309Y-105756809D01*
X103294657Y-105546765D01*
X103343940Y-105299000D01*
X103343940Y-104791000D01*
X103294657Y-104543235D01*
X103205632Y-104410000D01*
X103294657Y-104276765D01*
X103343940Y-104029000D01*
X103343940Y-103521000D01*
X103294657Y-103273235D01*
X103205632Y-103140000D01*
X103294657Y-103006765D01*
X103343940Y-102759000D01*
X103343940Y-102251000D01*
X103294657Y-102003235D01*
X103205632Y-101870000D01*
X103294657Y-101736765D01*
X103343940Y-101489000D01*
X103343940Y-100981000D01*
X103294657Y-100733235D01*
X103205632Y-100600000D01*
X103294657Y-100466765D01*
X103343940Y-100219000D01*
X103343940Y-99711000D01*
X103294657Y-99463235D01*
X103205632Y-99330000D01*
X103294657Y-99196765D01*
X103343940Y-98949000D01*
X103343940Y-98441000D01*
X103294657Y-98193235D01*
X103205632Y-98060000D01*
X103294657Y-97926765D01*
X103343940Y-97679000D01*
X103343940Y-97463149D01*
X106477590Y-100596800D01*
G36*
X90365499Y-95157609D02*
X90351356Y-95171751D01*
X90365499Y-95185894D01*
X90185894Y-95365499D01*
X90171751Y-95351356D01*
X89659629Y-95863478D01*
X89659629Y-95944961D01*
X85061191Y-100543400D01*
X84336151Y-100543400D01*
X84357175Y-100511935D01*
X88611613Y-96257498D01*
X88611615Y-96257495D01*
X89220377Y-95648733D01*
X89255517Y-95683873D01*
X89480024Y-95683873D01*
X89992146Y-95171751D01*
X89978004Y-95157609D01*
X90157609Y-94978004D01*
X90171751Y-94992146D01*
X90185894Y-94978004D01*
X90365499Y-95157609D01*
X90365499Y-95157609D01*
G37*
X90365499Y-95157609D02*
X90351356Y-95171751D01*
X90365499Y-95185894D01*
X90185894Y-95365499D01*
X90171751Y-95351356D01*
X89659629Y-95863478D01*
X89659629Y-95944961D01*
X85061191Y-100543400D01*
X84336151Y-100543400D01*
X84357175Y-100511935D01*
X88611613Y-96257498D01*
X88611615Y-96257495D01*
X89220377Y-95648733D01*
X89255517Y-95683873D01*
X89480024Y-95683873D01*
X89992146Y-95171751D01*
X89978004Y-95157609D01*
X90157609Y-94978004D01*
X90171751Y-94992146D01*
X90185894Y-94978004D01*
X90365499Y-95157609D01*
G36*
X87499375Y-72640625D02*
X87833400Y-72863814D01*
X87833401Y-75769914D01*
X87614113Y-75989202D01*
X87449769Y-76385964D01*
X87449769Y-76807899D01*
X86697450Y-76807899D01*
X86565156Y-76488512D01*
X86261488Y-76184844D01*
X85864726Y-76020500D01*
X85435274Y-76020500D01*
X85038512Y-76184844D01*
X84734844Y-76488512D01*
X84638266Y-76721672D01*
X84514726Y-76670500D01*
X84085274Y-76670500D01*
X83688512Y-76834844D01*
X83384844Y-77138512D01*
X83220500Y-77535274D01*
X83220500Y-77807217D01*
X83097758Y-77684475D01*
X82887714Y-77544127D01*
X82639949Y-77494844D01*
X82392184Y-77544127D01*
X82182140Y-77684475D01*
X81828587Y-78038028D01*
X81688239Y-78248072D01*
X81666808Y-78355812D01*
X81665111Y-78355812D01*
X81431722Y-78452485D01*
X81366273Y-78517934D01*
X81366273Y-78742441D01*
X82497114Y-79873281D01*
X82512671Y-79857725D01*
X82692276Y-80037330D01*
X82676719Y-80052886D01*
X82690861Y-80067029D01*
X82514085Y-80243806D01*
X82499942Y-80229663D01*
X82484386Y-80245220D01*
X82304781Y-80065615D01*
X82320337Y-80050058D01*
X81189497Y-78919217D01*
X80964990Y-78919217D01*
X80899541Y-78984666D01*
X80802868Y-79218055D01*
X80802868Y-79219752D01*
X80695128Y-79241183D01*
X80485084Y-79381531D01*
X80131531Y-79735084D01*
X79991183Y-79945128D01*
X79941900Y-80192893D01*
X79991183Y-80440658D01*
X80131531Y-80650702D01*
X81256497Y-81775668D01*
X81186621Y-81789567D01*
X80976577Y-81929915D01*
X80676220Y-82230272D01*
X79898710Y-81452762D01*
X79688666Y-81312414D01*
X79580927Y-81290984D01*
X79580927Y-81289287D01*
X79484254Y-81055898D01*
X79172732Y-80744376D01*
X78948225Y-80744376D01*
X78436103Y-81256498D01*
X78450246Y-81270641D01*
X78270641Y-81450246D01*
X78256498Y-81436103D01*
X77876474Y-81816127D01*
X77819976Y-81816127D01*
X77307854Y-82328249D01*
X77321997Y-82342392D01*
X77142392Y-82521997D01*
X77128249Y-82507854D01*
X76616127Y-83019976D01*
X76616127Y-83244483D01*
X76927649Y-83556005D01*
X77161038Y-83652678D01*
X77162735Y-83652678D01*
X77184165Y-83760417D01*
X77324513Y-83970461D01*
X78130272Y-84776220D01*
X78035012Y-84871480D01*
X77894664Y-85081524D01*
X77845381Y-85329289D01*
X77894664Y-85577054D01*
X78035012Y-85787098D01*
X79307805Y-87059891D01*
X79517849Y-87200239D01*
X79765614Y-87249522D01*
X80013379Y-87200239D01*
X80223423Y-87059891D01*
X81146714Y-86136600D01*
X81327460Y-86136600D01*
X81400000Y-86151029D01*
X81425504Y-86145956D01*
X81373041Y-86181011D01*
X80524513Y-87029539D01*
X80384165Y-87239583D01*
X80362735Y-87347322D01*
X80361038Y-87347322D01*
X80127649Y-87443995D01*
X79816127Y-87755517D01*
X79816127Y-87980024D01*
X80328249Y-88492146D01*
X80342392Y-88478004D01*
X80521997Y-88657609D01*
X80507854Y-88671751D01*
X81019976Y-89183873D01*
X81244483Y-89183873D01*
X81556005Y-88872351D01*
X81652678Y-88638962D01*
X81652678Y-88637265D01*
X81760417Y-88615835D01*
X81842660Y-88560882D01*
X81881472Y-88586815D01*
X82102811Y-88630842D01*
X82089640Y-88697056D01*
X82138923Y-88944821D01*
X82279271Y-89154865D01*
X82456048Y-89331642D01*
X82544089Y-89390469D01*
X82552306Y-89410308D01*
X82573562Y-89431564D01*
X82573561Y-89431564D01*
X82589220Y-89447223D01*
X82574139Y-89469794D01*
X82554635Y-89567850D01*
X82531400Y-89684656D01*
X82531400Y-89684660D01*
X82529290Y-89695266D01*
X82352844Y-89871712D01*
X82188500Y-90268474D01*
X82188500Y-90697926D01*
X82352844Y-91094688D01*
X82656512Y-91398356D01*
X82661847Y-91400566D01*
X82642716Y-91496741D01*
X82642716Y-91496744D01*
X82628287Y-91569284D01*
X82642716Y-91641824D01*
X82642717Y-94715000D01*
X82015750Y-94715000D01*
X81857000Y-94873750D01*
X81857000Y-96073000D01*
X81877000Y-96073000D01*
X81877000Y-96327000D01*
X81857000Y-96327000D01*
X81857000Y-96347000D01*
X81603000Y-96347000D01*
X81603000Y-96327000D01*
X80103750Y-96327000D01*
X79945000Y-96485750D01*
X79945000Y-97176310D01*
X80038984Y-97403206D01*
X79184417Y-98257773D01*
X78911488Y-97984844D01*
X78514726Y-97820500D01*
X78262209Y-97820500D01*
X75942101Y-95500392D01*
X75942101Y-95223690D01*
X79945000Y-95223690D01*
X79945000Y-95914250D01*
X80103750Y-96073000D01*
X81603000Y-96073000D01*
X81603000Y-94873750D01*
X81444250Y-94715000D01*
X80453691Y-94715000D01*
X80220302Y-94811673D01*
X80041673Y-94990301D01*
X79945000Y-95223690D01*
X75942101Y-95223690D01*
X75942101Y-94692234D01*
X76192074Y-94942207D01*
X76609234Y-95115000D01*
X77060766Y-95115000D01*
X77477926Y-94942207D01*
X77797207Y-94622926D01*
X77970000Y-94205766D01*
X77970000Y-93754234D01*
X77828672Y-93413037D01*
X79662210Y-91579500D01*
X79914726Y-91579500D01*
X80118853Y-91494948D01*
X80118852Y-92194439D01*
X80085444Y-92227847D01*
X80085441Y-92227849D01*
X79468290Y-92845000D01*
X79149234Y-92845000D01*
X78732074Y-93017793D01*
X78412793Y-93337074D01*
X78240000Y-93754234D01*
X78240000Y-94205766D01*
X78412793Y-94622926D01*
X78732074Y-94942207D01*
X79149234Y-95115000D01*
X79600766Y-95115000D01*
X80017926Y-94942207D01*
X80337207Y-94622926D01*
X80510000Y-94205766D01*
X80510000Y-93886710D01*
X81127151Y-93269559D01*
X81127154Y-93269555D01*
X81153184Y-93243525D01*
X81363001Y-93103329D01*
X81525804Y-92859678D01*
X81536436Y-92806226D01*
X81549313Y-92786955D01*
X81592052Y-92572092D01*
X81592052Y-92572089D01*
X81606481Y-92499549D01*
X81592052Y-92427008D01*
X81592052Y-91385292D01*
X81770608Y-91206736D01*
X81934952Y-90809974D01*
X81934952Y-90380522D01*
X81770608Y-89983760D01*
X81466940Y-89680092D01*
X81070178Y-89515748D01*
X80840371Y-89515748D01*
X80840371Y-89363478D01*
X80328249Y-88851356D01*
X80314107Y-88865499D01*
X80134502Y-88685894D01*
X80148644Y-88671751D01*
X79636522Y-88159629D01*
X79412015Y-88159629D01*
X79100493Y-88471151D01*
X79003820Y-88704540D01*
X79003820Y-88957159D01*
X79100492Y-89190548D01*
X79252916Y-89342972D01*
X79477420Y-89342972D01*
X79365168Y-89455224D01*
X79375793Y-89465849D01*
X79088512Y-89584844D01*
X78796249Y-89877107D01*
X78692375Y-89626332D01*
X78513819Y-89447776D01*
X78513819Y-87374759D01*
X78528248Y-87302219D01*
X78513819Y-87229676D01*
X78513819Y-87229675D01*
X78471080Y-87014812D01*
X78453305Y-86988210D01*
X78349370Y-86832660D01*
X78349368Y-86832658D01*
X78308277Y-86771161D01*
X78246780Y-86730070D01*
X77970000Y-86453290D01*
X77970000Y-86134234D01*
X77797207Y-85717074D01*
X77477926Y-85397793D01*
X77060766Y-85225000D01*
X76609234Y-85225000D01*
X76225412Y-85383984D01*
X76165156Y-85238512D01*
X75861488Y-84934844D01*
X75464726Y-84770500D01*
X75035274Y-84770500D01*
X74638512Y-84934844D01*
X74334844Y-85238512D01*
X74170500Y-85635274D01*
X74170500Y-85919002D01*
X74111640Y-86007092D01*
X74090077Y-86115496D01*
X73880871Y-86324702D01*
X73819374Y-86365793D01*
X73778283Y-86427290D01*
X73778280Y-86427293D01*
X73656570Y-86609445D01*
X73629387Y-86746103D01*
X73605567Y-86710453D01*
X73527100Y-86658023D01*
X73053396Y-86184319D01*
X73084092Y-86030000D01*
X73053396Y-85875681D01*
X73899092Y-85029986D01*
X73977557Y-84977557D01*
X74044376Y-84877557D01*
X74185271Y-84666693D01*
X74185271Y-84666692D01*
X74185272Y-84666691D01*
X74239800Y-84392559D01*
X74239800Y-84392551D01*
X74258209Y-84300001D01*
X74239800Y-84207451D01*
X74239800Y-82042841D01*
X75803820Y-82042841D01*
X75803820Y-82295460D01*
X75900493Y-82528849D01*
X76212015Y-82840371D01*
X76436522Y-82840371D01*
X76948644Y-82328249D01*
X76277423Y-81657028D01*
X76052916Y-81657028D01*
X75900492Y-81809452D01*
X75803820Y-82042841D01*
X74239800Y-82042841D01*
X74239800Y-81789277D01*
X74789278Y-81239800D01*
X76470144Y-81239800D01*
X76457028Y-81252916D01*
X76457028Y-81477423D01*
X77128249Y-82148644D01*
X77508273Y-81768620D01*
X77564771Y-81768620D01*
X78076893Y-81256498D01*
X78062751Y-81242356D01*
X78242356Y-81062751D01*
X78256498Y-81076893D01*
X78768620Y-80564771D01*
X78768620Y-80340264D01*
X78749222Y-80320866D01*
X78750436Y-80319653D01*
X78750465Y-80319609D01*
X81499097Y-77570883D01*
X81577557Y-77518457D01*
X81629992Y-77439983D01*
X81629998Y-77439977D01*
X81695269Y-77342289D01*
X81785272Y-77207591D01*
X81785273Y-77207584D01*
X81785278Y-77207577D01*
X81816775Y-77049212D01*
X81839800Y-76933459D01*
X81839800Y-76933447D01*
X81858210Y-76840884D01*
X81839800Y-76748338D01*
X81839800Y-75689277D01*
X83189278Y-74339800D01*
X85567046Y-74339800D01*
X85659600Y-74358210D01*
X85752154Y-74339800D01*
X85752159Y-74339800D01*
X86026291Y-74285272D01*
X86228309Y-74150287D01*
X86258689Y-74129988D01*
X86337157Y-74077557D01*
X86389588Y-73999089D01*
X86629089Y-73759588D01*
X86707557Y-73707157D01*
X86915272Y-73396291D01*
X86969800Y-73122159D01*
X86969800Y-73122154D01*
X86988210Y-73029600D01*
X86969800Y-72937046D01*
X86969800Y-72728039D01*
X87100625Y-72640625D01*
X87300000Y-72342239D01*
X87499375Y-72640625D01*
X87499375Y-72640625D01*
G37*
X87499375Y-72640625D02*
X87833400Y-72863814D01*
X87833401Y-75769914D01*
X87614113Y-75989202D01*
X87449769Y-76385964D01*
X87449769Y-76807899D01*
X86697450Y-76807899D01*
X86565156Y-76488512D01*
X86261488Y-76184844D01*
X85864726Y-76020500D01*
X85435274Y-76020500D01*
X85038512Y-76184844D01*
X84734844Y-76488512D01*
X84638266Y-76721672D01*
X84514726Y-76670500D01*
X84085274Y-76670500D01*
X83688512Y-76834844D01*
X83384844Y-77138512D01*
X83220500Y-77535274D01*
X83220500Y-77807217D01*
X83097758Y-77684475D01*
X82887714Y-77544127D01*
X82639949Y-77494844D01*
X82392184Y-77544127D01*
X82182140Y-77684475D01*
X81828587Y-78038028D01*
X81688239Y-78248072D01*
X81666808Y-78355812D01*
X81665111Y-78355812D01*
X81431722Y-78452485D01*
X81366273Y-78517934D01*
X81366273Y-78742441D01*
X82497114Y-79873281D01*
X82512671Y-79857725D01*
X82692276Y-80037330D01*
X82676719Y-80052886D01*
X82690861Y-80067029D01*
X82514085Y-80243806D01*
X82499942Y-80229663D01*
X82484386Y-80245220D01*
X82304781Y-80065615D01*
X82320337Y-80050058D01*
X81189497Y-78919217D01*
X80964990Y-78919217D01*
X80899541Y-78984666D01*
X80802868Y-79218055D01*
X80802868Y-79219752D01*
X80695128Y-79241183D01*
X80485084Y-79381531D01*
X80131531Y-79735084D01*
X79991183Y-79945128D01*
X79941900Y-80192893D01*
X79991183Y-80440658D01*
X80131531Y-80650702D01*
X81256497Y-81775668D01*
X81186621Y-81789567D01*
X80976577Y-81929915D01*
X80676220Y-82230272D01*
X79898710Y-81452762D01*
X79688666Y-81312414D01*
X79580927Y-81290984D01*
X79580927Y-81289287D01*
X79484254Y-81055898D01*
X79172732Y-80744376D01*
X78948225Y-80744376D01*
X78436103Y-81256498D01*
X78450246Y-81270641D01*
X78270641Y-81450246D01*
X78256498Y-81436103D01*
X77876474Y-81816127D01*
X77819976Y-81816127D01*
X77307854Y-82328249D01*
X77321997Y-82342392D01*
X77142392Y-82521997D01*
X77128249Y-82507854D01*
X76616127Y-83019976D01*
X76616127Y-83244483D01*
X76927649Y-83556005D01*
X77161038Y-83652678D01*
X77162735Y-83652678D01*
X77184165Y-83760417D01*
X77324513Y-83970461D01*
X78130272Y-84776220D01*
X78035012Y-84871480D01*
X77894664Y-85081524D01*
X77845381Y-85329289D01*
X77894664Y-85577054D01*
X78035012Y-85787098D01*
X79307805Y-87059891D01*
X79517849Y-87200239D01*
X79765614Y-87249522D01*
X80013379Y-87200239D01*
X80223423Y-87059891D01*
X81146714Y-86136600D01*
X81327460Y-86136600D01*
X81400000Y-86151029D01*
X81425504Y-86145956D01*
X81373041Y-86181011D01*
X80524513Y-87029539D01*
X80384165Y-87239583D01*
X80362735Y-87347322D01*
X80361038Y-87347322D01*
X80127649Y-87443995D01*
X79816127Y-87755517D01*
X79816127Y-87980024D01*
X80328249Y-88492146D01*
X80342392Y-88478004D01*
X80521997Y-88657609D01*
X80507854Y-88671751D01*
X81019976Y-89183873D01*
X81244483Y-89183873D01*
X81556005Y-88872351D01*
X81652678Y-88638962D01*
X81652678Y-88637265D01*
X81760417Y-88615835D01*
X81842660Y-88560882D01*
X81881472Y-88586815D01*
X82102811Y-88630842D01*
X82089640Y-88697056D01*
X82138923Y-88944821D01*
X82279271Y-89154865D01*
X82456048Y-89331642D01*
X82544089Y-89390469D01*
X82552306Y-89410308D01*
X82573562Y-89431564D01*
X82573561Y-89431564D01*
X82589220Y-89447223D01*
X82574139Y-89469794D01*
X82554635Y-89567850D01*
X82531400Y-89684656D01*
X82531400Y-89684660D01*
X82529290Y-89695266D01*
X82352844Y-89871712D01*
X82188500Y-90268474D01*
X82188500Y-90697926D01*
X82352844Y-91094688D01*
X82656512Y-91398356D01*
X82661847Y-91400566D01*
X82642716Y-91496741D01*
X82642716Y-91496744D01*
X82628287Y-91569284D01*
X82642716Y-91641824D01*
X82642717Y-94715000D01*
X82015750Y-94715000D01*
X81857000Y-94873750D01*
X81857000Y-96073000D01*
X81877000Y-96073000D01*
X81877000Y-96327000D01*
X81857000Y-96327000D01*
X81857000Y-96347000D01*
X81603000Y-96347000D01*
X81603000Y-96327000D01*
X80103750Y-96327000D01*
X79945000Y-96485750D01*
X79945000Y-97176310D01*
X80038984Y-97403206D01*
X79184417Y-98257773D01*
X78911488Y-97984844D01*
X78514726Y-97820500D01*
X78262209Y-97820500D01*
X75942101Y-95500392D01*
X75942101Y-95223690D01*
X79945000Y-95223690D01*
X79945000Y-95914250D01*
X80103750Y-96073000D01*
X81603000Y-96073000D01*
X81603000Y-94873750D01*
X81444250Y-94715000D01*
X80453691Y-94715000D01*
X80220302Y-94811673D01*
X80041673Y-94990301D01*
X79945000Y-95223690D01*
X75942101Y-95223690D01*
X75942101Y-94692234D01*
X76192074Y-94942207D01*
X76609234Y-95115000D01*
X77060766Y-95115000D01*
X77477926Y-94942207D01*
X77797207Y-94622926D01*
X77970000Y-94205766D01*
X77970000Y-93754234D01*
X77828672Y-93413037D01*
X79662210Y-91579500D01*
X79914726Y-91579500D01*
X80118853Y-91494948D01*
X80118852Y-92194439D01*
X80085444Y-92227847D01*
X80085441Y-92227849D01*
X79468290Y-92845000D01*
X79149234Y-92845000D01*
X78732074Y-93017793D01*
X78412793Y-93337074D01*
X78240000Y-93754234D01*
X78240000Y-94205766D01*
X78412793Y-94622926D01*
X78732074Y-94942207D01*
X79149234Y-95115000D01*
X79600766Y-95115000D01*
X80017926Y-94942207D01*
X80337207Y-94622926D01*
X80510000Y-94205766D01*
X80510000Y-93886710D01*
X81127151Y-93269559D01*
X81127154Y-93269555D01*
X81153184Y-93243525D01*
X81363001Y-93103329D01*
X81525804Y-92859678D01*
X81536436Y-92806226D01*
X81549313Y-92786955D01*
X81592052Y-92572092D01*
X81592052Y-92572089D01*
X81606481Y-92499549D01*
X81592052Y-92427008D01*
X81592052Y-91385292D01*
X81770608Y-91206736D01*
X81934952Y-90809974D01*
X81934952Y-90380522D01*
X81770608Y-89983760D01*
X81466940Y-89680092D01*
X81070178Y-89515748D01*
X80840371Y-89515748D01*
X80840371Y-89363478D01*
X80328249Y-88851356D01*
X80314107Y-88865499D01*
X80134502Y-88685894D01*
X80148644Y-88671751D01*
X79636522Y-88159629D01*
X79412015Y-88159629D01*
X79100493Y-88471151D01*
X79003820Y-88704540D01*
X79003820Y-88957159D01*
X79100492Y-89190548D01*
X79252916Y-89342972D01*
X79477420Y-89342972D01*
X79365168Y-89455224D01*
X79375793Y-89465849D01*
X79088512Y-89584844D01*
X78796249Y-89877107D01*
X78692375Y-89626332D01*
X78513819Y-89447776D01*
X78513819Y-87374759D01*
X78528248Y-87302219D01*
X78513819Y-87229676D01*
X78513819Y-87229675D01*
X78471080Y-87014812D01*
X78453305Y-86988210D01*
X78349370Y-86832660D01*
X78349368Y-86832658D01*
X78308277Y-86771161D01*
X78246780Y-86730070D01*
X77970000Y-86453290D01*
X77970000Y-86134234D01*
X77797207Y-85717074D01*
X77477926Y-85397793D01*
X77060766Y-85225000D01*
X76609234Y-85225000D01*
X76225412Y-85383984D01*
X76165156Y-85238512D01*
X75861488Y-84934844D01*
X75464726Y-84770500D01*
X75035274Y-84770500D01*
X74638512Y-84934844D01*
X74334844Y-85238512D01*
X74170500Y-85635274D01*
X74170500Y-85919002D01*
X74111640Y-86007092D01*
X74090077Y-86115496D01*
X73880871Y-86324702D01*
X73819374Y-86365793D01*
X73778283Y-86427290D01*
X73778280Y-86427293D01*
X73656570Y-86609445D01*
X73629387Y-86746103D01*
X73605567Y-86710453D01*
X73527100Y-86658023D01*
X73053396Y-86184319D01*
X73084092Y-86030000D01*
X73053396Y-85875681D01*
X73899092Y-85029986D01*
X73977557Y-84977557D01*
X74044376Y-84877557D01*
X74185271Y-84666693D01*
X74185271Y-84666692D01*
X74185272Y-84666691D01*
X74239800Y-84392559D01*
X74239800Y-84392551D01*
X74258209Y-84300001D01*
X74239800Y-84207451D01*
X74239800Y-82042841D01*
X75803820Y-82042841D01*
X75803820Y-82295460D01*
X75900493Y-82528849D01*
X76212015Y-82840371D01*
X76436522Y-82840371D01*
X76948644Y-82328249D01*
X76277423Y-81657028D01*
X76052916Y-81657028D01*
X75900492Y-81809452D01*
X75803820Y-82042841D01*
X74239800Y-82042841D01*
X74239800Y-81789277D01*
X74789278Y-81239800D01*
X76470144Y-81239800D01*
X76457028Y-81252916D01*
X76457028Y-81477423D01*
X77128249Y-82148644D01*
X77508273Y-81768620D01*
X77564771Y-81768620D01*
X78076893Y-81256498D01*
X78062751Y-81242356D01*
X78242356Y-81062751D01*
X78256498Y-81076893D01*
X78768620Y-80564771D01*
X78768620Y-80340264D01*
X78749222Y-80320866D01*
X78750436Y-80319653D01*
X78750465Y-80319609D01*
X81499097Y-77570883D01*
X81577557Y-77518457D01*
X81629992Y-77439983D01*
X81629998Y-77439977D01*
X81695269Y-77342289D01*
X81785272Y-77207591D01*
X81785273Y-77207584D01*
X81785278Y-77207577D01*
X81816775Y-77049212D01*
X81839800Y-76933459D01*
X81839800Y-76933447D01*
X81858210Y-76840884D01*
X81839800Y-76748338D01*
X81839800Y-75689277D01*
X83189278Y-74339800D01*
X85567046Y-74339800D01*
X85659600Y-74358210D01*
X85752154Y-74339800D01*
X85752159Y-74339800D01*
X86026291Y-74285272D01*
X86228309Y-74150287D01*
X86258689Y-74129988D01*
X86337157Y-74077557D01*
X86389588Y-73999089D01*
X86629089Y-73759588D01*
X86707557Y-73707157D01*
X86915272Y-73396291D01*
X86969800Y-73122159D01*
X86969800Y-73122154D01*
X86988210Y-73029600D01*
X86969800Y-72937046D01*
X86969800Y-72728039D01*
X87100625Y-72640625D01*
X87300000Y-72342239D01*
X87499375Y-72640625D01*
G36*
X100500142Y-92430558D02*
X100561639Y-92471649D01*
X100561641Y-92471651D01*
X100742187Y-92592288D01*
X100743793Y-92593361D01*
X100958656Y-92636100D01*
X100958659Y-92636100D01*
X101031200Y-92650529D01*
X101103740Y-92636100D01*
X102072000Y-92636100D01*
X102072000Y-92722000D01*
X102052000Y-92722000D01*
X102052000Y-93325250D01*
X102210750Y-93484000D01*
X102575801Y-93484000D01*
X102575800Y-94628935D01*
X102536539Y-94687693D01*
X102493800Y-94902556D01*
X102493800Y-94902560D01*
X102479371Y-94975100D01*
X102493800Y-95047640D01*
X102493800Y-95266000D01*
X102410750Y-95266000D01*
X102252000Y-95424750D01*
X102252000Y-96028000D01*
X102272000Y-96028000D01*
X102272000Y-96282000D01*
X102252000Y-96282000D01*
X102252000Y-96302000D01*
X101998000Y-96302000D01*
X101998000Y-96282000D01*
X101077250Y-96282000D01*
X100918500Y-96440750D01*
X100918500Y-96535309D01*
X101015173Y-96768698D01*
X101041207Y-96794732D01*
X100955343Y-96923235D01*
X100906060Y-97171000D01*
X100906060Y-97284730D01*
X100467946Y-97722844D01*
X100467946Y-95774691D01*
X100918500Y-95774691D01*
X100918500Y-95869250D01*
X101077250Y-96028000D01*
X101998000Y-96028000D01*
X101998000Y-95424750D01*
X101839250Y-95266000D01*
X101427190Y-95266000D01*
X101193801Y-95362673D01*
X101015173Y-95541302D01*
X100918500Y-95774691D01*
X100467946Y-95774691D01*
X100467946Y-92880750D01*
X100718500Y-92880750D01*
X100718500Y-92975309D01*
X100815173Y-93208698D01*
X100993801Y-93387327D01*
X101227190Y-93484000D01*
X101639250Y-93484000D01*
X101798000Y-93325250D01*
X101798000Y-92722000D01*
X100877250Y-92722000D01*
X100718500Y-92880750D01*
X100467946Y-92880750D01*
X100467946Y-92382373D01*
X100500142Y-92430558D01*
X100500142Y-92430558D01*
G37*
X100500142Y-92430558D02*
X100561639Y-92471649D01*
X100561641Y-92471651D01*
X100742187Y-92592288D01*
X100743793Y-92593361D01*
X100958656Y-92636100D01*
X100958659Y-92636100D01*
X101031200Y-92650529D01*
X101103740Y-92636100D01*
X102072000Y-92636100D01*
X102072000Y-92722000D01*
X102052000Y-92722000D01*
X102052000Y-93325250D01*
X102210750Y-93484000D01*
X102575801Y-93484000D01*
X102575800Y-94628935D01*
X102536539Y-94687693D01*
X102493800Y-94902556D01*
X102493800Y-94902560D01*
X102479371Y-94975100D01*
X102493800Y-95047640D01*
X102493800Y-95266000D01*
X102410750Y-95266000D01*
X102252000Y-95424750D01*
X102252000Y-96028000D01*
X102272000Y-96028000D01*
X102272000Y-96282000D01*
X102252000Y-96282000D01*
X102252000Y-96302000D01*
X101998000Y-96302000D01*
X101998000Y-96282000D01*
X101077250Y-96282000D01*
X100918500Y-96440750D01*
X100918500Y-96535309D01*
X101015173Y-96768698D01*
X101041207Y-96794732D01*
X100955343Y-96923235D01*
X100906060Y-97171000D01*
X100906060Y-97284730D01*
X100467946Y-97722844D01*
X100467946Y-95774691D01*
X100918500Y-95774691D01*
X100918500Y-95869250D01*
X101077250Y-96028000D01*
X101998000Y-96028000D01*
X101998000Y-95424750D01*
X101839250Y-95266000D01*
X101427190Y-95266000D01*
X101193801Y-95362673D01*
X101015173Y-95541302D01*
X100918500Y-95774691D01*
X100467946Y-95774691D01*
X100467946Y-92880750D01*
X100718500Y-92880750D01*
X100718500Y-92975309D01*
X100815173Y-93208698D01*
X100993801Y-93387327D01*
X101227190Y-93484000D01*
X101639250Y-93484000D01*
X101798000Y-93325250D01*
X101798000Y-92722000D01*
X100877250Y-92722000D01*
X100718500Y-92880750D01*
X100467946Y-92880750D01*
X100467946Y-92382373D01*
X100500142Y-92430558D01*
G36*
X117877002Y-95898748D02*
X117877002Y-95797440D01*
X117978310Y-95797440D01*
X117877002Y-95898748D01*
X117877002Y-95898748D01*
G37*
X117877002Y-95898748D02*
X117877002Y-95797440D01*
X117978310Y-95797440D01*
X117877002Y-95898748D01*
G36*
X117622998Y-95898748D02*
X117521690Y-95797440D01*
X117622998Y-95797440D01*
X117622998Y-95898748D01*
X117622998Y-95898748D01*
G37*
X117622998Y-95898748D02*
X117521690Y-95797440D01*
X117622998Y-95797440D01*
X117622998Y-95898748D01*
G36*
X90714099Y-94449795D02*
X90683873Y-94480021D01*
X90683873Y-94461758D01*
X90714099Y-94449238D01*
X90714099Y-94449795D01*
X90714099Y-94449795D01*
G37*
X90714099Y-94449795D02*
X90683873Y-94480021D01*
X90683873Y-94461758D01*
X90714099Y-94449238D01*
X90714099Y-94449795D01*
G36*
X117722998Y-93202560D02*
X117646690Y-93202560D01*
X117722998Y-93126252D01*
X117722998Y-93202560D01*
X117722998Y-93202560D01*
G37*
X117722998Y-93202560D02*
X117646690Y-93202560D01*
X117722998Y-93126252D01*
X117722998Y-93202560D01*
G36*
X118053310Y-93202560D02*
X117977002Y-93202560D01*
X117977002Y-93126252D01*
X118053310Y-93202560D01*
X118053310Y-93202560D01*
G37*
X118053310Y-93202560D02*
X117977002Y-93202560D01*
X117977002Y-93126252D01*
X118053310Y-93202560D01*
G36*
X117977000Y-91873000D02*
X117997000Y-91873000D01*
X117997000Y-92127000D01*
X117977000Y-92127000D01*
X117977000Y-92147000D01*
X117723000Y-92147000D01*
X117723000Y-92127000D01*
X117703000Y-92127000D01*
X117703000Y-91873000D01*
X117723000Y-91873000D01*
X117723000Y-91853000D01*
X117977000Y-91853000D01*
X117977000Y-91873000D01*
X117977000Y-91873000D01*
G37*
X117977000Y-91873000D02*
X117997000Y-91873000D01*
X117997000Y-92127000D01*
X117977000Y-92127000D01*
X117977000Y-92147000D01*
X117723000Y-92147000D01*
X117723000Y-92127000D01*
X117703000Y-92127000D01*
X117703000Y-91873000D01*
X117723000Y-91873000D01*
X117723000Y-91853000D01*
X117977000Y-91853000D01*
X117977000Y-91873000D01*
G36*
X82589221Y-89447224D02*
X82589220Y-89447223D01*
X82589221Y-89447223D01*
X82589221Y-89447224D01*
X82589221Y-89447224D01*
G37*
X82589221Y-89447224D02*
X82589220Y-89447223D01*
X82589221Y-89447223D01*
X82589221Y-89447224D01*
G36*
X82589221Y-89447223D02*
X82573562Y-89431564D01*
X82599683Y-89431564D01*
X82589221Y-89447223D01*
X82589221Y-89447223D01*
G37*
X82589221Y-89447223D02*
X82573562Y-89431564D01*
X82599683Y-89431564D01*
X82589221Y-89447223D01*
G36*
X90707367Y-88037362D02*
X90683141Y-88053549D01*
X90683139Y-88053551D01*
X90621642Y-88094642D01*
X90580550Y-88156140D01*
X89599691Y-89137000D01*
X89347174Y-89137000D01*
X89225400Y-89187440D01*
X89225400Y-88918137D01*
X89233085Y-88879500D01*
X89514726Y-88879500D01*
X89911488Y-88715156D01*
X90215156Y-88411488D01*
X90341704Y-88105974D01*
X90344501Y-88106530D01*
X90417041Y-88092101D01*
X90417045Y-88092101D01*
X90631908Y-88049362D01*
X90694902Y-88007270D01*
X90707367Y-88037362D01*
X90707367Y-88037362D01*
G37*
X90707367Y-88037362D02*
X90683141Y-88053549D01*
X90683139Y-88053551D01*
X90621642Y-88094642D01*
X90580550Y-88156140D01*
X89599691Y-89137000D01*
X89347174Y-89137000D01*
X89225400Y-89187440D01*
X89225400Y-88918137D01*
X89233085Y-88879500D01*
X89514726Y-88879500D01*
X89911488Y-88715156D01*
X90215156Y-88411488D01*
X90341704Y-88105974D01*
X90344501Y-88106530D01*
X90417041Y-88092101D01*
X90417045Y-88092101D01*
X90631908Y-88049362D01*
X90694902Y-88007270D01*
X90707367Y-88037362D01*
G36*
X88415544Y-84164888D02*
X88719212Y-84468556D01*
X89115974Y-84632900D01*
X89545426Y-84632900D01*
X89942188Y-84468556D01*
X90096181Y-84314564D01*
X90198867Y-84417250D01*
X90304836Y-84488057D01*
X90308827Y-84494029D01*
X90112744Y-84690112D01*
X89948400Y-85086874D01*
X89948400Y-85516326D01*
X90112744Y-85913088D01*
X90416412Y-86216756D01*
X90434178Y-86224115D01*
X90039392Y-86618901D01*
X89817039Y-86618901D01*
X89744499Y-86604472D01*
X89671958Y-86618901D01*
X89671955Y-86618901D01*
X89457092Y-86661640D01*
X89369002Y-86720500D01*
X89085274Y-86720500D01*
X88688512Y-86884844D01*
X88384844Y-87188512D01*
X88242684Y-87531718D01*
X87397508Y-86686543D01*
X87551350Y-86532702D01*
X87617096Y-86488772D01*
X87791127Y-86228316D01*
X87836812Y-85998640D01*
X87836812Y-85998639D01*
X87852238Y-85921088D01*
X87836812Y-85843537D01*
X87836812Y-84210700D01*
X87847860Y-84210700D01*
X87920400Y-84225129D01*
X87992940Y-84210700D01*
X87992944Y-84210700D01*
X88207807Y-84167961D01*
X88371509Y-84058578D01*
X88415544Y-84164888D01*
X88415544Y-84164888D01*
G37*
X88415544Y-84164888D02*
X88719212Y-84468556D01*
X89115974Y-84632900D01*
X89545426Y-84632900D01*
X89942188Y-84468556D01*
X90096181Y-84314564D01*
X90198867Y-84417250D01*
X90304836Y-84488057D01*
X90308827Y-84494029D01*
X90112744Y-84690112D01*
X89948400Y-85086874D01*
X89948400Y-85516326D01*
X90112744Y-85913088D01*
X90416412Y-86216756D01*
X90434178Y-86224115D01*
X90039392Y-86618901D01*
X89817039Y-86618901D01*
X89744499Y-86604472D01*
X89671958Y-86618901D01*
X89671955Y-86618901D01*
X89457092Y-86661640D01*
X89369002Y-86720500D01*
X89085274Y-86720500D01*
X88688512Y-86884844D01*
X88384844Y-87188512D01*
X88242684Y-87531718D01*
X87397508Y-86686543D01*
X87551350Y-86532702D01*
X87617096Y-86488772D01*
X87791127Y-86228316D01*
X87836812Y-85998640D01*
X87836812Y-85998639D01*
X87852238Y-85921088D01*
X87836812Y-85843537D01*
X87836812Y-84210700D01*
X87847860Y-84210700D01*
X87920400Y-84225129D01*
X87992940Y-84210700D01*
X87992944Y-84210700D01*
X88207807Y-84167961D01*
X88371509Y-84058578D01*
X88415544Y-84164888D01*
G36*
X120860201Y-80689244D02*
X120860200Y-84107441D01*
X120841789Y-84200000D01*
X120914728Y-84566691D01*
X121122443Y-84877557D01*
X121433309Y-85085272D01*
X121691354Y-85136600D01*
X121800000Y-85158211D01*
X121892559Y-85139800D01*
X124750723Y-85139800D01*
X125574322Y-85963400D01*
X120890044Y-85963400D01*
X120711488Y-85784844D01*
X120314726Y-85620500D01*
X119885274Y-85620500D01*
X119488512Y-85784844D01*
X119391905Y-85881451D01*
X119272765Y-85801843D01*
X119025000Y-85752560D01*
X118848838Y-85752560D01*
X118847765Y-85751843D01*
X118819791Y-85746279D01*
X118959698Y-85688327D01*
X119138327Y-85509699D01*
X119235000Y-85276310D01*
X119235000Y-84785750D01*
X119076250Y-84627000D01*
X117977000Y-84627000D01*
X117977000Y-84647000D01*
X117723000Y-84647000D01*
X117723000Y-84627000D01*
X117703000Y-84627000D01*
X117703000Y-84373000D01*
X117723000Y-84373000D01*
X117723000Y-83373750D01*
X117564250Y-83215000D01*
X117534250Y-83215000D01*
X117623000Y-83126250D01*
X117623000Y-82127000D01*
X117877000Y-82127000D01*
X117877000Y-83126250D01*
X118035750Y-83285000D01*
X118065750Y-83285000D01*
X117977000Y-83373750D01*
X117977000Y-84373000D01*
X119076250Y-84373000D01*
X119235000Y-84214250D01*
X119235000Y-83723690D01*
X119138327Y-83490301D01*
X118959698Y-83311673D01*
X118760806Y-83229289D01*
X118859698Y-83188327D01*
X119038327Y-83009699D01*
X119135000Y-82776310D01*
X119135000Y-82285750D01*
X118976250Y-82127000D01*
X117877000Y-82127000D01*
X117623000Y-82127000D01*
X117603000Y-82127000D01*
X117603000Y-81873000D01*
X117623000Y-81873000D01*
X117623000Y-81853000D01*
X117877000Y-81853000D01*
X117877000Y-81873000D01*
X118976250Y-81873000D01*
X119135000Y-81714250D01*
X119135000Y-81223690D01*
X119038327Y-80990301D01*
X118966707Y-80918682D01*
X119057809Y-80857809D01*
X119198157Y-80647765D01*
X119247440Y-80400000D01*
X119247440Y-79100000D01*
X119241549Y-79070386D01*
X120860201Y-80689244D01*
X120860201Y-80689244D01*
G37*
X120860201Y-80689244D02*
X120860200Y-84107441D01*
X120841789Y-84200000D01*
X120914728Y-84566691D01*
X121122443Y-84877557D01*
X121433309Y-85085272D01*
X121691354Y-85136600D01*
X121800000Y-85158211D01*
X121892559Y-85139800D01*
X124750723Y-85139800D01*
X125574322Y-85963400D01*
X120890044Y-85963400D01*
X120711488Y-85784844D01*
X120314726Y-85620500D01*
X119885274Y-85620500D01*
X119488512Y-85784844D01*
X119391905Y-85881451D01*
X119272765Y-85801843D01*
X119025000Y-85752560D01*
X118848838Y-85752560D01*
X118847765Y-85751843D01*
X118819791Y-85746279D01*
X118959698Y-85688327D01*
X119138327Y-85509699D01*
X119235000Y-85276310D01*
X119235000Y-84785750D01*
X119076250Y-84627000D01*
X117977000Y-84627000D01*
X117977000Y-84647000D01*
X117723000Y-84647000D01*
X117723000Y-84627000D01*
X117703000Y-84627000D01*
X117703000Y-84373000D01*
X117723000Y-84373000D01*
X117723000Y-83373750D01*
X117564250Y-83215000D01*
X117534250Y-83215000D01*
X117623000Y-83126250D01*
X117623000Y-82127000D01*
X117877000Y-82127000D01*
X117877000Y-83126250D01*
X118035750Y-83285000D01*
X118065750Y-83285000D01*
X117977000Y-83373750D01*
X117977000Y-84373000D01*
X119076250Y-84373000D01*
X119235000Y-84214250D01*
X119235000Y-83723690D01*
X119138327Y-83490301D01*
X118959698Y-83311673D01*
X118760806Y-83229289D01*
X118859698Y-83188327D01*
X119038327Y-83009699D01*
X119135000Y-82776310D01*
X119135000Y-82285750D01*
X118976250Y-82127000D01*
X117877000Y-82127000D01*
X117623000Y-82127000D01*
X117603000Y-82127000D01*
X117603000Y-81873000D01*
X117623000Y-81873000D01*
X117623000Y-81853000D01*
X117877000Y-81853000D01*
X117877000Y-81873000D01*
X118976250Y-81873000D01*
X119135000Y-81714250D01*
X119135000Y-81223690D01*
X119038327Y-80990301D01*
X118966707Y-80918682D01*
X119057809Y-80857809D01*
X119198157Y-80647765D01*
X119247440Y-80400000D01*
X119247440Y-79100000D01*
X119241549Y-79070386D01*
X120860201Y-80689244D01*
G36*
X96865499Y-85314107D02*
X96851356Y-85328249D01*
X96865499Y-85342392D01*
X96685894Y-85521997D01*
X96671751Y-85507854D01*
X96657609Y-85521997D01*
X96478004Y-85342392D01*
X96492146Y-85328249D01*
X96478004Y-85314107D01*
X96657609Y-85134502D01*
X96671751Y-85148644D01*
X96685894Y-85134502D01*
X96865499Y-85314107D01*
X96865499Y-85314107D01*
G37*
X96865499Y-85314107D02*
X96851356Y-85328249D01*
X96865499Y-85342392D01*
X96685894Y-85521997D01*
X96671751Y-85507854D01*
X96657609Y-85521997D01*
X96478004Y-85342392D01*
X96492146Y-85328249D01*
X96478004Y-85314107D01*
X96657609Y-85134502D01*
X96671751Y-85148644D01*
X96685894Y-85134502D01*
X96865499Y-85314107D01*
G36*
X129174500Y-75030268D02*
X129174500Y-82005000D01*
X129015750Y-82005000D01*
X128857000Y-82163750D01*
X128857000Y-83363000D01*
X128877000Y-83363000D01*
X128877000Y-83617000D01*
X128857000Y-83617000D01*
X128857000Y-83637000D01*
X128603000Y-83637000D01*
X128603000Y-83617000D01*
X127103750Y-83617000D01*
X126945000Y-83775750D01*
X126945000Y-84466310D01*
X127041673Y-84699699D01*
X127220302Y-84878327D01*
X127381033Y-84944904D01*
X127359375Y-84959375D01*
X127306935Y-85037857D01*
X125985000Y-83715923D01*
X125985000Y-82513690D01*
X126945000Y-82513690D01*
X126945000Y-83204250D01*
X127103750Y-83363000D01*
X128603000Y-83363000D01*
X128603000Y-82163750D01*
X128444250Y-82005000D01*
X127453691Y-82005000D01*
X127220302Y-82101673D01*
X127041673Y-82280301D01*
X126945000Y-82513690D01*
X125985000Y-82513690D01*
X125985000Y-82010750D01*
X125826250Y-81852000D01*
X124127000Y-81852000D01*
X124127000Y-81872000D01*
X123873000Y-81872000D01*
X123873000Y-81852000D01*
X123853000Y-81852000D01*
X123853000Y-81598000D01*
X123873000Y-81598000D01*
X123873000Y-79373750D01*
X124127000Y-79373750D01*
X124127000Y-81598000D01*
X125826250Y-81598000D01*
X125985000Y-81439250D01*
X125985000Y-79723691D01*
X125888327Y-79490302D01*
X125709699Y-79311673D01*
X125476310Y-79215000D01*
X124285750Y-79215000D01*
X124127000Y-79373750D01*
X123873000Y-79373750D01*
X123714250Y-79215000D01*
X122523690Y-79215000D01*
X122290301Y-79311673D01*
X122215542Y-79386432D01*
X120228005Y-77398642D01*
X120338474Y-77444400D01*
X120767926Y-77444400D01*
X121164688Y-77280056D01*
X121379685Y-77065059D01*
X121494517Y-77342289D01*
X122657711Y-78505483D01*
X124177497Y-79135000D01*
X125822503Y-79135000D01*
X127342289Y-78505483D01*
X128505483Y-77342289D01*
X129135000Y-75822503D01*
X129135000Y-74492377D01*
X129174500Y-75030268D01*
X129174500Y-75030268D01*
G37*
X129174500Y-75030268D02*
X129174500Y-82005000D01*
X129015750Y-82005000D01*
X128857000Y-82163750D01*
X128857000Y-83363000D01*
X128877000Y-83363000D01*
X128877000Y-83617000D01*
X128857000Y-83617000D01*
X128857000Y-83637000D01*
X128603000Y-83637000D01*
X128603000Y-83617000D01*
X127103750Y-83617000D01*
X126945000Y-83775750D01*
X126945000Y-84466310D01*
X127041673Y-84699699D01*
X127220302Y-84878327D01*
X127381033Y-84944904D01*
X127359375Y-84959375D01*
X127306935Y-85037857D01*
X125985000Y-83715923D01*
X125985000Y-82513690D01*
X126945000Y-82513690D01*
X126945000Y-83204250D01*
X127103750Y-83363000D01*
X128603000Y-83363000D01*
X128603000Y-82163750D01*
X128444250Y-82005000D01*
X127453691Y-82005000D01*
X127220302Y-82101673D01*
X127041673Y-82280301D01*
X126945000Y-82513690D01*
X125985000Y-82513690D01*
X125985000Y-82010750D01*
X125826250Y-81852000D01*
X124127000Y-81852000D01*
X124127000Y-81872000D01*
X123873000Y-81872000D01*
X123873000Y-81852000D01*
X123853000Y-81852000D01*
X123853000Y-81598000D01*
X123873000Y-81598000D01*
X123873000Y-79373750D01*
X124127000Y-79373750D01*
X124127000Y-81598000D01*
X125826250Y-81598000D01*
X125985000Y-81439250D01*
X125985000Y-79723691D01*
X125888327Y-79490302D01*
X125709699Y-79311673D01*
X125476310Y-79215000D01*
X124285750Y-79215000D01*
X124127000Y-79373750D01*
X123873000Y-79373750D01*
X123714250Y-79215000D01*
X122523690Y-79215000D01*
X122290301Y-79311673D01*
X122215542Y-79386432D01*
X120228005Y-77398642D01*
X120338474Y-77444400D01*
X120767926Y-77444400D01*
X121164688Y-77280056D01*
X121379685Y-77065059D01*
X121494517Y-77342289D01*
X122657711Y-78505483D01*
X124177497Y-79135000D01*
X125822503Y-79135000D01*
X127342289Y-78505483D01*
X128505483Y-77342289D01*
X129135000Y-75822503D01*
X129135000Y-74492377D01*
X129174500Y-75030268D01*
G36*
X82005000Y-70984250D02*
X82163750Y-71143000D01*
X83363000Y-71143000D01*
X83363000Y-71123000D01*
X83617000Y-71123000D01*
X83617000Y-71143000D01*
X83637000Y-71143000D01*
X83637000Y-71397000D01*
X83617000Y-71397000D01*
X83617000Y-71417000D01*
X83363000Y-71417000D01*
X83363000Y-71397000D01*
X82163750Y-71397000D01*
X82005000Y-71555750D01*
X82005000Y-72546309D01*
X82094981Y-72763542D01*
X82070014Y-72800908D01*
X80300910Y-74570012D01*
X80222443Y-74622443D01*
X80170013Y-74700910D01*
X80170012Y-74700911D01*
X80015641Y-74931944D01*
X80014728Y-74933310D01*
X79960200Y-75207442D01*
X79960200Y-75207446D01*
X79941790Y-75300000D01*
X79960200Y-75392555D01*
X79960201Y-76451631D01*
X77355795Y-79056127D01*
X77051671Y-79360200D01*
X74492554Y-79360200D01*
X74400000Y-79341790D01*
X74307446Y-79360200D01*
X74307441Y-79360200D01*
X74033309Y-79414728D01*
X74033308Y-79414729D01*
X74033307Y-79414729D01*
X73800910Y-79570012D01*
X73800908Y-79570014D01*
X73722443Y-79622443D01*
X73670014Y-79700908D01*
X72700910Y-80670013D01*
X72622443Y-80722443D01*
X72570013Y-80800910D01*
X72570012Y-80800911D01*
X72416914Y-81030039D01*
X72414728Y-81033310D01*
X72360200Y-81307442D01*
X72360200Y-81307446D01*
X72341790Y-81400000D01*
X72360200Y-81492554D01*
X72360200Y-82005000D01*
X71555750Y-82005000D01*
X71397000Y-82163750D01*
X71397000Y-83363000D01*
X71417000Y-83363000D01*
X71417000Y-83617000D01*
X71397000Y-83617000D01*
X71397000Y-83637000D01*
X71143000Y-83637000D01*
X71143000Y-83617000D01*
X71123000Y-83617000D01*
X71123000Y-83363000D01*
X71143000Y-83363000D01*
X71143000Y-82163750D01*
X70984250Y-82005000D01*
X70825500Y-82005000D01*
X70825500Y-75036765D01*
X70865000Y-74594177D01*
X70865000Y-75822503D01*
X71494517Y-77342289D01*
X72657711Y-78505483D01*
X74177497Y-79135000D01*
X75822503Y-79135000D01*
X77342289Y-78505483D01*
X78505483Y-77342289D01*
X79135000Y-75822503D01*
X79135000Y-74177497D01*
X78505483Y-72657711D01*
X77342289Y-71494517D01*
X75822503Y-70865000D01*
X74492377Y-70865000D01*
X75030268Y-70825500D01*
X82005000Y-70825500D01*
X82005000Y-70984250D01*
X82005000Y-70984250D01*
G37*
X82005000Y-70984250D02*
X82163750Y-71143000D01*
X83363000Y-71143000D01*
X83363000Y-71123000D01*
X83617000Y-71123000D01*
X83617000Y-71143000D01*
X83637000Y-71143000D01*
X83637000Y-71397000D01*
X83617000Y-71397000D01*
X83617000Y-71417000D01*
X83363000Y-71417000D01*
X83363000Y-71397000D01*
X82163750Y-71397000D01*
X82005000Y-71555750D01*
X82005000Y-72546309D01*
X82094981Y-72763542D01*
X82070014Y-72800908D01*
X80300910Y-74570012D01*
X80222443Y-74622443D01*
X80170013Y-74700910D01*
X80170012Y-74700911D01*
X80015641Y-74931944D01*
X80014728Y-74933310D01*
X79960200Y-75207442D01*
X79960200Y-75207446D01*
X79941790Y-75300000D01*
X79960200Y-75392555D01*
X79960201Y-76451631D01*
X77355795Y-79056127D01*
X77051671Y-79360200D01*
X74492554Y-79360200D01*
X74400000Y-79341790D01*
X74307446Y-79360200D01*
X74307441Y-79360200D01*
X74033309Y-79414728D01*
X74033308Y-79414729D01*
X74033307Y-79414729D01*
X73800910Y-79570012D01*
X73800908Y-79570014D01*
X73722443Y-79622443D01*
X73670014Y-79700908D01*
X72700910Y-80670013D01*
X72622443Y-80722443D01*
X72570013Y-80800910D01*
X72570012Y-80800911D01*
X72416914Y-81030039D01*
X72414728Y-81033310D01*
X72360200Y-81307442D01*
X72360200Y-81307446D01*
X72341790Y-81400000D01*
X72360200Y-81492554D01*
X72360200Y-82005000D01*
X71555750Y-82005000D01*
X71397000Y-82163750D01*
X71397000Y-83363000D01*
X71417000Y-83363000D01*
X71417000Y-83617000D01*
X71397000Y-83617000D01*
X71397000Y-83637000D01*
X71143000Y-83637000D01*
X71143000Y-83617000D01*
X71123000Y-83617000D01*
X71123000Y-83363000D01*
X71143000Y-83363000D01*
X71143000Y-82163750D01*
X70984250Y-82005000D01*
X70825500Y-82005000D01*
X70825500Y-75036765D01*
X70865000Y-74594177D01*
X70865000Y-75822503D01*
X71494517Y-77342289D01*
X72657711Y-78505483D01*
X74177497Y-79135000D01*
X75822503Y-79135000D01*
X77342289Y-78505483D01*
X78505483Y-77342289D01*
X79135000Y-75822503D01*
X79135000Y-74177497D01*
X78505483Y-72657711D01*
X77342289Y-71494517D01*
X75822503Y-70865000D01*
X74492377Y-70865000D01*
X75030268Y-70825500D01*
X82005000Y-70825500D01*
X82005000Y-70984250D01*
G36*
X84474852Y-78906120D02*
X84689715Y-78948859D01*
X84689718Y-78948859D01*
X84762259Y-78963288D01*
X84834799Y-78948859D01*
X85968821Y-78948859D01*
X85855916Y-79117832D01*
X85834486Y-79225571D01*
X85832789Y-79225571D01*
X85599400Y-79322244D01*
X85287878Y-79633766D01*
X85287878Y-79858273D01*
X85800000Y-80370395D01*
X85814143Y-80356253D01*
X85940725Y-80482835D01*
X85732835Y-80690725D01*
X85606253Y-80564143D01*
X85620395Y-80550000D01*
X85108273Y-80037878D01*
X85029730Y-80037878D01*
X85055156Y-79910051D01*
X85005873Y-79662286D01*
X84865525Y-79452242D01*
X84242783Y-78829500D01*
X84360182Y-78829500D01*
X84474852Y-78906120D01*
X84474852Y-78906120D01*
G37*
X84474852Y-78906120D02*
X84689715Y-78948859D01*
X84689718Y-78948859D01*
X84762259Y-78963288D01*
X84834799Y-78948859D01*
X85968821Y-78948859D01*
X85855916Y-79117832D01*
X85834486Y-79225571D01*
X85832789Y-79225571D01*
X85599400Y-79322244D01*
X85287878Y-79633766D01*
X85287878Y-79858273D01*
X85800000Y-80370395D01*
X85814143Y-80356253D01*
X85940725Y-80482835D01*
X85732835Y-80690725D01*
X85606253Y-80564143D01*
X85620395Y-80550000D01*
X85108273Y-80037878D01*
X85029730Y-80037878D01*
X85055156Y-79910051D01*
X85005873Y-79662286D01*
X84865525Y-79452242D01*
X84242783Y-78829500D01*
X84360182Y-78829500D01*
X84474852Y-78906120D01*
G36*
X116637000Y-71143000D02*
X116657000Y-71143000D01*
X116657000Y-71397000D01*
X116637000Y-71397000D01*
X116637000Y-72896250D01*
X116795750Y-73055000D01*
X117486310Y-73055000D01*
X117623983Y-72997974D01*
X117764191Y-73207809D01*
X117974235Y-73348157D01*
X117983500Y-73350000D01*
X117974235Y-73351843D01*
X117764191Y-73492191D01*
X117623843Y-73702235D01*
X117574560Y-73950000D01*
X117574560Y-75450000D01*
X117623843Y-75697765D01*
X117764191Y-75907809D01*
X117974235Y-76048157D01*
X118222000Y-76097440D01*
X119495543Y-76097440D01*
X119473700Y-76150174D01*
X119473700Y-76579626D01*
X119519394Y-76689942D01*
X119394005Y-76564537D01*
X119341557Y-76486043D01*
X119182507Y-76379769D01*
X119030748Y-76278352D01*
X119030718Y-76278346D01*
X119030691Y-76278328D01*
X118835241Y-76239451D01*
X118664061Y-76205390D01*
X118571477Y-76223800D01*
X117953278Y-76223800D01*
X114909800Y-73180323D01*
X114909800Y-72728039D01*
X115040625Y-72640625D01*
X115055096Y-72618967D01*
X115121673Y-72779698D01*
X115300301Y-72958327D01*
X115533690Y-73055000D01*
X116224250Y-73055000D01*
X116383000Y-72896250D01*
X116383000Y-71397000D01*
X116363000Y-71397000D01*
X116363000Y-71143000D01*
X116383000Y-71143000D01*
X116383000Y-71123000D01*
X116637000Y-71123000D01*
X116637000Y-71143000D01*
X116637000Y-71143000D01*
G37*
X116637000Y-71143000D02*
X116657000Y-71143000D01*
X116657000Y-71397000D01*
X116637000Y-71397000D01*
X116637000Y-72896250D01*
X116795750Y-73055000D01*
X117486310Y-73055000D01*
X117623983Y-72997974D01*
X117764191Y-73207809D01*
X117974235Y-73348157D01*
X117983500Y-73350000D01*
X117974235Y-73351843D01*
X117764191Y-73492191D01*
X117623843Y-73702235D01*
X117574560Y-73950000D01*
X117574560Y-75450000D01*
X117623843Y-75697765D01*
X117764191Y-75907809D01*
X117974235Y-76048157D01*
X118222000Y-76097440D01*
X119495543Y-76097440D01*
X119473700Y-76150174D01*
X119473700Y-76579626D01*
X119519394Y-76689942D01*
X119394005Y-76564537D01*
X119341557Y-76486043D01*
X119182507Y-76379769D01*
X119030748Y-76278352D01*
X119030718Y-76278346D01*
X119030691Y-76278328D01*
X118835241Y-76239451D01*
X118664061Y-76205390D01*
X118571477Y-76223800D01*
X117953278Y-76223800D01*
X114909800Y-73180323D01*
X114909800Y-72728039D01*
X115040625Y-72640625D01*
X115055096Y-72618967D01*
X115121673Y-72779698D01*
X115300301Y-72958327D01*
X115533690Y-73055000D01*
X116224250Y-73055000D01*
X116383000Y-72896250D01*
X116383000Y-71397000D01*
X116363000Y-71397000D01*
X116363000Y-71143000D01*
X116383000Y-71143000D01*
X116383000Y-71123000D01*
X116637000Y-71123000D01*
X116637000Y-71143000D01*
G36*
X100230182Y-71885397D02*
X100065000Y-72284180D01*
X100065000Y-72715820D01*
X100230182Y-73114603D01*
X100370199Y-73254620D01*
X100326059Y-73263400D01*
X100326056Y-73263400D01*
X100129186Y-73302560D01*
X100111193Y-73306139D01*
X99929041Y-73427849D01*
X99929039Y-73427851D01*
X99867542Y-73468942D01*
X99826450Y-73530440D01*
X99103070Y-74253820D01*
X98976250Y-74127000D01*
X98027000Y-74127000D01*
X98027000Y-74147000D01*
X97773000Y-74147000D01*
X97773000Y-74127000D01*
X96823750Y-74127000D01*
X96665000Y-74285750D01*
X96665000Y-74497000D01*
X93732640Y-74497000D01*
X93660100Y-74482571D01*
X93587559Y-74497000D01*
X93587556Y-74497000D01*
X93372693Y-74539739D01*
X93190541Y-74661449D01*
X93190539Y-74661451D01*
X93129042Y-74702542D01*
X93087950Y-74764040D01*
X92106983Y-75745008D01*
X91655081Y-75443056D01*
X91110000Y-75334632D01*
X90881657Y-75380053D01*
X93255991Y-73005719D01*
X93650000Y-73084092D01*
X94229417Y-72968839D01*
X94720625Y-72640625D01*
X94752560Y-72592831D01*
X94752560Y-72700000D01*
X94801843Y-72947765D01*
X94942191Y-73157809D01*
X95152235Y-73298157D01*
X95400000Y-73347440D01*
X96600000Y-73347440D01*
X96665000Y-73334511D01*
X96665000Y-73714250D01*
X96823750Y-73873000D01*
X97773000Y-73873000D01*
X97773000Y-73853000D01*
X98027000Y-73853000D01*
X98027000Y-73873000D01*
X98976250Y-73873000D01*
X99135000Y-73714250D01*
X99135000Y-73556345D01*
X99464603Y-73419818D01*
X99769818Y-73114603D01*
X99935000Y-72715820D01*
X99935000Y-72284180D01*
X99769818Y-71885397D01*
X99709921Y-71825500D01*
X100290079Y-71825500D01*
X100230182Y-71885397D01*
X100230182Y-71885397D01*
G37*
X100230182Y-71885397D02*
X100065000Y-72284180D01*
X100065000Y-72715820D01*
X100230182Y-73114603D01*
X100370199Y-73254620D01*
X100326059Y-73263400D01*
X100326056Y-73263400D01*
X100129186Y-73302560D01*
X100111193Y-73306139D01*
X99929041Y-73427849D01*
X99929039Y-73427851D01*
X99867542Y-73468942D01*
X99826450Y-73530440D01*
X99103070Y-74253820D01*
X98976250Y-74127000D01*
X98027000Y-74127000D01*
X98027000Y-74147000D01*
X97773000Y-74147000D01*
X97773000Y-74127000D01*
X96823750Y-74127000D01*
X96665000Y-74285750D01*
X96665000Y-74497000D01*
X93732640Y-74497000D01*
X93660100Y-74482571D01*
X93587559Y-74497000D01*
X93587556Y-74497000D01*
X93372693Y-74539739D01*
X93190541Y-74661449D01*
X93190539Y-74661451D01*
X93129042Y-74702542D01*
X93087950Y-74764040D01*
X92106983Y-75745008D01*
X91655081Y-75443056D01*
X91110000Y-75334632D01*
X90881657Y-75380053D01*
X93255991Y-73005719D01*
X93650000Y-73084092D01*
X94229417Y-72968839D01*
X94720625Y-72640625D01*
X94752560Y-72592831D01*
X94752560Y-72700000D01*
X94801843Y-72947765D01*
X94942191Y-73157809D01*
X95152235Y-73298157D01*
X95400000Y-73347440D01*
X96600000Y-73347440D01*
X96665000Y-73334511D01*
X96665000Y-73714250D01*
X96823750Y-73873000D01*
X97773000Y-73873000D01*
X97773000Y-73853000D01*
X98027000Y-73853000D01*
X98027000Y-73873000D01*
X98976250Y-73873000D01*
X99135000Y-73714250D01*
X99135000Y-73556345D01*
X99464603Y-73419818D01*
X99769818Y-73114603D01*
X99935000Y-72715820D01*
X99935000Y-72284180D01*
X99769818Y-71885397D01*
X99709921Y-71825500D01*
X100290079Y-71825500D01*
X100230182Y-71885397D01*
M02*
