%TF.GenerationSoftware,KiCad,Pcbnew,5.0.2-bee76a0~70~ubuntu16.04.1*%
%TF.CreationDate,2019-04-28T15:28:11+02:00*%
%TF.ProjectId,bcl4v2,62636c34-7632-42e6-9b69-6361645f7063,rev?*%
%TF.SameCoordinates,Original*%
%TF.FileFunction,Copper,L1,Top*%
%TF.FilePolarity,Positive*%
%FSLAX46Y46*%
G04 Gerber Fmt 4.6, Leading zero omitted, Abs format (unit mm)*
G04 Created by KiCad (PCBNEW 5.0.2-bee76a0~70~ubuntu16.04.1) date Ne 28. duben 2019, 15:28:11 CEST*
%MOMM*%
%LPD*%
G01*
G04 APERTURE LIST*
%ADD10C,0.381000*%
%ADD11C,7.000000*%
%ADD12C,0.910000*%
%ADD13R,1.700000X2.300000*%
%ADD14O,1.700000X2.300000*%
%ADD15R,2.300000X1.700000*%
%ADD16O,2.300000X1.700000*%
%ADD17R,1.500000X1.200000*%
%ADD18R,0.700000X1.500000*%
%ADD19R,1.700000X1.200000*%
%ADD20R,1.600000X1.200000*%
%ADD21O,1.524000X2.286000*%
%ADD22R,1.524000X2.286000*%
%ADD23O,1.550000X1.000000*%
%ADD24O,0.950000X1.250000*%
%ADD25C,0.889000*%
%ADD26C,1.346200*%
%ADD27C,0.304800*%
%ADD28C,0.609600*%
%ADD29C,0.203200*%
%ADD30C,0.254000*%
G04 APERTURE END LIST*
D10*
X95000000Y-129000000D02*
X95000000Y-130000000D01*
X105000000Y-129000000D02*
X105000000Y-130000000D01*
X105000000Y-70000000D02*
X105000000Y-71000000D01*
X95000000Y-70000000D02*
X95000000Y-71000000D01*
X70000000Y-95000000D02*
X70000000Y-75000000D01*
X70000000Y-125000000D02*
X70000000Y-105000000D01*
X95000000Y-130000000D02*
X75000000Y-130000000D01*
X125000000Y-130000000D02*
X105000000Y-130000000D01*
X130000000Y-105000000D02*
X130000000Y-125000000D01*
X130000000Y-75000000D02*
X130000000Y-95000000D01*
X105000000Y-70000000D02*
X125000000Y-70000000D01*
X75000000Y-70000000D02*
X95000000Y-70000000D01*
X75000000Y-130000000D02*
G75*
G02X70000000Y-125000000I0J5000000D01*
G01*
X130000000Y-125000000D02*
G75*
G02X125000000Y-130000000I-5000000J0D01*
G01*
X125000000Y-70000000D02*
G75*
G02X130000000Y-75000000I0J-5000000D01*
G01*
X70000000Y-75000000D02*
G75*
G02X75000000Y-70000000I5000000J0D01*
G01*
X95000000Y-71000000D02*
X105000000Y-71000000D01*
X70750000Y-105000000D02*
X70000000Y-105000000D01*
X70750000Y-95000000D02*
X70750000Y-105000000D01*
X70000000Y-95000000D02*
X70750000Y-95000000D01*
X95000000Y-129000000D02*
X105000000Y-129000000D01*
X129000000Y-105000000D02*
X130000000Y-105000000D01*
X129000000Y-95000000D02*
X129000000Y-105000000D01*
X130000000Y-95000000D02*
X129000000Y-95000000D01*
D11*
X125000000Y-125000000D03*
D12*
X98850000Y-127500000D03*
X101150000Y-127500000D03*
D13*
X83490000Y-128730000D03*
D14*
X86030000Y-128730000D03*
X88570000Y-128730000D03*
X91110000Y-128730000D03*
X93650000Y-128730000D03*
D15*
X81730000Y-96200000D03*
D16*
X81730000Y-98740000D03*
X81730000Y-101280000D03*
X81730000Y-103820000D03*
D11*
X75000000Y-125000000D03*
X75000000Y-75000000D03*
X125000000Y-75000000D03*
D13*
X83490000Y-71270000D03*
D14*
X86030000Y-71270000D03*
X88570000Y-71270000D03*
X91110000Y-71270000D03*
X93650000Y-71270000D03*
D13*
X116510000Y-71270000D03*
D14*
X113970000Y-71270000D03*
X111430000Y-71270000D03*
X108890000Y-71270000D03*
X106350000Y-71270000D03*
D13*
X116510000Y-128730000D03*
D14*
X113970000Y-128730000D03*
X111430000Y-128730000D03*
X108890000Y-128730000D03*
X106350000Y-128730000D03*
D15*
X71270000Y-116510000D03*
D16*
X71270000Y-113970000D03*
X71270000Y-111430000D03*
X71270000Y-108890000D03*
X71270000Y-106350000D03*
D15*
X71270000Y-83490000D03*
D16*
X71270000Y-86030000D03*
X71270000Y-88570000D03*
X71270000Y-91110000D03*
X71270000Y-93650000D03*
D15*
X128730000Y-83490000D03*
D16*
X128730000Y-86030000D03*
X128730000Y-88570000D03*
X128730000Y-91110000D03*
X128730000Y-93650000D03*
D15*
X128730000Y-116510000D03*
D16*
X128730000Y-113970000D03*
X128730000Y-111430000D03*
X128730000Y-108890000D03*
X128730000Y-106350000D03*
D13*
X76650000Y-106350000D03*
D14*
X79190000Y-106350000D03*
D17*
X71950000Y-104000000D03*
X71950000Y-96000000D03*
D18*
X71550000Y-103450000D03*
X71550000Y-96550000D03*
D19*
X74000000Y-102100000D03*
D20*
X74000000Y-97900000D03*
D21*
X91110000Y-77140000D03*
X93650000Y-77140000D03*
X96190000Y-77140000D03*
X98730000Y-77140000D03*
X101270000Y-77140000D03*
X103810000Y-77140000D03*
X106350000Y-77140000D03*
X108890000Y-77140000D03*
X106350000Y-122860000D03*
X108890000Y-122860000D03*
X98730000Y-122860000D03*
X101270000Y-122860000D03*
X96190000Y-122860000D03*
X103810000Y-122860000D03*
X93650000Y-122860000D03*
D22*
X91110000Y-122860000D03*
D23*
X127150000Y-103500000D03*
X127150000Y-96500000D03*
D24*
X124450000Y-102500000D03*
X124450000Y-97500000D03*
D25*
X100893600Y-96200000D03*
X89143600Y-96200000D03*
X96474100Y-74457500D03*
X100762000Y-125281500D03*
X80125300Y-113900000D03*
D26*
X73800000Y-113900000D03*
D25*
X123532578Y-85216901D03*
X86360000Y-114300000D03*
X88950000Y-85601389D03*
D26*
X73699988Y-86100000D03*
D25*
X81100000Y-107050000D03*
X75854980Y-83445000D03*
X113650000Y-88195900D03*
X89330700Y-83553400D03*
X84178059Y-81971941D03*
X78300000Y-98900000D03*
X75650000Y-87000004D03*
X98789600Y-102920300D03*
D26*
X124868000Y-92500000D03*
X124768000Y-107500000D03*
X122422592Y-97877408D03*
D25*
X121000000Y-103750000D03*
X119195700Y-101002000D03*
X90308500Y-93448800D03*
X118955900Y-98126000D03*
X119278800Y-94429100D03*
X120553200Y-76364900D03*
X109070246Y-94076300D03*
X96426500Y-94080500D03*
X83268000Y-90483200D03*
X94094400Y-89765119D03*
X111900000Y-82800000D03*
X121034359Y-107960513D03*
X92378908Y-94372544D03*
X91450000Y-98350000D03*
X91756200Y-87748600D03*
X123277962Y-92185190D03*
X96950000Y-91600000D03*
X85650000Y-77100000D03*
X89938910Y-106062926D03*
X107321425Y-114862190D03*
X85600000Y-87600000D03*
X114097600Y-78477500D03*
X86249310Y-85301100D03*
X117809200Y-78120300D03*
X120250000Y-73249999D03*
X113629840Y-82370154D03*
X91361767Y-81399310D03*
X102105613Y-78843318D03*
X99823600Y-113852600D03*
X95181700Y-106759100D03*
X96007906Y-104417092D03*
X103251249Y-78815249D03*
X105750001Y-111750000D03*
X103730118Y-112749988D03*
X103750012Y-115750000D03*
X100141200Y-109791000D03*
X96157000Y-105594800D03*
X80025200Y-104688300D03*
X116500000Y-87969300D03*
X93463853Y-94246762D03*
X90850000Y-101850000D03*
X92479192Y-81399310D03*
X112102700Y-75847100D03*
X88973272Y-80970104D03*
X109350000Y-79800000D03*
X107794754Y-111694754D03*
X108850000Y-118950000D03*
X88276007Y-80056557D03*
X84300000Y-77750000D03*
X75250000Y-85850000D03*
X90249968Y-107250000D03*
X89300000Y-87800000D03*
X95650000Y-90075000D03*
X119300000Y-91550000D03*
X89561900Y-90216500D03*
X93373300Y-90591900D03*
X120100000Y-86700000D03*
X122015600Y-114032000D03*
X92826778Y-100086464D03*
X121549473Y-98868472D03*
X94400000Y-92355500D03*
X120766502Y-99629973D03*
X94400000Y-93444500D03*
X88529269Y-76600690D03*
X88900000Y-79000000D03*
X106442500Y-89587868D03*
X112205721Y-83996052D03*
X91027900Y-85301600D03*
X100150000Y-87800000D03*
X79700000Y-90500000D03*
X85702400Y-93356600D03*
X103980000Y-95285600D03*
X76362399Y-92766045D03*
X88394700Y-92484800D03*
X105165200Y-95029500D03*
X77777219Y-90237820D03*
X104750000Y-88250000D03*
X87554343Y-89088457D03*
X80855452Y-90595248D03*
X106589800Y-101676300D03*
X76200000Y-90250000D03*
X84400000Y-97299990D03*
D27*
X95866600Y-74000000D02*
X96324100Y-74457500D01*
X96324100Y-74457500D02*
X96474100Y-74457500D01*
D28*
X83490000Y-128730000D02*
X83490000Y-128430000D01*
X83490000Y-128430000D02*
X84920000Y-127000000D01*
X84920000Y-127000000D02*
X86238700Y-127000000D01*
X86238700Y-127000000D02*
X87338700Y-125900000D01*
X87338700Y-125900000D02*
X97300000Y-125900000D01*
X97300000Y-125900000D02*
X97763600Y-125436000D01*
X97763600Y-125436000D02*
X100607500Y-125436000D01*
X95866600Y-74000000D02*
X97278700Y-74000000D01*
X97278700Y-74000000D02*
X97942300Y-74663600D01*
X97942300Y-74663600D02*
X101958000Y-74663600D01*
X101958000Y-74663600D02*
X102779000Y-73842400D01*
X102779000Y-73842400D02*
X112919000Y-73842400D01*
X112919000Y-73842400D02*
X113783000Y-72978800D01*
X113783000Y-72978800D02*
X115101000Y-72978800D01*
X115101000Y-72978800D02*
X116510000Y-71570000D01*
X116510000Y-71570000D02*
X116510000Y-71270000D01*
X83490000Y-71270000D02*
X83490000Y-71570000D01*
X83490000Y-71570000D02*
X85920000Y-74000000D01*
D27*
X100607500Y-125436000D02*
X100762000Y-125281500D01*
D28*
X100607500Y-125436000D02*
X101958000Y-125436000D01*
X101958000Y-125436000D02*
X102621000Y-126100000D01*
X102621000Y-126100000D02*
X112861000Y-126100000D01*
X112861000Y-126100000D02*
X113661000Y-126900000D01*
X113661000Y-126900000D02*
X114980000Y-126900000D01*
X114980000Y-126900000D02*
X116510000Y-128430000D01*
X116510000Y-128430000D02*
X116510000Y-128730000D01*
X126100000Y-85913700D02*
X126100000Y-85820000D01*
X126100000Y-85820000D02*
X128430000Y-83490000D01*
X128430000Y-83490000D02*
X128730000Y-83490000D01*
D27*
X73800000Y-113900000D02*
X80125300Y-113900000D01*
D28*
X71270000Y-83490000D02*
X71590000Y-83490000D01*
X71590000Y-83490000D02*
X73700000Y-85600000D01*
X71270000Y-116510000D02*
X71690000Y-116510000D01*
X71690000Y-116510000D02*
X73800000Y-114400000D01*
X73800000Y-114400000D02*
X73800000Y-113900000D01*
X124450000Y-97500000D02*
X124450000Y-102500000D01*
X85920000Y-74000000D02*
X95866600Y-74000000D01*
D27*
X124229377Y-85913700D02*
X123532578Y-85216901D01*
X126100000Y-85913700D02*
X124229377Y-85913700D01*
X85960000Y-113900000D02*
X86360000Y-114300000D01*
X80125300Y-113900000D02*
X85960000Y-113900000D01*
X89622772Y-85601389D02*
X88950000Y-85601389D01*
X89650000Y-85628617D02*
X89622772Y-85601389D01*
D28*
X73700000Y-86099988D02*
X73699988Y-86100000D01*
X73700000Y-85600000D02*
X73700000Y-86099988D01*
D27*
X81100000Y-107050000D02*
X82000000Y-106150000D01*
X94776495Y-97120934D02*
X99972666Y-97120934D01*
X99972666Y-97120934D02*
X100893600Y-96200000D01*
X89772217Y-96200000D02*
X90065704Y-96493487D01*
X89143600Y-96200000D02*
X89772217Y-96200000D01*
X94149048Y-96493487D02*
X94776495Y-97120934D01*
X90065704Y-96493487D02*
X94149048Y-96493487D01*
X73700000Y-85600000D02*
X73700000Y-85599980D01*
X75410481Y-83889499D02*
X75854980Y-83445000D01*
X73700000Y-85599980D02*
X75410481Y-83889499D01*
D28*
X126100000Y-94100000D02*
X126100000Y-85913700D01*
X124450000Y-95750000D02*
X126100000Y-94100000D01*
X124450000Y-97500000D02*
X124450000Y-95750000D01*
X128430000Y-116510000D02*
X128730000Y-116510000D01*
X124450000Y-102500000D02*
X124450000Y-104250000D01*
X126000000Y-105800000D02*
X126000000Y-114080000D01*
X124450000Y-104250000D02*
X126000000Y-105800000D01*
X126000000Y-114080000D02*
X128430000Y-116510000D01*
D27*
X87743499Y-94799899D02*
X83430101Y-94799899D01*
X82030000Y-96200000D02*
X81730000Y-96200000D01*
X83430101Y-94799899D02*
X82030000Y-96200000D01*
X89143600Y-96200000D02*
X87743499Y-94799899D01*
D29*
X104148110Y-82225644D02*
X102820354Y-83553400D01*
X113650000Y-83450000D02*
X112225644Y-82025644D01*
X102820354Y-83553400D02*
X89330700Y-83553400D01*
X110923360Y-82025644D02*
X110723360Y-82225644D01*
X113650000Y-88195900D02*
X113650000Y-83450000D01*
X112225644Y-82025644D02*
X110923360Y-82025644D01*
X110723360Y-82225644D02*
X104148110Y-82225644D01*
X80376800Y-103820000D02*
X81730000Y-103820000D01*
X78300000Y-101743200D02*
X80376800Y-103820000D01*
X78300000Y-98900000D02*
X78300000Y-101743200D01*
X80678063Y-81971941D02*
X75650000Y-87000004D01*
X84178059Y-81971941D02*
X80678063Y-81971941D01*
D28*
X123200000Y-103170900D02*
X123200000Y-96800000D01*
X123200000Y-96800000D02*
X123200000Y-97100000D01*
X123200000Y-97100000D02*
X122422592Y-97877408D01*
D27*
X121000000Y-103170900D02*
X121000000Y-103750000D01*
X123200000Y-103170900D02*
X121000000Y-103170900D01*
X101319300Y-105450000D02*
X98789600Y-102920300D01*
X121000000Y-103170900D02*
X118720900Y-105450000D01*
X118720900Y-105450000D02*
X101319300Y-105450000D01*
D28*
X124868000Y-92868100D02*
X124868000Y-92500000D01*
X124868000Y-94032000D02*
X124868000Y-92868100D01*
X123200000Y-95700000D02*
X124868000Y-94032000D01*
X123200000Y-96800000D02*
X123200000Y-95700000D01*
X123200000Y-104200000D02*
X123200000Y-103170900D01*
X123200000Y-104600000D02*
X123200000Y-104200000D01*
X124768000Y-106168000D02*
X123200000Y-104600000D01*
X124768000Y-107500000D02*
X124768000Y-106168000D01*
D27*
X118955900Y-98126000D02*
X118955900Y-100762200D01*
X118955900Y-100762200D02*
X119195700Y-101002000D01*
X77984100Y-106350000D02*
X77984100Y-104538200D01*
X77984100Y-104538200D02*
X75545900Y-102100000D01*
X75545900Y-102100000D02*
X74000000Y-102100000D01*
X79190000Y-106350000D02*
X77984100Y-106350000D01*
X114906200Y-94076300D02*
X109070246Y-94076300D01*
X118955900Y-98126000D02*
X114906200Y-94076300D01*
X120553200Y-83369050D02*
X120553200Y-76364900D01*
X119278800Y-94429100D02*
X123050101Y-90657799D01*
X123050101Y-85865951D02*
X120553200Y-83369050D01*
X123050101Y-90657799D02*
X123050101Y-85865951D01*
X90308500Y-93448800D02*
X92032354Y-95172654D01*
X97055117Y-94080500D02*
X97059317Y-94076300D01*
X96426500Y-94080500D02*
X97055117Y-94080500D01*
X94903650Y-94080500D02*
X96426500Y-94080500D01*
X93811496Y-95172654D02*
X94903650Y-94080500D01*
X92032354Y-95172654D02*
X93811496Y-95172654D01*
X97059317Y-94076300D02*
X109070246Y-94076300D01*
D28*
X86030000Y-128430000D02*
X87660000Y-126800000D01*
X87660000Y-126800000D02*
X97800000Y-126800000D01*
X97800000Y-126800000D02*
X98300000Y-126300000D01*
X98300000Y-126300000D02*
X101600000Y-126300000D01*
X101600000Y-126300000D02*
X102321000Y-127021000D01*
X102321000Y-127021000D02*
X112561000Y-127021000D01*
X112561000Y-127021000D02*
X113970000Y-128430000D01*
X113970000Y-128430000D02*
X113970000Y-128730000D01*
X86030000Y-71270000D02*
X86030000Y-71570000D01*
X86030000Y-71570000D02*
X87560000Y-73100000D01*
X87560000Y-73100000D02*
X97600000Y-73100000D01*
X97600000Y-73100000D02*
X98300000Y-73800000D01*
X98300000Y-73800000D02*
X101600000Y-73800000D01*
X101600000Y-73800000D02*
X102421000Y-72978800D01*
X102421000Y-72978800D02*
X112561000Y-72978800D01*
X112561000Y-72978800D02*
X113970000Y-71570000D01*
X113970000Y-71570000D02*
X113970000Y-71270000D01*
X86030000Y-128730000D02*
X86030000Y-128430000D01*
X127021000Y-87378800D02*
X128370000Y-86030000D01*
X127021000Y-94479000D02*
X127021000Y-87378800D01*
X125683810Y-95816190D02*
X127021000Y-94479000D01*
X125683810Y-104183810D02*
X125683810Y-95816190D01*
X128730000Y-113970000D02*
X128430000Y-113970000D01*
X128430000Y-113970000D02*
X126900000Y-112440000D01*
X128370000Y-86030000D02*
X128730000Y-86030000D01*
X126900000Y-112440000D02*
X126900000Y-105400000D01*
X126900000Y-105400000D02*
X125683810Y-104183810D01*
D29*
X92623700Y-90281400D02*
X93139981Y-89765119D01*
X93139981Y-89765119D02*
X94094400Y-89765119D01*
X94094400Y-89765119D02*
X94276165Y-89765119D01*
X91808500Y-89466200D02*
X92623700Y-90281400D01*
X89074600Y-89466200D02*
X91808500Y-89466200D01*
X87140800Y-91400000D02*
X89074600Y-89466200D01*
X83556183Y-91400000D02*
X83700000Y-91400000D01*
X83268000Y-91111817D02*
X83556183Y-91400000D01*
X83268000Y-90483200D02*
X83268000Y-91111817D01*
X83700000Y-91400000D02*
X87140800Y-91400000D01*
X98011679Y-89262178D02*
X98711680Y-89262178D01*
X94094400Y-89765119D02*
X94940230Y-88919289D01*
X94940230Y-88919289D02*
X97668789Y-88919288D01*
X97668789Y-88919288D02*
X98011679Y-89262178D01*
X111271383Y-82800000D02*
X111900000Y-82800000D01*
X104226273Y-89845110D02*
X111271383Y-82800000D01*
X99294611Y-89845110D02*
X104226273Y-89845110D01*
X98711680Y-89262178D02*
X99294611Y-89845110D01*
X92378908Y-90526192D02*
X92378908Y-94372544D01*
X92623700Y-90281400D02*
X92378908Y-90526192D01*
X101760513Y-107960513D02*
X92150000Y-98350000D01*
X92150000Y-98350000D02*
X91450000Y-98350000D01*
X121034359Y-107960513D02*
X101760513Y-107960513D01*
X81308966Y-91400000D02*
X83700000Y-91400000D01*
X71570000Y-91110000D02*
X74285712Y-88394288D01*
X71270000Y-91110000D02*
X71570000Y-91110000D01*
X77617406Y-88394288D02*
X78932932Y-89709814D01*
X74285712Y-88394288D02*
X77617406Y-88394288D01*
X80959665Y-91749301D02*
X81308966Y-91400000D01*
X78932932Y-89709814D02*
X78932932Y-91241898D01*
X79440335Y-91749301D02*
X80959665Y-91749301D01*
X78932932Y-91241898D02*
X79440335Y-91749301D01*
X97578617Y-91600000D02*
X96950000Y-91600000D01*
X118238762Y-95178401D02*
X115560361Y-92500000D01*
X120284751Y-95178401D02*
X118238762Y-95178401D01*
X123277962Y-92185190D02*
X120284751Y-95178401D01*
X115560361Y-92500000D02*
X98478617Y-92500000D01*
X98478617Y-92500000D02*
X97578617Y-91600000D01*
X87111836Y-108890000D02*
X89938910Y-106062926D01*
X71270000Y-108890000D02*
X87111836Y-108890000D01*
X89938910Y-106062926D02*
X92651138Y-103350698D01*
X103401199Y-110750699D02*
X106109665Y-110750699D01*
X106109665Y-110750699D02*
X106499301Y-111140335D01*
X106499301Y-114040066D02*
X107321425Y-114862190D01*
X96001198Y-103350698D02*
X103401199Y-110750699D01*
X106499301Y-111140335D02*
X106499301Y-114040066D01*
X92651138Y-103350698D02*
X96001198Y-103350698D01*
X86244499Y-86955501D02*
X85600000Y-87600000D01*
X91756200Y-87748600D02*
X90963101Y-86955501D01*
X90963101Y-86955501D02*
X86244499Y-86955501D01*
X85551876Y-87600000D02*
X85600000Y-87600000D01*
X85500000Y-77250000D02*
X85650000Y-77100000D01*
X85448200Y-87351800D02*
X85500000Y-87300000D01*
X85500000Y-87300000D02*
X85500000Y-77250000D01*
X103893090Y-80756411D02*
X103235821Y-81413680D01*
X94200000Y-80650000D02*
X90700410Y-80650000D01*
X86693809Y-84856601D02*
X86249310Y-85301100D01*
X112747251Y-78477500D02*
X110218340Y-81006411D01*
X110218340Y-81006411D02*
X106993592Y-81006411D01*
X114097600Y-78477500D02*
X112747251Y-78477500D01*
X103235821Y-81413680D02*
X94963680Y-81413680D01*
X106743592Y-80756411D02*
X103893090Y-80756411D01*
X86693809Y-84656601D02*
X86693809Y-84856601D01*
X90700410Y-80650000D02*
X86693809Y-84656601D01*
X94963680Y-81413680D02*
X94200000Y-80650000D01*
X106993592Y-81006411D02*
X106743592Y-80756411D01*
X117809200Y-78120300D02*
X117809200Y-75690799D01*
X119805501Y-73694498D02*
X120250000Y-73249999D01*
X117809200Y-75690799D02*
X119805501Y-73694498D01*
X92188959Y-82226502D02*
X91361767Y-81399310D01*
X112878919Y-81619233D02*
X110755020Y-81619233D01*
X110755020Y-81619233D02*
X110555020Y-81819233D01*
X103979770Y-81819233D02*
X103572501Y-82226502D01*
X113629840Y-82370154D02*
X112878919Y-81619233D01*
X110555020Y-81819233D02*
X103979770Y-81819233D01*
X103572501Y-82226502D02*
X92188959Y-82226502D01*
D27*
X91110000Y-77140000D02*
X91110000Y-77521000D01*
X101184896Y-79135418D02*
X101476996Y-78843318D01*
X91110000Y-77521000D02*
X92724418Y-79135418D01*
X92724418Y-79135418D02*
X101184896Y-79135418D01*
X101476996Y-78843318D02*
X102105613Y-78843318D01*
X95181700Y-106759100D02*
X99823600Y-111401000D01*
X99823600Y-111401000D02*
X99823600Y-113852600D01*
X94350200Y-107250200D02*
X94350200Y-106074798D01*
X98850000Y-111750000D02*
X94350200Y-107250200D01*
X94350200Y-106074798D02*
X96007906Y-104417092D01*
X98850000Y-114900000D02*
X98850000Y-111750000D01*
X96190000Y-122860000D02*
X96190000Y-122479000D01*
X99350000Y-115400000D02*
X98850000Y-114900000D01*
X96190000Y-122479000D02*
X99350000Y-119319000D01*
X99350000Y-119319000D02*
X99350000Y-115400000D01*
X93650000Y-76759000D02*
X94767610Y-75641390D01*
X94767610Y-75641390D02*
X102141390Y-75641390D01*
X102387610Y-77951610D02*
X103251249Y-78815249D01*
X102141390Y-75641390D02*
X102387610Y-75887610D01*
X93650000Y-77140000D02*
X93650000Y-76759000D01*
X102387610Y-75887610D02*
X102387610Y-77951610D01*
X101191887Y-116594475D02*
X101191888Y-115405524D01*
X103065849Y-111750000D02*
X105750001Y-111750000D01*
X102930017Y-111885832D02*
X103065849Y-111750000D01*
X103810000Y-119212588D02*
X101191887Y-116594475D01*
X102930017Y-113667395D02*
X102930017Y-111885832D01*
X103810000Y-122860000D02*
X103810000Y-119212588D01*
X101191888Y-115405524D02*
X102930017Y-113667395D01*
X103730118Y-113896237D02*
X103730118Y-112749988D01*
X106350000Y-122860000D02*
X106350000Y-121034152D01*
X101699898Y-115926457D02*
X103730118Y-113896237D01*
X101699898Y-116384050D02*
X101699898Y-115926457D01*
X106350000Y-121034152D02*
X101699898Y-116384050D01*
X108890000Y-122860000D02*
X108890000Y-120889988D01*
X108890000Y-120889988D02*
X103750012Y-115750000D01*
X101270000Y-110919800D02*
X100141200Y-109791000D01*
X101270000Y-122860000D02*
X101270000Y-117391024D01*
X100683878Y-115195098D02*
X101270000Y-114608976D01*
X101270000Y-117391024D02*
X100683877Y-116804899D01*
X100683877Y-116804899D02*
X100683878Y-115195098D01*
X101270000Y-114608976D02*
X101270000Y-110919800D01*
X98730000Y-122860000D02*
X98730000Y-121361100D01*
X96157000Y-107015400D02*
X96157000Y-105594800D01*
X100175868Y-114984672D02*
X100624000Y-114536540D01*
X100624000Y-114536540D02*
X100624000Y-111482400D01*
X98730000Y-121361100D02*
X100175868Y-119915232D01*
X100175868Y-119915232D02*
X100175868Y-114984672D01*
X100624000Y-111482400D02*
X96157000Y-107015400D01*
D29*
X74142000Y-98805100D02*
X80025200Y-104688300D01*
X74000000Y-98805100D02*
X74142000Y-98805100D01*
X74000000Y-97900000D02*
X74000000Y-98805100D01*
X116500000Y-84350000D02*
X116500000Y-87969300D01*
X119659665Y-92299301D02*
X118940335Y-92299301D01*
X120849301Y-91109665D02*
X119659665Y-92299301D01*
X118940335Y-92299301D02*
X118641034Y-92000000D01*
X118858966Y-84350000D02*
X120849301Y-86340335D01*
X94796534Y-90850000D02*
X93463853Y-92182681D01*
X99000000Y-92000000D02*
X97850000Y-90850000D01*
X120849301Y-86340335D02*
X120849301Y-91109665D01*
X116500000Y-84350000D02*
X118858966Y-84350000D01*
X93463853Y-92182681D02*
X93463853Y-94246762D01*
X118641034Y-92000000D02*
X99000000Y-92000000D01*
X97850000Y-90850000D02*
X94796534Y-90850000D01*
X84895199Y-107804801D02*
X90850000Y-101850000D01*
X73024801Y-107804801D02*
X84895199Y-107804801D01*
X71270000Y-106350000D02*
X71570000Y-106350000D01*
X71570000Y-106350000D02*
X73024801Y-107804801D01*
X103961430Y-81262822D02*
X103404161Y-81820091D01*
X103404161Y-81820091D02*
X93528590Y-81820091D01*
X113437885Y-81069231D02*
X110730271Y-81069231D01*
X106675252Y-81262822D02*
X103961430Y-81262822D01*
X116500000Y-84350000D02*
X116500000Y-84131346D01*
X93528590Y-81820091D02*
X93107809Y-81399310D01*
X106825252Y-81412822D02*
X106675252Y-81262822D01*
X110386680Y-81412822D02*
X106825252Y-81412822D01*
X116500000Y-84131346D02*
X113437885Y-81069231D01*
X110730271Y-81069231D02*
X110386680Y-81412822D01*
X93107809Y-81399310D02*
X92479192Y-81399310D01*
X104068341Y-80006409D02*
X103067481Y-81007269D01*
X106568341Y-80006409D02*
X104068341Y-80006409D01*
X107161932Y-80600000D02*
X106568341Y-80006409D01*
X110050000Y-80600000D02*
X107161932Y-80600000D01*
X112102700Y-78547300D02*
X110050000Y-80600000D01*
X112102700Y-75847100D02*
X112102700Y-78547300D01*
X95407269Y-81007269D02*
X94600000Y-80200000D01*
X94600000Y-80200000D02*
X89743376Y-80200000D01*
X89743376Y-80200000D02*
X88973272Y-80970104D01*
X103067481Y-81007269D02*
X95407269Y-81007269D01*
X88841034Y-79800000D02*
X88900000Y-79858966D01*
X106392628Y-79592628D02*
X106400000Y-79600000D01*
X106392628Y-79592628D02*
X106407372Y-79592628D01*
X106392628Y-79592628D02*
X109142628Y-79592628D01*
X109142628Y-79592628D02*
X109350000Y-79800000D01*
X107794754Y-111694754D02*
X108850000Y-112750000D01*
X108850000Y-112750000D02*
X108850000Y-118950000D01*
X89833880Y-79592628D02*
X106392628Y-79592628D01*
X88841034Y-79800000D02*
X88532564Y-79800000D01*
X88841034Y-79800000D02*
X89626508Y-79800000D01*
X88532564Y-79800000D02*
X88276007Y-80056557D01*
X89626508Y-79800000D02*
X89833880Y-79592628D01*
X84300000Y-77750000D02*
X76200000Y-85850000D01*
X76200000Y-85850000D02*
X75250000Y-85850000D01*
X86069968Y-111430000D02*
X90249968Y-107250000D01*
X71270000Y-111430000D02*
X86069968Y-111430000D01*
X86508966Y-87800000D02*
X85959665Y-88349301D01*
X85240335Y-88349301D02*
X84755847Y-87864813D01*
X85959665Y-88349301D02*
X85240335Y-88349301D01*
X84755847Y-87864813D02*
X76044155Y-87864813D01*
X72623200Y-88570000D02*
X71270000Y-88570000D01*
X75959666Y-87949302D02*
X73243898Y-87949302D01*
X73243898Y-87949302D02*
X72623200Y-88570000D01*
X89300000Y-87800000D02*
X86508966Y-87800000D01*
X76044155Y-87864813D02*
X75959666Y-87949302D01*
X99850000Y-91550000D02*
X119300000Y-91550000D01*
X98375000Y-90075000D02*
X99850000Y-91550000D01*
X95650000Y-90075000D02*
X98375000Y-90075000D01*
X88933283Y-90216500D02*
X88893373Y-90256410D01*
X89561900Y-90216500D02*
X88933283Y-90216500D01*
X88893373Y-90256410D02*
X88859140Y-90256410D01*
X88899050Y-90216500D02*
X88859140Y-90256410D01*
X89561900Y-90216500D02*
X88899050Y-90216500D01*
X81283717Y-92000000D02*
X81128005Y-92155712D01*
X78526521Y-91810238D02*
X78526521Y-89913109D01*
X72623200Y-92517832D02*
X72623200Y-92596800D01*
X78871995Y-92155712D02*
X78526521Y-91810238D01*
X76140333Y-89000699D02*
X72623200Y-92517832D01*
X81128005Y-92155712D02*
X78871995Y-92155712D01*
X88859140Y-90256410D02*
X88015550Y-91100000D01*
X88015550Y-91100000D02*
X88015550Y-91184450D01*
X71570000Y-93650000D02*
X71270000Y-93650000D01*
X78526521Y-89913109D02*
X77614111Y-89000699D01*
X87200000Y-92000000D02*
X81283717Y-92000000D01*
X88015550Y-91184450D02*
X87200000Y-92000000D01*
X72623200Y-92596800D02*
X71570000Y-93650000D01*
X77614111Y-89000699D02*
X76140333Y-89000699D01*
X93373300Y-90591900D02*
X94349134Y-90591900D01*
X94900699Y-89715335D02*
X95290335Y-89325699D01*
X94349134Y-90591900D02*
X94900699Y-90040335D01*
X116462822Y-90337178D02*
X120100000Y-86700000D01*
X97500449Y-89325699D02*
X97843339Y-89668589D01*
X99211928Y-90337178D02*
X116462822Y-90337178D01*
X94900699Y-90040335D02*
X94900699Y-89715335D01*
X98543340Y-89668589D02*
X99211928Y-90337178D01*
X97843339Y-89668589D02*
X98543340Y-89668589D01*
X95290335Y-89325699D02*
X97500449Y-89325699D01*
X103061527Y-109836277D02*
X93756213Y-100530963D01*
X122015600Y-114032000D02*
X117819877Y-109836277D01*
X93271277Y-100530963D02*
X92826778Y-100086464D01*
X117819877Y-109836277D02*
X103061527Y-109836277D01*
X93756213Y-100530963D02*
X93271277Y-100530963D01*
X121104974Y-98423973D02*
X121549473Y-98868472D01*
X120909553Y-98423973D02*
X121104974Y-98423973D01*
X94400000Y-92355500D02*
X94950911Y-92906411D01*
X115391991Y-92906411D02*
X120909553Y-98423973D01*
X94950911Y-92906411D02*
X115391991Y-92906411D01*
X95028617Y-93444500D02*
X95160295Y-93312822D01*
X120766502Y-98855684D02*
X120766502Y-99629973D01*
X94400000Y-93444500D02*
X95028617Y-93444500D01*
X95160295Y-93312822D02*
X115223640Y-93312822D01*
X115223640Y-93312822D02*
X120766502Y-98855684D01*
X88529269Y-76600690D02*
X88529269Y-78629269D01*
X88529269Y-78629269D02*
X88900000Y-79000000D01*
X112034316Y-83996052D02*
X112205721Y-83996052D01*
X106442500Y-89587868D02*
X112034316Y-83996052D01*
X93526300Y-87800000D02*
X100150000Y-87800000D01*
X93400000Y-87673700D02*
X93526300Y-87800000D01*
X91027900Y-85301600D02*
X93400000Y-87673700D01*
X79800000Y-89900000D02*
X79800000Y-90000000D01*
X81360844Y-88339156D02*
X79800000Y-89900000D01*
X81360844Y-88339156D02*
X81660844Y-88339156D01*
X79800000Y-89900000D02*
X79800000Y-90400000D01*
X79800000Y-90400000D02*
X79700000Y-90500000D01*
X86128005Y-88755712D02*
X85071995Y-88755712D01*
X85071995Y-88755712D02*
X84655439Y-88339156D01*
X86544561Y-88339156D02*
X86128005Y-88755712D01*
X93400000Y-87673700D02*
X92470810Y-88602890D01*
X84655439Y-88339156D02*
X81360844Y-88339156D01*
X92470810Y-88602890D02*
X88177742Y-88602890D01*
X88177742Y-88602890D02*
X87914008Y-88339156D01*
X87914008Y-88339156D02*
X86544561Y-88339156D01*
X88351106Y-93356600D02*
X85702400Y-93356600D01*
X91030782Y-96036276D02*
X88351106Y-93356600D01*
X94169218Y-96036276D02*
X91030782Y-96036276D01*
X94766872Y-95438622D02*
X94169218Y-96036276D01*
X103198361Y-95438622D02*
X94766872Y-95438622D01*
X103980000Y-95285600D02*
X103351383Y-95285600D01*
X103351383Y-95285600D02*
X103198361Y-95438622D01*
X76952954Y-93356600D02*
X76362399Y-92766045D01*
X85702400Y-93356600D02*
X76952954Y-93356600D01*
X104671700Y-94536000D02*
X99299000Y-94536000D01*
X88839199Y-92929299D02*
X88394700Y-92484800D01*
X91199122Y-95629865D02*
X88839199Y-93269942D01*
X105165200Y-95029500D02*
X104671700Y-94536000D01*
X94000878Y-95629865D02*
X91199122Y-95629865D01*
X88839199Y-93269942D02*
X88839199Y-92929299D01*
X94607289Y-95023454D02*
X94000878Y-95629865D01*
X98811546Y-95023454D02*
X94607289Y-95023454D01*
X99299000Y-94536000D02*
X98811546Y-95023454D01*
X78703655Y-92562123D02*
X77777219Y-91635687D01*
X81296345Y-92562123D02*
X78703655Y-92562123D01*
X77777219Y-91635687D02*
X77777219Y-90237820D01*
X88394700Y-92484800D02*
X81373668Y-92484800D01*
X81373668Y-92484800D02*
X81296345Y-92562123D01*
X94136542Y-89013458D02*
X88257959Y-89013458D01*
X104750000Y-88250000D02*
X104305501Y-88694499D01*
X88257959Y-89013458D02*
X88182960Y-89088457D01*
X97850000Y-88500000D02*
X94650000Y-88500000D01*
X94650000Y-88500000D02*
X94136542Y-89013458D01*
X88182960Y-89088457D02*
X87554343Y-89088457D01*
X104305501Y-88694499D02*
X98044499Y-88694499D01*
X98044499Y-88694499D02*
X97850000Y-88500000D01*
X82362243Y-89088457D02*
X80855452Y-90595248D01*
X84829989Y-89088457D02*
X82362243Y-89088457D01*
X85274488Y-89532956D02*
X84829989Y-89088457D01*
X87109844Y-89532956D02*
X85274488Y-89532956D01*
X87554343Y-89088457D02*
X87109844Y-89532956D01*
X106589800Y-101676300D02*
X98685268Y-101676300D01*
X75605501Y-93214469D02*
X79791032Y-97400000D01*
X98685268Y-101676300D02*
X94308958Y-97299990D01*
X76200000Y-90250000D02*
X75605501Y-90844499D01*
X83771383Y-97299990D02*
X84400000Y-97299990D01*
X94308958Y-97299990D02*
X85028617Y-97299990D01*
X85028617Y-97299990D02*
X84400000Y-97299990D01*
X83671373Y-97400000D02*
X83771383Y-97299990D01*
X79791032Y-97400000D02*
X83671373Y-97400000D01*
X75605501Y-90844499D02*
X75605501Y-93214469D01*
D30*
G36*
X122260200Y-104507446D02*
X122241790Y-104600000D01*
X122260200Y-104692554D01*
X122260200Y-104692558D01*
X122314728Y-104966690D01*
X122314729Y-104966691D01*
X122314729Y-104966692D01*
X122470012Y-105199089D01*
X122522443Y-105277557D01*
X122600910Y-105329988D01*
X123828201Y-106557278D01*
X123828201Y-106589867D01*
X123659047Y-106759021D01*
X123459900Y-107239803D01*
X123459900Y-107760197D01*
X123659047Y-108240979D01*
X124027021Y-108608953D01*
X124507803Y-108808100D01*
X125028197Y-108808100D01*
X125508979Y-108608953D01*
X125876953Y-108240979D01*
X125960201Y-108040002D01*
X125960200Y-112347446D01*
X125941790Y-112440000D01*
X125960200Y-112532554D01*
X125960200Y-112532558D01*
X126014728Y-112806690D01*
X126014729Y-112806691D01*
X126014729Y-112806692D01*
X126170012Y-113039089D01*
X126222443Y-113117557D01*
X126300910Y-113169988D01*
X126946604Y-113815681D01*
X126915908Y-113970000D01*
X127031161Y-114549418D01*
X127359375Y-115040625D01*
X127381033Y-115055096D01*
X127220302Y-115121673D01*
X127041673Y-115300301D01*
X126945000Y-115533690D01*
X126945000Y-116224250D01*
X127103750Y-116383000D01*
X128603000Y-116383000D01*
X128603000Y-116363000D01*
X128857000Y-116363000D01*
X128857000Y-116383000D01*
X128877000Y-116383000D01*
X128877000Y-116637000D01*
X128857000Y-116637000D01*
X128857000Y-117836250D01*
X129015750Y-117995000D01*
X129174501Y-117995000D01*
X129174501Y-124963224D01*
X129135000Y-125405824D01*
X129135000Y-124177497D01*
X128505483Y-122657711D01*
X127342289Y-121494517D01*
X125822503Y-120865000D01*
X124177497Y-120865000D01*
X122657711Y-121494517D01*
X121494517Y-122657711D01*
X120865000Y-124177497D01*
X120865000Y-125822503D01*
X121494517Y-127342289D01*
X122657711Y-128505483D01*
X124177497Y-129135000D01*
X125507623Y-129135000D01*
X124969732Y-129174500D01*
X117995000Y-129174500D01*
X117995000Y-129015750D01*
X117836250Y-128857000D01*
X116637000Y-128857000D01*
X116637000Y-128877000D01*
X116383000Y-128877000D01*
X116383000Y-128857000D01*
X116363000Y-128857000D01*
X116363000Y-128603000D01*
X116383000Y-128603000D01*
X116383000Y-127103750D01*
X116637000Y-127103750D01*
X116637000Y-128603000D01*
X117836250Y-128603000D01*
X117995000Y-128444250D01*
X117995000Y-127453691D01*
X117898327Y-127220302D01*
X117719699Y-127041673D01*
X117486310Y-126945000D01*
X116795750Y-126945000D01*
X116637000Y-127103750D01*
X116383000Y-127103750D01*
X116224250Y-126945000D01*
X115533690Y-126945000D01*
X115300301Y-127041673D01*
X115121673Y-127220302D01*
X115055096Y-127381033D01*
X115040625Y-127359375D01*
X114549417Y-127031161D01*
X113970000Y-126915908D01*
X113815681Y-126946604D01*
X113290987Y-126421910D01*
X113238557Y-126343443D01*
X112927691Y-126135728D01*
X112653559Y-126081200D01*
X112653554Y-126081200D01*
X112561000Y-126062790D01*
X112468446Y-126081200D01*
X102710278Y-126081200D01*
X102329987Y-125700910D01*
X102277557Y-125622443D01*
X101966691Y-125414728D01*
X101692559Y-125360200D01*
X101692554Y-125360200D01*
X101600000Y-125341790D01*
X101507446Y-125360200D01*
X98392554Y-125360200D01*
X98300000Y-125341790D01*
X98207446Y-125360200D01*
X98207441Y-125360200D01*
X97933309Y-125414728D01*
X97622443Y-125622443D01*
X97570012Y-125700911D01*
X97410723Y-125860200D01*
X87752553Y-125860200D01*
X87659999Y-125841790D01*
X87567445Y-125860200D01*
X87567441Y-125860200D01*
X87293309Y-125914728D01*
X87293308Y-125914729D01*
X87293307Y-125914729D01*
X87227342Y-125958806D01*
X86982443Y-126122443D01*
X86930012Y-126200911D01*
X86184319Y-126946604D01*
X86030000Y-126915908D01*
X85450583Y-127031161D01*
X84959375Y-127359375D01*
X84944904Y-127381033D01*
X84878327Y-127220302D01*
X84699699Y-127041673D01*
X84466310Y-126945000D01*
X83775750Y-126945000D01*
X83617000Y-127103750D01*
X83617000Y-128603000D01*
X83637000Y-128603000D01*
X83637000Y-128857000D01*
X83617000Y-128857000D01*
X83617000Y-128877000D01*
X83363000Y-128877000D01*
X83363000Y-128857000D01*
X82163750Y-128857000D01*
X82005000Y-129015750D01*
X82005000Y-129174500D01*
X75036765Y-129174500D01*
X74594176Y-129135000D01*
X75822503Y-129135000D01*
X77342289Y-128505483D01*
X78394081Y-127453691D01*
X82005000Y-127453691D01*
X82005000Y-128444250D01*
X82163750Y-128603000D01*
X83363000Y-128603000D01*
X83363000Y-127103750D01*
X83204250Y-126945000D01*
X82513690Y-126945000D01*
X82280301Y-127041673D01*
X82101673Y-127220302D01*
X82005000Y-127453691D01*
X78394081Y-127453691D01*
X78505483Y-127342289D01*
X79135000Y-125822503D01*
X79135000Y-124177497D01*
X78505483Y-122657711D01*
X77342289Y-121494517D01*
X75822503Y-120865000D01*
X74177497Y-120865000D01*
X72657711Y-121494517D01*
X71494517Y-122657711D01*
X70865000Y-124177497D01*
X70865000Y-125507623D01*
X70825500Y-124969732D01*
X70825500Y-117995000D01*
X70984250Y-117995000D01*
X71143000Y-117836250D01*
X71143000Y-116637000D01*
X71397000Y-116637000D01*
X71397000Y-117836250D01*
X71555750Y-117995000D01*
X72546309Y-117995000D01*
X72779698Y-117898327D01*
X72958327Y-117719699D01*
X73055000Y-117486310D01*
X73055000Y-116795750D01*
X72896250Y-116637000D01*
X71397000Y-116637000D01*
X71143000Y-116637000D01*
X71123000Y-116637000D01*
X71123000Y-116383000D01*
X71143000Y-116383000D01*
X71143000Y-116363000D01*
X71397000Y-116363000D01*
X71397000Y-116383000D01*
X72896250Y-116383000D01*
X73055000Y-116224250D01*
X73055000Y-115533690D01*
X72958327Y-115300301D01*
X72779698Y-115121673D01*
X72618967Y-115055096D01*
X72640625Y-115040625D01*
X72968839Y-114549418D01*
X73084092Y-113970000D01*
X72968839Y-113390582D01*
X72640625Y-112899375D01*
X72342239Y-112700000D01*
X72640625Y-112500625D01*
X72863813Y-112166600D01*
X85997428Y-112166600D01*
X86069968Y-112181029D01*
X86142508Y-112166600D01*
X86142512Y-112166600D01*
X86357375Y-112123861D01*
X86601026Y-111961058D01*
X86642119Y-111899558D01*
X90212178Y-108329500D01*
X90464694Y-108329500D01*
X90861456Y-108165156D01*
X91165124Y-107861488D01*
X91329468Y-107464726D01*
X91329468Y-107035274D01*
X91165124Y-106638512D01*
X90955688Y-106429076D01*
X91018410Y-106277652D01*
X91018410Y-106025135D01*
X92956248Y-104087298D01*
X94976069Y-104087298D01*
X94928406Y-104202366D01*
X94928406Y-104383040D01*
X93848263Y-105463184D01*
X93782517Y-105507114D01*
X93738587Y-105572860D01*
X93608486Y-105767570D01*
X93547374Y-106074798D01*
X93562801Y-106152353D01*
X93562800Y-107172648D01*
X93547374Y-107250200D01*
X93562800Y-107327751D01*
X93608485Y-107557427D01*
X93782516Y-107817884D01*
X93848265Y-107861816D01*
X98062601Y-112076153D01*
X98062600Y-114822449D01*
X98047174Y-114900000D01*
X98062600Y-114977551D01*
X98108285Y-115207227D01*
X98282316Y-115467684D01*
X98348065Y-115511616D01*
X98562601Y-115726152D01*
X98562600Y-118992848D01*
X96449249Y-121106200D01*
X96190000Y-121054632D01*
X95644918Y-121163056D01*
X95182820Y-121471821D01*
X94920000Y-121865159D01*
X94657179Y-121471820D01*
X94195081Y-121163056D01*
X93650000Y-121054632D01*
X93104918Y-121163056D01*
X92642820Y-121471821D01*
X92510162Y-121670357D01*
X92470157Y-121469235D01*
X92329809Y-121259191D01*
X92119765Y-121118843D01*
X91872000Y-121069560D01*
X90348000Y-121069560D01*
X90100235Y-121118843D01*
X89890191Y-121259191D01*
X89749843Y-121469235D01*
X89700560Y-121717000D01*
X89700560Y-124003000D01*
X89749843Y-124250765D01*
X89890191Y-124460809D01*
X90100235Y-124601157D01*
X90348000Y-124650440D01*
X91872000Y-124650440D01*
X92119765Y-124601157D01*
X92329809Y-124460809D01*
X92470157Y-124250765D01*
X92510162Y-124049643D01*
X92642821Y-124248180D01*
X93104919Y-124556944D01*
X93650000Y-124665368D01*
X94195082Y-124556944D01*
X94657180Y-124248180D01*
X94920000Y-123854842D01*
X95182821Y-124248180D01*
X95644919Y-124556944D01*
X96190000Y-124665368D01*
X96735082Y-124556944D01*
X97197180Y-124248180D01*
X97460000Y-123854842D01*
X97722821Y-124248180D01*
X98184919Y-124556944D01*
X98730000Y-124665368D01*
X99275082Y-124556944D01*
X99737180Y-124248180D01*
X100000000Y-123854842D01*
X100262821Y-124248180D01*
X100724919Y-124556944D01*
X101270000Y-124665368D01*
X101815082Y-124556944D01*
X102277180Y-124248180D01*
X102540000Y-123854842D01*
X102802821Y-124248180D01*
X103264919Y-124556944D01*
X103810000Y-124665368D01*
X104355082Y-124556944D01*
X104817180Y-124248180D01*
X105080000Y-123854842D01*
X105342821Y-124248180D01*
X105804919Y-124556944D01*
X106350000Y-124665368D01*
X106895082Y-124556944D01*
X107357180Y-124248180D01*
X107620000Y-123854842D01*
X107882821Y-124248180D01*
X108344919Y-124556944D01*
X108890000Y-124665368D01*
X109435082Y-124556944D01*
X109897180Y-124248180D01*
X110205944Y-123786082D01*
X110287000Y-123378587D01*
X110287000Y-122341412D01*
X110205944Y-121933918D01*
X109897179Y-121471820D01*
X109677400Y-121324968D01*
X109677400Y-120967539D01*
X109692826Y-120889988D01*
X109673617Y-120793416D01*
X109631715Y-120582760D01*
X109457684Y-120322304D01*
X109391938Y-120278374D01*
X109120119Y-120006555D01*
X109461488Y-119865156D01*
X109765156Y-119561488D01*
X109929500Y-119164726D01*
X109929500Y-118735274D01*
X109765156Y-118338512D01*
X109586600Y-118159956D01*
X109586600Y-116795750D01*
X126945000Y-116795750D01*
X126945000Y-117486310D01*
X127041673Y-117719699D01*
X127220302Y-117898327D01*
X127453691Y-117995000D01*
X128444250Y-117995000D01*
X128603000Y-117836250D01*
X128603000Y-116637000D01*
X127103750Y-116637000D01*
X126945000Y-116795750D01*
X109586600Y-116795750D01*
X109586600Y-112822540D01*
X109601029Y-112749999D01*
X109586600Y-112677457D01*
X109586600Y-112677456D01*
X109543861Y-112462593D01*
X109447035Y-112317683D01*
X109422151Y-112280441D01*
X109422149Y-112280439D01*
X109381058Y-112218942D01*
X109319561Y-112177851D01*
X108874254Y-111732544D01*
X108874254Y-111480028D01*
X108709910Y-111083266D01*
X108406242Y-110779598D01*
X108009480Y-110615254D01*
X107580028Y-110615254D01*
X107183266Y-110779598D01*
X107159826Y-110803038D01*
X107030359Y-110609277D01*
X106975883Y-110572877D01*
X117514768Y-110572877D01*
X120936100Y-113994209D01*
X120936100Y-114246726D01*
X121100444Y-114643488D01*
X121404112Y-114947156D01*
X121800874Y-115111500D01*
X122230326Y-115111500D01*
X122627088Y-114947156D01*
X122930756Y-114643488D01*
X123095100Y-114246726D01*
X123095100Y-113817274D01*
X122930756Y-113420512D01*
X122627088Y-113116844D01*
X122230326Y-112952500D01*
X121977809Y-112952500D01*
X118392027Y-109366718D01*
X118350935Y-109305219D01*
X118107284Y-109142416D01*
X117892421Y-109099677D01*
X117892417Y-109099677D01*
X117819877Y-109085248D01*
X117747337Y-109099677D01*
X103366637Y-109099677D01*
X102964073Y-108697113D01*
X120244315Y-108697113D01*
X120422871Y-108875669D01*
X120819633Y-109040013D01*
X121249085Y-109040013D01*
X121645847Y-108875669D01*
X121949515Y-108572001D01*
X122113859Y-108175239D01*
X122113859Y-107745787D01*
X121949515Y-107349025D01*
X121645847Y-107045357D01*
X121249085Y-106881013D01*
X120819633Y-106881013D01*
X120422871Y-107045357D01*
X120244315Y-107223913D01*
X102065623Y-107223913D01*
X101038727Y-106197017D01*
X101241748Y-106237400D01*
X101319299Y-106252826D01*
X101396850Y-106237400D01*
X118643349Y-106237400D01*
X118720900Y-106252826D01*
X118798451Y-106237400D01*
X118798452Y-106237400D01*
X119028128Y-106191715D01*
X119288584Y-106017684D01*
X119332516Y-105951935D01*
X120551701Y-104732751D01*
X120785274Y-104829500D01*
X121214726Y-104829500D01*
X121611488Y-104665156D01*
X121915156Y-104361488D01*
X122079500Y-103964726D01*
X122079500Y-103958300D01*
X122260200Y-103958300D01*
X122260200Y-104507446D01*
X122260200Y-104507446D01*
G37*
X122260200Y-104507446D02*
X122241790Y-104600000D01*
X122260200Y-104692554D01*
X122260200Y-104692558D01*
X122314728Y-104966690D01*
X122314729Y-104966691D01*
X122314729Y-104966692D01*
X122470012Y-105199089D01*
X122522443Y-105277557D01*
X122600910Y-105329988D01*
X123828201Y-106557278D01*
X123828201Y-106589867D01*
X123659047Y-106759021D01*
X123459900Y-107239803D01*
X123459900Y-107760197D01*
X123659047Y-108240979D01*
X124027021Y-108608953D01*
X124507803Y-108808100D01*
X125028197Y-108808100D01*
X125508979Y-108608953D01*
X125876953Y-108240979D01*
X125960201Y-108040002D01*
X125960200Y-112347446D01*
X125941790Y-112440000D01*
X125960200Y-112532554D01*
X125960200Y-112532558D01*
X126014728Y-112806690D01*
X126014729Y-112806691D01*
X126014729Y-112806692D01*
X126170012Y-113039089D01*
X126222443Y-113117557D01*
X126300910Y-113169988D01*
X126946604Y-113815681D01*
X126915908Y-113970000D01*
X127031161Y-114549418D01*
X127359375Y-115040625D01*
X127381033Y-115055096D01*
X127220302Y-115121673D01*
X127041673Y-115300301D01*
X126945000Y-115533690D01*
X126945000Y-116224250D01*
X127103750Y-116383000D01*
X128603000Y-116383000D01*
X128603000Y-116363000D01*
X128857000Y-116363000D01*
X128857000Y-116383000D01*
X128877000Y-116383000D01*
X128877000Y-116637000D01*
X128857000Y-116637000D01*
X128857000Y-117836250D01*
X129015750Y-117995000D01*
X129174501Y-117995000D01*
X129174501Y-124963224D01*
X129135000Y-125405824D01*
X129135000Y-124177497D01*
X128505483Y-122657711D01*
X127342289Y-121494517D01*
X125822503Y-120865000D01*
X124177497Y-120865000D01*
X122657711Y-121494517D01*
X121494517Y-122657711D01*
X120865000Y-124177497D01*
X120865000Y-125822503D01*
X121494517Y-127342289D01*
X122657711Y-128505483D01*
X124177497Y-129135000D01*
X125507623Y-129135000D01*
X124969732Y-129174500D01*
X117995000Y-129174500D01*
X117995000Y-129015750D01*
X117836250Y-128857000D01*
X116637000Y-128857000D01*
X116637000Y-128877000D01*
X116383000Y-128877000D01*
X116383000Y-128857000D01*
X116363000Y-128857000D01*
X116363000Y-128603000D01*
X116383000Y-128603000D01*
X116383000Y-127103750D01*
X116637000Y-127103750D01*
X116637000Y-128603000D01*
X117836250Y-128603000D01*
X117995000Y-128444250D01*
X117995000Y-127453691D01*
X117898327Y-127220302D01*
X117719699Y-127041673D01*
X117486310Y-126945000D01*
X116795750Y-126945000D01*
X116637000Y-127103750D01*
X116383000Y-127103750D01*
X116224250Y-126945000D01*
X115533690Y-126945000D01*
X115300301Y-127041673D01*
X115121673Y-127220302D01*
X115055096Y-127381033D01*
X115040625Y-127359375D01*
X114549417Y-127031161D01*
X113970000Y-126915908D01*
X113815681Y-126946604D01*
X113290987Y-126421910D01*
X113238557Y-126343443D01*
X112927691Y-126135728D01*
X112653559Y-126081200D01*
X112653554Y-126081200D01*
X112561000Y-126062790D01*
X112468446Y-126081200D01*
X102710278Y-126081200D01*
X102329987Y-125700910D01*
X102277557Y-125622443D01*
X101966691Y-125414728D01*
X101692559Y-125360200D01*
X101692554Y-125360200D01*
X101600000Y-125341790D01*
X101507446Y-125360200D01*
X98392554Y-125360200D01*
X98300000Y-125341790D01*
X98207446Y-125360200D01*
X98207441Y-125360200D01*
X97933309Y-125414728D01*
X97622443Y-125622443D01*
X97570012Y-125700911D01*
X97410723Y-125860200D01*
X87752553Y-125860200D01*
X87659999Y-125841790D01*
X87567445Y-125860200D01*
X87567441Y-125860200D01*
X87293309Y-125914728D01*
X87293308Y-125914729D01*
X87293307Y-125914729D01*
X87227342Y-125958806D01*
X86982443Y-126122443D01*
X86930012Y-126200911D01*
X86184319Y-126946604D01*
X86030000Y-126915908D01*
X85450583Y-127031161D01*
X84959375Y-127359375D01*
X84944904Y-127381033D01*
X84878327Y-127220302D01*
X84699699Y-127041673D01*
X84466310Y-126945000D01*
X83775750Y-126945000D01*
X83617000Y-127103750D01*
X83617000Y-128603000D01*
X83637000Y-128603000D01*
X83637000Y-128857000D01*
X83617000Y-128857000D01*
X83617000Y-128877000D01*
X83363000Y-128877000D01*
X83363000Y-128857000D01*
X82163750Y-128857000D01*
X82005000Y-129015750D01*
X82005000Y-129174500D01*
X75036765Y-129174500D01*
X74594176Y-129135000D01*
X75822503Y-129135000D01*
X77342289Y-128505483D01*
X78394081Y-127453691D01*
X82005000Y-127453691D01*
X82005000Y-128444250D01*
X82163750Y-128603000D01*
X83363000Y-128603000D01*
X83363000Y-127103750D01*
X83204250Y-126945000D01*
X82513690Y-126945000D01*
X82280301Y-127041673D01*
X82101673Y-127220302D01*
X82005000Y-127453691D01*
X78394081Y-127453691D01*
X78505483Y-127342289D01*
X79135000Y-125822503D01*
X79135000Y-124177497D01*
X78505483Y-122657711D01*
X77342289Y-121494517D01*
X75822503Y-120865000D01*
X74177497Y-120865000D01*
X72657711Y-121494517D01*
X71494517Y-122657711D01*
X70865000Y-124177497D01*
X70865000Y-125507623D01*
X70825500Y-124969732D01*
X70825500Y-117995000D01*
X70984250Y-117995000D01*
X71143000Y-117836250D01*
X71143000Y-116637000D01*
X71397000Y-116637000D01*
X71397000Y-117836250D01*
X71555750Y-117995000D01*
X72546309Y-117995000D01*
X72779698Y-117898327D01*
X72958327Y-117719699D01*
X73055000Y-117486310D01*
X73055000Y-116795750D01*
X72896250Y-116637000D01*
X71397000Y-116637000D01*
X71143000Y-116637000D01*
X71123000Y-116637000D01*
X71123000Y-116383000D01*
X71143000Y-116383000D01*
X71143000Y-116363000D01*
X71397000Y-116363000D01*
X71397000Y-116383000D01*
X72896250Y-116383000D01*
X73055000Y-116224250D01*
X73055000Y-115533690D01*
X72958327Y-115300301D01*
X72779698Y-115121673D01*
X72618967Y-115055096D01*
X72640625Y-115040625D01*
X72968839Y-114549418D01*
X73084092Y-113970000D01*
X72968839Y-113390582D01*
X72640625Y-112899375D01*
X72342239Y-112700000D01*
X72640625Y-112500625D01*
X72863813Y-112166600D01*
X85997428Y-112166600D01*
X86069968Y-112181029D01*
X86142508Y-112166600D01*
X86142512Y-112166600D01*
X86357375Y-112123861D01*
X86601026Y-111961058D01*
X86642119Y-111899558D01*
X90212178Y-108329500D01*
X90464694Y-108329500D01*
X90861456Y-108165156D01*
X91165124Y-107861488D01*
X91329468Y-107464726D01*
X91329468Y-107035274D01*
X91165124Y-106638512D01*
X90955688Y-106429076D01*
X91018410Y-106277652D01*
X91018410Y-106025135D01*
X92956248Y-104087298D01*
X94976069Y-104087298D01*
X94928406Y-104202366D01*
X94928406Y-104383040D01*
X93848263Y-105463184D01*
X93782517Y-105507114D01*
X93738587Y-105572860D01*
X93608486Y-105767570D01*
X93547374Y-106074798D01*
X93562801Y-106152353D01*
X93562800Y-107172648D01*
X93547374Y-107250200D01*
X93562800Y-107327751D01*
X93608485Y-107557427D01*
X93782516Y-107817884D01*
X93848265Y-107861816D01*
X98062601Y-112076153D01*
X98062600Y-114822449D01*
X98047174Y-114900000D01*
X98062600Y-114977551D01*
X98108285Y-115207227D01*
X98282316Y-115467684D01*
X98348065Y-115511616D01*
X98562601Y-115726152D01*
X98562600Y-118992848D01*
X96449249Y-121106200D01*
X96190000Y-121054632D01*
X95644918Y-121163056D01*
X95182820Y-121471821D01*
X94920000Y-121865159D01*
X94657179Y-121471820D01*
X94195081Y-121163056D01*
X93650000Y-121054632D01*
X93104918Y-121163056D01*
X92642820Y-121471821D01*
X92510162Y-121670357D01*
X92470157Y-121469235D01*
X92329809Y-121259191D01*
X92119765Y-121118843D01*
X91872000Y-121069560D01*
X90348000Y-121069560D01*
X90100235Y-121118843D01*
X89890191Y-121259191D01*
X89749843Y-121469235D01*
X89700560Y-121717000D01*
X89700560Y-124003000D01*
X89749843Y-124250765D01*
X89890191Y-124460809D01*
X90100235Y-124601157D01*
X90348000Y-124650440D01*
X91872000Y-124650440D01*
X92119765Y-124601157D01*
X92329809Y-124460809D01*
X92470157Y-124250765D01*
X92510162Y-124049643D01*
X92642821Y-124248180D01*
X93104919Y-124556944D01*
X93650000Y-124665368D01*
X94195082Y-124556944D01*
X94657180Y-124248180D01*
X94920000Y-123854842D01*
X95182821Y-124248180D01*
X95644919Y-124556944D01*
X96190000Y-124665368D01*
X96735082Y-124556944D01*
X97197180Y-124248180D01*
X97460000Y-123854842D01*
X97722821Y-124248180D01*
X98184919Y-124556944D01*
X98730000Y-124665368D01*
X99275082Y-124556944D01*
X99737180Y-124248180D01*
X100000000Y-123854842D01*
X100262821Y-124248180D01*
X100724919Y-124556944D01*
X101270000Y-124665368D01*
X101815082Y-124556944D01*
X102277180Y-124248180D01*
X102540000Y-123854842D01*
X102802821Y-124248180D01*
X103264919Y-124556944D01*
X103810000Y-124665368D01*
X104355082Y-124556944D01*
X104817180Y-124248180D01*
X105080000Y-123854842D01*
X105342821Y-124248180D01*
X105804919Y-124556944D01*
X106350000Y-124665368D01*
X106895082Y-124556944D01*
X107357180Y-124248180D01*
X107620000Y-123854842D01*
X107882821Y-124248180D01*
X108344919Y-124556944D01*
X108890000Y-124665368D01*
X109435082Y-124556944D01*
X109897180Y-124248180D01*
X110205944Y-123786082D01*
X110287000Y-123378587D01*
X110287000Y-122341412D01*
X110205944Y-121933918D01*
X109897179Y-121471820D01*
X109677400Y-121324968D01*
X109677400Y-120967539D01*
X109692826Y-120889988D01*
X109673617Y-120793416D01*
X109631715Y-120582760D01*
X109457684Y-120322304D01*
X109391938Y-120278374D01*
X109120119Y-120006555D01*
X109461488Y-119865156D01*
X109765156Y-119561488D01*
X109929500Y-119164726D01*
X109929500Y-118735274D01*
X109765156Y-118338512D01*
X109586600Y-118159956D01*
X109586600Y-116795750D01*
X126945000Y-116795750D01*
X126945000Y-117486310D01*
X127041673Y-117719699D01*
X127220302Y-117898327D01*
X127453691Y-117995000D01*
X128444250Y-117995000D01*
X128603000Y-117836250D01*
X128603000Y-116637000D01*
X127103750Y-116637000D01*
X126945000Y-116795750D01*
X109586600Y-116795750D01*
X109586600Y-112822540D01*
X109601029Y-112749999D01*
X109586600Y-112677457D01*
X109586600Y-112677456D01*
X109543861Y-112462593D01*
X109447035Y-112317683D01*
X109422151Y-112280441D01*
X109422149Y-112280439D01*
X109381058Y-112218942D01*
X109319561Y-112177851D01*
X108874254Y-111732544D01*
X108874254Y-111480028D01*
X108709910Y-111083266D01*
X108406242Y-110779598D01*
X108009480Y-110615254D01*
X107580028Y-110615254D01*
X107183266Y-110779598D01*
X107159826Y-110803038D01*
X107030359Y-110609277D01*
X106975883Y-110572877D01*
X117514768Y-110572877D01*
X120936100Y-113994209D01*
X120936100Y-114246726D01*
X121100444Y-114643488D01*
X121404112Y-114947156D01*
X121800874Y-115111500D01*
X122230326Y-115111500D01*
X122627088Y-114947156D01*
X122930756Y-114643488D01*
X123095100Y-114246726D01*
X123095100Y-113817274D01*
X122930756Y-113420512D01*
X122627088Y-113116844D01*
X122230326Y-112952500D01*
X121977809Y-112952500D01*
X118392027Y-109366718D01*
X118350935Y-109305219D01*
X118107284Y-109142416D01*
X117892421Y-109099677D01*
X117892417Y-109099677D01*
X117819877Y-109085248D01*
X117747337Y-109099677D01*
X103366637Y-109099677D01*
X102964073Y-108697113D01*
X120244315Y-108697113D01*
X120422871Y-108875669D01*
X120819633Y-109040013D01*
X121249085Y-109040013D01*
X121645847Y-108875669D01*
X121949515Y-108572001D01*
X122113859Y-108175239D01*
X122113859Y-107745787D01*
X121949515Y-107349025D01*
X121645847Y-107045357D01*
X121249085Y-106881013D01*
X120819633Y-106881013D01*
X120422871Y-107045357D01*
X120244315Y-107223913D01*
X102065623Y-107223913D01*
X101038727Y-106197017D01*
X101241748Y-106237400D01*
X101319299Y-106252826D01*
X101396850Y-106237400D01*
X118643349Y-106237400D01*
X118720900Y-106252826D01*
X118798451Y-106237400D01*
X118798452Y-106237400D01*
X119028128Y-106191715D01*
X119288584Y-106017684D01*
X119332516Y-105951935D01*
X120551701Y-104732751D01*
X120785274Y-104829500D01*
X121214726Y-104829500D01*
X121611488Y-104665156D01*
X121915156Y-104361488D01*
X122079500Y-103964726D01*
X122079500Y-103958300D01*
X122260200Y-103958300D01*
X122260200Y-104507446D01*
G36*
X90370500Y-98135274D02*
X90370500Y-98564726D01*
X90534844Y-98961488D01*
X90838512Y-99265156D01*
X91235274Y-99429500D01*
X91664726Y-99429500D01*
X92034589Y-99276298D01*
X92072444Y-99314154D01*
X91911622Y-99474976D01*
X91747278Y-99871738D01*
X91747278Y-100301190D01*
X91911622Y-100697952D01*
X92215290Y-101001620D01*
X92612052Y-101165964D01*
X92895780Y-101165964D01*
X92983870Y-101224824D01*
X93198733Y-101267563D01*
X93198736Y-101267563D01*
X93271277Y-101281992D01*
X93343817Y-101267563D01*
X93451104Y-101267563D01*
X94797639Y-102614098D01*
X92723678Y-102614098D01*
X92651138Y-102599669D01*
X92578597Y-102614098D01*
X92578594Y-102614098D01*
X92363731Y-102656837D01*
X92181579Y-102778547D01*
X92181577Y-102778549D01*
X92120080Y-102819640D01*
X92078989Y-102881138D01*
X89976701Y-104983426D01*
X89724184Y-104983426D01*
X89327422Y-105147770D01*
X89023754Y-105451438D01*
X88859410Y-105848200D01*
X88859410Y-106100717D01*
X86806727Y-108153400D01*
X85588309Y-108153400D01*
X90812209Y-102929500D01*
X91064726Y-102929500D01*
X91461488Y-102765156D01*
X91765156Y-102461488D01*
X91929500Y-102064726D01*
X91929500Y-101635274D01*
X91765156Y-101238512D01*
X91461488Y-100934844D01*
X91064726Y-100770500D01*
X90635274Y-100770500D01*
X90238512Y-100934844D01*
X89934844Y-101238512D01*
X89770500Y-101635274D01*
X89770500Y-101887791D01*
X84590090Y-107068201D01*
X80620907Y-107068201D01*
X80675000Y-106796256D01*
X80675000Y-105903745D01*
X80616900Y-105611653D01*
X80636688Y-105603456D01*
X80940356Y-105299788D01*
X80964500Y-105241499D01*
X81283744Y-105305000D01*
X82176256Y-105305000D01*
X82609418Y-105218839D01*
X83100625Y-104890625D01*
X83428839Y-104399418D01*
X83544092Y-103820000D01*
X83428839Y-103240582D01*
X83100625Y-102749375D01*
X82802239Y-102550000D01*
X83100625Y-102350625D01*
X83428839Y-101859418D01*
X83544092Y-101280000D01*
X83428839Y-100700582D01*
X83100625Y-100209375D01*
X82802239Y-100010000D01*
X83100625Y-99810625D01*
X83428839Y-99319418D01*
X83544092Y-98740000D01*
X83428839Y-98160582D01*
X83412815Y-98136600D01*
X83598833Y-98136600D01*
X83671373Y-98151029D01*
X83715598Y-98142232D01*
X83788512Y-98215146D01*
X84185274Y-98379490D01*
X84614726Y-98379490D01*
X85011488Y-98215146D01*
X85190044Y-98036590D01*
X90411376Y-98036590D01*
X90370500Y-98135274D01*
X90370500Y-98135274D01*
G37*
X90370500Y-98135274D02*
X90370500Y-98564726D01*
X90534844Y-98961488D01*
X90838512Y-99265156D01*
X91235274Y-99429500D01*
X91664726Y-99429500D01*
X92034589Y-99276298D01*
X92072444Y-99314154D01*
X91911622Y-99474976D01*
X91747278Y-99871738D01*
X91747278Y-100301190D01*
X91911622Y-100697952D01*
X92215290Y-101001620D01*
X92612052Y-101165964D01*
X92895780Y-101165964D01*
X92983870Y-101224824D01*
X93198733Y-101267563D01*
X93198736Y-101267563D01*
X93271277Y-101281992D01*
X93343817Y-101267563D01*
X93451104Y-101267563D01*
X94797639Y-102614098D01*
X92723678Y-102614098D01*
X92651138Y-102599669D01*
X92578597Y-102614098D01*
X92578594Y-102614098D01*
X92363731Y-102656837D01*
X92181579Y-102778547D01*
X92181577Y-102778549D01*
X92120080Y-102819640D01*
X92078989Y-102881138D01*
X89976701Y-104983426D01*
X89724184Y-104983426D01*
X89327422Y-105147770D01*
X89023754Y-105451438D01*
X88859410Y-105848200D01*
X88859410Y-106100717D01*
X86806727Y-108153400D01*
X85588309Y-108153400D01*
X90812209Y-102929500D01*
X91064726Y-102929500D01*
X91461488Y-102765156D01*
X91765156Y-102461488D01*
X91929500Y-102064726D01*
X91929500Y-101635274D01*
X91765156Y-101238512D01*
X91461488Y-100934844D01*
X91064726Y-100770500D01*
X90635274Y-100770500D01*
X90238512Y-100934844D01*
X89934844Y-101238512D01*
X89770500Y-101635274D01*
X89770500Y-101887791D01*
X84590090Y-107068201D01*
X80620907Y-107068201D01*
X80675000Y-106796256D01*
X80675000Y-105903745D01*
X80616900Y-105611653D01*
X80636688Y-105603456D01*
X80940356Y-105299788D01*
X80964500Y-105241499D01*
X81283744Y-105305000D01*
X82176256Y-105305000D01*
X82609418Y-105218839D01*
X83100625Y-104890625D01*
X83428839Y-104399418D01*
X83544092Y-103820000D01*
X83428839Y-103240582D01*
X83100625Y-102749375D01*
X82802239Y-102550000D01*
X83100625Y-102350625D01*
X83428839Y-101859418D01*
X83544092Y-101280000D01*
X83428839Y-100700582D01*
X83100625Y-100209375D01*
X82802239Y-100010000D01*
X83100625Y-99810625D01*
X83428839Y-99319418D01*
X83544092Y-98740000D01*
X83428839Y-98160582D01*
X83412815Y-98136600D01*
X83598833Y-98136600D01*
X83671373Y-98151029D01*
X83715598Y-98142232D01*
X83788512Y-98215146D01*
X84185274Y-98379490D01*
X84614726Y-98379490D01*
X85011488Y-98215146D01*
X85190044Y-98036590D01*
X90411376Y-98036590D01*
X90370500Y-98135274D01*
G36*
X124798539Y-95449498D02*
X124725600Y-95816190D01*
X124744011Y-95908749D01*
X124744011Y-96283639D01*
X124577000Y-96407266D01*
X124577000Y-97373000D01*
X124597000Y-97373000D01*
X124597000Y-97627000D01*
X124577000Y-97627000D01*
X124577000Y-98592734D01*
X124744011Y-98716361D01*
X124744010Y-101283639D01*
X124577000Y-101407266D01*
X124577000Y-102373000D01*
X124597000Y-102373000D01*
X124597000Y-102627000D01*
X124577000Y-102627000D01*
X124577000Y-103592734D01*
X124744010Y-103716360D01*
X124744010Y-104091256D01*
X124725600Y-104183810D01*
X124744010Y-104276364D01*
X124744010Y-104276368D01*
X124798538Y-104550500D01*
X124798539Y-104550501D01*
X124798539Y-104550502D01*
X124926622Y-104742191D01*
X125006253Y-104861367D01*
X125084720Y-104913797D01*
X125960201Y-105789279D01*
X125960201Y-106959998D01*
X125876953Y-106759021D01*
X125707800Y-106589868D01*
X125707800Y-106260554D01*
X125726210Y-106168000D01*
X125707800Y-106075446D01*
X125707800Y-106075441D01*
X125653272Y-105801309D01*
X125653271Y-105801307D01*
X125497988Y-105568910D01*
X125497986Y-105568908D01*
X125445557Y-105490443D01*
X125367092Y-105438014D01*
X124139800Y-104210723D01*
X124139800Y-103713243D01*
X124152062Y-103719268D01*
X124323000Y-103592734D01*
X124323000Y-102627000D01*
X124303000Y-102627000D01*
X124303000Y-102373000D01*
X124323000Y-102373000D01*
X124323000Y-101407266D01*
X124152062Y-101280732D01*
X124139800Y-101286757D01*
X124139800Y-98713243D01*
X124152062Y-98719268D01*
X124323000Y-98592734D01*
X124323000Y-97627000D01*
X124303000Y-97627000D01*
X124303000Y-97373000D01*
X124323000Y-97373000D01*
X124323000Y-96407266D01*
X124152062Y-96280732D01*
X124139800Y-96286757D01*
X124139800Y-96089277D01*
X124836717Y-95392360D01*
X124798539Y-95449498D01*
X124798539Y-95449498D01*
G37*
X124798539Y-95449498D02*
X124725600Y-95816190D01*
X124744011Y-95908749D01*
X124744011Y-96283639D01*
X124577000Y-96407266D01*
X124577000Y-97373000D01*
X124597000Y-97373000D01*
X124597000Y-97627000D01*
X124577000Y-97627000D01*
X124577000Y-98592734D01*
X124744011Y-98716361D01*
X124744010Y-101283639D01*
X124577000Y-101407266D01*
X124577000Y-102373000D01*
X124597000Y-102373000D01*
X124597000Y-102627000D01*
X124577000Y-102627000D01*
X124577000Y-103592734D01*
X124744010Y-103716360D01*
X124744010Y-104091256D01*
X124725600Y-104183810D01*
X124744010Y-104276364D01*
X124744010Y-104276368D01*
X124798538Y-104550500D01*
X124798539Y-104550501D01*
X124798539Y-104550502D01*
X124926622Y-104742191D01*
X125006253Y-104861367D01*
X125084720Y-104913797D01*
X125960201Y-105789279D01*
X125960201Y-106959998D01*
X125876953Y-106759021D01*
X125707800Y-106589868D01*
X125707800Y-106260554D01*
X125726210Y-106168000D01*
X125707800Y-106075446D01*
X125707800Y-106075441D01*
X125653272Y-105801309D01*
X125653271Y-105801307D01*
X125497988Y-105568910D01*
X125497986Y-105568908D01*
X125445557Y-105490443D01*
X125367092Y-105438014D01*
X124139800Y-104210723D01*
X124139800Y-103713243D01*
X124152062Y-103719268D01*
X124323000Y-103592734D01*
X124323000Y-102627000D01*
X124303000Y-102627000D01*
X124303000Y-102373000D01*
X124323000Y-102373000D01*
X124323000Y-101407266D01*
X124152062Y-101280732D01*
X124139800Y-101286757D01*
X124139800Y-98713243D01*
X124152062Y-98719268D01*
X124323000Y-98592734D01*
X124323000Y-97627000D01*
X124303000Y-97627000D01*
X124303000Y-97373000D01*
X124323000Y-97373000D01*
X124323000Y-96407266D01*
X124152062Y-96280732D01*
X124139800Y-96286757D01*
X124139800Y-96089277D01*
X124836717Y-95392360D01*
X124798539Y-95449498D01*
G36*
X108458758Y-94991456D02*
X108855520Y-95155800D01*
X109284972Y-95155800D01*
X109681734Y-94991456D01*
X109809490Y-94863700D01*
X114580049Y-94863700D01*
X117876400Y-98160052D01*
X117876400Y-98340726D01*
X118040744Y-98737488D01*
X118168500Y-98865244D01*
X118168501Y-100661008D01*
X118116200Y-100787274D01*
X118116200Y-101216726D01*
X118280544Y-101613488D01*
X118584212Y-101917156D01*
X118980974Y-102081500D01*
X119410426Y-102081500D01*
X119807188Y-101917156D01*
X120110856Y-101613488D01*
X120275200Y-101216726D01*
X120275200Y-100787274D01*
X120179019Y-100555072D01*
X120551776Y-100709473D01*
X120981228Y-100709473D01*
X121377990Y-100545129D01*
X121681658Y-100241461D01*
X121811307Y-99928459D01*
X122160961Y-99783628D01*
X122260201Y-99684388D01*
X122260200Y-102383500D01*
X121077552Y-102383500D01*
X121000000Y-102368074D01*
X120999999Y-102368074D01*
X120975235Y-102373000D01*
X120922448Y-102383500D01*
X120692772Y-102429185D01*
X120432316Y-102603216D01*
X120388386Y-102668962D01*
X118394749Y-104662600D01*
X101645452Y-104662600D01*
X99869100Y-102886249D01*
X99869100Y-102705574D01*
X99747871Y-102412900D01*
X105799756Y-102412900D01*
X105978312Y-102591456D01*
X106375074Y-102755800D01*
X106804526Y-102755800D01*
X107201288Y-102591456D01*
X107504956Y-102287788D01*
X107669300Y-101891026D01*
X107669300Y-101461574D01*
X107504956Y-101064812D01*
X107201288Y-100761144D01*
X106804526Y-100596800D01*
X106375074Y-100596800D01*
X105978312Y-100761144D01*
X105799756Y-100939700D01*
X98990378Y-100939700D01*
X94881109Y-96830432D01*
X94840016Y-96768932D01*
X94619290Y-96621447D01*
X94700276Y-96567334D01*
X94741369Y-96505834D01*
X95071981Y-96175222D01*
X103125821Y-96175222D01*
X103198361Y-96189651D01*
X103270901Y-96175222D01*
X103270905Y-96175222D01*
X103331020Y-96163264D01*
X103368512Y-96200756D01*
X103765274Y-96365100D01*
X104194726Y-96365100D01*
X104591488Y-96200756D01*
X104761514Y-96030730D01*
X104950474Y-96109000D01*
X105379926Y-96109000D01*
X105776688Y-95944656D01*
X106080356Y-95640988D01*
X106244700Y-95244226D01*
X106244700Y-94863700D01*
X108331002Y-94863700D01*
X108458758Y-94991456D01*
X108458758Y-94991456D01*
G37*
X108458758Y-94991456D02*
X108855520Y-95155800D01*
X109284972Y-95155800D01*
X109681734Y-94991456D01*
X109809490Y-94863700D01*
X114580049Y-94863700D01*
X117876400Y-98160052D01*
X117876400Y-98340726D01*
X118040744Y-98737488D01*
X118168500Y-98865244D01*
X118168501Y-100661008D01*
X118116200Y-100787274D01*
X118116200Y-101216726D01*
X118280544Y-101613488D01*
X118584212Y-101917156D01*
X118980974Y-102081500D01*
X119410426Y-102081500D01*
X119807188Y-101917156D01*
X120110856Y-101613488D01*
X120275200Y-101216726D01*
X120275200Y-100787274D01*
X120179019Y-100555072D01*
X120551776Y-100709473D01*
X120981228Y-100709473D01*
X121377990Y-100545129D01*
X121681658Y-100241461D01*
X121811307Y-99928459D01*
X122160961Y-99783628D01*
X122260201Y-99684388D01*
X122260200Y-102383500D01*
X121077552Y-102383500D01*
X121000000Y-102368074D01*
X120999999Y-102368074D01*
X120975235Y-102373000D01*
X120922448Y-102383500D01*
X120692772Y-102429185D01*
X120432316Y-102603216D01*
X120388386Y-102668962D01*
X118394749Y-104662600D01*
X101645452Y-104662600D01*
X99869100Y-102886249D01*
X99869100Y-102705574D01*
X99747871Y-102412900D01*
X105799756Y-102412900D01*
X105978312Y-102591456D01*
X106375074Y-102755800D01*
X106804526Y-102755800D01*
X107201288Y-102591456D01*
X107504956Y-102287788D01*
X107669300Y-101891026D01*
X107669300Y-101461574D01*
X107504956Y-101064812D01*
X107201288Y-100761144D01*
X106804526Y-100596800D01*
X106375074Y-100596800D01*
X105978312Y-100761144D01*
X105799756Y-100939700D01*
X98990378Y-100939700D01*
X94881109Y-96830432D01*
X94840016Y-96768932D01*
X94619290Y-96621447D01*
X94700276Y-96567334D01*
X94741369Y-96505834D01*
X95071981Y-96175222D01*
X103125821Y-96175222D01*
X103198361Y-96189651D01*
X103270901Y-96175222D01*
X103270905Y-96175222D01*
X103331020Y-96163264D01*
X103368512Y-96200756D01*
X103765274Y-96365100D01*
X104194726Y-96365100D01*
X104591488Y-96200756D01*
X104761514Y-96030730D01*
X104950474Y-96109000D01*
X105379926Y-96109000D01*
X105776688Y-95944656D01*
X106080356Y-95640988D01*
X106244700Y-95244226D01*
X106244700Y-94863700D01*
X108331002Y-94863700D01*
X108458758Y-94991456D01*
G36*
X127277000Y-96373000D02*
X127297000Y-96373000D01*
X127297000Y-96627000D01*
X127277000Y-96627000D01*
X127277000Y-97635000D01*
X127552000Y-97635000D01*
X127976678Y-97500002D01*
X128174500Y-97333216D01*
X128174501Y-102666784D01*
X127976678Y-102499998D01*
X127552000Y-102365000D01*
X127277000Y-102365000D01*
X127277000Y-103373000D01*
X127297000Y-103373000D01*
X127297000Y-103627000D01*
X127277000Y-103627000D01*
X127277000Y-103647000D01*
X127023000Y-103647000D01*
X127023000Y-103627000D01*
X127003000Y-103627000D01*
X127003000Y-103373000D01*
X127023000Y-103373000D01*
X127023000Y-102365000D01*
X126748000Y-102365000D01*
X126623610Y-102404541D01*
X126623610Y-97595459D01*
X126748000Y-97635000D01*
X127023000Y-97635000D01*
X127023000Y-96627000D01*
X127003000Y-96627000D01*
X127003000Y-96373000D01*
X127023000Y-96373000D01*
X127023000Y-96353000D01*
X127277000Y-96353000D01*
X127277000Y-96373000D01*
X127277000Y-96373000D01*
G37*
X127277000Y-96373000D02*
X127297000Y-96373000D01*
X127297000Y-96627000D01*
X127277000Y-96627000D01*
X127277000Y-97635000D01*
X127552000Y-97635000D01*
X127976678Y-97500002D01*
X128174500Y-97333216D01*
X128174501Y-102666784D01*
X127976678Y-102499998D01*
X127552000Y-102365000D01*
X127277000Y-102365000D01*
X127277000Y-103373000D01*
X127297000Y-103373000D01*
X127297000Y-103627000D01*
X127277000Y-103627000D01*
X127277000Y-103647000D01*
X127023000Y-103647000D01*
X127023000Y-103627000D01*
X127003000Y-103627000D01*
X127003000Y-103373000D01*
X127023000Y-103373000D01*
X127023000Y-102365000D01*
X126748000Y-102365000D01*
X126623610Y-102404541D01*
X126623610Y-97595459D01*
X126748000Y-97635000D01*
X127023000Y-97635000D01*
X127023000Y-96627000D01*
X127003000Y-96627000D01*
X127003000Y-96373000D01*
X127023000Y-96373000D01*
X127023000Y-96353000D01*
X127277000Y-96353000D01*
X127277000Y-96373000D01*
G36*
X85090912Y-94271756D02*
X85487674Y-94436100D01*
X85917126Y-94436100D01*
X86313888Y-94271756D01*
X86492444Y-94093200D01*
X88045997Y-94093200D01*
X90458633Y-96505836D01*
X90497089Y-96563390D01*
X85190044Y-96563390D01*
X85011488Y-96384834D01*
X84614726Y-96220490D01*
X84185274Y-96220490D01*
X83788512Y-96384834D01*
X83587886Y-96585460D01*
X83515000Y-96599958D01*
X83515000Y-96485750D01*
X83356250Y-96327000D01*
X81857000Y-96327000D01*
X81857000Y-96347000D01*
X81603000Y-96347000D01*
X81603000Y-96327000D01*
X80103750Y-96327000D01*
X79945000Y-96485750D01*
X79945000Y-96512258D01*
X78656432Y-95223690D01*
X79945000Y-95223690D01*
X79945000Y-95914250D01*
X80103750Y-96073000D01*
X81603000Y-96073000D01*
X81603000Y-94873750D01*
X81857000Y-94873750D01*
X81857000Y-96073000D01*
X83356250Y-96073000D01*
X83515000Y-95914250D01*
X83515000Y-95223690D01*
X83418327Y-94990301D01*
X83239698Y-94811673D01*
X83006309Y-94715000D01*
X82015750Y-94715000D01*
X81857000Y-94873750D01*
X81603000Y-94873750D01*
X81444250Y-94715000D01*
X80453691Y-94715000D01*
X80220302Y-94811673D01*
X80041673Y-94990301D01*
X79945000Y-95223690D01*
X78656432Y-95223690D01*
X77525941Y-94093200D01*
X84912356Y-94093200D01*
X85090912Y-94271756D01*
X85090912Y-94271756D01*
G37*
X85090912Y-94271756D02*
X85487674Y-94436100D01*
X85917126Y-94436100D01*
X86313888Y-94271756D01*
X86492444Y-94093200D01*
X88045997Y-94093200D01*
X90458633Y-96505836D01*
X90497089Y-96563390D01*
X85190044Y-96563390D01*
X85011488Y-96384834D01*
X84614726Y-96220490D01*
X84185274Y-96220490D01*
X83788512Y-96384834D01*
X83587886Y-96585460D01*
X83515000Y-96599958D01*
X83515000Y-96485750D01*
X83356250Y-96327000D01*
X81857000Y-96327000D01*
X81857000Y-96347000D01*
X81603000Y-96347000D01*
X81603000Y-96327000D01*
X80103750Y-96327000D01*
X79945000Y-96485750D01*
X79945000Y-96512258D01*
X78656432Y-95223690D01*
X79945000Y-95223690D01*
X79945000Y-95914250D01*
X80103750Y-96073000D01*
X81603000Y-96073000D01*
X81603000Y-94873750D01*
X81857000Y-94873750D01*
X81857000Y-96073000D01*
X83356250Y-96073000D01*
X83515000Y-95914250D01*
X83515000Y-95223690D01*
X83418327Y-94990301D01*
X83239698Y-94811673D01*
X83006309Y-94715000D01*
X82015750Y-94715000D01*
X81857000Y-94873750D01*
X81603000Y-94873750D01*
X81444250Y-94715000D01*
X80453691Y-94715000D01*
X80220302Y-94811673D01*
X80041673Y-94990301D01*
X79945000Y-95223690D01*
X78656432Y-95223690D01*
X77525941Y-94093200D01*
X84912356Y-94093200D01*
X85090912Y-94271756D01*
G36*
X126081200Y-94089722D02*
X125715094Y-94455828D01*
X125753271Y-94398693D01*
X125753271Y-94398692D01*
X125753272Y-94398691D01*
X125807800Y-94124559D01*
X125807800Y-94124555D01*
X125826210Y-94032001D01*
X125807800Y-93939447D01*
X125807800Y-93410132D01*
X125976953Y-93240979D01*
X126081200Y-92989305D01*
X126081200Y-94089722D01*
X126081200Y-94089722D01*
G37*
X126081200Y-94089722D02*
X125715094Y-94455828D01*
X125753271Y-94398693D01*
X125753271Y-94398692D01*
X125753272Y-94398691D01*
X125807800Y-94124559D01*
X125807800Y-94124555D01*
X125826210Y-94032001D01*
X125807800Y-93939447D01*
X125807800Y-93410132D01*
X125976953Y-93240979D01*
X126081200Y-92989305D01*
X126081200Y-94089722D01*
G36*
X129174500Y-75030268D02*
X129174500Y-82005000D01*
X129015750Y-82005000D01*
X128857000Y-82163750D01*
X128857000Y-83363000D01*
X128877000Y-83363000D01*
X128877000Y-83617000D01*
X128857000Y-83617000D01*
X128857000Y-83637000D01*
X128603000Y-83637000D01*
X128603000Y-83617000D01*
X127103750Y-83617000D01*
X126945000Y-83775750D01*
X126945000Y-84466310D01*
X127041673Y-84699699D01*
X127220302Y-84878327D01*
X127381033Y-84944904D01*
X127359375Y-84959375D01*
X127031161Y-85450582D01*
X126915908Y-86030000D01*
X126936630Y-86134179D01*
X126421940Y-86648794D01*
X126343444Y-86701243D01*
X126242379Y-86852496D01*
X126135756Y-87012043D01*
X126135749Y-87012079D01*
X126135729Y-87012109D01*
X126099539Y-87194049D01*
X126062790Y-87378729D01*
X126081201Y-87471323D01*
X126081200Y-92010696D01*
X125976953Y-91759021D01*
X125608979Y-91391047D01*
X125128197Y-91191900D01*
X124607803Y-91191900D01*
X124127021Y-91391047D01*
X124068742Y-91449326D01*
X123889450Y-91270034D01*
X123653359Y-91172242D01*
X123791816Y-90965027D01*
X123837501Y-90735351D01*
X123837501Y-90735350D01*
X123852927Y-90657800D01*
X123837501Y-90580249D01*
X123837501Y-85943501D01*
X123852927Y-85865950D01*
X123812619Y-85663309D01*
X123791816Y-85558723D01*
X123617785Y-85298267D01*
X123552039Y-85254337D01*
X121340600Y-83042899D01*
X121340600Y-82513690D01*
X126945000Y-82513690D01*
X126945000Y-83204250D01*
X127103750Y-83363000D01*
X128603000Y-83363000D01*
X128603000Y-82163750D01*
X128444250Y-82005000D01*
X127453691Y-82005000D01*
X127220302Y-82101673D01*
X127041673Y-82280301D01*
X126945000Y-82513690D01*
X121340600Y-82513690D01*
X121340600Y-77104144D01*
X121379685Y-77065059D01*
X121494517Y-77342289D01*
X122657711Y-78505483D01*
X124177497Y-79135000D01*
X125822503Y-79135000D01*
X127342289Y-78505483D01*
X128505483Y-77342289D01*
X129135000Y-75822503D01*
X129135000Y-74492377D01*
X129174500Y-75030268D01*
X129174500Y-75030268D01*
G37*
X129174500Y-75030268D02*
X129174500Y-82005000D01*
X129015750Y-82005000D01*
X128857000Y-82163750D01*
X128857000Y-83363000D01*
X128877000Y-83363000D01*
X128877000Y-83617000D01*
X128857000Y-83617000D01*
X128857000Y-83637000D01*
X128603000Y-83637000D01*
X128603000Y-83617000D01*
X127103750Y-83617000D01*
X126945000Y-83775750D01*
X126945000Y-84466310D01*
X127041673Y-84699699D01*
X127220302Y-84878327D01*
X127381033Y-84944904D01*
X127359375Y-84959375D01*
X127031161Y-85450582D01*
X126915908Y-86030000D01*
X126936630Y-86134179D01*
X126421940Y-86648794D01*
X126343444Y-86701243D01*
X126242379Y-86852496D01*
X126135756Y-87012043D01*
X126135749Y-87012079D01*
X126135729Y-87012109D01*
X126099539Y-87194049D01*
X126062790Y-87378729D01*
X126081201Y-87471323D01*
X126081200Y-92010696D01*
X125976953Y-91759021D01*
X125608979Y-91391047D01*
X125128197Y-91191900D01*
X124607803Y-91191900D01*
X124127021Y-91391047D01*
X124068742Y-91449326D01*
X123889450Y-91270034D01*
X123653359Y-91172242D01*
X123791816Y-90965027D01*
X123837501Y-90735351D01*
X123837501Y-90735350D01*
X123852927Y-90657800D01*
X123837501Y-90580249D01*
X123837501Y-85943501D01*
X123852927Y-85865950D01*
X123812619Y-85663309D01*
X123791816Y-85558723D01*
X123617785Y-85298267D01*
X123552039Y-85254337D01*
X121340600Y-83042899D01*
X121340600Y-82513690D01*
X126945000Y-82513690D01*
X126945000Y-83204250D01*
X127103750Y-83363000D01*
X128603000Y-83363000D01*
X128603000Y-82163750D01*
X128444250Y-82005000D01*
X127453691Y-82005000D01*
X127220302Y-82101673D01*
X127041673Y-82280301D01*
X126945000Y-82513690D01*
X121340600Y-82513690D01*
X121340600Y-77104144D01*
X121379685Y-77065059D01*
X121494517Y-77342289D01*
X122657711Y-78505483D01*
X124177497Y-79135000D01*
X125822503Y-79135000D01*
X127342289Y-78505483D01*
X128505483Y-77342289D01*
X129135000Y-75822503D01*
X129135000Y-74492377D01*
X129174500Y-75030268D01*
G36*
X82005000Y-70984250D02*
X82163750Y-71143000D01*
X83363000Y-71143000D01*
X83363000Y-71123000D01*
X83617000Y-71123000D01*
X83617000Y-71143000D01*
X83637000Y-71143000D01*
X83637000Y-71397000D01*
X83617000Y-71397000D01*
X83617000Y-72896250D01*
X83775750Y-73055000D01*
X84466310Y-73055000D01*
X84699699Y-72958327D01*
X84878327Y-72779698D01*
X84944904Y-72618967D01*
X84959375Y-72640625D01*
X85450582Y-72968839D01*
X86030000Y-73084092D01*
X86184319Y-73053396D01*
X86830014Y-73699092D01*
X86882443Y-73777557D01*
X86960908Y-73829986D01*
X86960910Y-73829988D01*
X87093528Y-73918600D01*
X87193309Y-73985272D01*
X87467441Y-74039800D01*
X87467446Y-74039800D01*
X87560000Y-74058210D01*
X87652554Y-74039800D01*
X97210723Y-74039800D01*
X97570014Y-74399092D01*
X97622443Y-74477557D01*
X97700908Y-74529986D01*
X97700909Y-74529987D01*
X97933307Y-74685271D01*
X97933308Y-74685271D01*
X97933309Y-74685272D01*
X98207441Y-74739800D01*
X98207449Y-74739800D01*
X98299999Y-74758209D01*
X98392549Y-74739800D01*
X101507503Y-74739800D01*
X101600116Y-74758210D01*
X101773646Y-74723671D01*
X101966691Y-74685272D01*
X101966743Y-74685237D01*
X101966799Y-74685226D01*
X102120393Y-74582571D01*
X102277557Y-74477557D01*
X102330019Y-74399042D01*
X102810345Y-73918600D01*
X112468412Y-73918600D01*
X112560932Y-73937010D01*
X112653520Y-73918600D01*
X112653559Y-73918600D01*
X112757106Y-73898003D01*
X112927629Y-73864097D01*
X112927656Y-73864079D01*
X112927691Y-73864072D01*
X113084659Y-73759189D01*
X113160038Y-73708830D01*
X113160062Y-73708806D01*
X113238557Y-73656357D01*
X113290968Y-73577919D01*
X113815585Y-73053377D01*
X113970000Y-73084092D01*
X114549418Y-72968839D01*
X115040625Y-72640625D01*
X115055096Y-72618967D01*
X115121673Y-72779698D01*
X115300301Y-72958327D01*
X115533690Y-73055000D01*
X116224250Y-73055000D01*
X116383000Y-72896250D01*
X116383000Y-71397000D01*
X116637000Y-71397000D01*
X116637000Y-72896250D01*
X116795750Y-73055000D01*
X117486310Y-73055000D01*
X117719699Y-72958327D01*
X117898327Y-72779698D01*
X117995000Y-72546309D01*
X117995000Y-71555750D01*
X117836250Y-71397000D01*
X116637000Y-71397000D01*
X116383000Y-71397000D01*
X116363000Y-71397000D01*
X116363000Y-71143000D01*
X116383000Y-71143000D01*
X116383000Y-71123000D01*
X116637000Y-71123000D01*
X116637000Y-71143000D01*
X117836250Y-71143000D01*
X117995000Y-70984250D01*
X117995000Y-70825500D01*
X124963235Y-70825500D01*
X125405823Y-70865000D01*
X124177497Y-70865000D01*
X122657711Y-71494517D01*
X121494517Y-72657711D01*
X121329500Y-73056097D01*
X121329500Y-73035273D01*
X121165156Y-72638511D01*
X120861488Y-72334843D01*
X120464726Y-72170499D01*
X120035274Y-72170499D01*
X119638512Y-72334843D01*
X119334844Y-72638511D01*
X119170500Y-73035273D01*
X119170500Y-73287789D01*
X117339640Y-75118650D01*
X117278143Y-75159741D01*
X117237052Y-75221238D01*
X117237049Y-75221241D01*
X117115339Y-75403393D01*
X117058171Y-75690799D01*
X117072601Y-75763344D01*
X117072600Y-77330256D01*
X116894044Y-77508812D01*
X116729700Y-77905574D01*
X116729700Y-78335026D01*
X116894044Y-78731788D01*
X117197712Y-79035456D01*
X117594474Y-79199800D01*
X118023926Y-79199800D01*
X118420688Y-79035456D01*
X118724356Y-78731788D01*
X118888700Y-78335026D01*
X118888700Y-77905574D01*
X118724356Y-77508812D01*
X118545800Y-77330256D01*
X118545800Y-75995908D01*
X120212210Y-74329499D01*
X120464726Y-74329499D01*
X120861488Y-74165155D01*
X120876211Y-74150432D01*
X120865000Y-74177497D01*
X120865000Y-75325609D01*
X120767926Y-75285400D01*
X120338474Y-75285400D01*
X119941712Y-75449744D01*
X119638044Y-75753412D01*
X119473700Y-76150174D01*
X119473700Y-76579626D01*
X119638044Y-76976388D01*
X119765801Y-77104145D01*
X119765800Y-83291499D01*
X119750374Y-83369050D01*
X119765800Y-83446601D01*
X119811485Y-83676277D01*
X119985516Y-83936734D01*
X120051265Y-83980666D01*
X122262702Y-86192104D01*
X122262701Y-90331647D01*
X121585901Y-91008447D01*
X121585901Y-86412875D01*
X121600330Y-86340335D01*
X121585901Y-86267792D01*
X121585901Y-86267791D01*
X121543162Y-86052928D01*
X121449724Y-85913088D01*
X121421452Y-85870776D01*
X121421450Y-85870774D01*
X121380359Y-85809277D01*
X121318862Y-85768186D01*
X119431117Y-83880442D01*
X119390024Y-83818942D01*
X119146373Y-83656139D01*
X118931510Y-83613400D01*
X118931506Y-83613400D01*
X118858966Y-83598971D01*
X118786426Y-83613400D01*
X117039819Y-83613400D01*
X117031058Y-83600288D01*
X116969560Y-83559197D01*
X114010036Y-80599673D01*
X113968943Y-80538173D01*
X113725292Y-80375370D01*
X113510429Y-80332631D01*
X113510425Y-80332631D01*
X113437885Y-80318202D01*
X113365345Y-80332631D01*
X111933829Y-80332631D01*
X113052361Y-79214100D01*
X113307556Y-79214100D01*
X113486112Y-79392656D01*
X113882874Y-79557000D01*
X114312326Y-79557000D01*
X114709088Y-79392656D01*
X115012756Y-79088988D01*
X115177100Y-78692226D01*
X115177100Y-78262774D01*
X115012756Y-77866012D01*
X114709088Y-77562344D01*
X114312326Y-77398000D01*
X113882874Y-77398000D01*
X113486112Y-77562344D01*
X113307556Y-77740900D01*
X112839300Y-77740900D01*
X112839300Y-76637144D01*
X113017856Y-76458588D01*
X113182200Y-76061826D01*
X113182200Y-75632374D01*
X113017856Y-75235612D01*
X112714188Y-74931944D01*
X112317426Y-74767600D01*
X111887974Y-74767600D01*
X111491212Y-74931944D01*
X111187544Y-75235612D01*
X111023200Y-75632374D01*
X111023200Y-76061826D01*
X111187544Y-76458588D01*
X111366100Y-76637144D01*
X111366101Y-78242189D01*
X110310444Y-79297847D01*
X110265156Y-79188512D01*
X109961488Y-78884844D01*
X109592275Y-78731911D01*
X109897180Y-78528180D01*
X110205944Y-78066082D01*
X110287000Y-77658587D01*
X110287000Y-76621412D01*
X110205944Y-76213918D01*
X109897179Y-75751820D01*
X109435081Y-75443056D01*
X108890000Y-75334632D01*
X108344918Y-75443056D01*
X107882820Y-75751821D01*
X107620000Y-76145159D01*
X107357179Y-75751820D01*
X106895081Y-75443056D01*
X106350000Y-75334632D01*
X105804918Y-75443056D01*
X105342820Y-75751821D01*
X105080000Y-76145159D01*
X104817179Y-75751820D01*
X104355081Y-75443056D01*
X103810000Y-75334632D01*
X103264918Y-75443056D01*
X103107741Y-75548079D01*
X102955294Y-75319926D01*
X102889545Y-75275994D01*
X102753006Y-75139455D01*
X102709074Y-75073706D01*
X102448618Y-74899675D01*
X102218942Y-74853990D01*
X102218941Y-74853990D01*
X102141390Y-74838564D01*
X102063839Y-74853990D01*
X94845160Y-74853990D01*
X94767609Y-74838564D01*
X94690058Y-74853990D01*
X94460382Y-74899675D01*
X94199926Y-75073706D01*
X94155996Y-75139452D01*
X93909248Y-75386200D01*
X93650000Y-75334632D01*
X93104918Y-75443056D01*
X92642820Y-75751821D01*
X92380000Y-76145159D01*
X92117179Y-75751820D01*
X91655081Y-75443056D01*
X91110000Y-75334632D01*
X90564918Y-75443056D01*
X90102820Y-75751821D01*
X89794056Y-76213919D01*
X89713000Y-76621413D01*
X89713000Y-77658588D01*
X89794056Y-78066082D01*
X90102821Y-78528180D01*
X90564919Y-78836944D01*
X90660860Y-78856028D01*
X89979500Y-78856028D01*
X89979500Y-78785274D01*
X89815156Y-78388512D01*
X89511488Y-78084844D01*
X89265869Y-77983105D01*
X89265869Y-77390734D01*
X89444425Y-77212178D01*
X89608769Y-76815416D01*
X89608769Y-76385964D01*
X89444425Y-75989202D01*
X89140757Y-75685534D01*
X88743995Y-75521190D01*
X88314543Y-75521190D01*
X87917781Y-75685534D01*
X87614113Y-75989202D01*
X87449769Y-76385964D01*
X87449769Y-76815416D01*
X87614113Y-77212178D01*
X87792669Y-77390734D01*
X87792670Y-78556724D01*
X87778240Y-78629269D01*
X87820500Y-78841727D01*
X87820500Y-79076792D01*
X87664519Y-79141401D01*
X87360851Y-79445069D01*
X87196507Y-79841831D01*
X87196507Y-80271283D01*
X87360851Y-80668045D01*
X87664519Y-80971713D01*
X87893772Y-81066673D01*
X87893772Y-81184830D01*
X88058116Y-81581592D01*
X88361784Y-81885260D01*
X88405382Y-81903319D01*
X86236600Y-84072101D01*
X86236600Y-78025465D01*
X86261488Y-78015156D01*
X86565156Y-77711488D01*
X86729500Y-77314726D01*
X86729500Y-76885274D01*
X86565156Y-76488512D01*
X86261488Y-76184844D01*
X85864726Y-76020500D01*
X85435274Y-76020500D01*
X85038512Y-76184844D01*
X84734844Y-76488512D01*
X84638266Y-76721672D01*
X84514726Y-76670500D01*
X84085274Y-76670500D01*
X83688512Y-76834844D01*
X83384844Y-77138512D01*
X83220500Y-77535274D01*
X83220500Y-77787790D01*
X75967467Y-85040823D01*
X75861488Y-84934844D01*
X75464726Y-84770500D01*
X75035274Y-84770500D01*
X74638512Y-84934844D01*
X74334844Y-85238512D01*
X74170500Y-85635274D01*
X74170500Y-86064726D01*
X74334844Y-86461488D01*
X74596314Y-86722958D01*
X74570500Y-86785278D01*
X74570500Y-87212702D01*
X73316438Y-87212702D01*
X73243898Y-87198273D01*
X73171357Y-87212702D01*
X73171354Y-87212702D01*
X72956491Y-87255441D01*
X72774339Y-87377151D01*
X72774337Y-87377153D01*
X72712840Y-87418244D01*
X72671748Y-87479742D01*
X72645227Y-87506263D01*
X72640625Y-87499375D01*
X72342239Y-87300000D01*
X72640625Y-87100625D01*
X72968839Y-86609418D01*
X73084092Y-86030000D01*
X72968839Y-85450582D01*
X72640625Y-84959375D01*
X72618967Y-84944904D01*
X72779698Y-84878327D01*
X72958327Y-84699699D01*
X73055000Y-84466310D01*
X73055000Y-83775750D01*
X72896250Y-83617000D01*
X71397000Y-83617000D01*
X71397000Y-83637000D01*
X71143000Y-83637000D01*
X71143000Y-83617000D01*
X71123000Y-83617000D01*
X71123000Y-83363000D01*
X71143000Y-83363000D01*
X71143000Y-82163750D01*
X71397000Y-82163750D01*
X71397000Y-83363000D01*
X72896250Y-83363000D01*
X73055000Y-83204250D01*
X73055000Y-82513690D01*
X72958327Y-82280301D01*
X72779698Y-82101673D01*
X72546309Y-82005000D01*
X71555750Y-82005000D01*
X71397000Y-82163750D01*
X71143000Y-82163750D01*
X70984250Y-82005000D01*
X70825500Y-82005000D01*
X70825500Y-75036765D01*
X70865000Y-74594177D01*
X70865000Y-75822503D01*
X71494517Y-77342289D01*
X72657711Y-78505483D01*
X74177497Y-79135000D01*
X75822503Y-79135000D01*
X77342289Y-78505483D01*
X78505483Y-77342289D01*
X79135000Y-75822503D01*
X79135000Y-74177497D01*
X78505483Y-72657711D01*
X77403522Y-71555750D01*
X82005000Y-71555750D01*
X82005000Y-72546309D01*
X82101673Y-72779698D01*
X82280301Y-72958327D01*
X82513690Y-73055000D01*
X83204250Y-73055000D01*
X83363000Y-72896250D01*
X83363000Y-71397000D01*
X82163750Y-71397000D01*
X82005000Y-71555750D01*
X77403522Y-71555750D01*
X77342289Y-71494517D01*
X75822503Y-70865000D01*
X74492377Y-70865000D01*
X75030268Y-70825500D01*
X82005000Y-70825500D01*
X82005000Y-70984250D01*
X82005000Y-70984250D01*
G37*
X82005000Y-70984250D02*
X82163750Y-71143000D01*
X83363000Y-71143000D01*
X83363000Y-71123000D01*
X83617000Y-71123000D01*
X83617000Y-71143000D01*
X83637000Y-71143000D01*
X83637000Y-71397000D01*
X83617000Y-71397000D01*
X83617000Y-72896250D01*
X83775750Y-73055000D01*
X84466310Y-73055000D01*
X84699699Y-72958327D01*
X84878327Y-72779698D01*
X84944904Y-72618967D01*
X84959375Y-72640625D01*
X85450582Y-72968839D01*
X86030000Y-73084092D01*
X86184319Y-73053396D01*
X86830014Y-73699092D01*
X86882443Y-73777557D01*
X86960908Y-73829986D01*
X86960910Y-73829988D01*
X87093528Y-73918600D01*
X87193309Y-73985272D01*
X87467441Y-74039800D01*
X87467446Y-74039800D01*
X87560000Y-74058210D01*
X87652554Y-74039800D01*
X97210723Y-74039800D01*
X97570014Y-74399092D01*
X97622443Y-74477557D01*
X97700908Y-74529986D01*
X97700909Y-74529987D01*
X97933307Y-74685271D01*
X97933308Y-74685271D01*
X97933309Y-74685272D01*
X98207441Y-74739800D01*
X98207449Y-74739800D01*
X98299999Y-74758209D01*
X98392549Y-74739800D01*
X101507503Y-74739800D01*
X101600116Y-74758210D01*
X101773646Y-74723671D01*
X101966691Y-74685272D01*
X101966743Y-74685237D01*
X101966799Y-74685226D01*
X102120393Y-74582571D01*
X102277557Y-74477557D01*
X102330019Y-74399042D01*
X102810345Y-73918600D01*
X112468412Y-73918600D01*
X112560932Y-73937010D01*
X112653520Y-73918600D01*
X112653559Y-73918600D01*
X112757106Y-73898003D01*
X112927629Y-73864097D01*
X112927656Y-73864079D01*
X112927691Y-73864072D01*
X113084659Y-73759189D01*
X113160038Y-73708830D01*
X113160062Y-73708806D01*
X113238557Y-73656357D01*
X113290968Y-73577919D01*
X113815585Y-73053377D01*
X113970000Y-73084092D01*
X114549418Y-72968839D01*
X115040625Y-72640625D01*
X115055096Y-72618967D01*
X115121673Y-72779698D01*
X115300301Y-72958327D01*
X115533690Y-73055000D01*
X116224250Y-73055000D01*
X116383000Y-72896250D01*
X116383000Y-71397000D01*
X116637000Y-71397000D01*
X116637000Y-72896250D01*
X116795750Y-73055000D01*
X117486310Y-73055000D01*
X117719699Y-72958327D01*
X117898327Y-72779698D01*
X117995000Y-72546309D01*
X117995000Y-71555750D01*
X117836250Y-71397000D01*
X116637000Y-71397000D01*
X116383000Y-71397000D01*
X116363000Y-71397000D01*
X116363000Y-71143000D01*
X116383000Y-71143000D01*
X116383000Y-71123000D01*
X116637000Y-71123000D01*
X116637000Y-71143000D01*
X117836250Y-71143000D01*
X117995000Y-70984250D01*
X117995000Y-70825500D01*
X124963235Y-70825500D01*
X125405823Y-70865000D01*
X124177497Y-70865000D01*
X122657711Y-71494517D01*
X121494517Y-72657711D01*
X121329500Y-73056097D01*
X121329500Y-73035273D01*
X121165156Y-72638511D01*
X120861488Y-72334843D01*
X120464726Y-72170499D01*
X120035274Y-72170499D01*
X119638512Y-72334843D01*
X119334844Y-72638511D01*
X119170500Y-73035273D01*
X119170500Y-73287789D01*
X117339640Y-75118650D01*
X117278143Y-75159741D01*
X117237052Y-75221238D01*
X117237049Y-75221241D01*
X117115339Y-75403393D01*
X117058171Y-75690799D01*
X117072601Y-75763344D01*
X117072600Y-77330256D01*
X116894044Y-77508812D01*
X116729700Y-77905574D01*
X116729700Y-78335026D01*
X116894044Y-78731788D01*
X117197712Y-79035456D01*
X117594474Y-79199800D01*
X118023926Y-79199800D01*
X118420688Y-79035456D01*
X118724356Y-78731788D01*
X118888700Y-78335026D01*
X118888700Y-77905574D01*
X118724356Y-77508812D01*
X118545800Y-77330256D01*
X118545800Y-75995908D01*
X120212210Y-74329499D01*
X120464726Y-74329499D01*
X120861488Y-74165155D01*
X120876211Y-74150432D01*
X120865000Y-74177497D01*
X120865000Y-75325609D01*
X120767926Y-75285400D01*
X120338474Y-75285400D01*
X119941712Y-75449744D01*
X119638044Y-75753412D01*
X119473700Y-76150174D01*
X119473700Y-76579626D01*
X119638044Y-76976388D01*
X119765801Y-77104145D01*
X119765800Y-83291499D01*
X119750374Y-83369050D01*
X119765800Y-83446601D01*
X119811485Y-83676277D01*
X119985516Y-83936734D01*
X120051265Y-83980666D01*
X122262702Y-86192104D01*
X122262701Y-90331647D01*
X121585901Y-91008447D01*
X121585901Y-86412875D01*
X121600330Y-86340335D01*
X121585901Y-86267792D01*
X121585901Y-86267791D01*
X121543162Y-86052928D01*
X121449724Y-85913088D01*
X121421452Y-85870776D01*
X121421450Y-85870774D01*
X121380359Y-85809277D01*
X121318862Y-85768186D01*
X119431117Y-83880442D01*
X119390024Y-83818942D01*
X119146373Y-83656139D01*
X118931510Y-83613400D01*
X118931506Y-83613400D01*
X118858966Y-83598971D01*
X118786426Y-83613400D01*
X117039819Y-83613400D01*
X117031058Y-83600288D01*
X116969560Y-83559197D01*
X114010036Y-80599673D01*
X113968943Y-80538173D01*
X113725292Y-80375370D01*
X113510429Y-80332631D01*
X113510425Y-80332631D01*
X113437885Y-80318202D01*
X113365345Y-80332631D01*
X111933829Y-80332631D01*
X113052361Y-79214100D01*
X113307556Y-79214100D01*
X113486112Y-79392656D01*
X113882874Y-79557000D01*
X114312326Y-79557000D01*
X114709088Y-79392656D01*
X115012756Y-79088988D01*
X115177100Y-78692226D01*
X115177100Y-78262774D01*
X115012756Y-77866012D01*
X114709088Y-77562344D01*
X114312326Y-77398000D01*
X113882874Y-77398000D01*
X113486112Y-77562344D01*
X113307556Y-77740900D01*
X112839300Y-77740900D01*
X112839300Y-76637144D01*
X113017856Y-76458588D01*
X113182200Y-76061826D01*
X113182200Y-75632374D01*
X113017856Y-75235612D01*
X112714188Y-74931944D01*
X112317426Y-74767600D01*
X111887974Y-74767600D01*
X111491212Y-74931944D01*
X111187544Y-75235612D01*
X111023200Y-75632374D01*
X111023200Y-76061826D01*
X111187544Y-76458588D01*
X111366100Y-76637144D01*
X111366101Y-78242189D01*
X110310444Y-79297847D01*
X110265156Y-79188512D01*
X109961488Y-78884844D01*
X109592275Y-78731911D01*
X109897180Y-78528180D01*
X110205944Y-78066082D01*
X110287000Y-77658587D01*
X110287000Y-76621412D01*
X110205944Y-76213918D01*
X109897179Y-75751820D01*
X109435081Y-75443056D01*
X108890000Y-75334632D01*
X108344918Y-75443056D01*
X107882820Y-75751821D01*
X107620000Y-76145159D01*
X107357179Y-75751820D01*
X106895081Y-75443056D01*
X106350000Y-75334632D01*
X105804918Y-75443056D01*
X105342820Y-75751821D01*
X105080000Y-76145159D01*
X104817179Y-75751820D01*
X104355081Y-75443056D01*
X103810000Y-75334632D01*
X103264918Y-75443056D01*
X103107741Y-75548079D01*
X102955294Y-75319926D01*
X102889545Y-75275994D01*
X102753006Y-75139455D01*
X102709074Y-75073706D01*
X102448618Y-74899675D01*
X102218942Y-74853990D01*
X102218941Y-74853990D01*
X102141390Y-74838564D01*
X102063839Y-74853990D01*
X94845160Y-74853990D01*
X94767609Y-74838564D01*
X94690058Y-74853990D01*
X94460382Y-74899675D01*
X94199926Y-75073706D01*
X94155996Y-75139452D01*
X93909248Y-75386200D01*
X93650000Y-75334632D01*
X93104918Y-75443056D01*
X92642820Y-75751821D01*
X92380000Y-76145159D01*
X92117179Y-75751820D01*
X91655081Y-75443056D01*
X91110000Y-75334632D01*
X90564918Y-75443056D01*
X90102820Y-75751821D01*
X89794056Y-76213919D01*
X89713000Y-76621413D01*
X89713000Y-77658588D01*
X89794056Y-78066082D01*
X90102821Y-78528180D01*
X90564919Y-78836944D01*
X90660860Y-78856028D01*
X89979500Y-78856028D01*
X89979500Y-78785274D01*
X89815156Y-78388512D01*
X89511488Y-78084844D01*
X89265869Y-77983105D01*
X89265869Y-77390734D01*
X89444425Y-77212178D01*
X89608769Y-76815416D01*
X89608769Y-76385964D01*
X89444425Y-75989202D01*
X89140757Y-75685534D01*
X88743995Y-75521190D01*
X88314543Y-75521190D01*
X87917781Y-75685534D01*
X87614113Y-75989202D01*
X87449769Y-76385964D01*
X87449769Y-76815416D01*
X87614113Y-77212178D01*
X87792669Y-77390734D01*
X87792670Y-78556724D01*
X87778240Y-78629269D01*
X87820500Y-78841727D01*
X87820500Y-79076792D01*
X87664519Y-79141401D01*
X87360851Y-79445069D01*
X87196507Y-79841831D01*
X87196507Y-80271283D01*
X87360851Y-80668045D01*
X87664519Y-80971713D01*
X87893772Y-81066673D01*
X87893772Y-81184830D01*
X88058116Y-81581592D01*
X88361784Y-81885260D01*
X88405382Y-81903319D01*
X86236600Y-84072101D01*
X86236600Y-78025465D01*
X86261488Y-78015156D01*
X86565156Y-77711488D01*
X86729500Y-77314726D01*
X86729500Y-76885274D01*
X86565156Y-76488512D01*
X86261488Y-76184844D01*
X85864726Y-76020500D01*
X85435274Y-76020500D01*
X85038512Y-76184844D01*
X84734844Y-76488512D01*
X84638266Y-76721672D01*
X84514726Y-76670500D01*
X84085274Y-76670500D01*
X83688512Y-76834844D01*
X83384844Y-77138512D01*
X83220500Y-77535274D01*
X83220500Y-77787790D01*
X75967467Y-85040823D01*
X75861488Y-84934844D01*
X75464726Y-84770500D01*
X75035274Y-84770500D01*
X74638512Y-84934844D01*
X74334844Y-85238512D01*
X74170500Y-85635274D01*
X74170500Y-86064726D01*
X74334844Y-86461488D01*
X74596314Y-86722958D01*
X74570500Y-86785278D01*
X74570500Y-87212702D01*
X73316438Y-87212702D01*
X73243898Y-87198273D01*
X73171357Y-87212702D01*
X73171354Y-87212702D01*
X72956491Y-87255441D01*
X72774339Y-87377151D01*
X72774337Y-87377153D01*
X72712840Y-87418244D01*
X72671748Y-87479742D01*
X72645227Y-87506263D01*
X72640625Y-87499375D01*
X72342239Y-87300000D01*
X72640625Y-87100625D01*
X72968839Y-86609418D01*
X73084092Y-86030000D01*
X72968839Y-85450582D01*
X72640625Y-84959375D01*
X72618967Y-84944904D01*
X72779698Y-84878327D01*
X72958327Y-84699699D01*
X73055000Y-84466310D01*
X73055000Y-83775750D01*
X72896250Y-83617000D01*
X71397000Y-83617000D01*
X71397000Y-83637000D01*
X71143000Y-83637000D01*
X71143000Y-83617000D01*
X71123000Y-83617000D01*
X71123000Y-83363000D01*
X71143000Y-83363000D01*
X71143000Y-82163750D01*
X71397000Y-82163750D01*
X71397000Y-83363000D01*
X72896250Y-83363000D01*
X73055000Y-83204250D01*
X73055000Y-82513690D01*
X72958327Y-82280301D01*
X72779698Y-82101673D01*
X72546309Y-82005000D01*
X71555750Y-82005000D01*
X71397000Y-82163750D01*
X71143000Y-82163750D01*
X70984250Y-82005000D01*
X70825500Y-82005000D01*
X70825500Y-75036765D01*
X70865000Y-74594177D01*
X70865000Y-75822503D01*
X71494517Y-77342289D01*
X72657711Y-78505483D01*
X74177497Y-79135000D01*
X75822503Y-79135000D01*
X77342289Y-78505483D01*
X78505483Y-77342289D01*
X79135000Y-75822503D01*
X79135000Y-74177497D01*
X78505483Y-72657711D01*
X77403522Y-71555750D01*
X82005000Y-71555750D01*
X82005000Y-72546309D01*
X82101673Y-72779698D01*
X82280301Y-72958327D01*
X82513690Y-73055000D01*
X83204250Y-73055000D01*
X83363000Y-72896250D01*
X83363000Y-71397000D01*
X82163750Y-71397000D01*
X82005000Y-71555750D01*
X77403522Y-71555750D01*
X77342289Y-71494517D01*
X75822503Y-70865000D01*
X74492377Y-70865000D01*
X75030268Y-70825500D01*
X82005000Y-70825500D01*
X82005000Y-70984250D01*
G36*
X88415544Y-84164888D02*
X88719212Y-84468556D01*
X89115974Y-84632900D01*
X89545426Y-84632900D01*
X89942188Y-84468556D01*
X90120744Y-84290000D01*
X90649249Y-84290000D01*
X90416412Y-84386444D01*
X90112744Y-84690112D01*
X89948400Y-85086874D01*
X89948400Y-85516326D01*
X90112744Y-85913088D01*
X90416412Y-86216756D01*
X90421590Y-86218901D01*
X86854412Y-86218901D01*
X86860798Y-86216256D01*
X87164466Y-85912588D01*
X87328810Y-85515826D01*
X87328810Y-85232098D01*
X87387670Y-85144008D01*
X87413591Y-85013694D01*
X87422323Y-84969796D01*
X88360388Y-84031731D01*
X88415544Y-84164888D01*
X88415544Y-84164888D01*
G37*
X88415544Y-84164888D02*
X88719212Y-84468556D01*
X89115974Y-84632900D01*
X89545426Y-84632900D01*
X89942188Y-84468556D01*
X90120744Y-84290000D01*
X90649249Y-84290000D01*
X90416412Y-84386444D01*
X90112744Y-84690112D01*
X89948400Y-85086874D01*
X89948400Y-85516326D01*
X90112744Y-85913088D01*
X90416412Y-86216756D01*
X90421590Y-86218901D01*
X86854412Y-86218901D01*
X86860798Y-86216256D01*
X87164466Y-85912588D01*
X87328810Y-85515826D01*
X87328810Y-85232098D01*
X87387670Y-85144008D01*
X87413591Y-85013694D01*
X87422323Y-84969796D01*
X88360388Y-84031731D01*
X88415544Y-84164888D01*
M02*
