%TF.GenerationSoftware,KiCad,Pcbnew,5.0.2-bee76a0~70~ubuntu16.04.1*%
%TF.CreationDate,2019-02-12T08:58:08+01:00*%
%TF.ProjectId,bcl4v2,62636c34-7632-42e6-9b69-6361645f7063,rev?*%
%TF.SameCoordinates,Original*%
%TF.FileFunction,Copper,L2,Bot*%
%TF.FilePolarity,Positive*%
%FSLAX46Y46*%
G04 Gerber Fmt 4.6, Leading zero omitted, Abs format (unit mm)*
G04 Created by KiCad (PCBNEW 5.0.2-bee76a0~70~ubuntu16.04.1) date Út 12. únor 2019, 08:58:08 CET*
%MOMM*%
%LPD*%
G01*
G04 APERTURE LIST*
%ADD10C,0.381000*%
%ADD11C,7.000000*%
%ADD12C,0.910000*%
%ADD13R,1.200000X1.500000*%
%ADD14R,1.500000X0.700000*%
%ADD15R,1.200000X1.700000*%
%ADD16R,1.200000X1.600000*%
%ADD17R,1.700000X2.300000*%
%ADD18O,1.700000X2.300000*%
%ADD19R,1.200000X1.200000*%
%ADD20R,2.300000X1.700000*%
%ADD21O,2.300000X1.700000*%
%ADD22R,1.350000X0.400000*%
%ADD23O,0.950000X1.250000*%
%ADD24O,1.550000X1.000000*%
%ADD25R,1.300000X1.500000*%
%ADD26R,1.500000X1.300000*%
%ADD27R,1.500000X1.250000*%
%ADD28R,1.500000X0.800000*%
%ADD29C,0.250000*%
%ADD30C,0.150000*%
%ADD31C,0.500000*%
%ADD32C,0.750000*%
%ADD33R,2.700000X3.750000*%
%ADD34R,1.143000X0.508000*%
%ADD35R,2.000000X0.600000*%
%ADD36O,1.524000X2.286000*%
%ADD37R,1.524000X2.286000*%
%ADD38C,0.889000*%
%ADD39C,1.346200*%
%ADD40C,0.304800*%
%ADD41C,0.609600*%
%ADD42C,0.249800*%
%ADD43C,0.203200*%
%ADD44C,0.254000*%
G04 APERTURE END LIST*
D10*
X70000000Y-95000000D02*
X70000000Y-75000000D01*
X70000000Y-125000000D02*
X70000000Y-105000000D01*
X95000000Y-130000000D02*
X75000000Y-130000000D01*
X125000000Y-130000000D02*
X105000000Y-130000000D01*
X130000000Y-105000000D02*
X130000000Y-125000000D01*
X130000000Y-75000000D02*
X130000000Y-95000000D01*
X105000000Y-70000000D02*
X125000000Y-70000000D01*
X75000000Y-70000000D02*
X95000000Y-70000000D01*
X75000000Y-130000000D02*
G75*
G02X70000000Y-125000000I0J5000000D01*
G01*
X130000000Y-125000000D02*
G75*
G02X125000000Y-130000000I-5000000J0D01*
G01*
X125000000Y-70000000D02*
G75*
G02X130000000Y-75000000I0J-5000000D01*
G01*
X70000000Y-75000000D02*
G75*
G02X75000000Y-70000000I5000000J0D01*
G01*
X105000000Y-70750000D02*
X105000000Y-70000000D01*
X95000000Y-70750000D02*
X105000000Y-70750000D01*
X95000000Y-70000000D02*
X95000000Y-70750000D01*
X70750000Y-105000000D02*
X70000000Y-105000000D01*
X70750000Y-95000000D02*
X70750000Y-105000000D01*
X70000000Y-95000000D02*
X70750000Y-95000000D01*
X105000000Y-129250000D02*
X105000000Y-130000000D01*
X95000000Y-129250000D02*
X105000000Y-129250000D01*
X95000000Y-130000000D02*
X95000000Y-129250000D01*
X129000000Y-105000000D02*
X130000000Y-105000000D01*
X129000000Y-95000000D02*
X129000000Y-105000000D01*
X130000000Y-95000000D02*
X129000000Y-95000000D01*
D11*
X125000000Y-125000000D03*
D12*
X98850000Y-127500000D03*
X101150000Y-127500000D03*
D13*
X96000000Y-128050000D03*
X104000000Y-128050000D03*
D14*
X96550000Y-128450000D03*
X103450000Y-128450000D03*
D15*
X97900000Y-126000000D03*
D16*
X102100000Y-126000000D03*
D17*
X83490000Y-128730000D03*
D18*
X86030000Y-128730000D03*
X88570000Y-128730000D03*
X91110000Y-128730000D03*
X93650000Y-128730000D03*
D19*
X118425000Y-89500000D03*
X114575000Y-89500000D03*
D20*
X81730000Y-96200000D03*
D21*
X81730000Y-98740000D03*
X81730000Y-101280000D03*
X81730000Y-103820000D03*
D22*
X124450000Y-98700000D03*
X124450000Y-99350000D03*
X124450000Y-100000000D03*
X124450000Y-100650000D03*
X124450000Y-101300000D03*
D23*
X124450000Y-97500000D03*
X124450000Y-102500000D03*
D24*
X127150000Y-96500000D03*
X127150000Y-103500000D03*
D25*
X120000000Y-71650000D03*
X120000000Y-74350000D03*
D26*
X117850000Y-79750000D03*
X115150000Y-79750000D03*
X84250000Y-115950000D03*
X81550000Y-115950000D03*
D27*
X118250000Y-116000000D03*
X115750000Y-116000000D03*
X115750000Y-109000000D03*
X118250000Y-109000000D03*
D11*
X75000000Y-125000000D03*
X75000000Y-75000000D03*
X125000000Y-75000000D03*
D27*
X117750000Y-97000000D03*
X115250000Y-97000000D03*
D26*
X117850000Y-94500000D03*
X115150000Y-94500000D03*
D28*
X115650000Y-113450000D03*
X115650000Y-111550000D03*
X118350000Y-112500000D03*
D29*
X83391154Y-85780241D03*
D30*
G36*
X82737080Y-85302944D02*
X82913857Y-85126167D01*
X84045228Y-86257538D01*
X83868451Y-86434315D01*
X82737080Y-85302944D01*
X82737080Y-85302944D01*
G37*
D29*
X83744707Y-85426687D03*
D30*
G36*
X83090633Y-84949390D02*
X83267410Y-84772613D01*
X84398781Y-85903984D01*
X84222004Y-86080761D01*
X83090633Y-84949390D01*
X83090633Y-84949390D01*
G37*
D29*
X84098260Y-85073134D03*
D30*
G36*
X83444186Y-84595837D02*
X83620963Y-84419060D01*
X84752334Y-85550431D01*
X84575557Y-85727208D01*
X83444186Y-84595837D01*
X83444186Y-84595837D01*
G37*
D29*
X84451814Y-84719581D03*
D30*
G36*
X83797740Y-84242284D02*
X83974517Y-84065507D01*
X85105888Y-85196878D01*
X84929111Y-85373655D01*
X83797740Y-84242284D01*
X83797740Y-84242284D01*
G37*
D29*
X84805367Y-84366027D03*
D30*
G36*
X84151293Y-83888730D02*
X84328070Y-83711953D01*
X85459441Y-84843324D01*
X85282664Y-85020101D01*
X84151293Y-83888730D01*
X84151293Y-83888730D01*
G37*
D29*
X85158920Y-84012474D03*
D30*
G36*
X84504846Y-83535177D02*
X84681623Y-83358400D01*
X85812994Y-84489771D01*
X85636217Y-84666548D01*
X84504846Y-83535177D01*
X84504846Y-83535177D01*
G37*
D29*
X85512474Y-83658920D03*
D30*
G36*
X84858400Y-83181623D02*
X85035177Y-83004846D01*
X86166548Y-84136217D01*
X85989771Y-84312994D01*
X84858400Y-83181623D01*
X84858400Y-83181623D01*
G37*
D29*
X85866027Y-83305367D03*
D30*
G36*
X85211953Y-82828070D02*
X85388730Y-82651293D01*
X86520101Y-83782664D01*
X86343324Y-83959441D01*
X85211953Y-82828070D01*
X85211953Y-82828070D01*
G37*
D29*
X86219581Y-82951814D03*
D30*
G36*
X85565507Y-82474517D02*
X85742284Y-82297740D01*
X86873655Y-83429111D01*
X86696878Y-83605888D01*
X85565507Y-82474517D01*
X85565507Y-82474517D01*
G37*
D29*
X86573134Y-82598260D03*
D30*
G36*
X85919060Y-82120963D02*
X86095837Y-81944186D01*
X87227208Y-83075557D01*
X87050431Y-83252334D01*
X85919060Y-82120963D01*
X85919060Y-82120963D01*
G37*
D29*
X86926687Y-82244707D03*
D30*
G36*
X86272613Y-81767410D02*
X86449390Y-81590633D01*
X87580761Y-82722004D01*
X87403984Y-82898781D01*
X86272613Y-81767410D01*
X86272613Y-81767410D01*
G37*
D29*
X87280241Y-81891154D03*
D30*
G36*
X86626167Y-81413857D02*
X86802944Y-81237080D01*
X87934315Y-82368451D01*
X87757538Y-82545228D01*
X86626167Y-81413857D01*
X86626167Y-81413857D01*
G37*
D29*
X89719759Y-81891154D03*
D30*
G36*
X90197056Y-81237080D02*
X90373833Y-81413857D01*
X89242462Y-82545228D01*
X89065685Y-82368451D01*
X90197056Y-81237080D01*
X90197056Y-81237080D01*
G37*
D29*
X90073313Y-82244707D03*
D30*
G36*
X90550610Y-81590633D02*
X90727387Y-81767410D01*
X89596016Y-82898781D01*
X89419239Y-82722004D01*
X90550610Y-81590633D01*
X90550610Y-81590633D01*
G37*
D29*
X90426866Y-82598260D03*
D30*
G36*
X90904163Y-81944186D02*
X91080940Y-82120963D01*
X89949569Y-83252334D01*
X89772792Y-83075557D01*
X90904163Y-81944186D01*
X90904163Y-81944186D01*
G37*
D29*
X90780419Y-82951814D03*
D30*
G36*
X91257716Y-82297740D02*
X91434493Y-82474517D01*
X90303122Y-83605888D01*
X90126345Y-83429111D01*
X91257716Y-82297740D01*
X91257716Y-82297740D01*
G37*
D29*
X91133973Y-83305367D03*
D30*
G36*
X91611270Y-82651293D02*
X91788047Y-82828070D01*
X90656676Y-83959441D01*
X90479899Y-83782664D01*
X91611270Y-82651293D01*
X91611270Y-82651293D01*
G37*
D29*
X91487526Y-83658920D03*
D30*
G36*
X91964823Y-83004846D02*
X92141600Y-83181623D01*
X91010229Y-84312994D01*
X90833452Y-84136217D01*
X91964823Y-83004846D01*
X91964823Y-83004846D01*
G37*
D29*
X91841080Y-84012474D03*
D30*
G36*
X92318377Y-83358400D02*
X92495154Y-83535177D01*
X91363783Y-84666548D01*
X91187006Y-84489771D01*
X92318377Y-83358400D01*
X92318377Y-83358400D01*
G37*
D29*
X92194633Y-84366027D03*
D30*
G36*
X92671930Y-83711953D02*
X92848707Y-83888730D01*
X91717336Y-85020101D01*
X91540559Y-84843324D01*
X92671930Y-83711953D01*
X92671930Y-83711953D01*
G37*
D29*
X92548186Y-84719581D03*
D30*
G36*
X93025483Y-84065507D02*
X93202260Y-84242284D01*
X92070889Y-85373655D01*
X91894112Y-85196878D01*
X93025483Y-84065507D01*
X93025483Y-84065507D01*
G37*
D29*
X92901740Y-85073134D03*
D30*
G36*
X93379037Y-84419060D02*
X93555814Y-84595837D01*
X92424443Y-85727208D01*
X92247666Y-85550431D01*
X93379037Y-84419060D01*
X93379037Y-84419060D01*
G37*
D29*
X93255293Y-85426687D03*
D30*
G36*
X93732590Y-84772613D02*
X93909367Y-84949390D01*
X92777996Y-86080761D01*
X92601219Y-85903984D01*
X93732590Y-84772613D01*
X93732590Y-84772613D01*
G37*
D29*
X93608846Y-85780241D03*
D30*
G36*
X94086143Y-85126167D02*
X94262920Y-85302944D01*
X93131549Y-86434315D01*
X92954772Y-86257538D01*
X94086143Y-85126167D01*
X94086143Y-85126167D01*
G37*
D29*
X93608846Y-88219759D03*
D30*
G36*
X92954772Y-87742462D02*
X93131549Y-87565685D01*
X94262920Y-88697056D01*
X94086143Y-88873833D01*
X92954772Y-87742462D01*
X92954772Y-87742462D01*
G37*
D29*
X93255293Y-88573313D03*
D30*
G36*
X92601219Y-88096016D02*
X92777996Y-87919239D01*
X93909367Y-89050610D01*
X93732590Y-89227387D01*
X92601219Y-88096016D01*
X92601219Y-88096016D01*
G37*
D29*
X92901740Y-88926866D03*
D30*
G36*
X92247666Y-88449569D02*
X92424443Y-88272792D01*
X93555814Y-89404163D01*
X93379037Y-89580940D01*
X92247666Y-88449569D01*
X92247666Y-88449569D01*
G37*
D29*
X92548186Y-89280419D03*
D30*
G36*
X91894112Y-88803122D02*
X92070889Y-88626345D01*
X93202260Y-89757716D01*
X93025483Y-89934493D01*
X91894112Y-88803122D01*
X91894112Y-88803122D01*
G37*
D29*
X92194633Y-89633973D03*
D30*
G36*
X91540559Y-89156676D02*
X91717336Y-88979899D01*
X92848707Y-90111270D01*
X92671930Y-90288047D01*
X91540559Y-89156676D01*
X91540559Y-89156676D01*
G37*
D29*
X91841080Y-89987526D03*
D30*
G36*
X91187006Y-89510229D02*
X91363783Y-89333452D01*
X92495154Y-90464823D01*
X92318377Y-90641600D01*
X91187006Y-89510229D01*
X91187006Y-89510229D01*
G37*
D29*
X91487526Y-90341080D03*
D30*
G36*
X90833452Y-89863783D02*
X91010229Y-89687006D01*
X92141600Y-90818377D01*
X91964823Y-90995154D01*
X90833452Y-89863783D01*
X90833452Y-89863783D01*
G37*
D29*
X91133973Y-90694633D03*
D30*
G36*
X90479899Y-90217336D02*
X90656676Y-90040559D01*
X91788047Y-91171930D01*
X91611270Y-91348707D01*
X90479899Y-90217336D01*
X90479899Y-90217336D01*
G37*
D29*
X90780419Y-91048186D03*
D30*
G36*
X90126345Y-90570889D02*
X90303122Y-90394112D01*
X91434493Y-91525483D01*
X91257716Y-91702260D01*
X90126345Y-90570889D01*
X90126345Y-90570889D01*
G37*
D29*
X90426866Y-91401740D03*
D30*
G36*
X89772792Y-90924443D02*
X89949569Y-90747666D01*
X91080940Y-91879037D01*
X90904163Y-92055814D01*
X89772792Y-90924443D01*
X89772792Y-90924443D01*
G37*
D29*
X90073313Y-91755293D03*
D30*
G36*
X89419239Y-91277996D02*
X89596016Y-91101219D01*
X90727387Y-92232590D01*
X90550610Y-92409367D01*
X89419239Y-91277996D01*
X89419239Y-91277996D01*
G37*
D29*
X89719759Y-92108846D03*
D30*
G36*
X89065685Y-91631549D02*
X89242462Y-91454772D01*
X90373833Y-92586143D01*
X90197056Y-92762920D01*
X89065685Y-91631549D01*
X89065685Y-91631549D01*
G37*
D29*
X87280241Y-92108846D03*
D30*
G36*
X87757538Y-91454772D02*
X87934315Y-91631549D01*
X86802944Y-92762920D01*
X86626167Y-92586143D01*
X87757538Y-91454772D01*
X87757538Y-91454772D01*
G37*
D29*
X86926687Y-91755293D03*
D30*
G36*
X87403984Y-91101219D02*
X87580761Y-91277996D01*
X86449390Y-92409367D01*
X86272613Y-92232590D01*
X87403984Y-91101219D01*
X87403984Y-91101219D01*
G37*
D29*
X86573134Y-91401740D03*
D30*
G36*
X87050431Y-90747666D02*
X87227208Y-90924443D01*
X86095837Y-92055814D01*
X85919060Y-91879037D01*
X87050431Y-90747666D01*
X87050431Y-90747666D01*
G37*
D29*
X86219581Y-91048186D03*
D30*
G36*
X86696878Y-90394112D02*
X86873655Y-90570889D01*
X85742284Y-91702260D01*
X85565507Y-91525483D01*
X86696878Y-90394112D01*
X86696878Y-90394112D01*
G37*
D29*
X85866027Y-90694633D03*
D30*
G36*
X86343324Y-90040559D02*
X86520101Y-90217336D01*
X85388730Y-91348707D01*
X85211953Y-91171930D01*
X86343324Y-90040559D01*
X86343324Y-90040559D01*
G37*
D29*
X85512474Y-90341080D03*
D30*
G36*
X85989771Y-89687006D02*
X86166548Y-89863783D01*
X85035177Y-90995154D01*
X84858400Y-90818377D01*
X85989771Y-89687006D01*
X85989771Y-89687006D01*
G37*
D29*
X85158920Y-89987526D03*
D30*
G36*
X85636217Y-89333452D02*
X85812994Y-89510229D01*
X84681623Y-90641600D01*
X84504846Y-90464823D01*
X85636217Y-89333452D01*
X85636217Y-89333452D01*
G37*
D29*
X84805367Y-89633973D03*
D30*
G36*
X85282664Y-88979899D02*
X85459441Y-89156676D01*
X84328070Y-90288047D01*
X84151293Y-90111270D01*
X85282664Y-88979899D01*
X85282664Y-88979899D01*
G37*
D29*
X84451814Y-89280419D03*
D30*
G36*
X84929111Y-88626345D02*
X85105888Y-88803122D01*
X83974517Y-89934493D01*
X83797740Y-89757716D01*
X84929111Y-88626345D01*
X84929111Y-88626345D01*
G37*
D29*
X84098260Y-88926866D03*
D30*
G36*
X84575557Y-88272792D02*
X84752334Y-88449569D01*
X83620963Y-89580940D01*
X83444186Y-89404163D01*
X84575557Y-88272792D01*
X84575557Y-88272792D01*
G37*
D29*
X83744707Y-88573313D03*
D30*
G36*
X84222004Y-87919239D02*
X84398781Y-88096016D01*
X83267410Y-89227387D01*
X83090633Y-89050610D01*
X84222004Y-87919239D01*
X84222004Y-87919239D01*
G37*
D29*
X83391154Y-88219759D03*
D30*
G36*
X83868451Y-87565685D02*
X84045228Y-87742462D01*
X82913857Y-88873833D01*
X82737080Y-88697056D01*
X83868451Y-87565685D01*
X83868451Y-87565685D01*
G37*
D17*
X83490000Y-71270000D03*
D18*
X86030000Y-71270000D03*
X88570000Y-71270000D03*
X91110000Y-71270000D03*
X93650000Y-71270000D03*
D17*
X116510000Y-71270000D03*
D18*
X113970000Y-71270000D03*
X111430000Y-71270000D03*
X108890000Y-71270000D03*
X106350000Y-71270000D03*
D17*
X116510000Y-128730000D03*
D18*
X113970000Y-128730000D03*
X111430000Y-128730000D03*
X108890000Y-128730000D03*
X106350000Y-128730000D03*
D20*
X71270000Y-116510000D03*
D21*
X71270000Y-113970000D03*
X71270000Y-111430000D03*
X71270000Y-108890000D03*
X71270000Y-106350000D03*
D20*
X71270000Y-83490000D03*
D21*
X71270000Y-86030000D03*
X71270000Y-88570000D03*
X71270000Y-91110000D03*
X71270000Y-93650000D03*
D20*
X128730000Y-83490000D03*
D21*
X128730000Y-86030000D03*
X128730000Y-88570000D03*
X128730000Y-91110000D03*
X128730000Y-93650000D03*
D20*
X128730000Y-116510000D03*
D21*
X128730000Y-113970000D03*
X128730000Y-111430000D03*
X128730000Y-108890000D03*
X128730000Y-106350000D03*
D27*
X117750000Y-99500000D03*
X115250000Y-99500000D03*
D26*
X117850000Y-102000000D03*
X115150000Y-102000000D03*
D31*
X80151472Y-83348528D03*
D30*
G36*
X80858579Y-84409188D02*
X79090812Y-82641421D01*
X79444365Y-82287868D01*
X81212132Y-84055635D01*
X80858579Y-84409188D01*
X80858579Y-84409188D01*
G37*
D31*
X81000000Y-82500000D03*
D30*
G36*
X81707107Y-83560660D02*
X79939340Y-81792893D01*
X80292893Y-81439340D01*
X82060660Y-83207107D01*
X81707107Y-83560660D01*
X81707107Y-83560660D01*
G37*
D31*
X81848528Y-81651472D03*
D30*
G36*
X82555635Y-82712132D02*
X80787868Y-80944365D01*
X81141421Y-80590812D01*
X82909188Y-82358579D01*
X82555635Y-82712132D01*
X82555635Y-82712132D01*
G37*
D32*
X86171751Y-79828249D03*
D30*
G36*
X86330850Y-79138820D02*
X86861180Y-79669150D01*
X86012652Y-80517678D01*
X85482322Y-79987348D01*
X86330850Y-79138820D01*
X86330850Y-79138820D01*
G37*
D32*
X84828249Y-81171751D03*
D30*
G36*
X84987348Y-80482322D02*
X85517678Y-81012652D01*
X84669150Y-81861180D01*
X84138820Y-81330850D01*
X84987348Y-80482322D01*
X84987348Y-80482322D01*
G37*
D32*
X95328249Y-86671751D03*
D30*
G36*
X95169150Y-87361180D02*
X94638820Y-86830850D01*
X95487348Y-85982322D01*
X96017678Y-86512652D01*
X95169150Y-87361180D01*
X95169150Y-87361180D01*
G37*
D32*
X96671751Y-85328249D03*
D30*
G36*
X96512652Y-86017678D02*
X95982322Y-85487348D01*
X96830850Y-84638820D01*
X97361180Y-85169150D01*
X96512652Y-86017678D01*
X96512652Y-86017678D01*
G37*
D32*
X81671751Y-87328249D03*
D30*
G36*
X81830850Y-86638820D02*
X82361180Y-87169150D01*
X81512652Y-88017678D01*
X80982322Y-87487348D01*
X81830850Y-86638820D01*
X81830850Y-86638820D01*
G37*
D32*
X80328249Y-88671751D03*
D30*
G36*
X80487348Y-87982322D02*
X81017678Y-88512652D01*
X80169150Y-89361180D01*
X79638820Y-88830850D01*
X80487348Y-87982322D01*
X80487348Y-87982322D01*
G37*
D32*
X88828249Y-93828249D03*
D30*
G36*
X88138820Y-93669150D02*
X88669150Y-93138820D01*
X89517678Y-93987348D01*
X88987348Y-94517678D01*
X88138820Y-93669150D01*
X88138820Y-93669150D01*
G37*
D32*
X90171751Y-95171751D03*
D30*
G36*
X89482322Y-95012652D02*
X90012652Y-94482322D01*
X90861180Y-95330850D01*
X90330850Y-95861180D01*
X89482322Y-95012652D01*
X89482322Y-95012652D01*
G37*
D17*
X76650000Y-106350000D03*
D18*
X79190000Y-106350000D03*
D27*
X84150000Y-120950000D03*
X81650000Y-120950000D03*
X84150000Y-109950000D03*
X81650000Y-109950000D03*
D26*
X117850000Y-84500000D03*
X115150000Y-84500000D03*
X115050000Y-82000000D03*
X117750000Y-82000000D03*
X117850000Y-92000000D03*
X115150000Y-92000000D03*
X84250000Y-118450000D03*
X81550000Y-118450000D03*
D33*
X124000000Y-110725000D03*
X124000000Y-118275000D03*
D28*
X81550000Y-113900000D03*
X81550000Y-112000000D03*
X84250000Y-112950000D03*
D19*
X118425000Y-87000000D03*
X114575000Y-87000000D03*
D33*
X124000000Y-89275000D03*
X124000000Y-81725000D03*
D28*
X115650000Y-120450000D03*
X115650000Y-118550000D03*
X118350000Y-119500000D03*
D26*
X115150000Y-89500000D03*
X117850000Y-89500000D03*
X115150000Y-87000000D03*
X117850000Y-87000000D03*
D16*
X97900000Y-74000000D03*
D15*
X102100000Y-74000000D03*
D14*
X96550000Y-71550000D03*
X103450000Y-71550000D03*
D13*
X96000000Y-71950000D03*
X104000000Y-71950000D03*
D34*
X108475000Y-103775000D03*
X102125000Y-105045000D03*
X102125000Y-103775000D03*
X102125000Y-102505000D03*
X102125000Y-101235000D03*
X102125000Y-99965000D03*
X102125000Y-98695000D03*
X102125000Y-97425000D03*
X102125000Y-96155000D03*
X108475000Y-96155000D03*
X108475000Y-97425000D03*
X108475000Y-98695000D03*
X108475000Y-99965000D03*
X108475000Y-101235000D03*
X108475000Y-102505000D03*
X108475000Y-105045000D03*
D35*
X101800000Y-118280000D03*
X101800000Y-117010000D03*
X101800000Y-115740000D03*
X101800000Y-114470000D03*
X101800000Y-113200000D03*
X101800000Y-111930000D03*
X101800000Y-110660000D03*
X101800000Y-109390000D03*
X101800000Y-108120000D03*
X92400000Y-108120000D03*
X92400000Y-109390000D03*
X92400000Y-110660000D03*
X92400000Y-111930000D03*
X92400000Y-113200000D03*
X92400000Y-114470000D03*
X92400000Y-115740000D03*
X92400000Y-117010000D03*
X92400000Y-118280000D03*
D34*
X108275000Y-92595000D03*
X108275000Y-90055000D03*
X108275000Y-88785000D03*
X108275000Y-87515000D03*
X108275000Y-86245000D03*
X108275000Y-84975000D03*
X108275000Y-83705000D03*
X101925000Y-83705000D03*
X101925000Y-84975000D03*
X101925000Y-86245000D03*
X101925000Y-87515000D03*
X101925000Y-88785000D03*
X101925000Y-90055000D03*
X101925000Y-91325000D03*
X101925000Y-92595000D03*
X108275000Y-91325000D03*
D36*
X91110000Y-77140000D03*
X93650000Y-77140000D03*
X96190000Y-77140000D03*
X98730000Y-77140000D03*
X101270000Y-77140000D03*
X103810000Y-77140000D03*
X106350000Y-77140000D03*
X108890000Y-77140000D03*
X106350000Y-122860000D03*
X108890000Y-122860000D03*
X98730000Y-122860000D03*
X101270000Y-122860000D03*
X96190000Y-122860000D03*
X103810000Y-122860000D03*
X93650000Y-122860000D03*
D37*
X91110000Y-122860000D03*
D38*
X100893600Y-96200000D03*
X89143600Y-96200000D03*
X96474100Y-74457500D03*
X100762000Y-125281500D03*
X84098700Y-80442300D03*
X78973300Y-83445000D03*
X80125300Y-113900000D03*
D39*
X73700000Y-86100000D03*
X73800000Y-113900000D03*
D38*
X88950000Y-85700000D03*
X81100000Y-107050000D03*
X123532578Y-85216901D03*
X86360000Y-114300000D03*
X113650000Y-88195900D03*
X89330700Y-83553400D03*
X78208500Y-99534000D03*
X98789600Y-102920300D03*
D39*
X124868000Y-92500000D03*
X124768000Y-107500000D03*
X122422592Y-97877408D03*
D38*
X119195700Y-101002000D03*
X90308500Y-93448800D03*
X96426500Y-94080500D03*
X118955900Y-98126000D03*
X119278800Y-94429100D03*
X120553200Y-76364900D03*
X109070246Y-94076300D03*
X83268000Y-90483200D03*
X94094400Y-89765119D03*
X123300000Y-106925000D03*
X92500000Y-94075000D03*
X111249998Y-82750000D03*
X94742000Y-99981666D03*
X90042900Y-106324500D03*
X91756200Y-87748600D03*
X123277962Y-92185190D03*
X96950000Y-91600000D03*
X85211812Y-87115512D03*
X85650000Y-77100000D03*
X107050000Y-114650002D03*
X114097600Y-78477500D03*
X85966600Y-85301100D03*
X118355000Y-71805000D03*
X117809200Y-78120300D03*
X91258300Y-81200200D03*
X113629840Y-82370154D03*
X107347600Y-78850300D03*
X99823600Y-113852600D03*
X95181700Y-106759100D03*
X96007906Y-104417092D03*
X105122900Y-78324600D03*
X105330331Y-112607830D03*
X103715800Y-113614800D03*
X103165682Y-116175391D03*
X100141200Y-109791000D03*
X96157000Y-105594800D03*
X80025200Y-104688300D03*
X92451700Y-80786500D03*
X116500000Y-87969300D03*
X75423900Y-103110000D03*
X112102700Y-75847100D03*
X87964900Y-80977900D03*
X77457200Y-97465000D03*
X108410855Y-113542204D03*
X90762500Y-107513000D03*
X90000000Y-87750000D03*
X95650000Y-90075000D03*
X119750000Y-92500000D03*
X89561900Y-90216500D03*
X93373300Y-90591900D03*
X122250000Y-86500000D03*
X122015600Y-114032000D03*
X94116604Y-101431576D03*
X94400000Y-92355500D03*
X121549473Y-98868472D03*
X94400000Y-93444500D03*
X120766502Y-99629973D03*
X88738600Y-79784400D03*
X88529269Y-76600690D03*
X106442500Y-89587868D03*
X111750004Y-84000000D03*
X91027900Y-85301600D03*
X100150000Y-87800000D03*
X85702400Y-93356600D03*
X103980000Y-95285600D03*
X88394700Y-92484800D03*
X105165200Y-95029500D03*
X87633500Y-89009300D03*
X104750000Y-88250000D03*
X84895900Y-96430500D03*
X106589800Y-101676300D03*
D40*
X102720500Y-96155000D02*
X103052500Y-96487000D01*
X103052500Y-96487000D02*
X103052500Y-106867500D01*
X103052500Y-106867500D02*
X101800000Y-108120000D01*
X102125000Y-96155000D02*
X102720500Y-96155000D01*
X102852400Y-92595000D02*
X102852400Y-94706100D01*
X102852400Y-94706100D02*
X102720500Y-94838000D01*
X102720500Y-94838000D02*
X102720500Y-96155000D01*
X90073300Y-91755300D02*
X89334900Y-91016900D01*
X89334900Y-91016900D02*
X89230400Y-91016900D01*
X89230400Y-91016900D02*
X88761500Y-90548000D01*
X88761500Y-90548000D02*
X88761500Y-89885000D01*
X88761500Y-89885000D02*
X88923700Y-89722800D01*
X88923700Y-89722800D02*
X88923700Y-89722400D01*
X88923700Y-89722400D02*
X88946300Y-89699800D01*
X88946300Y-89699800D02*
X88946300Y-89641700D01*
X124450000Y-102500000D02*
X123619100Y-102500000D01*
X124450000Y-101300000D02*
X123419100Y-101300000D01*
X123619100Y-102500000D02*
X123419100Y-102300000D01*
X123419100Y-102300000D02*
X123419100Y-101300000D01*
D41*
X118250000Y-109000000D02*
X119610000Y-109000000D01*
X119610000Y-109000000D02*
X124450000Y-104160000D01*
X124450000Y-104160000D02*
X124450000Y-102500000D01*
D40*
X97900000Y-74000000D02*
X96931600Y-74000000D01*
X96931600Y-74000000D02*
X96474100Y-74457500D01*
X102125000Y-96155000D02*
X100938600Y-96155000D01*
X100938600Y-96155000D02*
X100893600Y-96200000D01*
X90171800Y-95171800D02*
X89143600Y-96200000D01*
X81730000Y-89371200D02*
X81027600Y-89371200D01*
X81027600Y-89371200D02*
X80328200Y-88671800D01*
X82446100Y-89371200D02*
X81730000Y-89371200D01*
X80328200Y-88671800D02*
X79811300Y-88154900D01*
X101925000Y-92595000D02*
X102852400Y-92595000D01*
X90688700Y-94654900D02*
X90688700Y-94651100D01*
X90688700Y-94651100D02*
X91052600Y-94287200D01*
X91052600Y-94287200D02*
X91052600Y-93836700D01*
X91052600Y-93836700D02*
X91108900Y-93780400D01*
X91108900Y-93780400D02*
X91108900Y-93117200D01*
X91108900Y-93117200D02*
X91052600Y-93060900D01*
X91052600Y-93060900D02*
X91052600Y-92734800D01*
X91052600Y-92734800D02*
X90890600Y-92572800D01*
X90890600Y-92572800D02*
X90890600Y-92572700D01*
X90890600Y-92572700D02*
X90890700Y-92572600D01*
X84828200Y-81171800D02*
X84098700Y-80442300D01*
D42*
X82946800Y-89371200D02*
X82446100Y-89371200D01*
D40*
X90123000Y-91805000D02*
X90073300Y-91755300D01*
X90123000Y-91805000D02*
X90890700Y-92572600D01*
X117850000Y-92000000D02*
X117850000Y-93005900D01*
X117750000Y-97000000D02*
X117750000Y-96019100D01*
X117750000Y-96019100D02*
X117387200Y-96019100D01*
X117387200Y-96019100D02*
X116744000Y-95375900D01*
X116744000Y-95375900D02*
X116744000Y-93609000D01*
X116744000Y-93609000D02*
X117347100Y-93005900D01*
X117347100Y-93005900D02*
X117850000Y-93005900D01*
X117750000Y-99500000D02*
X117750000Y-97000000D01*
D41*
X124676600Y-97273400D02*
X124450000Y-97500000D01*
X127150000Y-96500000D02*
X125450000Y-96500000D01*
X125450000Y-96500000D02*
X124676600Y-97273400D01*
D40*
X102100000Y-126000000D02*
X101144100Y-126000000D01*
X100762000Y-125281500D02*
X101144100Y-125663600D01*
X101144100Y-125663600D02*
X101144100Y-126000000D01*
X85866000Y-83305400D02*
X85763100Y-83202500D01*
X85527900Y-82967300D02*
X84828200Y-82267600D01*
X85527900Y-82967300D02*
X85763100Y-83202500D01*
X81650000Y-110440400D02*
X81650000Y-109950000D01*
X79811300Y-88154900D02*
X79811300Y-84283000D01*
X79811300Y-84283000D02*
X78973300Y-83445000D01*
D42*
X83744700Y-88573300D02*
X83489500Y-88828500D01*
X83345800Y-88972200D02*
X82946800Y-89371200D01*
D40*
X83345800Y-88972200D02*
X83489500Y-88828500D01*
X81550000Y-112000000D02*
X81550000Y-112755900D01*
X80125300Y-113900000D02*
X80125300Y-113662300D01*
X80125300Y-113662300D02*
X81031700Y-112755900D01*
X81031700Y-112755900D02*
X81550000Y-112755900D01*
X80444100Y-115950000D02*
X80125300Y-115631200D01*
X80125300Y-115631200D02*
X80125300Y-113900000D01*
X81650000Y-110440400D02*
X81650000Y-110930900D01*
X90171800Y-95171800D02*
X90688700Y-94654900D01*
X81650000Y-110930900D02*
X81550000Y-111030900D01*
X81550000Y-111030900D02*
X81550000Y-112000000D01*
X84828200Y-82267600D02*
X84828200Y-81171800D01*
X78973300Y-83445000D02*
X78973300Y-83217400D01*
X78973300Y-83217400D02*
X78709000Y-82953100D01*
X78709000Y-82953100D02*
X78709000Y-82519900D01*
X78709000Y-82519900D02*
X79864500Y-81364400D01*
X81550000Y-115950000D02*
X80444100Y-115950000D01*
X115750000Y-116980900D02*
X115504800Y-116980900D01*
X115504800Y-116980900D02*
X114544100Y-117941600D01*
X114544100Y-117941600D02*
X114544100Y-120450000D01*
X115750000Y-116000000D02*
X115750000Y-116980900D01*
X117750000Y-82000000D02*
X117750000Y-83005900D01*
X117750000Y-83005900D02*
X117850000Y-83105900D01*
X117850000Y-83105900D02*
X117850000Y-84500000D01*
X81000000Y-82500000D02*
X79864500Y-81364400D01*
X115650000Y-120450000D02*
X114544100Y-120450000D01*
D41*
X73700000Y-86100000D02*
X73700000Y-86938700D01*
X73700000Y-86938700D02*
X73842400Y-87081100D01*
X73842400Y-97184700D02*
X74400000Y-97742300D01*
X74400000Y-97742300D02*
X74400000Y-101964000D01*
X74400000Y-101964000D02*
X73842400Y-102522000D01*
X73842400Y-102522000D02*
X73842400Y-112919000D01*
X73842400Y-112919000D02*
X73800000Y-112961000D01*
X73800000Y-112961000D02*
X73800000Y-113900000D01*
X71270000Y-83490000D02*
X71270000Y-80830000D01*
X71270000Y-80830000D02*
X72700000Y-79400000D01*
X72700000Y-79400000D02*
X77119600Y-79400000D01*
X77119600Y-79400000D02*
X80000000Y-76519600D01*
X80000000Y-76519600D02*
X80000000Y-73000000D01*
X80000000Y-73000000D02*
X81730000Y-71270000D01*
X81730000Y-71270000D02*
X83490000Y-71270000D01*
X71270000Y-83490000D02*
X71570000Y-83490000D01*
X83490000Y-128730000D02*
X82130000Y-128730000D01*
X82130000Y-128730000D02*
X79500000Y-126100000D01*
X79500000Y-126100000D02*
X79500000Y-123200000D01*
X79500000Y-123200000D02*
X76800000Y-120500000D01*
X76800000Y-120500000D02*
X73000000Y-120500000D01*
X73000000Y-120500000D02*
X71270000Y-118770000D01*
X71270000Y-118770000D02*
X71270000Y-116510000D01*
X118250000Y-109000000D02*
X118250000Y-110235000D01*
X118250000Y-110235000D02*
X116959000Y-111526000D01*
X116959000Y-111526000D02*
X116959000Y-112441000D01*
X116959000Y-112441000D02*
X115950000Y-113450000D01*
X115950000Y-113450000D02*
X115650000Y-113450000D01*
X115750000Y-116000000D02*
X115750000Y-113550000D01*
X115750000Y-113550000D02*
X115650000Y-113450000D01*
X116510000Y-128730000D02*
X117770000Y-128730000D01*
X117770000Y-128730000D02*
X120100000Y-126400000D01*
X120100000Y-126400000D02*
X120100000Y-122700000D01*
X120100000Y-122700000D02*
X124000000Y-118800000D01*
X124000000Y-118800000D02*
X124000000Y-118275000D01*
X128730000Y-116510000D02*
X128390000Y-116510000D01*
X128390000Y-116510000D02*
X126625000Y-118275000D01*
X126625000Y-118275000D02*
X124000000Y-118275000D01*
X127150000Y-103500000D02*
X125450000Y-103500000D01*
X125450000Y-103500000D02*
X124450000Y-102500000D01*
X116510000Y-71270000D02*
X116510000Y-73029600D01*
X116510000Y-73029600D02*
X116500000Y-73039600D01*
X116500000Y-73039600D02*
X116500000Y-74800000D01*
X116500000Y-74800000D02*
X118000000Y-76300000D01*
X118000000Y-76300000D02*
X119100000Y-76300000D01*
X119100000Y-76300000D02*
X124000000Y-81200000D01*
X124000000Y-81200000D02*
X124000000Y-81725000D01*
X71570000Y-116510000D02*
X71270000Y-116510000D01*
X128730000Y-83490000D02*
X125765000Y-83490000D01*
X125765000Y-83490000D02*
X124000000Y-81725000D01*
D40*
X80125000Y-120479800D02*
X80595200Y-120950000D01*
X80595200Y-120950000D02*
X81650000Y-120950000D01*
X80125000Y-120225000D02*
X80125000Y-120479800D01*
X80125000Y-120225000D02*
X73800000Y-113900000D01*
X89300000Y-89288000D02*
X89300000Y-89050000D01*
X89300000Y-89050000D02*
X88946010Y-88696010D01*
X88946300Y-89641700D02*
X89300000Y-89288000D01*
X89300000Y-89288000D02*
X89646150Y-89288000D01*
X94072700Y-84609300D02*
X95952900Y-84609300D01*
X90955800Y-87417100D02*
X92128900Y-86244000D01*
X95952900Y-84609300D02*
X96671800Y-85328200D01*
X90955800Y-87978350D02*
X90955800Y-87417100D01*
X92128900Y-86244000D02*
X92438000Y-86244000D01*
X89646150Y-89288000D02*
X90955800Y-87978350D01*
X92438000Y-86244000D02*
X94072700Y-84609300D01*
X88946010Y-85703990D02*
X88950000Y-85700000D01*
X88946010Y-88696010D02*
X88946010Y-85703990D01*
D41*
X73842400Y-87081100D02*
X73842400Y-97184700D01*
D40*
X81730000Y-89600000D02*
X81730000Y-89371200D01*
X81730000Y-96200000D02*
X81730000Y-89600000D01*
X81730000Y-89600000D02*
X81400000Y-89600000D01*
X81400000Y-89600000D02*
X81350000Y-89650000D01*
X81650000Y-107600000D02*
X81100000Y-107050000D01*
X81650000Y-109950000D02*
X81650000Y-107600000D01*
X118904800Y-84500000D02*
X119621701Y-85216901D01*
X119621701Y-85216901D02*
X122903961Y-85216901D01*
X122903961Y-85216901D02*
X123532578Y-85216901D01*
X117850000Y-84500000D02*
X118904800Y-84500000D01*
X123273400Y-97273400D02*
X124676600Y-97273400D01*
X118000000Y-92000000D02*
X123273400Y-97273400D01*
X117850000Y-92000000D02*
X118000000Y-92000000D01*
X87122000Y-114300000D02*
X86360000Y-114300000D01*
D43*
X115150000Y-89500000D02*
X115150000Y-92000000D01*
X115150000Y-89500000D02*
X114575000Y-89500000D01*
X114575000Y-88594900D02*
X114049000Y-88594900D01*
X114049000Y-88594900D02*
X113650000Y-88195900D01*
X90426900Y-82598300D02*
X89471800Y-83553400D01*
X89471800Y-83553400D02*
X89330700Y-83553400D01*
X114575000Y-89500000D02*
X114575000Y-88594900D01*
X85512500Y-83658900D02*
X82104800Y-80251200D01*
X82104800Y-80251200D02*
X80273800Y-80251200D01*
X80273800Y-80251200D02*
X78208500Y-82316500D01*
X78208500Y-82316500D02*
X78208500Y-99534000D01*
X81730000Y-103820000D02*
X81730000Y-104975100D01*
X81730000Y-104975100D02*
X84150000Y-107395100D01*
X84150000Y-107395100D02*
X84150000Y-109950000D01*
X84150000Y-109950000D02*
X84150000Y-110880100D01*
X84150000Y-110880100D02*
X84250000Y-110980100D01*
X84250000Y-110980100D02*
X84250000Y-112950000D01*
D40*
X92400000Y-108120000D02*
X94952800Y-108120000D01*
X94952800Y-108120000D02*
X95982100Y-107090700D01*
X95982100Y-107090700D02*
X95982100Y-106901700D01*
X95982100Y-106901700D02*
X97917000Y-104966800D01*
X97917000Y-104966800D02*
X97917000Y-103792900D01*
X97917000Y-103792900D02*
X98789600Y-102920300D01*
X124450000Y-98700000D02*
X123470000Y-98700000D01*
X123470000Y-98700000D02*
X123400000Y-98629800D01*
X123400000Y-98629800D02*
X123400000Y-98600000D01*
D41*
X124000000Y-89275000D02*
X124275000Y-89275000D01*
X124275000Y-89275000D02*
X124868000Y-89868100D01*
X124868000Y-89868100D02*
X124868000Y-92500000D01*
X124000000Y-110725000D02*
X124000000Y-109600000D01*
X124000000Y-109600000D02*
X125000000Y-108600000D01*
X125000000Y-108600000D02*
X125000000Y-107732000D01*
X125000000Y-107732000D02*
X124768000Y-107500000D01*
X118350000Y-112500000D02*
X122225000Y-112500000D01*
X122225000Y-112500000D02*
X124000000Y-110725000D01*
X118350000Y-112500000D02*
X118350000Y-115900000D01*
X118350000Y-115900000D02*
X118250000Y-116000000D01*
X118250000Y-116000000D02*
X118250000Y-116300000D01*
X118250000Y-116300000D02*
X116000000Y-118550000D01*
X116000000Y-118550000D02*
X115650000Y-118550000D01*
X123095691Y-98550507D02*
X122422592Y-97877408D01*
X123145184Y-98600000D02*
X123095691Y-98550507D01*
X123400000Y-98600000D02*
X123145184Y-98600000D01*
D40*
X108475000Y-105045000D02*
X109402400Y-105045000D01*
X89719800Y-92108900D02*
X89603600Y-92108900D01*
X89603600Y-92108900D02*
X88222400Y-90727700D01*
X88222400Y-90727700D02*
X88222400Y-89704900D01*
X88222400Y-89704900D02*
X88438000Y-89489300D01*
X88438000Y-89489300D02*
X88438000Y-88662900D01*
X88438000Y-88662900D02*
X86372800Y-86597700D01*
X79190000Y-106350000D02*
X79190000Y-101774800D01*
X79190000Y-101774800D02*
X80954800Y-100010000D01*
X80954800Y-100010000D02*
X83150700Y-100010000D01*
X83150700Y-100010000D02*
X88311300Y-94849400D01*
X88311300Y-94849400D02*
X88311300Y-94345100D01*
X86372800Y-86597700D02*
X86887700Y-86082800D01*
X86887700Y-86082800D02*
X86887700Y-83608100D01*
X86887700Y-83608100D02*
X86231400Y-82951800D01*
X117850000Y-102000000D02*
X118955900Y-102000000D01*
X118955900Y-102000000D02*
X118955900Y-101241800D01*
X118955900Y-101241800D02*
X119195700Y-101002000D01*
X109402400Y-105045000D02*
X109402400Y-97425000D01*
X108475000Y-97425000D02*
X109402400Y-97425000D01*
X89739000Y-92917400D02*
X89719800Y-92898300D01*
X89719800Y-92898300D02*
X89719800Y-92329200D01*
X90308500Y-93448800D02*
X89796300Y-92936600D01*
X89796300Y-92936600D02*
X89758100Y-92936600D01*
X89758100Y-92936600D02*
X89739000Y-92917400D01*
X89739000Y-92917400D02*
X88828200Y-93828200D01*
X88828200Y-93828200D02*
X88311300Y-94345100D01*
D42*
X89719800Y-92108900D02*
X89719800Y-92108800D01*
X89719800Y-92219000D02*
X89719800Y-92108900D01*
D40*
X89719800Y-92245500D02*
X89719800Y-92219000D01*
D42*
X89719800Y-92329200D02*
X89719800Y-92245500D01*
D40*
X84208600Y-86597700D02*
X84208700Y-86597600D01*
X84208700Y-87402300D02*
X84208600Y-87402300D01*
X84208600Y-87402300D02*
X84208600Y-86597700D01*
D42*
X86231400Y-82951800D02*
X86219600Y-82951800D01*
D40*
X83391200Y-88219800D02*
X84208700Y-87402300D01*
X83391200Y-85780200D02*
X84208700Y-86597600D01*
X82188700Y-87845100D02*
X83016500Y-87845100D01*
X83016500Y-87845100D02*
X83391200Y-88219800D01*
X81671800Y-87328200D02*
X82188700Y-87845100D01*
X118955900Y-94500000D02*
X118955900Y-98126000D01*
X119278800Y-94429100D02*
X119026800Y-94429100D01*
X119026800Y-94429100D02*
X118955900Y-94500000D01*
X117850000Y-94500000D02*
X118955900Y-94500000D01*
X115750000Y-109000000D02*
X115750000Y-108019100D01*
X115750000Y-108019100D02*
X117850000Y-105919100D01*
X117850000Y-105919100D02*
X117850000Y-102000000D01*
D42*
X93614900Y-85786300D02*
X93608800Y-85780200D01*
D40*
X120000000Y-74350000D02*
X120000000Y-75455900D01*
X120553200Y-76364900D02*
X120553200Y-76009100D01*
X120553200Y-76009100D02*
X120000000Y-75455900D01*
X115650000Y-111550000D02*
X115650000Y-110794100D01*
X115650000Y-110794100D02*
X115750000Y-110694100D01*
X115750000Y-110694100D02*
X115750000Y-109000000D01*
X86688700Y-80345100D02*
X85715800Y-81318000D01*
X85715800Y-81318000D02*
X85715800Y-81780900D01*
D42*
X86219600Y-82951800D02*
X85421700Y-82153900D01*
X85715800Y-81780900D02*
X85421700Y-82075000D01*
X85421700Y-82075000D02*
X85421700Y-82153900D01*
D40*
X86171800Y-79828200D02*
X86688700Y-80345100D01*
X96426500Y-93307652D02*
X96426500Y-94080500D01*
X97750102Y-91984050D02*
X96426500Y-93307652D01*
X97006513Y-89177913D02*
X97006513Y-90472361D01*
X97750102Y-91215950D02*
X97750102Y-91984050D01*
X97006513Y-90472361D02*
X97750102Y-91215950D01*
X95306849Y-86671751D02*
X94903600Y-87075000D01*
X94903600Y-87075000D02*
X97006513Y-89177913D01*
X95328249Y-86671751D02*
X95306849Y-86671751D01*
X93614900Y-85786300D02*
X94903600Y-87075000D01*
X108275000Y-92595000D02*
X108275000Y-93281054D01*
X109402400Y-95037071D02*
X109070246Y-94704917D01*
X108275000Y-93281054D02*
X109070246Y-94076300D01*
X109070246Y-94704917D02*
X109070246Y-94076300D01*
X109402400Y-97425000D02*
X109402400Y-95037071D01*
X86090487Y-86315387D02*
X84490913Y-86315387D01*
X84490913Y-86315387D02*
X84208600Y-86597700D01*
X86372800Y-86597700D02*
X86090487Y-86315387D01*
D41*
X120879000Y-120700000D02*
X121800000Y-119779000D01*
X121800000Y-119779000D02*
X121800000Y-115900000D01*
X121800000Y-115900000D02*
X123730000Y-113970000D01*
X123730000Y-113970000D02*
X128730000Y-113970000D01*
X113970000Y-128730000D02*
X113970000Y-128430000D01*
X113970000Y-128430000D02*
X115700000Y-126700000D01*
X115700000Y-126700000D02*
X118400000Y-126700000D01*
X118400000Y-126700000D02*
X119200000Y-125900000D01*
X119200000Y-125900000D02*
X119200000Y-122379000D01*
X119200000Y-122379000D02*
X120879000Y-120700000D01*
X74100000Y-119600000D02*
X73100000Y-118600000D01*
X73100000Y-118600000D02*
X73100000Y-115500000D01*
X73100000Y-115500000D02*
X71570000Y-113970000D01*
X86030000Y-71270000D02*
X86030000Y-73029600D01*
X86030000Y-73029600D02*
X85659600Y-73400000D01*
X85659600Y-73400000D02*
X82800000Y-73400000D01*
X82800000Y-73400000D02*
X80900000Y-75300000D01*
X80900000Y-75300000D02*
X80900000Y-76840900D01*
X80900000Y-76840900D02*
X78020500Y-79720500D01*
X78020500Y-79720500D02*
X77440900Y-80300000D01*
X77440900Y-80300000D02*
X74400000Y-80300000D01*
X74400000Y-80300000D02*
X73300000Y-81400000D01*
X73300000Y-81400000D02*
X73300000Y-84300000D01*
X73300000Y-84300000D02*
X71570000Y-86030000D01*
X71570000Y-86030000D02*
X71270000Y-86030000D01*
X71570000Y-86030000D02*
X72978800Y-87438800D01*
X72978800Y-87438800D02*
X72978800Y-97542400D01*
X72978800Y-97542400D02*
X73536400Y-98100000D01*
X73536400Y-98100000D02*
X73536400Y-101607000D01*
X73536400Y-101607000D02*
X72978800Y-102164000D01*
X72978800Y-102164000D02*
X72978800Y-112014000D01*
X72978800Y-112014000D02*
X72540000Y-112452000D01*
X72540000Y-112452000D02*
X72540000Y-113000000D01*
X72540000Y-113000000D02*
X71570000Y-113970000D01*
X86030000Y-128730000D02*
X86030000Y-126970000D01*
X86030000Y-126970000D02*
X85659600Y-126600000D01*
X85659600Y-126600000D02*
X81500000Y-126600000D01*
X81500000Y-126600000D02*
X80400000Y-125500000D01*
X80400000Y-125500000D02*
X80400000Y-122879000D01*
X80400000Y-122879000D02*
X77760700Y-120239000D01*
X77760700Y-120239000D02*
X77121300Y-119600000D01*
X77121300Y-119600000D02*
X74100000Y-119600000D01*
X118350000Y-119500000D02*
X119710000Y-119500000D01*
X119710000Y-119500000D02*
X120879000Y-120669000D01*
X120879000Y-120669000D02*
X120879000Y-120700000D01*
X71570000Y-113970000D02*
X71270000Y-113970000D01*
X125140000Y-84200000D02*
X121800000Y-84200000D01*
X126970000Y-86030000D02*
X125140000Y-84200000D01*
X121800000Y-80300000D02*
X118664000Y-77163600D01*
X117564000Y-77163600D02*
X113970000Y-73569600D01*
X118664000Y-77163600D02*
X117564000Y-77163600D01*
X121800000Y-84200000D02*
X121800000Y-80300000D01*
X128730000Y-86030000D02*
X126970000Y-86030000D01*
X113970000Y-73569600D02*
X113970000Y-71270000D01*
D43*
X83268000Y-90483200D02*
X83268000Y-89757200D01*
X83268000Y-89757200D02*
X84098300Y-88926900D01*
X93255300Y-88573300D02*
X94094400Y-89412400D01*
X94094400Y-89412400D02*
X94094400Y-89765119D01*
X128730000Y-108890000D02*
X128430000Y-108890000D01*
X128430000Y-108890000D02*
X126062099Y-106522099D01*
X126062099Y-106522099D02*
X123702901Y-106522099D01*
X123702901Y-106522099D02*
X123300000Y-106925000D01*
X108890000Y-71270000D02*
X108890000Y-71570000D01*
X111249998Y-76103364D02*
X111249998Y-82750000D01*
X108890000Y-73743366D02*
X111249998Y-76103364D01*
X108890000Y-71270000D02*
X108890000Y-73743366D01*
X89662000Y-125928800D02*
X91110000Y-127376800D01*
X91110000Y-127376800D02*
X91110000Y-128730000D01*
X89662000Y-120650000D02*
X89662000Y-125928800D01*
X90678000Y-119380000D02*
X89662000Y-120396000D01*
X89662000Y-120396000D02*
X89662000Y-120650000D01*
X90678000Y-108966000D02*
X90678000Y-119380000D01*
X89293599Y-107581599D02*
X90678000Y-108966000D01*
X89293599Y-105964835D02*
X89293599Y-107581599D01*
X94742000Y-99981666D02*
X94113383Y-99981666D01*
X94113383Y-99981666D02*
X91948000Y-102147049D01*
X91948000Y-102147049D02*
X91948000Y-103310434D01*
X91948000Y-103310434D02*
X89293599Y-105964835D01*
X93128617Y-94075000D02*
X93541617Y-94488000D01*
X92500000Y-94075000D02*
X93128617Y-94075000D01*
X93541617Y-94488000D02*
X94488000Y-94488000D01*
X94742000Y-94742000D02*
X94742000Y-99981666D01*
X94488000Y-94488000D02*
X94742000Y-94742000D01*
X92120200Y-88079400D02*
X92087000Y-88079400D01*
X92087000Y-88079400D02*
X91756200Y-87748600D01*
X92120200Y-88079400D02*
X92120200Y-88145300D01*
X92901700Y-88926900D02*
X92120200Y-88145300D01*
X90042900Y-106324500D02*
X89954900Y-106412500D01*
X123277962Y-92357256D02*
X123277962Y-92185190D01*
X128730000Y-91110000D02*
X128430000Y-91110000D01*
X128430000Y-91110000D02*
X126062099Y-93477901D01*
X126062099Y-93477901D02*
X124398607Y-93477901D01*
X124398607Y-93477901D02*
X123277962Y-92357256D01*
X92120200Y-88079400D02*
X92940200Y-87259400D01*
X92940200Y-87259400D02*
X93918368Y-87259400D01*
X93918368Y-87259400D02*
X96549302Y-89890334D01*
X96505501Y-91155501D02*
X96950000Y-91600000D01*
X96505501Y-90493801D02*
X96505501Y-91155501D01*
X96549302Y-90450000D02*
X96505501Y-90493801D01*
X96549302Y-89890334D02*
X96549302Y-90450000D01*
X84451800Y-89280400D02*
X85211812Y-88520388D01*
X85211812Y-88520388D02*
X85211812Y-87744129D01*
X85211812Y-87744129D02*
X85211812Y-87115512D01*
X91110000Y-71570000D02*
X89599303Y-73080697D01*
X88741325Y-77544499D02*
X86094499Y-77544499D01*
X89599303Y-73080697D02*
X89599303Y-76686521D01*
X89599303Y-76686521D02*
X88741325Y-77544499D01*
X91110000Y-71270000D02*
X91110000Y-71570000D01*
X86094499Y-77544499D02*
X85650000Y-77100000D01*
X108890000Y-128730000D02*
X108890000Y-128430000D01*
X107444497Y-115673116D02*
X107050000Y-115278619D01*
X107050000Y-115278619D02*
X107050000Y-114650002D01*
X107444497Y-126984497D02*
X107444497Y-115673116D01*
X108890000Y-128430000D02*
X107444497Y-126984497D01*
X95676900Y-92873100D02*
X95676900Y-98819181D01*
X90671517Y-106324500D02*
X90042900Y-106324500D01*
X95897713Y-99039994D02*
X95897713Y-101098304D01*
X96950000Y-91600000D02*
X95676900Y-92873100D01*
X95897713Y-101098304D02*
X90671517Y-106324500D01*
X95676900Y-98819181D02*
X95897713Y-99039994D01*
X84451800Y-84719600D02*
X85233300Y-85501000D01*
X85233300Y-85501000D02*
X85343500Y-85390800D01*
X85343500Y-85390800D02*
X85876900Y-85390800D01*
X85876900Y-85390800D02*
X85966600Y-85301100D01*
X115150000Y-79750000D02*
X115150000Y-78794900D01*
X114097600Y-78477500D02*
X114415000Y-78794900D01*
X114415000Y-78794900D02*
X115150000Y-78794900D01*
X117850000Y-78794900D02*
X117809200Y-78754100D01*
X117809200Y-78754100D02*
X117809200Y-78120300D01*
X117850000Y-79750000D02*
X117850000Y-78794900D01*
X120000000Y-71650000D02*
X119044900Y-71650000D01*
X118355000Y-71805000D02*
X118889900Y-71805000D01*
X118889900Y-71805000D02*
X119044900Y-71650000D01*
X90073300Y-82244700D02*
X91117800Y-81200200D01*
X91117800Y-81200200D02*
X91258300Y-81200200D01*
X115150000Y-87000000D02*
X114575000Y-87000000D01*
X115150000Y-87000000D02*
X115150000Y-84500000D01*
X115150000Y-84500000D02*
X115050000Y-84500000D01*
X113629840Y-83079840D02*
X113629840Y-82370154D01*
X115050000Y-84500000D02*
X113629840Y-83079840D01*
X84805400Y-84366000D02*
X84023900Y-83584400D01*
X80151500Y-83348500D02*
X81251200Y-84448200D01*
X81251200Y-84448200D02*
X81963500Y-83735900D01*
X81963500Y-83735900D02*
X83872400Y-83735900D01*
X83872400Y-83735900D02*
X84023900Y-83584400D01*
X81848500Y-81651500D02*
X82948200Y-82751200D01*
X82948200Y-82751200D02*
X83897600Y-82751200D01*
X83897600Y-82751200D02*
X85158900Y-84012500D01*
X84023900Y-90415500D02*
X84023900Y-90924700D01*
X84023900Y-90924700D02*
X83654500Y-91294100D01*
X83654500Y-91294100D02*
X83654500Y-96320800D01*
X83654500Y-96320800D02*
X83617800Y-96357500D01*
X83617800Y-96357500D02*
X83617800Y-96808000D01*
X83617800Y-96808000D02*
X83070600Y-97355200D01*
X83070600Y-97355200D02*
X81128700Y-97355200D01*
X81128700Y-97355200D02*
X80102200Y-98381700D01*
X80102200Y-98381700D02*
X80102200Y-98729800D01*
X80102200Y-98729800D02*
X76650000Y-102182000D01*
X76650000Y-102182000D02*
X76650000Y-106350000D01*
X84250000Y-119405100D02*
X80620100Y-119405100D01*
X80620100Y-119405100D02*
X76650000Y-115435000D01*
X76650000Y-115435000D02*
X76650000Y-106350000D01*
X84150000Y-120019900D02*
X84250000Y-119919900D01*
X84250000Y-119919900D02*
X84250000Y-119405100D01*
X84250000Y-118450000D02*
X84250000Y-119405100D01*
X84150000Y-120950000D02*
X84150000Y-120019900D01*
X84805400Y-89634000D02*
X84023900Y-90415500D01*
X90780400Y-82951800D02*
X92196100Y-81536100D01*
X92196100Y-81536100D02*
X92762300Y-81536100D01*
X92762300Y-81536100D02*
X93201300Y-81097100D01*
X93201300Y-81097100D02*
X93201300Y-80260300D01*
X93201300Y-80260300D02*
X92971900Y-80030900D01*
X92971900Y-80030900D02*
X92971900Y-78809700D01*
X92971900Y-78809700D02*
X92557500Y-78395300D01*
X92557500Y-78395300D02*
X92557500Y-76336200D01*
X92557500Y-76336200D02*
X93660100Y-75233600D01*
X93660100Y-75233600D02*
X99165000Y-75233600D01*
X99165000Y-75233600D02*
X100398600Y-74000000D01*
X100398600Y-74000000D02*
X102100000Y-74000000D01*
X115250000Y-96069900D02*
X115150000Y-95969900D01*
X115150000Y-95969900D02*
X115150000Y-94500000D01*
X106350000Y-71270000D02*
X106350000Y-72725100D01*
X102100000Y-74000000D02*
X105075100Y-74000000D01*
X105075100Y-74000000D02*
X106350000Y-72725100D01*
X115250000Y-97000000D02*
X115250000Y-96069900D01*
X114196800Y-94500000D02*
X115150000Y-94500000D01*
X110500698Y-76230298D02*
X110500698Y-85359665D01*
X106350000Y-72725100D02*
X106995500Y-72725100D01*
X106995500Y-72725100D02*
X110500698Y-76230298D01*
X110500698Y-85359665D02*
X111750000Y-86608967D01*
X111750000Y-86608967D02*
X111750000Y-92053200D01*
X111750000Y-92053200D02*
X114196800Y-94500000D01*
X115200000Y-99500000D02*
X115150000Y-99550000D01*
X115150000Y-99550000D02*
X115150000Y-102000000D01*
X115250000Y-99500000D02*
X115200000Y-99500000D01*
X97900000Y-126000000D02*
X94924900Y-126000000D01*
X93650000Y-127274900D02*
X94924900Y-126000000D01*
X93650000Y-128730000D02*
X93650000Y-127274900D01*
X92359100Y-82523800D02*
X91915600Y-82523800D01*
X95708300Y-75691800D02*
X95078200Y-76321900D01*
X111500000Y-94324751D02*
X111343589Y-94168340D01*
X91915600Y-82523800D02*
X91134000Y-83305400D01*
X108861900Y-75183500D02*
X99790400Y-75183500D01*
X110094287Y-76415887D02*
X108861900Y-75183500D01*
X111343589Y-94168340D02*
X111343589Y-86777307D01*
X99790400Y-75183500D02*
X99282100Y-75691800D01*
X111343589Y-86777307D02*
X110094287Y-85528005D01*
X95078200Y-79804700D02*
X92359100Y-82523800D01*
X115200000Y-99500000D02*
X111500000Y-95800000D01*
X110094287Y-85528005D02*
X110094287Y-76415887D01*
X111500000Y-95800000D02*
X111500000Y-94324751D01*
X99282100Y-75691800D02*
X95708300Y-75691800D01*
X95078200Y-76321900D02*
X95078200Y-79804700D01*
X105694287Y-114021994D02*
X115150000Y-104566281D01*
X115150000Y-102853200D02*
X115150000Y-102000000D01*
X104422995Y-117750505D02*
X104422995Y-115493286D01*
X100000000Y-122173500D02*
X104422995Y-117750505D01*
X100000000Y-123650000D02*
X100000000Y-122173500D01*
X115150000Y-104566281D02*
X115150000Y-102853200D01*
X104422995Y-115493286D02*
X105694287Y-114221994D01*
X97900000Y-125750000D02*
X100000000Y-123650000D01*
X105694287Y-114221994D02*
X105694287Y-114021994D01*
X97900000Y-126000000D02*
X97900000Y-125750000D01*
D40*
X107347600Y-83705000D02*
X107347600Y-78850300D01*
X108275000Y-83705000D02*
X107347600Y-83705000D01*
X100444100Y-117010000D02*
X99823600Y-116389500D01*
X99823600Y-116389500D02*
X99823600Y-113852600D01*
X101800000Y-117010000D02*
X100444100Y-117010000D01*
X98142000Y-86774300D02*
X97920935Y-86995365D01*
X97920935Y-86995365D02*
X97920935Y-90093597D01*
X97920935Y-90093597D02*
X98664524Y-90837186D01*
X98664524Y-90837186D02*
X98664524Y-92462813D01*
X98664524Y-92462813D02*
X97920935Y-93206402D01*
X94699793Y-106277193D02*
X95181700Y-106759100D01*
X97920935Y-93206402D02*
X97920935Y-100451479D01*
X97920935Y-100451479D02*
X94699793Y-103672621D01*
X94699793Y-103672621D02*
X94699793Y-106277193D01*
X98142000Y-79473000D02*
X98142000Y-86774300D01*
X96190000Y-77521000D02*
X98142000Y-79473000D01*
X96190000Y-77140000D02*
X96190000Y-77521000D01*
X98936956Y-101488042D02*
X96452405Y-103972593D01*
X99680546Y-90416336D02*
X99680546Y-92883660D01*
X98936957Y-89672747D02*
X99680546Y-90416336D01*
X101925000Y-86245000D02*
X100420848Y-86245000D01*
X100420848Y-86245000D02*
X98936957Y-87728891D01*
X98936957Y-93627249D02*
X98936956Y-101488042D01*
X96452405Y-103972593D02*
X96007906Y-104417092D01*
X98936957Y-87728891D02*
X98936957Y-89672747D01*
X99680546Y-92883660D02*
X98936957Y-93627249D01*
X103949898Y-80200898D02*
X103949898Y-88634050D01*
X101270000Y-77521000D02*
X103949898Y-80200898D01*
X104530229Y-113948671D02*
X104008900Y-114470000D01*
X109870356Y-92528572D02*
X109870357Y-94778573D01*
X107250449Y-91934601D02*
X109276385Y-91934601D01*
X109929015Y-94837231D02*
X109929015Y-106824994D01*
X109870357Y-94778573D02*
X109929015Y-94837231D01*
X104530229Y-112223780D02*
X104530229Y-113948671D01*
X109929015Y-106824994D02*
X104530229Y-112223780D01*
X101270000Y-77140000D02*
X101270000Y-77521000D01*
X103104800Y-114470000D02*
X101800000Y-114470000D01*
X103949898Y-88634050D02*
X107250449Y-91934601D01*
X109276385Y-91934601D02*
X109870356Y-92528572D01*
X104008900Y-114470000D02*
X103104800Y-114470000D01*
X108275000Y-84975000D02*
X107347600Y-84975000D01*
X105122900Y-78324600D02*
X106761100Y-79962800D01*
X106761100Y-79962800D02*
X106761100Y-84388500D01*
X106761100Y-84388500D02*
X107347600Y-84975000D01*
X108592500Y-87515000D02*
X110378367Y-89300867D01*
X110486100Y-94675880D02*
X110486100Y-107452061D01*
X110486100Y-107452061D02*
X105774830Y-112163331D01*
X108275000Y-87515000D02*
X108592500Y-87515000D01*
X110378367Y-89300867D02*
X110378367Y-94568147D01*
X105774830Y-112163331D02*
X105330331Y-112607830D01*
X110378367Y-94568147D02*
X110486100Y-94675880D01*
X103965784Y-116814216D02*
X103965784Y-115303904D01*
X110994400Y-108075288D02*
X110994400Y-94465744D01*
X109387067Y-85467379D02*
X109387067Y-79084867D01*
X105237076Y-114032612D02*
X105237076Y-113832612D01*
X110886378Y-86966690D02*
X109387067Y-85467379D01*
X102500000Y-118280000D02*
X103965784Y-116814216D01*
X110994400Y-94465744D02*
X110886378Y-94357722D01*
X101800000Y-118280000D02*
X102500000Y-118280000D01*
X103965784Y-115303904D02*
X105237076Y-114032612D01*
X109387067Y-79084867D02*
X108890000Y-78587800D01*
X110886378Y-94357722D02*
X110886378Y-86966690D01*
X108890000Y-78587800D02*
X108890000Y-77140000D01*
X105237076Y-113832612D02*
X110994400Y-108075288D01*
X101800000Y-111930000D02*
X103155900Y-111930000D01*
X103715800Y-113614800D02*
X103715800Y-112489900D01*
X103715800Y-112489900D02*
X103155900Y-111930000D01*
X103104800Y-115740000D02*
X103165682Y-115800882D01*
X101800000Y-115740000D02*
X103104800Y-115740000D01*
X103165682Y-115800882D02*
X103165682Y-116175391D01*
X106350000Y-77140000D02*
X106350000Y-75641100D01*
X106350000Y-75641100D02*
X100804800Y-75641100D01*
X100804800Y-75641100D02*
X100145900Y-76300000D01*
X100145900Y-76300000D02*
X100145900Y-81925900D01*
X100145900Y-81925900D02*
X101925000Y-83705000D01*
X100444100Y-109390000D02*
X100444100Y-109488100D01*
X100444100Y-109488100D02*
X100141200Y-109791000D01*
X101800000Y-109390000D02*
X100444100Y-109390000D01*
X101048700Y-84975000D02*
X101925000Y-84975000D01*
X96157000Y-105594800D02*
X95528383Y-105594800D01*
X95528383Y-105594800D02*
X95207804Y-105274221D01*
X98428946Y-89883172D02*
X98428946Y-87518466D01*
X99172535Y-90626761D02*
X98428946Y-89883172D01*
X98428946Y-100661904D02*
X98428947Y-93416823D01*
X99172535Y-92673235D02*
X99172535Y-90626761D01*
X95207804Y-103883046D02*
X98428946Y-100661904D01*
X95207804Y-105274221D02*
X95207804Y-103883046D01*
X100972412Y-84975000D02*
X101048700Y-84975000D01*
X98428947Y-93416823D02*
X99172535Y-92673235D01*
X98428946Y-87518466D02*
X100972412Y-84975000D01*
X103810000Y-78638900D02*
X105964200Y-80793100D01*
X105964200Y-80793100D02*
X105964200Y-84861700D01*
X105964200Y-84861700D02*
X105964300Y-84861700D01*
X105964300Y-84861700D02*
X107347600Y-86245000D01*
X108275000Y-86245000D02*
X107347600Y-86245000D01*
X103810000Y-77140000D02*
X103810000Y-78638900D01*
X100444100Y-110660000D02*
X100444100Y-111138700D01*
X100444100Y-111138700D02*
X98272200Y-113310600D01*
X98272200Y-113310600D02*
X98272200Y-116738900D01*
X98272200Y-116738900D02*
X93650000Y-121361100D01*
X101800000Y-110660000D02*
X100444100Y-110660000D01*
X93650000Y-122860000D02*
X93650000Y-121361100D01*
X101800000Y-113200000D02*
X100444100Y-113200000D01*
X91110000Y-122860000D02*
X91110000Y-124358900D01*
X91110000Y-124358900D02*
X94145500Y-124358900D01*
X94145500Y-124358900D02*
X94920000Y-123584400D01*
X94920000Y-123584400D02*
X94920000Y-121361000D01*
X94920000Y-121361000D02*
X98780500Y-117500500D01*
X98780500Y-117500500D02*
X98780500Y-113700800D01*
X98780500Y-113700800D02*
X99477900Y-113003400D01*
X99477900Y-113003400D02*
X100247500Y-113003400D01*
X100247500Y-113003400D02*
X100444100Y-113200000D01*
D43*
X80025200Y-104688300D02*
X82705200Y-107368300D01*
X82705200Y-107368300D02*
X82705200Y-112744800D01*
X82705200Y-112744800D02*
X81550000Y-113900000D01*
X81650000Y-118450000D02*
X84150000Y-115950000D01*
X81550000Y-118450000D02*
X81650000Y-118450000D01*
X84150000Y-115950000D02*
X84250000Y-115950000D01*
X82100000Y-113900000D02*
X84150000Y-115950000D01*
X81550000Y-113900000D02*
X82100000Y-113900000D01*
X127274900Y-93650000D02*
X127016200Y-93908700D01*
X127016200Y-93908700D02*
X123941800Y-93908700D01*
X123941800Y-93908700D02*
X120063800Y-90030700D01*
X120063800Y-90030700D02*
X119537700Y-90030700D01*
X119537700Y-90030700D02*
X119537700Y-88940600D01*
X119537700Y-88940600D02*
X118502200Y-87905100D01*
X118502200Y-87905100D02*
X118425000Y-87905100D01*
X118425000Y-87000000D02*
X118425000Y-87905100D01*
X117850000Y-87000000D02*
X118425000Y-87000000D01*
X128730000Y-93650000D02*
X127274900Y-93650000D01*
X105100698Y-126127498D02*
X105100698Y-115390334D01*
X106350000Y-128730000D02*
X106350000Y-127376800D01*
X106100698Y-114390334D02*
X106100698Y-114190334D01*
X116305200Y-95683100D02*
X116286400Y-95664300D01*
X116286400Y-95664300D02*
X116286400Y-91732100D01*
X106100698Y-114190334D02*
X116305200Y-103985832D01*
X116286400Y-91732100D02*
X116973600Y-91044900D01*
X118523500Y-91044900D02*
X119537700Y-90030700D01*
X106350000Y-127376800D02*
X105100698Y-126127498D01*
X116973600Y-91044900D02*
X118523500Y-91044900D01*
X105100698Y-115390334D02*
X106100698Y-114390334D01*
X116305200Y-103985832D02*
X116305200Y-95683100D01*
X90030700Y-78167600D02*
X92451700Y-80588600D01*
X92451700Y-80588600D02*
X92451700Y-80786500D01*
X117850000Y-88544900D02*
X117075600Y-88544900D01*
X117075600Y-88544900D02*
X116500000Y-87969300D01*
X117850000Y-89500000D02*
X117850000Y-88544900D01*
X118425000Y-89500000D02*
X117850000Y-89500000D01*
X93650000Y-71570000D02*
X90055712Y-75164288D01*
X90055712Y-76528005D02*
X90030700Y-76553017D01*
X90055712Y-75164288D02*
X90055712Y-76528005D01*
X90030700Y-76553017D02*
X90030700Y-78167600D01*
X75423900Y-102481383D02*
X75423900Y-103110000D01*
X93650000Y-71270000D02*
X93650000Y-71570000D01*
X87548630Y-78498213D02*
X87019317Y-77968900D01*
X89700087Y-78498213D02*
X87548630Y-78498213D01*
X75423900Y-83375300D02*
X75423900Y-102481383D01*
X90030700Y-78167600D02*
X89700087Y-78498213D01*
X87019317Y-77968900D02*
X80830300Y-77968900D01*
X80830300Y-77968900D02*
X75423900Y-83375300D01*
X86926700Y-82244700D02*
X87708200Y-83026100D01*
X111430000Y-71270000D02*
X111430000Y-72725100D01*
X111430000Y-72725100D02*
X112102700Y-73397800D01*
X112102700Y-73397800D02*
X112102700Y-75847100D01*
X87708200Y-83026100D02*
X88240100Y-82494200D01*
X88240100Y-82494200D02*
X88240100Y-81253100D01*
X88240100Y-81253100D02*
X87964900Y-80977900D01*
X77457200Y-97465000D02*
X77658100Y-97264100D01*
X77658100Y-97264100D02*
X77658100Y-82291600D01*
X77658100Y-82291600D02*
X80198900Y-79750800D01*
X80198900Y-79750800D02*
X83609400Y-79750800D01*
X83609400Y-79750800D02*
X84559900Y-78800300D01*
X84559900Y-78800300D02*
X86475200Y-78800300D01*
X86475200Y-78800300D02*
X87191100Y-79516200D01*
X87191100Y-79516200D02*
X87191100Y-81802100D01*
X87191100Y-81802100D02*
X87280200Y-81891200D01*
X111430000Y-116561349D02*
X108855354Y-113986703D01*
X111430000Y-128730000D02*
X111430000Y-116561349D01*
X108855354Y-113986703D02*
X108410855Y-113542204D01*
X76231800Y-83142800D02*
X76231800Y-103928400D01*
X75494800Y-104665400D02*
X75494800Y-114874300D01*
X80432400Y-119811900D02*
X82355600Y-119811900D01*
X87380290Y-78904624D02*
X86869266Y-78393600D01*
X82355600Y-119811900D02*
X82705200Y-120161500D01*
X76231800Y-103928400D02*
X75494800Y-104665400D01*
X88570000Y-127272200D02*
X88570000Y-127376800D01*
X88570000Y-127376800D02*
X88570000Y-128730000D01*
X89719800Y-81891200D02*
X89719800Y-79705400D01*
X80981000Y-78393600D02*
X76231800Y-83142800D01*
X88919024Y-78904624D02*
X87380290Y-78904624D01*
X86869266Y-78393600D02*
X80981000Y-78393600D01*
X75494800Y-114874300D02*
X80432400Y-119811900D01*
X82705200Y-120161500D02*
X82705200Y-121407400D01*
X89719800Y-79705400D02*
X88919024Y-78904624D01*
X82705200Y-121407400D02*
X88570000Y-127272200D01*
X93162500Y-84105300D02*
X96736900Y-84105300D01*
X96736900Y-84105300D02*
X97681300Y-85049700D01*
X97681300Y-86588000D02*
X97463724Y-86805576D01*
X97463724Y-90282979D02*
X98207313Y-91026568D01*
X97463724Y-86805576D02*
X97463724Y-90282979D01*
X92548200Y-84719600D02*
X93162500Y-84105300D01*
X97463724Y-100183159D02*
X90762500Y-106884383D01*
X98207313Y-91026568D02*
X98207313Y-92273432D01*
X97463724Y-93017021D02*
X97463724Y-100183159D01*
X98207313Y-92273432D02*
X97463724Y-93017021D01*
X90762500Y-106884383D02*
X90762500Y-107513000D01*
X97681300Y-85049700D02*
X97681300Y-86588000D01*
X91913602Y-85786400D02*
X90444499Y-87255503D01*
X90444499Y-87305501D02*
X90000000Y-87750000D01*
X90444499Y-87255503D02*
X90444499Y-87305501D01*
X92188400Y-85786400D02*
X91913602Y-85786400D01*
X92901700Y-85073100D02*
X92188400Y-85786400D01*
X128730000Y-106350000D02*
X128730000Y-105194900D01*
X128730000Y-105194900D02*
X128281200Y-104746100D01*
X128281200Y-104746100D02*
X128281200Y-96208900D01*
X128281200Y-96208900D02*
X127497400Y-95425100D01*
X127497400Y-95425100D02*
X124246300Y-95425100D01*
X93794800Y-88219800D02*
X95650000Y-90075000D01*
X93608800Y-88219800D02*
X93794800Y-88219800D01*
X121321200Y-92500000D02*
X121750000Y-92928800D01*
X119750000Y-92500000D02*
X121321200Y-92500000D01*
X124246300Y-95425100D02*
X121750000Y-92928800D01*
X91766800Y-88498900D02*
X91640000Y-88625700D01*
X91640000Y-88625700D02*
X91152700Y-88625700D01*
X91152700Y-88625700D02*
X89561900Y-90216500D01*
X92548200Y-89280400D02*
X91766800Y-88498900D01*
X91841100Y-89987500D02*
X92622600Y-90768900D01*
X92622600Y-90768900D02*
X92798300Y-90593200D01*
X92798300Y-90593200D02*
X93372000Y-90593200D01*
X93372000Y-90593200D02*
X93373300Y-90591900D01*
X127376800Y-88570000D02*
X125306800Y-86500000D01*
X125306800Y-86500000D02*
X122878617Y-86500000D01*
X122878617Y-86500000D02*
X122250000Y-86500000D01*
X128730000Y-88570000D02*
X127376800Y-88570000D01*
X122015600Y-114032000D02*
X122590700Y-114032000D01*
X122590700Y-114032000D02*
X123262700Y-113360000D01*
X123262700Y-113360000D02*
X126800000Y-113360000D01*
X126800000Y-113360000D02*
X127574900Y-112585100D01*
X127574900Y-112585100D02*
X128730000Y-112585100D01*
X128730000Y-111430000D02*
X128730000Y-112585100D01*
X92533100Y-91386700D02*
X94512700Y-91386700D01*
X95237302Y-98954334D02*
X95491302Y-99208334D01*
X95491302Y-100685495D02*
X94745221Y-101431576D01*
X91487500Y-90341100D02*
X92533100Y-91386700D01*
X94512700Y-91386700D02*
X95237302Y-92111302D01*
X95237302Y-92111302D02*
X95237302Y-98954334D01*
X94745221Y-101431576D02*
X94116604Y-101431576D01*
X95491302Y-99208334D02*
X95491302Y-100685495D01*
X81730000Y-101280000D02*
X85366300Y-101280000D01*
X85366300Y-101280000D02*
X91566400Y-95079900D01*
X91566400Y-95079900D02*
X91566400Y-92541200D01*
X91566400Y-92541200D02*
X90426900Y-91401700D01*
X83185100Y-98740000D02*
X84460100Y-97465000D01*
X84460100Y-97465000D02*
X84736100Y-97465000D01*
X84736100Y-97465000D02*
X84759800Y-97441300D01*
X84759800Y-97441300D02*
X84955500Y-97441300D01*
X84955500Y-97441300D02*
X85862500Y-96534300D01*
X85862500Y-96534300D02*
X85862500Y-95664000D01*
X85862500Y-95664000D02*
X86498700Y-95027800D01*
X86498700Y-95027800D02*
X86498700Y-92890300D01*
X81730000Y-98740000D02*
X83185100Y-98740000D01*
X87280200Y-92108800D02*
X86498700Y-92890300D01*
X91134000Y-90694600D02*
X91134000Y-90763100D01*
X91134000Y-90763100D02*
X93069300Y-92698400D01*
X93069300Y-92698400D02*
X94057100Y-92698400D01*
X94057100Y-92698400D02*
X94400000Y-92355500D01*
X122031001Y-99350000D02*
X121993972Y-99312971D01*
X124450000Y-99350000D02*
X122031001Y-99350000D01*
X121993972Y-99312971D02*
X121549473Y-98868472D01*
X90780400Y-91048200D02*
X90848900Y-91048200D01*
X90848900Y-91048200D02*
X92902300Y-93101600D01*
X92902300Y-93101600D02*
X94057100Y-93101600D01*
X94057100Y-93101600D02*
X94400000Y-93444500D01*
X124450000Y-100000000D02*
X121136529Y-100000000D01*
X121136529Y-100000000D02*
X120766502Y-99629973D01*
X86573100Y-82598300D02*
X87448900Y-83474100D01*
X87448900Y-83474100D02*
X87920400Y-83474100D01*
X87920400Y-83474100D02*
X88738600Y-82655900D01*
X88738600Y-82655900D02*
X88738600Y-79784400D01*
X88570000Y-76559959D02*
X88529269Y-76600690D01*
X88570000Y-71270000D02*
X88570000Y-76559959D01*
X101925000Y-87515000D02*
X102801600Y-87515000D01*
X98730000Y-77140000D02*
X98730000Y-81771300D01*
X98730000Y-81771300D02*
X101222900Y-84264200D01*
X101222900Y-84264200D02*
X102552400Y-84264200D01*
X102552400Y-84264200D02*
X102801600Y-84513400D01*
X102801600Y-84513400D02*
X102801600Y-87515000D01*
X106442500Y-90334675D02*
X106442500Y-89587868D01*
X107432825Y-91325000D02*
X106442500Y-90334675D01*
X108275000Y-91325000D02*
X107432825Y-91325000D01*
X112250000Y-84000000D02*
X111750004Y-84000000D01*
X112850000Y-82021387D02*
X112850000Y-83400000D01*
X115050000Y-82000000D02*
X114950000Y-82000000D01*
X114950000Y-82000000D02*
X114096800Y-81146800D01*
X112850000Y-83400000D02*
X112250000Y-84000000D01*
X114096800Y-81146800D02*
X113724587Y-81146800D01*
X113724587Y-81146800D02*
X112850000Y-82021387D01*
X91027900Y-85301600D02*
X91259000Y-85301600D01*
X91259000Y-85301600D02*
X92194600Y-84366000D01*
X103230400Y-94975100D02*
X103312400Y-94893100D01*
X103230400Y-95596100D02*
X103230400Y-94975100D01*
X102873800Y-91899500D02*
X101031200Y-91899500D01*
X108157500Y-101235000D02*
X103558300Y-96635800D01*
X100150000Y-88428617D02*
X100150000Y-87800000D01*
X100150000Y-91018300D02*
X100150000Y-88428617D01*
X103312400Y-94893100D02*
X103312400Y-92338100D01*
X108475000Y-101235000D02*
X108157500Y-101235000D01*
X103558300Y-95924000D02*
X103230400Y-95596100D01*
X103312400Y-92338100D02*
X102873800Y-91899500D01*
X101031200Y-91899500D02*
X100150000Y-91018300D01*
X103558300Y-96635800D02*
X103558300Y-95924000D01*
X107598400Y-99965000D02*
X103980000Y-96346600D01*
X103980000Y-96346600D02*
X103980000Y-95285600D01*
X103980000Y-95285600D02*
X103980000Y-92118000D01*
X103980000Y-92118000D02*
X102492400Y-90630400D01*
X102492400Y-90630400D02*
X101243400Y-90630400D01*
X101243400Y-90630400D02*
X101048400Y-90435400D01*
X101048400Y-90435400D02*
X101048400Y-89661600D01*
X101048400Y-89661600D02*
X101925000Y-88785000D01*
X85702400Y-93356600D02*
X85702400Y-92979600D01*
X85702400Y-92979600D02*
X86926700Y-91755300D01*
X108475000Y-99965000D02*
X107598400Y-99965000D01*
X87354700Y-90620100D02*
X88394700Y-91660200D01*
X88394700Y-91660200D02*
X88394700Y-92484800D01*
X107598400Y-98695000D02*
X107598400Y-97462700D01*
X107598400Y-97462700D02*
X105165200Y-95029500D01*
X102801600Y-90055000D02*
X105165200Y-92418600D01*
X105165200Y-92418600D02*
X105165200Y-95029500D01*
X86573100Y-91401700D02*
X87354700Y-90620100D01*
X101925000Y-90055000D02*
X102801600Y-90055000D01*
X108475000Y-98695000D02*
X107598400Y-98695000D01*
X87633500Y-89009300D02*
X87633500Y-89634300D01*
X87633500Y-89634300D02*
X86219600Y-91048200D01*
X105285000Y-88785000D02*
X104750000Y-88250000D01*
X108275000Y-88785000D02*
X105285000Y-88785000D01*
X85866000Y-90694600D02*
X84895900Y-91664700D01*
X84895900Y-91664700D02*
X84895900Y-96430500D01*
X108475000Y-102505000D02*
X107418500Y-102505000D01*
X107418500Y-102505000D02*
X106589800Y-101676300D01*
X107598400Y-103775000D02*
X107598400Y-104054500D01*
X107598400Y-104054500D02*
X102868000Y-108784900D01*
X102868000Y-108784900D02*
X100082100Y-108784900D01*
X100082100Y-108784900D02*
X99336700Y-109530300D01*
X99336700Y-109530300D02*
X99336700Y-111599100D01*
X99336700Y-111599100D02*
X97814700Y-113121100D01*
X97814700Y-113121100D02*
X97814700Y-114170400D01*
X97814700Y-114170400D02*
X93705100Y-118280000D01*
X108475000Y-103775000D02*
X107598400Y-103775000D01*
X92400000Y-118280000D02*
X93705100Y-118280000D01*
X102125000Y-105045000D02*
X98929900Y-108240100D01*
X98929900Y-108240100D02*
X98929900Y-111430700D01*
X98929900Y-111430700D02*
X93705100Y-116655500D01*
X93705100Y-116655500D02*
X93705100Y-117010000D01*
X92400000Y-117010000D02*
X93705100Y-117010000D01*
X93705100Y-115740000D02*
X98473100Y-110972000D01*
X98473100Y-110972000D02*
X98473100Y-107933700D01*
X98473100Y-107933700D02*
X100408000Y-105998800D01*
X100408000Y-105998800D02*
X100408000Y-105503600D01*
X100408000Y-105503600D02*
X102125000Y-103786600D01*
X102125000Y-103786600D02*
X102125000Y-103775000D01*
X92400000Y-115740000D02*
X93705100Y-115740000D01*
X93705100Y-114470000D02*
X98066400Y-110108700D01*
X98066400Y-110108700D02*
X98066400Y-107765200D01*
X98066400Y-107765200D02*
X100001300Y-105830300D01*
X100001300Y-105830300D02*
X100001300Y-105335100D01*
X100001300Y-105335100D02*
X101248400Y-104088000D01*
X101248400Y-104088000D02*
X101248400Y-102505000D01*
X102125000Y-102505000D02*
X101248400Y-102505000D01*
X92400000Y-114470000D02*
X93705100Y-114470000D01*
X93705100Y-113200000D02*
X97659700Y-109245400D01*
X97659700Y-109245400D02*
X97659700Y-107596700D01*
X97659700Y-107596700D02*
X99594600Y-105661800D01*
X99594600Y-105661800D02*
X99594600Y-105166600D01*
X99594600Y-105166600D02*
X100828100Y-103933100D01*
X100828100Y-103933100D02*
X100828100Y-101655300D01*
X100828100Y-101655300D02*
X101248400Y-101235000D01*
X102125000Y-101235000D02*
X101248400Y-101235000D01*
X92400000Y-113200000D02*
X93705100Y-113200000D01*
X93705100Y-111930000D02*
X97253000Y-108382100D01*
X97253000Y-108382100D02*
X97253000Y-107428200D01*
X97253000Y-107428200D02*
X99187900Y-105493300D01*
X99187900Y-105493300D02*
X99187900Y-104998000D01*
X99187900Y-104998000D02*
X100363200Y-103822700D01*
X100363200Y-103822700D02*
X100363200Y-100850200D01*
X100363200Y-100850200D02*
X101248400Y-99965000D01*
X102125000Y-99965000D02*
X101248400Y-99965000D01*
X92400000Y-111930000D02*
X93705100Y-111930000D01*
X93705100Y-110660000D02*
X96846300Y-107518800D01*
X96846300Y-107518800D02*
X96846300Y-107259700D01*
X96846300Y-107259700D02*
X98781200Y-105324800D01*
X98781200Y-105324800D02*
X98781200Y-104829400D01*
X98781200Y-104829400D02*
X99952300Y-103658300D01*
X99952300Y-103658300D02*
X99952300Y-99991100D01*
X99952300Y-99991100D02*
X101248400Y-98695000D01*
X102125000Y-98695000D02*
X101248400Y-98695000D01*
X92400000Y-110660000D02*
X93705100Y-110660000D01*
X92400000Y-109390000D02*
X94329800Y-109390000D01*
X94329800Y-109390000D02*
X96439600Y-107280200D01*
X96439600Y-107280200D02*
X96439600Y-107091200D01*
X96439600Y-107091200D02*
X98374500Y-105156300D01*
X98374500Y-105156300D02*
X98374500Y-104593700D01*
X98374500Y-104593700D02*
X99545500Y-103422700D01*
X99545500Y-103422700D02*
X99545500Y-99127900D01*
X99545500Y-99127900D02*
X101248400Y-97425000D01*
X102125000Y-97425000D02*
X101248400Y-97425000D01*
X107598400Y-94821200D02*
X108475000Y-95697800D01*
X108475000Y-95697800D02*
X108475000Y-96155000D01*
X101049301Y-88459665D02*
X101049301Y-88321699D01*
X100613500Y-88895466D02*
X101049301Y-88459665D01*
X101145200Y-88225800D02*
X102645400Y-88225800D01*
X107598400Y-93178800D02*
X107598400Y-94821200D01*
X102645400Y-88225800D02*
X107598400Y-93178800D01*
X101049301Y-88321699D02*
X101145200Y-88225800D01*
X101150300Y-91325000D02*
X100613500Y-90788200D01*
X100613500Y-90788200D02*
X100613500Y-88895466D01*
X101925000Y-91325000D02*
X101150300Y-91325000D01*
D44*
G36*
X71397000Y-116383000D02*
X71417000Y-116383000D01*
X71417000Y-116637000D01*
X71397000Y-116637000D01*
X71397000Y-117836250D01*
X71555750Y-117995000D01*
X72160200Y-117995000D01*
X72160200Y-118507446D01*
X72141790Y-118600000D01*
X72160200Y-118692554D01*
X72160200Y-118692558D01*
X72214728Y-118966690D01*
X72214729Y-118966691D01*
X72214729Y-118966692D01*
X72370012Y-119199089D01*
X72422443Y-119277557D01*
X72500910Y-119329987D01*
X73370014Y-120199092D01*
X73422443Y-120277557D01*
X73500908Y-120329986D01*
X73500910Y-120329988D01*
X73663923Y-120438909D01*
X73733309Y-120485272D01*
X74007441Y-120539800D01*
X74007446Y-120539800D01*
X74100000Y-120558210D01*
X74192554Y-120539800D01*
X76732195Y-120539800D01*
X77096861Y-120904238D01*
X79460201Y-123268205D01*
X79460200Y-125407446D01*
X79441790Y-125500000D01*
X79460200Y-125592554D01*
X79460200Y-125592558D01*
X79514728Y-125866690D01*
X79514729Y-125866691D01*
X79514729Y-125866692D01*
X79662567Y-126087947D01*
X79722443Y-126177557D01*
X79800910Y-126229987D01*
X80770014Y-127199092D01*
X80822443Y-127277557D01*
X80900908Y-127329986D01*
X80900910Y-127329988D01*
X81133307Y-127485271D01*
X81133308Y-127485271D01*
X81133309Y-127485272D01*
X81407441Y-127539800D01*
X81407446Y-127539800D01*
X81500000Y-127558210D01*
X81592554Y-127539800D01*
X82005000Y-127539800D01*
X82005000Y-128444250D01*
X82163750Y-128603000D01*
X83363000Y-128603000D01*
X83363000Y-128583000D01*
X83617000Y-128583000D01*
X83617000Y-128603000D01*
X83637000Y-128603000D01*
X83637000Y-128857000D01*
X83617000Y-128857000D01*
X83617000Y-128877000D01*
X83363000Y-128877000D01*
X83363000Y-128857000D01*
X82163750Y-128857000D01*
X82005000Y-129015750D01*
X82005000Y-129174500D01*
X75036765Y-129174500D01*
X74594176Y-129135000D01*
X75822503Y-129135000D01*
X77342289Y-128505483D01*
X78505483Y-127342289D01*
X79135000Y-125822503D01*
X79135000Y-124177497D01*
X78505483Y-122657711D01*
X77342289Y-121494517D01*
X75822503Y-120865000D01*
X74177497Y-120865000D01*
X72657711Y-121494517D01*
X71494517Y-122657711D01*
X70865000Y-124177497D01*
X70865000Y-125507623D01*
X70825500Y-124969732D01*
X70825500Y-117995000D01*
X70984250Y-117995000D01*
X71143000Y-117836250D01*
X71143000Y-116637000D01*
X71123000Y-116637000D01*
X71123000Y-116383000D01*
X71143000Y-116383000D01*
X71143000Y-116363000D01*
X71397000Y-116363000D01*
X71397000Y-116383000D01*
X71397000Y-116383000D01*
G37*
X71397000Y-116383000D02*
X71417000Y-116383000D01*
X71417000Y-116637000D01*
X71397000Y-116637000D01*
X71397000Y-117836250D01*
X71555750Y-117995000D01*
X72160200Y-117995000D01*
X72160200Y-118507446D01*
X72141790Y-118600000D01*
X72160200Y-118692554D01*
X72160200Y-118692558D01*
X72214728Y-118966690D01*
X72214729Y-118966691D01*
X72214729Y-118966692D01*
X72370012Y-119199089D01*
X72422443Y-119277557D01*
X72500910Y-119329987D01*
X73370014Y-120199092D01*
X73422443Y-120277557D01*
X73500908Y-120329986D01*
X73500910Y-120329988D01*
X73663923Y-120438909D01*
X73733309Y-120485272D01*
X74007441Y-120539800D01*
X74007446Y-120539800D01*
X74100000Y-120558210D01*
X74192554Y-120539800D01*
X76732195Y-120539800D01*
X77096861Y-120904238D01*
X79460201Y-123268205D01*
X79460200Y-125407446D01*
X79441790Y-125500000D01*
X79460200Y-125592554D01*
X79460200Y-125592558D01*
X79514728Y-125866690D01*
X79514729Y-125866691D01*
X79514729Y-125866692D01*
X79662567Y-126087947D01*
X79722443Y-126177557D01*
X79800910Y-126229987D01*
X80770014Y-127199092D01*
X80822443Y-127277557D01*
X80900908Y-127329986D01*
X80900910Y-127329988D01*
X81133307Y-127485271D01*
X81133308Y-127485271D01*
X81133309Y-127485272D01*
X81407441Y-127539800D01*
X81407446Y-127539800D01*
X81500000Y-127558210D01*
X81592554Y-127539800D01*
X82005000Y-127539800D01*
X82005000Y-128444250D01*
X82163750Y-128603000D01*
X83363000Y-128603000D01*
X83363000Y-128583000D01*
X83617000Y-128583000D01*
X83617000Y-128603000D01*
X83637000Y-128603000D01*
X83637000Y-128857000D01*
X83617000Y-128857000D01*
X83617000Y-128877000D01*
X83363000Y-128877000D01*
X83363000Y-128857000D01*
X82163750Y-128857000D01*
X82005000Y-129015750D01*
X82005000Y-129174500D01*
X75036765Y-129174500D01*
X74594176Y-129135000D01*
X75822503Y-129135000D01*
X77342289Y-128505483D01*
X78505483Y-127342289D01*
X79135000Y-125822503D01*
X79135000Y-124177497D01*
X78505483Y-122657711D01*
X77342289Y-121494517D01*
X75822503Y-120865000D01*
X74177497Y-120865000D01*
X72657711Y-121494517D01*
X71494517Y-122657711D01*
X70865000Y-124177497D01*
X70865000Y-125507623D01*
X70825500Y-124969732D01*
X70825500Y-117995000D01*
X70984250Y-117995000D01*
X71143000Y-117836250D01*
X71143000Y-116637000D01*
X71123000Y-116637000D01*
X71123000Y-116383000D01*
X71143000Y-116383000D01*
X71143000Y-116363000D01*
X71397000Y-116363000D01*
X71397000Y-116383000D01*
G36*
X127359375Y-115040625D02*
X127381033Y-115055096D01*
X127220302Y-115121673D01*
X127041673Y-115300301D01*
X126945000Y-115533690D01*
X126945000Y-116224250D01*
X127103750Y-116383000D01*
X128603000Y-116383000D01*
X128603000Y-116363000D01*
X128857000Y-116363000D01*
X128857000Y-116383000D01*
X128877000Y-116383000D01*
X128877000Y-116637000D01*
X128857000Y-116637000D01*
X128857000Y-117836250D01*
X129015750Y-117995000D01*
X129174501Y-117995000D01*
X129174501Y-124963224D01*
X129135000Y-125405824D01*
X129135000Y-124177497D01*
X128505483Y-122657711D01*
X127342289Y-121494517D01*
X125822503Y-120865000D01*
X124177497Y-120865000D01*
X122657711Y-121494517D01*
X121494517Y-122657711D01*
X120865000Y-124177497D01*
X120865000Y-125822503D01*
X121494517Y-127342289D01*
X122657711Y-128505483D01*
X124177497Y-129135000D01*
X125507623Y-129135000D01*
X124969732Y-129174500D01*
X117995000Y-129174500D01*
X117995000Y-129015750D01*
X117836250Y-128857000D01*
X116637000Y-128857000D01*
X116637000Y-128877000D01*
X116383000Y-128877000D01*
X116383000Y-128857000D01*
X116363000Y-128857000D01*
X116363000Y-128603000D01*
X116383000Y-128603000D01*
X116383000Y-128583000D01*
X116637000Y-128583000D01*
X116637000Y-128603000D01*
X117836250Y-128603000D01*
X117995000Y-128444250D01*
X117995000Y-127639800D01*
X118307446Y-127639800D01*
X118400000Y-127658210D01*
X118492554Y-127639800D01*
X118492559Y-127639800D01*
X118766691Y-127585272D01*
X119077557Y-127377557D01*
X119129987Y-127299090D01*
X119799092Y-126629985D01*
X119877557Y-126577557D01*
X119929986Y-126499092D01*
X119929988Y-126499090D01*
X120085271Y-126266693D01*
X120085271Y-126266692D01*
X120085272Y-126266691D01*
X120139800Y-125992559D01*
X120139800Y-125992554D01*
X120158210Y-125900000D01*
X120139800Y-125807446D01*
X120139800Y-122768277D01*
X121478092Y-121429986D01*
X121556557Y-121377557D01*
X121608985Y-121299093D01*
X121608988Y-121299090D01*
X121608990Y-121299087D01*
X122255026Y-120653052D01*
X122290301Y-120688327D01*
X122523690Y-120785000D01*
X123714250Y-120785000D01*
X123873000Y-120626250D01*
X123873000Y-118402000D01*
X124127000Y-118402000D01*
X124127000Y-120626250D01*
X124285750Y-120785000D01*
X125476310Y-120785000D01*
X125709699Y-120688327D01*
X125888327Y-120509698D01*
X125985000Y-120276309D01*
X125985000Y-118560750D01*
X125826250Y-118402000D01*
X124127000Y-118402000D01*
X123873000Y-118402000D01*
X123853000Y-118402000D01*
X123853000Y-118148000D01*
X123873000Y-118148000D01*
X123873000Y-115923750D01*
X124127000Y-115923750D01*
X124127000Y-118148000D01*
X125826250Y-118148000D01*
X125985000Y-117989250D01*
X125985000Y-116795750D01*
X126945000Y-116795750D01*
X126945000Y-117486310D01*
X127041673Y-117719699D01*
X127220302Y-117898327D01*
X127453691Y-117995000D01*
X128444250Y-117995000D01*
X128603000Y-117836250D01*
X128603000Y-116637000D01*
X127103750Y-116637000D01*
X126945000Y-116795750D01*
X125985000Y-116795750D01*
X125985000Y-116273691D01*
X125888327Y-116040302D01*
X125709699Y-115861673D01*
X125476310Y-115765000D01*
X124285750Y-115765000D01*
X124127000Y-115923750D01*
X123873000Y-115923750D01*
X123714250Y-115765000D01*
X123264077Y-115765000D01*
X124119277Y-114909800D01*
X127271961Y-114909800D01*
X127359375Y-115040625D01*
X127359375Y-115040625D01*
G37*
X127359375Y-115040625D02*
X127381033Y-115055096D01*
X127220302Y-115121673D01*
X127041673Y-115300301D01*
X126945000Y-115533690D01*
X126945000Y-116224250D01*
X127103750Y-116383000D01*
X128603000Y-116383000D01*
X128603000Y-116363000D01*
X128857000Y-116363000D01*
X128857000Y-116383000D01*
X128877000Y-116383000D01*
X128877000Y-116637000D01*
X128857000Y-116637000D01*
X128857000Y-117836250D01*
X129015750Y-117995000D01*
X129174501Y-117995000D01*
X129174501Y-124963224D01*
X129135000Y-125405824D01*
X129135000Y-124177497D01*
X128505483Y-122657711D01*
X127342289Y-121494517D01*
X125822503Y-120865000D01*
X124177497Y-120865000D01*
X122657711Y-121494517D01*
X121494517Y-122657711D01*
X120865000Y-124177497D01*
X120865000Y-125822503D01*
X121494517Y-127342289D01*
X122657711Y-128505483D01*
X124177497Y-129135000D01*
X125507623Y-129135000D01*
X124969732Y-129174500D01*
X117995000Y-129174500D01*
X117995000Y-129015750D01*
X117836250Y-128857000D01*
X116637000Y-128857000D01*
X116637000Y-128877000D01*
X116383000Y-128877000D01*
X116383000Y-128857000D01*
X116363000Y-128857000D01*
X116363000Y-128603000D01*
X116383000Y-128603000D01*
X116383000Y-128583000D01*
X116637000Y-128583000D01*
X116637000Y-128603000D01*
X117836250Y-128603000D01*
X117995000Y-128444250D01*
X117995000Y-127639800D01*
X118307446Y-127639800D01*
X118400000Y-127658210D01*
X118492554Y-127639800D01*
X118492559Y-127639800D01*
X118766691Y-127585272D01*
X119077557Y-127377557D01*
X119129987Y-127299090D01*
X119799092Y-126629985D01*
X119877557Y-126577557D01*
X119929986Y-126499092D01*
X119929988Y-126499090D01*
X120085271Y-126266693D01*
X120085271Y-126266692D01*
X120085272Y-126266691D01*
X120139800Y-125992559D01*
X120139800Y-125992554D01*
X120158210Y-125900000D01*
X120139800Y-125807446D01*
X120139800Y-122768277D01*
X121478092Y-121429986D01*
X121556557Y-121377557D01*
X121608985Y-121299093D01*
X121608988Y-121299090D01*
X121608990Y-121299087D01*
X122255026Y-120653052D01*
X122290301Y-120688327D01*
X122523690Y-120785000D01*
X123714250Y-120785000D01*
X123873000Y-120626250D01*
X123873000Y-118402000D01*
X124127000Y-118402000D01*
X124127000Y-120626250D01*
X124285750Y-120785000D01*
X125476310Y-120785000D01*
X125709699Y-120688327D01*
X125888327Y-120509698D01*
X125985000Y-120276309D01*
X125985000Y-118560750D01*
X125826250Y-118402000D01*
X124127000Y-118402000D01*
X123873000Y-118402000D01*
X123853000Y-118402000D01*
X123853000Y-118148000D01*
X123873000Y-118148000D01*
X123873000Y-115923750D01*
X124127000Y-115923750D01*
X124127000Y-118148000D01*
X125826250Y-118148000D01*
X125985000Y-117989250D01*
X125985000Y-116795750D01*
X126945000Y-116795750D01*
X126945000Y-117486310D01*
X127041673Y-117719699D01*
X127220302Y-117898327D01*
X127453691Y-117995000D01*
X128444250Y-117995000D01*
X128603000Y-117836250D01*
X128603000Y-116637000D01*
X127103750Y-116637000D01*
X126945000Y-116795750D01*
X125985000Y-116795750D01*
X125985000Y-116273691D01*
X125888327Y-116040302D01*
X125709699Y-115861673D01*
X125476310Y-115765000D01*
X124285750Y-115765000D01*
X124127000Y-115923750D01*
X123873000Y-115923750D01*
X123714250Y-115765000D01*
X123264077Y-115765000D01*
X124119277Y-114909800D01*
X127271961Y-114909800D01*
X127359375Y-115040625D01*
G36*
X102802821Y-124248180D02*
X103264919Y-124556944D01*
X103810000Y-124665368D01*
X104355082Y-124556944D01*
X104364098Y-124550920D01*
X104364098Y-126054958D01*
X104349669Y-126127498D01*
X104364098Y-126200038D01*
X104364098Y-126200041D01*
X104406837Y-126414904D01*
X104565634Y-126652560D01*
X103400000Y-126652560D01*
X103335000Y-126665489D01*
X103335000Y-126285750D01*
X103176250Y-126127000D01*
X102227000Y-126127000D01*
X102227000Y-126147000D01*
X101973000Y-126147000D01*
X101973000Y-126127000D01*
X101023750Y-126127000D01*
X100865000Y-126285750D01*
X100865000Y-126438244D01*
X100532565Y-126575943D01*
X100225943Y-126882565D01*
X100060000Y-127283186D01*
X100060000Y-127716814D01*
X100225943Y-128117435D01*
X100532565Y-128424057D01*
X100533634Y-128424500D01*
X99466366Y-128424500D01*
X99467435Y-128424057D01*
X99774057Y-128117435D01*
X99940000Y-127716814D01*
X99940000Y-127283186D01*
X99774057Y-126882565D01*
X99467435Y-126575943D01*
X99147440Y-126443396D01*
X99147440Y-125544269D01*
X100371148Y-124320561D01*
X100724919Y-124556944D01*
X101176353Y-124646740D01*
X101140302Y-124661673D01*
X100961673Y-124840301D01*
X100865000Y-125073690D01*
X100865000Y-125714250D01*
X101023750Y-125873000D01*
X101973000Y-125873000D01*
X101973000Y-124723750D01*
X102227000Y-124723750D01*
X102227000Y-125873000D01*
X103176250Y-125873000D01*
X103335000Y-125714250D01*
X103335000Y-125073690D01*
X103238327Y-124840301D01*
X103059698Y-124661673D01*
X102826309Y-124565000D01*
X102385750Y-124565000D01*
X102227000Y-124723750D01*
X101973000Y-124723750D01*
X101814250Y-124565000D01*
X101774582Y-124565000D01*
X101815082Y-124556944D01*
X102277180Y-124248180D01*
X102540000Y-123854842D01*
X102802821Y-124248180D01*
X102802821Y-124248180D01*
G37*
X102802821Y-124248180D02*
X103264919Y-124556944D01*
X103810000Y-124665368D01*
X104355082Y-124556944D01*
X104364098Y-124550920D01*
X104364098Y-126054958D01*
X104349669Y-126127498D01*
X104364098Y-126200038D01*
X104364098Y-126200041D01*
X104406837Y-126414904D01*
X104565634Y-126652560D01*
X103400000Y-126652560D01*
X103335000Y-126665489D01*
X103335000Y-126285750D01*
X103176250Y-126127000D01*
X102227000Y-126127000D01*
X102227000Y-126147000D01*
X101973000Y-126147000D01*
X101973000Y-126127000D01*
X101023750Y-126127000D01*
X100865000Y-126285750D01*
X100865000Y-126438244D01*
X100532565Y-126575943D01*
X100225943Y-126882565D01*
X100060000Y-127283186D01*
X100060000Y-127716814D01*
X100225943Y-128117435D01*
X100532565Y-128424057D01*
X100533634Y-128424500D01*
X99466366Y-128424500D01*
X99467435Y-128424057D01*
X99774057Y-128117435D01*
X99940000Y-127716814D01*
X99940000Y-127283186D01*
X99774057Y-126882565D01*
X99467435Y-126575943D01*
X99147440Y-126443396D01*
X99147440Y-125544269D01*
X100371148Y-124320561D01*
X100724919Y-124556944D01*
X101176353Y-124646740D01*
X101140302Y-124661673D01*
X100961673Y-124840301D01*
X100865000Y-125073690D01*
X100865000Y-125714250D01*
X101023750Y-125873000D01*
X101973000Y-125873000D01*
X101973000Y-124723750D01*
X102227000Y-124723750D01*
X102227000Y-125873000D01*
X103176250Y-125873000D01*
X103335000Y-125714250D01*
X103335000Y-125073690D01*
X103238327Y-124840301D01*
X103059698Y-124661673D01*
X102826309Y-124565000D01*
X102385750Y-124565000D01*
X102227000Y-124723750D01*
X101973000Y-124723750D01*
X101814250Y-124565000D01*
X101774582Y-124565000D01*
X101815082Y-124556944D01*
X102277180Y-124248180D01*
X102540000Y-123854842D01*
X102802821Y-124248180D01*
G36*
X117062601Y-103290001D02*
X117062600Y-105592948D01*
X115248063Y-107407486D01*
X115182317Y-107451416D01*
X115125474Y-107536488D01*
X115008286Y-107711872D01*
X115005165Y-107727560D01*
X115000000Y-107727560D01*
X114752235Y-107776843D01*
X114542191Y-107917191D01*
X114401843Y-108127235D01*
X114352560Y-108375000D01*
X114352560Y-109625000D01*
X114401843Y-109872765D01*
X114542191Y-110082809D01*
X114752235Y-110223157D01*
X114962600Y-110265001D01*
X114962600Y-110405585D01*
X114908286Y-110486872D01*
X114905165Y-110502560D01*
X114900000Y-110502560D01*
X114652235Y-110551843D01*
X114442191Y-110692191D01*
X114301843Y-110902235D01*
X114252560Y-111150000D01*
X114252560Y-111950000D01*
X114301843Y-112197765D01*
X114442191Y-112407809D01*
X114575694Y-112497013D01*
X114540302Y-112511673D01*
X114361673Y-112690301D01*
X114265000Y-112923690D01*
X114265000Y-113164250D01*
X114423750Y-113323000D01*
X115523000Y-113323000D01*
X115523000Y-113303000D01*
X115777000Y-113303000D01*
X115777000Y-113323000D01*
X116876250Y-113323000D01*
X117021727Y-113177523D01*
X117142191Y-113357809D01*
X117352235Y-113498157D01*
X117410200Y-113509687D01*
X117410201Y-114745422D01*
X117252235Y-114776843D01*
X117042191Y-114917191D01*
X117001346Y-114978320D01*
X116859698Y-114836673D01*
X116626309Y-114740000D01*
X116035750Y-114740000D01*
X115877000Y-114898750D01*
X115877000Y-115873000D01*
X115897000Y-115873000D01*
X115897000Y-116127000D01*
X115877000Y-116127000D01*
X115877000Y-117101250D01*
X115998336Y-117222586D01*
X115718363Y-117502560D01*
X114900000Y-117502560D01*
X114652235Y-117551843D01*
X114442191Y-117692191D01*
X114301843Y-117902235D01*
X114252560Y-118150000D01*
X114252560Y-118950000D01*
X114301843Y-119197765D01*
X114442191Y-119407809D01*
X114575694Y-119497013D01*
X114540302Y-119511673D01*
X114361673Y-119690301D01*
X114265000Y-119923690D01*
X114265000Y-120164250D01*
X114423750Y-120323000D01*
X115523000Y-120323000D01*
X115523000Y-120303000D01*
X115777000Y-120303000D01*
X115777000Y-120323000D01*
X116876250Y-120323000D01*
X117021727Y-120177523D01*
X117142191Y-120357809D01*
X117352235Y-120498157D01*
X117600000Y-120547440D01*
X119100000Y-120547440D01*
X119347765Y-120498157D01*
X119366537Y-120485614D01*
X119565422Y-120684500D01*
X118600908Y-121649014D01*
X118522444Y-121701443D01*
X118470015Y-121779908D01*
X118470012Y-121779911D01*
X118314729Y-122012308D01*
X118241790Y-122379000D01*
X118260201Y-122471559D01*
X118260200Y-125510722D01*
X118010723Y-125760200D01*
X115792549Y-125760200D01*
X115699999Y-125741791D01*
X115607449Y-125760200D01*
X115607441Y-125760200D01*
X115333309Y-125814728D01*
X115333308Y-125814729D01*
X115333307Y-125814729D01*
X115100909Y-125970013D01*
X115100908Y-125970014D01*
X115022443Y-126022443D01*
X114970014Y-126100908D01*
X114124319Y-126946604D01*
X113970000Y-126915908D01*
X113390582Y-127031161D01*
X112899375Y-127359375D01*
X112700000Y-127657761D01*
X112500625Y-127359375D01*
X112166600Y-127136187D01*
X112166600Y-120735750D01*
X114265000Y-120735750D01*
X114265000Y-120976310D01*
X114361673Y-121209699D01*
X114540302Y-121388327D01*
X114773691Y-121485000D01*
X115364250Y-121485000D01*
X115523000Y-121326250D01*
X115523000Y-120577000D01*
X115777000Y-120577000D01*
X115777000Y-121326250D01*
X115935750Y-121485000D01*
X116526309Y-121485000D01*
X116759698Y-121388327D01*
X116938327Y-121209699D01*
X117035000Y-120976310D01*
X117035000Y-120735750D01*
X116876250Y-120577000D01*
X115777000Y-120577000D01*
X115523000Y-120577000D01*
X114423750Y-120577000D01*
X114265000Y-120735750D01*
X112166600Y-120735750D01*
X112166600Y-116633889D01*
X112181029Y-116561348D01*
X112166600Y-116488808D01*
X112166600Y-116488805D01*
X112126210Y-116285750D01*
X114365000Y-116285750D01*
X114365000Y-116751310D01*
X114461673Y-116984699D01*
X114640302Y-117163327D01*
X114873691Y-117260000D01*
X115464250Y-117260000D01*
X115623000Y-117101250D01*
X115623000Y-116127000D01*
X114523750Y-116127000D01*
X114365000Y-116285750D01*
X112126210Y-116285750D01*
X112123861Y-116273942D01*
X112089555Y-116222600D01*
X112002151Y-116091790D01*
X112002149Y-116091788D01*
X111961058Y-116030291D01*
X111899560Y-115989200D01*
X111159050Y-115248690D01*
X114365000Y-115248690D01*
X114365000Y-115714250D01*
X114523750Y-115873000D01*
X115623000Y-115873000D01*
X115623000Y-114898750D01*
X115464250Y-114740000D01*
X114873691Y-114740000D01*
X114640302Y-114836673D01*
X114461673Y-115015301D01*
X114365000Y-115248690D01*
X111159050Y-115248690D01*
X109646110Y-113735750D01*
X114265000Y-113735750D01*
X114265000Y-113976310D01*
X114361673Y-114209699D01*
X114540302Y-114388327D01*
X114773691Y-114485000D01*
X115364250Y-114485000D01*
X115523000Y-114326250D01*
X115523000Y-113577000D01*
X115777000Y-113577000D01*
X115777000Y-114326250D01*
X115935750Y-114485000D01*
X116526309Y-114485000D01*
X116759698Y-114388327D01*
X116938327Y-114209699D01*
X117035000Y-113976310D01*
X117035000Y-113735750D01*
X116876250Y-113577000D01*
X115777000Y-113577000D01*
X115523000Y-113577000D01*
X114423750Y-113577000D01*
X114265000Y-113735750D01*
X109646110Y-113735750D01*
X109490355Y-113579995D01*
X109490355Y-113327478D01*
X109326011Y-112930716D01*
X109022343Y-112627048D01*
X108798438Y-112534304D01*
X116774761Y-104557981D01*
X116836258Y-104516890D01*
X116877349Y-104455393D01*
X116877351Y-104455391D01*
X116999061Y-104273239D01*
X117011090Y-104212763D01*
X117041800Y-104058376D01*
X117041800Y-104058373D01*
X117056229Y-103985833D01*
X117041800Y-103913292D01*
X117041800Y-103285863D01*
X117062601Y-103290001D01*
X117062601Y-103290001D01*
G37*
X117062601Y-103290001D02*
X117062600Y-105592948D01*
X115248063Y-107407486D01*
X115182317Y-107451416D01*
X115125474Y-107536488D01*
X115008286Y-107711872D01*
X115005165Y-107727560D01*
X115000000Y-107727560D01*
X114752235Y-107776843D01*
X114542191Y-107917191D01*
X114401843Y-108127235D01*
X114352560Y-108375000D01*
X114352560Y-109625000D01*
X114401843Y-109872765D01*
X114542191Y-110082809D01*
X114752235Y-110223157D01*
X114962600Y-110265001D01*
X114962600Y-110405585D01*
X114908286Y-110486872D01*
X114905165Y-110502560D01*
X114900000Y-110502560D01*
X114652235Y-110551843D01*
X114442191Y-110692191D01*
X114301843Y-110902235D01*
X114252560Y-111150000D01*
X114252560Y-111950000D01*
X114301843Y-112197765D01*
X114442191Y-112407809D01*
X114575694Y-112497013D01*
X114540302Y-112511673D01*
X114361673Y-112690301D01*
X114265000Y-112923690D01*
X114265000Y-113164250D01*
X114423750Y-113323000D01*
X115523000Y-113323000D01*
X115523000Y-113303000D01*
X115777000Y-113303000D01*
X115777000Y-113323000D01*
X116876250Y-113323000D01*
X117021727Y-113177523D01*
X117142191Y-113357809D01*
X117352235Y-113498157D01*
X117410200Y-113509687D01*
X117410201Y-114745422D01*
X117252235Y-114776843D01*
X117042191Y-114917191D01*
X117001346Y-114978320D01*
X116859698Y-114836673D01*
X116626309Y-114740000D01*
X116035750Y-114740000D01*
X115877000Y-114898750D01*
X115877000Y-115873000D01*
X115897000Y-115873000D01*
X115897000Y-116127000D01*
X115877000Y-116127000D01*
X115877000Y-117101250D01*
X115998336Y-117222586D01*
X115718363Y-117502560D01*
X114900000Y-117502560D01*
X114652235Y-117551843D01*
X114442191Y-117692191D01*
X114301843Y-117902235D01*
X114252560Y-118150000D01*
X114252560Y-118950000D01*
X114301843Y-119197765D01*
X114442191Y-119407809D01*
X114575694Y-119497013D01*
X114540302Y-119511673D01*
X114361673Y-119690301D01*
X114265000Y-119923690D01*
X114265000Y-120164250D01*
X114423750Y-120323000D01*
X115523000Y-120323000D01*
X115523000Y-120303000D01*
X115777000Y-120303000D01*
X115777000Y-120323000D01*
X116876250Y-120323000D01*
X117021727Y-120177523D01*
X117142191Y-120357809D01*
X117352235Y-120498157D01*
X117600000Y-120547440D01*
X119100000Y-120547440D01*
X119347765Y-120498157D01*
X119366537Y-120485614D01*
X119565422Y-120684500D01*
X118600908Y-121649014D01*
X118522444Y-121701443D01*
X118470015Y-121779908D01*
X118470012Y-121779911D01*
X118314729Y-122012308D01*
X118241790Y-122379000D01*
X118260201Y-122471559D01*
X118260200Y-125510722D01*
X118010723Y-125760200D01*
X115792549Y-125760200D01*
X115699999Y-125741791D01*
X115607449Y-125760200D01*
X115607441Y-125760200D01*
X115333309Y-125814728D01*
X115333308Y-125814729D01*
X115333307Y-125814729D01*
X115100909Y-125970013D01*
X115100908Y-125970014D01*
X115022443Y-126022443D01*
X114970014Y-126100908D01*
X114124319Y-126946604D01*
X113970000Y-126915908D01*
X113390582Y-127031161D01*
X112899375Y-127359375D01*
X112700000Y-127657761D01*
X112500625Y-127359375D01*
X112166600Y-127136187D01*
X112166600Y-120735750D01*
X114265000Y-120735750D01*
X114265000Y-120976310D01*
X114361673Y-121209699D01*
X114540302Y-121388327D01*
X114773691Y-121485000D01*
X115364250Y-121485000D01*
X115523000Y-121326250D01*
X115523000Y-120577000D01*
X115777000Y-120577000D01*
X115777000Y-121326250D01*
X115935750Y-121485000D01*
X116526309Y-121485000D01*
X116759698Y-121388327D01*
X116938327Y-121209699D01*
X117035000Y-120976310D01*
X117035000Y-120735750D01*
X116876250Y-120577000D01*
X115777000Y-120577000D01*
X115523000Y-120577000D01*
X114423750Y-120577000D01*
X114265000Y-120735750D01*
X112166600Y-120735750D01*
X112166600Y-116633889D01*
X112181029Y-116561348D01*
X112166600Y-116488808D01*
X112166600Y-116488805D01*
X112126210Y-116285750D01*
X114365000Y-116285750D01*
X114365000Y-116751310D01*
X114461673Y-116984699D01*
X114640302Y-117163327D01*
X114873691Y-117260000D01*
X115464250Y-117260000D01*
X115623000Y-117101250D01*
X115623000Y-116127000D01*
X114523750Y-116127000D01*
X114365000Y-116285750D01*
X112126210Y-116285750D01*
X112123861Y-116273942D01*
X112089555Y-116222600D01*
X112002151Y-116091790D01*
X112002149Y-116091788D01*
X111961058Y-116030291D01*
X111899560Y-115989200D01*
X111159050Y-115248690D01*
X114365000Y-115248690D01*
X114365000Y-115714250D01*
X114523750Y-115873000D01*
X115623000Y-115873000D01*
X115623000Y-114898750D01*
X115464250Y-114740000D01*
X114873691Y-114740000D01*
X114640302Y-114836673D01*
X114461673Y-115015301D01*
X114365000Y-115248690D01*
X111159050Y-115248690D01*
X109646110Y-113735750D01*
X114265000Y-113735750D01*
X114265000Y-113976310D01*
X114361673Y-114209699D01*
X114540302Y-114388327D01*
X114773691Y-114485000D01*
X115364250Y-114485000D01*
X115523000Y-114326250D01*
X115523000Y-113577000D01*
X115777000Y-113577000D01*
X115777000Y-114326250D01*
X115935750Y-114485000D01*
X116526309Y-114485000D01*
X116759698Y-114388327D01*
X116938327Y-114209699D01*
X117035000Y-113976310D01*
X117035000Y-113735750D01*
X116876250Y-113577000D01*
X115777000Y-113577000D01*
X115523000Y-113577000D01*
X114423750Y-113577000D01*
X114265000Y-113735750D01*
X109646110Y-113735750D01*
X109490355Y-113579995D01*
X109490355Y-113327478D01*
X109326011Y-112930716D01*
X109022343Y-112627048D01*
X108798438Y-112534304D01*
X116774761Y-104557981D01*
X116836258Y-104516890D01*
X116877349Y-104455393D01*
X116877351Y-104455391D01*
X116999061Y-104273239D01*
X117011090Y-104212763D01*
X117041800Y-104058376D01*
X117041800Y-104058373D01*
X117056229Y-103985833D01*
X117041800Y-103913292D01*
X117041800Y-103285863D01*
X117062601Y-103290001D01*
G36*
X93254210Y-95181861D02*
X93469073Y-95224600D01*
X93469076Y-95224600D01*
X93541616Y-95239029D01*
X93614157Y-95224600D01*
X94005400Y-95224600D01*
X94005401Y-99191621D01*
X93929886Y-99267136D01*
X93862726Y-99280495D01*
X93825976Y-99287805D01*
X93643824Y-99409515D01*
X93643822Y-99409517D01*
X93582325Y-99450608D01*
X93541234Y-99512106D01*
X91478442Y-101574898D01*
X91416942Y-101615991D01*
X91254139Y-101859643D01*
X91211400Y-102074506D01*
X91211400Y-102074509D01*
X91196971Y-102147049D01*
X91211400Y-102219590D01*
X91211401Y-103005323D01*
X88824041Y-105392684D01*
X88762541Y-105433777D01*
X88599738Y-105677429D01*
X88556999Y-105892292D01*
X88556999Y-105892295D01*
X88542570Y-105964835D01*
X88556999Y-106037376D01*
X88557000Y-107509054D01*
X88542570Y-107581599D01*
X88599738Y-107869005D01*
X88721448Y-108051157D01*
X88721451Y-108051160D01*
X88762542Y-108112657D01*
X88824039Y-108153748D01*
X89941400Y-109271110D01*
X89941401Y-119074889D01*
X89192442Y-119823849D01*
X89130942Y-119864942D01*
X89089849Y-119926442D01*
X89062955Y-119966692D01*
X88968139Y-120108594D01*
X88925400Y-120323457D01*
X88925400Y-120323460D01*
X88910971Y-120396000D01*
X88925400Y-120468540D01*
X88925400Y-120577457D01*
X88925401Y-125856255D01*
X88910971Y-125928800D01*
X88968139Y-126216206D01*
X89089849Y-126398358D01*
X89089852Y-126398361D01*
X89130943Y-126459858D01*
X89192440Y-126500949D01*
X90046263Y-127354773D01*
X90039375Y-127359375D01*
X89840000Y-127657761D01*
X89640625Y-127359375D01*
X89292040Y-127126458D01*
X89263861Y-126984793D01*
X89263663Y-126984497D01*
X89142151Y-126802641D01*
X89142149Y-126802639D01*
X89101058Y-126741142D01*
X89039561Y-126700051D01*
X84561949Y-122222440D01*
X84900000Y-122222440D01*
X85147765Y-122173157D01*
X85357809Y-122032809D01*
X85498157Y-121822765D01*
X85547440Y-121575000D01*
X85547440Y-120325000D01*
X85498157Y-120077235D01*
X85357809Y-119867191D01*
X85147765Y-119726843D01*
X85125657Y-119722446D01*
X85247765Y-119698157D01*
X85457809Y-119557809D01*
X85598157Y-119347765D01*
X85647440Y-119100000D01*
X85647440Y-117800000D01*
X85598157Y-117552235D01*
X85457809Y-117342191D01*
X85247765Y-117201843D01*
X85238500Y-117200000D01*
X85247765Y-117198157D01*
X85457809Y-117057809D01*
X85598157Y-116847765D01*
X85647440Y-116600000D01*
X85647440Y-115300000D01*
X85598157Y-115052235D01*
X85457809Y-114842191D01*
X85247765Y-114701843D01*
X85000000Y-114652560D01*
X83894270Y-114652560D01*
X83064273Y-113822564D01*
X83252235Y-113948157D01*
X83500000Y-113997440D01*
X85000000Y-113997440D01*
X85247765Y-113948157D01*
X85457809Y-113807809D01*
X85598157Y-113597765D01*
X85647440Y-113350000D01*
X85647440Y-112550000D01*
X85598157Y-112302235D01*
X85457809Y-112092191D01*
X85247765Y-111951843D01*
X85000000Y-111902560D01*
X84986600Y-111902560D01*
X84986600Y-111205214D01*
X85147765Y-111173157D01*
X85357809Y-111032809D01*
X85498157Y-110822765D01*
X85547440Y-110575000D01*
X85547440Y-109325000D01*
X85498157Y-109077235D01*
X85357809Y-108867191D01*
X85147765Y-108726843D01*
X84900000Y-108677560D01*
X84886600Y-108677560D01*
X84886600Y-107467640D01*
X84901029Y-107395100D01*
X84886600Y-107322557D01*
X84886600Y-107322556D01*
X84843861Y-107107693D01*
X84815763Y-107065642D01*
X84722151Y-106925541D01*
X84722149Y-106925539D01*
X84681058Y-106864042D01*
X84619561Y-106822951D01*
X82852815Y-105056206D01*
X83100625Y-104890625D01*
X83428839Y-104399418D01*
X83544092Y-103820000D01*
X83428839Y-103240582D01*
X83100625Y-102749375D01*
X82802239Y-102550000D01*
X83100625Y-102350625D01*
X83323813Y-102016600D01*
X85293760Y-102016600D01*
X85366300Y-102031029D01*
X85438840Y-102016600D01*
X85438844Y-102016600D01*
X85653707Y-101973861D01*
X85897358Y-101811058D01*
X85938451Y-101749558D01*
X92035961Y-95652049D01*
X92097458Y-95610958D01*
X92138549Y-95549461D01*
X92138551Y-95549459D01*
X92260261Y-95367307D01*
X92269254Y-95322094D01*
X92302591Y-95154500D01*
X92714726Y-95154500D01*
X93022481Y-95027024D01*
X93254210Y-95181861D01*
X93254210Y-95181861D01*
G37*
X93254210Y-95181861D02*
X93469073Y-95224600D01*
X93469076Y-95224600D01*
X93541616Y-95239029D01*
X93614157Y-95224600D01*
X94005400Y-95224600D01*
X94005401Y-99191621D01*
X93929886Y-99267136D01*
X93862726Y-99280495D01*
X93825976Y-99287805D01*
X93643824Y-99409515D01*
X93643822Y-99409517D01*
X93582325Y-99450608D01*
X93541234Y-99512106D01*
X91478442Y-101574898D01*
X91416942Y-101615991D01*
X91254139Y-101859643D01*
X91211400Y-102074506D01*
X91211400Y-102074509D01*
X91196971Y-102147049D01*
X91211400Y-102219590D01*
X91211401Y-103005323D01*
X88824041Y-105392684D01*
X88762541Y-105433777D01*
X88599738Y-105677429D01*
X88556999Y-105892292D01*
X88556999Y-105892295D01*
X88542570Y-105964835D01*
X88556999Y-106037376D01*
X88557000Y-107509054D01*
X88542570Y-107581599D01*
X88599738Y-107869005D01*
X88721448Y-108051157D01*
X88721451Y-108051160D01*
X88762542Y-108112657D01*
X88824039Y-108153748D01*
X89941400Y-109271110D01*
X89941401Y-119074889D01*
X89192442Y-119823849D01*
X89130942Y-119864942D01*
X89089849Y-119926442D01*
X89062955Y-119966692D01*
X88968139Y-120108594D01*
X88925400Y-120323457D01*
X88925400Y-120323460D01*
X88910971Y-120396000D01*
X88925400Y-120468540D01*
X88925400Y-120577457D01*
X88925401Y-125856255D01*
X88910971Y-125928800D01*
X88968139Y-126216206D01*
X89089849Y-126398358D01*
X89089852Y-126398361D01*
X89130943Y-126459858D01*
X89192440Y-126500949D01*
X90046263Y-127354773D01*
X90039375Y-127359375D01*
X89840000Y-127657761D01*
X89640625Y-127359375D01*
X89292040Y-127126458D01*
X89263861Y-126984793D01*
X89263663Y-126984497D01*
X89142151Y-126802641D01*
X89142149Y-126802639D01*
X89101058Y-126741142D01*
X89039561Y-126700051D01*
X84561949Y-122222440D01*
X84900000Y-122222440D01*
X85147765Y-122173157D01*
X85357809Y-122032809D01*
X85498157Y-121822765D01*
X85547440Y-121575000D01*
X85547440Y-120325000D01*
X85498157Y-120077235D01*
X85357809Y-119867191D01*
X85147765Y-119726843D01*
X85125657Y-119722446D01*
X85247765Y-119698157D01*
X85457809Y-119557809D01*
X85598157Y-119347765D01*
X85647440Y-119100000D01*
X85647440Y-117800000D01*
X85598157Y-117552235D01*
X85457809Y-117342191D01*
X85247765Y-117201843D01*
X85238500Y-117200000D01*
X85247765Y-117198157D01*
X85457809Y-117057809D01*
X85598157Y-116847765D01*
X85647440Y-116600000D01*
X85647440Y-115300000D01*
X85598157Y-115052235D01*
X85457809Y-114842191D01*
X85247765Y-114701843D01*
X85000000Y-114652560D01*
X83894270Y-114652560D01*
X83064273Y-113822564D01*
X83252235Y-113948157D01*
X83500000Y-113997440D01*
X85000000Y-113997440D01*
X85247765Y-113948157D01*
X85457809Y-113807809D01*
X85598157Y-113597765D01*
X85647440Y-113350000D01*
X85647440Y-112550000D01*
X85598157Y-112302235D01*
X85457809Y-112092191D01*
X85247765Y-111951843D01*
X85000000Y-111902560D01*
X84986600Y-111902560D01*
X84986600Y-111205214D01*
X85147765Y-111173157D01*
X85357809Y-111032809D01*
X85498157Y-110822765D01*
X85547440Y-110575000D01*
X85547440Y-109325000D01*
X85498157Y-109077235D01*
X85357809Y-108867191D01*
X85147765Y-108726843D01*
X84900000Y-108677560D01*
X84886600Y-108677560D01*
X84886600Y-107467640D01*
X84901029Y-107395100D01*
X84886600Y-107322557D01*
X84886600Y-107322556D01*
X84843861Y-107107693D01*
X84815763Y-107065642D01*
X84722151Y-106925541D01*
X84722149Y-106925539D01*
X84681058Y-106864042D01*
X84619561Y-106822951D01*
X82852815Y-105056206D01*
X83100625Y-104890625D01*
X83428839Y-104399418D01*
X83544092Y-103820000D01*
X83428839Y-103240582D01*
X83100625Y-102749375D01*
X82802239Y-102550000D01*
X83100625Y-102350625D01*
X83323813Y-102016600D01*
X85293760Y-102016600D01*
X85366300Y-102031029D01*
X85438840Y-102016600D01*
X85438844Y-102016600D01*
X85653707Y-101973861D01*
X85897358Y-101811058D01*
X85938451Y-101749558D01*
X92035961Y-95652049D01*
X92097458Y-95610958D01*
X92138549Y-95549461D01*
X92138551Y-95549459D01*
X92260261Y-95367307D01*
X92269254Y-95322094D01*
X92302591Y-95154500D01*
X92714726Y-95154500D01*
X93022481Y-95027024D01*
X93254210Y-95181861D01*
G36*
X74954342Y-82803149D02*
X74892842Y-82844242D01*
X74730039Y-83087894D01*
X74687300Y-83302757D01*
X74687300Y-83302760D01*
X74672871Y-83375300D01*
X74687300Y-83447840D01*
X74687301Y-102319955D01*
X74508744Y-102498512D01*
X74344400Y-102895274D01*
X74344400Y-103324726D01*
X74508744Y-103721488D01*
X74812412Y-104025156D01*
X75006705Y-104105635D01*
X74963742Y-104134342D01*
X74922649Y-104195842D01*
X74881384Y-104257600D01*
X74800939Y-104377994D01*
X74758200Y-104592857D01*
X74758200Y-104592860D01*
X74743771Y-104665400D01*
X74758200Y-104737940D01*
X74758201Y-114801755D01*
X74743771Y-114874300D01*
X74800939Y-115161706D01*
X74922649Y-115343858D01*
X74922652Y-115343861D01*
X74963743Y-115405358D01*
X75025240Y-115446449D01*
X79860251Y-120281461D01*
X79901342Y-120342958D01*
X79962839Y-120384049D01*
X79962841Y-120384051D01*
X80071354Y-120456557D01*
X80144993Y-120505761D01*
X80265000Y-120529632D01*
X80265000Y-120664250D01*
X80423750Y-120823000D01*
X81523000Y-120823000D01*
X81523000Y-120803000D01*
X81777000Y-120803000D01*
X81777000Y-120823000D01*
X81797000Y-120823000D01*
X81797000Y-121077000D01*
X81777000Y-121077000D01*
X81777000Y-122051250D01*
X81935750Y-122210000D01*
X82466091Y-122210000D01*
X85956965Y-125700875D01*
X85844198Y-125678508D01*
X85752159Y-125660200D01*
X85751899Y-125660200D01*
X85659083Y-125641790D01*
X85566789Y-125660200D01*
X81889278Y-125660200D01*
X81339800Y-125110723D01*
X81339800Y-122971616D01*
X81358210Y-122879127D01*
X81339800Y-122786508D01*
X81339800Y-122786441D01*
X81320782Y-122690828D01*
X81285320Y-122512425D01*
X81285285Y-122512372D01*
X81285272Y-122512309D01*
X81182310Y-122358216D01*
X81130067Y-122280007D01*
X81130022Y-122279962D01*
X81083275Y-122210000D01*
X81364250Y-122210000D01*
X81523000Y-122051250D01*
X81523000Y-121077000D01*
X80423750Y-121077000D01*
X80265000Y-121235750D01*
X80265000Y-121414711D01*
X78490620Y-119639861D01*
X78490500Y-119639681D01*
X78423672Y-119572895D01*
X78359886Y-119509092D01*
X78359714Y-119508977D01*
X77851205Y-119000787D01*
X77798857Y-118922443D01*
X77720266Y-118869930D01*
X77720161Y-118869825D01*
X77643332Y-118818524D01*
X77487991Y-118714728D01*
X77487841Y-118714698D01*
X77487715Y-118714614D01*
X77306536Y-118678635D01*
X77213859Y-118660200D01*
X77213707Y-118660200D01*
X77121001Y-118641790D01*
X77028598Y-118660200D01*
X74489278Y-118660200D01*
X74039800Y-118210723D01*
X74039800Y-115592554D01*
X74058210Y-115500000D01*
X74039800Y-115407446D01*
X74039800Y-115407441D01*
X73985272Y-115133309D01*
X73921377Y-115037684D01*
X73829988Y-114900910D01*
X73829986Y-114900908D01*
X73777557Y-114822443D01*
X73699092Y-114770014D01*
X73053396Y-114124319D01*
X73084092Y-113970000D01*
X73053396Y-113815681D01*
X73139089Y-113729988D01*
X73217557Y-113677557D01*
X73382675Y-113430442D01*
X73425271Y-113366693D01*
X73425271Y-113366692D01*
X73425272Y-113366691D01*
X73479800Y-113092559D01*
X73479800Y-113092555D01*
X73498210Y-113000001D01*
X73479800Y-112907447D01*
X73479800Y-112841779D01*
X73577527Y-112744230D01*
X73656357Y-112691557D01*
X73760161Y-112536203D01*
X73863736Y-112381501D01*
X73863824Y-112381063D01*
X73864072Y-112380691D01*
X73900677Y-112196665D01*
X73937009Y-112014875D01*
X73918600Y-111921882D01*
X73918600Y-102553573D01*
X74135276Y-102337130D01*
X74213957Y-102284557D01*
X74317924Y-102128961D01*
X74421473Y-101974169D01*
X74421524Y-101973912D01*
X74421672Y-101973691D01*
X74458703Y-101787522D01*
X74494609Y-101607517D01*
X74476200Y-101514706D01*
X74476200Y-98192549D01*
X74494609Y-98099999D01*
X74476200Y-98007449D01*
X74476200Y-98007441D01*
X74421672Y-97733309D01*
X74418597Y-97728706D01*
X74300195Y-97551507D01*
X74213957Y-97422443D01*
X74135490Y-97370013D01*
X73918600Y-97153123D01*
X73918600Y-87531353D01*
X73937010Y-87438799D01*
X73918600Y-87346245D01*
X73918600Y-87346241D01*
X73864072Y-87072109D01*
X73859130Y-87064713D01*
X73708788Y-86839710D01*
X73708786Y-86839708D01*
X73656357Y-86761243D01*
X73577893Y-86708815D01*
X73053396Y-86184319D01*
X73084092Y-86030000D01*
X73053396Y-85875681D01*
X73899092Y-85029986D01*
X73977557Y-84977557D01*
X74031323Y-84897092D01*
X74185271Y-84666693D01*
X74185271Y-84666692D01*
X74185272Y-84666691D01*
X74239800Y-84392559D01*
X74239800Y-84392551D01*
X74258209Y-84300001D01*
X74239800Y-84207451D01*
X74239800Y-81789277D01*
X74789278Y-81239800D01*
X76517691Y-81239800D01*
X74954342Y-82803149D01*
X74954342Y-82803149D01*
G37*
X74954342Y-82803149D02*
X74892842Y-82844242D01*
X74730039Y-83087894D01*
X74687300Y-83302757D01*
X74687300Y-83302760D01*
X74672871Y-83375300D01*
X74687300Y-83447840D01*
X74687301Y-102319955D01*
X74508744Y-102498512D01*
X74344400Y-102895274D01*
X74344400Y-103324726D01*
X74508744Y-103721488D01*
X74812412Y-104025156D01*
X75006705Y-104105635D01*
X74963742Y-104134342D01*
X74922649Y-104195842D01*
X74881384Y-104257600D01*
X74800939Y-104377994D01*
X74758200Y-104592857D01*
X74758200Y-104592860D01*
X74743771Y-104665400D01*
X74758200Y-104737940D01*
X74758201Y-114801755D01*
X74743771Y-114874300D01*
X74800939Y-115161706D01*
X74922649Y-115343858D01*
X74922652Y-115343861D01*
X74963743Y-115405358D01*
X75025240Y-115446449D01*
X79860251Y-120281461D01*
X79901342Y-120342958D01*
X79962839Y-120384049D01*
X79962841Y-120384051D01*
X80071354Y-120456557D01*
X80144993Y-120505761D01*
X80265000Y-120529632D01*
X80265000Y-120664250D01*
X80423750Y-120823000D01*
X81523000Y-120823000D01*
X81523000Y-120803000D01*
X81777000Y-120803000D01*
X81777000Y-120823000D01*
X81797000Y-120823000D01*
X81797000Y-121077000D01*
X81777000Y-121077000D01*
X81777000Y-122051250D01*
X81935750Y-122210000D01*
X82466091Y-122210000D01*
X85956965Y-125700875D01*
X85844198Y-125678508D01*
X85752159Y-125660200D01*
X85751899Y-125660200D01*
X85659083Y-125641790D01*
X85566789Y-125660200D01*
X81889278Y-125660200D01*
X81339800Y-125110723D01*
X81339800Y-122971616D01*
X81358210Y-122879127D01*
X81339800Y-122786508D01*
X81339800Y-122786441D01*
X81320782Y-122690828D01*
X81285320Y-122512425D01*
X81285285Y-122512372D01*
X81285272Y-122512309D01*
X81182310Y-122358216D01*
X81130067Y-122280007D01*
X81130022Y-122279962D01*
X81083275Y-122210000D01*
X81364250Y-122210000D01*
X81523000Y-122051250D01*
X81523000Y-121077000D01*
X80423750Y-121077000D01*
X80265000Y-121235750D01*
X80265000Y-121414711D01*
X78490620Y-119639861D01*
X78490500Y-119639681D01*
X78423672Y-119572895D01*
X78359886Y-119509092D01*
X78359714Y-119508977D01*
X77851205Y-119000787D01*
X77798857Y-118922443D01*
X77720266Y-118869930D01*
X77720161Y-118869825D01*
X77643332Y-118818524D01*
X77487991Y-118714728D01*
X77487841Y-118714698D01*
X77487715Y-118714614D01*
X77306536Y-118678635D01*
X77213859Y-118660200D01*
X77213707Y-118660200D01*
X77121001Y-118641790D01*
X77028598Y-118660200D01*
X74489278Y-118660200D01*
X74039800Y-118210723D01*
X74039800Y-115592554D01*
X74058210Y-115500000D01*
X74039800Y-115407446D01*
X74039800Y-115407441D01*
X73985272Y-115133309D01*
X73921377Y-115037684D01*
X73829988Y-114900910D01*
X73829986Y-114900908D01*
X73777557Y-114822443D01*
X73699092Y-114770014D01*
X73053396Y-114124319D01*
X73084092Y-113970000D01*
X73053396Y-113815681D01*
X73139089Y-113729988D01*
X73217557Y-113677557D01*
X73382675Y-113430442D01*
X73425271Y-113366693D01*
X73425271Y-113366692D01*
X73425272Y-113366691D01*
X73479800Y-113092559D01*
X73479800Y-113092555D01*
X73498210Y-113000001D01*
X73479800Y-112907447D01*
X73479800Y-112841779D01*
X73577527Y-112744230D01*
X73656357Y-112691557D01*
X73760161Y-112536203D01*
X73863736Y-112381501D01*
X73863824Y-112381063D01*
X73864072Y-112380691D01*
X73900677Y-112196665D01*
X73937009Y-112014875D01*
X73918600Y-111921882D01*
X73918600Y-102553573D01*
X74135276Y-102337130D01*
X74213957Y-102284557D01*
X74317924Y-102128961D01*
X74421473Y-101974169D01*
X74421524Y-101973912D01*
X74421672Y-101973691D01*
X74458703Y-101787522D01*
X74494609Y-101607517D01*
X74476200Y-101514706D01*
X74476200Y-98192549D01*
X74494609Y-98099999D01*
X74476200Y-98007449D01*
X74476200Y-98007441D01*
X74421672Y-97733309D01*
X74418597Y-97728706D01*
X74300195Y-97551507D01*
X74213957Y-97422443D01*
X74135490Y-97370013D01*
X73918600Y-97153123D01*
X73918600Y-87531353D01*
X73937010Y-87438799D01*
X73918600Y-87346245D01*
X73918600Y-87346241D01*
X73864072Y-87072109D01*
X73859130Y-87064713D01*
X73708788Y-86839710D01*
X73708786Y-86839708D01*
X73656357Y-86761243D01*
X73577893Y-86708815D01*
X73053396Y-86184319D01*
X73084092Y-86030000D01*
X73053396Y-85875681D01*
X73899092Y-85029986D01*
X73977557Y-84977557D01*
X74031323Y-84897092D01*
X74185271Y-84666693D01*
X74185271Y-84666692D01*
X74185272Y-84666691D01*
X74239800Y-84392559D01*
X74239800Y-84392551D01*
X74258209Y-84300001D01*
X74239800Y-84207451D01*
X74239800Y-81789277D01*
X74789278Y-81239800D01*
X76517691Y-81239800D01*
X74954342Y-82803149D01*
G36*
X81968600Y-107673409D02*
X81968600Y-108690000D01*
X81935750Y-108690000D01*
X81777000Y-108848750D01*
X81777000Y-109823000D01*
X81797000Y-109823000D01*
X81797000Y-110077000D01*
X81777000Y-110077000D01*
X81777000Y-111023750D01*
X81677000Y-111123750D01*
X81677000Y-111873000D01*
X81697000Y-111873000D01*
X81697000Y-112127000D01*
X81677000Y-112127000D01*
X81677000Y-112147000D01*
X81423000Y-112147000D01*
X81423000Y-112127000D01*
X80323750Y-112127000D01*
X80165000Y-112285750D01*
X80165000Y-112526310D01*
X80261673Y-112759699D01*
X80440302Y-112938327D01*
X80475694Y-112952987D01*
X80342191Y-113042191D01*
X80201843Y-113252235D01*
X80152560Y-113500000D01*
X80152560Y-114300000D01*
X80201843Y-114547765D01*
X80342191Y-114757809D01*
X80403320Y-114798655D01*
X80261673Y-114940301D01*
X80165000Y-115173690D01*
X80165000Y-115664250D01*
X80323750Y-115823000D01*
X81423000Y-115823000D01*
X81423000Y-115803000D01*
X81677000Y-115803000D01*
X81677000Y-115823000D01*
X81697000Y-115823000D01*
X81697000Y-116077000D01*
X81677000Y-116077000D01*
X81677000Y-116097000D01*
X81423000Y-116097000D01*
X81423000Y-116077000D01*
X80323750Y-116077000D01*
X80165000Y-116235750D01*
X80165000Y-116726310D01*
X80261673Y-116959699D01*
X80440302Y-117138327D01*
X80580209Y-117196279D01*
X80552235Y-117201843D01*
X80342191Y-117342191D01*
X80201843Y-117552235D01*
X80152560Y-117800000D01*
X80152560Y-117895850D01*
X77386600Y-115129891D01*
X77386600Y-111473690D01*
X80165000Y-111473690D01*
X80165000Y-111714250D01*
X80323750Y-111873000D01*
X81423000Y-111873000D01*
X81423000Y-111151250D01*
X81523000Y-111051250D01*
X81523000Y-110077000D01*
X80423750Y-110077000D01*
X80265000Y-110235750D01*
X80265000Y-110701310D01*
X80361673Y-110934699D01*
X80474488Y-111047513D01*
X80440302Y-111061673D01*
X80261673Y-111240301D01*
X80165000Y-111473690D01*
X77386600Y-111473690D01*
X77386600Y-109198690D01*
X80265000Y-109198690D01*
X80265000Y-109664250D01*
X80423750Y-109823000D01*
X81523000Y-109823000D01*
X81523000Y-108848750D01*
X81364250Y-108690000D01*
X80773691Y-108690000D01*
X80540302Y-108786673D01*
X80361673Y-108965301D01*
X80265000Y-109198690D01*
X77386600Y-109198690D01*
X77386600Y-108147440D01*
X77500000Y-108147440D01*
X77747765Y-108098157D01*
X77957809Y-107957809D01*
X78098157Y-107747765D01*
X78107184Y-107702381D01*
X78119375Y-107720625D01*
X78610582Y-108048839D01*
X79190000Y-108164092D01*
X79769417Y-108048839D01*
X80260625Y-107720625D01*
X80588839Y-107229418D01*
X80675000Y-106796256D01*
X80675000Y-106379809D01*
X81968600Y-107673409D01*
X81968600Y-107673409D01*
G37*
X81968600Y-107673409D02*
X81968600Y-108690000D01*
X81935750Y-108690000D01*
X81777000Y-108848750D01*
X81777000Y-109823000D01*
X81797000Y-109823000D01*
X81797000Y-110077000D01*
X81777000Y-110077000D01*
X81777000Y-111023750D01*
X81677000Y-111123750D01*
X81677000Y-111873000D01*
X81697000Y-111873000D01*
X81697000Y-112127000D01*
X81677000Y-112127000D01*
X81677000Y-112147000D01*
X81423000Y-112147000D01*
X81423000Y-112127000D01*
X80323750Y-112127000D01*
X80165000Y-112285750D01*
X80165000Y-112526310D01*
X80261673Y-112759699D01*
X80440302Y-112938327D01*
X80475694Y-112952987D01*
X80342191Y-113042191D01*
X80201843Y-113252235D01*
X80152560Y-113500000D01*
X80152560Y-114300000D01*
X80201843Y-114547765D01*
X80342191Y-114757809D01*
X80403320Y-114798655D01*
X80261673Y-114940301D01*
X80165000Y-115173690D01*
X80165000Y-115664250D01*
X80323750Y-115823000D01*
X81423000Y-115823000D01*
X81423000Y-115803000D01*
X81677000Y-115803000D01*
X81677000Y-115823000D01*
X81697000Y-115823000D01*
X81697000Y-116077000D01*
X81677000Y-116077000D01*
X81677000Y-116097000D01*
X81423000Y-116097000D01*
X81423000Y-116077000D01*
X80323750Y-116077000D01*
X80165000Y-116235750D01*
X80165000Y-116726310D01*
X80261673Y-116959699D01*
X80440302Y-117138327D01*
X80580209Y-117196279D01*
X80552235Y-117201843D01*
X80342191Y-117342191D01*
X80201843Y-117552235D01*
X80152560Y-117800000D01*
X80152560Y-117895850D01*
X77386600Y-115129891D01*
X77386600Y-111473690D01*
X80165000Y-111473690D01*
X80165000Y-111714250D01*
X80323750Y-111873000D01*
X81423000Y-111873000D01*
X81423000Y-111151250D01*
X81523000Y-111051250D01*
X81523000Y-110077000D01*
X80423750Y-110077000D01*
X80265000Y-110235750D01*
X80265000Y-110701310D01*
X80361673Y-110934699D01*
X80474488Y-111047513D01*
X80440302Y-111061673D01*
X80261673Y-111240301D01*
X80165000Y-111473690D01*
X77386600Y-111473690D01*
X77386600Y-109198690D01*
X80265000Y-109198690D01*
X80265000Y-109664250D01*
X80423750Y-109823000D01*
X81523000Y-109823000D01*
X81523000Y-108848750D01*
X81364250Y-108690000D01*
X80773691Y-108690000D01*
X80540302Y-108786673D01*
X80361673Y-108965301D01*
X80265000Y-109198690D01*
X77386600Y-109198690D01*
X77386600Y-108147440D01*
X77500000Y-108147440D01*
X77747765Y-108098157D01*
X77957809Y-107957809D01*
X78098157Y-107747765D01*
X78107184Y-107702381D01*
X78119375Y-107720625D01*
X78610582Y-108048839D01*
X79190000Y-108164092D01*
X79769417Y-108048839D01*
X80260625Y-107720625D01*
X80588839Y-107229418D01*
X80675000Y-106796256D01*
X80675000Y-106379809D01*
X81968600Y-107673409D01*
G36*
X116952560Y-112724662D02*
X116938327Y-112690301D01*
X116759698Y-112511673D01*
X116724306Y-112497013D01*
X116857809Y-112407809D01*
X116952560Y-112266005D01*
X116952560Y-112724662D01*
X116952560Y-112724662D01*
G37*
X116952560Y-112724662D02*
X116938327Y-112690301D01*
X116759698Y-112511673D01*
X116724306Y-112497013D01*
X116857809Y-112407809D01*
X116952560Y-112266005D01*
X116952560Y-112724662D01*
G36*
X123674149Y-95894658D02*
X123715242Y-95956158D01*
X123958893Y-96118961D01*
X124173756Y-96161700D01*
X124173759Y-96161700D01*
X124246299Y-96176129D01*
X124318840Y-96161700D01*
X125798767Y-96161700D01*
X125780881Y-96198126D01*
X125907046Y-96373000D01*
X127023000Y-96373000D01*
X127023000Y-96353000D01*
X127277000Y-96353000D01*
X127277000Y-96373000D01*
X127297000Y-96373000D01*
X127297000Y-96627000D01*
X127277000Y-96627000D01*
X127277000Y-97635000D01*
X127544601Y-97635000D01*
X127544600Y-102365000D01*
X127277000Y-102365000D01*
X127277000Y-103373000D01*
X127297000Y-103373000D01*
X127297000Y-103627000D01*
X127277000Y-103627000D01*
X127277000Y-104635000D01*
X127544600Y-104635000D01*
X127544600Y-104673560D01*
X127530171Y-104746100D01*
X127544600Y-104818640D01*
X127544600Y-104818643D01*
X127575721Y-104975100D01*
X127587339Y-105033506D01*
X127630553Y-105098180D01*
X127359375Y-105279375D01*
X127031161Y-105770582D01*
X126918530Y-106336820D01*
X126634250Y-106052541D01*
X126593157Y-105991041D01*
X126349506Y-105828238D01*
X126134643Y-105785499D01*
X126134639Y-105785499D01*
X126062099Y-105771070D01*
X125989559Y-105785499D01*
X123775441Y-105785499D01*
X123702900Y-105771070D01*
X123630360Y-105785499D01*
X123630357Y-105785499D01*
X123415494Y-105828238D01*
X123389660Y-105845500D01*
X123085274Y-105845500D01*
X122688512Y-106009844D01*
X122384844Y-106313512D01*
X122220500Y-106710274D01*
X122220500Y-107139726D01*
X122384844Y-107536488D01*
X122688512Y-107840156D01*
X123085274Y-108004500D01*
X123514726Y-108004500D01*
X123554303Y-107988106D01*
X123643133Y-108202560D01*
X122650000Y-108202560D01*
X122402235Y-108251843D01*
X122192191Y-108392191D01*
X122051843Y-108602235D01*
X122002560Y-108850000D01*
X122002560Y-111393363D01*
X121835723Y-111560200D01*
X119435102Y-111560200D01*
X119347765Y-111501843D01*
X119100000Y-111452560D01*
X117600000Y-111452560D01*
X117352235Y-111501843D01*
X117142191Y-111642191D01*
X117047440Y-111783995D01*
X117047440Y-111150000D01*
X116998157Y-110902235D01*
X116857809Y-110692191D01*
X116647765Y-110551843D01*
X116537400Y-110529890D01*
X116537400Y-110265001D01*
X116747765Y-110223157D01*
X116957809Y-110082809D01*
X116998654Y-110021680D01*
X117140302Y-110163327D01*
X117373691Y-110260000D01*
X117964250Y-110260000D01*
X118123000Y-110101250D01*
X118123000Y-109127000D01*
X118377000Y-109127000D01*
X118377000Y-110101250D01*
X118535750Y-110260000D01*
X119126309Y-110260000D01*
X119359698Y-110163327D01*
X119538327Y-109984699D01*
X119635000Y-109751310D01*
X119635000Y-109285750D01*
X119476250Y-109127000D01*
X118377000Y-109127000D01*
X118123000Y-109127000D01*
X118103000Y-109127000D01*
X118103000Y-108873000D01*
X118123000Y-108873000D01*
X118123000Y-107898750D01*
X118377000Y-107898750D01*
X118377000Y-108873000D01*
X119476250Y-108873000D01*
X119635000Y-108714250D01*
X119635000Y-108248690D01*
X119538327Y-108015301D01*
X119359698Y-107836673D01*
X119126309Y-107740000D01*
X118535750Y-107740000D01*
X118377000Y-107898750D01*
X118123000Y-107898750D01*
X117964250Y-107740000D01*
X117373691Y-107740000D01*
X117140302Y-107836673D01*
X116998654Y-107978320D01*
X116960874Y-107921778D01*
X118351938Y-106530714D01*
X118417684Y-106486784D01*
X118551706Y-106286206D01*
X118591714Y-106226330D01*
X118591714Y-106226329D01*
X118591715Y-106226328D01*
X118637400Y-105996652D01*
X118637400Y-105996651D01*
X118652826Y-105919101D01*
X118637400Y-105841550D01*
X118637400Y-103801874D01*
X125780881Y-103801874D01*
X125982632Y-104212763D01*
X126323322Y-104500002D01*
X126748000Y-104635000D01*
X127023000Y-104635000D01*
X127023000Y-103627000D01*
X125907046Y-103627000D01*
X125780881Y-103801874D01*
X118637400Y-103801874D01*
X118637400Y-103290001D01*
X118847765Y-103248157D01*
X119057809Y-103107809D01*
X119198157Y-102897765D01*
X119217378Y-102801131D01*
X123348771Y-102801131D01*
X123490432Y-103211049D01*
X123778179Y-103535552D01*
X124152062Y-103719268D01*
X124323000Y-103592734D01*
X124323000Y-102627000D01*
X124577000Y-102627000D01*
X124577000Y-103592734D01*
X124747938Y-103719268D01*
X125121821Y-103535552D01*
X125409568Y-103211049D01*
X125414033Y-103198126D01*
X125780881Y-103198126D01*
X125907046Y-103373000D01*
X127023000Y-103373000D01*
X127023000Y-102365000D01*
X126748000Y-102365000D01*
X126323322Y-102499998D01*
X125982632Y-102787237D01*
X125780881Y-103198126D01*
X125414033Y-103198126D01*
X125551229Y-102801131D01*
X125402563Y-102627000D01*
X124577000Y-102627000D01*
X124323000Y-102627000D01*
X123497437Y-102627000D01*
X123348771Y-102801131D01*
X119217378Y-102801131D01*
X119227799Y-102748742D01*
X119263128Y-102741715D01*
X119523584Y-102567684D01*
X119697615Y-102307228D01*
X119758726Y-102000000D01*
X119747191Y-101942008D01*
X119807188Y-101917156D01*
X120110856Y-101613488D01*
X120275200Y-101216726D01*
X120275200Y-100787274D01*
X120179019Y-100555072D01*
X120551776Y-100709473D01*
X120927609Y-100709473D01*
X121063985Y-100736600D01*
X121063988Y-100736600D01*
X121136528Y-100751029D01*
X121209069Y-100736600D01*
X123127560Y-100736600D01*
X123127560Y-100850000D01*
X123148217Y-100953852D01*
X123140000Y-100973690D01*
X123140000Y-101041250D01*
X123171958Y-101073208D01*
X123176843Y-101097765D01*
X123317191Y-101307809D01*
X123455164Y-101400000D01*
X123298750Y-101400000D01*
X123140000Y-101558750D01*
X123140000Y-101626310D01*
X123236673Y-101859699D01*
X123407090Y-102030115D01*
X123348771Y-102198869D01*
X123497437Y-102373000D01*
X124323000Y-102373000D01*
X124323000Y-102353000D01*
X124577000Y-102353000D01*
X124577000Y-102373000D01*
X125402563Y-102373000D01*
X125551229Y-102198869D01*
X125492910Y-102030115D01*
X125663327Y-101859699D01*
X125760000Y-101626310D01*
X125760000Y-101558750D01*
X125601250Y-101400000D01*
X125444836Y-101400000D01*
X125582809Y-101307809D01*
X125723157Y-101097765D01*
X125728042Y-101073208D01*
X125760000Y-101041250D01*
X125760000Y-100973690D01*
X125751783Y-100953852D01*
X125772440Y-100850000D01*
X125772440Y-100450000D01*
X125747576Y-100325000D01*
X125772440Y-100200000D01*
X125772440Y-99800000D01*
X125747576Y-99675000D01*
X125772440Y-99550000D01*
X125772440Y-99150000D01*
X125747576Y-99025000D01*
X125772440Y-98900000D01*
X125772440Y-98500000D01*
X125723157Y-98252235D01*
X125582809Y-98042191D01*
X125489475Y-97979827D01*
X125551229Y-97801131D01*
X125402563Y-97627000D01*
X124577000Y-97627000D01*
X124577000Y-97647000D01*
X124323000Y-97647000D01*
X124323000Y-97627000D01*
X124303000Y-97627000D01*
X124303000Y-97373000D01*
X124323000Y-97373000D01*
X124323000Y-96407266D01*
X124577000Y-96407266D01*
X124577000Y-97373000D01*
X125402563Y-97373000D01*
X125551229Y-97198869D01*
X125414034Y-96801874D01*
X125780881Y-96801874D01*
X125982632Y-97212763D01*
X126323322Y-97500002D01*
X126748000Y-97635000D01*
X127023000Y-97635000D01*
X127023000Y-96627000D01*
X125907046Y-96627000D01*
X125780881Y-96801874D01*
X125414034Y-96801874D01*
X125409568Y-96788951D01*
X125121821Y-96464448D01*
X124747938Y-96280732D01*
X124577000Y-96407266D01*
X124323000Y-96407266D01*
X124152062Y-96280732D01*
X123778179Y-96464448D01*
X123490432Y-96788951D01*
X123411749Y-97016633D01*
X123163571Y-96768455D01*
X122682789Y-96569308D01*
X122162395Y-96569308D01*
X121681613Y-96768455D01*
X121313639Y-97136429D01*
X121114492Y-97617211D01*
X121114492Y-97880204D01*
X120937985Y-97953316D01*
X120634317Y-98256984D01*
X120504668Y-98569986D01*
X120155014Y-98714817D01*
X119851346Y-99018485D01*
X119687002Y-99415247D01*
X119687002Y-99844699D01*
X119783183Y-100076901D01*
X119410426Y-99922500D01*
X119135000Y-99922500D01*
X119135000Y-99785750D01*
X118976250Y-99627000D01*
X117877000Y-99627000D01*
X117877000Y-99647000D01*
X117623000Y-99647000D01*
X117623000Y-99627000D01*
X117603000Y-99627000D01*
X117603000Y-99373000D01*
X117623000Y-99373000D01*
X117623000Y-98398750D01*
X117474250Y-98250000D01*
X117623000Y-98101250D01*
X117623000Y-97127000D01*
X117603000Y-97127000D01*
X117603000Y-96873000D01*
X117623000Y-96873000D01*
X117623000Y-96853000D01*
X117877000Y-96853000D01*
X117877000Y-96873000D01*
X117897000Y-96873000D01*
X117897000Y-97127000D01*
X117877000Y-97127000D01*
X117877000Y-97909825D01*
X117876400Y-97911274D01*
X117876400Y-98340726D01*
X117893571Y-98382179D01*
X117877000Y-98398750D01*
X117877000Y-99373000D01*
X118976250Y-99373000D01*
X119135000Y-99214250D01*
X119135000Y-99205500D01*
X119170626Y-99205500D01*
X119567388Y-99041156D01*
X119871056Y-98737488D01*
X120035400Y-98340726D01*
X120035400Y-97911274D01*
X119871056Y-97514512D01*
X119743300Y-97386756D01*
X119743300Y-95405140D01*
X119890288Y-95344256D01*
X120193956Y-95040588D01*
X120358300Y-94643826D01*
X120358300Y-94214374D01*
X120193956Y-93817612D01*
X119955844Y-93579500D01*
X119964726Y-93579500D01*
X120361488Y-93415156D01*
X120540044Y-93236600D01*
X121016091Y-93236600D01*
X123674149Y-95894658D01*
X123674149Y-95894658D01*
G37*
X123674149Y-95894658D02*
X123715242Y-95956158D01*
X123958893Y-96118961D01*
X124173756Y-96161700D01*
X124173759Y-96161700D01*
X124246299Y-96176129D01*
X124318840Y-96161700D01*
X125798767Y-96161700D01*
X125780881Y-96198126D01*
X125907046Y-96373000D01*
X127023000Y-96373000D01*
X127023000Y-96353000D01*
X127277000Y-96353000D01*
X127277000Y-96373000D01*
X127297000Y-96373000D01*
X127297000Y-96627000D01*
X127277000Y-96627000D01*
X127277000Y-97635000D01*
X127544601Y-97635000D01*
X127544600Y-102365000D01*
X127277000Y-102365000D01*
X127277000Y-103373000D01*
X127297000Y-103373000D01*
X127297000Y-103627000D01*
X127277000Y-103627000D01*
X127277000Y-104635000D01*
X127544600Y-104635000D01*
X127544600Y-104673560D01*
X127530171Y-104746100D01*
X127544600Y-104818640D01*
X127544600Y-104818643D01*
X127575721Y-104975100D01*
X127587339Y-105033506D01*
X127630553Y-105098180D01*
X127359375Y-105279375D01*
X127031161Y-105770582D01*
X126918530Y-106336820D01*
X126634250Y-106052541D01*
X126593157Y-105991041D01*
X126349506Y-105828238D01*
X126134643Y-105785499D01*
X126134639Y-105785499D01*
X126062099Y-105771070D01*
X125989559Y-105785499D01*
X123775441Y-105785499D01*
X123702900Y-105771070D01*
X123630360Y-105785499D01*
X123630357Y-105785499D01*
X123415494Y-105828238D01*
X123389660Y-105845500D01*
X123085274Y-105845500D01*
X122688512Y-106009844D01*
X122384844Y-106313512D01*
X122220500Y-106710274D01*
X122220500Y-107139726D01*
X122384844Y-107536488D01*
X122688512Y-107840156D01*
X123085274Y-108004500D01*
X123514726Y-108004500D01*
X123554303Y-107988106D01*
X123643133Y-108202560D01*
X122650000Y-108202560D01*
X122402235Y-108251843D01*
X122192191Y-108392191D01*
X122051843Y-108602235D01*
X122002560Y-108850000D01*
X122002560Y-111393363D01*
X121835723Y-111560200D01*
X119435102Y-111560200D01*
X119347765Y-111501843D01*
X119100000Y-111452560D01*
X117600000Y-111452560D01*
X117352235Y-111501843D01*
X117142191Y-111642191D01*
X117047440Y-111783995D01*
X117047440Y-111150000D01*
X116998157Y-110902235D01*
X116857809Y-110692191D01*
X116647765Y-110551843D01*
X116537400Y-110529890D01*
X116537400Y-110265001D01*
X116747765Y-110223157D01*
X116957809Y-110082809D01*
X116998654Y-110021680D01*
X117140302Y-110163327D01*
X117373691Y-110260000D01*
X117964250Y-110260000D01*
X118123000Y-110101250D01*
X118123000Y-109127000D01*
X118377000Y-109127000D01*
X118377000Y-110101250D01*
X118535750Y-110260000D01*
X119126309Y-110260000D01*
X119359698Y-110163327D01*
X119538327Y-109984699D01*
X119635000Y-109751310D01*
X119635000Y-109285750D01*
X119476250Y-109127000D01*
X118377000Y-109127000D01*
X118123000Y-109127000D01*
X118103000Y-109127000D01*
X118103000Y-108873000D01*
X118123000Y-108873000D01*
X118123000Y-107898750D01*
X118377000Y-107898750D01*
X118377000Y-108873000D01*
X119476250Y-108873000D01*
X119635000Y-108714250D01*
X119635000Y-108248690D01*
X119538327Y-108015301D01*
X119359698Y-107836673D01*
X119126309Y-107740000D01*
X118535750Y-107740000D01*
X118377000Y-107898750D01*
X118123000Y-107898750D01*
X117964250Y-107740000D01*
X117373691Y-107740000D01*
X117140302Y-107836673D01*
X116998654Y-107978320D01*
X116960874Y-107921778D01*
X118351938Y-106530714D01*
X118417684Y-106486784D01*
X118551706Y-106286206D01*
X118591714Y-106226330D01*
X118591714Y-106226329D01*
X118591715Y-106226328D01*
X118637400Y-105996652D01*
X118637400Y-105996651D01*
X118652826Y-105919101D01*
X118637400Y-105841550D01*
X118637400Y-103801874D01*
X125780881Y-103801874D01*
X125982632Y-104212763D01*
X126323322Y-104500002D01*
X126748000Y-104635000D01*
X127023000Y-104635000D01*
X127023000Y-103627000D01*
X125907046Y-103627000D01*
X125780881Y-103801874D01*
X118637400Y-103801874D01*
X118637400Y-103290001D01*
X118847765Y-103248157D01*
X119057809Y-103107809D01*
X119198157Y-102897765D01*
X119217378Y-102801131D01*
X123348771Y-102801131D01*
X123490432Y-103211049D01*
X123778179Y-103535552D01*
X124152062Y-103719268D01*
X124323000Y-103592734D01*
X124323000Y-102627000D01*
X124577000Y-102627000D01*
X124577000Y-103592734D01*
X124747938Y-103719268D01*
X125121821Y-103535552D01*
X125409568Y-103211049D01*
X125414033Y-103198126D01*
X125780881Y-103198126D01*
X125907046Y-103373000D01*
X127023000Y-103373000D01*
X127023000Y-102365000D01*
X126748000Y-102365000D01*
X126323322Y-102499998D01*
X125982632Y-102787237D01*
X125780881Y-103198126D01*
X125414033Y-103198126D01*
X125551229Y-102801131D01*
X125402563Y-102627000D01*
X124577000Y-102627000D01*
X124323000Y-102627000D01*
X123497437Y-102627000D01*
X123348771Y-102801131D01*
X119217378Y-102801131D01*
X119227799Y-102748742D01*
X119263128Y-102741715D01*
X119523584Y-102567684D01*
X119697615Y-102307228D01*
X119758726Y-102000000D01*
X119747191Y-101942008D01*
X119807188Y-101917156D01*
X120110856Y-101613488D01*
X120275200Y-101216726D01*
X120275200Y-100787274D01*
X120179019Y-100555072D01*
X120551776Y-100709473D01*
X120927609Y-100709473D01*
X121063985Y-100736600D01*
X121063988Y-100736600D01*
X121136528Y-100751029D01*
X121209069Y-100736600D01*
X123127560Y-100736600D01*
X123127560Y-100850000D01*
X123148217Y-100953852D01*
X123140000Y-100973690D01*
X123140000Y-101041250D01*
X123171958Y-101073208D01*
X123176843Y-101097765D01*
X123317191Y-101307809D01*
X123455164Y-101400000D01*
X123298750Y-101400000D01*
X123140000Y-101558750D01*
X123140000Y-101626310D01*
X123236673Y-101859699D01*
X123407090Y-102030115D01*
X123348771Y-102198869D01*
X123497437Y-102373000D01*
X124323000Y-102373000D01*
X124323000Y-102353000D01*
X124577000Y-102353000D01*
X124577000Y-102373000D01*
X125402563Y-102373000D01*
X125551229Y-102198869D01*
X125492910Y-102030115D01*
X125663327Y-101859699D01*
X125760000Y-101626310D01*
X125760000Y-101558750D01*
X125601250Y-101400000D01*
X125444836Y-101400000D01*
X125582809Y-101307809D01*
X125723157Y-101097765D01*
X125728042Y-101073208D01*
X125760000Y-101041250D01*
X125760000Y-100973690D01*
X125751783Y-100953852D01*
X125772440Y-100850000D01*
X125772440Y-100450000D01*
X125747576Y-100325000D01*
X125772440Y-100200000D01*
X125772440Y-99800000D01*
X125747576Y-99675000D01*
X125772440Y-99550000D01*
X125772440Y-99150000D01*
X125747576Y-99025000D01*
X125772440Y-98900000D01*
X125772440Y-98500000D01*
X125723157Y-98252235D01*
X125582809Y-98042191D01*
X125489475Y-97979827D01*
X125551229Y-97801131D01*
X125402563Y-97627000D01*
X124577000Y-97627000D01*
X124577000Y-97647000D01*
X124323000Y-97647000D01*
X124323000Y-97627000D01*
X124303000Y-97627000D01*
X124303000Y-97373000D01*
X124323000Y-97373000D01*
X124323000Y-96407266D01*
X124577000Y-96407266D01*
X124577000Y-97373000D01*
X125402563Y-97373000D01*
X125551229Y-97198869D01*
X125414034Y-96801874D01*
X125780881Y-96801874D01*
X125982632Y-97212763D01*
X126323322Y-97500002D01*
X126748000Y-97635000D01*
X127023000Y-97635000D01*
X127023000Y-96627000D01*
X125907046Y-96627000D01*
X125780881Y-96801874D01*
X125414034Y-96801874D01*
X125409568Y-96788951D01*
X125121821Y-96464448D01*
X124747938Y-96280732D01*
X124577000Y-96407266D01*
X124323000Y-96407266D01*
X124152062Y-96280732D01*
X123778179Y-96464448D01*
X123490432Y-96788951D01*
X123411749Y-97016633D01*
X123163571Y-96768455D01*
X122682789Y-96569308D01*
X122162395Y-96569308D01*
X121681613Y-96768455D01*
X121313639Y-97136429D01*
X121114492Y-97617211D01*
X121114492Y-97880204D01*
X120937985Y-97953316D01*
X120634317Y-98256984D01*
X120504668Y-98569986D01*
X120155014Y-98714817D01*
X119851346Y-99018485D01*
X119687002Y-99415247D01*
X119687002Y-99844699D01*
X119783183Y-100076901D01*
X119410426Y-99922500D01*
X119135000Y-99922500D01*
X119135000Y-99785750D01*
X118976250Y-99627000D01*
X117877000Y-99627000D01*
X117877000Y-99647000D01*
X117623000Y-99647000D01*
X117623000Y-99627000D01*
X117603000Y-99627000D01*
X117603000Y-99373000D01*
X117623000Y-99373000D01*
X117623000Y-98398750D01*
X117474250Y-98250000D01*
X117623000Y-98101250D01*
X117623000Y-97127000D01*
X117603000Y-97127000D01*
X117603000Y-96873000D01*
X117623000Y-96873000D01*
X117623000Y-96853000D01*
X117877000Y-96853000D01*
X117877000Y-96873000D01*
X117897000Y-96873000D01*
X117897000Y-97127000D01*
X117877000Y-97127000D01*
X117877000Y-97909825D01*
X117876400Y-97911274D01*
X117876400Y-98340726D01*
X117893571Y-98382179D01*
X117877000Y-98398750D01*
X117877000Y-99373000D01*
X118976250Y-99373000D01*
X119135000Y-99214250D01*
X119135000Y-99205500D01*
X119170626Y-99205500D01*
X119567388Y-99041156D01*
X119871056Y-98737488D01*
X120035400Y-98340726D01*
X120035400Y-97911274D01*
X119871056Y-97514512D01*
X119743300Y-97386756D01*
X119743300Y-95405140D01*
X119890288Y-95344256D01*
X120193956Y-95040588D01*
X120358300Y-94643826D01*
X120358300Y-94214374D01*
X120193956Y-93817612D01*
X119955844Y-93579500D01*
X119964726Y-93579500D01*
X120361488Y-93415156D01*
X120540044Y-93236600D01*
X121016091Y-93236600D01*
X123674149Y-95894658D01*
G36*
X106477590Y-100596800D02*
X106375074Y-100596800D01*
X105978312Y-100761144D01*
X105674644Y-101064812D01*
X105510300Y-101461574D01*
X105510300Y-101891026D01*
X105674644Y-102287788D01*
X105978312Y-102591456D01*
X106375074Y-102755800D01*
X106627590Y-102755800D01*
X106846350Y-102974560D01*
X106887442Y-103036058D01*
X106948939Y-103077149D01*
X106948941Y-103077151D01*
X107087551Y-103169767D01*
X107131093Y-103198861D01*
X107133957Y-103199431D01*
X107067342Y-103243942D01*
X106904539Y-103487593D01*
X106850146Y-103761044D01*
X103244608Y-107366583D01*
X103159698Y-107281673D01*
X102926309Y-107185000D01*
X102085750Y-107185000D01*
X101927000Y-107343750D01*
X101927000Y-107993000D01*
X101947000Y-107993000D01*
X101947000Y-108048300D01*
X101653000Y-108048300D01*
X101653000Y-107993000D01*
X101673000Y-107993000D01*
X101673000Y-107343750D01*
X101514250Y-107185000D01*
X101026709Y-107185000D01*
X102265270Y-105946440D01*
X102696500Y-105946440D01*
X102944265Y-105897157D01*
X103154309Y-105756809D01*
X103294657Y-105546765D01*
X103343940Y-105299000D01*
X103343940Y-104791000D01*
X103294657Y-104543235D01*
X103205632Y-104410000D01*
X103294657Y-104276765D01*
X103343940Y-104029000D01*
X103343940Y-103521000D01*
X103294657Y-103273235D01*
X103205632Y-103140000D01*
X103294657Y-103006765D01*
X103343940Y-102759000D01*
X103343940Y-102251000D01*
X103294657Y-102003235D01*
X103205632Y-101870000D01*
X103294657Y-101736765D01*
X103343940Y-101489000D01*
X103343940Y-100981000D01*
X103294657Y-100733235D01*
X103205632Y-100600000D01*
X103294657Y-100466765D01*
X103343940Y-100219000D01*
X103343940Y-99711000D01*
X103294657Y-99463235D01*
X103205632Y-99330000D01*
X103294657Y-99196765D01*
X103343940Y-98949000D01*
X103343940Y-98441000D01*
X103294657Y-98193235D01*
X103205632Y-98060000D01*
X103294657Y-97926765D01*
X103343940Y-97679000D01*
X103343940Y-97463149D01*
X106477590Y-100596800D01*
X106477590Y-100596800D01*
G37*
X106477590Y-100596800D02*
X106375074Y-100596800D01*
X105978312Y-100761144D01*
X105674644Y-101064812D01*
X105510300Y-101461574D01*
X105510300Y-101891026D01*
X105674644Y-102287788D01*
X105978312Y-102591456D01*
X106375074Y-102755800D01*
X106627590Y-102755800D01*
X106846350Y-102974560D01*
X106887442Y-103036058D01*
X106948939Y-103077149D01*
X106948941Y-103077151D01*
X107087551Y-103169767D01*
X107131093Y-103198861D01*
X107133957Y-103199431D01*
X107067342Y-103243942D01*
X106904539Y-103487593D01*
X106850146Y-103761044D01*
X103244608Y-107366583D01*
X103159698Y-107281673D01*
X102926309Y-107185000D01*
X102085750Y-107185000D01*
X101927000Y-107343750D01*
X101927000Y-107993000D01*
X101947000Y-107993000D01*
X101947000Y-108048300D01*
X101653000Y-108048300D01*
X101653000Y-107993000D01*
X101673000Y-107993000D01*
X101673000Y-107343750D01*
X101514250Y-107185000D01*
X101026709Y-107185000D01*
X102265270Y-105946440D01*
X102696500Y-105946440D01*
X102944265Y-105897157D01*
X103154309Y-105756809D01*
X103294657Y-105546765D01*
X103343940Y-105299000D01*
X103343940Y-104791000D01*
X103294657Y-104543235D01*
X103205632Y-104410000D01*
X103294657Y-104276765D01*
X103343940Y-104029000D01*
X103343940Y-103521000D01*
X103294657Y-103273235D01*
X103205632Y-103140000D01*
X103294657Y-103006765D01*
X103343940Y-102759000D01*
X103343940Y-102251000D01*
X103294657Y-102003235D01*
X103205632Y-101870000D01*
X103294657Y-101736765D01*
X103343940Y-101489000D01*
X103343940Y-100981000D01*
X103294657Y-100733235D01*
X103205632Y-100600000D01*
X103294657Y-100466765D01*
X103343940Y-100219000D01*
X103343940Y-99711000D01*
X103294657Y-99463235D01*
X103205632Y-99330000D01*
X103294657Y-99196765D01*
X103343940Y-98949000D01*
X103343940Y-98441000D01*
X103294657Y-98193235D01*
X103205632Y-98060000D01*
X103294657Y-97926765D01*
X103343940Y-97679000D01*
X103343940Y-97463149D01*
X106477590Y-100596800D01*
G36*
X90365499Y-95157609D02*
X90351356Y-95171751D01*
X90365499Y-95185894D01*
X90185894Y-95365499D01*
X90171751Y-95351356D01*
X89659629Y-95863478D01*
X89659629Y-95944961D01*
X85061191Y-100543400D01*
X83741292Y-100543400D01*
X83762316Y-100511935D01*
X88813235Y-95461016D01*
X88878984Y-95417084D01*
X88930555Y-95339903D01*
X88943995Y-95372351D01*
X89255517Y-95683873D01*
X89480024Y-95683873D01*
X89992146Y-95171751D01*
X89978004Y-95157609D01*
X90157609Y-94978004D01*
X90171751Y-94992146D01*
X90185894Y-94978004D01*
X90365499Y-95157609D01*
X90365499Y-95157609D01*
G37*
X90365499Y-95157609D02*
X90351356Y-95171751D01*
X90365499Y-95185894D01*
X90185894Y-95365499D01*
X90171751Y-95351356D01*
X89659629Y-95863478D01*
X89659629Y-95944961D01*
X85061191Y-100543400D01*
X83741292Y-100543400D01*
X83762316Y-100511935D01*
X88813235Y-95461016D01*
X88878984Y-95417084D01*
X88930555Y-95339903D01*
X88943995Y-95372351D01*
X89255517Y-95683873D01*
X89480024Y-95683873D01*
X89992146Y-95171751D01*
X89978004Y-95157609D01*
X90157609Y-94978004D01*
X90171751Y-94992146D01*
X90185894Y-94978004D01*
X90365499Y-95157609D01*
G36*
X80400770Y-84866997D02*
X80610814Y-85007345D01*
X80826335Y-85050214D01*
X80963793Y-85142061D01*
X81251200Y-85199229D01*
X81538606Y-85142061D01*
X81782258Y-84979258D01*
X81823351Y-84917758D01*
X82268609Y-84472500D01*
X82651905Y-84472500D01*
X82632824Y-84491581D01*
X82562016Y-84597552D01*
X82456048Y-84668358D01*
X82279271Y-84845135D01*
X82138923Y-85055179D01*
X82089640Y-85302944D01*
X82138923Y-85550709D01*
X82279271Y-85760753D01*
X82737162Y-86218644D01*
X82779618Y-86282175D01*
X83421200Y-86923679D01*
X83421200Y-87076248D01*
X83365891Y-87131557D01*
X83323728Y-87103385D01*
X83094052Y-87057700D01*
X83094051Y-87057700D01*
X83016500Y-87042274D01*
X82984643Y-87048611D01*
X82959337Y-86921385D01*
X82818989Y-86711341D01*
X82288659Y-86181011D01*
X82078615Y-86040663D01*
X81830850Y-85991380D01*
X81583085Y-86040663D01*
X81373041Y-86181011D01*
X80524513Y-87029539D01*
X80384165Y-87239583D01*
X80362735Y-87347322D01*
X80361038Y-87347322D01*
X80127649Y-87443995D01*
X79816127Y-87755517D01*
X79816127Y-87980024D01*
X80328249Y-88492146D01*
X80342392Y-88478004D01*
X80521997Y-88657609D01*
X80507854Y-88671751D01*
X81019976Y-89183873D01*
X81244483Y-89183873D01*
X81556005Y-88872351D01*
X81652678Y-88638962D01*
X81652678Y-88637265D01*
X81760417Y-88615835D01*
X81842660Y-88560882D01*
X81881472Y-88586815D01*
X82102811Y-88630842D01*
X82089640Y-88697056D01*
X82138923Y-88944821D01*
X82279271Y-89154865D01*
X82456048Y-89331642D01*
X82544089Y-89390469D01*
X82552306Y-89410308D01*
X82573562Y-89431564D01*
X82573561Y-89431564D01*
X82589220Y-89447223D01*
X82574139Y-89469794D01*
X82554635Y-89567850D01*
X82531400Y-89684656D01*
X82531400Y-89684660D01*
X82529290Y-89695266D01*
X82352844Y-89871712D01*
X82188500Y-90268474D01*
X82188500Y-90697926D01*
X82352844Y-91094688D01*
X82656512Y-91398356D01*
X82917900Y-91506626D01*
X82917901Y-94715000D01*
X82015750Y-94715000D01*
X81857000Y-94873750D01*
X81857000Y-96073000D01*
X81877000Y-96073000D01*
X81877000Y-96327000D01*
X81857000Y-96327000D01*
X81857000Y-96347000D01*
X81603000Y-96347000D01*
X81603000Y-96327000D01*
X80103750Y-96327000D01*
X79945000Y-96485750D01*
X79945000Y-97176310D01*
X80038984Y-97403207D01*
X79632642Y-97809549D01*
X79571142Y-97850642D01*
X79530049Y-97912142D01*
X79470583Y-98001139D01*
X79408339Y-98094294D01*
X79365600Y-98309157D01*
X79365600Y-98309160D01*
X79351171Y-98381700D01*
X79360697Y-98429593D01*
X78995717Y-98794573D01*
X78945100Y-98743956D01*
X78945100Y-95223690D01*
X79945000Y-95223690D01*
X79945000Y-95914250D01*
X80103750Y-96073000D01*
X81603000Y-96073000D01*
X81603000Y-94873750D01*
X81444250Y-94715000D01*
X80453691Y-94715000D01*
X80220302Y-94811673D01*
X80041673Y-94990301D01*
X79945000Y-95223690D01*
X78945100Y-95223690D01*
X78945100Y-89522577D01*
X79657028Y-89522577D01*
X79657028Y-89747084D01*
X79809452Y-89899508D01*
X80042841Y-89996180D01*
X80295460Y-89996180D01*
X80528849Y-89899507D01*
X80840371Y-89587985D01*
X80840371Y-89363478D01*
X80328249Y-88851356D01*
X79657028Y-89522577D01*
X78945100Y-89522577D01*
X78945100Y-88704540D01*
X79003820Y-88704540D01*
X79003820Y-88957159D01*
X79100492Y-89190548D01*
X79252916Y-89342972D01*
X79477423Y-89342972D01*
X80148644Y-88671751D01*
X79636522Y-88159629D01*
X79412015Y-88159629D01*
X79100493Y-88471151D01*
X79003820Y-88704540D01*
X78945100Y-88704540D01*
X78945100Y-83411327D01*
X80400770Y-84866997D01*
X80400770Y-84866997D01*
G37*
X80400770Y-84866997D02*
X80610814Y-85007345D01*
X80826335Y-85050214D01*
X80963793Y-85142061D01*
X81251200Y-85199229D01*
X81538606Y-85142061D01*
X81782258Y-84979258D01*
X81823351Y-84917758D01*
X82268609Y-84472500D01*
X82651905Y-84472500D01*
X82632824Y-84491581D01*
X82562016Y-84597552D01*
X82456048Y-84668358D01*
X82279271Y-84845135D01*
X82138923Y-85055179D01*
X82089640Y-85302944D01*
X82138923Y-85550709D01*
X82279271Y-85760753D01*
X82737162Y-86218644D01*
X82779618Y-86282175D01*
X83421200Y-86923679D01*
X83421200Y-87076248D01*
X83365891Y-87131557D01*
X83323728Y-87103385D01*
X83094052Y-87057700D01*
X83094051Y-87057700D01*
X83016500Y-87042274D01*
X82984643Y-87048611D01*
X82959337Y-86921385D01*
X82818989Y-86711341D01*
X82288659Y-86181011D01*
X82078615Y-86040663D01*
X81830850Y-85991380D01*
X81583085Y-86040663D01*
X81373041Y-86181011D01*
X80524513Y-87029539D01*
X80384165Y-87239583D01*
X80362735Y-87347322D01*
X80361038Y-87347322D01*
X80127649Y-87443995D01*
X79816127Y-87755517D01*
X79816127Y-87980024D01*
X80328249Y-88492146D01*
X80342392Y-88478004D01*
X80521997Y-88657609D01*
X80507854Y-88671751D01*
X81019976Y-89183873D01*
X81244483Y-89183873D01*
X81556005Y-88872351D01*
X81652678Y-88638962D01*
X81652678Y-88637265D01*
X81760417Y-88615835D01*
X81842660Y-88560882D01*
X81881472Y-88586815D01*
X82102811Y-88630842D01*
X82089640Y-88697056D01*
X82138923Y-88944821D01*
X82279271Y-89154865D01*
X82456048Y-89331642D01*
X82544089Y-89390469D01*
X82552306Y-89410308D01*
X82573562Y-89431564D01*
X82573561Y-89431564D01*
X82589220Y-89447223D01*
X82574139Y-89469794D01*
X82554635Y-89567850D01*
X82531400Y-89684656D01*
X82531400Y-89684660D01*
X82529290Y-89695266D01*
X82352844Y-89871712D01*
X82188500Y-90268474D01*
X82188500Y-90697926D01*
X82352844Y-91094688D01*
X82656512Y-91398356D01*
X82917900Y-91506626D01*
X82917901Y-94715000D01*
X82015750Y-94715000D01*
X81857000Y-94873750D01*
X81857000Y-96073000D01*
X81877000Y-96073000D01*
X81877000Y-96327000D01*
X81857000Y-96327000D01*
X81857000Y-96347000D01*
X81603000Y-96347000D01*
X81603000Y-96327000D01*
X80103750Y-96327000D01*
X79945000Y-96485750D01*
X79945000Y-97176310D01*
X80038984Y-97403207D01*
X79632642Y-97809549D01*
X79571142Y-97850642D01*
X79530049Y-97912142D01*
X79470583Y-98001139D01*
X79408339Y-98094294D01*
X79365600Y-98309157D01*
X79365600Y-98309160D01*
X79351171Y-98381700D01*
X79360697Y-98429593D01*
X78995717Y-98794573D01*
X78945100Y-98743956D01*
X78945100Y-95223690D01*
X79945000Y-95223690D01*
X79945000Y-95914250D01*
X80103750Y-96073000D01*
X81603000Y-96073000D01*
X81603000Y-94873750D01*
X81444250Y-94715000D01*
X80453691Y-94715000D01*
X80220302Y-94811673D01*
X80041673Y-94990301D01*
X79945000Y-95223690D01*
X78945100Y-95223690D01*
X78945100Y-89522577D01*
X79657028Y-89522577D01*
X79657028Y-89747084D01*
X79809452Y-89899508D01*
X80042841Y-89996180D01*
X80295460Y-89996180D01*
X80528849Y-89899507D01*
X80840371Y-89587985D01*
X80840371Y-89363478D01*
X80328249Y-88851356D01*
X79657028Y-89522577D01*
X78945100Y-89522577D01*
X78945100Y-88704540D01*
X79003820Y-88704540D01*
X79003820Y-88957159D01*
X79100492Y-89190548D01*
X79252916Y-89342972D01*
X79477423Y-89342972D01*
X80148644Y-88671751D01*
X79636522Y-88159629D01*
X79412015Y-88159629D01*
X79100493Y-88471151D01*
X79003820Y-88704540D01*
X78945100Y-88704540D01*
X78945100Y-83411327D01*
X80400770Y-84866997D01*
G36*
X100500142Y-92430558D02*
X100561639Y-92471649D01*
X100561641Y-92471651D01*
X100742187Y-92592288D01*
X100743793Y-92593361D01*
X100958656Y-92636100D01*
X100958659Y-92636100D01*
X101031200Y-92650529D01*
X101103740Y-92636100D01*
X102072000Y-92636100D01*
X102072000Y-92722000D01*
X102052000Y-92722000D01*
X102052000Y-93325250D01*
X102210750Y-93484000D01*
X102575801Y-93484000D01*
X102575800Y-94628935D01*
X102536539Y-94687693D01*
X102493800Y-94902556D01*
X102493800Y-94902560D01*
X102479371Y-94975100D01*
X102493800Y-95047640D01*
X102493800Y-95266000D01*
X102410750Y-95266000D01*
X102252000Y-95424750D01*
X102252000Y-96028000D01*
X102272000Y-96028000D01*
X102272000Y-96282000D01*
X102252000Y-96282000D01*
X102252000Y-96302000D01*
X101998000Y-96302000D01*
X101998000Y-96282000D01*
X101077250Y-96282000D01*
X100918500Y-96440750D01*
X100918500Y-96535309D01*
X100996676Y-96724041D01*
X100974763Y-96728400D01*
X100960993Y-96731139D01*
X100778841Y-96852849D01*
X100778839Y-96852851D01*
X100717342Y-96893942D01*
X100676250Y-96955440D01*
X99724356Y-97907335D01*
X99724356Y-95774691D01*
X100918500Y-95774691D01*
X100918500Y-95869250D01*
X101077250Y-96028000D01*
X101998000Y-96028000D01*
X101998000Y-95424750D01*
X101839250Y-95266000D01*
X101427190Y-95266000D01*
X101193801Y-95362673D01*
X101015173Y-95541302D01*
X100918500Y-95774691D01*
X99724356Y-95774691D01*
X99724357Y-93953400D01*
X100182483Y-93495274D01*
X100248230Y-93451344D01*
X100422261Y-93190888D01*
X100467946Y-92961212D01*
X100467946Y-92961211D01*
X100483372Y-92883660D01*
X100482794Y-92880750D01*
X100718500Y-92880750D01*
X100718500Y-92975309D01*
X100815173Y-93208698D01*
X100993801Y-93387327D01*
X101227190Y-93484000D01*
X101639250Y-93484000D01*
X101798000Y-93325250D01*
X101798000Y-92722000D01*
X100877250Y-92722000D01*
X100718500Y-92880750D01*
X100482794Y-92880750D01*
X100467946Y-92806109D01*
X100467946Y-92382373D01*
X100500142Y-92430558D01*
X100500142Y-92430558D01*
G37*
X100500142Y-92430558D02*
X100561639Y-92471649D01*
X100561641Y-92471651D01*
X100742187Y-92592288D01*
X100743793Y-92593361D01*
X100958656Y-92636100D01*
X100958659Y-92636100D01*
X101031200Y-92650529D01*
X101103740Y-92636100D01*
X102072000Y-92636100D01*
X102072000Y-92722000D01*
X102052000Y-92722000D01*
X102052000Y-93325250D01*
X102210750Y-93484000D01*
X102575801Y-93484000D01*
X102575800Y-94628935D01*
X102536539Y-94687693D01*
X102493800Y-94902556D01*
X102493800Y-94902560D01*
X102479371Y-94975100D01*
X102493800Y-95047640D01*
X102493800Y-95266000D01*
X102410750Y-95266000D01*
X102252000Y-95424750D01*
X102252000Y-96028000D01*
X102272000Y-96028000D01*
X102272000Y-96282000D01*
X102252000Y-96282000D01*
X102252000Y-96302000D01*
X101998000Y-96302000D01*
X101998000Y-96282000D01*
X101077250Y-96282000D01*
X100918500Y-96440750D01*
X100918500Y-96535309D01*
X100996676Y-96724041D01*
X100974763Y-96728400D01*
X100960993Y-96731139D01*
X100778841Y-96852849D01*
X100778839Y-96852851D01*
X100717342Y-96893942D01*
X100676250Y-96955440D01*
X99724356Y-97907335D01*
X99724356Y-95774691D01*
X100918500Y-95774691D01*
X100918500Y-95869250D01*
X101077250Y-96028000D01*
X101998000Y-96028000D01*
X101998000Y-95424750D01*
X101839250Y-95266000D01*
X101427190Y-95266000D01*
X101193801Y-95362673D01*
X101015173Y-95541302D01*
X100918500Y-95774691D01*
X99724356Y-95774691D01*
X99724357Y-93953400D01*
X100182483Y-93495274D01*
X100248230Y-93451344D01*
X100422261Y-93190888D01*
X100467946Y-92961212D01*
X100467946Y-92961211D01*
X100483372Y-92883660D01*
X100482794Y-92880750D01*
X100718500Y-92880750D01*
X100718500Y-92975309D01*
X100815173Y-93208698D01*
X100993801Y-93387327D01*
X101227190Y-93484000D01*
X101639250Y-93484000D01*
X101798000Y-93325250D01*
X101798000Y-92722000D01*
X100877250Y-92722000D01*
X100718500Y-92880750D01*
X100482794Y-92880750D01*
X100467946Y-92806109D01*
X100467946Y-92382373D01*
X100500142Y-92430558D01*
G36*
X117877002Y-95898748D02*
X117877002Y-95797440D01*
X117978310Y-95797440D01*
X117877002Y-95898748D01*
X117877002Y-95898748D01*
G37*
X117877002Y-95898748D02*
X117877002Y-95797440D01*
X117978310Y-95797440D01*
X117877002Y-95898748D01*
G36*
X117622998Y-95898748D02*
X117521690Y-95797440D01*
X117622998Y-95797440D01*
X117622998Y-95898748D01*
X117622998Y-95898748D01*
G37*
X117622998Y-95898748D02*
X117521690Y-95797440D01*
X117622998Y-95797440D01*
X117622998Y-95898748D01*
G36*
X90683873Y-94480021D02*
X90683873Y-94461758D01*
X90715050Y-94448844D01*
X90683873Y-94480021D01*
X90683873Y-94480021D01*
G37*
X90683873Y-94480021D02*
X90683873Y-94461758D01*
X90715050Y-94448844D01*
X90683873Y-94480021D01*
G36*
X90829800Y-94401444D02*
X90829707Y-94401351D01*
X90829800Y-94401313D01*
X90829800Y-94401444D01*
X90829800Y-94401444D01*
G37*
X90829800Y-94401444D02*
X90829707Y-94401351D01*
X90829800Y-94401313D01*
X90829800Y-94401444D01*
G36*
X117722998Y-93202560D02*
X117646690Y-93202560D01*
X117722998Y-93126252D01*
X117722998Y-93202560D01*
X117722998Y-93202560D01*
G37*
X117722998Y-93202560D02*
X117646690Y-93202560D01*
X117722998Y-93126252D01*
X117722998Y-93202560D01*
G36*
X118053310Y-93202560D02*
X117977002Y-93202560D01*
X117977002Y-93126252D01*
X118053310Y-93202560D01*
X118053310Y-93202560D01*
G37*
X118053310Y-93202560D02*
X117977002Y-93202560D01*
X117977002Y-93126252D01*
X118053310Y-93202560D01*
G36*
X117977000Y-91873000D02*
X117997000Y-91873000D01*
X117997000Y-92127000D01*
X117977000Y-92127000D01*
X117977000Y-92147000D01*
X117723000Y-92147000D01*
X117723000Y-92127000D01*
X117703000Y-92127000D01*
X117703000Y-91873000D01*
X117723000Y-91873000D01*
X117723000Y-91853000D01*
X117977000Y-91853000D01*
X117977000Y-91873000D01*
X117977000Y-91873000D01*
G37*
X117977000Y-91873000D02*
X117997000Y-91873000D01*
X117997000Y-92127000D01*
X117977000Y-92127000D01*
X117977000Y-92147000D01*
X117723000Y-92147000D01*
X117723000Y-92127000D01*
X117703000Y-92127000D01*
X117703000Y-91873000D01*
X117723000Y-91873000D01*
X117723000Y-91853000D01*
X117977000Y-91853000D01*
X117977000Y-91873000D01*
G36*
X120860201Y-80689244D02*
X120860200Y-84107441D01*
X120841789Y-84200000D01*
X120914728Y-84566691D01*
X121122443Y-84877557D01*
X121433309Y-85085272D01*
X121629804Y-85124357D01*
X121800000Y-85158211D01*
X121892559Y-85139800D01*
X124750723Y-85139800D01*
X125373077Y-85762154D01*
X125306800Y-85748971D01*
X125234260Y-85763400D01*
X123040044Y-85763400D01*
X122861488Y-85584844D01*
X122464726Y-85420500D01*
X122035274Y-85420500D01*
X121638512Y-85584844D01*
X121334844Y-85888512D01*
X121170500Y-86285274D01*
X121170500Y-86714726D01*
X121334844Y-87111488D01*
X121638512Y-87415156D01*
X122002560Y-87565949D01*
X122002560Y-90927751D01*
X120635951Y-89561142D01*
X120594858Y-89499642D01*
X120351207Y-89336839D01*
X120274300Y-89321541D01*
X120274300Y-89013140D01*
X120288729Y-88940599D01*
X120274300Y-88868059D01*
X120274300Y-88868056D01*
X120231561Y-88653193D01*
X120191208Y-88592801D01*
X120109851Y-88471041D01*
X120109849Y-88471039D01*
X120068758Y-88409542D01*
X120007260Y-88368450D01*
X119568449Y-87929640D01*
X119623157Y-87847765D01*
X119672440Y-87600000D01*
X119672440Y-86400000D01*
X119623157Y-86152235D01*
X119482809Y-85942191D01*
X119272765Y-85801843D01*
X119025000Y-85752560D01*
X118848838Y-85752560D01*
X118847765Y-85751843D01*
X118819791Y-85746279D01*
X118959698Y-85688327D01*
X119138327Y-85509699D01*
X119235000Y-85276310D01*
X119235000Y-84785750D01*
X119076250Y-84627000D01*
X117977000Y-84627000D01*
X117977000Y-84647000D01*
X117723000Y-84647000D01*
X117723000Y-84627000D01*
X117703000Y-84627000D01*
X117703000Y-84373000D01*
X117723000Y-84373000D01*
X117723000Y-83373750D01*
X117564250Y-83215000D01*
X117534250Y-83215000D01*
X117623000Y-83126250D01*
X117623000Y-82127000D01*
X117877000Y-82127000D01*
X117877000Y-83126250D01*
X118035750Y-83285000D01*
X118065750Y-83285000D01*
X117977000Y-83373750D01*
X117977000Y-84373000D01*
X119076250Y-84373000D01*
X119235000Y-84214250D01*
X119235000Y-83723690D01*
X119138327Y-83490301D01*
X118959698Y-83311673D01*
X118760806Y-83229289D01*
X118859698Y-83188327D01*
X119038327Y-83009699D01*
X119135000Y-82776310D01*
X119135000Y-82285750D01*
X118976250Y-82127000D01*
X117877000Y-82127000D01*
X117623000Y-82127000D01*
X117603000Y-82127000D01*
X117603000Y-81873000D01*
X117623000Y-81873000D01*
X117623000Y-81853000D01*
X117877000Y-81853000D01*
X117877000Y-81873000D01*
X118976250Y-81873000D01*
X119135000Y-81714250D01*
X119135000Y-81223690D01*
X119038327Y-80990301D01*
X118966707Y-80918682D01*
X119057809Y-80857809D01*
X119198157Y-80647765D01*
X119247440Y-80400000D01*
X119247440Y-79100000D01*
X119241549Y-79070386D01*
X120860201Y-80689244D01*
X120860201Y-80689244D01*
G37*
X120860201Y-80689244D02*
X120860200Y-84107441D01*
X120841789Y-84200000D01*
X120914728Y-84566691D01*
X121122443Y-84877557D01*
X121433309Y-85085272D01*
X121629804Y-85124357D01*
X121800000Y-85158211D01*
X121892559Y-85139800D01*
X124750723Y-85139800D01*
X125373077Y-85762154D01*
X125306800Y-85748971D01*
X125234260Y-85763400D01*
X123040044Y-85763400D01*
X122861488Y-85584844D01*
X122464726Y-85420500D01*
X122035274Y-85420500D01*
X121638512Y-85584844D01*
X121334844Y-85888512D01*
X121170500Y-86285274D01*
X121170500Y-86714726D01*
X121334844Y-87111488D01*
X121638512Y-87415156D01*
X122002560Y-87565949D01*
X122002560Y-90927751D01*
X120635951Y-89561142D01*
X120594858Y-89499642D01*
X120351207Y-89336839D01*
X120274300Y-89321541D01*
X120274300Y-89013140D01*
X120288729Y-88940599D01*
X120274300Y-88868059D01*
X120274300Y-88868056D01*
X120231561Y-88653193D01*
X120191208Y-88592801D01*
X120109851Y-88471041D01*
X120109849Y-88471039D01*
X120068758Y-88409542D01*
X120007260Y-88368450D01*
X119568449Y-87929640D01*
X119623157Y-87847765D01*
X119672440Y-87600000D01*
X119672440Y-86400000D01*
X119623157Y-86152235D01*
X119482809Y-85942191D01*
X119272765Y-85801843D01*
X119025000Y-85752560D01*
X118848838Y-85752560D01*
X118847765Y-85751843D01*
X118819791Y-85746279D01*
X118959698Y-85688327D01*
X119138327Y-85509699D01*
X119235000Y-85276310D01*
X119235000Y-84785750D01*
X119076250Y-84627000D01*
X117977000Y-84627000D01*
X117977000Y-84647000D01*
X117723000Y-84647000D01*
X117723000Y-84627000D01*
X117703000Y-84627000D01*
X117703000Y-84373000D01*
X117723000Y-84373000D01*
X117723000Y-83373750D01*
X117564250Y-83215000D01*
X117534250Y-83215000D01*
X117623000Y-83126250D01*
X117623000Y-82127000D01*
X117877000Y-82127000D01*
X117877000Y-83126250D01*
X118035750Y-83285000D01*
X118065750Y-83285000D01*
X117977000Y-83373750D01*
X117977000Y-84373000D01*
X119076250Y-84373000D01*
X119235000Y-84214250D01*
X119235000Y-83723690D01*
X119138327Y-83490301D01*
X118959698Y-83311673D01*
X118760806Y-83229289D01*
X118859698Y-83188327D01*
X119038327Y-83009699D01*
X119135000Y-82776310D01*
X119135000Y-82285750D01*
X118976250Y-82127000D01*
X117877000Y-82127000D01*
X117623000Y-82127000D01*
X117603000Y-82127000D01*
X117603000Y-81873000D01*
X117623000Y-81873000D01*
X117623000Y-81853000D01*
X117877000Y-81853000D01*
X117877000Y-81873000D01*
X118976250Y-81873000D01*
X119135000Y-81714250D01*
X119135000Y-81223690D01*
X119038327Y-80990301D01*
X118966707Y-80918682D01*
X119057809Y-80857809D01*
X119198157Y-80647765D01*
X119247440Y-80400000D01*
X119247440Y-79100000D01*
X119241549Y-79070386D01*
X120860201Y-80689244D01*
G36*
X82589221Y-89447224D02*
X82589220Y-89447223D01*
X82589221Y-89447223D01*
X82589221Y-89447224D01*
X82589221Y-89447224D01*
G37*
X82589221Y-89447224D02*
X82589220Y-89447223D01*
X82589221Y-89447223D01*
X82589221Y-89447224D01*
G36*
X82589221Y-89447223D02*
X82573562Y-89431564D01*
X82599683Y-89431564D01*
X82589221Y-89447223D01*
X82589221Y-89447223D01*
G37*
X82589221Y-89447223D02*
X82573562Y-89431564D01*
X82599683Y-89431564D01*
X82589221Y-89447223D01*
G36*
X89388512Y-88665156D02*
X89785274Y-88829500D01*
X89907190Y-88829500D01*
X89599691Y-89137000D01*
X89347174Y-89137000D01*
X89225400Y-89187440D01*
X89225400Y-88740451D01*
X89240826Y-88662900D01*
X89224493Y-88580788D01*
X89204716Y-88481360D01*
X89388512Y-88665156D01*
X89388512Y-88665156D01*
G37*
X89388512Y-88665156D02*
X89785274Y-88829500D01*
X89907190Y-88829500D01*
X89599691Y-89137000D01*
X89347174Y-89137000D01*
X89225400Y-89187440D01*
X89225400Y-88740451D01*
X89240826Y-88662900D01*
X89224493Y-88580788D01*
X89204716Y-88481360D01*
X89388512Y-88665156D01*
G36*
X88415544Y-84164888D02*
X88719212Y-84468556D01*
X89115974Y-84632900D01*
X89545426Y-84632900D01*
X89942188Y-84468556D01*
X90096181Y-84314564D01*
X90198867Y-84417250D01*
X90304836Y-84488057D01*
X90308827Y-84494029D01*
X90112744Y-84690112D01*
X89948400Y-85086874D01*
X89948400Y-85516326D01*
X90112744Y-85913088D01*
X90416412Y-86216756D01*
X90434178Y-86224115D01*
X89987793Y-86670500D01*
X89785274Y-86670500D01*
X89388512Y-86834844D01*
X89084844Y-87138512D01*
X88920500Y-87535274D01*
X88920500Y-87964726D01*
X88962636Y-88066453D01*
X88939938Y-88051286D01*
X87488930Y-86600279D01*
X87569123Y-86480261D01*
X87629415Y-86390029D01*
X87690526Y-86082800D01*
X87675100Y-86005247D01*
X87675100Y-84210700D01*
X87847860Y-84210700D01*
X87920400Y-84225129D01*
X87992940Y-84210700D01*
X87992944Y-84210700D01*
X88207807Y-84167961D01*
X88371509Y-84058578D01*
X88415544Y-84164888D01*
X88415544Y-84164888D01*
G37*
X88415544Y-84164888D02*
X88719212Y-84468556D01*
X89115974Y-84632900D01*
X89545426Y-84632900D01*
X89942188Y-84468556D01*
X90096181Y-84314564D01*
X90198867Y-84417250D01*
X90304836Y-84488057D01*
X90308827Y-84494029D01*
X90112744Y-84690112D01*
X89948400Y-85086874D01*
X89948400Y-85516326D01*
X90112744Y-85913088D01*
X90416412Y-86216756D01*
X90434178Y-86224115D01*
X89987793Y-86670500D01*
X89785274Y-86670500D01*
X89388512Y-86834844D01*
X89084844Y-87138512D01*
X88920500Y-87535274D01*
X88920500Y-87964726D01*
X88962636Y-88066453D01*
X88939938Y-88051286D01*
X87488930Y-86600279D01*
X87569123Y-86480261D01*
X87629415Y-86390029D01*
X87690526Y-86082800D01*
X87675100Y-86005247D01*
X87675100Y-84210700D01*
X87847860Y-84210700D01*
X87920400Y-84225129D01*
X87992940Y-84210700D01*
X87992944Y-84210700D01*
X88207807Y-84167961D01*
X88371509Y-84058578D01*
X88415544Y-84164888D01*
G36*
X96865499Y-85314107D02*
X96851356Y-85328249D01*
X96865499Y-85342392D01*
X96685894Y-85521997D01*
X96671751Y-85507854D01*
X96657609Y-85521997D01*
X96478004Y-85342392D01*
X96492146Y-85328249D01*
X96478004Y-85314107D01*
X96657609Y-85134502D01*
X96671751Y-85148644D01*
X96685894Y-85134502D01*
X96865499Y-85314107D01*
X96865499Y-85314107D01*
G37*
X96865499Y-85314107D02*
X96851356Y-85328249D01*
X96865499Y-85342392D01*
X96685894Y-85521997D01*
X96671751Y-85507854D01*
X96657609Y-85521997D01*
X96478004Y-85342392D01*
X96492146Y-85328249D01*
X96478004Y-85314107D01*
X96657609Y-85134502D01*
X96671751Y-85148644D01*
X96685894Y-85134502D01*
X96865499Y-85314107D01*
G36*
X129174500Y-75030268D02*
X129174500Y-82005000D01*
X129015750Y-82005000D01*
X128857000Y-82163750D01*
X128857000Y-83363000D01*
X128877000Y-83363000D01*
X128877000Y-83617000D01*
X128857000Y-83617000D01*
X128857000Y-83637000D01*
X128603000Y-83637000D01*
X128603000Y-83617000D01*
X127103750Y-83617000D01*
X126945000Y-83775750D01*
X126945000Y-84466310D01*
X127041673Y-84699699D01*
X127220302Y-84878327D01*
X127381033Y-84944904D01*
X127359375Y-84959375D01*
X127306935Y-85037857D01*
X125985000Y-83715923D01*
X125985000Y-82513690D01*
X126945000Y-82513690D01*
X126945000Y-83204250D01*
X127103750Y-83363000D01*
X128603000Y-83363000D01*
X128603000Y-82163750D01*
X128444250Y-82005000D01*
X127453691Y-82005000D01*
X127220302Y-82101673D01*
X127041673Y-82280301D01*
X126945000Y-82513690D01*
X125985000Y-82513690D01*
X125985000Y-82010750D01*
X125826250Y-81852000D01*
X124127000Y-81852000D01*
X124127000Y-81872000D01*
X123873000Y-81872000D01*
X123873000Y-81852000D01*
X123853000Y-81852000D01*
X123853000Y-81598000D01*
X123873000Y-81598000D01*
X123873000Y-79373750D01*
X124127000Y-79373750D01*
X124127000Y-81598000D01*
X125826250Y-81598000D01*
X125985000Y-81439250D01*
X125985000Y-79723691D01*
X125888327Y-79490302D01*
X125709699Y-79311673D01*
X125476310Y-79215000D01*
X124285750Y-79215000D01*
X124127000Y-79373750D01*
X123873000Y-79373750D01*
X123714250Y-79215000D01*
X122523690Y-79215000D01*
X122290301Y-79311673D01*
X122215542Y-79386432D01*
X120228005Y-77398642D01*
X120338474Y-77444400D01*
X120767926Y-77444400D01*
X121164688Y-77280056D01*
X121379685Y-77065059D01*
X121494517Y-77342289D01*
X122657711Y-78505483D01*
X124177497Y-79135000D01*
X125822503Y-79135000D01*
X127342289Y-78505483D01*
X128505483Y-77342289D01*
X129135000Y-75822503D01*
X129135000Y-74492377D01*
X129174500Y-75030268D01*
X129174500Y-75030268D01*
G37*
X129174500Y-75030268D02*
X129174500Y-82005000D01*
X129015750Y-82005000D01*
X128857000Y-82163750D01*
X128857000Y-83363000D01*
X128877000Y-83363000D01*
X128877000Y-83617000D01*
X128857000Y-83617000D01*
X128857000Y-83637000D01*
X128603000Y-83637000D01*
X128603000Y-83617000D01*
X127103750Y-83617000D01*
X126945000Y-83775750D01*
X126945000Y-84466310D01*
X127041673Y-84699699D01*
X127220302Y-84878327D01*
X127381033Y-84944904D01*
X127359375Y-84959375D01*
X127306935Y-85037857D01*
X125985000Y-83715923D01*
X125985000Y-82513690D01*
X126945000Y-82513690D01*
X126945000Y-83204250D01*
X127103750Y-83363000D01*
X128603000Y-83363000D01*
X128603000Y-82163750D01*
X128444250Y-82005000D01*
X127453691Y-82005000D01*
X127220302Y-82101673D01*
X127041673Y-82280301D01*
X126945000Y-82513690D01*
X125985000Y-82513690D01*
X125985000Y-82010750D01*
X125826250Y-81852000D01*
X124127000Y-81852000D01*
X124127000Y-81872000D01*
X123873000Y-81872000D01*
X123873000Y-81852000D01*
X123853000Y-81852000D01*
X123853000Y-81598000D01*
X123873000Y-81598000D01*
X123873000Y-79373750D01*
X124127000Y-79373750D01*
X124127000Y-81598000D01*
X125826250Y-81598000D01*
X125985000Y-81439250D01*
X125985000Y-79723691D01*
X125888327Y-79490302D01*
X125709699Y-79311673D01*
X125476310Y-79215000D01*
X124285750Y-79215000D01*
X124127000Y-79373750D01*
X123873000Y-79373750D01*
X123714250Y-79215000D01*
X122523690Y-79215000D01*
X122290301Y-79311673D01*
X122215542Y-79386432D01*
X120228005Y-77398642D01*
X120338474Y-77444400D01*
X120767926Y-77444400D01*
X121164688Y-77280056D01*
X121379685Y-77065059D01*
X121494517Y-77342289D01*
X122657711Y-78505483D01*
X124177497Y-79135000D01*
X125822503Y-79135000D01*
X127342289Y-78505483D01*
X128505483Y-77342289D01*
X129135000Y-75822503D01*
X129135000Y-74492377D01*
X129174500Y-75030268D01*
G36*
X82005000Y-70984250D02*
X82163750Y-71143000D01*
X83363000Y-71143000D01*
X83363000Y-71123000D01*
X83617000Y-71123000D01*
X83617000Y-71143000D01*
X83637000Y-71143000D01*
X83637000Y-71397000D01*
X83617000Y-71397000D01*
X83617000Y-71417000D01*
X83363000Y-71417000D01*
X83363000Y-71397000D01*
X82163750Y-71397000D01*
X82005000Y-71555750D01*
X82005000Y-72546309D01*
X82094981Y-72763542D01*
X82070014Y-72800908D01*
X80300910Y-74570012D01*
X80222443Y-74622443D01*
X80170013Y-74700910D01*
X80170012Y-74700911D01*
X80015641Y-74931944D01*
X80014728Y-74933310D01*
X79960200Y-75207442D01*
X79960200Y-75207446D01*
X79941790Y-75300000D01*
X79960200Y-75392555D01*
X79960201Y-76451631D01*
X77358252Y-79053671D01*
X77051671Y-79360200D01*
X74492554Y-79360200D01*
X74400000Y-79341790D01*
X74307446Y-79360200D01*
X74307441Y-79360200D01*
X74033309Y-79414728D01*
X74033308Y-79414729D01*
X74033307Y-79414729D01*
X73800910Y-79570012D01*
X73800908Y-79570014D01*
X73722443Y-79622443D01*
X73670014Y-79700908D01*
X72700910Y-80670013D01*
X72622443Y-80722443D01*
X72570013Y-80800910D01*
X72570012Y-80800911D01*
X72416914Y-81030039D01*
X72414728Y-81033310D01*
X72360200Y-81307442D01*
X72360200Y-81307446D01*
X72341790Y-81400000D01*
X72360200Y-81492554D01*
X72360200Y-82005000D01*
X71555750Y-82005000D01*
X71397000Y-82163750D01*
X71397000Y-83363000D01*
X71417000Y-83363000D01*
X71417000Y-83617000D01*
X71397000Y-83617000D01*
X71397000Y-83637000D01*
X71143000Y-83637000D01*
X71143000Y-83617000D01*
X71123000Y-83617000D01*
X71123000Y-83363000D01*
X71143000Y-83363000D01*
X71143000Y-82163750D01*
X70984250Y-82005000D01*
X70825500Y-82005000D01*
X70825500Y-75036765D01*
X70865000Y-74594177D01*
X70865000Y-75822503D01*
X71494517Y-77342289D01*
X72657711Y-78505483D01*
X74177497Y-79135000D01*
X75822503Y-79135000D01*
X77342289Y-78505483D01*
X78505483Y-77342289D01*
X79135000Y-75822503D01*
X79135000Y-74177497D01*
X78505483Y-72657711D01*
X77342289Y-71494517D01*
X75822503Y-70865000D01*
X74492377Y-70865000D01*
X75030268Y-70825500D01*
X82005000Y-70825500D01*
X82005000Y-70984250D01*
X82005000Y-70984250D01*
G37*
X82005000Y-70984250D02*
X82163750Y-71143000D01*
X83363000Y-71143000D01*
X83363000Y-71123000D01*
X83617000Y-71123000D01*
X83617000Y-71143000D01*
X83637000Y-71143000D01*
X83637000Y-71397000D01*
X83617000Y-71397000D01*
X83617000Y-71417000D01*
X83363000Y-71417000D01*
X83363000Y-71397000D01*
X82163750Y-71397000D01*
X82005000Y-71555750D01*
X82005000Y-72546309D01*
X82094981Y-72763542D01*
X82070014Y-72800908D01*
X80300910Y-74570012D01*
X80222443Y-74622443D01*
X80170013Y-74700910D01*
X80170012Y-74700911D01*
X80015641Y-74931944D01*
X80014728Y-74933310D01*
X79960200Y-75207442D01*
X79960200Y-75207446D01*
X79941790Y-75300000D01*
X79960200Y-75392555D01*
X79960201Y-76451631D01*
X77358252Y-79053671D01*
X77051671Y-79360200D01*
X74492554Y-79360200D01*
X74400000Y-79341790D01*
X74307446Y-79360200D01*
X74307441Y-79360200D01*
X74033309Y-79414728D01*
X74033308Y-79414729D01*
X74033307Y-79414729D01*
X73800910Y-79570012D01*
X73800908Y-79570014D01*
X73722443Y-79622443D01*
X73670014Y-79700908D01*
X72700910Y-80670013D01*
X72622443Y-80722443D01*
X72570013Y-80800910D01*
X72570012Y-80800911D01*
X72416914Y-81030039D01*
X72414728Y-81033310D01*
X72360200Y-81307442D01*
X72360200Y-81307446D01*
X72341790Y-81400000D01*
X72360200Y-81492554D01*
X72360200Y-82005000D01*
X71555750Y-82005000D01*
X71397000Y-82163750D01*
X71397000Y-83363000D01*
X71417000Y-83363000D01*
X71417000Y-83617000D01*
X71397000Y-83617000D01*
X71397000Y-83637000D01*
X71143000Y-83637000D01*
X71143000Y-83617000D01*
X71123000Y-83617000D01*
X71123000Y-83363000D01*
X71143000Y-83363000D01*
X71143000Y-82163750D01*
X70984250Y-82005000D01*
X70825500Y-82005000D01*
X70825500Y-75036765D01*
X70865000Y-74594177D01*
X70865000Y-75822503D01*
X71494517Y-77342289D01*
X72657711Y-78505483D01*
X74177497Y-79135000D01*
X75822503Y-79135000D01*
X77342289Y-78505483D01*
X78505483Y-77342289D01*
X79135000Y-75822503D01*
X79135000Y-74177497D01*
X78505483Y-72657711D01*
X77342289Y-71494517D01*
X75822503Y-70865000D01*
X74492377Y-70865000D01*
X75030268Y-70825500D01*
X82005000Y-70825500D01*
X82005000Y-70984250D01*
G36*
X81193748Y-82485858D02*
X81178191Y-82501414D01*
X81192333Y-82515557D01*
X81015557Y-82692334D01*
X81001414Y-82678191D01*
X80985858Y-82693748D01*
X80806253Y-82514143D01*
X80821809Y-82498586D01*
X80807667Y-82484443D01*
X80984443Y-82307667D01*
X80998586Y-82321809D01*
X81014143Y-82306253D01*
X81193748Y-82485858D01*
X81193748Y-82485858D01*
G37*
X81193748Y-82485858D02*
X81178191Y-82501414D01*
X81192333Y-82515557D01*
X81015557Y-82692334D01*
X81001414Y-82678191D01*
X80985858Y-82693748D01*
X80806253Y-82514143D01*
X80821809Y-82498586D01*
X80807667Y-82484443D01*
X80984443Y-82307667D01*
X80998586Y-82321809D01*
X81014143Y-82306253D01*
X81193748Y-82485858D01*
G36*
X84884165Y-79739583D02*
X84862735Y-79847322D01*
X84861038Y-79847322D01*
X84627649Y-79943995D01*
X84316127Y-80255517D01*
X84316127Y-80480024D01*
X84828249Y-80992146D01*
X84842392Y-80978004D01*
X84957672Y-81093284D01*
X84939591Y-81184186D01*
X84918706Y-81289184D01*
X84842392Y-81365499D01*
X84828249Y-81351356D01*
X84814107Y-81365499D01*
X84634502Y-81185894D01*
X84648644Y-81171751D01*
X84136522Y-80659629D01*
X83912015Y-80659629D01*
X83733477Y-80838167D01*
X83382709Y-80487400D01*
X83536860Y-80487400D01*
X83609400Y-80501829D01*
X83681940Y-80487400D01*
X83681944Y-80487400D01*
X83896807Y-80444661D01*
X84140458Y-80281858D01*
X84181551Y-80220358D01*
X84865010Y-79536900D01*
X85019594Y-79536900D01*
X84884165Y-79739583D01*
X84884165Y-79739583D01*
G37*
X84884165Y-79739583D02*
X84862735Y-79847322D01*
X84861038Y-79847322D01*
X84627649Y-79943995D01*
X84316127Y-80255517D01*
X84316127Y-80480024D01*
X84828249Y-80992146D01*
X84842392Y-80978004D01*
X84957672Y-81093284D01*
X84939591Y-81184186D01*
X84918706Y-81289184D01*
X84842392Y-81365499D01*
X84828249Y-81351356D01*
X84814107Y-81365499D01*
X84634502Y-81185894D01*
X84648644Y-81171751D01*
X84136522Y-80659629D01*
X83912015Y-80659629D01*
X83733477Y-80838167D01*
X83382709Y-80487400D01*
X83536860Y-80487400D01*
X83609400Y-80501829D01*
X83681940Y-80487400D01*
X83681944Y-80487400D01*
X83896807Y-80444661D01*
X84140458Y-80281858D01*
X84181551Y-80220358D01*
X84865010Y-79536900D01*
X85019594Y-79536900D01*
X84884165Y-79739583D01*
G36*
X116637000Y-71143000D02*
X116657000Y-71143000D01*
X116657000Y-71397000D01*
X116637000Y-71397000D01*
X116637000Y-72896250D01*
X116795750Y-73055000D01*
X117486310Y-73055000D01*
X117719699Y-72958327D01*
X117895085Y-72782940D01*
X118140274Y-72884500D01*
X118569726Y-72884500D01*
X118836257Y-72774099D01*
X118892191Y-72857809D01*
X119102235Y-72998157D01*
X119111500Y-73000000D01*
X119102235Y-73001843D01*
X118892191Y-73142191D01*
X118751843Y-73352235D01*
X118702560Y-73600000D01*
X118702560Y-75100000D01*
X118751843Y-75347765D01*
X118892191Y-75557809D01*
X119102235Y-75698157D01*
X119251259Y-75727799D01*
X119258286Y-75763128D01*
X119432317Y-76023584D01*
X119498063Y-76067514D01*
X119505046Y-76074497D01*
X119473700Y-76150174D01*
X119473700Y-76579626D01*
X119519394Y-76689942D01*
X119394005Y-76564537D01*
X119341557Y-76486043D01*
X119182507Y-76379769D01*
X119030748Y-76278352D01*
X119030718Y-76278346D01*
X119030691Y-76278328D01*
X118835241Y-76239451D01*
X118664061Y-76205390D01*
X118571477Y-76223800D01*
X117953278Y-76223800D01*
X114909800Y-73180323D01*
X114909800Y-72728039D01*
X115040625Y-72640625D01*
X115055096Y-72618967D01*
X115121673Y-72779698D01*
X115300301Y-72958327D01*
X115533690Y-73055000D01*
X116224250Y-73055000D01*
X116383000Y-72896250D01*
X116383000Y-71397000D01*
X116363000Y-71397000D01*
X116363000Y-71143000D01*
X116383000Y-71143000D01*
X116383000Y-71123000D01*
X116637000Y-71123000D01*
X116637000Y-71143000D01*
X116637000Y-71143000D01*
G37*
X116637000Y-71143000D02*
X116657000Y-71143000D01*
X116657000Y-71397000D01*
X116637000Y-71397000D01*
X116637000Y-72896250D01*
X116795750Y-73055000D01*
X117486310Y-73055000D01*
X117719699Y-72958327D01*
X117895085Y-72782940D01*
X118140274Y-72884500D01*
X118569726Y-72884500D01*
X118836257Y-72774099D01*
X118892191Y-72857809D01*
X119102235Y-72998157D01*
X119111500Y-73000000D01*
X119102235Y-73001843D01*
X118892191Y-73142191D01*
X118751843Y-73352235D01*
X118702560Y-73600000D01*
X118702560Y-75100000D01*
X118751843Y-75347765D01*
X118892191Y-75557809D01*
X119102235Y-75698157D01*
X119251259Y-75727799D01*
X119258286Y-75763128D01*
X119432317Y-76023584D01*
X119498063Y-76067514D01*
X119505046Y-76074497D01*
X119473700Y-76150174D01*
X119473700Y-76579626D01*
X119519394Y-76689942D01*
X119394005Y-76564537D01*
X119341557Y-76486043D01*
X119182507Y-76379769D01*
X119030748Y-76278352D01*
X119030718Y-76278346D01*
X119030691Y-76278328D01*
X118835241Y-76239451D01*
X118664061Y-76205390D01*
X118571477Y-76223800D01*
X117953278Y-76223800D01*
X114909800Y-73180323D01*
X114909800Y-72728039D01*
X115040625Y-72640625D01*
X115055096Y-72618967D01*
X115121673Y-72779698D01*
X115300301Y-72958327D01*
X115533690Y-73055000D01*
X116224250Y-73055000D01*
X116383000Y-72896250D01*
X116383000Y-71397000D01*
X116363000Y-71397000D01*
X116363000Y-71143000D01*
X116383000Y-71143000D01*
X116383000Y-71123000D01*
X116637000Y-71123000D01*
X116637000Y-71143000D01*
G36*
X100535397Y-71580182D02*
X100230182Y-71885397D01*
X100065000Y-72284180D01*
X100065000Y-72715820D01*
X100230182Y-73114603D01*
X100370199Y-73254620D01*
X100326059Y-73263400D01*
X100326056Y-73263400D01*
X100111746Y-73306029D01*
X100111193Y-73306139D01*
X99929041Y-73427849D01*
X99929039Y-73427851D01*
X99867542Y-73468942D01*
X99826450Y-73530440D01*
X99103070Y-74253820D01*
X98976250Y-74127000D01*
X98027000Y-74127000D01*
X98027000Y-74147000D01*
X97773000Y-74147000D01*
X97773000Y-74127000D01*
X96823750Y-74127000D01*
X96665000Y-74285750D01*
X96665000Y-74497000D01*
X93732640Y-74497000D01*
X93660100Y-74482571D01*
X93587559Y-74497000D01*
X93587556Y-74497000D01*
X93372693Y-74539739D01*
X93190541Y-74661449D01*
X93190539Y-74661451D01*
X93129042Y-74702542D01*
X93087950Y-74764040D01*
X92106983Y-75745008D01*
X91655081Y-75443056D01*
X91110000Y-75334632D01*
X90881657Y-75380053D01*
X93255991Y-73005719D01*
X93650000Y-73084092D01*
X94229417Y-72968839D01*
X94720625Y-72640625D01*
X94752560Y-72592831D01*
X94752560Y-72700000D01*
X94801843Y-72947765D01*
X94942191Y-73157809D01*
X95152235Y-73298157D01*
X95400000Y-73347440D01*
X96600000Y-73347440D01*
X96665000Y-73334511D01*
X96665000Y-73714250D01*
X96823750Y-73873000D01*
X97773000Y-73873000D01*
X97773000Y-73853000D01*
X98027000Y-73853000D01*
X98027000Y-73873000D01*
X98976250Y-73873000D01*
X99135000Y-73714250D01*
X99135000Y-73556345D01*
X99464603Y-73419818D01*
X99769818Y-73114603D01*
X99935000Y-72715820D01*
X99935000Y-72284180D01*
X99769818Y-71885397D01*
X99464603Y-71580182D01*
X99453300Y-71575500D01*
X100546700Y-71575500D01*
X100535397Y-71580182D01*
X100535397Y-71580182D01*
G37*
X100535397Y-71580182D02*
X100230182Y-71885397D01*
X100065000Y-72284180D01*
X100065000Y-72715820D01*
X100230182Y-73114603D01*
X100370199Y-73254620D01*
X100326059Y-73263400D01*
X100326056Y-73263400D01*
X100111746Y-73306029D01*
X100111193Y-73306139D01*
X99929041Y-73427849D01*
X99929039Y-73427851D01*
X99867542Y-73468942D01*
X99826450Y-73530440D01*
X99103070Y-74253820D01*
X98976250Y-74127000D01*
X98027000Y-74127000D01*
X98027000Y-74147000D01*
X97773000Y-74147000D01*
X97773000Y-74127000D01*
X96823750Y-74127000D01*
X96665000Y-74285750D01*
X96665000Y-74497000D01*
X93732640Y-74497000D01*
X93660100Y-74482571D01*
X93587559Y-74497000D01*
X93587556Y-74497000D01*
X93372693Y-74539739D01*
X93190541Y-74661449D01*
X93190539Y-74661451D01*
X93129042Y-74702542D01*
X93087950Y-74764040D01*
X92106983Y-75745008D01*
X91655081Y-75443056D01*
X91110000Y-75334632D01*
X90881657Y-75380053D01*
X93255991Y-73005719D01*
X93650000Y-73084092D01*
X94229417Y-72968839D01*
X94720625Y-72640625D01*
X94752560Y-72592831D01*
X94752560Y-72700000D01*
X94801843Y-72947765D01*
X94942191Y-73157809D01*
X95152235Y-73298157D01*
X95400000Y-73347440D01*
X96600000Y-73347440D01*
X96665000Y-73334511D01*
X96665000Y-73714250D01*
X96823750Y-73873000D01*
X97773000Y-73873000D01*
X97773000Y-73853000D01*
X98027000Y-73853000D01*
X98027000Y-73873000D01*
X98976250Y-73873000D01*
X99135000Y-73714250D01*
X99135000Y-73556345D01*
X99464603Y-73419818D01*
X99769818Y-73114603D01*
X99935000Y-72715820D01*
X99935000Y-72284180D01*
X99769818Y-71885397D01*
X99464603Y-71580182D01*
X99453300Y-71575500D01*
X100546700Y-71575500D01*
X100535397Y-71580182D01*
M02*
