M48
;DRILL file {KiCad 5.0.2-bee76a0~70~ubuntu16.04.1} date Ne 28. duben 2019, 15:28:14 CEST
;FORMAT={-:-/ absolute / inch / decimal}
FMAT,2
INCH,TZ
T1C0.0197
T2C0.0217
T3C0.0236
T4C0.0240
T5C0.0280
T6C0.0300
T7C0.0354
T8C0.0394
T9C0.1339
%
G90
G05
T3
X2.9626Y-3.3799
X2.9783Y-3.4252
X3.Y-3.5531
X3.0064Y-3.6522
X3.0621Y-3.5527
X3.0827Y-3.8937
X3.1378Y-3.563
X3.1506Y-4.1216
X3.1833Y-3.5667
X3.2783Y-3.5623
X3.3141Y-3.2272
X3.3189Y-3.061
X3.3228Y-3.8307
X3.3701Y-3.4488
X3.372Y-3.0354
X3.3741Y-3.6755
X3.3956Y-3.3583
X3.447Y-3.5074
X3.4754Y-3.1518
X3.4801Y-3.6411
X3.4854Y-3.0158
X3.5Y-3.1102
X3.5029Y-3.1878
X3.5157Y-3.4567
X3.517Y-3.2895
X3.5261Y-3.5518
X3.5409Y-4.1757
X3.5531Y-4.2224
X3.5768Y-4.0098
X3.5838Y-3.3583
X3.5969Y-3.2047
X3.6004Y-3.872
X3.6124Y-3.4547
X3.637Y-3.7155
X3.6409Y-3.2047
X3.6546Y-3.9404
X3.6761Y-3.5666
X3.6797Y-3.7105
X3.7045Y-3.5341
X3.7165Y-3.636
X3.7165Y-3.6789
X3.7657Y-3.5463
X3.8169Y-3.6063
X3.9429Y-3.4567
X4.0937Y-3.7514
X4.124Y-3.4744
X4.1404Y-3.7413
X4.1906Y-3.5271
X4.1964Y-4.003
X4.2253Y-4.5221
X4.2439Y-4.3974
X4.2854Y-4.6831
X4.3051Y-3.1417
X4.4055Y-3.2598
X4.4135Y-2.9861
X4.4175Y-3.3069
X4.4736Y-3.2429
X4.4744Y-3.4723
X4.492Y-3.0897
X4.5866Y-3.4634
X4.6382Y-3.0756
X4.6969Y-3.6043
X4.7283Y-3.4134
X4.7343Y-2.8839
X4.7546Y-3.9224
X4.7651Y-4.2504
X4.7854Y-3.8925
X4.8038Y-4.4894
X4.8535Y-3.6293
T4
X2.9864Y-3.2852
X3.1545Y-4.4843
X3.1929Y-4.2146
X3.4Y-4.5
X3.502Y-3.3701
X3.5096Y-3.7874
X3.5555Y-3.6791
X3.7473Y-4.2031
X3.7798Y-4.1109
X3.7857Y-4.1573
X3.7963Y-3.704
X3.7982Y-2.9314
X3.8894Y-4.052
X3.9301Y-4.4824
X3.9426Y-4.3225
X3.967Y-4.9323
X3.9722Y-3.7874
X4.0199Y-3.1041
X4.065Y-3.103
X4.0839Y-4.439
X4.0846Y-4.5571
X4.1634Y-4.3996
X4.2941Y-3.7038
X4.6833Y-3.8632
X4.6927Y-3.9765
X4.696Y-3.7177
X4.7462Y-3.0065
X4.7638Y-4.0846
X4.8635Y-3.355
T5
X2.9016Y-3.3898
X2.9055Y-4.4843
X4.8198Y-3.8534
X4.9121Y-4.2323
X4.9161Y-3.6417
T6
X3.587Y-3.037
X3.587Y-4.837
X3.687Y-3.037
X3.687Y-4.837
X3.787Y-3.037
X3.787Y-4.837
X3.887Y-3.037
X3.887Y-4.837
X3.987Y-3.037
X3.987Y-4.837
X4.087Y-3.037
X4.087Y-4.837
X4.187Y-3.037
X4.187Y-4.837
X4.287Y-3.037
X4.287Y-4.837
T7
X3.8917Y-5.0197
X3.9823Y-5.0197
T8
X3.287Y-2.8059
X3.387Y-2.8059
X3.487Y-2.8059
X3.587Y-2.8059
X3.687Y-2.8059
X5.0681Y-3.287
X5.0681Y-3.387
X5.0681Y-3.487
X5.0681Y-3.587
X5.0681Y-3.687
X2.8059Y-4.187
X2.8059Y-4.287
X2.8059Y-4.387
X2.8059Y-4.487
X2.8059Y-4.587
X3.2177Y-3.7874
X3.2177Y-3.8874
X3.2177Y-3.9874
X3.2177Y-4.0874
X2.8059Y-3.287
X2.8059Y-3.387
X2.8059Y-3.487
X2.8059Y-3.587
X2.8059Y-3.687
X3.287Y-5.0681
X3.387Y-5.0681
X3.487Y-5.0681
X3.587Y-5.0681
X3.687Y-5.0681
X3.0177Y-4.187
X3.1177Y-4.187
X4.187Y-5.0681
X4.287Y-5.0681
X4.387Y-5.0681
X4.487Y-5.0681
X4.587Y-5.0681
X5.0681Y-4.187
X5.0681Y-4.287
X5.0681Y-4.387
X5.0681Y-4.487
X5.0681Y-4.587
X4.187Y-2.8059
X4.287Y-2.8059
X4.387Y-2.8059
X4.487Y-2.8059
X4.587Y-2.8059
T9
X4.9213Y-2.9528
X2.9528Y-4.9213
X4.9213Y-4.9213
X2.9528Y-2.9528
T1
X5.0187Y-3.7992G85X4.9931Y-3.7992
G05
X5.0187Y-4.0748G85X4.9931Y-4.0748
G05
T2
X4.8996Y-3.8445G85X4.8996Y-3.8327
G05
X4.8996Y-4.0413G85X4.8996Y-4.0295
G05
T0
M30
