%TF.GenerationSoftware,KiCad,Pcbnew,5.0.2-bee76a0~70~ubuntu16.04.1*%
%TF.CreationDate,2019-02-12T08:58:08+01:00*%
%TF.ProjectId,bcl4v2,62636c34-7632-42e6-9b69-6361645f7063,rev?*%
%TF.SameCoordinates,Original*%
%TF.FileFunction,Legend,Bot*%
%TF.FilePolarity,Positive*%
%FSLAX46Y46*%
G04 Gerber Fmt 4.6, Leading zero omitted, Abs format (unit mm)*
G04 Created by KiCad (PCBNEW 5.0.2-bee76a0~70~ubuntu16.04.1) date Út 12. únor 2019, 08:58:08 CET*
%MOMM*%
%LPD*%
G01*
G04 APERTURE LIST*
%ADD10C,0.110000*%
%ADD11C,0.381000*%
%ADD12C,0.150000*%
%ADD13C,0.300000*%
%ADD14C,0.120000*%
G04 APERTURE END LIST*
D10*
X116950000Y-74906666D02*
X117183333Y-74573333D01*
X117350000Y-74906666D02*
X117350000Y-74206666D01*
X117083333Y-74206666D01*
X117016666Y-74240000D01*
X116983333Y-74273333D01*
X116950000Y-74340000D01*
X116950000Y-74440000D01*
X116983333Y-74506666D01*
X117016666Y-74540000D01*
X117083333Y-74573333D01*
X117350000Y-74573333D01*
X116716666Y-74206666D02*
X116283333Y-74206666D01*
X116516666Y-74473333D01*
X116416666Y-74473333D01*
X116350000Y-74506666D01*
X116316666Y-74540000D01*
X116283333Y-74606666D01*
X116283333Y-74773333D01*
X116316666Y-74840000D01*
X116350000Y-74873333D01*
X116416666Y-74906666D01*
X116616666Y-74906666D01*
X116683333Y-74873333D01*
X116716666Y-74840000D01*
X115483333Y-74873333D02*
X115416666Y-74906666D01*
X115283333Y-74906666D01*
X115216666Y-74873333D01*
X115183333Y-74806666D01*
X115183333Y-74773333D01*
X115216666Y-74706666D01*
X115283333Y-74673333D01*
X115383333Y-74673333D01*
X115450000Y-74640000D01*
X115483333Y-74573333D01*
X115483333Y-74540000D01*
X115450000Y-74473333D01*
X115383333Y-74440000D01*
X115283333Y-74440000D01*
X115216666Y-74473333D01*
X114616666Y-74873333D02*
X114683333Y-74906666D01*
X114816666Y-74906666D01*
X114883333Y-74873333D01*
X114916666Y-74806666D01*
X114916666Y-74540000D01*
X114883333Y-74473333D01*
X114816666Y-74440000D01*
X114683333Y-74440000D01*
X114616666Y-74473333D01*
X114583333Y-74540000D01*
X114583333Y-74606666D01*
X114916666Y-74673333D01*
X114383333Y-74440000D02*
X114116666Y-74440000D01*
X114283333Y-74206666D02*
X114283333Y-74806666D01*
X114250000Y-74873333D01*
X114183333Y-74906666D01*
X114116666Y-74906666D01*
X113916666Y-74873333D02*
X113850000Y-74906666D01*
X113716666Y-74906666D01*
X113650000Y-74873333D01*
X113616666Y-74806666D01*
X113616666Y-74773333D01*
X113650000Y-74706666D01*
X113716666Y-74673333D01*
X113816666Y-74673333D01*
X113883333Y-74640000D01*
X113916666Y-74573333D01*
X113916666Y-74540000D01*
X113883333Y-74473333D01*
X113816666Y-74440000D01*
X113716666Y-74440000D01*
X113650000Y-74473333D01*
X116716666Y-76066666D02*
X116716666Y-75600000D01*
X116716666Y-75666666D02*
X116683333Y-75633333D01*
X116616666Y-75600000D01*
X116516666Y-75600000D01*
X116450000Y-75633333D01*
X116416666Y-75700000D01*
X116416666Y-76066666D01*
X116416666Y-75700000D02*
X116383333Y-75633333D01*
X116316666Y-75600000D01*
X116216666Y-75600000D01*
X116150000Y-75633333D01*
X116116666Y-75700000D01*
X116116666Y-76066666D01*
X115483333Y-76066666D02*
X115483333Y-75700000D01*
X115516666Y-75633333D01*
X115583333Y-75600000D01*
X115716666Y-75600000D01*
X115783333Y-75633333D01*
X115483333Y-76033333D02*
X115550000Y-76066666D01*
X115716666Y-76066666D01*
X115783333Y-76033333D01*
X115816666Y-75966666D01*
X115816666Y-75900000D01*
X115783333Y-75833333D01*
X115716666Y-75800000D01*
X115550000Y-75800000D01*
X115483333Y-75766666D01*
X115250000Y-75600000D02*
X114983333Y-75600000D01*
X115150000Y-75366666D02*
X115150000Y-75966666D01*
X115116666Y-76033333D01*
X115050000Y-76066666D01*
X114983333Y-76066666D01*
X114750000Y-76066666D02*
X114750000Y-75600000D01*
X114750000Y-75733333D02*
X114716666Y-75666666D01*
X114683333Y-75633333D01*
X114616666Y-75600000D01*
X114550000Y-75600000D01*
X114316666Y-76066666D02*
X114316666Y-75600000D01*
X114316666Y-75366666D02*
X114350000Y-75400000D01*
X114316666Y-75433333D01*
X114283333Y-75400000D01*
X114316666Y-75366666D01*
X114316666Y-75433333D01*
X114050000Y-76066666D02*
X113683333Y-75600000D01*
X114050000Y-75600000D02*
X113683333Y-76066666D01*
X118050000Y-77226666D02*
X118050000Y-76526666D01*
X118050000Y-76793333D02*
X117983333Y-76760000D01*
X117850000Y-76760000D01*
X117783333Y-76793333D01*
X117750000Y-76826666D01*
X117716666Y-76893333D01*
X117716666Y-77093333D01*
X117750000Y-77160000D01*
X117783333Y-77193333D01*
X117850000Y-77226666D01*
X117983333Y-77226666D01*
X118050000Y-77193333D01*
X117416666Y-77226666D02*
X117416666Y-76760000D01*
X117416666Y-76893333D02*
X117383333Y-76826666D01*
X117350000Y-76793333D01*
X117283333Y-76760000D01*
X117216666Y-76760000D01*
X116983333Y-77226666D02*
X116983333Y-76760000D01*
X116983333Y-76526666D02*
X117016666Y-76560000D01*
X116983333Y-76593333D01*
X116950000Y-76560000D01*
X116983333Y-76526666D01*
X116983333Y-76593333D01*
X116350000Y-76760000D02*
X116350000Y-77326666D01*
X116383333Y-77393333D01*
X116416666Y-77426666D01*
X116483333Y-77460000D01*
X116583333Y-77460000D01*
X116650000Y-77426666D01*
X116350000Y-77193333D02*
X116416666Y-77226666D01*
X116550000Y-77226666D01*
X116616666Y-77193333D01*
X116650000Y-77160000D01*
X116683333Y-77093333D01*
X116683333Y-76893333D01*
X116650000Y-76826666D01*
X116616666Y-76793333D01*
X116550000Y-76760000D01*
X116416666Y-76760000D01*
X116350000Y-76793333D01*
X116016666Y-77226666D02*
X116016666Y-76526666D01*
X115716666Y-77226666D02*
X115716666Y-76860000D01*
X115750000Y-76793333D01*
X115816666Y-76760000D01*
X115916666Y-76760000D01*
X115983333Y-76793333D01*
X116016666Y-76826666D01*
X115483333Y-76760000D02*
X115216666Y-76760000D01*
X115383333Y-76526666D02*
X115383333Y-77126666D01*
X115350000Y-77193333D01*
X115283333Y-77226666D01*
X115216666Y-77226666D01*
X114983333Y-76760000D02*
X114983333Y-77226666D01*
X114983333Y-76826666D02*
X114950000Y-76793333D01*
X114883333Y-76760000D01*
X114783333Y-76760000D01*
X114716666Y-76793333D01*
X114683333Y-76860000D01*
X114683333Y-77226666D01*
X114083333Y-77193333D02*
X114150000Y-77226666D01*
X114283333Y-77226666D01*
X114350000Y-77193333D01*
X114383333Y-77126666D01*
X114383333Y-76860000D01*
X114350000Y-76793333D01*
X114283333Y-76760000D01*
X114150000Y-76760000D01*
X114083333Y-76793333D01*
X114050000Y-76860000D01*
X114050000Y-76926666D01*
X114383333Y-76993333D01*
X113783333Y-77193333D02*
X113716666Y-77226666D01*
X113583333Y-77226666D01*
X113516666Y-77193333D01*
X113483333Y-77126666D01*
X113483333Y-77093333D01*
X113516666Y-77026666D01*
X113583333Y-76993333D01*
X113683333Y-76993333D01*
X113750000Y-76960000D01*
X113783333Y-76893333D01*
X113783333Y-76860000D01*
X113750000Y-76793333D01*
X113683333Y-76760000D01*
X113583333Y-76760000D01*
X113516666Y-76793333D01*
X113216666Y-77193333D02*
X113150000Y-77226666D01*
X113016666Y-77226666D01*
X112950000Y-77193333D01*
X112916666Y-77126666D01*
X112916666Y-77093333D01*
X112950000Y-77026666D01*
X113016666Y-76993333D01*
X113116666Y-76993333D01*
X113183333Y-76960000D01*
X113216666Y-76893333D01*
X113216666Y-76860000D01*
X113183333Y-76793333D01*
X113116666Y-76760000D01*
X113016666Y-76760000D01*
X112950000Y-76793333D01*
D11*
X70000000Y-95000000D02*
X70000000Y-75000000D01*
X70000000Y-125000000D02*
X70000000Y-105000000D01*
X95000000Y-130000000D02*
X75000000Y-130000000D01*
X125000000Y-130000000D02*
X105000000Y-130000000D01*
X130000000Y-105000000D02*
X130000000Y-125000000D01*
X130000000Y-75000000D02*
X130000000Y-95000000D01*
X105000000Y-70000000D02*
X125000000Y-70000000D01*
X75000000Y-70000000D02*
X95000000Y-70000000D01*
X75000000Y-130000000D02*
G75*
G02X70000000Y-125000000I0J5000000D01*
G01*
X130000000Y-125000000D02*
G75*
G02X125000000Y-130000000I-5000000J0D01*
G01*
X125000000Y-70000000D02*
G75*
G02X130000000Y-75000000I0J-5000000D01*
G01*
X70000000Y-75000000D02*
G75*
G02X75000000Y-70000000I5000000J0D01*
G01*
X105000000Y-70750000D02*
X105000000Y-70000000D01*
X95000000Y-70750000D02*
X105000000Y-70750000D01*
X95000000Y-70000000D02*
X95000000Y-70750000D01*
X70750000Y-105000000D02*
X70000000Y-105000000D01*
X70750000Y-95000000D02*
X70750000Y-105000000D01*
X70000000Y-95000000D02*
X70750000Y-95000000D01*
X105000000Y-129250000D02*
X105000000Y-130000000D01*
X95000000Y-129250000D02*
X105000000Y-129250000D01*
X95000000Y-130000000D02*
X95000000Y-129250000D01*
D12*
X86300000Y-98150000D02*
X86300000Y-98175000D01*
X98750000Y-98150000D02*
X86300000Y-98150000D01*
X98750000Y-104025000D02*
X98750000Y-98150000D01*
X86300000Y-104025000D02*
X98750000Y-104025000D01*
X86300000Y-98225000D02*
X86300000Y-104025000D01*
D10*
X82967024Y-73746040D02*
X83014164Y-73746040D01*
X83108445Y-73698900D01*
X83155586Y-73651759D01*
X83202726Y-73557479D01*
X83202726Y-73463198D01*
X83179156Y-73392487D01*
X83108445Y-73274636D01*
X83037735Y-73203925D01*
X82919884Y-73133215D01*
X82849173Y-73109644D01*
X82754892Y-73109644D01*
X82660611Y-73156785D01*
X82613471Y-73203925D01*
X82566330Y-73298206D01*
X82566330Y-73345347D01*
X82094926Y-73722470D02*
X82189207Y-73628189D01*
X82259917Y-73604619D01*
X82307058Y-73604619D01*
X82424909Y-73628189D01*
X82542760Y-73698900D01*
X82731322Y-73887462D01*
X82754892Y-73958172D01*
X82754892Y-74005313D01*
X82731322Y-74076024D01*
X82637041Y-74170304D01*
X82566330Y-74193875D01*
X82519190Y-74193875D01*
X82448479Y-74170304D01*
X82330628Y-74052453D01*
X82307058Y-73981743D01*
X82307058Y-73934602D01*
X82330628Y-73863892D01*
X82424909Y-73769611D01*
X82495619Y-73746040D01*
X82542760Y-73746040D01*
X82613471Y-73769611D01*
X82142066Y-74288156D02*
X81764942Y-74665279D01*
X81694232Y-75113113D02*
X81599951Y-75207394D01*
X81529240Y-75230965D01*
X81482100Y-75230965D01*
X81364249Y-75207394D01*
X81246398Y-75136684D01*
X81057836Y-74948122D01*
X81034265Y-74877411D01*
X81034265Y-74830271D01*
X81057836Y-74759560D01*
X81152117Y-74665279D01*
X81222827Y-74641709D01*
X81269968Y-74641709D01*
X81340678Y-74665279D01*
X81458530Y-74783130D01*
X81482100Y-74853841D01*
X81482100Y-74900981D01*
X81458530Y-74971692D01*
X81364249Y-75065973D01*
X81293538Y-75089543D01*
X81246398Y-75089543D01*
X81175687Y-75065973D01*
X80798563Y-76008782D02*
X80822133Y-75938071D01*
X80822133Y-75890931D01*
X80798563Y-75820220D01*
X80657142Y-75678799D01*
X80586431Y-75655229D01*
X80539291Y-75655229D01*
X80468580Y-75678799D01*
X80397869Y-75749510D01*
X80374299Y-75820220D01*
X80374299Y-75867361D01*
X80397869Y-75938071D01*
X80539291Y-76079493D01*
X80610001Y-76103063D01*
X80657142Y-76103063D01*
X80727853Y-76079493D01*
X80798563Y-76008782D01*
X80091456Y-76055923D02*
X80586431Y-76550897D01*
X80115027Y-76079493D02*
X80044316Y-76103063D01*
X79950035Y-76197344D01*
X79926465Y-76268055D01*
X79926465Y-76315195D01*
X79950035Y-76385906D01*
X80091456Y-76527327D01*
X80162167Y-76550897D01*
X80209308Y-76550897D01*
X80280018Y-76527327D01*
X80374299Y-76433046D01*
X80397869Y-76362335D01*
X79714333Y-76433046D02*
X79525771Y-76621608D01*
X79478631Y-76338765D02*
X79902895Y-76763029D01*
X79926465Y-76833740D01*
X79902895Y-76904451D01*
X79855754Y-76951591D01*
X79690763Y-77116583D02*
X79360779Y-76786600D01*
X79195788Y-76621608D02*
X79242928Y-76621608D01*
X79242928Y-76668748D01*
X79195788Y-76668748D01*
X79195788Y-76621608D01*
X79242928Y-76668748D01*
X79384350Y-77422996D02*
X79407920Y-77352285D01*
X79407920Y-77305145D01*
X79384350Y-77234434D01*
X79242928Y-77093012D01*
X79172218Y-77069442D01*
X79125077Y-77069442D01*
X79054366Y-77093012D01*
X78983656Y-77163723D01*
X78960086Y-77234434D01*
X78960086Y-77281574D01*
X78983656Y-77352285D01*
X79125077Y-77493706D01*
X79195788Y-77517277D01*
X79242928Y-77517277D01*
X79313639Y-77493706D01*
X79384350Y-77422996D01*
X78677243Y-77470136D02*
X79007226Y-77800119D01*
X78724383Y-77517277D02*
X78677243Y-77517277D01*
X78606532Y-77540847D01*
X78535822Y-77611557D01*
X78512251Y-77682268D01*
X78535822Y-77752979D01*
X78795094Y-78012251D01*
X78347260Y-78460086D02*
X78087987Y-78200813D01*
X78064417Y-78130102D01*
X78087987Y-78059392D01*
X78182268Y-77965111D01*
X78252979Y-77941541D01*
X78323689Y-78436515D02*
X78394400Y-78412945D01*
X78512251Y-78295094D01*
X78535822Y-78224383D01*
X78512251Y-78153673D01*
X78465111Y-78106532D01*
X78394400Y-78082962D01*
X78323689Y-78106532D01*
X78205838Y-78224383D01*
X78135128Y-78247954D01*
X78040847Y-78766499D02*
X78064417Y-78695788D01*
X78040847Y-78625077D01*
X77616583Y-78200813D01*
X77805145Y-78955060D02*
X77828715Y-78978631D01*
X77899425Y-79002201D01*
X77946566Y-79002201D01*
X76980187Y-79167192D02*
X76791625Y-79355754D01*
X76744484Y-79072911D02*
X77168748Y-79497176D01*
X77192319Y-79567886D01*
X77168748Y-79638597D01*
X77121608Y-79685737D01*
X76956616Y-79850729D02*
X76461642Y-79355754D01*
X76744484Y-80062861D02*
X76485212Y-79803588D01*
X76461642Y-79732878D01*
X76485212Y-79662167D01*
X76555923Y-79591456D01*
X76626633Y-79567886D01*
X76673774Y-79567886D01*
X76296650Y-80463555D02*
X76367361Y-80439985D01*
X76461642Y-80345704D01*
X76485212Y-80274993D01*
X76461642Y-80204282D01*
X76273080Y-80015721D01*
X76202369Y-79992150D01*
X76131658Y-80015721D01*
X76037378Y-80110001D01*
X76013807Y-80180712D01*
X76037378Y-80251423D01*
X76084518Y-80298563D01*
X76367361Y-80110001D01*
X75801675Y-80345704D02*
X76013807Y-80793538D01*
X75565973Y-80581406D02*
X76013807Y-80793538D01*
X76178799Y-80864249D01*
X76225939Y-80864249D01*
X76296650Y-80840678D01*
X75118139Y-81689207D02*
X74858866Y-81429934D01*
X74835296Y-81359223D01*
X74858866Y-81288513D01*
X74953147Y-81194232D01*
X75023858Y-81170662D01*
X75094569Y-81665636D02*
X75165279Y-81642066D01*
X75283130Y-81524215D01*
X75306701Y-81453504D01*
X75283130Y-81382794D01*
X75235990Y-81335653D01*
X75165279Y-81312083D01*
X75094569Y-81335653D01*
X74976717Y-81453504D01*
X74906007Y-81477075D01*
X74882436Y-81924909D02*
X74552453Y-81594926D01*
X74646734Y-81689207D02*
X74576024Y-81665636D01*
X74528883Y-81665636D01*
X74458172Y-81689207D01*
X74411032Y-81736347D01*
X74363892Y-82396313D02*
X74434602Y-82372743D01*
X74528883Y-82278462D01*
X74552453Y-82207752D01*
X74528883Y-82137041D01*
X74340321Y-81948479D01*
X74269611Y-81924909D01*
X74198900Y-81948479D01*
X74104619Y-82042760D01*
X74081049Y-82113471D01*
X74104619Y-82184181D01*
X74151759Y-82231322D01*
X74434602Y-82042760D01*
X84800788Y-72987079D02*
X84612226Y-73175641D01*
X85060060Y-73387773D02*
X84635796Y-72963509D01*
X84565085Y-72939939D01*
X84494375Y-72963509D01*
X84447234Y-73010649D01*
X84706507Y-73741326D02*
X84730077Y-73670616D01*
X84730077Y-73623475D01*
X84706507Y-73552765D01*
X84565085Y-73411343D01*
X84494375Y-73387773D01*
X84447234Y-73387773D01*
X84376524Y-73411343D01*
X84305813Y-73482054D01*
X84282243Y-73552765D01*
X84282243Y-73599905D01*
X84305813Y-73670616D01*
X84447234Y-73812037D01*
X84517945Y-73835607D01*
X84565085Y-73835607D01*
X84635796Y-73812037D01*
X84706507Y-73741326D01*
X84329383Y-74118450D02*
X83999400Y-73788467D01*
X84093681Y-73882748D02*
X84022970Y-73859178D01*
X83975830Y-73859178D01*
X83905119Y-73882748D01*
X83857979Y-73929888D01*
X83645847Y-74801987D02*
X83150872Y-74307012D01*
X83339434Y-74495574D02*
X83268723Y-74519144D01*
X83174442Y-74613425D01*
X83150872Y-74684136D01*
X83150872Y-74731276D01*
X83174442Y-74801987D01*
X83315863Y-74943408D01*
X83386574Y-74966978D01*
X83433715Y-74966978D01*
X83504425Y-74943408D01*
X83598706Y-74849127D01*
X83622276Y-74778416D01*
X82985880Y-75414813D02*
X83056591Y-75391242D01*
X83150872Y-75296961D01*
X83174442Y-75226251D01*
X83150872Y-75155540D01*
X82962310Y-74966978D01*
X82891599Y-74943408D01*
X82820889Y-74966978D01*
X82726608Y-75061259D01*
X82703038Y-75131970D01*
X82726608Y-75202680D01*
X82773748Y-75249821D01*
X83056591Y-75061259D01*
X82514476Y-75273391D02*
X82325914Y-75461953D01*
X82278774Y-75179110D02*
X82703038Y-75603374D01*
X82726608Y-75674085D01*
X82703038Y-75744796D01*
X82655897Y-75791936D01*
X82231633Y-75556234D02*
X82043071Y-75744796D01*
X81995931Y-75461953D02*
X82420195Y-75886217D01*
X82443765Y-75956928D01*
X82420195Y-76027638D01*
X82373054Y-76074779D01*
X81995931Y-76404762D02*
X82066642Y-76381192D01*
X82160922Y-76286911D01*
X82184493Y-76216200D01*
X82160922Y-76145490D01*
X81972361Y-75956928D01*
X81901650Y-75933357D01*
X81830939Y-75956928D01*
X81736658Y-76051209D01*
X81713088Y-76121919D01*
X81736658Y-76192630D01*
X81783799Y-76239770D01*
X82066642Y-76051209D01*
X81783799Y-76664034D02*
X81453816Y-76334051D01*
X81548097Y-76428332D02*
X81477386Y-76404762D01*
X81430245Y-76404762D01*
X81359535Y-76428332D01*
X81312394Y-76475473D01*
X81100262Y-77347571D02*
X80605287Y-76852596D01*
X80793849Y-77371141D01*
X80275304Y-77182579D01*
X80770279Y-77677554D01*
X80204594Y-78148959D02*
X80251734Y-78148959D01*
X80346015Y-78101818D01*
X80393155Y-78054678D01*
X80440296Y-77960397D01*
X80440296Y-77866116D01*
X80416726Y-77795405D01*
X80346015Y-77677554D01*
X80275304Y-77606844D01*
X80157453Y-77536133D01*
X80086743Y-77512563D01*
X79992462Y-77512563D01*
X79898181Y-77559703D01*
X79851040Y-77606844D01*
X79803900Y-77701124D01*
X79803900Y-77748265D01*
X79544627Y-77913256D02*
X79945321Y-78313950D01*
X79968891Y-78384661D01*
X79968891Y-78431801D01*
X79945321Y-78502512D01*
X79851040Y-78596793D01*
X79780330Y-78620363D01*
X79733189Y-78620363D01*
X79662478Y-78596793D01*
X79261785Y-78196099D01*
X78813950Y-78973917D02*
X79308925Y-79468891D01*
X78837521Y-78997487D02*
X78766810Y-79021057D01*
X78672529Y-79115338D01*
X78648959Y-79186049D01*
X78648959Y-79233189D01*
X78672529Y-79303900D01*
X78813950Y-79445321D01*
X78884661Y-79468891D01*
X78931801Y-79468891D01*
X79002512Y-79445321D01*
X79096793Y-79351040D01*
X79120363Y-79280330D01*
X78625389Y-79822445D02*
X78648959Y-79751734D01*
X78648959Y-79704594D01*
X78625389Y-79633883D01*
X78483967Y-79492462D01*
X78413256Y-79468891D01*
X78366116Y-79468891D01*
X78295405Y-79492462D01*
X78224695Y-79563172D01*
X78201124Y-79633883D01*
X78201124Y-79681023D01*
X78224695Y-79751734D01*
X78366116Y-79893155D01*
X78436827Y-79916726D01*
X78483967Y-79916726D01*
X78554678Y-79893155D01*
X78625389Y-79822445D01*
X77965422Y-79822445D02*
X78201124Y-80246709D01*
X77871141Y-80105287D01*
X78012563Y-80435271D01*
X77588299Y-80199568D01*
X77517588Y-80883105D02*
X77588299Y-80859535D01*
X77682579Y-80765254D01*
X77706150Y-80694543D01*
X77682579Y-80623832D01*
X77494018Y-80435271D01*
X77423307Y-80411700D01*
X77352596Y-80435271D01*
X77258315Y-80529552D01*
X77234745Y-80600262D01*
X77258315Y-80670973D01*
X77305456Y-80718113D01*
X77588299Y-80529552D01*
X77305456Y-81142377D02*
X76975473Y-80812394D01*
X77069754Y-80906675D02*
X76999043Y-80883105D01*
X76951902Y-80883105D01*
X76881192Y-80906675D01*
X76834051Y-80953816D01*
X76621919Y-81778774D02*
X76598349Y-81849484D01*
X76504068Y-81943765D01*
X76433357Y-81967335D01*
X76362647Y-81943765D01*
X76339077Y-81920195D01*
X76315506Y-81849484D01*
X76339077Y-81778774D01*
X76409787Y-81708063D01*
X76433357Y-81637352D01*
X76409787Y-81566642D01*
X76386217Y-81543071D01*
X76315506Y-81519501D01*
X76244796Y-81543071D01*
X76174085Y-81613782D01*
X76150515Y-81684493D01*
X75961953Y-81825914D02*
X75773391Y-82014476D01*
X75726251Y-81731633D02*
X76150515Y-82155897D01*
X76174085Y-82226608D01*
X76150515Y-82297319D01*
X76103374Y-82344459D01*
X75726251Y-82721583D02*
X75466978Y-82462310D01*
X75443408Y-82391599D01*
X75466978Y-82320889D01*
X75561259Y-82226608D01*
X75631970Y-82203038D01*
X75702680Y-82698012D02*
X75773391Y-82674442D01*
X75891242Y-82556591D01*
X75914813Y-82485880D01*
X75891242Y-82415170D01*
X75844102Y-82368029D01*
X75773391Y-82344459D01*
X75702680Y-82368029D01*
X75584829Y-82485880D01*
X75514119Y-82509451D01*
X75490548Y-82957285D02*
X74995574Y-82462310D01*
X75184136Y-82650872D02*
X75113425Y-82674442D01*
X75019144Y-82768723D01*
X74995574Y-82839434D01*
X74995574Y-82886574D01*
X75019144Y-82957285D01*
X75160565Y-83098706D01*
X75231276Y-83122276D01*
X75278416Y-83122276D01*
X75349127Y-83098706D01*
X75443408Y-83004425D01*
X75466978Y-82933715D01*
X75042714Y-83405119D02*
X74712731Y-83075136D01*
X74547739Y-82910144D02*
X74594880Y-82910144D01*
X74594880Y-82957285D01*
X74547739Y-82957285D01*
X74547739Y-82910144D01*
X74594880Y-82957285D01*
X74736301Y-83711532D02*
X74759871Y-83640821D01*
X74736301Y-83570111D01*
X74312037Y-83145847D01*
X74547739Y-83900094D02*
X74217756Y-83570111D01*
X74052765Y-83405119D02*
X74099905Y-83405119D01*
X74099905Y-83452260D01*
X74052765Y-83452260D01*
X74052765Y-83405119D01*
X74099905Y-83452260D01*
X74052765Y-83735102D02*
X73864203Y-83923664D01*
X73817062Y-83640821D02*
X74241326Y-84065085D01*
X74264897Y-84135796D01*
X74241326Y-84206507D01*
X74194186Y-84253647D01*
X73746352Y-84041515D02*
X73958484Y-84489350D01*
X73510649Y-84277218D02*
X73958484Y-84489350D01*
X74123475Y-84560060D01*
X74170616Y-84560060D01*
X74241326Y-84536490D01*
X85797808Y-73819108D02*
X86033511Y-74054811D01*
X85703528Y-73394844D02*
X85797808Y-73819108D01*
X85373544Y-73724827D01*
X85444255Y-74644066D02*
X85727098Y-74361224D01*
X85585676Y-74502645D02*
X85090702Y-74007670D01*
X85208553Y-74031240D01*
X85302834Y-74031240D01*
X85373544Y-74007670D01*
X84784289Y-75304033D02*
X84807859Y-75233322D01*
X84807859Y-75186181D01*
X84784289Y-75115471D01*
X84642867Y-74974049D01*
X84572157Y-74950479D01*
X84525016Y-74950479D01*
X84454306Y-74974049D01*
X84383595Y-75044760D01*
X84360025Y-75115471D01*
X84360025Y-75162611D01*
X84383595Y-75233322D01*
X84525016Y-75374743D01*
X84595727Y-75398313D01*
X84642867Y-75398313D01*
X84713578Y-75374743D01*
X84784289Y-75304033D01*
X84077182Y-75351173D02*
X84572157Y-75846148D01*
X84100752Y-75374743D02*
X84030041Y-75398313D01*
X83935761Y-75492594D01*
X83912190Y-75563305D01*
X83912190Y-75610446D01*
X83935761Y-75681156D01*
X84077182Y-75822578D01*
X84147893Y-75846148D01*
X84195033Y-75846148D01*
X84265744Y-75822578D01*
X84360025Y-75728297D01*
X84383595Y-75657586D01*
X83700058Y-75728297D02*
X83511497Y-75916858D01*
X83464356Y-75634016D02*
X83888620Y-76058280D01*
X83912190Y-76128990D01*
X83888620Y-76199701D01*
X83841480Y-76246842D01*
X83676488Y-76411833D02*
X83346505Y-76081850D01*
X83181513Y-75916858D02*
X83228654Y-75916858D01*
X83228654Y-75963999D01*
X83181513Y-75963999D01*
X83181513Y-75916858D01*
X83228654Y-75963999D01*
X83370075Y-76718246D02*
X83393645Y-76647535D01*
X83393645Y-76600395D01*
X83370075Y-76529684D01*
X83228654Y-76388263D01*
X83157943Y-76364693D01*
X83110803Y-76364693D01*
X83040092Y-76388263D01*
X82969381Y-76458974D01*
X82945811Y-76529684D01*
X82945811Y-76576825D01*
X82969381Y-76647535D01*
X83110803Y-76788957D01*
X83181513Y-76812527D01*
X83228654Y-76812527D01*
X83299364Y-76788957D01*
X83370075Y-76718246D01*
X82662968Y-76765387D02*
X82992952Y-77095370D01*
X82710109Y-76812527D02*
X82662968Y-76812527D01*
X82592258Y-76836097D01*
X82521547Y-76906808D01*
X82497977Y-76977519D01*
X82521547Y-77048229D01*
X82780819Y-77307502D01*
X82332985Y-77755336D02*
X82073713Y-77496064D01*
X82050142Y-77425353D01*
X82073713Y-77354642D01*
X82167994Y-77260361D01*
X82238704Y-77236791D01*
X82309415Y-77731766D02*
X82380126Y-77708196D01*
X82497977Y-77590345D01*
X82521547Y-77519634D01*
X82497977Y-77448923D01*
X82450836Y-77401783D01*
X82380126Y-77378212D01*
X82309415Y-77401783D01*
X82191564Y-77519634D01*
X82120853Y-77543204D01*
X82026572Y-78061749D02*
X82050142Y-77991038D01*
X82026572Y-77920328D01*
X81602308Y-77496064D01*
X81790870Y-78250311D02*
X81814440Y-78273881D01*
X81885151Y-78297451D01*
X81932291Y-78297451D01*
X80635929Y-79405252D02*
X80706640Y-79381682D01*
X80800921Y-79287401D01*
X80824491Y-79216690D01*
X80800921Y-79145979D01*
X80612359Y-78957418D01*
X80541648Y-78933847D01*
X80470937Y-78957418D01*
X80376656Y-79051699D01*
X80353086Y-79122409D01*
X80376656Y-79193120D01*
X80423797Y-79240260D01*
X80706640Y-79051699D01*
X80376656Y-79617384D02*
X80376656Y-79664524D01*
X80423797Y-79664524D01*
X80423797Y-79617384D01*
X80376656Y-79617384D01*
X80423797Y-79664524D01*
X79645979Y-79782376D02*
X80046673Y-80183069D01*
X80117384Y-80206640D01*
X80164524Y-80206640D01*
X80235235Y-80183069D01*
X80305946Y-80112359D01*
X80329516Y-80041648D01*
X79952392Y-80088788D02*
X80023103Y-80065218D01*
X80117384Y-79970937D01*
X80140954Y-79900227D01*
X80140954Y-79853086D01*
X80117384Y-79782376D01*
X79975963Y-79640954D01*
X79905252Y-79617384D01*
X79858111Y-79617384D01*
X79787401Y-79640954D01*
X79693120Y-79735235D01*
X79669550Y-79805946D01*
X79693120Y-80300921D02*
X79693120Y-80348061D01*
X79740260Y-80348061D01*
X79740260Y-80300921D01*
X79693120Y-80300921D01*
X79740260Y-80348061D01*
X78632460Y-80465912D02*
X79033154Y-80866606D01*
X79056724Y-80937317D01*
X79056724Y-80984457D01*
X79033154Y-81055168D01*
X78938873Y-81149449D01*
X78868162Y-81173019D01*
X78821022Y-81173019D01*
X78750311Y-81149449D01*
X78349617Y-80748755D01*
X78608889Y-81432291D02*
X78561749Y-81526572D01*
X78443898Y-81644423D01*
X78373187Y-81667994D01*
X78326047Y-81667994D01*
X78255336Y-81644423D01*
X78208196Y-81597283D01*
X78184625Y-81526572D01*
X78184625Y-81479432D01*
X78208196Y-81408721D01*
X78278906Y-81290870D01*
X78302477Y-81220159D01*
X78302477Y-81173019D01*
X78278906Y-81102308D01*
X78231766Y-81055168D01*
X78161055Y-81031598D01*
X78113915Y-81031598D01*
X78043204Y-81055168D01*
X77925353Y-81173019D01*
X77878212Y-81267300D01*
X77713221Y-81856555D02*
X77666080Y-81950836D01*
X77666080Y-81997977D01*
X77689651Y-82068687D01*
X77760361Y-82139398D01*
X77831072Y-82162968D01*
X77878212Y-82162968D01*
X77948923Y-82139398D01*
X78137485Y-81950836D01*
X77642510Y-81455862D01*
X77477519Y-81620853D01*
X77453948Y-81691564D01*
X77453948Y-81738704D01*
X77477519Y-81809415D01*
X77524659Y-81856555D01*
X77595370Y-81880126D01*
X77642510Y-81880126D01*
X77713221Y-81856555D01*
X77878212Y-81691564D01*
X76935403Y-82492952D02*
X77265387Y-82822935D01*
X76982544Y-82540092D02*
X76935403Y-82540092D01*
X76864693Y-82563662D01*
X76793982Y-82634373D01*
X76770412Y-82705084D01*
X76793982Y-82775794D01*
X77053255Y-83035067D01*
X76605420Y-83435761D02*
X76676131Y-83412190D01*
X76770412Y-83317909D01*
X76793982Y-83247199D01*
X76770412Y-83176488D01*
X76581850Y-82987926D01*
X76511139Y-82964356D01*
X76440429Y-82987926D01*
X76346148Y-83082207D01*
X76322578Y-83152918D01*
X76346148Y-83223629D01*
X76393288Y-83270769D01*
X76676131Y-83082207D01*
X76181156Y-83860025D02*
X76251867Y-83836454D01*
X76346148Y-83742174D01*
X76369718Y-83671463D01*
X76346148Y-83600752D01*
X76157586Y-83412190D01*
X76086875Y-83388620D01*
X76016165Y-83412190D01*
X75921884Y-83506471D01*
X75898313Y-83577182D01*
X75921884Y-83647893D01*
X75969024Y-83695033D01*
X76251867Y-83506471D01*
X75756892Y-84331429D02*
X75261917Y-83836454D01*
X75733322Y-84307859D02*
X75804033Y-84284289D01*
X75898313Y-84190008D01*
X75921884Y-84119297D01*
X75921884Y-84072157D01*
X75898313Y-84001446D01*
X75756892Y-83860025D01*
X75686181Y-83836454D01*
X75639041Y-83836454D01*
X75568330Y-83860025D01*
X75474049Y-83954306D01*
X75450479Y-84025016D01*
X75521190Y-84519991D02*
X75497620Y-84590702D01*
X75403339Y-84684983D01*
X75332628Y-84708553D01*
X75261917Y-84684983D01*
X75238347Y-84661412D01*
X75214777Y-84590702D01*
X75238347Y-84519991D01*
X75309058Y-84449280D01*
X75332628Y-84378570D01*
X75309058Y-84307859D01*
X75285488Y-84284289D01*
X75214777Y-84260718D01*
X75144066Y-84284289D01*
X75073356Y-84354999D01*
X75049785Y-84425710D01*
X74743372Y-85344949D02*
X74413389Y-85014966D01*
X74248398Y-84849974D02*
X74295538Y-84849974D01*
X74295538Y-84897115D01*
X74248398Y-84897115D01*
X74248398Y-84849974D01*
X74295538Y-84897115D01*
X74248398Y-85179957D02*
X74059836Y-85368519D01*
X74012695Y-85085676D02*
X74436959Y-85509940D01*
X74460530Y-85580651D01*
X74436959Y-85651362D01*
X74389819Y-85698502D01*
X120236666Y-84650000D02*
X119536666Y-84650000D01*
X120236666Y-84983333D02*
X119536666Y-84983333D01*
X120236666Y-85383333D01*
X119536666Y-85383333D01*
X119536666Y-85850000D02*
X119536666Y-85916666D01*
X119570000Y-85983333D01*
X119603333Y-86016666D01*
X119670000Y-86050000D01*
X119803333Y-86083333D01*
X119970000Y-86083333D01*
X120103333Y-86050000D01*
X120170000Y-86016666D01*
X120203333Y-85983333D01*
X120236666Y-85916666D01*
X120236666Y-85850000D01*
X120203333Y-85783333D01*
X120170000Y-85750000D01*
X120103333Y-85716666D01*
X119970000Y-85683333D01*
X119803333Y-85683333D01*
X119670000Y-85716666D01*
X119603333Y-85750000D01*
X119570000Y-85783333D01*
X119536666Y-85850000D01*
X120203333Y-86416666D02*
X120236666Y-86416666D01*
X120303333Y-86383333D01*
X120336666Y-86350000D01*
X120236666Y-87250000D02*
X119536666Y-87250000D01*
X120236666Y-87583333D02*
X119536666Y-87583333D01*
X120236666Y-87983333D01*
X119536666Y-87983333D01*
X120236666Y-88683333D02*
X120236666Y-88283333D01*
X120236666Y-88483333D02*
X119536666Y-88483333D01*
X119636666Y-88416666D01*
X119703333Y-88350000D01*
X119736666Y-88283333D01*
X119770000Y-89516666D02*
X120470000Y-89516666D01*
X119803333Y-89516666D02*
X119770000Y-89583333D01*
X119770000Y-89716666D01*
X119803333Y-89783333D01*
X119836666Y-89816666D01*
X119903333Y-89850000D01*
X120103333Y-89850000D01*
X120170000Y-89816666D01*
X120203333Y-89783333D01*
X120236666Y-89716666D01*
X120236666Y-89583333D01*
X120203333Y-89516666D01*
X120236666Y-90150000D02*
X119770000Y-90150000D01*
X119536666Y-90150000D02*
X119570000Y-90116666D01*
X119603333Y-90150000D01*
X119570000Y-90183333D01*
X119536666Y-90150000D01*
X119603333Y-90150000D01*
X119770000Y-90483333D02*
X120236666Y-90483333D01*
X119836666Y-90483333D02*
X119803333Y-90516666D01*
X119770000Y-90583333D01*
X119770000Y-90683333D01*
X119803333Y-90750000D01*
X119870000Y-90783333D01*
X120236666Y-90783333D01*
X120203333Y-91083333D02*
X120236666Y-91150000D01*
X120236666Y-91283333D01*
X120203333Y-91350000D01*
X120136666Y-91383333D01*
X120103333Y-91383333D01*
X120036666Y-91350000D01*
X120003333Y-91283333D01*
X120003333Y-91183333D01*
X119970000Y-91116666D01*
X119903333Y-91083333D01*
X119870000Y-91083333D01*
X119803333Y-91116666D01*
X119770000Y-91183333D01*
X119770000Y-91283333D01*
X119803333Y-91350000D01*
X120930000Y-83650000D02*
X121396666Y-83816666D01*
X120930000Y-83983333D01*
X121396666Y-84350000D02*
X121363333Y-84283333D01*
X121330000Y-84250000D01*
X121263333Y-84216666D01*
X121063333Y-84216666D01*
X120996666Y-84250000D01*
X120963333Y-84283333D01*
X120930000Y-84350000D01*
X120930000Y-84450000D01*
X120963333Y-84516666D01*
X120996666Y-84550000D01*
X121063333Y-84583333D01*
X121263333Y-84583333D01*
X121330000Y-84550000D01*
X121363333Y-84516666D01*
X121396666Y-84450000D01*
X121396666Y-84350000D01*
X121396666Y-84983333D02*
X121363333Y-84916666D01*
X121296666Y-84883333D01*
X120696666Y-84883333D01*
X120930000Y-85150000D02*
X120930000Y-85416666D01*
X120696666Y-85250000D02*
X121296666Y-85250000D01*
X121363333Y-85283333D01*
X121396666Y-85350000D01*
X121396666Y-85416666D01*
X121396666Y-85950000D02*
X121030000Y-85950000D01*
X120963333Y-85916666D01*
X120930000Y-85850000D01*
X120930000Y-85716666D01*
X120963333Y-85650000D01*
X121363333Y-85950000D02*
X121396666Y-85883333D01*
X121396666Y-85716666D01*
X121363333Y-85650000D01*
X121296666Y-85616666D01*
X121230000Y-85616666D01*
X121163333Y-85650000D01*
X121130000Y-85716666D01*
X121130000Y-85883333D01*
X121096666Y-85950000D01*
X120930000Y-86583333D02*
X121496666Y-86583333D01*
X121563333Y-86550000D01*
X121596666Y-86516666D01*
X121630000Y-86450000D01*
X121630000Y-86350000D01*
X121596666Y-86283333D01*
X121363333Y-86583333D02*
X121396666Y-86516666D01*
X121396666Y-86383333D01*
X121363333Y-86316666D01*
X121330000Y-86283333D01*
X121263333Y-86250000D01*
X121063333Y-86250000D01*
X120996666Y-86283333D01*
X120963333Y-86316666D01*
X120930000Y-86383333D01*
X120930000Y-86516666D01*
X120963333Y-86583333D01*
X121363333Y-87183333D02*
X121396666Y-87116666D01*
X121396666Y-86983333D01*
X121363333Y-86916666D01*
X121296666Y-86883333D01*
X121030000Y-86883333D01*
X120963333Y-86916666D01*
X120930000Y-86983333D01*
X120930000Y-87116666D01*
X120963333Y-87183333D01*
X121030000Y-87216666D01*
X121096666Y-87216666D01*
X121163333Y-86883333D01*
X121363333Y-88016666D02*
X121396666Y-88083333D01*
X121396666Y-88216666D01*
X121363333Y-88283333D01*
X121296666Y-88316666D01*
X121263333Y-88316666D01*
X121196666Y-88283333D01*
X121163333Y-88216666D01*
X121163333Y-88116666D01*
X121130000Y-88050000D01*
X121063333Y-88016666D01*
X121030000Y-88016666D01*
X120963333Y-88050000D01*
X120930000Y-88116666D01*
X120930000Y-88216666D01*
X120963333Y-88283333D01*
X121396666Y-88616666D02*
X120696666Y-88616666D01*
X121396666Y-88916666D02*
X121030000Y-88916666D01*
X120963333Y-88883333D01*
X120930000Y-88816666D01*
X120930000Y-88716666D01*
X120963333Y-88650000D01*
X120996666Y-88616666D01*
X121396666Y-89250000D02*
X120930000Y-89250000D01*
X120696666Y-89250000D02*
X120730000Y-89216666D01*
X120763333Y-89250000D01*
X120730000Y-89283333D01*
X120696666Y-89250000D01*
X120763333Y-89250000D01*
X120930000Y-89483333D02*
X120930000Y-89750000D01*
X121396666Y-89583333D02*
X120796666Y-89583333D01*
X120730000Y-89616666D01*
X120696666Y-89683333D01*
X120696666Y-89750000D01*
X120930000Y-89883333D02*
X120930000Y-90150000D01*
X120696666Y-89983333D02*
X121296666Y-89983333D01*
X121363333Y-90016666D01*
X121396666Y-90083333D01*
X121396666Y-90150000D01*
X120663333Y-90883333D02*
X121563333Y-90283333D01*
X121396666Y-91416666D02*
X120696666Y-91416666D01*
X121363333Y-91416666D02*
X121396666Y-91350000D01*
X121396666Y-91216666D01*
X121363333Y-91150000D01*
X121330000Y-91116666D01*
X121263333Y-91083333D01*
X121063333Y-91083333D01*
X120996666Y-91116666D01*
X120963333Y-91150000D01*
X120930000Y-91216666D01*
X120930000Y-91350000D01*
X120963333Y-91416666D01*
X121396666Y-91750000D02*
X120930000Y-91750000D01*
X120696666Y-91750000D02*
X120730000Y-91716666D01*
X120763333Y-91750000D01*
X120730000Y-91783333D01*
X120696666Y-91750000D01*
X120763333Y-91750000D01*
X120930000Y-92016666D02*
X121396666Y-92183333D01*
X120930000Y-92350000D01*
D12*
X120583333Y-103678571D02*
X120440476Y-103726190D01*
X120392857Y-103773809D01*
X120345238Y-103869047D01*
X120345238Y-104011904D01*
X120392857Y-104107142D01*
X120440476Y-104154761D01*
X120535714Y-104202380D01*
X120916666Y-104202380D01*
X120916666Y-103202380D01*
X120583333Y-103202380D01*
X120488095Y-103250000D01*
X120440476Y-103297619D01*
X120392857Y-103392857D01*
X120392857Y-103488095D01*
X120440476Y-103583333D01*
X120488095Y-103630952D01*
X120583333Y-103678571D01*
X120916666Y-103678571D01*
X120059523Y-103535714D02*
X119678571Y-103535714D01*
X119916666Y-103202380D02*
X119916666Y-104059523D01*
X119869047Y-104154761D01*
X119773809Y-104202380D01*
X119678571Y-104202380D01*
X119345238Y-103535714D02*
X119345238Y-104202380D01*
X119345238Y-103630952D02*
X119297619Y-103583333D01*
X119202380Y-103535714D01*
X119059523Y-103535714D01*
X118964285Y-103583333D01*
X118916666Y-103678571D01*
X118916666Y-104202380D01*
X118440476Y-104107142D02*
X118392857Y-104154761D01*
X118440476Y-104202380D01*
X118488095Y-104154761D01*
X118440476Y-104107142D01*
X118440476Y-104202380D01*
X116773809Y-104202380D02*
X116773809Y-103202380D01*
X116773809Y-104154761D02*
X116869047Y-104202380D01*
X117059523Y-104202380D01*
X117154761Y-104154761D01*
X117202380Y-104107142D01*
X117250000Y-104011904D01*
X117250000Y-103726190D01*
X117202380Y-103630952D01*
X117154761Y-103583333D01*
X117059523Y-103535714D01*
X116869047Y-103535714D01*
X116773809Y-103583333D01*
X115916666Y-104154761D02*
X116011904Y-104202380D01*
X116202380Y-104202380D01*
X116297619Y-104154761D01*
X116345238Y-104059523D01*
X116345238Y-103678571D01*
X116297619Y-103583333D01*
X116202380Y-103535714D01*
X116011904Y-103535714D01*
X115916666Y-103583333D01*
X115869047Y-103678571D01*
X115869047Y-103773809D01*
X116345238Y-103869047D01*
X115440476Y-104202380D02*
X115440476Y-103202380D01*
X115440476Y-103583333D02*
X115345238Y-103535714D01*
X115154761Y-103535714D01*
X115059523Y-103583333D01*
X115011904Y-103630952D01*
X114964285Y-103726190D01*
X114964285Y-104011904D01*
X115011904Y-104107142D01*
X115059523Y-104154761D01*
X115154761Y-104202380D01*
X115345238Y-104202380D01*
X115440476Y-104154761D01*
X114392857Y-104202380D02*
X114488095Y-104154761D01*
X114535714Y-104107142D01*
X114583333Y-104011904D01*
X114583333Y-103726190D01*
X114535714Y-103630952D01*
X114488095Y-103583333D01*
X114392857Y-103535714D01*
X114250000Y-103535714D01*
X114154761Y-103583333D01*
X114107142Y-103630952D01*
X114059523Y-103726190D01*
X114059523Y-104011904D01*
X114107142Y-104107142D01*
X114154761Y-104154761D01*
X114250000Y-104202380D01*
X114392857Y-104202380D01*
X113202380Y-103535714D02*
X113202380Y-104202380D01*
X113630952Y-103535714D02*
X113630952Y-104059523D01*
X113583333Y-104154761D01*
X113488095Y-104202380D01*
X113345238Y-104202380D01*
X113250000Y-104154761D01*
X113202380Y-104107142D01*
X112726190Y-103535714D02*
X112726190Y-104202380D01*
X112726190Y-103630952D02*
X112678571Y-103583333D01*
X112583333Y-103535714D01*
X112440476Y-103535714D01*
X112345238Y-103583333D01*
X112297619Y-103678571D01*
X112297619Y-104202380D01*
X111392857Y-104154761D02*
X111488095Y-104202380D01*
X111678571Y-104202380D01*
X111773809Y-104154761D01*
X111821428Y-104107142D01*
X111869047Y-104011904D01*
X111869047Y-103726190D01*
X111821428Y-103630952D01*
X111773809Y-103583333D01*
X111678571Y-103535714D01*
X111488095Y-103535714D01*
X111392857Y-103583333D01*
X110583333Y-104154761D02*
X110678571Y-104202380D01*
X110869047Y-104202380D01*
X110964285Y-104154761D01*
X111011904Y-104059523D01*
X111011904Y-103678571D01*
X110964285Y-103583333D01*
X110869047Y-103535714D01*
X110678571Y-103535714D01*
X110583333Y-103583333D01*
X110535714Y-103678571D01*
X110535714Y-103773809D01*
X111011904Y-103869047D01*
X109500000Y-104750000D02*
X109500000Y-103000000D01*
X122000000Y-104750000D02*
X109500000Y-104750000D01*
X122000000Y-103000000D02*
X122000000Y-104750000D01*
X121250000Y-106750000D02*
X120750000Y-106750000D01*
X121250000Y-123500000D02*
X121250000Y-106750000D01*
X120250000Y-123500000D02*
X121250000Y-123500000D01*
X120250000Y-106750000D02*
X120750000Y-106750000D01*
X110250000Y-106750000D02*
X110750000Y-106750000D01*
X110250000Y-123500000D02*
X110250000Y-106750000D01*
X110750000Y-123500000D02*
X110250000Y-123500000D01*
X120583333Y-122702380D02*
X120583333Y-121702380D01*
X120202380Y-121702380D01*
X120107142Y-121750000D01*
X120059523Y-121797619D01*
X120011904Y-121892857D01*
X120011904Y-122035714D01*
X120059523Y-122130952D01*
X120107142Y-122178571D01*
X120202380Y-122226190D01*
X120583333Y-122226190D01*
X119440476Y-122702380D02*
X119535714Y-122654761D01*
X119583333Y-122607142D01*
X119630952Y-122511904D01*
X119630952Y-122226190D01*
X119583333Y-122130952D01*
X119535714Y-122083333D01*
X119440476Y-122035714D01*
X119297619Y-122035714D01*
X119202380Y-122083333D01*
X119154761Y-122130952D01*
X119107142Y-122226190D01*
X119107142Y-122511904D01*
X119154761Y-122607142D01*
X119202380Y-122654761D01*
X119297619Y-122702380D01*
X119440476Y-122702380D01*
X118773809Y-122035714D02*
X118583333Y-122702380D01*
X118392857Y-122226190D01*
X118202380Y-122702380D01*
X118011904Y-122035714D01*
X117250000Y-122654761D02*
X117345238Y-122702380D01*
X117535714Y-122702380D01*
X117630952Y-122654761D01*
X117678571Y-122559523D01*
X117678571Y-122178571D01*
X117630952Y-122083333D01*
X117535714Y-122035714D01*
X117345238Y-122035714D01*
X117250000Y-122083333D01*
X117202380Y-122178571D01*
X117202380Y-122273809D01*
X117678571Y-122369047D01*
X116773809Y-122702380D02*
X116773809Y-122035714D01*
X116773809Y-122226190D02*
X116726190Y-122130952D01*
X116678571Y-122083333D01*
X116583333Y-122035714D01*
X116488095Y-122035714D01*
X115440476Y-122654761D02*
X115297619Y-122702380D01*
X115059523Y-122702380D01*
X114964285Y-122654761D01*
X114916666Y-122607142D01*
X114869047Y-122511904D01*
X114869047Y-122416666D01*
X114916666Y-122321428D01*
X114964285Y-122273809D01*
X115059523Y-122226190D01*
X115250000Y-122178571D01*
X115345238Y-122130952D01*
X115392857Y-122083333D01*
X115440476Y-121988095D01*
X115440476Y-121892857D01*
X115392857Y-121797619D01*
X115345238Y-121750000D01*
X115250000Y-121702380D01*
X115011904Y-121702380D01*
X114869047Y-121750000D01*
X114011904Y-122035714D02*
X114011904Y-122702380D01*
X114440476Y-122035714D02*
X114440476Y-122559523D01*
X114392857Y-122654761D01*
X114297619Y-122702380D01*
X114154761Y-122702380D01*
X114059523Y-122654761D01*
X114011904Y-122607142D01*
X113535714Y-122035714D02*
X113535714Y-123035714D01*
X113535714Y-122083333D02*
X113440476Y-122035714D01*
X113250000Y-122035714D01*
X113154761Y-122083333D01*
X113107142Y-122130952D01*
X113059523Y-122226190D01*
X113059523Y-122511904D01*
X113107142Y-122607142D01*
X113154761Y-122654761D01*
X113250000Y-122702380D01*
X113440476Y-122702380D01*
X113535714Y-122654761D01*
X112630952Y-122035714D02*
X112630952Y-123035714D01*
X112630952Y-122083333D02*
X112535714Y-122035714D01*
X112345238Y-122035714D01*
X112250000Y-122083333D01*
X112202380Y-122130952D01*
X112154761Y-122226190D01*
X112154761Y-122511904D01*
X112202380Y-122607142D01*
X112250000Y-122654761D01*
X112345238Y-122702380D01*
X112535714Y-122702380D01*
X112630952Y-122654761D01*
X111583333Y-122702380D02*
X111678571Y-122654761D01*
X111726190Y-122559523D01*
X111726190Y-121702380D01*
X111297619Y-122035714D02*
X111059523Y-122702380D01*
X110821428Y-122035714D02*
X111059523Y-122702380D01*
X111154761Y-122940476D01*
X111202380Y-122988095D01*
X111297619Y-123035714D01*
X110750000Y-106750000D02*
X111000000Y-106750000D01*
X120250000Y-123500000D02*
X110750000Y-123500000D01*
X111000000Y-106750000D02*
X120250000Y-106750000D01*
X109500000Y-103000000D02*
X109500000Y-93500000D01*
X122000000Y-93500000D02*
X122000000Y-103000000D01*
X121250000Y-93500000D02*
X122000000Y-93500000D01*
X109500000Y-93500000D02*
X121250000Y-93500000D01*
X109500000Y-93000000D02*
X109500000Y-90750000D01*
X121250000Y-93000000D02*
X109500000Y-93000000D01*
X109500000Y-83250000D02*
X110000000Y-83250000D01*
X109500000Y-90750000D02*
X109500000Y-83250000D01*
X110000000Y-83250000D02*
X121250000Y-83250000D01*
X88414404Y-106477380D02*
X88414404Y-105477380D01*
X88414404Y-105858333D02*
X88319166Y-105810714D01*
X88128690Y-105810714D01*
X88033452Y-105858333D01*
X87985833Y-105905952D01*
X87938214Y-106001190D01*
X87938214Y-106286904D01*
X87985833Y-106382142D01*
X88033452Y-106429761D01*
X88128690Y-106477380D01*
X88319166Y-106477380D01*
X88414404Y-106429761D01*
X87366785Y-106477380D02*
X87462023Y-106429761D01*
X87509642Y-106382142D01*
X87557261Y-106286904D01*
X87557261Y-106001190D01*
X87509642Y-105905952D01*
X87462023Y-105858333D01*
X87366785Y-105810714D01*
X87223928Y-105810714D01*
X87128690Y-105858333D01*
X87081071Y-105905952D01*
X87033452Y-106001190D01*
X87033452Y-106286904D01*
X87081071Y-106382142D01*
X87128690Y-106429761D01*
X87223928Y-106477380D01*
X87366785Y-106477380D01*
X86462023Y-106477380D02*
X86557261Y-106429761D01*
X86604880Y-106382142D01*
X86652500Y-106286904D01*
X86652500Y-106001190D01*
X86604880Y-105905952D01*
X86557261Y-105858333D01*
X86462023Y-105810714D01*
X86319166Y-105810714D01*
X86223928Y-105858333D01*
X86176309Y-105905952D01*
X86128690Y-106001190D01*
X86128690Y-106286904D01*
X86176309Y-106382142D01*
X86223928Y-106429761D01*
X86319166Y-106477380D01*
X86462023Y-106477380D01*
X85842976Y-105810714D02*
X85462023Y-105810714D01*
X85700119Y-105477380D02*
X85700119Y-106334523D01*
X85652500Y-106429761D01*
X85557261Y-106477380D01*
X85462023Y-106477380D01*
X88462023Y-108079761D02*
X88366785Y-108127380D01*
X88176309Y-108127380D01*
X88081071Y-108079761D01*
X88033452Y-107984523D01*
X88033452Y-107936904D01*
X88081071Y-107841666D01*
X88176309Y-107794047D01*
X88319166Y-107794047D01*
X88414404Y-107746428D01*
X88462023Y-107651190D01*
X88462023Y-107603571D01*
X88414404Y-107508333D01*
X88319166Y-107460714D01*
X88176309Y-107460714D01*
X88081071Y-107508333D01*
X87223928Y-108079761D02*
X87319166Y-108127380D01*
X87509642Y-108127380D01*
X87604880Y-108079761D01*
X87652500Y-107984523D01*
X87652500Y-107603571D01*
X87604880Y-107508333D01*
X87509642Y-107460714D01*
X87319166Y-107460714D01*
X87223928Y-107508333D01*
X87176309Y-107603571D01*
X87176309Y-107698809D01*
X87652500Y-107794047D01*
X86604880Y-108127380D02*
X86700119Y-108079761D01*
X86747738Y-107984523D01*
X86747738Y-107127380D01*
X85842976Y-108079761D02*
X85938214Y-108127380D01*
X86128690Y-108127380D01*
X86223928Y-108079761D01*
X86271547Y-107984523D01*
X86271547Y-107603571D01*
X86223928Y-107508333D01*
X86128690Y-107460714D01*
X85938214Y-107460714D01*
X85842976Y-107508333D01*
X85795357Y-107603571D01*
X85795357Y-107698809D01*
X86271547Y-107794047D01*
X84938214Y-108079761D02*
X85033452Y-108127380D01*
X85223928Y-108127380D01*
X85319166Y-108079761D01*
X85366785Y-108032142D01*
X85414404Y-107936904D01*
X85414404Y-107651190D01*
X85366785Y-107555952D01*
X85319166Y-107508333D01*
X85223928Y-107460714D01*
X85033452Y-107460714D01*
X84938214Y-107508333D01*
X84652500Y-107460714D02*
X84271547Y-107460714D01*
X84509642Y-107127380D02*
X84509642Y-107984523D01*
X84462023Y-108079761D01*
X84366785Y-108127380D01*
X84271547Y-108127380D01*
X83938214Y-108127380D02*
X83938214Y-107460714D01*
X83938214Y-107127380D02*
X83985833Y-107175000D01*
X83938214Y-107222619D01*
X83890595Y-107175000D01*
X83938214Y-107127380D01*
X83938214Y-107222619D01*
X83319166Y-108127380D02*
X83414404Y-108079761D01*
X83462023Y-108032142D01*
X83509642Y-107936904D01*
X83509642Y-107651190D01*
X83462023Y-107555952D01*
X83414404Y-107508333D01*
X83319166Y-107460714D01*
X83176309Y-107460714D01*
X83081071Y-107508333D01*
X83033452Y-107555952D01*
X82985833Y-107651190D01*
X82985833Y-107936904D01*
X83033452Y-108032142D01*
X83081071Y-108079761D01*
X83176309Y-108127380D01*
X83319166Y-108127380D01*
X82557261Y-107460714D02*
X82557261Y-108127380D01*
X82557261Y-107555952D02*
X82509642Y-107508333D01*
X82414404Y-107460714D01*
X82271547Y-107460714D01*
X82176309Y-107508333D01*
X82128690Y-107603571D01*
X82128690Y-108127380D01*
X89000000Y-105000000D02*
X74000000Y-105000000D01*
X74000000Y-122000000D02*
X74000000Y-105000000D01*
X89500000Y-122000000D02*
X74000000Y-122000000D01*
X89500000Y-105000000D02*
X89500000Y-122000000D01*
X89000000Y-105000000D02*
X89500000Y-105000000D01*
X77452380Y-112761904D02*
X77452380Y-113380952D01*
X77833333Y-113047619D01*
X77833333Y-113190476D01*
X77880952Y-113285714D01*
X77928571Y-113333333D01*
X78023809Y-113380952D01*
X78261904Y-113380952D01*
X78357142Y-113333333D01*
X78404761Y-113285714D01*
X78452380Y-113190476D01*
X78452380Y-112904761D01*
X78404761Y-112809523D01*
X78357142Y-112761904D01*
X77452380Y-113666666D02*
X78452380Y-114000000D01*
X77452380Y-114333333D01*
X77452380Y-114571428D02*
X77452380Y-115190476D01*
X77833333Y-114857142D01*
X77833333Y-115000000D01*
X77880952Y-115095238D01*
X77928571Y-115142857D01*
X78023809Y-115190476D01*
X78261904Y-115190476D01*
X78357142Y-115142857D01*
X78404761Y-115095238D01*
X78452380Y-115000000D01*
X78452380Y-114714285D01*
X78404761Y-114619047D01*
X78357142Y-114571428D01*
X75428571Y-112666666D02*
X75476190Y-112809523D01*
X75523809Y-112857142D01*
X75619047Y-112904761D01*
X75761904Y-112904761D01*
X75857142Y-112857142D01*
X75904761Y-112809523D01*
X75952380Y-112714285D01*
X75952380Y-112333333D01*
X74952380Y-112333333D01*
X74952380Y-112666666D01*
X75000000Y-112761904D01*
X75047619Y-112809523D01*
X75142857Y-112857142D01*
X75238095Y-112857142D01*
X75333333Y-112809523D01*
X75380952Y-112761904D01*
X75428571Y-112666666D01*
X75428571Y-112333333D01*
X74952380Y-113523809D02*
X74952380Y-113714285D01*
X75000000Y-113809523D01*
X75095238Y-113904761D01*
X75285714Y-113952380D01*
X75619047Y-113952380D01*
X75809523Y-113904761D01*
X75904761Y-113809523D01*
X75952380Y-113714285D01*
X75952380Y-113523809D01*
X75904761Y-113428571D01*
X75809523Y-113333333D01*
X75619047Y-113285714D01*
X75285714Y-113285714D01*
X75095238Y-113333333D01*
X75000000Y-113428571D01*
X74952380Y-113523809D01*
X74952380Y-114571428D02*
X74952380Y-114761904D01*
X75000000Y-114857142D01*
X75095238Y-114952380D01*
X75285714Y-115000000D01*
X75619047Y-115000000D01*
X75809523Y-114952380D01*
X75904761Y-114857142D01*
X75952380Y-114761904D01*
X75952380Y-114571428D01*
X75904761Y-114476190D01*
X75809523Y-114380952D01*
X75619047Y-114333333D01*
X75285714Y-114333333D01*
X75095238Y-114380952D01*
X75000000Y-114476190D01*
X74952380Y-114571428D01*
X74952380Y-115285714D02*
X74952380Y-115857142D01*
X75952380Y-115571428D02*
X74952380Y-115571428D01*
X74952380Y-116380952D02*
X74952380Y-116476190D01*
X75000000Y-116571428D01*
X75047619Y-116619047D01*
X75142857Y-116666666D01*
X75333333Y-116714285D01*
X75571428Y-116714285D01*
X75761904Y-116666666D01*
X75857142Y-116619047D01*
X75904761Y-116571428D01*
X75952380Y-116476190D01*
X75952380Y-116380952D01*
X75904761Y-116285714D01*
X75857142Y-116238095D01*
X75761904Y-116190476D01*
X75571428Y-116142857D01*
X75333333Y-116142857D01*
X75142857Y-116190476D01*
X75047619Y-116238095D01*
X75000000Y-116285714D01*
X74952380Y-116380952D01*
X110880952Y-89452380D02*
X110976190Y-89404761D01*
X111023809Y-89357142D01*
X111071428Y-89261904D01*
X111071428Y-88976190D01*
X111023809Y-88880952D01*
X110976190Y-88833333D01*
X110880952Y-88785714D01*
X110738095Y-88785714D01*
X110642857Y-88833333D01*
X110595238Y-88880952D01*
X110547619Y-88976190D01*
X110547619Y-89261904D01*
X110595238Y-89357142D01*
X110642857Y-89404761D01*
X110738095Y-89452380D01*
X110880952Y-89452380D01*
X110119047Y-89452380D02*
X110119047Y-88785714D01*
X110119047Y-88976190D02*
X110071428Y-88880952D01*
X110023809Y-88833333D01*
X109928571Y-88785714D01*
X109833333Y-88785714D01*
X110880952Y-86452380D02*
X110976190Y-86404761D01*
X111023809Y-86357142D01*
X111071428Y-86261904D01*
X111071428Y-85976190D01*
X111023809Y-85880952D01*
X110976190Y-85833333D01*
X110880952Y-85785714D01*
X110738095Y-85785714D01*
X110642857Y-85833333D01*
X110595238Y-85880952D01*
X110547619Y-85976190D01*
X110547619Y-86261904D01*
X110595238Y-86357142D01*
X110642857Y-86404761D01*
X110738095Y-86452380D01*
X110880952Y-86452380D01*
X110119047Y-86452380D02*
X110119047Y-85785714D01*
X110119047Y-85976190D02*
X110071428Y-85880952D01*
X110023809Y-85833333D01*
X109928571Y-85785714D01*
X109833333Y-85785714D01*
X85047619Y-102952380D02*
X85380952Y-102476190D01*
X85619047Y-102952380D02*
X85619047Y-101952380D01*
X85238095Y-101952380D01*
X85142857Y-102000000D01*
X85095238Y-102047619D01*
X85047619Y-102142857D01*
X85047619Y-102285714D01*
X85095238Y-102380952D01*
X85142857Y-102428571D01*
X85238095Y-102476190D01*
X85619047Y-102476190D01*
X84666666Y-102904761D02*
X84523809Y-102952380D01*
X84285714Y-102952380D01*
X84190476Y-102904761D01*
X84142857Y-102857142D01*
X84095238Y-102761904D01*
X84095238Y-102666666D01*
X84142857Y-102571428D01*
X84190476Y-102523809D01*
X84285714Y-102476190D01*
X84476190Y-102428571D01*
X84571428Y-102380952D01*
X84619047Y-102333333D01*
X84666666Y-102238095D01*
X84666666Y-102142857D01*
X84619047Y-102047619D01*
X84571428Y-102000000D01*
X84476190Y-101952380D01*
X84238095Y-101952380D01*
X84095238Y-102000000D01*
X83809523Y-101952380D02*
X83238095Y-101952380D01*
X83523809Y-102952380D02*
X83523809Y-101952380D01*
X85523809Y-100952380D02*
X85523809Y-99952380D01*
X85285714Y-99952380D01*
X85142857Y-100000000D01*
X85047619Y-100095238D01*
X85000000Y-100190476D01*
X84952380Y-100380952D01*
X84952380Y-100523809D01*
X85000000Y-100714285D01*
X85047619Y-100809523D01*
X85142857Y-100904761D01*
X85285714Y-100952380D01*
X85523809Y-100952380D01*
X84523809Y-100952380D02*
X84523809Y-99952380D01*
X83857142Y-99952380D02*
X83666666Y-99952380D01*
X83571428Y-100000000D01*
X83476190Y-100095238D01*
X83428571Y-100285714D01*
X83428571Y-100619047D01*
X83476190Y-100809523D01*
X83571428Y-100904761D01*
X83666666Y-100952380D01*
X83857142Y-100952380D01*
X83952380Y-100904761D01*
X84047619Y-100809523D01*
X84095238Y-100619047D01*
X84095238Y-100285714D01*
X84047619Y-100095238D01*
X83952380Y-100000000D01*
X83857142Y-99952380D01*
X85095238Y-99357142D02*
X85142857Y-99404761D01*
X85285714Y-99452380D01*
X85380952Y-99452380D01*
X85523809Y-99404761D01*
X85619047Y-99309523D01*
X85666666Y-99214285D01*
X85714285Y-99023809D01*
X85714285Y-98880952D01*
X85666666Y-98690476D01*
X85619047Y-98595238D01*
X85523809Y-98500000D01*
X85380952Y-98452380D01*
X85285714Y-98452380D01*
X85142857Y-98500000D01*
X85095238Y-98547619D01*
X84190476Y-99452380D02*
X84666666Y-99452380D01*
X84666666Y-98452380D01*
X83857142Y-99452380D02*
X83857142Y-98452380D01*
X83285714Y-99452380D02*
X83714285Y-98880952D01*
X83285714Y-98452380D02*
X83857142Y-99023809D01*
X85261904Y-96500000D02*
X85357142Y-96452380D01*
X85500000Y-96452380D01*
X85642857Y-96500000D01*
X85738095Y-96595238D01*
X85785714Y-96690476D01*
X85833333Y-96880952D01*
X85833333Y-97023809D01*
X85785714Y-97214285D01*
X85738095Y-97309523D01*
X85642857Y-97404761D01*
X85500000Y-97452380D01*
X85404761Y-97452380D01*
X85261904Y-97404761D01*
X85214285Y-97357142D01*
X85214285Y-97023809D01*
X85404761Y-97023809D01*
X84785714Y-97452380D02*
X84785714Y-96452380D01*
X84214285Y-97452380D01*
X84214285Y-96452380D01*
X83738095Y-97452380D02*
X83738095Y-96452380D01*
X83500000Y-96452380D01*
X83357142Y-96500000D01*
X83261904Y-96595238D01*
X83214285Y-96690476D01*
X83166666Y-96880952D01*
X83166666Y-97023809D01*
X83214285Y-97214285D01*
X83261904Y-97309523D01*
X83357142Y-97404761D01*
X83500000Y-97452380D01*
X83738095Y-97452380D01*
D11*
X129000000Y-105000000D02*
X130000000Y-105000000D01*
X129000000Y-95000000D02*
X129000000Y-105000000D01*
X130000000Y-95000000D02*
X129000000Y-95000000D01*
D12*
X100130952Y-83377380D02*
X100130952Y-82710714D01*
X100130952Y-82901190D02*
X100083333Y-82805952D01*
X100035714Y-82758333D01*
X99940476Y-82710714D01*
X99845238Y-82710714D01*
X99130952Y-83329761D02*
X99226190Y-83377380D01*
X99416666Y-83377380D01*
X99511904Y-83329761D01*
X99559523Y-83234523D01*
X99559523Y-82853571D01*
X99511904Y-82758333D01*
X99416666Y-82710714D01*
X99226190Y-82710714D01*
X99130952Y-82758333D01*
X99083333Y-82853571D01*
X99083333Y-82948809D01*
X99559523Y-83044047D01*
X98750000Y-82710714D02*
X98511904Y-83377380D01*
X98273809Y-82710714D01*
X100011904Y-84027380D02*
X99916666Y-84027380D01*
X99821428Y-84075000D01*
X99773809Y-84122619D01*
X99726190Y-84217857D01*
X99678571Y-84408333D01*
X99678571Y-84646428D01*
X99726190Y-84836904D01*
X99773809Y-84932142D01*
X99821428Y-84979761D01*
X99916666Y-85027380D01*
X100011904Y-85027380D01*
X100107142Y-84979761D01*
X100154761Y-84932142D01*
X100202380Y-84836904D01*
X100250000Y-84646428D01*
X100250000Y-84408333D01*
X100202380Y-84217857D01*
X100154761Y-84122619D01*
X100107142Y-84075000D01*
X100011904Y-84027380D01*
X99250000Y-84932142D02*
X99202380Y-84979761D01*
X99250000Y-85027380D01*
X99297619Y-84979761D01*
X99250000Y-84932142D01*
X99250000Y-85027380D01*
X98345238Y-84360714D02*
X98345238Y-85027380D01*
X98583333Y-83979761D02*
X98821428Y-84694047D01*
X98202380Y-84694047D01*
X86776190Y-124508333D02*
X86823809Y-124460714D01*
X86919047Y-124317857D01*
X86966666Y-124222619D01*
X87014285Y-124079761D01*
X87061904Y-123841666D01*
X87061904Y-123651190D01*
X87014285Y-123413095D01*
X86966666Y-123270238D01*
X86919047Y-123175000D01*
X86823809Y-123032142D01*
X86776190Y-122984523D01*
X85966666Y-124079761D02*
X86061904Y-124127380D01*
X86252380Y-124127380D01*
X86347619Y-124079761D01*
X86395238Y-124032142D01*
X86442857Y-123936904D01*
X86442857Y-123651190D01*
X86395238Y-123555952D01*
X86347619Y-123508333D01*
X86252380Y-123460714D01*
X86061904Y-123460714D01*
X85966666Y-123508333D01*
X85633333Y-124508333D02*
X85585714Y-124460714D01*
X85490476Y-124317857D01*
X85442857Y-124222619D01*
X85395238Y-124079761D01*
X85347619Y-123841666D01*
X85347619Y-123651190D01*
X85395238Y-123413095D01*
X85442857Y-123270238D01*
X85490476Y-123175000D01*
X85585714Y-123032142D01*
X85633333Y-122984523D01*
X84919047Y-123222619D02*
X84871428Y-123175000D01*
X84776190Y-123127380D01*
X84538095Y-123127380D01*
X84442857Y-123175000D01*
X84395238Y-123222619D01*
X84347619Y-123317857D01*
X84347619Y-123413095D01*
X84395238Y-123555952D01*
X84966666Y-124127380D01*
X84347619Y-124127380D01*
X83728571Y-123127380D02*
X83633333Y-123127380D01*
X83538095Y-123175000D01*
X83490476Y-123222619D01*
X83442857Y-123317857D01*
X83395238Y-123508333D01*
X83395238Y-123746428D01*
X83442857Y-123936904D01*
X83490476Y-124032142D01*
X83538095Y-124079761D01*
X83633333Y-124127380D01*
X83728571Y-124127380D01*
X83823809Y-124079761D01*
X83871428Y-124032142D01*
X83919047Y-123936904D01*
X83966666Y-123746428D01*
X83966666Y-123508333D01*
X83919047Y-123317857D01*
X83871428Y-123222619D01*
X83823809Y-123175000D01*
X83728571Y-123127380D01*
X82442857Y-124127380D02*
X83014285Y-124127380D01*
X82728571Y-124127380D02*
X82728571Y-123127380D01*
X82823809Y-123270238D01*
X82919047Y-123365476D01*
X83014285Y-123413095D01*
X81871428Y-123555952D02*
X81966666Y-123508333D01*
X82014285Y-123460714D01*
X82061904Y-123365476D01*
X82061904Y-123317857D01*
X82014285Y-123222619D01*
X81966666Y-123175000D01*
X81871428Y-123127380D01*
X81680952Y-123127380D01*
X81585714Y-123175000D01*
X81538095Y-123222619D01*
X81490476Y-123317857D01*
X81490476Y-123365476D01*
X81538095Y-123460714D01*
X81585714Y-123508333D01*
X81680952Y-123555952D01*
X81871428Y-123555952D01*
X81966666Y-123603571D01*
X82014285Y-123651190D01*
X82061904Y-123746428D01*
X82061904Y-123936904D01*
X82014285Y-124032142D01*
X81966666Y-124079761D01*
X81871428Y-124127380D01*
X81680952Y-124127380D01*
X81585714Y-124079761D01*
X81538095Y-124032142D01*
X81490476Y-123936904D01*
X81490476Y-123746428D01*
X81538095Y-123651190D01*
X81585714Y-123603571D01*
X81680952Y-123555952D01*
X86323809Y-125253571D02*
X86180952Y-125301190D01*
X86133333Y-125348809D01*
X86085714Y-125444047D01*
X86085714Y-125586904D01*
X86133333Y-125682142D01*
X86180952Y-125729761D01*
X86276190Y-125777380D01*
X86657142Y-125777380D01*
X86657142Y-124777380D01*
X86323809Y-124777380D01*
X86228571Y-124825000D01*
X86180952Y-124872619D01*
X86133333Y-124967857D01*
X86133333Y-125063095D01*
X86180952Y-125158333D01*
X86228571Y-125205952D01*
X86323809Y-125253571D01*
X86657142Y-125253571D01*
X85228571Y-125777380D02*
X85228571Y-125253571D01*
X85276190Y-125158333D01*
X85371428Y-125110714D01*
X85561904Y-125110714D01*
X85657142Y-125158333D01*
X85228571Y-125729761D02*
X85323809Y-125777380D01*
X85561904Y-125777380D01*
X85657142Y-125729761D01*
X85704761Y-125634523D01*
X85704761Y-125539285D01*
X85657142Y-125444047D01*
X85561904Y-125396428D01*
X85323809Y-125396428D01*
X85228571Y-125348809D01*
X84323809Y-125777380D02*
X84323809Y-124777380D01*
X84323809Y-125729761D02*
X84419047Y-125777380D01*
X84609523Y-125777380D01*
X84704761Y-125729761D01*
X84752380Y-125682142D01*
X84800000Y-125586904D01*
X84800000Y-125301190D01*
X84752380Y-125205952D01*
X84704761Y-125158333D01*
X84609523Y-125110714D01*
X84419047Y-125110714D01*
X84323809Y-125158333D01*
X83419047Y-125110714D02*
X83419047Y-125920238D01*
X83466666Y-126015476D01*
X83514285Y-126063095D01*
X83609523Y-126110714D01*
X83752380Y-126110714D01*
X83847619Y-126063095D01*
X83419047Y-125729761D02*
X83514285Y-125777380D01*
X83704761Y-125777380D01*
X83800000Y-125729761D01*
X83847619Y-125682142D01*
X83895238Y-125586904D01*
X83895238Y-125301190D01*
X83847619Y-125205952D01*
X83800000Y-125158333D01*
X83704761Y-125110714D01*
X83514285Y-125110714D01*
X83419047Y-125158333D01*
X82561904Y-125729761D02*
X82657142Y-125777380D01*
X82847619Y-125777380D01*
X82942857Y-125729761D01*
X82990476Y-125634523D01*
X82990476Y-125253571D01*
X82942857Y-125158333D01*
X82847619Y-125110714D01*
X82657142Y-125110714D01*
X82561904Y-125158333D01*
X82514285Y-125253571D01*
X82514285Y-125348809D01*
X82990476Y-125444047D01*
X82085714Y-125777380D02*
X82085714Y-125110714D01*
X82085714Y-125301190D02*
X82038095Y-125205952D01*
X81990476Y-125158333D01*
X81895238Y-125110714D01*
X81800000Y-125110714D01*
D13*
X108273809Y-81904761D02*
X108273809Y-79904761D01*
X107797619Y-79904761D01*
X107511904Y-80000000D01*
X107321428Y-80190476D01*
X107226190Y-80380952D01*
X107130952Y-80761904D01*
X107130952Y-81047619D01*
X107226190Y-81428571D01*
X107321428Y-81619047D01*
X107511904Y-81809523D01*
X107797619Y-81904761D01*
X108273809Y-81904761D01*
X105988095Y-81904761D02*
X106178571Y-81809523D01*
X106273809Y-81714285D01*
X106369047Y-81523809D01*
X106369047Y-80952380D01*
X106273809Y-80761904D01*
X106178571Y-80666666D01*
X105988095Y-80571428D01*
X105702380Y-80571428D01*
X105511904Y-80666666D01*
X105416666Y-80761904D01*
X105321428Y-80952380D01*
X105321428Y-81523809D01*
X105416666Y-81714285D01*
X105511904Y-81809523D01*
X105702380Y-81904761D01*
X105988095Y-81904761D01*
X104750000Y-80571428D02*
X103988095Y-80571428D01*
X104464285Y-79904761D02*
X104464285Y-81619047D01*
X104369047Y-81809523D01*
X104178571Y-81904761D01*
X103988095Y-81904761D01*
X103321428Y-81904761D02*
X103321428Y-79904761D01*
X102654761Y-81333333D01*
X101988095Y-79904761D01*
X101988095Y-81904761D01*
X100178571Y-81904761D02*
X100178571Y-80857142D01*
X100273809Y-80666666D01*
X100464285Y-80571428D01*
X100845238Y-80571428D01*
X101035714Y-80666666D01*
X100178571Y-81809523D02*
X100369047Y-81904761D01*
X100845238Y-81904761D01*
X101035714Y-81809523D01*
X101130952Y-81619047D01*
X101130952Y-81428571D01*
X101035714Y-81238095D01*
X100845238Y-81142857D01*
X100369047Y-81142857D01*
X100178571Y-81047619D01*
X99511904Y-80571428D02*
X98750000Y-80571428D01*
X99226190Y-79904761D02*
X99226190Y-81619047D01*
X99130952Y-81809523D01*
X98940476Y-81904761D01*
X98750000Y-81904761D01*
X98083333Y-81904761D02*
X98083333Y-80571428D01*
X98083333Y-80952380D02*
X97988095Y-80761904D01*
X97892857Y-80666666D01*
X97702380Y-80571428D01*
X97511904Y-80571428D01*
X96845238Y-81904761D02*
X96845238Y-80571428D01*
X96845238Y-79904761D02*
X96940476Y-80000000D01*
X96845238Y-80095238D01*
X96750000Y-80000000D01*
X96845238Y-79904761D01*
X96845238Y-80095238D01*
X96083333Y-81904761D02*
X95035714Y-80571428D01*
X96083333Y-80571428D02*
X95035714Y-81904761D01*
D12*
X98500000Y-128500000D02*
X98500000Y-129700000D01*
X98500000Y-129700000D02*
X101500000Y-129700000D01*
X101500000Y-129700000D02*
X101500000Y-128500000D01*
X97500000Y-128500000D02*
X102500000Y-128500000D01*
X96500000Y-126200000D02*
X96500000Y-127100000D01*
X96500000Y-126200000D02*
X97100000Y-126200000D01*
X98700000Y-126200000D02*
X101300000Y-126200000D01*
X102900000Y-126200000D02*
X103500000Y-126200000D01*
X103500000Y-127100000D02*
X103500000Y-126200000D01*
D14*
X94980000Y-127400000D02*
X94980000Y-130060000D01*
X84760000Y-127400000D02*
X94980000Y-127400000D01*
X84760000Y-130060000D02*
X94980000Y-130060000D01*
X84760000Y-127400000D02*
X84760000Y-130060000D01*
X83490000Y-127400000D02*
X82160000Y-127400000D01*
X82160000Y-127400000D02*
X82160000Y-128730000D01*
X118750000Y-88500000D02*
X118750000Y-90500000D01*
X118750000Y-90500000D02*
X114850000Y-90500000D01*
X118750000Y-88500000D02*
X114850000Y-88500000D01*
X80290000Y-94870000D02*
X80290000Y-105150000D01*
X80290000Y-105150000D02*
X77630000Y-105150000D01*
X77630000Y-105150000D02*
X77630000Y-94870000D01*
X77630000Y-94870000D02*
X80290000Y-94870000D01*
X77630000Y-95820000D02*
X71630000Y-95820000D01*
X71630000Y-95820000D02*
X71630000Y-96580000D01*
X71630000Y-96580000D02*
X77630000Y-96580000D01*
X77630000Y-95880000D02*
X71630000Y-95880000D01*
X77630000Y-96000000D02*
X71630000Y-96000000D01*
X77630000Y-96120000D02*
X71630000Y-96120000D01*
X77630000Y-96240000D02*
X71630000Y-96240000D01*
X77630000Y-96360000D02*
X71630000Y-96360000D01*
X77630000Y-96480000D02*
X71630000Y-96480000D01*
X80620000Y-95820000D02*
X80290000Y-95820000D01*
X80620000Y-96580000D02*
X80290000Y-96580000D01*
X80290000Y-97470000D02*
X77630000Y-97470000D01*
X77630000Y-98360000D02*
X71630000Y-98360000D01*
X71630000Y-98360000D02*
X71630000Y-99120000D01*
X71630000Y-99120000D02*
X77630000Y-99120000D01*
X80687071Y-98360000D02*
X80290000Y-98360000D01*
X80687071Y-99120000D02*
X80290000Y-99120000D01*
X80290000Y-100010000D02*
X77630000Y-100010000D01*
X77630000Y-100900000D02*
X71630000Y-100900000D01*
X71630000Y-100900000D02*
X71630000Y-101660000D01*
X71630000Y-101660000D02*
X77630000Y-101660000D01*
X80687071Y-100900000D02*
X80290000Y-100900000D01*
X80687071Y-101660000D02*
X80290000Y-101660000D01*
X80290000Y-102550000D02*
X77630000Y-102550000D01*
X77630000Y-103440000D02*
X71630000Y-103440000D01*
X71630000Y-103440000D02*
X71630000Y-104200000D01*
X71630000Y-104200000D02*
X77630000Y-104200000D01*
X80687071Y-103440000D02*
X80290000Y-103440000D01*
X80687071Y-104200000D02*
X80290000Y-104200000D01*
X83000000Y-96200000D02*
X83000000Y-94930000D01*
X83000000Y-94930000D02*
X81730000Y-94930000D01*
X129830000Y-95650000D02*
X129830000Y-104350000D01*
X123420000Y-95650000D02*
X123420000Y-104350000D01*
X123420000Y-104350000D02*
X129830000Y-104350000D01*
X128600000Y-104350000D02*
X128600000Y-95650000D01*
X129830000Y-95650000D02*
X123420000Y-95650000D01*
X120750000Y-74000000D02*
X120750000Y-70800000D01*
X119250000Y-70800000D02*
X119250000Y-74000000D01*
X119250000Y-70800000D02*
X120750000Y-70800000D01*
X115900000Y-80630000D02*
X117100000Y-80630000D01*
X117100000Y-78870000D02*
X115900000Y-78870000D01*
X82300000Y-116830000D02*
X83500000Y-116830000D01*
X83500000Y-115070000D02*
X82300000Y-115070000D01*
X116500000Y-115150000D02*
X117500000Y-115150000D01*
X117500000Y-116850000D02*
X116500000Y-116850000D01*
X117500000Y-109850000D02*
X116500000Y-109850000D01*
X116500000Y-108150000D02*
X117500000Y-108150000D01*
X116000000Y-96150000D02*
X117000000Y-96150000D01*
X117000000Y-97850000D02*
X116000000Y-97850000D01*
X115900000Y-95380000D02*
X117100000Y-95380000D01*
X117100000Y-93620000D02*
X115900000Y-93620000D01*
X117760000Y-110920000D02*
X117760000Y-111850000D01*
X117760000Y-114080000D02*
X117760000Y-113150000D01*
X117760000Y-114080000D02*
X115600000Y-114080000D01*
X117760000Y-110920000D02*
X116300000Y-110920000D01*
D12*
X83373476Y-87000000D02*
X83691674Y-86681802D01*
X88500000Y-92126524D02*
X88871231Y-91755293D01*
X93626524Y-87000000D02*
X93255293Y-87371231D01*
X88500000Y-81873476D02*
X88128769Y-82244707D01*
X83373476Y-87000000D02*
X83744707Y-87371231D01*
X88500000Y-81873476D02*
X88871231Y-82244707D01*
X93626524Y-87000000D02*
X93255293Y-86628769D01*
X88500000Y-92126524D02*
X88128769Y-91755293D01*
X83691674Y-86681802D02*
X82719402Y-85709530D01*
D14*
X94980000Y-69940000D02*
X94980000Y-72600000D01*
X84760000Y-69940000D02*
X94980000Y-69940000D01*
X84760000Y-72600000D02*
X94980000Y-72600000D01*
X84760000Y-69940000D02*
X84760000Y-72600000D01*
X83490000Y-69940000D02*
X82160000Y-69940000D01*
X82160000Y-69940000D02*
X82160000Y-71270000D01*
X105020000Y-72600000D02*
X105020000Y-69940000D01*
X115240000Y-72600000D02*
X105020000Y-72600000D01*
X115240000Y-69940000D02*
X105020000Y-69940000D01*
X115240000Y-72600000D02*
X115240000Y-69940000D01*
X116510000Y-72600000D02*
X117840000Y-72600000D01*
X117840000Y-72600000D02*
X117840000Y-71270000D01*
X105020000Y-130060000D02*
X105020000Y-127400000D01*
X115240000Y-130060000D02*
X105020000Y-130060000D01*
X115240000Y-127400000D02*
X105020000Y-127400000D01*
X115240000Y-130060000D02*
X115240000Y-127400000D01*
X116510000Y-130060000D02*
X117840000Y-130060000D01*
X117840000Y-130060000D02*
X117840000Y-128730000D01*
X69940000Y-105020000D02*
X72600000Y-105020000D01*
X69940000Y-115240000D02*
X69940000Y-105020000D01*
X72600000Y-115240000D02*
X72600000Y-105020000D01*
X69940000Y-115240000D02*
X72600000Y-115240000D01*
X69940000Y-116510000D02*
X69940000Y-117840000D01*
X69940000Y-117840000D02*
X71270000Y-117840000D01*
X72600000Y-94980000D02*
X69940000Y-94980000D01*
X72600000Y-84760000D02*
X72600000Y-94980000D01*
X69940000Y-84760000D02*
X69940000Y-94980000D01*
X72600000Y-84760000D02*
X69940000Y-84760000D01*
X72600000Y-83490000D02*
X72600000Y-82160000D01*
X72600000Y-82160000D02*
X71270000Y-82160000D01*
X130060000Y-94980000D02*
X127400000Y-94980000D01*
X130060000Y-84760000D02*
X130060000Y-94980000D01*
X127400000Y-84760000D02*
X127400000Y-94980000D01*
X130060000Y-84760000D02*
X127400000Y-84760000D01*
X130060000Y-83490000D02*
X130060000Y-82160000D01*
X130060000Y-82160000D02*
X128730000Y-82160000D01*
X127400000Y-105020000D02*
X130060000Y-105020000D01*
X127400000Y-115240000D02*
X127400000Y-105020000D01*
X130060000Y-115240000D02*
X130060000Y-105020000D01*
X127400000Y-115240000D02*
X130060000Y-115240000D01*
X127400000Y-116510000D02*
X127400000Y-117840000D01*
X127400000Y-117840000D02*
X128730000Y-117840000D01*
X116000000Y-98650000D02*
X117000000Y-98650000D01*
X117000000Y-100350000D02*
X116000000Y-100350000D01*
X115900000Y-102880000D02*
X117100000Y-102880000D01*
X117100000Y-101120000D02*
X115900000Y-101120000D01*
D12*
X80363604Y-84126346D02*
X79373654Y-83136396D01*
X79373654Y-83136396D02*
X81636396Y-80873654D01*
X81636396Y-80873654D02*
X82626346Y-81863604D01*
X82626346Y-81863604D02*
X80363604Y-84126346D01*
D14*
X85323223Y-79828249D02*
X84828249Y-80323223D01*
X85676777Y-81171751D02*
X86171751Y-80676777D01*
X96176777Y-86671751D02*
X96671751Y-86176777D01*
X95823223Y-85328249D02*
X95328249Y-85823223D01*
X80823223Y-87328249D02*
X80328249Y-87823223D01*
X81176777Y-88671751D02*
X81671751Y-88176777D01*
X88828249Y-94676777D02*
X89323223Y-95171751D01*
X90171751Y-94323223D02*
X89676777Y-93828249D01*
X75320000Y-107790000D02*
X80520000Y-107790000D01*
X80520000Y-107790000D02*
X80520000Y-110450000D01*
X80520000Y-110450000D02*
X75320000Y-110450000D01*
X75320000Y-110450000D02*
X75320000Y-107790000D01*
X76270000Y-110450000D02*
X76270000Y-116450000D01*
X76270000Y-116450000D02*
X77030000Y-116450000D01*
X77030000Y-116450000D02*
X77030000Y-110450000D01*
X76330000Y-110450000D02*
X76330000Y-116450000D01*
X76450000Y-110450000D02*
X76450000Y-116450000D01*
X76570000Y-110450000D02*
X76570000Y-116450000D01*
X76690000Y-110450000D02*
X76690000Y-116450000D01*
X76810000Y-110450000D02*
X76810000Y-116450000D01*
X76930000Y-110450000D02*
X76930000Y-116450000D01*
X76270000Y-107460000D02*
X76270000Y-107790000D01*
X77030000Y-107460000D02*
X77030000Y-107790000D01*
X77920000Y-107790000D02*
X77920000Y-110450000D01*
X78810000Y-110450000D02*
X78810000Y-116450000D01*
X78810000Y-116450000D02*
X79570000Y-116450000D01*
X79570000Y-116450000D02*
X79570000Y-110450000D01*
X78810000Y-107392929D02*
X78810000Y-107790000D01*
X79570000Y-107392929D02*
X79570000Y-107790000D01*
X76650000Y-105080000D02*
X75380000Y-105080000D01*
X75380000Y-105080000D02*
X75380000Y-106350000D01*
X82400000Y-120100000D02*
X83400000Y-120100000D01*
X83400000Y-121800000D02*
X82400000Y-121800000D01*
X82400000Y-109100000D02*
X83400000Y-109100000D01*
X83400000Y-110800000D02*
X82400000Y-110800000D01*
X115900000Y-85380000D02*
X117100000Y-85380000D01*
X117100000Y-83620000D02*
X115900000Y-83620000D01*
X117000000Y-81120000D02*
X115800000Y-81120000D01*
X115800000Y-82880000D02*
X117000000Y-82880000D01*
X115900000Y-92880000D02*
X117100000Y-92880000D01*
X117100000Y-91120000D02*
X115900000Y-91120000D01*
X82300000Y-119330000D02*
X83500000Y-119330000D01*
X83500000Y-117570000D02*
X82300000Y-117570000D01*
X121600000Y-108550000D02*
X121600000Y-118150000D01*
X126400000Y-108550000D02*
X126400000Y-118150000D01*
X121600000Y-108550000D02*
X126400000Y-108550000D01*
X83660000Y-111370000D02*
X83660000Y-112300000D01*
X83660000Y-114530000D02*
X83660000Y-113600000D01*
X83660000Y-114530000D02*
X81500000Y-114530000D01*
X83660000Y-111370000D02*
X82200000Y-111370000D01*
X118750000Y-86000000D02*
X118750000Y-88000000D01*
X118750000Y-88000000D02*
X114850000Y-88000000D01*
X118750000Y-86000000D02*
X114850000Y-86000000D01*
X126400000Y-91450000D02*
X126400000Y-81850000D01*
X121600000Y-91450000D02*
X121600000Y-81850000D01*
X126400000Y-91450000D02*
X121600000Y-91450000D01*
X117760000Y-117920000D02*
X117760000Y-118850000D01*
X117760000Y-121080000D02*
X117760000Y-120150000D01*
X117760000Y-121080000D02*
X115600000Y-121080000D01*
X117760000Y-117920000D02*
X116300000Y-117920000D01*
X117100000Y-88620000D02*
X115900000Y-88620000D01*
X115900000Y-90380000D02*
X117100000Y-90380000D01*
X117100000Y-86120000D02*
X115900000Y-86120000D01*
X115900000Y-87880000D02*
X117100000Y-87880000D01*
D12*
X96500000Y-72900000D02*
X96500000Y-73800000D01*
X97100000Y-73800000D02*
X96500000Y-73800000D01*
X101300000Y-73800000D02*
X98700000Y-73800000D01*
X103500000Y-73800000D02*
X102900000Y-73800000D01*
X103500000Y-73800000D02*
X103500000Y-72900000D01*
X102500000Y-71500000D02*
X97500000Y-71500000D01*
X98500000Y-70300000D02*
X98500000Y-71500000D01*
X101500000Y-70300000D02*
X98500000Y-70300000D01*
X101500000Y-71500000D02*
X101500000Y-70300000D01*
X107586000Y-106188000D02*
X107586000Y-95012000D01*
X103014000Y-106188000D02*
X107586000Y-106188000D01*
X103014000Y-95012000D02*
X103014000Y-106188000D01*
X107586000Y-95012000D02*
X103014000Y-95012000D01*
X104538000Y-105426000D02*
X104538000Y-106188000D01*
X106062000Y-105426000D02*
X104538000Y-105426000D01*
X106062000Y-106188000D02*
X106062000Y-105426000D01*
X93225000Y-118900000D02*
X91400000Y-118900000D01*
X93225000Y-107250000D02*
X100975000Y-107250000D01*
X93225000Y-119150000D02*
X100975000Y-119150000D01*
X93225000Y-107250000D02*
X93225000Y-107595000D01*
X100975000Y-107250000D02*
X100975000Y-107595000D01*
X100975000Y-119150000D02*
X100975000Y-118805000D01*
X93225000Y-119150000D02*
X93225000Y-118900000D01*
X105862000Y-93738000D02*
X105862000Y-92976000D01*
X105862000Y-92976000D02*
X104338000Y-92976000D01*
X104338000Y-92976000D02*
X104338000Y-93738000D01*
X107386000Y-82562000D02*
X102814000Y-82562000D01*
X102814000Y-82562000D02*
X102814000Y-93738000D01*
X102814000Y-93738000D02*
X107386000Y-93738000D01*
X107386000Y-93738000D02*
X107386000Y-82562000D01*
X106583333Y-126404761D02*
X106440476Y-126452380D01*
X106202380Y-126452380D01*
X106107142Y-126404761D01*
X106059523Y-126357142D01*
X106011904Y-126261904D01*
X106011904Y-126166666D01*
X106059523Y-126071428D01*
X106107142Y-126023809D01*
X106202380Y-125976190D01*
X106392857Y-125928571D01*
X106488095Y-125880952D01*
X106535714Y-125833333D01*
X106583333Y-125738095D01*
X106583333Y-125642857D01*
X106535714Y-125547619D01*
X106488095Y-125500000D01*
X106392857Y-125452380D01*
X106154761Y-125452380D01*
X106011904Y-125500000D01*
X105678571Y-125452380D02*
X105440476Y-126452380D01*
X105250000Y-125738095D01*
X105059523Y-126452380D01*
X104821428Y-125452380D01*
X104488095Y-125547619D02*
X104440476Y-125500000D01*
X104345238Y-125452380D01*
X104107142Y-125452380D01*
X104011904Y-125500000D01*
X103964285Y-125547619D01*
X103916666Y-125642857D01*
X103916666Y-125738095D01*
X103964285Y-125880952D01*
X104535714Y-126452380D01*
X103916666Y-126452380D01*
X81493333Y-128182380D02*
X81493333Y-128896666D01*
X81540952Y-129039523D01*
X81636190Y-129134761D01*
X81779047Y-129182380D01*
X81874285Y-129182380D01*
X80540952Y-128182380D02*
X81017142Y-128182380D01*
X81064761Y-128658571D01*
X81017142Y-128610952D01*
X80921904Y-128563333D01*
X80683809Y-128563333D01*
X80588571Y-128610952D01*
X80540952Y-128658571D01*
X80493333Y-128753809D01*
X80493333Y-128991904D01*
X80540952Y-129087142D01*
X80588571Y-129134761D01*
X80683809Y-129182380D01*
X80921904Y-129182380D01*
X81017142Y-129134761D01*
X81064761Y-129087142D01*
X113238095Y-89452380D02*
X113238095Y-88452380D01*
X113000000Y-88452380D01*
X112857142Y-88500000D01*
X112761904Y-88595238D01*
X112714285Y-88690476D01*
X112666666Y-88880952D01*
X112666666Y-89023809D01*
X112714285Y-89214285D01*
X112761904Y-89309523D01*
X112857142Y-89404761D01*
X113000000Y-89452380D01*
X113238095Y-89452380D01*
X112285714Y-88547619D02*
X112238095Y-88500000D01*
X112142857Y-88452380D01*
X111904761Y-88452380D01*
X111809523Y-88500000D01*
X111761904Y-88547619D01*
X111714285Y-88642857D01*
X111714285Y-88738095D01*
X111761904Y-88880952D01*
X112333333Y-89452380D01*
X111714285Y-89452380D01*
X81309523Y-92952380D02*
X81309523Y-93666666D01*
X81357142Y-93809523D01*
X81452380Y-93904761D01*
X81595238Y-93952380D01*
X81690476Y-93952380D01*
X80309523Y-93952380D02*
X80880952Y-93952380D01*
X80595238Y-93952380D02*
X80595238Y-92952380D01*
X80690476Y-93095238D01*
X80785714Y-93190476D01*
X80880952Y-93238095D01*
X79404761Y-92952380D02*
X79880952Y-92952380D01*
X79928571Y-93428571D01*
X79880952Y-93380952D01*
X79785714Y-93333333D01*
X79547619Y-93333333D01*
X79452380Y-93380952D01*
X79404761Y-93428571D01*
X79357142Y-93523809D01*
X79357142Y-93761904D01*
X79404761Y-93857142D01*
X79452380Y-93904761D01*
X79547619Y-93952380D01*
X79785714Y-93952380D01*
X79880952Y-93904761D01*
X79928571Y-93857142D01*
X124452380Y-104916666D02*
X125166666Y-104916666D01*
X125309523Y-104869047D01*
X125404761Y-104773809D01*
X125452380Y-104630952D01*
X125452380Y-104535714D01*
X124452380Y-105297619D02*
X124452380Y-105916666D01*
X124833333Y-105583333D01*
X124833333Y-105726190D01*
X124880952Y-105821428D01*
X124928571Y-105869047D01*
X125023809Y-105916666D01*
X125261904Y-105916666D01*
X125357142Y-105869047D01*
X125404761Y-105821428D01*
X125452380Y-105726190D01*
X125452380Y-105440476D01*
X125404761Y-105345238D01*
X125357142Y-105297619D01*
X120738095Y-76952380D02*
X120738095Y-75952380D01*
X120500000Y-75952380D01*
X120357142Y-76000000D01*
X120261904Y-76095238D01*
X120214285Y-76190476D01*
X120166666Y-76380952D01*
X120166666Y-76523809D01*
X120214285Y-76714285D01*
X120261904Y-76809523D01*
X120357142Y-76904761D01*
X120500000Y-76952380D01*
X120738095Y-76952380D01*
X119261904Y-75952380D02*
X119738095Y-75952380D01*
X119785714Y-76428571D01*
X119738095Y-76380952D01*
X119642857Y-76333333D01*
X119404761Y-76333333D01*
X119309523Y-76380952D01*
X119261904Y-76428571D01*
X119214285Y-76523809D01*
X119214285Y-76761904D01*
X119261904Y-76857142D01*
X119309523Y-76904761D01*
X119404761Y-76952380D01*
X119642857Y-76952380D01*
X119738095Y-76904761D01*
X119785714Y-76857142D01*
X120166666Y-80202380D02*
X120500000Y-79726190D01*
X120738095Y-80202380D02*
X120738095Y-79202380D01*
X120357142Y-79202380D01*
X120261904Y-79250000D01*
X120214285Y-79297619D01*
X120166666Y-79392857D01*
X120166666Y-79535714D01*
X120214285Y-79630952D01*
X120261904Y-79678571D01*
X120357142Y-79726190D01*
X120738095Y-79726190D01*
X119261904Y-79202380D02*
X119738095Y-79202380D01*
X119785714Y-79678571D01*
X119738095Y-79630952D01*
X119642857Y-79583333D01*
X119404761Y-79583333D01*
X119309523Y-79630952D01*
X119261904Y-79678571D01*
X119214285Y-79773809D01*
X119214285Y-80011904D01*
X119261904Y-80107142D01*
X119309523Y-80154761D01*
X119404761Y-80202380D01*
X119642857Y-80202380D01*
X119738095Y-80154761D01*
X119785714Y-80107142D01*
X87542857Y-116402380D02*
X87876190Y-115926190D01*
X88114285Y-116402380D02*
X88114285Y-115402380D01*
X87733333Y-115402380D01*
X87638095Y-115450000D01*
X87590476Y-115497619D01*
X87542857Y-115592857D01*
X87542857Y-115735714D01*
X87590476Y-115830952D01*
X87638095Y-115878571D01*
X87733333Y-115926190D01*
X88114285Y-115926190D01*
X86590476Y-116402380D02*
X87161904Y-116402380D01*
X86876190Y-116402380D02*
X86876190Y-115402380D01*
X86971428Y-115545238D01*
X87066666Y-115640476D01*
X87161904Y-115688095D01*
X86257142Y-115402380D02*
X85638095Y-115402380D01*
X85971428Y-115783333D01*
X85828571Y-115783333D01*
X85733333Y-115830952D01*
X85685714Y-115878571D01*
X85638095Y-115973809D01*
X85638095Y-116211904D01*
X85685714Y-116307142D01*
X85733333Y-116354761D01*
X85828571Y-116402380D01*
X86114285Y-116402380D01*
X86209523Y-116354761D01*
X86257142Y-116307142D01*
X113666666Y-116357142D02*
X113714285Y-116404761D01*
X113857142Y-116452380D01*
X113952380Y-116452380D01*
X114095238Y-116404761D01*
X114190476Y-116309523D01*
X114238095Y-116214285D01*
X114285714Y-116023809D01*
X114285714Y-115880952D01*
X114238095Y-115690476D01*
X114190476Y-115595238D01*
X114095238Y-115500000D01*
X113952380Y-115452380D01*
X113857142Y-115452380D01*
X113714285Y-115500000D01*
X113666666Y-115547619D01*
X112714285Y-116452380D02*
X113285714Y-116452380D01*
X113000000Y-116452380D02*
X113000000Y-115452380D01*
X113095238Y-115595238D01*
X113190476Y-115690476D01*
X113285714Y-115738095D01*
X113916666Y-109357142D02*
X113964285Y-109404761D01*
X114107142Y-109452380D01*
X114202380Y-109452380D01*
X114345238Y-109404761D01*
X114440476Y-109309523D01*
X114488095Y-109214285D01*
X114535714Y-109023809D01*
X114535714Y-108880952D01*
X114488095Y-108690476D01*
X114440476Y-108595238D01*
X114345238Y-108500000D01*
X114202380Y-108452380D01*
X114107142Y-108452380D01*
X113964285Y-108500000D01*
X113916666Y-108547619D01*
X113583333Y-108452380D02*
X112964285Y-108452380D01*
X113297619Y-108833333D01*
X113154761Y-108833333D01*
X113059523Y-108880952D01*
X113011904Y-108928571D01*
X112964285Y-109023809D01*
X112964285Y-109261904D01*
X113011904Y-109357142D01*
X113059523Y-109404761D01*
X113154761Y-109452380D01*
X113440476Y-109452380D01*
X113535714Y-109404761D01*
X113583333Y-109357142D01*
X113416666Y-97357142D02*
X113464285Y-97404761D01*
X113607142Y-97452380D01*
X113702380Y-97452380D01*
X113845238Y-97404761D01*
X113940476Y-97309523D01*
X113988095Y-97214285D01*
X114035714Y-97023809D01*
X114035714Y-96880952D01*
X113988095Y-96690476D01*
X113940476Y-96595238D01*
X113845238Y-96500000D01*
X113702380Y-96452380D01*
X113607142Y-96452380D01*
X113464285Y-96500000D01*
X113416666Y-96547619D01*
X113035714Y-96547619D02*
X112988095Y-96500000D01*
X112892857Y-96452380D01*
X112654761Y-96452380D01*
X112559523Y-96500000D01*
X112511904Y-96547619D01*
X112464285Y-96642857D01*
X112464285Y-96738095D01*
X112511904Y-96880952D01*
X113083333Y-97452380D01*
X112464285Y-97452380D01*
X121142857Y-94952380D02*
X121476190Y-94476190D01*
X121714285Y-94952380D02*
X121714285Y-93952380D01*
X121333333Y-93952380D01*
X121238095Y-94000000D01*
X121190476Y-94047619D01*
X121142857Y-94142857D01*
X121142857Y-94285714D01*
X121190476Y-94380952D01*
X121238095Y-94428571D01*
X121333333Y-94476190D01*
X121714285Y-94476190D01*
X120190476Y-94952380D02*
X120761904Y-94952380D01*
X120476190Y-94952380D02*
X120476190Y-93952380D01*
X120571428Y-94095238D01*
X120666666Y-94190476D01*
X120761904Y-94238095D01*
X119333333Y-94285714D02*
X119333333Y-94952380D01*
X119571428Y-93904761D02*
X119809523Y-94619047D01*
X119190476Y-94619047D01*
X114261904Y-111952380D02*
X114261904Y-112761904D01*
X114214285Y-112857142D01*
X114166666Y-112904761D01*
X114071428Y-112952380D01*
X113880952Y-112952380D01*
X113785714Y-112904761D01*
X113738095Y-112857142D01*
X113690476Y-112761904D01*
X113690476Y-111952380D01*
X112690476Y-112952380D02*
X113261904Y-112952380D01*
X112976190Y-112952380D02*
X112976190Y-111952380D01*
X113071428Y-112095238D01*
X113166666Y-112190476D01*
X113261904Y-112238095D01*
X85183332Y-91394163D02*
X84610912Y-91966583D01*
X84509897Y-92000255D01*
X84442553Y-92000255D01*
X84341538Y-91966583D01*
X84206851Y-91831896D01*
X84173179Y-91730881D01*
X84173179Y-91663537D01*
X84206851Y-91562522D01*
X84779271Y-90990102D01*
X84408881Y-90754400D02*
X84408881Y-90687057D01*
X84375210Y-90586041D01*
X84206851Y-90417683D01*
X84105836Y-90384011D01*
X84038492Y-90384011D01*
X83937477Y-90417683D01*
X83870133Y-90485026D01*
X83802790Y-90619713D01*
X83802790Y-91427835D01*
X83365057Y-90990102D01*
X81333333Y-71452380D02*
X81333333Y-72166666D01*
X81380952Y-72309523D01*
X81476190Y-72404761D01*
X81619047Y-72452380D01*
X81714285Y-72452380D01*
X80333333Y-72452380D02*
X80904761Y-72452380D01*
X80619047Y-72452380D02*
X80619047Y-71452380D01*
X80714285Y-71595238D01*
X80809523Y-71690476D01*
X80904761Y-71738095D01*
X118583333Y-72452380D02*
X118583333Y-73166666D01*
X118630952Y-73309523D01*
X118726190Y-73404761D01*
X118869047Y-73452380D01*
X118964285Y-73452380D01*
X118154761Y-72547619D02*
X118107142Y-72500000D01*
X118011904Y-72452380D01*
X117773809Y-72452380D01*
X117678571Y-72500000D01*
X117630952Y-72547619D01*
X117583333Y-72642857D01*
X117583333Y-72738095D01*
X117630952Y-72880952D01*
X118202380Y-73452380D01*
X117583333Y-73452380D01*
X119173333Y-128182380D02*
X119173333Y-128896666D01*
X119220952Y-129039523D01*
X119316190Y-129134761D01*
X119459047Y-129182380D01*
X119554285Y-129182380D01*
X118268571Y-128515714D02*
X118268571Y-129182380D01*
X118506666Y-128134761D02*
X118744761Y-128849047D01*
X118125714Y-128849047D01*
X71603333Y-118292380D02*
X71603333Y-119006666D01*
X71650952Y-119149523D01*
X71746190Y-119244761D01*
X71889047Y-119292380D01*
X71984285Y-119292380D01*
X70698571Y-118292380D02*
X70889047Y-118292380D01*
X70984285Y-118340000D01*
X71031904Y-118387619D01*
X71127142Y-118530476D01*
X71174761Y-118720952D01*
X71174761Y-119101904D01*
X71127142Y-119197142D01*
X71079523Y-119244761D01*
X70984285Y-119292380D01*
X70793809Y-119292380D01*
X70698571Y-119244761D01*
X70650952Y-119197142D01*
X70603333Y-119101904D01*
X70603333Y-118863809D01*
X70650952Y-118768571D01*
X70698571Y-118720952D01*
X70793809Y-118673333D01*
X70984285Y-118673333D01*
X71079523Y-118720952D01*
X71127142Y-118768571D01*
X71174761Y-118863809D01*
X71833333Y-80452380D02*
X71833333Y-81166666D01*
X71880952Y-81309523D01*
X71976190Y-81404761D01*
X72119047Y-81452380D01*
X72214285Y-81452380D01*
X71452380Y-80452380D02*
X70785714Y-80452380D01*
X71214285Y-81452380D01*
X129063333Y-80612380D02*
X129063333Y-81326666D01*
X129110952Y-81469523D01*
X129206190Y-81564761D01*
X129349047Y-81612380D01*
X129444285Y-81612380D01*
X128444285Y-81040952D02*
X128539523Y-80993333D01*
X128587142Y-80945714D01*
X128634761Y-80850476D01*
X128634761Y-80802857D01*
X128587142Y-80707619D01*
X128539523Y-80660000D01*
X128444285Y-80612380D01*
X128253809Y-80612380D01*
X128158571Y-80660000D01*
X128110952Y-80707619D01*
X128063333Y-80802857D01*
X128063333Y-80850476D01*
X128110952Y-80945714D01*
X128158571Y-80993333D01*
X128253809Y-81040952D01*
X128444285Y-81040952D01*
X128539523Y-81088571D01*
X128587142Y-81136190D01*
X128634761Y-81231428D01*
X128634761Y-81421904D01*
X128587142Y-81517142D01*
X128539523Y-81564761D01*
X128444285Y-81612380D01*
X128253809Y-81612380D01*
X128158571Y-81564761D01*
X128110952Y-81517142D01*
X128063333Y-81421904D01*
X128063333Y-81231428D01*
X128110952Y-81136190D01*
X128158571Y-81088571D01*
X128253809Y-81040952D01*
X129063333Y-118292380D02*
X129063333Y-119006666D01*
X129110952Y-119149523D01*
X129206190Y-119244761D01*
X129349047Y-119292380D01*
X129444285Y-119292380D01*
X128539523Y-119292380D02*
X128349047Y-119292380D01*
X128253809Y-119244761D01*
X128206190Y-119197142D01*
X128110952Y-119054285D01*
X128063333Y-118863809D01*
X128063333Y-118482857D01*
X128110952Y-118387619D01*
X128158571Y-118340000D01*
X128253809Y-118292380D01*
X128444285Y-118292380D01*
X128539523Y-118340000D01*
X128587142Y-118387619D01*
X128634761Y-118482857D01*
X128634761Y-118720952D01*
X128587142Y-118816190D01*
X128539523Y-118863809D01*
X128444285Y-118911428D01*
X128253809Y-118911428D01*
X128158571Y-118863809D01*
X128110952Y-118816190D01*
X128063333Y-118720952D01*
X113416666Y-99857142D02*
X113464285Y-99904761D01*
X113607142Y-99952380D01*
X113702380Y-99952380D01*
X113845238Y-99904761D01*
X113940476Y-99809523D01*
X113988095Y-99714285D01*
X114035714Y-99523809D01*
X114035714Y-99380952D01*
X113988095Y-99190476D01*
X113940476Y-99095238D01*
X113845238Y-99000000D01*
X113702380Y-98952380D01*
X113607142Y-98952380D01*
X113464285Y-99000000D01*
X113416666Y-99047619D01*
X112559523Y-99285714D02*
X112559523Y-99952380D01*
X112797619Y-98904761D02*
X113035714Y-99619047D01*
X112416666Y-99619047D01*
X120166666Y-102452380D02*
X120500000Y-101976190D01*
X120738095Y-102452380D02*
X120738095Y-101452380D01*
X120357142Y-101452380D01*
X120261904Y-101500000D01*
X120214285Y-101547619D01*
X120166666Y-101642857D01*
X120166666Y-101785714D01*
X120214285Y-101880952D01*
X120261904Y-101928571D01*
X120357142Y-101976190D01*
X120738095Y-101976190D01*
X119785714Y-101547619D02*
X119738095Y-101500000D01*
X119642857Y-101452380D01*
X119404761Y-101452380D01*
X119309523Y-101500000D01*
X119261904Y-101547619D01*
X119214285Y-101642857D01*
X119214285Y-101738095D01*
X119261904Y-101880952D01*
X119833333Y-102452380D01*
X119214285Y-102452380D01*
X82734095Y-83560660D02*
X83070813Y-83897378D01*
X82599408Y-82954569D02*
X82734095Y-83560660D01*
X82128004Y-83425973D01*
X82229019Y-84739171D02*
X82633080Y-84335110D01*
X82431049Y-84537141D02*
X81723943Y-83830034D01*
X81892301Y-83863706D01*
X82026988Y-83863706D01*
X82128004Y-83830034D01*
X84986506Y-79750804D02*
X85053849Y-79750804D01*
X85188536Y-79683460D01*
X85255880Y-79616117D01*
X85323223Y-79481429D01*
X85323223Y-79346742D01*
X85289552Y-79245727D01*
X85188536Y-79077368D01*
X85087521Y-78976353D01*
X84919162Y-78875338D01*
X84818147Y-78841666D01*
X84683460Y-78841666D01*
X84548773Y-78909010D01*
X84481429Y-78976353D01*
X84414086Y-79111040D01*
X84414086Y-79178384D01*
X83740651Y-79717132D02*
X83875338Y-79582445D01*
X83976353Y-79548773D01*
X84043697Y-79548773D01*
X84212055Y-79582445D01*
X84380414Y-79683460D01*
X84649788Y-79952834D01*
X84683460Y-80053849D01*
X84683460Y-80121193D01*
X84649788Y-80222208D01*
X84515101Y-80356895D01*
X84414086Y-80390567D01*
X84346742Y-80390567D01*
X84245727Y-80356895D01*
X84077368Y-80188536D01*
X84043697Y-80087521D01*
X84043697Y-80020178D01*
X84077368Y-79919162D01*
X84212055Y-79784475D01*
X84313071Y-79750804D01*
X84380414Y-79750804D01*
X84481429Y-79784475D01*
X97254272Y-87018570D02*
X97321615Y-87018570D01*
X97456302Y-86951226D01*
X97523646Y-86883883D01*
X97590989Y-86749195D01*
X97590989Y-86614508D01*
X97557318Y-86513493D01*
X97456302Y-86345134D01*
X97355287Y-86244119D01*
X97186928Y-86143104D01*
X97085913Y-86109432D01*
X96951226Y-86109432D01*
X96816539Y-86176776D01*
X96749195Y-86244119D01*
X96681852Y-86378806D01*
X96681852Y-86446150D01*
X96378806Y-86614508D02*
X95907402Y-87085913D01*
X96917554Y-87489974D01*
X80486506Y-87250804D02*
X80553849Y-87250804D01*
X80688536Y-87183460D01*
X80755880Y-87116117D01*
X80823223Y-86981429D01*
X80823223Y-86846742D01*
X80789552Y-86745727D01*
X80688536Y-86577368D01*
X80587521Y-86476353D01*
X80419162Y-86375338D01*
X80318147Y-86341666D01*
X80183460Y-86341666D01*
X80048773Y-86409010D01*
X79981429Y-86476353D01*
X79914086Y-86611040D01*
X79914086Y-86678384D01*
X79745727Y-87318147D02*
X79779399Y-87217132D01*
X79779399Y-87149788D01*
X79745727Y-87048773D01*
X79712055Y-87015101D01*
X79611040Y-86981429D01*
X79543697Y-86981429D01*
X79442681Y-87015101D01*
X79307994Y-87149788D01*
X79274323Y-87250804D01*
X79274323Y-87318147D01*
X79307994Y-87419162D01*
X79341666Y-87452834D01*
X79442681Y-87486506D01*
X79510025Y-87486506D01*
X79611040Y-87452834D01*
X79745727Y-87318147D01*
X79846742Y-87284475D01*
X79914086Y-87284475D01*
X80015101Y-87318147D01*
X80149788Y-87452834D01*
X80183460Y-87553849D01*
X80183460Y-87621193D01*
X80149788Y-87722208D01*
X80015101Y-87856895D01*
X79914086Y-87890567D01*
X79846742Y-87890567D01*
X79745727Y-87856895D01*
X79611040Y-87722208D01*
X79577368Y-87621193D01*
X79577368Y-87553849D01*
X79611040Y-87452834D01*
X88481429Y-95754272D02*
X88481429Y-95821615D01*
X88548773Y-95956302D01*
X88616117Y-96023646D01*
X88750804Y-96090989D01*
X88885491Y-96090989D01*
X88986506Y-96057318D01*
X89154865Y-95956302D01*
X89255880Y-95855287D01*
X89356895Y-95686928D01*
X89390567Y-95585913D01*
X89390567Y-95451226D01*
X89323223Y-95316539D01*
X89255880Y-95249195D01*
X89121193Y-95181852D01*
X89053849Y-95181852D01*
X88077368Y-95484898D02*
X87942681Y-95350211D01*
X87909010Y-95249195D01*
X87909010Y-95181852D01*
X87942681Y-95013493D01*
X88043697Y-94845134D01*
X88313071Y-94575760D01*
X88414086Y-94542089D01*
X88481429Y-94542089D01*
X88582445Y-94575760D01*
X88717132Y-94710447D01*
X88750804Y-94811463D01*
X88750804Y-94878806D01*
X88717132Y-94979821D01*
X88548773Y-95148180D01*
X88447758Y-95181852D01*
X88380414Y-95181852D01*
X88279399Y-95148180D01*
X88144712Y-95013493D01*
X88111040Y-94912478D01*
X88111040Y-94845134D01*
X88144712Y-94744119D01*
X73832380Y-109925476D02*
X74546666Y-109925476D01*
X74689523Y-109877857D01*
X74784761Y-109782619D01*
X74832380Y-109639761D01*
X74832380Y-109544523D01*
X74832380Y-110925476D02*
X74832380Y-110354047D01*
X74832380Y-110639761D02*
X73832380Y-110639761D01*
X73975238Y-110544523D01*
X74070476Y-110449285D01*
X74118095Y-110354047D01*
X74165714Y-111782619D02*
X74832380Y-111782619D01*
X73784761Y-111544523D02*
X74499047Y-111306428D01*
X74499047Y-111925476D01*
X87392857Y-121357142D02*
X87440476Y-121404761D01*
X87583333Y-121452380D01*
X87678571Y-121452380D01*
X87821428Y-121404761D01*
X87916666Y-121309523D01*
X87964285Y-121214285D01*
X88011904Y-121023809D01*
X88011904Y-120880952D01*
X87964285Y-120690476D01*
X87916666Y-120595238D01*
X87821428Y-120500000D01*
X87678571Y-120452380D01*
X87583333Y-120452380D01*
X87440476Y-120500000D01*
X87392857Y-120547619D01*
X86440476Y-121452380D02*
X87011904Y-121452380D01*
X86726190Y-121452380D02*
X86726190Y-120452380D01*
X86821428Y-120595238D01*
X86916666Y-120690476D01*
X87011904Y-120738095D01*
X85821428Y-120452380D02*
X85726190Y-120452380D01*
X85630952Y-120500000D01*
X85583333Y-120547619D01*
X85535714Y-120642857D01*
X85488095Y-120833333D01*
X85488095Y-121071428D01*
X85535714Y-121261904D01*
X85583333Y-121357142D01*
X85630952Y-121404761D01*
X85726190Y-121452380D01*
X85821428Y-121452380D01*
X85916666Y-121404761D01*
X85964285Y-121357142D01*
X86011904Y-121261904D01*
X86059523Y-121071428D01*
X86059523Y-120833333D01*
X86011904Y-120642857D01*
X85964285Y-120547619D01*
X85916666Y-120500000D01*
X85821428Y-120452380D01*
X87392857Y-110357142D02*
X87440476Y-110404761D01*
X87583333Y-110452380D01*
X87678571Y-110452380D01*
X87821428Y-110404761D01*
X87916666Y-110309523D01*
X87964285Y-110214285D01*
X88011904Y-110023809D01*
X88011904Y-109880952D01*
X87964285Y-109690476D01*
X87916666Y-109595238D01*
X87821428Y-109500000D01*
X87678571Y-109452380D01*
X87583333Y-109452380D01*
X87440476Y-109500000D01*
X87392857Y-109547619D01*
X86440476Y-110452380D02*
X87011904Y-110452380D01*
X86726190Y-110452380D02*
X86726190Y-109452380D01*
X86821428Y-109595238D01*
X86916666Y-109690476D01*
X87011904Y-109738095D01*
X85488095Y-110452380D02*
X86059523Y-110452380D01*
X85773809Y-110452380D02*
X85773809Y-109452380D01*
X85869047Y-109595238D01*
X85964285Y-109690476D01*
X86059523Y-109738095D01*
X113416666Y-84452380D02*
X113750000Y-83976190D01*
X113988095Y-84452380D02*
X113988095Y-83452380D01*
X113607142Y-83452380D01*
X113511904Y-83500000D01*
X113464285Y-83547619D01*
X113416666Y-83642857D01*
X113416666Y-83785714D01*
X113464285Y-83880952D01*
X113511904Y-83928571D01*
X113607142Y-83976190D01*
X113988095Y-83976190D01*
X112464285Y-84452380D02*
X113035714Y-84452380D01*
X112750000Y-84452380D02*
X112750000Y-83452380D01*
X112845238Y-83595238D01*
X112940476Y-83690476D01*
X113035714Y-83738095D01*
X120166666Y-82452380D02*
X120500000Y-81976190D01*
X120738095Y-82452380D02*
X120738095Y-81452380D01*
X120357142Y-81452380D01*
X120261904Y-81500000D01*
X120214285Y-81547619D01*
X120166666Y-81642857D01*
X120166666Y-81785714D01*
X120214285Y-81880952D01*
X120261904Y-81928571D01*
X120357142Y-81976190D01*
X120738095Y-81976190D01*
X119833333Y-81452380D02*
X119214285Y-81452380D01*
X119547619Y-81833333D01*
X119404761Y-81833333D01*
X119309523Y-81880952D01*
X119261904Y-81928571D01*
X119214285Y-82023809D01*
X119214285Y-82261904D01*
X119261904Y-82357142D01*
X119309523Y-82404761D01*
X119404761Y-82452380D01*
X119690476Y-82452380D01*
X119785714Y-82404761D01*
X119833333Y-82357142D01*
X113666666Y-92702380D02*
X114000000Y-92226190D01*
X114238095Y-92702380D02*
X114238095Y-91702380D01*
X113857142Y-91702380D01*
X113761904Y-91750000D01*
X113714285Y-91797619D01*
X113666666Y-91892857D01*
X113666666Y-92035714D01*
X113714285Y-92130952D01*
X113761904Y-92178571D01*
X113857142Y-92226190D01*
X114238095Y-92226190D01*
X112809523Y-92035714D02*
X112809523Y-92702380D01*
X113047619Y-91654761D02*
X113285714Y-92369047D01*
X112666666Y-92369047D01*
X87392857Y-118952380D02*
X87726190Y-118476190D01*
X87964285Y-118952380D02*
X87964285Y-117952380D01*
X87583333Y-117952380D01*
X87488095Y-118000000D01*
X87440476Y-118047619D01*
X87392857Y-118142857D01*
X87392857Y-118285714D01*
X87440476Y-118380952D01*
X87488095Y-118428571D01*
X87583333Y-118476190D01*
X87964285Y-118476190D01*
X86440476Y-118952380D02*
X87011904Y-118952380D01*
X86726190Y-118952380D02*
X86726190Y-117952380D01*
X86821428Y-118095238D01*
X86916666Y-118190476D01*
X87011904Y-118238095D01*
X85583333Y-117952380D02*
X85773809Y-117952380D01*
X85869047Y-118000000D01*
X85916666Y-118047619D01*
X86011904Y-118190476D01*
X86059523Y-118380952D01*
X86059523Y-118761904D01*
X86011904Y-118857142D01*
X85964285Y-118904761D01*
X85869047Y-118952380D01*
X85678571Y-118952380D01*
X85583333Y-118904761D01*
X85535714Y-118857142D01*
X85488095Y-118761904D01*
X85488095Y-118523809D01*
X85535714Y-118428571D01*
X85583333Y-118380952D01*
X85678571Y-118333333D01*
X85869047Y-118333333D01*
X85964285Y-118380952D01*
X86011904Y-118428571D01*
X86059523Y-118523809D01*
X122857142Y-106357142D02*
X122904761Y-106309523D01*
X122952380Y-106166666D01*
X122952380Y-106071428D01*
X122904761Y-105928571D01*
X122809523Y-105833333D01*
X122714285Y-105785714D01*
X122523809Y-105738095D01*
X122380952Y-105738095D01*
X122190476Y-105785714D01*
X122095238Y-105833333D01*
X122000000Y-105928571D01*
X121952380Y-106071428D01*
X121952380Y-106166666D01*
X122000000Y-106309523D01*
X122047619Y-106357142D01*
X122952380Y-107309523D02*
X122952380Y-106738095D01*
X122952380Y-107023809D02*
X121952380Y-107023809D01*
X122095238Y-106928571D01*
X122190476Y-106833333D01*
X122238095Y-106738095D01*
X121952380Y-107642857D02*
X121952380Y-108261904D01*
X122333333Y-107928571D01*
X122333333Y-108071428D01*
X122380952Y-108166666D01*
X122428571Y-108214285D01*
X122523809Y-108261904D01*
X122761904Y-108261904D01*
X122857142Y-108214285D01*
X122904761Y-108166666D01*
X122952380Y-108071428D01*
X122952380Y-107785714D01*
X122904761Y-107690476D01*
X122857142Y-107642857D01*
X86595238Y-113547619D02*
X86690476Y-113500000D01*
X86785714Y-113404761D01*
X86928571Y-113261904D01*
X87023809Y-113214285D01*
X87119047Y-113214285D01*
X87071428Y-113452380D02*
X87166666Y-113404761D01*
X87261904Y-113309523D01*
X87309523Y-113119047D01*
X87309523Y-112785714D01*
X87261904Y-112595238D01*
X87166666Y-112500000D01*
X87071428Y-112452380D01*
X86880952Y-112452380D01*
X86785714Y-112500000D01*
X86690476Y-112595238D01*
X86642857Y-112785714D01*
X86642857Y-113119047D01*
X86690476Y-113309523D01*
X86785714Y-113404761D01*
X86880952Y-113452380D01*
X87071428Y-113452380D01*
X85690476Y-113452380D02*
X86261904Y-113452380D01*
X85976190Y-113452380D02*
X85976190Y-112452380D01*
X86071428Y-112595238D01*
X86166666Y-112690476D01*
X86261904Y-112738095D01*
X113238095Y-86452380D02*
X113238095Y-85452380D01*
X113000000Y-85452380D01*
X112857142Y-85500000D01*
X112761904Y-85595238D01*
X112714285Y-85690476D01*
X112666666Y-85880952D01*
X112666666Y-86023809D01*
X112714285Y-86214285D01*
X112761904Y-86309523D01*
X112857142Y-86404761D01*
X113000000Y-86452380D01*
X113238095Y-86452380D01*
X111714285Y-86452380D02*
X112285714Y-86452380D01*
X112000000Y-86452380D02*
X112000000Y-85452380D01*
X112095238Y-85595238D01*
X112190476Y-85690476D01*
X112285714Y-85738095D01*
X123857142Y-92857142D02*
X123904761Y-92809523D01*
X123952380Y-92666666D01*
X123952380Y-92571428D01*
X123904761Y-92428571D01*
X123809523Y-92333333D01*
X123714285Y-92285714D01*
X123523809Y-92238095D01*
X123380952Y-92238095D01*
X123190476Y-92285714D01*
X123095238Y-92333333D01*
X123000000Y-92428571D01*
X122952380Y-92571428D01*
X122952380Y-92666666D01*
X123000000Y-92809523D01*
X123047619Y-92857142D01*
X123952380Y-93809523D02*
X123952380Y-93238095D01*
X123952380Y-93523809D02*
X122952380Y-93523809D01*
X123095238Y-93428571D01*
X123190476Y-93333333D01*
X123238095Y-93238095D01*
X123047619Y-94190476D02*
X123000000Y-94238095D01*
X122952380Y-94333333D01*
X122952380Y-94571428D01*
X123000000Y-94666666D01*
X123047619Y-94714285D01*
X123142857Y-94761904D01*
X123238095Y-94761904D01*
X123380952Y-94714285D01*
X123952380Y-94142857D01*
X123952380Y-94761904D01*
X113595238Y-120047619D02*
X113690476Y-120000000D01*
X113785714Y-119904761D01*
X113928571Y-119761904D01*
X114023809Y-119714285D01*
X114119047Y-119714285D01*
X114071428Y-119952380D02*
X114166666Y-119904761D01*
X114261904Y-119809523D01*
X114309523Y-119619047D01*
X114309523Y-119285714D01*
X114261904Y-119095238D01*
X114166666Y-119000000D01*
X114071428Y-118952380D01*
X113880952Y-118952380D01*
X113785714Y-119000000D01*
X113690476Y-119095238D01*
X113642857Y-119285714D01*
X113642857Y-119619047D01*
X113690476Y-119809523D01*
X113785714Y-119904761D01*
X113880952Y-119952380D01*
X114071428Y-119952380D01*
X113261904Y-119047619D02*
X113214285Y-119000000D01*
X113119047Y-118952380D01*
X112880952Y-118952380D01*
X112785714Y-119000000D01*
X112738095Y-119047619D01*
X112690476Y-119142857D01*
X112690476Y-119238095D01*
X112738095Y-119380952D01*
X113309523Y-119952380D01*
X112690476Y-119952380D01*
X112642857Y-90952380D02*
X112976190Y-90476190D01*
X113214285Y-90952380D02*
X113214285Y-89952380D01*
X112833333Y-89952380D01*
X112738095Y-90000000D01*
X112690476Y-90047619D01*
X112642857Y-90142857D01*
X112642857Y-90285714D01*
X112690476Y-90380952D01*
X112738095Y-90428571D01*
X112833333Y-90476190D01*
X113214285Y-90476190D01*
X111690476Y-90952380D02*
X112261904Y-90952380D01*
X111976190Y-90952380D02*
X111976190Y-89952380D01*
X112071428Y-90095238D01*
X112166666Y-90190476D01*
X112261904Y-90238095D01*
X110785714Y-89952380D02*
X111261904Y-89952380D01*
X111309523Y-90428571D01*
X111261904Y-90380952D01*
X111166666Y-90333333D01*
X110928571Y-90333333D01*
X110833333Y-90380952D01*
X110785714Y-90428571D01*
X110738095Y-90523809D01*
X110738095Y-90761904D01*
X110785714Y-90857142D01*
X110833333Y-90904761D01*
X110928571Y-90952380D01*
X111166666Y-90952380D01*
X111261904Y-90904761D01*
X111309523Y-90857142D01*
X112642857Y-87952380D02*
X112976190Y-87476190D01*
X113214285Y-87952380D02*
X113214285Y-86952380D01*
X112833333Y-86952380D01*
X112738095Y-87000000D01*
X112690476Y-87047619D01*
X112642857Y-87142857D01*
X112642857Y-87285714D01*
X112690476Y-87380952D01*
X112738095Y-87428571D01*
X112833333Y-87476190D01*
X113214285Y-87476190D01*
X111690476Y-87952380D02*
X112261904Y-87952380D01*
X111976190Y-87952380D02*
X111976190Y-86952380D01*
X112071428Y-87095238D01*
X112166666Y-87190476D01*
X112261904Y-87238095D01*
X111357142Y-86952380D02*
X110690476Y-86952380D01*
X111119047Y-87952380D01*
X96333333Y-74654761D02*
X96190476Y-74702380D01*
X95952380Y-74702380D01*
X95857142Y-74654761D01*
X95809523Y-74607142D01*
X95761904Y-74511904D01*
X95761904Y-74416666D01*
X95809523Y-74321428D01*
X95857142Y-74273809D01*
X95952380Y-74226190D01*
X96142857Y-74178571D01*
X96238095Y-74130952D01*
X96285714Y-74083333D01*
X96333333Y-73988095D01*
X96333333Y-73892857D01*
X96285714Y-73797619D01*
X96238095Y-73750000D01*
X96142857Y-73702380D01*
X95904761Y-73702380D01*
X95761904Y-73750000D01*
X95428571Y-73702380D02*
X95190476Y-74702380D01*
X95000000Y-73988095D01*
X94809523Y-74702380D01*
X94571428Y-73702380D01*
X93666666Y-74702380D02*
X94238095Y-74702380D01*
X93952380Y-74702380D02*
X93952380Y-73702380D01*
X94047619Y-73845238D01*
X94142857Y-73940476D01*
X94238095Y-73988095D01*
X108511904Y-106702380D02*
X108511904Y-107511904D01*
X108464285Y-107607142D01*
X108416666Y-107654761D01*
X108321428Y-107702380D01*
X108130952Y-107702380D01*
X108035714Y-107654761D01*
X107988095Y-107607142D01*
X107940476Y-107511904D01*
X107940476Y-106702380D01*
X107559523Y-106702380D02*
X106940476Y-106702380D01*
X107273809Y-107083333D01*
X107130952Y-107083333D01*
X107035714Y-107130952D01*
X106988095Y-107178571D01*
X106940476Y-107273809D01*
X106940476Y-107511904D01*
X106988095Y-107607142D01*
X107035714Y-107654761D01*
X107130952Y-107702380D01*
X107416666Y-107702380D01*
X107511904Y-107654761D01*
X107559523Y-107607142D01*
X97861904Y-119527380D02*
X97861904Y-120336904D01*
X97814285Y-120432142D01*
X97766666Y-120479761D01*
X97671428Y-120527380D01*
X97480952Y-120527380D01*
X97385714Y-120479761D01*
X97338095Y-120432142D01*
X97290476Y-120336904D01*
X97290476Y-119527380D01*
X96385714Y-119860714D02*
X96385714Y-120527380D01*
X96623809Y-119479761D02*
X96861904Y-120194047D01*
X96242857Y-120194047D01*
X102511904Y-93702380D02*
X102511904Y-94511904D01*
X102464285Y-94607142D01*
X102416666Y-94654761D01*
X102321428Y-94702380D01*
X102130952Y-94702380D01*
X102035714Y-94654761D01*
X101988095Y-94607142D01*
X101940476Y-94511904D01*
X101940476Y-93702380D01*
X100988095Y-93702380D02*
X101464285Y-93702380D01*
X101511904Y-94178571D01*
X101464285Y-94130952D01*
X101369047Y-94083333D01*
X101130952Y-94083333D01*
X101035714Y-94130952D01*
X100988095Y-94178571D01*
X100940476Y-94273809D01*
X100940476Y-94511904D01*
X100988095Y-94607142D01*
X101035714Y-94654761D01*
X101130952Y-94702380D01*
X101369047Y-94702380D01*
X101464285Y-94654761D01*
X101511904Y-94607142D01*
M02*
