%TF.GenerationSoftware,KiCad,Pcbnew,5.0.2-bee76a0~70~ubuntu16.04.1*%
%TF.CreationDate,2019-02-12T08:58:08+01:00*%
%TF.ProjectId,bcl4v2,62636c34-7632-42e6-9b69-6361645f7063,rev?*%
%TF.SameCoordinates,Original*%
%TF.FileFunction,Copper,L1,Top*%
%TF.FilePolarity,Positive*%
%FSLAX46Y46*%
G04 Gerber Fmt 4.6, Leading zero omitted, Abs format (unit mm)*
G04 Created by KiCad (PCBNEW 5.0.2-bee76a0~70~ubuntu16.04.1) date Út 12. únor 2019, 08:58:08 CET*
%MOMM*%
%LPD*%
G01*
G04 APERTURE LIST*
%ADD10C,0.381000*%
%ADD11C,7.000000*%
%ADD12C,0.910000*%
%ADD13R,1.700000X2.300000*%
%ADD14O,1.700000X2.300000*%
%ADD15R,2.300000X1.700000*%
%ADD16O,2.300000X1.700000*%
%ADD17O,0.950000X1.250000*%
%ADD18O,1.550000X1.000000*%
%ADD19R,1.500000X1.200000*%
%ADD20R,0.700000X1.500000*%
%ADD21R,1.700000X1.200000*%
%ADD22R,1.600000X1.200000*%
%ADD23O,1.524000X2.286000*%
%ADD24R,1.524000X2.286000*%
%ADD25C,0.889000*%
%ADD26C,1.346200*%
%ADD27C,0.304800*%
%ADD28C,0.609600*%
%ADD29C,0.203200*%
%ADD30C,0.254000*%
G04 APERTURE END LIST*
D10*
X70000000Y-95000000D02*
X70000000Y-75000000D01*
X70000000Y-125000000D02*
X70000000Y-105000000D01*
X95000000Y-130000000D02*
X75000000Y-130000000D01*
X125000000Y-130000000D02*
X105000000Y-130000000D01*
X130000000Y-105000000D02*
X130000000Y-125000000D01*
X130000000Y-75000000D02*
X130000000Y-95000000D01*
X105000000Y-70000000D02*
X125000000Y-70000000D01*
X75000000Y-70000000D02*
X95000000Y-70000000D01*
X75000000Y-130000000D02*
G75*
G02X70000000Y-125000000I0J5000000D01*
G01*
X130000000Y-125000000D02*
G75*
G02X125000000Y-130000000I-5000000J0D01*
G01*
X125000000Y-70000000D02*
G75*
G02X130000000Y-75000000I0J-5000000D01*
G01*
X70000000Y-75000000D02*
G75*
G02X75000000Y-70000000I5000000J0D01*
G01*
X105000000Y-70750000D02*
X105000000Y-70000000D01*
X95000000Y-70750000D02*
X105000000Y-70750000D01*
X95000000Y-70000000D02*
X95000000Y-70750000D01*
X70750000Y-105000000D02*
X70000000Y-105000000D01*
X70750000Y-95000000D02*
X70750000Y-105000000D01*
X70000000Y-95000000D02*
X70750000Y-95000000D01*
X105000000Y-129250000D02*
X105000000Y-130000000D01*
X95000000Y-129250000D02*
X105000000Y-129250000D01*
X95000000Y-130000000D02*
X95000000Y-129250000D01*
X129000000Y-105000000D02*
X130000000Y-105000000D01*
X129000000Y-95000000D02*
X129000000Y-105000000D01*
X130000000Y-95000000D02*
X129000000Y-95000000D01*
D11*
X125000000Y-125000000D03*
D12*
X98850000Y-127500000D03*
X101150000Y-127500000D03*
D13*
X83490000Y-128730000D03*
D14*
X86030000Y-128730000D03*
X88570000Y-128730000D03*
X91110000Y-128730000D03*
X93650000Y-128730000D03*
D15*
X81730000Y-96200000D03*
D16*
X81730000Y-98740000D03*
X81730000Y-101280000D03*
X81730000Y-103820000D03*
D17*
X124450000Y-97500000D03*
X124450000Y-102500000D03*
D18*
X127150000Y-96500000D03*
X127150000Y-103500000D03*
D11*
X75000000Y-125000000D03*
X75000000Y-75000000D03*
X125000000Y-75000000D03*
D13*
X83490000Y-71270000D03*
D14*
X86030000Y-71270000D03*
X88570000Y-71270000D03*
X91110000Y-71270000D03*
X93650000Y-71270000D03*
D13*
X116510000Y-71270000D03*
D14*
X113970000Y-71270000D03*
X111430000Y-71270000D03*
X108890000Y-71270000D03*
X106350000Y-71270000D03*
D13*
X116510000Y-128730000D03*
D14*
X113970000Y-128730000D03*
X111430000Y-128730000D03*
X108890000Y-128730000D03*
X106350000Y-128730000D03*
D15*
X71270000Y-116510000D03*
D16*
X71270000Y-113970000D03*
X71270000Y-111430000D03*
X71270000Y-108890000D03*
X71270000Y-106350000D03*
D15*
X71270000Y-83490000D03*
D16*
X71270000Y-86030000D03*
X71270000Y-88570000D03*
X71270000Y-91110000D03*
X71270000Y-93650000D03*
D15*
X128730000Y-83490000D03*
D16*
X128730000Y-86030000D03*
X128730000Y-88570000D03*
X128730000Y-91110000D03*
X128730000Y-93650000D03*
D15*
X128730000Y-116510000D03*
D16*
X128730000Y-113970000D03*
X128730000Y-111430000D03*
X128730000Y-108890000D03*
X128730000Y-106350000D03*
D13*
X76650000Y-106350000D03*
D14*
X79190000Y-106350000D03*
D19*
X71950000Y-104000000D03*
X71950000Y-96000000D03*
D20*
X71550000Y-103450000D03*
X71550000Y-96550000D03*
D21*
X74000000Y-102100000D03*
D22*
X74000000Y-97900000D03*
D23*
X91110000Y-77140000D03*
X93650000Y-77140000D03*
X96190000Y-77140000D03*
X98730000Y-77140000D03*
X101270000Y-77140000D03*
X103810000Y-77140000D03*
X106350000Y-77140000D03*
X108890000Y-77140000D03*
X106350000Y-122860000D03*
X108890000Y-122860000D03*
X98730000Y-122860000D03*
X101270000Y-122860000D03*
X96190000Y-122860000D03*
X103810000Y-122860000D03*
X93650000Y-122860000D03*
D24*
X91110000Y-122860000D03*
D25*
X100893600Y-96200000D03*
X89143600Y-96200000D03*
X96474100Y-74457500D03*
X100762000Y-125281500D03*
X84098700Y-80442300D03*
X78973300Y-83445000D03*
X80125300Y-113900000D03*
D26*
X73700000Y-86100000D03*
X73800000Y-113900000D03*
D25*
X88950000Y-85700000D03*
X81100000Y-107050000D03*
X123532578Y-85216901D03*
X86360000Y-114300000D03*
X113650000Y-88195900D03*
X89330700Y-83553400D03*
X78208500Y-99534000D03*
X98789600Y-102920300D03*
D26*
X124868000Y-92500000D03*
X124768000Y-107500000D03*
X122422592Y-97877408D03*
D25*
X119195700Y-101002000D03*
X90308500Y-93448800D03*
X96426500Y-94080500D03*
X118955900Y-98126000D03*
X119278800Y-94429100D03*
X120553200Y-76364900D03*
X109070246Y-94076300D03*
X83268000Y-90483200D03*
X94094400Y-89765119D03*
X123300000Y-106925000D03*
X92500000Y-94075000D03*
X111249998Y-82750000D03*
X94742000Y-99981666D03*
X90042900Y-106324500D03*
X91756200Y-87748600D03*
X123277962Y-92185190D03*
X96950000Y-91600000D03*
X85211812Y-87115512D03*
X85650000Y-77100000D03*
X107050000Y-114650002D03*
X114097600Y-78477500D03*
X85966600Y-85301100D03*
X118355000Y-71805000D03*
X117809200Y-78120300D03*
X91258300Y-81200200D03*
X113629840Y-82370154D03*
X107347600Y-78850300D03*
X99823600Y-113852600D03*
X95181700Y-106759100D03*
X96007906Y-104417092D03*
X105122900Y-78324600D03*
X105330331Y-112607830D03*
X103715800Y-113614800D03*
X103165682Y-116175391D03*
X100141200Y-109791000D03*
X96157000Y-105594800D03*
X80025200Y-104688300D03*
X92451700Y-80786500D03*
X116500000Y-87969300D03*
X75423900Y-103110000D03*
X112102700Y-75847100D03*
X87964900Y-80977900D03*
X77457200Y-97465000D03*
X108410855Y-113542204D03*
X90762500Y-107513000D03*
X90000000Y-87750000D03*
X95650000Y-90075000D03*
X119750000Y-92500000D03*
X89561900Y-90216500D03*
X93373300Y-90591900D03*
X122250000Y-86500000D03*
X122015600Y-114032000D03*
X94116604Y-101431576D03*
X94400000Y-92355500D03*
X121549473Y-98868472D03*
X94400000Y-93444500D03*
X120766502Y-99629973D03*
X88738600Y-79784400D03*
X88529269Y-76600690D03*
X106442500Y-89587868D03*
X111750004Y-84000000D03*
X91027900Y-85301600D03*
X100150000Y-87800000D03*
X85702400Y-93356600D03*
X103980000Y-95285600D03*
X88394700Y-92484800D03*
X105165200Y-95029500D03*
X87633500Y-89009300D03*
X104750000Y-88250000D03*
X84895900Y-96430500D03*
X106589800Y-101676300D03*
D27*
X89143600Y-96200000D02*
X86428800Y-96200000D01*
X86428800Y-96200000D02*
X85858900Y-95630100D01*
X85858900Y-95630100D02*
X83805800Y-95630100D01*
X83805800Y-95630100D02*
X83235900Y-96200000D01*
X95866600Y-74000000D02*
X96324100Y-74457500D01*
X96324100Y-74457500D02*
X96474100Y-74457500D01*
X81730000Y-96200000D02*
X83235900Y-96200000D01*
D28*
X83490000Y-128730000D02*
X83490000Y-128430000D01*
X83490000Y-128430000D02*
X84920000Y-127000000D01*
X84920000Y-127000000D02*
X86238700Y-127000000D01*
X86238700Y-127000000D02*
X87338700Y-125900000D01*
X87338700Y-125900000D02*
X97300000Y-125900000D01*
X97300000Y-125900000D02*
X97763600Y-125436000D01*
X97763600Y-125436000D02*
X100607500Y-125436000D01*
D27*
X78973300Y-83445000D02*
X81096000Y-83445000D01*
X81096000Y-83445000D02*
X84098700Y-80442300D01*
D28*
X95866600Y-74000000D02*
X97278700Y-74000000D01*
X97278700Y-74000000D02*
X97942300Y-74663600D01*
X97942300Y-74663600D02*
X101958000Y-74663600D01*
X101958000Y-74663600D02*
X102779000Y-73842400D01*
X102779000Y-73842400D02*
X112919000Y-73842400D01*
X112919000Y-73842400D02*
X113783000Y-72978800D01*
X113783000Y-72978800D02*
X115101000Y-72978800D01*
X115101000Y-72978800D02*
X116510000Y-71570000D01*
X116510000Y-71570000D02*
X116510000Y-71270000D01*
X83490000Y-71270000D02*
X83490000Y-71570000D01*
X83490000Y-71570000D02*
X85920000Y-74000000D01*
D27*
X100607500Y-125436000D02*
X100762000Y-125281500D01*
D28*
X100607500Y-125436000D02*
X101958000Y-125436000D01*
X101958000Y-125436000D02*
X102621000Y-126100000D01*
X102621000Y-126100000D02*
X112861000Y-126100000D01*
X112861000Y-126100000D02*
X113661000Y-126900000D01*
X113661000Y-126900000D02*
X114980000Y-126900000D01*
X114980000Y-126900000D02*
X116510000Y-128430000D01*
X116510000Y-128430000D02*
X116510000Y-128730000D01*
X126100000Y-85913700D02*
X126100000Y-85820000D01*
X126100000Y-85820000D02*
X128430000Y-83490000D01*
X128430000Y-83490000D02*
X128730000Y-83490000D01*
X124450000Y-97500000D02*
X124450000Y-96206300D01*
X124450000Y-96206300D02*
X126100000Y-94556300D01*
X126100000Y-94556300D02*
X126100000Y-85913700D01*
D27*
X73700000Y-85600000D02*
X75855000Y-83445000D01*
X75855000Y-83445000D02*
X78973300Y-83445000D01*
X73800000Y-113900000D02*
X80125300Y-113900000D01*
D28*
X73700000Y-85600000D02*
X73700000Y-86100000D01*
X71270000Y-83490000D02*
X71590000Y-83490000D01*
X71590000Y-83490000D02*
X73700000Y-85600000D01*
X71270000Y-116510000D02*
X71690000Y-116510000D01*
X71690000Y-116510000D02*
X73800000Y-114400000D01*
X73800000Y-114400000D02*
X73800000Y-113900000D01*
X124450000Y-102500000D02*
X124450000Y-103794000D01*
X124450000Y-103794000D02*
X126000000Y-105344000D01*
X126000000Y-105344000D02*
X126000000Y-114080000D01*
X126000000Y-114080000D02*
X128430000Y-116510000D01*
X128430000Y-116510000D02*
X128730000Y-116510000D01*
X124450000Y-97500000D02*
X124450000Y-102500000D01*
D27*
X100264983Y-96200000D02*
X100893600Y-96200000D01*
X89772217Y-96200000D02*
X89868050Y-96295833D01*
X89143600Y-96200000D02*
X89772217Y-96200000D01*
X89868050Y-96295833D02*
X100169150Y-96295833D01*
X100169150Y-96295833D02*
X100264983Y-96200000D01*
D28*
X85920000Y-74000000D02*
X89500000Y-74000000D01*
X89500000Y-74000000D02*
X95866600Y-74000000D01*
D27*
X89578617Y-85700000D02*
X89650000Y-85628617D01*
X88950000Y-85700000D02*
X89578617Y-85700000D01*
X81100000Y-107050000D02*
X81700000Y-106450000D01*
X81700000Y-106450000D02*
X82000000Y-106150000D01*
X124229377Y-85913700D02*
X123977077Y-85661400D01*
X126100000Y-85913700D02*
X124229377Y-85913700D01*
X123977077Y-85661400D02*
X123532578Y-85216901D01*
X85960000Y-113900000D02*
X86360000Y-114300000D01*
X80125300Y-113900000D02*
X85960000Y-113900000D01*
D29*
X90934100Y-81950000D02*
X89330700Y-83553400D01*
X112150000Y-81950000D02*
X90934100Y-81950000D01*
X113650000Y-88195900D02*
X113650000Y-83450000D01*
X113650000Y-83450000D02*
X112150000Y-81950000D01*
X81730000Y-102664900D02*
X81146000Y-102664900D01*
X81146000Y-102664900D02*
X78208500Y-99727400D01*
X78208500Y-99727400D02*
X78208500Y-99534000D01*
X81730000Y-103820000D02*
X81730000Y-102664900D01*
D27*
X123200000Y-103170900D02*
X99040200Y-103170900D01*
X99040200Y-103170900D02*
X98789600Y-102920300D01*
D28*
X123200000Y-103170900D02*
X123200000Y-96800000D01*
X124768000Y-107500000D02*
X124768000Y-106548000D01*
X124768000Y-106548000D02*
X124900000Y-106416000D01*
X124900000Y-106416000D02*
X124900000Y-105900000D01*
X124900000Y-105900000D02*
X123200000Y-104200000D01*
X123200000Y-104200000D02*
X123200000Y-103170900D01*
X123200000Y-96800000D02*
X123200000Y-96235000D01*
X123200000Y-96235000D02*
X125200000Y-94235000D01*
X125200000Y-94235000D02*
X125200000Y-93200000D01*
X125200000Y-93200000D02*
X124868000Y-92868100D01*
X124868000Y-92868100D02*
X124868000Y-92500000D01*
X123200000Y-96800000D02*
X123200000Y-97100000D01*
X123200000Y-97100000D02*
X123095691Y-97204309D01*
X123095691Y-97204309D02*
X122422592Y-97877408D01*
D27*
X118955900Y-98126000D02*
X118955900Y-100762200D01*
X118955900Y-100762200D02*
X119195700Y-101002000D01*
X77984100Y-106350000D02*
X77984100Y-104538200D01*
X77984100Y-104538200D02*
X75545900Y-102100000D01*
X75545900Y-102100000D02*
X74000000Y-102100000D01*
X79190000Y-106350000D02*
X77984100Y-106350000D01*
X90308500Y-93448800D02*
X91834700Y-94975000D01*
X91834700Y-94975000D02*
X95532000Y-94975000D01*
X95532000Y-94975000D02*
X96426500Y-94080500D01*
X114906200Y-94076300D02*
X109070246Y-94076300D01*
X97055117Y-94080500D02*
X97059317Y-94076300D01*
X97059317Y-94076300D02*
X109070246Y-94076300D01*
X118955900Y-98126000D02*
X114906200Y-94076300D01*
X96426500Y-94080500D02*
X97055117Y-94080500D01*
X120553200Y-76993517D02*
X120553200Y-76364900D01*
X119278800Y-94429100D02*
X123050101Y-90657799D01*
X123050101Y-85865951D02*
X120553200Y-83369050D01*
X123050101Y-90657799D02*
X123050101Y-85865951D01*
X120553200Y-83369050D02*
X120553200Y-76993517D01*
D28*
X86030000Y-128430000D02*
X87660000Y-126800000D01*
X87660000Y-126800000D02*
X97800000Y-126800000D01*
X97800000Y-126800000D02*
X98300000Y-126300000D01*
X98300000Y-126300000D02*
X101600000Y-126300000D01*
X101600000Y-126300000D02*
X102321000Y-127021000D01*
X102321000Y-127021000D02*
X112561000Y-127021000D01*
X112561000Y-127021000D02*
X113970000Y-128430000D01*
X113970000Y-128430000D02*
X113970000Y-128730000D01*
X128730000Y-113970000D02*
X128430000Y-113970000D01*
X128430000Y-113970000D02*
X126900000Y-112440000D01*
X126900000Y-112440000D02*
X126900000Y-105022000D01*
X126900000Y-105022000D02*
X125600000Y-103722000D01*
X125600000Y-103722000D02*
X125600000Y-96277600D01*
X125600000Y-96277600D02*
X127021000Y-94856400D01*
X127021000Y-94856400D02*
X127021000Y-87378800D01*
X127021000Y-87378800D02*
X128370000Y-86030000D01*
X128370000Y-86030000D02*
X128730000Y-86030000D01*
X86030000Y-71270000D02*
X86030000Y-71570000D01*
X86030000Y-71570000D02*
X87560000Y-73100000D01*
X87560000Y-73100000D02*
X97600000Y-73100000D01*
X97600000Y-73100000D02*
X98300000Y-73800000D01*
X98300000Y-73800000D02*
X101600000Y-73800000D01*
X101600000Y-73800000D02*
X102421000Y-72978800D01*
X102421000Y-72978800D02*
X112561000Y-72978800D01*
X112561000Y-72978800D02*
X113970000Y-71570000D01*
X113970000Y-71570000D02*
X113970000Y-71270000D01*
X86030000Y-128730000D02*
X86030000Y-128430000D01*
D29*
X92623700Y-90281400D02*
X93139981Y-89765119D01*
X93139981Y-89765119D02*
X94094400Y-89765119D01*
X92623700Y-90281400D02*
X92623700Y-90975100D01*
X92623700Y-90975100D02*
X92700000Y-91051400D01*
X92700000Y-91051400D02*
X92700000Y-93875000D01*
X92700000Y-93875000D02*
X92500000Y-94075000D01*
X94094400Y-89765119D02*
X94276165Y-89765119D01*
X92623999Y-90232235D02*
X92623999Y-90951565D01*
X73035100Y-90800000D02*
X82951200Y-90800000D01*
X82951200Y-90800000D02*
X83901200Y-89850000D01*
X72725100Y-91110000D02*
X73035100Y-90800000D01*
X71270000Y-91110000D02*
X72725100Y-91110000D01*
X89074600Y-89466200D02*
X91808500Y-89466200D01*
X91808500Y-89466200D02*
X92623700Y-90281400D01*
X88690800Y-89850000D02*
X89074600Y-89466200D01*
X83901200Y-89850000D02*
X88690800Y-89850000D01*
X94940230Y-88919289D02*
X96269289Y-88919289D01*
X94094400Y-89765119D02*
X94940230Y-88919289D01*
X96906467Y-89556467D02*
X97856467Y-89556467D01*
X96269289Y-88919289D02*
X96906467Y-89556467D01*
X98145110Y-89845110D02*
X104604890Y-89845110D01*
X97856467Y-89556467D02*
X98145110Y-89845110D01*
X104604890Y-89845110D02*
X105499301Y-88950699D01*
X110805499Y-83194499D02*
X110805499Y-86794501D01*
X111249998Y-82750000D02*
X110805499Y-83194499D01*
X108650000Y-88950000D02*
X107500000Y-88950000D01*
X110805499Y-86794501D02*
X108650000Y-88950000D01*
X105611433Y-88838567D02*
X105499301Y-88950699D01*
X107388567Y-88838567D02*
X105611433Y-88838567D01*
X107500000Y-88950000D02*
X107388567Y-88838567D01*
X123300000Y-106925000D02*
X101685334Y-106925000D01*
X95186499Y-100426165D02*
X94742000Y-99981666D01*
X101685334Y-106925000D02*
X95186499Y-100426165D01*
X71270000Y-108890000D02*
X87477400Y-108890000D01*
X87477400Y-108890000D02*
X90042900Y-106324500D01*
X97578617Y-91600000D02*
X96950000Y-91600000D01*
X118238762Y-95178401D02*
X115560361Y-92500000D01*
X120284751Y-95178401D02*
X118238762Y-95178401D01*
X123277962Y-92185190D02*
X120284751Y-95178401D01*
X115560361Y-92500000D02*
X98478617Y-92500000D01*
X98478617Y-92500000D02*
X97578617Y-91600000D01*
X85139600Y-87187724D02*
X85211812Y-87115512D01*
X91008297Y-87000697D02*
X85326627Y-87000697D01*
X85326627Y-87000697D02*
X85211812Y-87115512D01*
X91756200Y-87748600D02*
X91008297Y-87000697D01*
X85448200Y-87351800D02*
X85205501Y-87109101D01*
X85205501Y-87109101D02*
X85205501Y-77544499D01*
X85205501Y-77544499D02*
X85650000Y-77100000D01*
X93016702Y-103350698D02*
X96001198Y-103350698D01*
X96001198Y-103350698D02*
X104256001Y-111605501D01*
X106355501Y-112355501D02*
X106355501Y-113955503D01*
X104256001Y-111605501D02*
X105605501Y-111605501D01*
X105605501Y-111605501D02*
X106355501Y-112355501D01*
X106355501Y-113955503D02*
X106605501Y-114205503D01*
X90042900Y-106324500D02*
X93016702Y-103350698D01*
X106605501Y-114205503D02*
X107050000Y-114650002D01*
X85966600Y-85301100D02*
X91254700Y-80013000D01*
X91254700Y-80013000D02*
X112562100Y-80013000D01*
X112562100Y-80013000D02*
X114097600Y-78477500D01*
X117809200Y-78120300D02*
X117809200Y-72350800D01*
X117809200Y-72350800D02*
X118355000Y-71805000D01*
X112803275Y-81543589D02*
X113629840Y-82370154D01*
X91601689Y-81543589D02*
X112803275Y-81543589D01*
X91258300Y-81200200D02*
X91601689Y-81543589D01*
D27*
X91110000Y-78638900D02*
X91596200Y-79125100D01*
X91596200Y-79125100D02*
X107072800Y-79125100D01*
X107072800Y-79125100D02*
X107347600Y-78850300D01*
X91110000Y-77140000D02*
X91110000Y-78638900D01*
X95181700Y-106759100D02*
X99823600Y-111401000D01*
X99823600Y-111401000D02*
X99823600Y-113852600D01*
X94350200Y-107250200D02*
X94350200Y-106074798D01*
X98850000Y-111750000D02*
X94350200Y-107250200D01*
X94350200Y-106074798D02*
X96007906Y-104417092D01*
X98850000Y-114900000D02*
X98850000Y-111750000D01*
X96190000Y-122860000D02*
X96190000Y-122479000D01*
X99350000Y-115400000D02*
X98850000Y-114900000D01*
X96190000Y-122479000D02*
X99350000Y-119319000D01*
X99350000Y-119319000D02*
X99350000Y-115400000D01*
X93650000Y-77140000D02*
X93650000Y-75641100D01*
X93650000Y-75641100D02*
X104373100Y-75641100D01*
X104373100Y-75641100D02*
X105122900Y-76390900D01*
X105122900Y-76390900D02*
X105122900Y-78324600D01*
X104701714Y-112607830D02*
X105330331Y-112607830D01*
X101857571Y-114341129D02*
X103590870Y-112607830D01*
X103810000Y-122479000D02*
X101857571Y-120526571D01*
X103590870Y-112607830D02*
X104701714Y-112607830D01*
X103810000Y-122860000D02*
X103810000Y-122479000D01*
X101857571Y-120526571D02*
X101857571Y-114341129D01*
X102365581Y-114965019D02*
X103271301Y-114059299D01*
X106350000Y-122860000D02*
X106350000Y-122479000D01*
X102365581Y-118494581D02*
X102365581Y-114965019D01*
X103271301Y-114059299D02*
X103715800Y-113614800D01*
X106350000Y-122479000D02*
X102365581Y-118494581D01*
X108890000Y-122479000D02*
X103165682Y-116754682D01*
X103165682Y-116754682D02*
X103165682Y-116175391D01*
X108890000Y-122860000D02*
X108890000Y-122479000D01*
X101270000Y-122860000D02*
X101270000Y-110919800D01*
X101270000Y-110919800D02*
X100141200Y-109791000D01*
X98730000Y-121361100D02*
X100624000Y-119467100D01*
X100624000Y-119467100D02*
X100624000Y-111482400D01*
X100624000Y-111482400D02*
X96157000Y-107015400D01*
X96157000Y-107015400D02*
X96157000Y-105594800D01*
X98730000Y-122860000D02*
X98730000Y-121361100D01*
D29*
X74000000Y-97900000D02*
X74000000Y-98805100D01*
X74000000Y-98805100D02*
X74142000Y-98805100D01*
X74142000Y-98805100D02*
X80025200Y-104688300D01*
X71270000Y-106350000D02*
X72725100Y-106350000D01*
X75423900Y-103110000D02*
X72725100Y-105808800D01*
X72725100Y-105808800D02*
X72725100Y-106350000D01*
X92451700Y-80786500D02*
X113155154Y-80786500D01*
X116500000Y-84131346D02*
X116500000Y-87969300D01*
X113155154Y-80786500D02*
X116500000Y-84131346D01*
X87964900Y-80977900D02*
X88664500Y-80977900D01*
X88664500Y-80977900D02*
X90036100Y-79606300D01*
X90036100Y-79606300D02*
X108343500Y-79606300D01*
X108343500Y-79606300D02*
X112102700Y-75847100D01*
X94530967Y-100730967D02*
X103705501Y-109905501D01*
X91116368Y-97465000D02*
X94382335Y-100730967D01*
X103705501Y-109905501D02*
X105402769Y-109905501D01*
X105402769Y-109905501D02*
X108410855Y-112913587D01*
X108410855Y-112913587D02*
X108410855Y-113542204D01*
X77457200Y-97465000D02*
X91116368Y-97465000D01*
X94382335Y-100730967D02*
X94530967Y-100730967D01*
X71270000Y-111430000D02*
X71320000Y-111430000D01*
X88979090Y-109296410D02*
X89425500Y-108850000D01*
X73453590Y-109296410D02*
X88979090Y-109296410D01*
X71320000Y-111430000D02*
X73453590Y-109296410D01*
X90762500Y-107513000D02*
X89425500Y-108850000D01*
X87783834Y-87750000D02*
X89371383Y-87750000D01*
X72850000Y-90150000D02*
X82300000Y-90150000D01*
X89371383Y-87750000D02*
X90000000Y-87750000D01*
X86183834Y-89350000D02*
X87783834Y-87750000D01*
X71270000Y-88570000D02*
X72850000Y-90150000D01*
X82300000Y-90150000D02*
X83100000Y-89350000D01*
X83100000Y-89350000D02*
X86183834Y-89350000D01*
X95944288Y-90369288D02*
X95650000Y-90075000D01*
X97777305Y-90743589D02*
X97403004Y-90369288D01*
X97403004Y-90369288D02*
X95944288Y-90369288D01*
X119000000Y-90743589D02*
X97777305Y-90743589D01*
X119000000Y-90743589D02*
X119000000Y-91750000D01*
X119000000Y-91750000D02*
X119750000Y-92500000D01*
X88933283Y-90216500D02*
X88893373Y-90256410D01*
X89561900Y-90216500D02*
X88933283Y-90216500D01*
X88893373Y-90256410D02*
X88859140Y-90256410D01*
X72725100Y-93650000D02*
X75142300Y-91232800D01*
X71270000Y-93650000D02*
X72725100Y-93650000D01*
X88899050Y-90216500D02*
X88859140Y-90256410D01*
X89561900Y-90216500D02*
X88899050Y-90216500D01*
X83627366Y-91232800D02*
X83350000Y-91232800D01*
X84603756Y-90256410D02*
X83627366Y-91232800D01*
X88859140Y-90256410D02*
X84603756Y-90256410D01*
X75142300Y-91232800D02*
X83350000Y-91232800D01*
X97571344Y-89962877D02*
X97945645Y-90337178D01*
X118412822Y-90337178D02*
X121805501Y-86944499D01*
X94900699Y-90040335D02*
X94900699Y-89715335D01*
X93373300Y-90591900D02*
X94349134Y-90591900D01*
X121805501Y-86944499D02*
X122250000Y-86500000D01*
X95290335Y-89325699D02*
X96009665Y-89325699D01*
X94349134Y-90591900D02*
X94900699Y-90040335D01*
X97945645Y-90337178D02*
X118412822Y-90337178D01*
X96646843Y-89962877D02*
X97571344Y-89962877D01*
X96009665Y-89325699D02*
X96646843Y-89962877D01*
X94900699Y-89715335D02*
X95290335Y-89325699D01*
X121571101Y-114476499D02*
X108285465Y-114476499D01*
X108285465Y-114476499D02*
X107159665Y-113350699D01*
X107159665Y-113350699D02*
X107159665Y-112568631D01*
X95101325Y-101876075D02*
X94561103Y-101876075D01*
X122015600Y-114032000D02*
X121571101Y-114476499D01*
X107159665Y-112568631D02*
X105290335Y-110699301D01*
X105290335Y-110699301D02*
X103924551Y-110699301D01*
X103924551Y-110699301D02*
X95101325Y-101876075D01*
X94561103Y-101876075D02*
X94116604Y-101431576D01*
X121104974Y-98423973D02*
X121549473Y-98868472D01*
X115391991Y-92906411D02*
X120909553Y-98423973D01*
X120909553Y-98423973D02*
X121104974Y-98423973D01*
X94400000Y-92355500D02*
X94950911Y-92906411D01*
X94950911Y-92906411D02*
X115391991Y-92906411D01*
X115223640Y-93312822D02*
X120766502Y-98855684D01*
X120766502Y-99001356D02*
X120766502Y-99629973D01*
X94400000Y-93444500D02*
X95028617Y-93444500D01*
X120766502Y-98855684D02*
X120766502Y-99001356D01*
X95160295Y-93312822D02*
X115223640Y-93312822D01*
X95028617Y-93444500D02*
X95160295Y-93312822D01*
X88738600Y-76810021D02*
X88529269Y-76600690D01*
X88738600Y-79784400D02*
X88738600Y-76810021D01*
X108687810Y-89587868D02*
X111750004Y-86525674D01*
X111750004Y-86525674D02*
X111750004Y-84000000D01*
X106442500Y-89587868D02*
X108687810Y-89587868D01*
X93526300Y-87800000D02*
X99521383Y-87800000D01*
X91027900Y-85301600D02*
X93526300Y-87800000D01*
X99521383Y-87800000D02*
X100150000Y-87800000D01*
X103351383Y-95285600D02*
X103198361Y-95438622D01*
X91076978Y-95438622D02*
X87784422Y-95438622D01*
X91476978Y-95838622D02*
X91076978Y-95438622D01*
X103198361Y-95438622D02*
X96289722Y-95438622D01*
X87784422Y-95438622D02*
X85702400Y-93356600D01*
X103980000Y-95285600D02*
X103351383Y-95285600D01*
X95889722Y-95838622D02*
X91476978Y-95838622D01*
X96289722Y-95438622D02*
X95889722Y-95838622D01*
X91245318Y-95032211D02*
X90313494Y-95032211D01*
X104671700Y-94536000D02*
X99299000Y-94536000D01*
X99299000Y-94536000D02*
X98802789Y-95032211D01*
X105165200Y-95029500D02*
X104671700Y-94536000D01*
X90313494Y-95032211D02*
X88394700Y-93113417D01*
X91645318Y-95432211D02*
X91245318Y-95032211D01*
X96121382Y-95032211D02*
X95721382Y-95432211D01*
X88394700Y-93113417D02*
X88394700Y-92484800D01*
X95721382Y-95432211D02*
X91645318Y-95432211D01*
X98802789Y-95032211D02*
X96121382Y-95032211D01*
X103561300Y-89438700D02*
X104750000Y-88250000D01*
X98788700Y-89438700D02*
X103561300Y-89438700D01*
X87633500Y-89009300D02*
X94140700Y-89009300D01*
X97850000Y-88500000D02*
X98788700Y-89438700D01*
X94140700Y-89009300D02*
X94650000Y-88500000D01*
X94650000Y-88500000D02*
X97850000Y-88500000D01*
X106589800Y-101676300D02*
X101915300Y-97001800D01*
X101915300Y-97001800D02*
X85467200Y-97001800D01*
X85467200Y-97001800D02*
X84895900Y-96430500D01*
D30*
G36*
X94928406Y-104202366D02*
X94928406Y-104383040D01*
X93848263Y-105463184D01*
X93782517Y-105507114D01*
X93738587Y-105572860D01*
X93608486Y-105767570D01*
X93547374Y-106074798D01*
X93562801Y-106152353D01*
X93562800Y-107172648D01*
X93547374Y-107250200D01*
X93562800Y-107327751D01*
X93608485Y-107557427D01*
X93782516Y-107817884D01*
X93848265Y-107861816D01*
X98062601Y-112076153D01*
X98062600Y-114822449D01*
X98047174Y-114900000D01*
X98062600Y-114977551D01*
X98108285Y-115207227D01*
X98282316Y-115467684D01*
X98348065Y-115511616D01*
X98562601Y-115726152D01*
X98562600Y-118992848D01*
X96449249Y-121106200D01*
X96190000Y-121054632D01*
X95644918Y-121163056D01*
X95182820Y-121471821D01*
X94920000Y-121865159D01*
X94657179Y-121471820D01*
X94195081Y-121163056D01*
X93650000Y-121054632D01*
X93104918Y-121163056D01*
X92642820Y-121471821D01*
X92510162Y-121670357D01*
X92470157Y-121469235D01*
X92329809Y-121259191D01*
X92119765Y-121118843D01*
X91872000Y-121069560D01*
X90348000Y-121069560D01*
X90100235Y-121118843D01*
X89890191Y-121259191D01*
X89749843Y-121469235D01*
X89700560Y-121717000D01*
X89700560Y-124003000D01*
X89749843Y-124250765D01*
X89890191Y-124460809D01*
X90100235Y-124601157D01*
X90348000Y-124650440D01*
X91872000Y-124650440D01*
X92119765Y-124601157D01*
X92329809Y-124460809D01*
X92470157Y-124250765D01*
X92510162Y-124049643D01*
X92642821Y-124248180D01*
X93104919Y-124556944D01*
X93650000Y-124665368D01*
X94195082Y-124556944D01*
X94657180Y-124248180D01*
X94920000Y-123854842D01*
X95182821Y-124248180D01*
X95644919Y-124556944D01*
X96190000Y-124665368D01*
X96735082Y-124556944D01*
X97197180Y-124248180D01*
X97460000Y-123854842D01*
X97722821Y-124248180D01*
X98184919Y-124556944D01*
X98730000Y-124665368D01*
X99275082Y-124556944D01*
X99737180Y-124248180D01*
X100000000Y-123854842D01*
X100262821Y-124248180D01*
X100724919Y-124556944D01*
X101270000Y-124665368D01*
X101815082Y-124556944D01*
X102277180Y-124248180D01*
X102540000Y-123854842D01*
X102802821Y-124248180D01*
X103264919Y-124556944D01*
X103810000Y-124665368D01*
X104355082Y-124556944D01*
X104817180Y-124248180D01*
X105080000Y-123854842D01*
X105342821Y-124248180D01*
X105804919Y-124556944D01*
X106350000Y-124665368D01*
X106895082Y-124556944D01*
X107357180Y-124248180D01*
X107620000Y-123854842D01*
X107882821Y-124248180D01*
X108344919Y-124556944D01*
X108890000Y-124665368D01*
X109435082Y-124556944D01*
X109897180Y-124248180D01*
X110205944Y-123786082D01*
X110287000Y-123378587D01*
X110287000Y-122341412D01*
X110205944Y-121933918D01*
X109897179Y-121471820D01*
X109435081Y-121163056D01*
X108890000Y-121054632D01*
X108630752Y-121106200D01*
X104320302Y-116795750D01*
X126945000Y-116795750D01*
X126945000Y-117486310D01*
X127041673Y-117719699D01*
X127220302Y-117898327D01*
X127453691Y-117995000D01*
X128444250Y-117995000D01*
X128603000Y-117836250D01*
X128603000Y-116637000D01*
X127103750Y-116637000D01*
X126945000Y-116795750D01*
X104320302Y-116795750D01*
X104148377Y-116623826D01*
X104245182Y-116390117D01*
X104245182Y-115960665D01*
X104080838Y-115563903D01*
X103777170Y-115260235D01*
X103380408Y-115095891D01*
X103348260Y-115095891D01*
X103749851Y-114694300D01*
X103930526Y-114694300D01*
X104327288Y-114529956D01*
X104630956Y-114226288D01*
X104795300Y-113829526D01*
X104795300Y-113554655D01*
X105115605Y-113687330D01*
X105545057Y-113687330D01*
X105618902Y-113656743D01*
X105618902Y-113882958D01*
X105604472Y-113955503D01*
X105661640Y-114242909D01*
X105783350Y-114425061D01*
X105783353Y-114425064D01*
X105824444Y-114486561D01*
X105885942Y-114527653D01*
X105970500Y-114612210D01*
X105970500Y-114864728D01*
X106134844Y-115261490D01*
X106438512Y-115565158D01*
X106835274Y-115729502D01*
X107264726Y-115729502D01*
X107661488Y-115565158D01*
X107965156Y-115261490D01*
X108002534Y-115171250D01*
X108212921Y-115213099D01*
X108212924Y-115213099D01*
X108285465Y-115227528D01*
X108358005Y-115213099D01*
X121498561Y-115213099D01*
X121571101Y-115227528D01*
X121643641Y-115213099D01*
X121643645Y-115213099D01*
X121858508Y-115170360D01*
X121946598Y-115111500D01*
X122230326Y-115111500D01*
X122627088Y-114947156D01*
X122930756Y-114643488D01*
X123095100Y-114246726D01*
X123095100Y-113817274D01*
X122930756Y-113420512D01*
X122627088Y-113116844D01*
X122230326Y-112952500D01*
X121800874Y-112952500D01*
X121404112Y-113116844D01*
X121100444Y-113420512D01*
X120968150Y-113739899D01*
X109490355Y-113739899D01*
X109490355Y-113327478D01*
X109326011Y-112930716D01*
X109125385Y-112730090D01*
X109104716Y-112626180D01*
X109087003Y-112599670D01*
X108983006Y-112444028D01*
X108983004Y-112444026D01*
X108941913Y-112382529D01*
X108880416Y-112341438D01*
X105974919Y-109435942D01*
X105933827Y-109374443D01*
X105690176Y-109211640D01*
X105475313Y-109168901D01*
X105475309Y-109168901D01*
X105402769Y-109154472D01*
X105330229Y-109168901D01*
X104010610Y-109168901D01*
X102503309Y-107661600D01*
X122509956Y-107661600D01*
X122688512Y-107840156D01*
X123085274Y-108004500D01*
X123514726Y-108004500D01*
X123554303Y-107988106D01*
X123659047Y-108240979D01*
X124027021Y-108608953D01*
X124507803Y-108808100D01*
X125028197Y-108808100D01*
X125508979Y-108608953D01*
X125876953Y-108240979D01*
X125960201Y-108040002D01*
X125960200Y-112347446D01*
X125941790Y-112440000D01*
X125960200Y-112532554D01*
X125960200Y-112532558D01*
X126014728Y-112806690D01*
X126014729Y-112806691D01*
X126014729Y-112806692D01*
X126102095Y-112937444D01*
X126222443Y-113117557D01*
X126300910Y-113169988D01*
X126946604Y-113815681D01*
X126915908Y-113970000D01*
X127031161Y-114549418D01*
X127359375Y-115040625D01*
X127381033Y-115055096D01*
X127220302Y-115121673D01*
X127041673Y-115300301D01*
X126945000Y-115533690D01*
X126945000Y-116224250D01*
X127103750Y-116383000D01*
X128603000Y-116383000D01*
X128603000Y-116363000D01*
X128857000Y-116363000D01*
X128857000Y-116383000D01*
X128877000Y-116383000D01*
X128877000Y-116637000D01*
X128857000Y-116637000D01*
X128857000Y-117836250D01*
X129015750Y-117995000D01*
X129174501Y-117995000D01*
X129174501Y-124963224D01*
X129135000Y-125405824D01*
X129135000Y-124177497D01*
X128505483Y-122657711D01*
X127342289Y-121494517D01*
X125822503Y-120865000D01*
X124177497Y-120865000D01*
X122657711Y-121494517D01*
X121494517Y-122657711D01*
X120865000Y-124177497D01*
X120865000Y-125822503D01*
X121494517Y-127342289D01*
X122657711Y-128505483D01*
X124177497Y-129135000D01*
X125507623Y-129135000D01*
X124969732Y-129174500D01*
X117995000Y-129174500D01*
X117995000Y-129015750D01*
X117836250Y-128857000D01*
X116637000Y-128857000D01*
X116637000Y-128877000D01*
X116383000Y-128877000D01*
X116383000Y-128857000D01*
X116363000Y-128857000D01*
X116363000Y-128603000D01*
X116383000Y-128603000D01*
X116383000Y-127103750D01*
X116637000Y-127103750D01*
X116637000Y-128603000D01*
X117836250Y-128603000D01*
X117995000Y-128444250D01*
X117995000Y-127453691D01*
X117898327Y-127220302D01*
X117719699Y-127041673D01*
X117486310Y-126945000D01*
X116795750Y-126945000D01*
X116637000Y-127103750D01*
X116383000Y-127103750D01*
X116224250Y-126945000D01*
X115533690Y-126945000D01*
X115300301Y-127041673D01*
X115121673Y-127220302D01*
X115055096Y-127381033D01*
X115040625Y-127359375D01*
X114549417Y-127031161D01*
X113970000Y-126915908D01*
X113815681Y-126946604D01*
X113290987Y-126421910D01*
X113238557Y-126343443D01*
X112927691Y-126135728D01*
X112653559Y-126081200D01*
X112653554Y-126081200D01*
X112561000Y-126062790D01*
X112468446Y-126081200D01*
X102710278Y-126081200D01*
X102329987Y-125700910D01*
X102277557Y-125622443D01*
X101966691Y-125414728D01*
X101692559Y-125360200D01*
X101692554Y-125360200D01*
X101600000Y-125341790D01*
X101507446Y-125360200D01*
X98392554Y-125360200D01*
X98300000Y-125341790D01*
X98207446Y-125360200D01*
X98207441Y-125360200D01*
X97933309Y-125414728D01*
X97622443Y-125622443D01*
X97570012Y-125700911D01*
X97410723Y-125860200D01*
X87752553Y-125860200D01*
X87659999Y-125841790D01*
X87567445Y-125860200D01*
X87567441Y-125860200D01*
X87293309Y-125914728D01*
X87293308Y-125914729D01*
X87293307Y-125914729D01*
X87227342Y-125958806D01*
X86982443Y-126122443D01*
X86930012Y-126200911D01*
X86184319Y-126946604D01*
X86030000Y-126915908D01*
X85450583Y-127031161D01*
X84959375Y-127359375D01*
X84944904Y-127381033D01*
X84878327Y-127220302D01*
X84699699Y-127041673D01*
X84466310Y-126945000D01*
X83775750Y-126945000D01*
X83617000Y-127103750D01*
X83617000Y-128603000D01*
X83637000Y-128603000D01*
X83637000Y-128857000D01*
X83617000Y-128857000D01*
X83617000Y-128877000D01*
X83363000Y-128877000D01*
X83363000Y-128857000D01*
X82163750Y-128857000D01*
X82005000Y-129015750D01*
X82005000Y-129174500D01*
X75036765Y-129174500D01*
X74594176Y-129135000D01*
X75822503Y-129135000D01*
X77342289Y-128505483D01*
X78394081Y-127453691D01*
X82005000Y-127453691D01*
X82005000Y-128444250D01*
X82163750Y-128603000D01*
X83363000Y-128603000D01*
X83363000Y-127103750D01*
X83204250Y-126945000D01*
X82513690Y-126945000D01*
X82280301Y-127041673D01*
X82101673Y-127220302D01*
X82005000Y-127453691D01*
X78394081Y-127453691D01*
X78505483Y-127342289D01*
X79135000Y-125822503D01*
X79135000Y-124177497D01*
X78505483Y-122657711D01*
X77342289Y-121494517D01*
X75822503Y-120865000D01*
X74177497Y-120865000D01*
X72657711Y-121494517D01*
X71494517Y-122657711D01*
X70865000Y-124177497D01*
X70865000Y-125507623D01*
X70825500Y-124969732D01*
X70825500Y-117995000D01*
X70984250Y-117995000D01*
X71143000Y-117836250D01*
X71143000Y-116637000D01*
X71397000Y-116637000D01*
X71397000Y-117836250D01*
X71555750Y-117995000D01*
X72546309Y-117995000D01*
X72779698Y-117898327D01*
X72958327Y-117719699D01*
X73055000Y-117486310D01*
X73055000Y-116795750D01*
X72896250Y-116637000D01*
X71397000Y-116637000D01*
X71143000Y-116637000D01*
X71123000Y-116637000D01*
X71123000Y-116383000D01*
X71143000Y-116383000D01*
X71143000Y-116363000D01*
X71397000Y-116363000D01*
X71397000Y-116383000D01*
X72896250Y-116383000D01*
X73055000Y-116224250D01*
X73055000Y-115533690D01*
X72958327Y-115300301D01*
X72779698Y-115121673D01*
X72618967Y-115055096D01*
X72640625Y-115040625D01*
X72968839Y-114549418D01*
X73084092Y-113970000D01*
X72968839Y-113390582D01*
X72640625Y-112899375D01*
X72342239Y-112700000D01*
X72640625Y-112500625D01*
X72968839Y-112009418D01*
X73084092Y-111430000D01*
X72968839Y-110850582D01*
X72957739Y-110833970D01*
X73758700Y-110033010D01*
X88906550Y-110033010D01*
X88979090Y-110047439D01*
X89051630Y-110033010D01*
X89051634Y-110033010D01*
X89266497Y-109990271D01*
X89510148Y-109827468D01*
X89551241Y-109765968D01*
X89997651Y-109319558D01*
X90724710Y-108592500D01*
X90977226Y-108592500D01*
X91373988Y-108428156D01*
X91677656Y-108124488D01*
X91842000Y-107727726D01*
X91842000Y-107298274D01*
X91677656Y-106901512D01*
X91373988Y-106597844D01*
X91122400Y-106493633D01*
X91122400Y-106286709D01*
X93321812Y-104087298D01*
X94976069Y-104087298D01*
X94928406Y-104202366D01*
X94928406Y-104202366D01*
G37*
X94928406Y-104202366D02*
X94928406Y-104383040D01*
X93848263Y-105463184D01*
X93782517Y-105507114D01*
X93738587Y-105572860D01*
X93608486Y-105767570D01*
X93547374Y-106074798D01*
X93562801Y-106152353D01*
X93562800Y-107172648D01*
X93547374Y-107250200D01*
X93562800Y-107327751D01*
X93608485Y-107557427D01*
X93782516Y-107817884D01*
X93848265Y-107861816D01*
X98062601Y-112076153D01*
X98062600Y-114822449D01*
X98047174Y-114900000D01*
X98062600Y-114977551D01*
X98108285Y-115207227D01*
X98282316Y-115467684D01*
X98348065Y-115511616D01*
X98562601Y-115726152D01*
X98562600Y-118992848D01*
X96449249Y-121106200D01*
X96190000Y-121054632D01*
X95644918Y-121163056D01*
X95182820Y-121471821D01*
X94920000Y-121865159D01*
X94657179Y-121471820D01*
X94195081Y-121163056D01*
X93650000Y-121054632D01*
X93104918Y-121163056D01*
X92642820Y-121471821D01*
X92510162Y-121670357D01*
X92470157Y-121469235D01*
X92329809Y-121259191D01*
X92119765Y-121118843D01*
X91872000Y-121069560D01*
X90348000Y-121069560D01*
X90100235Y-121118843D01*
X89890191Y-121259191D01*
X89749843Y-121469235D01*
X89700560Y-121717000D01*
X89700560Y-124003000D01*
X89749843Y-124250765D01*
X89890191Y-124460809D01*
X90100235Y-124601157D01*
X90348000Y-124650440D01*
X91872000Y-124650440D01*
X92119765Y-124601157D01*
X92329809Y-124460809D01*
X92470157Y-124250765D01*
X92510162Y-124049643D01*
X92642821Y-124248180D01*
X93104919Y-124556944D01*
X93650000Y-124665368D01*
X94195082Y-124556944D01*
X94657180Y-124248180D01*
X94920000Y-123854842D01*
X95182821Y-124248180D01*
X95644919Y-124556944D01*
X96190000Y-124665368D01*
X96735082Y-124556944D01*
X97197180Y-124248180D01*
X97460000Y-123854842D01*
X97722821Y-124248180D01*
X98184919Y-124556944D01*
X98730000Y-124665368D01*
X99275082Y-124556944D01*
X99737180Y-124248180D01*
X100000000Y-123854842D01*
X100262821Y-124248180D01*
X100724919Y-124556944D01*
X101270000Y-124665368D01*
X101815082Y-124556944D01*
X102277180Y-124248180D01*
X102540000Y-123854842D01*
X102802821Y-124248180D01*
X103264919Y-124556944D01*
X103810000Y-124665368D01*
X104355082Y-124556944D01*
X104817180Y-124248180D01*
X105080000Y-123854842D01*
X105342821Y-124248180D01*
X105804919Y-124556944D01*
X106350000Y-124665368D01*
X106895082Y-124556944D01*
X107357180Y-124248180D01*
X107620000Y-123854842D01*
X107882821Y-124248180D01*
X108344919Y-124556944D01*
X108890000Y-124665368D01*
X109435082Y-124556944D01*
X109897180Y-124248180D01*
X110205944Y-123786082D01*
X110287000Y-123378587D01*
X110287000Y-122341412D01*
X110205944Y-121933918D01*
X109897179Y-121471820D01*
X109435081Y-121163056D01*
X108890000Y-121054632D01*
X108630752Y-121106200D01*
X104320302Y-116795750D01*
X126945000Y-116795750D01*
X126945000Y-117486310D01*
X127041673Y-117719699D01*
X127220302Y-117898327D01*
X127453691Y-117995000D01*
X128444250Y-117995000D01*
X128603000Y-117836250D01*
X128603000Y-116637000D01*
X127103750Y-116637000D01*
X126945000Y-116795750D01*
X104320302Y-116795750D01*
X104148377Y-116623826D01*
X104245182Y-116390117D01*
X104245182Y-115960665D01*
X104080838Y-115563903D01*
X103777170Y-115260235D01*
X103380408Y-115095891D01*
X103348260Y-115095891D01*
X103749851Y-114694300D01*
X103930526Y-114694300D01*
X104327288Y-114529956D01*
X104630956Y-114226288D01*
X104795300Y-113829526D01*
X104795300Y-113554655D01*
X105115605Y-113687330D01*
X105545057Y-113687330D01*
X105618902Y-113656743D01*
X105618902Y-113882958D01*
X105604472Y-113955503D01*
X105661640Y-114242909D01*
X105783350Y-114425061D01*
X105783353Y-114425064D01*
X105824444Y-114486561D01*
X105885942Y-114527653D01*
X105970500Y-114612210D01*
X105970500Y-114864728D01*
X106134844Y-115261490D01*
X106438512Y-115565158D01*
X106835274Y-115729502D01*
X107264726Y-115729502D01*
X107661488Y-115565158D01*
X107965156Y-115261490D01*
X108002534Y-115171250D01*
X108212921Y-115213099D01*
X108212924Y-115213099D01*
X108285465Y-115227528D01*
X108358005Y-115213099D01*
X121498561Y-115213099D01*
X121571101Y-115227528D01*
X121643641Y-115213099D01*
X121643645Y-115213099D01*
X121858508Y-115170360D01*
X121946598Y-115111500D01*
X122230326Y-115111500D01*
X122627088Y-114947156D01*
X122930756Y-114643488D01*
X123095100Y-114246726D01*
X123095100Y-113817274D01*
X122930756Y-113420512D01*
X122627088Y-113116844D01*
X122230326Y-112952500D01*
X121800874Y-112952500D01*
X121404112Y-113116844D01*
X121100444Y-113420512D01*
X120968150Y-113739899D01*
X109490355Y-113739899D01*
X109490355Y-113327478D01*
X109326011Y-112930716D01*
X109125385Y-112730090D01*
X109104716Y-112626180D01*
X109087003Y-112599670D01*
X108983006Y-112444028D01*
X108983004Y-112444026D01*
X108941913Y-112382529D01*
X108880416Y-112341438D01*
X105974919Y-109435942D01*
X105933827Y-109374443D01*
X105690176Y-109211640D01*
X105475313Y-109168901D01*
X105475309Y-109168901D01*
X105402769Y-109154472D01*
X105330229Y-109168901D01*
X104010610Y-109168901D01*
X102503309Y-107661600D01*
X122509956Y-107661600D01*
X122688512Y-107840156D01*
X123085274Y-108004500D01*
X123514726Y-108004500D01*
X123554303Y-107988106D01*
X123659047Y-108240979D01*
X124027021Y-108608953D01*
X124507803Y-108808100D01*
X125028197Y-108808100D01*
X125508979Y-108608953D01*
X125876953Y-108240979D01*
X125960201Y-108040002D01*
X125960200Y-112347446D01*
X125941790Y-112440000D01*
X125960200Y-112532554D01*
X125960200Y-112532558D01*
X126014728Y-112806690D01*
X126014729Y-112806691D01*
X126014729Y-112806692D01*
X126102095Y-112937444D01*
X126222443Y-113117557D01*
X126300910Y-113169988D01*
X126946604Y-113815681D01*
X126915908Y-113970000D01*
X127031161Y-114549418D01*
X127359375Y-115040625D01*
X127381033Y-115055096D01*
X127220302Y-115121673D01*
X127041673Y-115300301D01*
X126945000Y-115533690D01*
X126945000Y-116224250D01*
X127103750Y-116383000D01*
X128603000Y-116383000D01*
X128603000Y-116363000D01*
X128857000Y-116363000D01*
X128857000Y-116383000D01*
X128877000Y-116383000D01*
X128877000Y-116637000D01*
X128857000Y-116637000D01*
X128857000Y-117836250D01*
X129015750Y-117995000D01*
X129174501Y-117995000D01*
X129174501Y-124963224D01*
X129135000Y-125405824D01*
X129135000Y-124177497D01*
X128505483Y-122657711D01*
X127342289Y-121494517D01*
X125822503Y-120865000D01*
X124177497Y-120865000D01*
X122657711Y-121494517D01*
X121494517Y-122657711D01*
X120865000Y-124177497D01*
X120865000Y-125822503D01*
X121494517Y-127342289D01*
X122657711Y-128505483D01*
X124177497Y-129135000D01*
X125507623Y-129135000D01*
X124969732Y-129174500D01*
X117995000Y-129174500D01*
X117995000Y-129015750D01*
X117836250Y-128857000D01*
X116637000Y-128857000D01*
X116637000Y-128877000D01*
X116383000Y-128877000D01*
X116383000Y-128857000D01*
X116363000Y-128857000D01*
X116363000Y-128603000D01*
X116383000Y-128603000D01*
X116383000Y-127103750D01*
X116637000Y-127103750D01*
X116637000Y-128603000D01*
X117836250Y-128603000D01*
X117995000Y-128444250D01*
X117995000Y-127453691D01*
X117898327Y-127220302D01*
X117719699Y-127041673D01*
X117486310Y-126945000D01*
X116795750Y-126945000D01*
X116637000Y-127103750D01*
X116383000Y-127103750D01*
X116224250Y-126945000D01*
X115533690Y-126945000D01*
X115300301Y-127041673D01*
X115121673Y-127220302D01*
X115055096Y-127381033D01*
X115040625Y-127359375D01*
X114549417Y-127031161D01*
X113970000Y-126915908D01*
X113815681Y-126946604D01*
X113290987Y-126421910D01*
X113238557Y-126343443D01*
X112927691Y-126135728D01*
X112653559Y-126081200D01*
X112653554Y-126081200D01*
X112561000Y-126062790D01*
X112468446Y-126081200D01*
X102710278Y-126081200D01*
X102329987Y-125700910D01*
X102277557Y-125622443D01*
X101966691Y-125414728D01*
X101692559Y-125360200D01*
X101692554Y-125360200D01*
X101600000Y-125341790D01*
X101507446Y-125360200D01*
X98392554Y-125360200D01*
X98300000Y-125341790D01*
X98207446Y-125360200D01*
X98207441Y-125360200D01*
X97933309Y-125414728D01*
X97622443Y-125622443D01*
X97570012Y-125700911D01*
X97410723Y-125860200D01*
X87752553Y-125860200D01*
X87659999Y-125841790D01*
X87567445Y-125860200D01*
X87567441Y-125860200D01*
X87293309Y-125914728D01*
X87293308Y-125914729D01*
X87293307Y-125914729D01*
X87227342Y-125958806D01*
X86982443Y-126122443D01*
X86930012Y-126200911D01*
X86184319Y-126946604D01*
X86030000Y-126915908D01*
X85450583Y-127031161D01*
X84959375Y-127359375D01*
X84944904Y-127381033D01*
X84878327Y-127220302D01*
X84699699Y-127041673D01*
X84466310Y-126945000D01*
X83775750Y-126945000D01*
X83617000Y-127103750D01*
X83617000Y-128603000D01*
X83637000Y-128603000D01*
X83637000Y-128857000D01*
X83617000Y-128857000D01*
X83617000Y-128877000D01*
X83363000Y-128877000D01*
X83363000Y-128857000D01*
X82163750Y-128857000D01*
X82005000Y-129015750D01*
X82005000Y-129174500D01*
X75036765Y-129174500D01*
X74594176Y-129135000D01*
X75822503Y-129135000D01*
X77342289Y-128505483D01*
X78394081Y-127453691D01*
X82005000Y-127453691D01*
X82005000Y-128444250D01*
X82163750Y-128603000D01*
X83363000Y-128603000D01*
X83363000Y-127103750D01*
X83204250Y-126945000D01*
X82513690Y-126945000D01*
X82280301Y-127041673D01*
X82101673Y-127220302D01*
X82005000Y-127453691D01*
X78394081Y-127453691D01*
X78505483Y-127342289D01*
X79135000Y-125822503D01*
X79135000Y-124177497D01*
X78505483Y-122657711D01*
X77342289Y-121494517D01*
X75822503Y-120865000D01*
X74177497Y-120865000D01*
X72657711Y-121494517D01*
X71494517Y-122657711D01*
X70865000Y-124177497D01*
X70865000Y-125507623D01*
X70825500Y-124969732D01*
X70825500Y-117995000D01*
X70984250Y-117995000D01*
X71143000Y-117836250D01*
X71143000Y-116637000D01*
X71397000Y-116637000D01*
X71397000Y-117836250D01*
X71555750Y-117995000D01*
X72546309Y-117995000D01*
X72779698Y-117898327D01*
X72958327Y-117719699D01*
X73055000Y-117486310D01*
X73055000Y-116795750D01*
X72896250Y-116637000D01*
X71397000Y-116637000D01*
X71143000Y-116637000D01*
X71123000Y-116637000D01*
X71123000Y-116383000D01*
X71143000Y-116383000D01*
X71143000Y-116363000D01*
X71397000Y-116363000D01*
X71397000Y-116383000D01*
X72896250Y-116383000D01*
X73055000Y-116224250D01*
X73055000Y-115533690D01*
X72958327Y-115300301D01*
X72779698Y-115121673D01*
X72618967Y-115055096D01*
X72640625Y-115040625D01*
X72968839Y-114549418D01*
X73084092Y-113970000D01*
X72968839Y-113390582D01*
X72640625Y-112899375D01*
X72342239Y-112700000D01*
X72640625Y-112500625D01*
X72968839Y-112009418D01*
X73084092Y-111430000D01*
X72968839Y-110850582D01*
X72957739Y-110833970D01*
X73758700Y-110033010D01*
X88906550Y-110033010D01*
X88979090Y-110047439D01*
X89051630Y-110033010D01*
X89051634Y-110033010D01*
X89266497Y-109990271D01*
X89510148Y-109827468D01*
X89551241Y-109765968D01*
X89997651Y-109319558D01*
X90724710Y-108592500D01*
X90977226Y-108592500D01*
X91373988Y-108428156D01*
X91677656Y-108124488D01*
X91842000Y-107727726D01*
X91842000Y-107298274D01*
X91677656Y-106901512D01*
X91373988Y-106597844D01*
X91122400Y-106493633D01*
X91122400Y-106286709D01*
X93321812Y-104087298D01*
X94976069Y-104087298D01*
X94928406Y-104202366D01*
G36*
X93315597Y-100705939D02*
X93201448Y-100820088D01*
X93037104Y-101216850D01*
X93037104Y-101646302D01*
X93201448Y-102043064D01*
X93505116Y-102346732D01*
X93901878Y-102511076D01*
X94185606Y-102511076D01*
X94273696Y-102569936D01*
X94488559Y-102612675D01*
X94488562Y-102612675D01*
X94495716Y-102614098D01*
X93089242Y-102614098D01*
X93016701Y-102599669D01*
X92944161Y-102614098D01*
X92944158Y-102614098D01*
X92729295Y-102656837D01*
X92547143Y-102778547D01*
X92547141Y-102778549D01*
X92485644Y-102819640D01*
X92444553Y-102881138D01*
X90080691Y-105245000D01*
X89828174Y-105245000D01*
X89431412Y-105409344D01*
X89127744Y-105713012D01*
X88963400Y-106109774D01*
X88963400Y-106362290D01*
X87172291Y-108153400D01*
X79243752Y-108153400D01*
X79769417Y-108048839D01*
X80260625Y-107720625D01*
X80588839Y-107229418D01*
X80675000Y-106796256D01*
X80675000Y-105903745D01*
X80616900Y-105611653D01*
X80636688Y-105603456D01*
X80940356Y-105299788D01*
X80964500Y-105241499D01*
X81283744Y-105305000D01*
X82176256Y-105305000D01*
X82609418Y-105218839D01*
X83100625Y-104890625D01*
X83428839Y-104399418D01*
X83544092Y-103820000D01*
X83428839Y-103240582D01*
X83100625Y-102749375D01*
X82802239Y-102550000D01*
X83100625Y-102350625D01*
X83428839Y-101859418D01*
X83544092Y-101280000D01*
X83428839Y-100700582D01*
X83100625Y-100209375D01*
X82802239Y-100010000D01*
X83100625Y-99810625D01*
X83428839Y-99319418D01*
X83544092Y-98740000D01*
X83436998Y-98201600D01*
X90811259Y-98201600D01*
X93315597Y-100705939D01*
X93315597Y-100705939D01*
G37*
X93315597Y-100705939D02*
X93201448Y-100820088D01*
X93037104Y-101216850D01*
X93037104Y-101646302D01*
X93201448Y-102043064D01*
X93505116Y-102346732D01*
X93901878Y-102511076D01*
X94185606Y-102511076D01*
X94273696Y-102569936D01*
X94488559Y-102612675D01*
X94488562Y-102612675D01*
X94495716Y-102614098D01*
X93089242Y-102614098D01*
X93016701Y-102599669D01*
X92944161Y-102614098D01*
X92944158Y-102614098D01*
X92729295Y-102656837D01*
X92547143Y-102778547D01*
X92547141Y-102778549D01*
X92485644Y-102819640D01*
X92444553Y-102881138D01*
X90080691Y-105245000D01*
X89828174Y-105245000D01*
X89431412Y-105409344D01*
X89127744Y-105713012D01*
X88963400Y-106109774D01*
X88963400Y-106362290D01*
X87172291Y-108153400D01*
X79243752Y-108153400D01*
X79769417Y-108048839D01*
X80260625Y-107720625D01*
X80588839Y-107229418D01*
X80675000Y-106796256D01*
X80675000Y-105903745D01*
X80616900Y-105611653D01*
X80636688Y-105603456D01*
X80940356Y-105299788D01*
X80964500Y-105241499D01*
X81283744Y-105305000D01*
X82176256Y-105305000D01*
X82609418Y-105218839D01*
X83100625Y-104890625D01*
X83428839Y-104399418D01*
X83544092Y-103820000D01*
X83428839Y-103240582D01*
X83100625Y-102749375D01*
X82802239Y-102550000D01*
X83100625Y-102350625D01*
X83428839Y-101859418D01*
X83544092Y-101280000D01*
X83428839Y-100700582D01*
X83100625Y-100209375D01*
X82802239Y-100010000D01*
X83100625Y-99810625D01*
X83428839Y-99319418D01*
X83544092Y-98740000D01*
X83436998Y-98201600D01*
X90811259Y-98201600D01*
X93315597Y-100705939D01*
G36*
X124577000Y-97373000D02*
X124597000Y-97373000D01*
X124597000Y-97627000D01*
X124577000Y-97627000D01*
X124577000Y-98592734D01*
X124660201Y-98654322D01*
X124660200Y-101345678D01*
X124577000Y-101407266D01*
X124577000Y-102373000D01*
X124597000Y-102373000D01*
X124597000Y-102627000D01*
X124577000Y-102627000D01*
X124577000Y-103592734D01*
X124655887Y-103651129D01*
X124641790Y-103722000D01*
X124660200Y-103814554D01*
X124660200Y-103814558D01*
X124714728Y-104088690D01*
X124714729Y-104088691D01*
X124714729Y-104088692D01*
X124809797Y-104230971D01*
X124922443Y-104399557D01*
X125000910Y-104451987D01*
X125960201Y-105411279D01*
X125960201Y-106959998D01*
X125876953Y-106759021D01*
X125804410Y-106686478D01*
X125839800Y-106508559D01*
X125839800Y-106508555D01*
X125858210Y-106416001D01*
X125839800Y-106323447D01*
X125839800Y-105992553D01*
X125858210Y-105899999D01*
X125839800Y-105807445D01*
X125839800Y-105807441D01*
X125785272Y-105533309D01*
X125777310Y-105521393D01*
X125629988Y-105300910D01*
X125629986Y-105300908D01*
X125577557Y-105222443D01*
X125499092Y-105170014D01*
X124139800Y-103810723D01*
X124139800Y-103713243D01*
X124152062Y-103719268D01*
X124323000Y-103592734D01*
X124323000Y-102627000D01*
X124303000Y-102627000D01*
X124303000Y-102373000D01*
X124323000Y-102373000D01*
X124323000Y-101407266D01*
X124152062Y-101280732D01*
X124139800Y-101286757D01*
X124139800Y-98713243D01*
X124152062Y-98719268D01*
X124323000Y-98592734D01*
X124323000Y-97627000D01*
X124303000Y-97627000D01*
X124303000Y-97373000D01*
X124323000Y-97373000D01*
X124323000Y-97353000D01*
X124577000Y-97353000D01*
X124577000Y-97373000D01*
X124577000Y-97373000D01*
G37*
X124577000Y-97373000D02*
X124597000Y-97373000D01*
X124597000Y-97627000D01*
X124577000Y-97627000D01*
X124577000Y-98592734D01*
X124660201Y-98654322D01*
X124660200Y-101345678D01*
X124577000Y-101407266D01*
X124577000Y-102373000D01*
X124597000Y-102373000D01*
X124597000Y-102627000D01*
X124577000Y-102627000D01*
X124577000Y-103592734D01*
X124655887Y-103651129D01*
X124641790Y-103722000D01*
X124660200Y-103814554D01*
X124660200Y-103814558D01*
X124714728Y-104088690D01*
X124714729Y-104088691D01*
X124714729Y-104088692D01*
X124809797Y-104230971D01*
X124922443Y-104399557D01*
X125000910Y-104451987D01*
X125960201Y-105411279D01*
X125960201Y-106959998D01*
X125876953Y-106759021D01*
X125804410Y-106686478D01*
X125839800Y-106508559D01*
X125839800Y-106508555D01*
X125858210Y-106416001D01*
X125839800Y-106323447D01*
X125839800Y-105992553D01*
X125858210Y-105899999D01*
X125839800Y-105807445D01*
X125839800Y-105807441D01*
X125785272Y-105533309D01*
X125777310Y-105521393D01*
X125629988Y-105300910D01*
X125629986Y-105300908D01*
X125577557Y-105222443D01*
X125499092Y-105170014D01*
X124139800Y-103810723D01*
X124139800Y-103713243D01*
X124152062Y-103719268D01*
X124323000Y-103592734D01*
X124323000Y-102627000D01*
X124303000Y-102627000D01*
X124303000Y-102373000D01*
X124323000Y-102373000D01*
X124323000Y-101407266D01*
X124152062Y-101280732D01*
X124139800Y-101286757D01*
X124139800Y-98713243D01*
X124152062Y-98719268D01*
X124323000Y-98592734D01*
X124323000Y-97627000D01*
X124303000Y-97627000D01*
X124303000Y-97373000D01*
X124323000Y-97373000D01*
X124323000Y-97353000D01*
X124577000Y-97353000D01*
X124577000Y-97373000D01*
G36*
X127277000Y-96373000D02*
X127297000Y-96373000D01*
X127297000Y-96627000D01*
X127277000Y-96627000D01*
X127277000Y-97635000D01*
X127552000Y-97635000D01*
X127976678Y-97500002D01*
X128174500Y-97333216D01*
X128174501Y-102666784D01*
X127976678Y-102499998D01*
X127552000Y-102365000D01*
X127277000Y-102365000D01*
X127277000Y-103373000D01*
X127297000Y-103373000D01*
X127297000Y-103627000D01*
X127277000Y-103627000D01*
X127277000Y-103647000D01*
X127023000Y-103647000D01*
X127023000Y-103627000D01*
X127003000Y-103627000D01*
X127003000Y-103373000D01*
X127023000Y-103373000D01*
X127023000Y-102365000D01*
X126748000Y-102365000D01*
X126539800Y-102431183D01*
X126539800Y-97568817D01*
X126748000Y-97635000D01*
X127023000Y-97635000D01*
X127023000Y-96627000D01*
X127003000Y-96627000D01*
X127003000Y-96373000D01*
X127023000Y-96373000D01*
X127023000Y-96353000D01*
X127277000Y-96353000D01*
X127277000Y-96373000D01*
X127277000Y-96373000D01*
G37*
X127277000Y-96373000D02*
X127297000Y-96373000D01*
X127297000Y-96627000D01*
X127277000Y-96627000D01*
X127277000Y-97635000D01*
X127552000Y-97635000D01*
X127976678Y-97500002D01*
X128174500Y-97333216D01*
X128174501Y-102666784D01*
X127976678Y-102499998D01*
X127552000Y-102365000D01*
X127277000Y-102365000D01*
X127277000Y-103373000D01*
X127297000Y-103373000D01*
X127297000Y-103627000D01*
X127277000Y-103627000D01*
X127277000Y-103647000D01*
X127023000Y-103647000D01*
X127023000Y-103627000D01*
X127003000Y-103627000D01*
X127003000Y-103373000D01*
X127023000Y-103373000D01*
X127023000Y-102365000D01*
X126748000Y-102365000D01*
X126539800Y-102431183D01*
X126539800Y-97568817D01*
X126748000Y-97635000D01*
X127023000Y-97635000D01*
X127023000Y-96627000D01*
X127003000Y-96627000D01*
X127003000Y-96373000D01*
X127023000Y-96373000D01*
X127023000Y-96353000D01*
X127277000Y-96353000D01*
X127277000Y-96373000D01*
G36*
X91887100Y-90586510D02*
X91887100Y-90902560D01*
X91872671Y-90975100D01*
X91887100Y-91047640D01*
X91887100Y-91047644D01*
X91907700Y-91151203D01*
X91929839Y-91262506D01*
X91963400Y-91312734D01*
X91963401Y-93128824D01*
X91888512Y-93159844D01*
X91584844Y-93463512D01*
X91541472Y-93568221D01*
X91388000Y-93414749D01*
X91388000Y-93234074D01*
X91223656Y-92837312D01*
X90919988Y-92533644D01*
X90523226Y-92369300D01*
X90093774Y-92369300D01*
X89697012Y-92533644D01*
X89433944Y-92796712D01*
X89474200Y-92699526D01*
X89474200Y-92270074D01*
X89309856Y-91873312D01*
X89006188Y-91569644D01*
X88609426Y-91405300D01*
X88179974Y-91405300D01*
X87783212Y-91569644D01*
X87479544Y-91873312D01*
X87315200Y-92270074D01*
X87315200Y-92699526D01*
X87479544Y-93096288D01*
X87680170Y-93296914D01*
X87693235Y-93362593D01*
X87700839Y-93400823D01*
X87770457Y-93505013D01*
X87863642Y-93644475D01*
X87925142Y-93685568D01*
X88941596Y-94702022D01*
X88089532Y-94702022D01*
X86781900Y-93394391D01*
X86781900Y-93141874D01*
X86617556Y-92745112D01*
X86313888Y-92441444D01*
X85917126Y-92277100D01*
X85487674Y-92277100D01*
X85090912Y-92441444D01*
X84787244Y-92745112D01*
X84622900Y-93141874D01*
X84622900Y-93571326D01*
X84787244Y-93968088D01*
X85090912Y-94271756D01*
X85487674Y-94436100D01*
X85740191Y-94436100D01*
X87212272Y-95908182D01*
X87253364Y-95969680D01*
X87314861Y-96010771D01*
X87314863Y-96010773D01*
X87461870Y-96109000D01*
X87497015Y-96132483D01*
X87711878Y-96175222D01*
X87711881Y-96175222D01*
X87784422Y-96189651D01*
X87856962Y-96175222D01*
X90771870Y-96175222D01*
X90861848Y-96265200D01*
X85975400Y-96265200D01*
X85975400Y-96215774D01*
X85811056Y-95819012D01*
X85507388Y-95515344D01*
X85110626Y-95351000D01*
X84681174Y-95351000D01*
X84284412Y-95515344D01*
X83980744Y-95819012D01*
X83816400Y-96215774D01*
X83816400Y-96645226D01*
X83850852Y-96728400D01*
X83515000Y-96728400D01*
X83515000Y-96485750D01*
X83356250Y-96327000D01*
X81857000Y-96327000D01*
X81857000Y-96347000D01*
X81603000Y-96347000D01*
X81603000Y-96327000D01*
X80103750Y-96327000D01*
X79945000Y-96485750D01*
X79945000Y-96728400D01*
X78247244Y-96728400D01*
X78068688Y-96549844D01*
X77671926Y-96385500D01*
X77242474Y-96385500D01*
X76845712Y-96549844D01*
X76542044Y-96853512D01*
X76377700Y-97250274D01*
X76377700Y-97679726D01*
X76542044Y-98076488D01*
X76845712Y-98380156D01*
X77242474Y-98544500D01*
X77671926Y-98544500D01*
X78068688Y-98380156D01*
X78247244Y-98201600D01*
X80023002Y-98201600D01*
X79915908Y-98740000D01*
X80031161Y-99319418D01*
X80359375Y-99810625D01*
X80657761Y-100010000D01*
X80359375Y-100209375D01*
X80108158Y-100585349D01*
X79283178Y-99760369D01*
X79288000Y-99748726D01*
X79288000Y-99319274D01*
X79123656Y-98922512D01*
X78819988Y-98618844D01*
X78423226Y-98454500D01*
X77993774Y-98454500D01*
X77597012Y-98618844D01*
X77293344Y-98922512D01*
X77129000Y-99319274D01*
X77129000Y-99748726D01*
X77293344Y-100145488D01*
X77597012Y-100449156D01*
X77993774Y-100613500D01*
X78052891Y-100613500D01*
X80291039Y-102851648D01*
X80031161Y-103240582D01*
X79962811Y-103584201D01*
X75289296Y-98910686D01*
X75398157Y-98747765D01*
X75447440Y-98500000D01*
X75447440Y-97300000D01*
X75398157Y-97052235D01*
X75257809Y-96842191D01*
X75047765Y-96701843D01*
X74800000Y-96652560D01*
X73336985Y-96652560D01*
X73347440Y-96600000D01*
X73347440Y-95400000D01*
X73312371Y-95223690D01*
X79945000Y-95223690D01*
X79945000Y-95914250D01*
X80103750Y-96073000D01*
X81603000Y-96073000D01*
X81603000Y-94873750D01*
X81857000Y-94873750D01*
X81857000Y-96073000D01*
X83356250Y-96073000D01*
X83515000Y-95914250D01*
X83515000Y-95223690D01*
X83418327Y-94990301D01*
X83239698Y-94811673D01*
X83006309Y-94715000D01*
X82015750Y-94715000D01*
X81857000Y-94873750D01*
X81603000Y-94873750D01*
X81444250Y-94715000D01*
X80453691Y-94715000D01*
X80220302Y-94811673D01*
X80041673Y-94990301D01*
X79945000Y-95223690D01*
X73312371Y-95223690D01*
X73298157Y-95152235D01*
X73157809Y-94942191D01*
X72947765Y-94801843D01*
X72700000Y-94752560D01*
X72592831Y-94752560D01*
X72640625Y-94720625D01*
X72873956Y-94371421D01*
X73012507Y-94343861D01*
X73256158Y-94181058D01*
X73297251Y-94119558D01*
X75447410Y-91969400D01*
X83554826Y-91969400D01*
X83627366Y-91983829D01*
X83699906Y-91969400D01*
X83699910Y-91969400D01*
X83914773Y-91926661D01*
X84158424Y-91763858D01*
X84199517Y-91702358D01*
X84908866Y-90993010D01*
X88786600Y-90993010D01*
X88818015Y-90999259D01*
X88950412Y-91131656D01*
X89347174Y-91296000D01*
X89776626Y-91296000D01*
X90173388Y-91131656D01*
X90477056Y-90827988D01*
X90641400Y-90431226D01*
X90641400Y-90202800D01*
X91503391Y-90202800D01*
X91887100Y-90586510D01*
X91887100Y-90586510D01*
G37*
X91887100Y-90586510D02*
X91887100Y-90902560D01*
X91872671Y-90975100D01*
X91887100Y-91047640D01*
X91887100Y-91047644D01*
X91907700Y-91151203D01*
X91929839Y-91262506D01*
X91963400Y-91312734D01*
X91963401Y-93128824D01*
X91888512Y-93159844D01*
X91584844Y-93463512D01*
X91541472Y-93568221D01*
X91388000Y-93414749D01*
X91388000Y-93234074D01*
X91223656Y-92837312D01*
X90919988Y-92533644D01*
X90523226Y-92369300D01*
X90093774Y-92369300D01*
X89697012Y-92533644D01*
X89433944Y-92796712D01*
X89474200Y-92699526D01*
X89474200Y-92270074D01*
X89309856Y-91873312D01*
X89006188Y-91569644D01*
X88609426Y-91405300D01*
X88179974Y-91405300D01*
X87783212Y-91569644D01*
X87479544Y-91873312D01*
X87315200Y-92270074D01*
X87315200Y-92699526D01*
X87479544Y-93096288D01*
X87680170Y-93296914D01*
X87693235Y-93362593D01*
X87700839Y-93400823D01*
X87770457Y-93505013D01*
X87863642Y-93644475D01*
X87925142Y-93685568D01*
X88941596Y-94702022D01*
X88089532Y-94702022D01*
X86781900Y-93394391D01*
X86781900Y-93141874D01*
X86617556Y-92745112D01*
X86313888Y-92441444D01*
X85917126Y-92277100D01*
X85487674Y-92277100D01*
X85090912Y-92441444D01*
X84787244Y-92745112D01*
X84622900Y-93141874D01*
X84622900Y-93571326D01*
X84787244Y-93968088D01*
X85090912Y-94271756D01*
X85487674Y-94436100D01*
X85740191Y-94436100D01*
X87212272Y-95908182D01*
X87253364Y-95969680D01*
X87314861Y-96010771D01*
X87314863Y-96010773D01*
X87461870Y-96109000D01*
X87497015Y-96132483D01*
X87711878Y-96175222D01*
X87711881Y-96175222D01*
X87784422Y-96189651D01*
X87856962Y-96175222D01*
X90771870Y-96175222D01*
X90861848Y-96265200D01*
X85975400Y-96265200D01*
X85975400Y-96215774D01*
X85811056Y-95819012D01*
X85507388Y-95515344D01*
X85110626Y-95351000D01*
X84681174Y-95351000D01*
X84284412Y-95515344D01*
X83980744Y-95819012D01*
X83816400Y-96215774D01*
X83816400Y-96645226D01*
X83850852Y-96728400D01*
X83515000Y-96728400D01*
X83515000Y-96485750D01*
X83356250Y-96327000D01*
X81857000Y-96327000D01*
X81857000Y-96347000D01*
X81603000Y-96347000D01*
X81603000Y-96327000D01*
X80103750Y-96327000D01*
X79945000Y-96485750D01*
X79945000Y-96728400D01*
X78247244Y-96728400D01*
X78068688Y-96549844D01*
X77671926Y-96385500D01*
X77242474Y-96385500D01*
X76845712Y-96549844D01*
X76542044Y-96853512D01*
X76377700Y-97250274D01*
X76377700Y-97679726D01*
X76542044Y-98076488D01*
X76845712Y-98380156D01*
X77242474Y-98544500D01*
X77671926Y-98544500D01*
X78068688Y-98380156D01*
X78247244Y-98201600D01*
X80023002Y-98201600D01*
X79915908Y-98740000D01*
X80031161Y-99319418D01*
X80359375Y-99810625D01*
X80657761Y-100010000D01*
X80359375Y-100209375D01*
X80108158Y-100585349D01*
X79283178Y-99760369D01*
X79288000Y-99748726D01*
X79288000Y-99319274D01*
X79123656Y-98922512D01*
X78819988Y-98618844D01*
X78423226Y-98454500D01*
X77993774Y-98454500D01*
X77597012Y-98618844D01*
X77293344Y-98922512D01*
X77129000Y-99319274D01*
X77129000Y-99748726D01*
X77293344Y-100145488D01*
X77597012Y-100449156D01*
X77993774Y-100613500D01*
X78052891Y-100613500D01*
X80291039Y-102851648D01*
X80031161Y-103240582D01*
X79962811Y-103584201D01*
X75289296Y-98910686D01*
X75398157Y-98747765D01*
X75447440Y-98500000D01*
X75447440Y-97300000D01*
X75398157Y-97052235D01*
X75257809Y-96842191D01*
X75047765Y-96701843D01*
X74800000Y-96652560D01*
X73336985Y-96652560D01*
X73347440Y-96600000D01*
X73347440Y-95400000D01*
X73312371Y-95223690D01*
X79945000Y-95223690D01*
X79945000Y-95914250D01*
X80103750Y-96073000D01*
X81603000Y-96073000D01*
X81603000Y-94873750D01*
X81857000Y-94873750D01*
X81857000Y-96073000D01*
X83356250Y-96073000D01*
X83515000Y-95914250D01*
X83515000Y-95223690D01*
X83418327Y-94990301D01*
X83239698Y-94811673D01*
X83006309Y-94715000D01*
X82015750Y-94715000D01*
X81857000Y-94873750D01*
X81603000Y-94873750D01*
X81444250Y-94715000D01*
X80453691Y-94715000D01*
X80220302Y-94811673D01*
X80041673Y-94990301D01*
X79945000Y-95223690D01*
X73312371Y-95223690D01*
X73298157Y-95152235D01*
X73157809Y-94942191D01*
X72947765Y-94801843D01*
X72700000Y-94752560D01*
X72592831Y-94752560D01*
X72640625Y-94720625D01*
X72873956Y-94371421D01*
X73012507Y-94343861D01*
X73256158Y-94181058D01*
X73297251Y-94119558D01*
X75447410Y-91969400D01*
X83554826Y-91969400D01*
X83627366Y-91983829D01*
X83699906Y-91969400D01*
X83699910Y-91969400D01*
X83914773Y-91926661D01*
X84158424Y-91763858D01*
X84199517Y-91702358D01*
X84908866Y-90993010D01*
X88786600Y-90993010D01*
X88818015Y-90999259D01*
X88950412Y-91131656D01*
X89347174Y-91296000D01*
X89776626Y-91296000D01*
X90173388Y-91131656D01*
X90477056Y-90827988D01*
X90641400Y-90431226D01*
X90641400Y-90202800D01*
X91503391Y-90202800D01*
X91887100Y-90586510D01*
G36*
X108458758Y-94991456D02*
X108855520Y-95155800D01*
X109284972Y-95155800D01*
X109681734Y-94991456D01*
X109809490Y-94863700D01*
X114580049Y-94863700D01*
X117876400Y-98160052D01*
X117876400Y-98340726D01*
X118040744Y-98737488D01*
X118168500Y-98865244D01*
X118168501Y-100661008D01*
X118116200Y-100787274D01*
X118116200Y-101216726D01*
X118280544Y-101613488D01*
X118584212Y-101917156D01*
X118980974Y-102081500D01*
X119410426Y-102081500D01*
X119807188Y-101917156D01*
X120110856Y-101613488D01*
X120275200Y-101216726D01*
X120275200Y-100787274D01*
X120179019Y-100555072D01*
X120551776Y-100709473D01*
X120981228Y-100709473D01*
X121377990Y-100545129D01*
X121681658Y-100241461D01*
X121811307Y-99928459D01*
X122160961Y-99783628D01*
X122260201Y-99684388D01*
X122260200Y-102383500D01*
X107409244Y-102383500D01*
X107504956Y-102287788D01*
X107669300Y-101891026D01*
X107669300Y-101461574D01*
X107504956Y-101064812D01*
X107201288Y-100761144D01*
X106804526Y-100596800D01*
X106552009Y-100596800D01*
X102487450Y-96532241D01*
X102446358Y-96470742D01*
X102202707Y-96307939D01*
X101987844Y-96265200D01*
X101987840Y-96265200D01*
X101915300Y-96250771D01*
X101842760Y-96265200D01*
X96504853Y-96265200D01*
X96594831Y-96175222D01*
X103125821Y-96175222D01*
X103198361Y-96189651D01*
X103270901Y-96175222D01*
X103270905Y-96175222D01*
X103331020Y-96163264D01*
X103368512Y-96200756D01*
X103765274Y-96365100D01*
X104194726Y-96365100D01*
X104591488Y-96200756D01*
X104761514Y-96030730D01*
X104950474Y-96109000D01*
X105379926Y-96109000D01*
X105776688Y-95944656D01*
X106080356Y-95640988D01*
X106244700Y-95244226D01*
X106244700Y-94863700D01*
X108331002Y-94863700D01*
X108458758Y-94991456D01*
X108458758Y-94991456D01*
G37*
X108458758Y-94991456D02*
X108855520Y-95155800D01*
X109284972Y-95155800D01*
X109681734Y-94991456D01*
X109809490Y-94863700D01*
X114580049Y-94863700D01*
X117876400Y-98160052D01*
X117876400Y-98340726D01*
X118040744Y-98737488D01*
X118168500Y-98865244D01*
X118168501Y-100661008D01*
X118116200Y-100787274D01*
X118116200Y-101216726D01*
X118280544Y-101613488D01*
X118584212Y-101917156D01*
X118980974Y-102081500D01*
X119410426Y-102081500D01*
X119807188Y-101917156D01*
X120110856Y-101613488D01*
X120275200Y-101216726D01*
X120275200Y-100787274D01*
X120179019Y-100555072D01*
X120551776Y-100709473D01*
X120981228Y-100709473D01*
X121377990Y-100545129D01*
X121681658Y-100241461D01*
X121811307Y-99928459D01*
X122160961Y-99783628D01*
X122260201Y-99684388D01*
X122260200Y-102383500D01*
X107409244Y-102383500D01*
X107504956Y-102287788D01*
X107669300Y-101891026D01*
X107669300Y-101461574D01*
X107504956Y-101064812D01*
X107201288Y-100761144D01*
X106804526Y-100596800D01*
X106552009Y-100596800D01*
X102487450Y-96532241D01*
X102446358Y-96470742D01*
X102202707Y-96307939D01*
X101987844Y-96265200D01*
X101987840Y-96265200D01*
X101915300Y-96250771D01*
X101842760Y-96265200D01*
X96504853Y-96265200D01*
X96594831Y-96175222D01*
X103125821Y-96175222D01*
X103198361Y-96189651D01*
X103270901Y-96175222D01*
X103270905Y-96175222D01*
X103331020Y-96163264D01*
X103368512Y-96200756D01*
X103765274Y-96365100D01*
X104194726Y-96365100D01*
X104591488Y-96200756D01*
X104761514Y-96030730D01*
X104950474Y-96109000D01*
X105379926Y-96109000D01*
X105776688Y-95944656D01*
X106080356Y-95640988D01*
X106244700Y-95244226D01*
X106244700Y-94863700D01*
X108331002Y-94863700D01*
X108458758Y-94991456D01*
G36*
X124677851Y-96096308D02*
X124660201Y-96185041D01*
X124660201Y-96185074D01*
X124641790Y-96277667D01*
X124655949Y-96348825D01*
X124577002Y-96407265D01*
X124577002Y-96240000D01*
X124524077Y-96240000D01*
X124680353Y-96083724D01*
X124677851Y-96096308D01*
X124677851Y-96096308D01*
G37*
X124677851Y-96096308D02*
X124660201Y-96185041D01*
X124660201Y-96185074D01*
X124641790Y-96277667D01*
X124655949Y-96348825D01*
X124577002Y-96407265D01*
X124577002Y-96240000D01*
X124524077Y-96240000D01*
X124680353Y-96083724D01*
X124677851Y-96096308D01*
G36*
X129174500Y-75030268D02*
X129174500Y-82005000D01*
X129015750Y-82005000D01*
X128857000Y-82163750D01*
X128857000Y-83363000D01*
X128877000Y-83363000D01*
X128877000Y-83617000D01*
X128857000Y-83617000D01*
X128857000Y-83637000D01*
X128603000Y-83637000D01*
X128603000Y-83617000D01*
X127103750Y-83617000D01*
X126945000Y-83775750D01*
X126945000Y-84466310D01*
X127041673Y-84699699D01*
X127220302Y-84878327D01*
X127381033Y-84944904D01*
X127359375Y-84959375D01*
X127031161Y-85450582D01*
X126915908Y-86030000D01*
X126936630Y-86134179D01*
X126421940Y-86648794D01*
X126343444Y-86701243D01*
X126242379Y-86852496D01*
X126135756Y-87012043D01*
X126135749Y-87012079D01*
X126135729Y-87012109D01*
X126099539Y-87194049D01*
X126062790Y-87378729D01*
X126081201Y-87471323D01*
X126081200Y-92010696D01*
X125976953Y-91759021D01*
X125608979Y-91391047D01*
X125128197Y-91191900D01*
X124607803Y-91191900D01*
X124127021Y-91391047D01*
X124068742Y-91449326D01*
X123889450Y-91270034D01*
X123653359Y-91172242D01*
X123791816Y-90965027D01*
X123837501Y-90735351D01*
X123837501Y-90735350D01*
X123852927Y-90657800D01*
X123837501Y-90580249D01*
X123837501Y-85943501D01*
X123852927Y-85865950D01*
X123812619Y-85663309D01*
X123791816Y-85558723D01*
X123617785Y-85298267D01*
X123552039Y-85254337D01*
X121340600Y-83042899D01*
X121340600Y-82513690D01*
X126945000Y-82513690D01*
X126945000Y-83204250D01*
X127103750Y-83363000D01*
X128603000Y-83363000D01*
X128603000Y-82163750D01*
X128444250Y-82005000D01*
X127453691Y-82005000D01*
X127220302Y-82101673D01*
X127041673Y-82280301D01*
X126945000Y-82513690D01*
X121340600Y-82513690D01*
X121340600Y-77104144D01*
X121379685Y-77065059D01*
X121494517Y-77342289D01*
X122657711Y-78505483D01*
X124177497Y-79135000D01*
X125822503Y-79135000D01*
X127342289Y-78505483D01*
X128505483Y-77342289D01*
X129135000Y-75822503D01*
X129135000Y-74492377D01*
X129174500Y-75030268D01*
X129174500Y-75030268D01*
G37*
X129174500Y-75030268D02*
X129174500Y-82005000D01*
X129015750Y-82005000D01*
X128857000Y-82163750D01*
X128857000Y-83363000D01*
X128877000Y-83363000D01*
X128877000Y-83617000D01*
X128857000Y-83617000D01*
X128857000Y-83637000D01*
X128603000Y-83637000D01*
X128603000Y-83617000D01*
X127103750Y-83617000D01*
X126945000Y-83775750D01*
X126945000Y-84466310D01*
X127041673Y-84699699D01*
X127220302Y-84878327D01*
X127381033Y-84944904D01*
X127359375Y-84959375D01*
X127031161Y-85450582D01*
X126915908Y-86030000D01*
X126936630Y-86134179D01*
X126421940Y-86648794D01*
X126343444Y-86701243D01*
X126242379Y-86852496D01*
X126135756Y-87012043D01*
X126135749Y-87012079D01*
X126135729Y-87012109D01*
X126099539Y-87194049D01*
X126062790Y-87378729D01*
X126081201Y-87471323D01*
X126081200Y-92010696D01*
X125976953Y-91759021D01*
X125608979Y-91391047D01*
X125128197Y-91191900D01*
X124607803Y-91191900D01*
X124127021Y-91391047D01*
X124068742Y-91449326D01*
X123889450Y-91270034D01*
X123653359Y-91172242D01*
X123791816Y-90965027D01*
X123837501Y-90735351D01*
X123837501Y-90735350D01*
X123852927Y-90657800D01*
X123837501Y-90580249D01*
X123837501Y-85943501D01*
X123852927Y-85865950D01*
X123812619Y-85663309D01*
X123791816Y-85558723D01*
X123617785Y-85298267D01*
X123552039Y-85254337D01*
X121340600Y-83042899D01*
X121340600Y-82513690D01*
X126945000Y-82513690D01*
X126945000Y-83204250D01*
X127103750Y-83363000D01*
X128603000Y-83363000D01*
X128603000Y-82163750D01*
X128444250Y-82005000D01*
X127453691Y-82005000D01*
X127220302Y-82101673D01*
X127041673Y-82280301D01*
X126945000Y-82513690D01*
X121340600Y-82513690D01*
X121340600Y-77104144D01*
X121379685Y-77065059D01*
X121494517Y-77342289D01*
X122657711Y-78505483D01*
X124177497Y-79135000D01*
X125822503Y-79135000D01*
X127342289Y-78505483D01*
X128505483Y-77342289D01*
X129135000Y-75822503D01*
X129135000Y-74492377D01*
X129174500Y-75030268D01*
G36*
X82005000Y-70984250D02*
X82163750Y-71143000D01*
X83363000Y-71143000D01*
X83363000Y-71123000D01*
X83617000Y-71123000D01*
X83617000Y-71143000D01*
X83637000Y-71143000D01*
X83637000Y-71397000D01*
X83617000Y-71397000D01*
X83617000Y-72896250D01*
X83775750Y-73055000D01*
X84466310Y-73055000D01*
X84699699Y-72958327D01*
X84878327Y-72779698D01*
X84944904Y-72618967D01*
X84959375Y-72640625D01*
X85450582Y-72968839D01*
X86030000Y-73084092D01*
X86184319Y-73053396D01*
X86830014Y-73699092D01*
X86882443Y-73777557D01*
X86960908Y-73829986D01*
X86960910Y-73829988D01*
X87093528Y-73918600D01*
X87193309Y-73985272D01*
X87467441Y-74039800D01*
X87467446Y-74039800D01*
X87560000Y-74058210D01*
X87652554Y-74039800D01*
X97210723Y-74039800D01*
X97570014Y-74399092D01*
X97622443Y-74477557D01*
X97700908Y-74529986D01*
X97700909Y-74529987D01*
X97933307Y-74685271D01*
X97933308Y-74685271D01*
X97933309Y-74685272D01*
X98207441Y-74739800D01*
X98207449Y-74739800D01*
X98299999Y-74758209D01*
X98392549Y-74739800D01*
X101507503Y-74739800D01*
X101600116Y-74758210D01*
X101773646Y-74723671D01*
X101966691Y-74685272D01*
X101966743Y-74685237D01*
X101966799Y-74685226D01*
X102120393Y-74582571D01*
X102277557Y-74477557D01*
X102330019Y-74399042D01*
X102810345Y-73918600D01*
X112468412Y-73918600D01*
X112560932Y-73937010D01*
X112653520Y-73918600D01*
X112653559Y-73918600D01*
X112757106Y-73898003D01*
X112927629Y-73864097D01*
X112927656Y-73864079D01*
X112927691Y-73864072D01*
X113084659Y-73759189D01*
X113160038Y-73708830D01*
X113160062Y-73708806D01*
X113238557Y-73656357D01*
X113290968Y-73577919D01*
X113815585Y-73053377D01*
X113970000Y-73084092D01*
X114549418Y-72968839D01*
X115040625Y-72640625D01*
X115055096Y-72618967D01*
X115121673Y-72779698D01*
X115300301Y-72958327D01*
X115533690Y-73055000D01*
X116224250Y-73055000D01*
X116383000Y-72896250D01*
X116383000Y-71397000D01*
X116363000Y-71397000D01*
X116363000Y-71143000D01*
X116383000Y-71143000D01*
X116383000Y-71123000D01*
X116637000Y-71123000D01*
X116637000Y-71143000D01*
X116657000Y-71143000D01*
X116657000Y-71397000D01*
X116637000Y-71397000D01*
X116637000Y-72896250D01*
X116795750Y-73055000D01*
X117072601Y-73055000D01*
X117072600Y-77330256D01*
X116894044Y-77508812D01*
X116729700Y-77905574D01*
X116729700Y-78335026D01*
X116894044Y-78731788D01*
X117197712Y-79035456D01*
X117594474Y-79199800D01*
X118023926Y-79199800D01*
X118420688Y-79035456D01*
X118724356Y-78731788D01*
X118888700Y-78335026D01*
X118888700Y-77905574D01*
X118724356Y-77508812D01*
X118545800Y-77330256D01*
X118545800Y-72884500D01*
X118569726Y-72884500D01*
X118966488Y-72720156D01*
X119270156Y-72416488D01*
X119434500Y-72019726D01*
X119434500Y-71590274D01*
X119270156Y-71193512D01*
X118966488Y-70889844D01*
X118811148Y-70825500D01*
X124963235Y-70825500D01*
X125405823Y-70865000D01*
X124177497Y-70865000D01*
X122657711Y-71494517D01*
X121494517Y-72657711D01*
X120865000Y-74177497D01*
X120865000Y-75325609D01*
X120767926Y-75285400D01*
X120338474Y-75285400D01*
X119941712Y-75449744D01*
X119638044Y-75753412D01*
X119473700Y-76150174D01*
X119473700Y-76579626D01*
X119638044Y-76976388D01*
X119765801Y-77104145D01*
X119765800Y-83291499D01*
X119750374Y-83369050D01*
X119765800Y-83446601D01*
X119811485Y-83676277D01*
X119985516Y-83936734D01*
X120051265Y-83980666D01*
X121650484Y-85579885D01*
X121638512Y-85584844D01*
X121334844Y-85888512D01*
X121170500Y-86285274D01*
X121170500Y-86537790D01*
X118107713Y-89600578D01*
X109716809Y-89600578D01*
X112219565Y-87097823D01*
X112281062Y-87056732D01*
X112322153Y-86995235D01*
X112322155Y-86995233D01*
X112443865Y-86813081D01*
X112450513Y-86779657D01*
X112486604Y-86598218D01*
X112486604Y-86598215D01*
X112501033Y-86525675D01*
X112486604Y-86453134D01*
X112486604Y-84790044D01*
X112665160Y-84611488D01*
X112829504Y-84214726D01*
X112829504Y-83785274D01*
X112748851Y-83590560D01*
X112913401Y-83755110D01*
X112913400Y-87405856D01*
X112734844Y-87584412D01*
X112570500Y-87981174D01*
X112570500Y-88410626D01*
X112734844Y-88807388D01*
X113038512Y-89111056D01*
X113435274Y-89275400D01*
X113864726Y-89275400D01*
X114261488Y-89111056D01*
X114565156Y-88807388D01*
X114729500Y-88410626D01*
X114729500Y-87981174D01*
X114565156Y-87584412D01*
X114386600Y-87405856D01*
X114386600Y-83522540D01*
X114401029Y-83449999D01*
X114386600Y-83377459D01*
X114386600Y-83377456D01*
X114347210Y-83179428D01*
X114426791Y-83099847D01*
X115763400Y-84436456D01*
X115763401Y-87179255D01*
X115584844Y-87357812D01*
X115420500Y-87754574D01*
X115420500Y-88184026D01*
X115584844Y-88580788D01*
X115888512Y-88884456D01*
X116285274Y-89048800D01*
X116714726Y-89048800D01*
X117111488Y-88884456D01*
X117415156Y-88580788D01*
X117579500Y-88184026D01*
X117579500Y-87754574D01*
X117415156Y-87357812D01*
X117236600Y-87179256D01*
X117236600Y-84203886D01*
X117251029Y-84131346D01*
X117236600Y-84058803D01*
X117236600Y-84058802D01*
X117193861Y-83843939D01*
X117154662Y-83785274D01*
X117072151Y-83661787D01*
X117072149Y-83661785D01*
X117031058Y-83600288D01*
X116969561Y-83559197D01*
X113727305Y-80316942D01*
X113686212Y-80255442D01*
X113491482Y-80125327D01*
X114059810Y-79557000D01*
X114312326Y-79557000D01*
X114709088Y-79392656D01*
X115012756Y-79088988D01*
X115177100Y-78692226D01*
X115177100Y-78262774D01*
X115012756Y-77866012D01*
X114709088Y-77562344D01*
X114312326Y-77398000D01*
X113882874Y-77398000D01*
X113486112Y-77562344D01*
X113182444Y-77866012D01*
X113018100Y-78262774D01*
X113018100Y-78515290D01*
X112256991Y-79276400D01*
X109715109Y-79276400D01*
X112064910Y-76926600D01*
X112317426Y-76926600D01*
X112714188Y-76762256D01*
X113017856Y-76458588D01*
X113182200Y-76061826D01*
X113182200Y-75632374D01*
X113017856Y-75235612D01*
X112714188Y-74931944D01*
X112317426Y-74767600D01*
X111887974Y-74767600D01*
X111491212Y-74931944D01*
X111187544Y-75235612D01*
X111023200Y-75632374D01*
X111023200Y-75884890D01*
X110286947Y-76621144D01*
X110205944Y-76213918D01*
X109897179Y-75751820D01*
X109435081Y-75443056D01*
X108890000Y-75334632D01*
X108344918Y-75443056D01*
X107882820Y-75751821D01*
X107620000Y-76145159D01*
X107357179Y-75751820D01*
X106895081Y-75443056D01*
X106350000Y-75334632D01*
X105804918Y-75443056D01*
X105495413Y-75649861D01*
X104984716Y-75139165D01*
X104940784Y-75073416D01*
X104680328Y-74899385D01*
X104450652Y-74853700D01*
X104450651Y-74853700D01*
X104373100Y-74838274D01*
X104295549Y-74853700D01*
X93727552Y-74853700D01*
X93650000Y-74838274D01*
X93572448Y-74853700D01*
X93342772Y-74899385D01*
X93082316Y-75073416D01*
X92908285Y-75333872D01*
X92853098Y-75611317D01*
X92642820Y-75751821D01*
X92380000Y-76145159D01*
X92117179Y-75751820D01*
X91655081Y-75443056D01*
X91110000Y-75334632D01*
X90564918Y-75443056D01*
X90102820Y-75751821D01*
X89794056Y-76213919D01*
X89713000Y-76621413D01*
X89713000Y-77658588D01*
X89794056Y-78066082D01*
X90102821Y-78528180D01*
X90313098Y-78668683D01*
X90353083Y-78869700D01*
X90108640Y-78869700D01*
X90036099Y-78855271D01*
X89963559Y-78869700D01*
X89963556Y-78869700D01*
X89748693Y-78912439D01*
X89535641Y-79054797D01*
X89475200Y-78994356D01*
X89475200Y-77137880D01*
X89608769Y-76815416D01*
X89608769Y-76385964D01*
X89444425Y-75989202D01*
X89140757Y-75685534D01*
X88743995Y-75521190D01*
X88314543Y-75521190D01*
X87917781Y-75685534D01*
X87614113Y-75989202D01*
X87449769Y-76385964D01*
X87449769Y-76815416D01*
X87614113Y-77212178D01*
X87917781Y-77515846D01*
X88002001Y-77550731D01*
X88002000Y-78994356D01*
X87823444Y-79172912D01*
X87659100Y-79569674D01*
X87659100Y-79936124D01*
X87353412Y-80062744D01*
X87049744Y-80366412D01*
X86885400Y-80763174D01*
X86885400Y-81192626D01*
X87049744Y-81589388D01*
X87353412Y-81893056D01*
X87750174Y-82057400D01*
X88168590Y-82057400D01*
X86004391Y-84221600D01*
X85942101Y-84221600D01*
X85942101Y-78147450D01*
X86261488Y-78015156D01*
X86565156Y-77711488D01*
X86729500Y-77314726D01*
X86729500Y-76885274D01*
X86565156Y-76488512D01*
X86261488Y-76184844D01*
X85864726Y-76020500D01*
X85435274Y-76020500D01*
X85038512Y-76184844D01*
X84734844Y-76488512D01*
X84570500Y-76885274D01*
X84570500Y-77169003D01*
X84511640Y-77257093D01*
X84454472Y-77544499D01*
X84468902Y-77617044D01*
X84468901Y-86331779D01*
X84296656Y-86504024D01*
X84132312Y-86900786D01*
X84132312Y-87330238D01*
X84296656Y-87727000D01*
X84600324Y-88030668D01*
X84997086Y-88195012D01*
X85426538Y-88195012D01*
X85823300Y-88030668D01*
X85954703Y-87899265D01*
X85979258Y-87882858D01*
X85995665Y-87858303D01*
X86116671Y-87737297D01*
X86754827Y-87737297D01*
X85878725Y-88613400D01*
X83172540Y-88613400D01*
X83100000Y-88598971D01*
X83027459Y-88613400D01*
X83027456Y-88613400D01*
X82812593Y-88656139D01*
X82630441Y-88777849D01*
X82630439Y-88777851D01*
X82568942Y-88818942D01*
X82527850Y-88880440D01*
X81994891Y-89413400D01*
X73155109Y-89413400D01*
X72937712Y-89196003D01*
X72968839Y-89149418D01*
X73084092Y-88570000D01*
X72968839Y-87990582D01*
X72640625Y-87499375D01*
X72342239Y-87300000D01*
X72640625Y-87100625D01*
X72968839Y-86609418D01*
X73084092Y-86030000D01*
X72968839Y-85450582D01*
X72640625Y-84959375D01*
X72618967Y-84944904D01*
X72779698Y-84878327D01*
X72958327Y-84699699D01*
X73055000Y-84466310D01*
X73055000Y-83775750D01*
X72896250Y-83617000D01*
X71397000Y-83617000D01*
X71397000Y-83637000D01*
X71143000Y-83637000D01*
X71143000Y-83617000D01*
X71123000Y-83617000D01*
X71123000Y-83363000D01*
X71143000Y-83363000D01*
X71143000Y-82163750D01*
X71397000Y-82163750D01*
X71397000Y-83363000D01*
X72896250Y-83363000D01*
X73055000Y-83204250D01*
X73055000Y-82513690D01*
X72958327Y-82280301D01*
X72779698Y-82101673D01*
X72546309Y-82005000D01*
X71555750Y-82005000D01*
X71397000Y-82163750D01*
X71143000Y-82163750D01*
X70984250Y-82005000D01*
X70825500Y-82005000D01*
X70825500Y-75036765D01*
X70865000Y-74594177D01*
X70865000Y-75822503D01*
X71494517Y-77342289D01*
X72657711Y-78505483D01*
X74177497Y-79135000D01*
X75822503Y-79135000D01*
X77342289Y-78505483D01*
X78505483Y-77342289D01*
X79135000Y-75822503D01*
X79135000Y-74177497D01*
X78505483Y-72657711D01*
X77403522Y-71555750D01*
X82005000Y-71555750D01*
X82005000Y-72546309D01*
X82101673Y-72779698D01*
X82280301Y-72958327D01*
X82513690Y-73055000D01*
X83204250Y-73055000D01*
X83363000Y-72896250D01*
X83363000Y-71397000D01*
X82163750Y-71397000D01*
X82005000Y-71555750D01*
X77403522Y-71555750D01*
X77342289Y-71494517D01*
X75822503Y-70865000D01*
X74492377Y-70865000D01*
X75030268Y-70825500D01*
X82005000Y-70825500D01*
X82005000Y-70984250D01*
X82005000Y-70984250D01*
G37*
X82005000Y-70984250D02*
X82163750Y-71143000D01*
X83363000Y-71143000D01*
X83363000Y-71123000D01*
X83617000Y-71123000D01*
X83617000Y-71143000D01*
X83637000Y-71143000D01*
X83637000Y-71397000D01*
X83617000Y-71397000D01*
X83617000Y-72896250D01*
X83775750Y-73055000D01*
X84466310Y-73055000D01*
X84699699Y-72958327D01*
X84878327Y-72779698D01*
X84944904Y-72618967D01*
X84959375Y-72640625D01*
X85450582Y-72968839D01*
X86030000Y-73084092D01*
X86184319Y-73053396D01*
X86830014Y-73699092D01*
X86882443Y-73777557D01*
X86960908Y-73829986D01*
X86960910Y-73829988D01*
X87093528Y-73918600D01*
X87193309Y-73985272D01*
X87467441Y-74039800D01*
X87467446Y-74039800D01*
X87560000Y-74058210D01*
X87652554Y-74039800D01*
X97210723Y-74039800D01*
X97570014Y-74399092D01*
X97622443Y-74477557D01*
X97700908Y-74529986D01*
X97700909Y-74529987D01*
X97933307Y-74685271D01*
X97933308Y-74685271D01*
X97933309Y-74685272D01*
X98207441Y-74739800D01*
X98207449Y-74739800D01*
X98299999Y-74758209D01*
X98392549Y-74739800D01*
X101507503Y-74739800D01*
X101600116Y-74758210D01*
X101773646Y-74723671D01*
X101966691Y-74685272D01*
X101966743Y-74685237D01*
X101966799Y-74685226D01*
X102120393Y-74582571D01*
X102277557Y-74477557D01*
X102330019Y-74399042D01*
X102810345Y-73918600D01*
X112468412Y-73918600D01*
X112560932Y-73937010D01*
X112653520Y-73918600D01*
X112653559Y-73918600D01*
X112757106Y-73898003D01*
X112927629Y-73864097D01*
X112927656Y-73864079D01*
X112927691Y-73864072D01*
X113084659Y-73759189D01*
X113160038Y-73708830D01*
X113160062Y-73708806D01*
X113238557Y-73656357D01*
X113290968Y-73577919D01*
X113815585Y-73053377D01*
X113970000Y-73084092D01*
X114549418Y-72968839D01*
X115040625Y-72640625D01*
X115055096Y-72618967D01*
X115121673Y-72779698D01*
X115300301Y-72958327D01*
X115533690Y-73055000D01*
X116224250Y-73055000D01*
X116383000Y-72896250D01*
X116383000Y-71397000D01*
X116363000Y-71397000D01*
X116363000Y-71143000D01*
X116383000Y-71143000D01*
X116383000Y-71123000D01*
X116637000Y-71123000D01*
X116637000Y-71143000D01*
X116657000Y-71143000D01*
X116657000Y-71397000D01*
X116637000Y-71397000D01*
X116637000Y-72896250D01*
X116795750Y-73055000D01*
X117072601Y-73055000D01*
X117072600Y-77330256D01*
X116894044Y-77508812D01*
X116729700Y-77905574D01*
X116729700Y-78335026D01*
X116894044Y-78731788D01*
X117197712Y-79035456D01*
X117594474Y-79199800D01*
X118023926Y-79199800D01*
X118420688Y-79035456D01*
X118724356Y-78731788D01*
X118888700Y-78335026D01*
X118888700Y-77905574D01*
X118724356Y-77508812D01*
X118545800Y-77330256D01*
X118545800Y-72884500D01*
X118569726Y-72884500D01*
X118966488Y-72720156D01*
X119270156Y-72416488D01*
X119434500Y-72019726D01*
X119434500Y-71590274D01*
X119270156Y-71193512D01*
X118966488Y-70889844D01*
X118811148Y-70825500D01*
X124963235Y-70825500D01*
X125405823Y-70865000D01*
X124177497Y-70865000D01*
X122657711Y-71494517D01*
X121494517Y-72657711D01*
X120865000Y-74177497D01*
X120865000Y-75325609D01*
X120767926Y-75285400D01*
X120338474Y-75285400D01*
X119941712Y-75449744D01*
X119638044Y-75753412D01*
X119473700Y-76150174D01*
X119473700Y-76579626D01*
X119638044Y-76976388D01*
X119765801Y-77104145D01*
X119765800Y-83291499D01*
X119750374Y-83369050D01*
X119765800Y-83446601D01*
X119811485Y-83676277D01*
X119985516Y-83936734D01*
X120051265Y-83980666D01*
X121650484Y-85579885D01*
X121638512Y-85584844D01*
X121334844Y-85888512D01*
X121170500Y-86285274D01*
X121170500Y-86537790D01*
X118107713Y-89600578D01*
X109716809Y-89600578D01*
X112219565Y-87097823D01*
X112281062Y-87056732D01*
X112322153Y-86995235D01*
X112322155Y-86995233D01*
X112443865Y-86813081D01*
X112450513Y-86779657D01*
X112486604Y-86598218D01*
X112486604Y-86598215D01*
X112501033Y-86525675D01*
X112486604Y-86453134D01*
X112486604Y-84790044D01*
X112665160Y-84611488D01*
X112829504Y-84214726D01*
X112829504Y-83785274D01*
X112748851Y-83590560D01*
X112913401Y-83755110D01*
X112913400Y-87405856D01*
X112734844Y-87584412D01*
X112570500Y-87981174D01*
X112570500Y-88410626D01*
X112734844Y-88807388D01*
X113038512Y-89111056D01*
X113435274Y-89275400D01*
X113864726Y-89275400D01*
X114261488Y-89111056D01*
X114565156Y-88807388D01*
X114729500Y-88410626D01*
X114729500Y-87981174D01*
X114565156Y-87584412D01*
X114386600Y-87405856D01*
X114386600Y-83522540D01*
X114401029Y-83449999D01*
X114386600Y-83377459D01*
X114386600Y-83377456D01*
X114347210Y-83179428D01*
X114426791Y-83099847D01*
X115763400Y-84436456D01*
X115763401Y-87179255D01*
X115584844Y-87357812D01*
X115420500Y-87754574D01*
X115420500Y-88184026D01*
X115584844Y-88580788D01*
X115888512Y-88884456D01*
X116285274Y-89048800D01*
X116714726Y-89048800D01*
X117111488Y-88884456D01*
X117415156Y-88580788D01*
X117579500Y-88184026D01*
X117579500Y-87754574D01*
X117415156Y-87357812D01*
X117236600Y-87179256D01*
X117236600Y-84203886D01*
X117251029Y-84131346D01*
X117236600Y-84058803D01*
X117236600Y-84058802D01*
X117193861Y-83843939D01*
X117154662Y-83785274D01*
X117072151Y-83661787D01*
X117072149Y-83661785D01*
X117031058Y-83600288D01*
X116969561Y-83559197D01*
X113727305Y-80316942D01*
X113686212Y-80255442D01*
X113491482Y-80125327D01*
X114059810Y-79557000D01*
X114312326Y-79557000D01*
X114709088Y-79392656D01*
X115012756Y-79088988D01*
X115177100Y-78692226D01*
X115177100Y-78262774D01*
X115012756Y-77866012D01*
X114709088Y-77562344D01*
X114312326Y-77398000D01*
X113882874Y-77398000D01*
X113486112Y-77562344D01*
X113182444Y-77866012D01*
X113018100Y-78262774D01*
X113018100Y-78515290D01*
X112256991Y-79276400D01*
X109715109Y-79276400D01*
X112064910Y-76926600D01*
X112317426Y-76926600D01*
X112714188Y-76762256D01*
X113017856Y-76458588D01*
X113182200Y-76061826D01*
X113182200Y-75632374D01*
X113017856Y-75235612D01*
X112714188Y-74931944D01*
X112317426Y-74767600D01*
X111887974Y-74767600D01*
X111491212Y-74931944D01*
X111187544Y-75235612D01*
X111023200Y-75632374D01*
X111023200Y-75884890D01*
X110286947Y-76621144D01*
X110205944Y-76213918D01*
X109897179Y-75751820D01*
X109435081Y-75443056D01*
X108890000Y-75334632D01*
X108344918Y-75443056D01*
X107882820Y-75751821D01*
X107620000Y-76145159D01*
X107357179Y-75751820D01*
X106895081Y-75443056D01*
X106350000Y-75334632D01*
X105804918Y-75443056D01*
X105495413Y-75649861D01*
X104984716Y-75139165D01*
X104940784Y-75073416D01*
X104680328Y-74899385D01*
X104450652Y-74853700D01*
X104450651Y-74853700D01*
X104373100Y-74838274D01*
X104295549Y-74853700D01*
X93727552Y-74853700D01*
X93650000Y-74838274D01*
X93572448Y-74853700D01*
X93342772Y-74899385D01*
X93082316Y-75073416D01*
X92908285Y-75333872D01*
X92853098Y-75611317D01*
X92642820Y-75751821D01*
X92380000Y-76145159D01*
X92117179Y-75751820D01*
X91655081Y-75443056D01*
X91110000Y-75334632D01*
X90564918Y-75443056D01*
X90102820Y-75751821D01*
X89794056Y-76213919D01*
X89713000Y-76621413D01*
X89713000Y-77658588D01*
X89794056Y-78066082D01*
X90102821Y-78528180D01*
X90313098Y-78668683D01*
X90353083Y-78869700D01*
X90108640Y-78869700D01*
X90036099Y-78855271D01*
X89963559Y-78869700D01*
X89963556Y-78869700D01*
X89748693Y-78912439D01*
X89535641Y-79054797D01*
X89475200Y-78994356D01*
X89475200Y-77137880D01*
X89608769Y-76815416D01*
X89608769Y-76385964D01*
X89444425Y-75989202D01*
X89140757Y-75685534D01*
X88743995Y-75521190D01*
X88314543Y-75521190D01*
X87917781Y-75685534D01*
X87614113Y-75989202D01*
X87449769Y-76385964D01*
X87449769Y-76815416D01*
X87614113Y-77212178D01*
X87917781Y-77515846D01*
X88002001Y-77550731D01*
X88002000Y-78994356D01*
X87823444Y-79172912D01*
X87659100Y-79569674D01*
X87659100Y-79936124D01*
X87353412Y-80062744D01*
X87049744Y-80366412D01*
X86885400Y-80763174D01*
X86885400Y-81192626D01*
X87049744Y-81589388D01*
X87353412Y-81893056D01*
X87750174Y-82057400D01*
X88168590Y-82057400D01*
X86004391Y-84221600D01*
X85942101Y-84221600D01*
X85942101Y-78147450D01*
X86261488Y-78015156D01*
X86565156Y-77711488D01*
X86729500Y-77314726D01*
X86729500Y-76885274D01*
X86565156Y-76488512D01*
X86261488Y-76184844D01*
X85864726Y-76020500D01*
X85435274Y-76020500D01*
X85038512Y-76184844D01*
X84734844Y-76488512D01*
X84570500Y-76885274D01*
X84570500Y-77169003D01*
X84511640Y-77257093D01*
X84454472Y-77544499D01*
X84468902Y-77617044D01*
X84468901Y-86331779D01*
X84296656Y-86504024D01*
X84132312Y-86900786D01*
X84132312Y-87330238D01*
X84296656Y-87727000D01*
X84600324Y-88030668D01*
X84997086Y-88195012D01*
X85426538Y-88195012D01*
X85823300Y-88030668D01*
X85954703Y-87899265D01*
X85979258Y-87882858D01*
X85995665Y-87858303D01*
X86116671Y-87737297D01*
X86754827Y-87737297D01*
X85878725Y-88613400D01*
X83172540Y-88613400D01*
X83100000Y-88598971D01*
X83027459Y-88613400D01*
X83027456Y-88613400D01*
X82812593Y-88656139D01*
X82630441Y-88777849D01*
X82630439Y-88777851D01*
X82568942Y-88818942D01*
X82527850Y-88880440D01*
X81994891Y-89413400D01*
X73155109Y-89413400D01*
X72937712Y-89196003D01*
X72968839Y-89149418D01*
X73084092Y-88570000D01*
X72968839Y-87990582D01*
X72640625Y-87499375D01*
X72342239Y-87300000D01*
X72640625Y-87100625D01*
X72968839Y-86609418D01*
X73084092Y-86030000D01*
X72968839Y-85450582D01*
X72640625Y-84959375D01*
X72618967Y-84944904D01*
X72779698Y-84878327D01*
X72958327Y-84699699D01*
X73055000Y-84466310D01*
X73055000Y-83775750D01*
X72896250Y-83617000D01*
X71397000Y-83617000D01*
X71397000Y-83637000D01*
X71143000Y-83637000D01*
X71143000Y-83617000D01*
X71123000Y-83617000D01*
X71123000Y-83363000D01*
X71143000Y-83363000D01*
X71143000Y-82163750D01*
X71397000Y-82163750D01*
X71397000Y-83363000D01*
X72896250Y-83363000D01*
X73055000Y-83204250D01*
X73055000Y-82513690D01*
X72958327Y-82280301D01*
X72779698Y-82101673D01*
X72546309Y-82005000D01*
X71555750Y-82005000D01*
X71397000Y-82163750D01*
X71143000Y-82163750D01*
X70984250Y-82005000D01*
X70825500Y-82005000D01*
X70825500Y-75036765D01*
X70865000Y-74594177D01*
X70865000Y-75822503D01*
X71494517Y-77342289D01*
X72657711Y-78505483D01*
X74177497Y-79135000D01*
X75822503Y-79135000D01*
X77342289Y-78505483D01*
X78505483Y-77342289D01*
X79135000Y-75822503D01*
X79135000Y-74177497D01*
X78505483Y-72657711D01*
X77403522Y-71555750D01*
X82005000Y-71555750D01*
X82005000Y-72546309D01*
X82101673Y-72779698D01*
X82280301Y-72958327D01*
X82513690Y-73055000D01*
X83204250Y-73055000D01*
X83363000Y-72896250D01*
X83363000Y-71397000D01*
X82163750Y-71397000D01*
X82005000Y-71555750D01*
X77403522Y-71555750D01*
X77342289Y-71494517D01*
X75822503Y-70865000D01*
X74492377Y-70865000D01*
X75030268Y-70825500D01*
X82005000Y-70825500D01*
X82005000Y-70984250D01*
G36*
X110170498Y-82819003D02*
X110111638Y-82907093D01*
X110068899Y-83121956D01*
X110068899Y-83121959D01*
X110054470Y-83194499D01*
X110068899Y-83267039D01*
X110068900Y-86489390D01*
X108344891Y-88213400D01*
X107778781Y-88213400D01*
X107675974Y-88144706D01*
X107461111Y-88101967D01*
X107461107Y-88101967D01*
X107388567Y-88087538D01*
X107316027Y-88101967D01*
X105829500Y-88101967D01*
X105829500Y-88035274D01*
X105665156Y-87638512D01*
X105361488Y-87334844D01*
X104964726Y-87170500D01*
X104535274Y-87170500D01*
X104138512Y-87334844D01*
X103834844Y-87638512D01*
X103670500Y-88035274D01*
X103670500Y-88287790D01*
X103256191Y-88702100D01*
X100774544Y-88702100D01*
X101065156Y-88411488D01*
X101229500Y-88014726D01*
X101229500Y-87585274D01*
X101065156Y-87188512D01*
X100761488Y-86884844D01*
X100364726Y-86720500D01*
X99935274Y-86720500D01*
X99538512Y-86884844D01*
X99359956Y-87063400D01*
X93831410Y-87063400D01*
X92107400Y-85339391D01*
X92107400Y-85086874D01*
X91943056Y-84690112D01*
X91639388Y-84386444D01*
X91242626Y-84222100D01*
X90813174Y-84222100D01*
X90416412Y-84386444D01*
X90112744Y-84690112D01*
X89948400Y-85086874D01*
X89948400Y-85516326D01*
X90112744Y-85913088D01*
X90416412Y-86216756D01*
X90530703Y-86264097D01*
X86462589Y-86264097D01*
X86578088Y-86216256D01*
X86881756Y-85912588D01*
X87046100Y-85515826D01*
X87046100Y-85263309D01*
X88336163Y-83973246D01*
X88415544Y-84164888D01*
X88719212Y-84468556D01*
X89115974Y-84632900D01*
X89545426Y-84632900D01*
X89942188Y-84468556D01*
X90245856Y-84164888D01*
X90410200Y-83768126D01*
X90410200Y-83515609D01*
X91239210Y-82686600D01*
X110170498Y-82686600D01*
X110170498Y-82819003D01*
X110170498Y-82819003D01*
G37*
X110170498Y-82819003D02*
X110111638Y-82907093D01*
X110068899Y-83121956D01*
X110068899Y-83121959D01*
X110054470Y-83194499D01*
X110068899Y-83267039D01*
X110068900Y-86489390D01*
X108344891Y-88213400D01*
X107778781Y-88213400D01*
X107675974Y-88144706D01*
X107461111Y-88101967D01*
X107461107Y-88101967D01*
X107388567Y-88087538D01*
X107316027Y-88101967D01*
X105829500Y-88101967D01*
X105829500Y-88035274D01*
X105665156Y-87638512D01*
X105361488Y-87334844D01*
X104964726Y-87170500D01*
X104535274Y-87170500D01*
X104138512Y-87334844D01*
X103834844Y-87638512D01*
X103670500Y-88035274D01*
X103670500Y-88287790D01*
X103256191Y-88702100D01*
X100774544Y-88702100D01*
X101065156Y-88411488D01*
X101229500Y-88014726D01*
X101229500Y-87585274D01*
X101065156Y-87188512D01*
X100761488Y-86884844D01*
X100364726Y-86720500D01*
X99935274Y-86720500D01*
X99538512Y-86884844D01*
X99359956Y-87063400D01*
X93831410Y-87063400D01*
X92107400Y-85339391D01*
X92107400Y-85086874D01*
X91943056Y-84690112D01*
X91639388Y-84386444D01*
X91242626Y-84222100D01*
X90813174Y-84222100D01*
X90416412Y-84386444D01*
X90112744Y-84690112D01*
X89948400Y-85086874D01*
X89948400Y-85516326D01*
X90112744Y-85913088D01*
X90416412Y-86216756D01*
X90530703Y-86264097D01*
X86462589Y-86264097D01*
X86578088Y-86216256D01*
X86881756Y-85912588D01*
X87046100Y-85515826D01*
X87046100Y-85263309D01*
X88336163Y-83973246D01*
X88415544Y-84164888D01*
X88719212Y-84468556D01*
X89115974Y-84632900D01*
X89545426Y-84632900D01*
X89942188Y-84468556D01*
X90245856Y-84164888D01*
X90410200Y-83768126D01*
X90410200Y-83515609D01*
X91239210Y-82686600D01*
X110170498Y-82686600D01*
X110170498Y-82819003D01*
M02*
