%TF.GenerationSoftware,KiCad,Pcbnew,5.0.2-bee76a0~70~ubuntu16.04.1*%
%TF.CreationDate,2019-04-28T15:28:11+02:00*%
%TF.ProjectId,bcl4v2,62636c34-7632-42e6-9b69-6361645f7063,rev?*%
%TF.SameCoordinates,Original*%
%TF.FileFunction,Soldermask,Bot*%
%TF.FilePolarity,Negative*%
%FSLAX46Y46*%
G04 Gerber Fmt 4.6, Leading zero omitted, Abs format (unit mm)*
G04 Created by KiCad (PCBNEW 5.0.2-bee76a0~70~ubuntu16.04.1) date Ne 28. duben 2019, 15:28:11 CEST*
%MOMM*%
%LPD*%
G01*
G04 APERTURE LIST*
%ADD10C,0.381000*%
%ADD11C,0.150000*%
G04 APERTURE END LIST*
D10*
X95000000Y-129000000D02*
X95000000Y-130000000D01*
X105000000Y-129000000D02*
X105000000Y-130000000D01*
X105000000Y-70000000D02*
X105000000Y-71000000D01*
X95000000Y-70000000D02*
X95000000Y-71000000D01*
X70000000Y-95000000D02*
X70000000Y-75000000D01*
X70000000Y-125000000D02*
X70000000Y-105000000D01*
X95000000Y-130000000D02*
X75000000Y-130000000D01*
X125000000Y-130000000D02*
X105000000Y-130000000D01*
X130000000Y-105000000D02*
X130000000Y-125000000D01*
X130000000Y-75000000D02*
X130000000Y-95000000D01*
X105000000Y-70000000D02*
X125000000Y-70000000D01*
X75000000Y-70000000D02*
X95000000Y-70000000D01*
X75000000Y-130000000D02*
G75*
G02X70000000Y-125000000I0J5000000D01*
G01*
X130000000Y-125000000D02*
G75*
G02X125000000Y-130000000I-5000000J0D01*
G01*
X125000000Y-70000000D02*
G75*
G02X130000000Y-75000000I0J-5000000D01*
G01*
X70000000Y-75000000D02*
G75*
G02X75000000Y-70000000I5000000J0D01*
G01*
X95000000Y-71000000D02*
X105000000Y-71000000D01*
X70750000Y-105000000D02*
X70000000Y-105000000D01*
X70750000Y-95000000D02*
X70750000Y-105000000D01*
X70000000Y-95000000D02*
X70750000Y-95000000D01*
X95000000Y-129000000D02*
X105000000Y-129000000D01*
X129000000Y-105000000D02*
X130000000Y-105000000D01*
X129000000Y-95000000D02*
X129000000Y-105000000D01*
X130000000Y-95000000D02*
X129000000Y-95000000D01*
D11*
G36*
X106526587Y-127542234D02*
X106639788Y-127576573D01*
X106696389Y-127593743D01*
X106852877Y-127677388D01*
X106990044Y-127789956D01*
X107073288Y-127891391D01*
X107102611Y-127927121D01*
X107102612Y-127927123D01*
X107186257Y-128083610D01*
X107186258Y-128083613D01*
X107237766Y-128253412D01*
X107250800Y-128385751D01*
X107250800Y-129074249D01*
X107237766Y-129206588D01*
X107186257Y-129376389D01*
X107102611Y-129532879D01*
X107073288Y-129568609D01*
X106990044Y-129670044D01*
X106888609Y-129753288D01*
X106852879Y-129782611D01*
X106852877Y-129782612D01*
X106696390Y-129866257D01*
X106639789Y-129883427D01*
X106526588Y-129917766D01*
X106350000Y-129935158D01*
X106173413Y-129917766D01*
X106060212Y-129883427D01*
X106003611Y-129866257D01*
X105847124Y-129782612D01*
X105847122Y-129782611D01*
X105811392Y-129753288D01*
X105709957Y-129670044D01*
X105626713Y-129568609D01*
X105597390Y-129532879D01*
X105513743Y-129376389D01*
X105462234Y-129206588D01*
X105449200Y-129074249D01*
X105449200Y-128385752D01*
X105462234Y-128253413D01*
X105496573Y-128140212D01*
X105513743Y-128083611D01*
X105597388Y-127927123D01*
X105709956Y-127789956D01*
X105811391Y-127706712D01*
X105847121Y-127677389D01*
X105902972Y-127647536D01*
X106003610Y-127593743D01*
X106060211Y-127576573D01*
X106173412Y-127542234D01*
X106350000Y-127524842D01*
X106526587Y-127542234D01*
X106526587Y-127542234D01*
G37*
G36*
X88746588Y-127542234D02*
X88859789Y-127576573D01*
X88916390Y-127593743D01*
X89017028Y-127647536D01*
X89072879Y-127677389D01*
X89108609Y-127706712D01*
X89210044Y-127789956D01*
X89293288Y-127891391D01*
X89322611Y-127927121D01*
X89406257Y-128083611D01*
X89457766Y-128253412D01*
X89470800Y-128385751D01*
X89470800Y-129074249D01*
X89457766Y-129206588D01*
X89423427Y-129319789D01*
X89406257Y-129376390D01*
X89332178Y-129514980D01*
X89322611Y-129532879D01*
X89293288Y-129568609D01*
X89210044Y-129670044D01*
X89072877Y-129782612D01*
X88916389Y-129866257D01*
X88859788Y-129883427D01*
X88746587Y-129917766D01*
X88570000Y-129935158D01*
X88393412Y-129917766D01*
X88280211Y-129883427D01*
X88223610Y-129866257D01*
X88067123Y-129782612D01*
X88067121Y-129782611D01*
X88031391Y-129753288D01*
X87929956Y-129670044D01*
X87817388Y-129532877D01*
X87733743Y-129376389D01*
X87682235Y-129206589D01*
X87682234Y-129206587D01*
X87669200Y-129074248D01*
X87669200Y-128385751D01*
X87682234Y-128253412D01*
X87733743Y-128083611D01*
X87817390Y-127927121D01*
X87846713Y-127891391D01*
X87929957Y-127789956D01*
X88031392Y-127706712D01*
X88067122Y-127677389D01*
X88122973Y-127647536D01*
X88223611Y-127593743D01*
X88280212Y-127576573D01*
X88393413Y-127542234D01*
X88570000Y-127524842D01*
X88746588Y-127542234D01*
X88746588Y-127542234D01*
G37*
G36*
X91286588Y-127542234D02*
X91399789Y-127576573D01*
X91456390Y-127593743D01*
X91557028Y-127647536D01*
X91612879Y-127677389D01*
X91648609Y-127706712D01*
X91750044Y-127789956D01*
X91833288Y-127891391D01*
X91862611Y-127927121D01*
X91946257Y-128083611D01*
X91997766Y-128253412D01*
X92010800Y-128385751D01*
X92010800Y-129074249D01*
X91997766Y-129206588D01*
X91963427Y-129319789D01*
X91946257Y-129376390D01*
X91872178Y-129514980D01*
X91862611Y-129532879D01*
X91833288Y-129568609D01*
X91750044Y-129670044D01*
X91612877Y-129782612D01*
X91456389Y-129866257D01*
X91399788Y-129883427D01*
X91286587Y-129917766D01*
X91110000Y-129935158D01*
X90933412Y-129917766D01*
X90820211Y-129883427D01*
X90763610Y-129866257D01*
X90607123Y-129782612D01*
X90607121Y-129782611D01*
X90571391Y-129753288D01*
X90469956Y-129670044D01*
X90357388Y-129532877D01*
X90273743Y-129376389D01*
X90222235Y-129206589D01*
X90222234Y-129206587D01*
X90209200Y-129074248D01*
X90209200Y-128385751D01*
X90222234Y-128253412D01*
X90273743Y-128083611D01*
X90357390Y-127927121D01*
X90386713Y-127891391D01*
X90469957Y-127789956D01*
X90571392Y-127706712D01*
X90607122Y-127677389D01*
X90662973Y-127647536D01*
X90763611Y-127593743D01*
X90820212Y-127576573D01*
X90933413Y-127542234D01*
X91110000Y-127524842D01*
X91286588Y-127542234D01*
X91286588Y-127542234D01*
G37*
G36*
X93826588Y-127542234D02*
X93939789Y-127576573D01*
X93996390Y-127593743D01*
X94097028Y-127647536D01*
X94152879Y-127677389D01*
X94188609Y-127706712D01*
X94290044Y-127789956D01*
X94373288Y-127891391D01*
X94402611Y-127927121D01*
X94486257Y-128083611D01*
X94537766Y-128253412D01*
X94550800Y-128385751D01*
X94550800Y-129074249D01*
X94537766Y-129206588D01*
X94503427Y-129319789D01*
X94486257Y-129376390D01*
X94412178Y-129514980D01*
X94402611Y-129532879D01*
X94373288Y-129568609D01*
X94290044Y-129670044D01*
X94152877Y-129782612D01*
X93996389Y-129866257D01*
X93939788Y-129883427D01*
X93826587Y-129917766D01*
X93650000Y-129935158D01*
X93473412Y-129917766D01*
X93360211Y-129883427D01*
X93303610Y-129866257D01*
X93147123Y-129782612D01*
X93147121Y-129782611D01*
X93111391Y-129753288D01*
X93009956Y-129670044D01*
X92897388Y-129532877D01*
X92813743Y-129376389D01*
X92762235Y-129206589D01*
X92762234Y-129206587D01*
X92749200Y-129074248D01*
X92749200Y-128385751D01*
X92762234Y-128253412D01*
X92813743Y-128083611D01*
X92897390Y-127927121D01*
X92926713Y-127891391D01*
X93009957Y-127789956D01*
X93111392Y-127706712D01*
X93147122Y-127677389D01*
X93202973Y-127647536D01*
X93303611Y-127593743D01*
X93360212Y-127576573D01*
X93473413Y-127542234D01*
X93650000Y-127524842D01*
X93826588Y-127542234D01*
X93826588Y-127542234D01*
G37*
G36*
X86206588Y-127542234D02*
X86319789Y-127576573D01*
X86376390Y-127593743D01*
X86477028Y-127647536D01*
X86532879Y-127677389D01*
X86568609Y-127706712D01*
X86670044Y-127789956D01*
X86753288Y-127891391D01*
X86782611Y-127927121D01*
X86866257Y-128083611D01*
X86917766Y-128253412D01*
X86930800Y-128385751D01*
X86930800Y-129074249D01*
X86917766Y-129206588D01*
X86883427Y-129319789D01*
X86866257Y-129376390D01*
X86792178Y-129514980D01*
X86782611Y-129532879D01*
X86753288Y-129568609D01*
X86670044Y-129670044D01*
X86532877Y-129782612D01*
X86376389Y-129866257D01*
X86319788Y-129883427D01*
X86206587Y-129917766D01*
X86030000Y-129935158D01*
X85853412Y-129917766D01*
X85740211Y-129883427D01*
X85683610Y-129866257D01*
X85527123Y-129782612D01*
X85527121Y-129782611D01*
X85491391Y-129753288D01*
X85389956Y-129670044D01*
X85277388Y-129532877D01*
X85193743Y-129376389D01*
X85142235Y-129206589D01*
X85142234Y-129206587D01*
X85129200Y-129074248D01*
X85129200Y-128385751D01*
X85142234Y-128253412D01*
X85193743Y-128083611D01*
X85277390Y-127927121D01*
X85306713Y-127891391D01*
X85389957Y-127789956D01*
X85491392Y-127706712D01*
X85527122Y-127677389D01*
X85582973Y-127647536D01*
X85683611Y-127593743D01*
X85740212Y-127576573D01*
X85853413Y-127542234D01*
X86030000Y-127524842D01*
X86206588Y-127542234D01*
X86206588Y-127542234D01*
G37*
G36*
X111606587Y-127542234D02*
X111719788Y-127576573D01*
X111776389Y-127593743D01*
X111932877Y-127677388D01*
X112070044Y-127789956D01*
X112153288Y-127891391D01*
X112182611Y-127927121D01*
X112182612Y-127927123D01*
X112266257Y-128083610D01*
X112266258Y-128083613D01*
X112317766Y-128253412D01*
X112330800Y-128385751D01*
X112330800Y-129074249D01*
X112317766Y-129206588D01*
X112266257Y-129376389D01*
X112182611Y-129532879D01*
X112153288Y-129568609D01*
X112070044Y-129670044D01*
X111968609Y-129753288D01*
X111932879Y-129782611D01*
X111932877Y-129782612D01*
X111776390Y-129866257D01*
X111719789Y-129883427D01*
X111606588Y-129917766D01*
X111430000Y-129935158D01*
X111253413Y-129917766D01*
X111140212Y-129883427D01*
X111083611Y-129866257D01*
X110927124Y-129782612D01*
X110927122Y-129782611D01*
X110891392Y-129753288D01*
X110789957Y-129670044D01*
X110706713Y-129568609D01*
X110677390Y-129532879D01*
X110593743Y-129376389D01*
X110542234Y-129206588D01*
X110529200Y-129074249D01*
X110529200Y-128385752D01*
X110542234Y-128253413D01*
X110576573Y-128140212D01*
X110593743Y-128083611D01*
X110677388Y-127927123D01*
X110789956Y-127789956D01*
X110891391Y-127706712D01*
X110927121Y-127677389D01*
X110982972Y-127647536D01*
X111083610Y-127593743D01*
X111140211Y-127576573D01*
X111253412Y-127542234D01*
X111430000Y-127524842D01*
X111606587Y-127542234D01*
X111606587Y-127542234D01*
G37*
G36*
X114146587Y-127542234D02*
X114259788Y-127576573D01*
X114316389Y-127593743D01*
X114472877Y-127677388D01*
X114610044Y-127789956D01*
X114693288Y-127891391D01*
X114722611Y-127927121D01*
X114722612Y-127927123D01*
X114806257Y-128083610D01*
X114806258Y-128083613D01*
X114857766Y-128253412D01*
X114870800Y-128385751D01*
X114870800Y-129074249D01*
X114857766Y-129206588D01*
X114806257Y-129376389D01*
X114722611Y-129532879D01*
X114693288Y-129568609D01*
X114610044Y-129670044D01*
X114508609Y-129753288D01*
X114472879Y-129782611D01*
X114472877Y-129782612D01*
X114316390Y-129866257D01*
X114259789Y-129883427D01*
X114146588Y-129917766D01*
X113970000Y-129935158D01*
X113793413Y-129917766D01*
X113680212Y-129883427D01*
X113623611Y-129866257D01*
X113467124Y-129782612D01*
X113467122Y-129782611D01*
X113431392Y-129753288D01*
X113329957Y-129670044D01*
X113246713Y-129568609D01*
X113217390Y-129532879D01*
X113133743Y-129376389D01*
X113082234Y-129206588D01*
X113069200Y-129074249D01*
X113069200Y-128385752D01*
X113082234Y-128253413D01*
X113116573Y-128140212D01*
X113133743Y-128083611D01*
X113217388Y-127927123D01*
X113329956Y-127789956D01*
X113431391Y-127706712D01*
X113467121Y-127677389D01*
X113522972Y-127647536D01*
X113623610Y-127593743D01*
X113680211Y-127576573D01*
X113793412Y-127542234D01*
X113970000Y-127524842D01*
X114146587Y-127542234D01*
X114146587Y-127542234D01*
G37*
G36*
X109066587Y-127542234D02*
X109179788Y-127576573D01*
X109236389Y-127593743D01*
X109392877Y-127677388D01*
X109530044Y-127789956D01*
X109613288Y-127891391D01*
X109642611Y-127927121D01*
X109642612Y-127927123D01*
X109726257Y-128083610D01*
X109726258Y-128083613D01*
X109777766Y-128253412D01*
X109790800Y-128385751D01*
X109790800Y-129074249D01*
X109777766Y-129206588D01*
X109726257Y-129376389D01*
X109642611Y-129532879D01*
X109613288Y-129568609D01*
X109530044Y-129670044D01*
X109428609Y-129753288D01*
X109392879Y-129782611D01*
X109392877Y-129782612D01*
X109236390Y-129866257D01*
X109179789Y-129883427D01*
X109066588Y-129917766D01*
X108890000Y-129935158D01*
X108713413Y-129917766D01*
X108600212Y-129883427D01*
X108543611Y-129866257D01*
X108387124Y-129782612D01*
X108387122Y-129782611D01*
X108351392Y-129753288D01*
X108249957Y-129670044D01*
X108166713Y-129568609D01*
X108137390Y-129532879D01*
X108053743Y-129376389D01*
X108002234Y-129206588D01*
X107989200Y-129074249D01*
X107989200Y-128385752D01*
X108002234Y-128253413D01*
X108036573Y-128140212D01*
X108053743Y-128083611D01*
X108137388Y-127927123D01*
X108249956Y-127789956D01*
X108351391Y-127706712D01*
X108387121Y-127677389D01*
X108442972Y-127647536D01*
X108543610Y-127593743D01*
X108600211Y-127576573D01*
X108713412Y-127542234D01*
X108890000Y-127524842D01*
X109066587Y-127542234D01*
X109066587Y-127542234D01*
G37*
G36*
X117410800Y-129930800D02*
X115609200Y-129930800D01*
X115609200Y-127529200D01*
X117410800Y-127529200D01*
X117410800Y-129930800D01*
X117410800Y-129930800D01*
G37*
G36*
X84390800Y-129930800D02*
X82589200Y-129930800D01*
X82589200Y-127529200D01*
X84390800Y-127529200D01*
X84390800Y-129930800D01*
X84390800Y-129930800D01*
G37*
G36*
X96650800Y-127924200D02*
X96653202Y-127948586D01*
X96660315Y-127972035D01*
X96671866Y-127993646D01*
X96687412Y-128012588D01*
X96706354Y-128028134D01*
X96727965Y-128039685D01*
X96751414Y-128046798D01*
X96775800Y-128049200D01*
X97350800Y-128049200D01*
X97350800Y-128850800D01*
X95349200Y-128850800D01*
X95349200Y-127249200D01*
X96650800Y-127249200D01*
X96650800Y-127924200D01*
X96650800Y-127924200D01*
G37*
G36*
X104650800Y-128850800D02*
X102649200Y-128850800D01*
X102649200Y-128049200D01*
X103224200Y-128049200D01*
X103248586Y-128046798D01*
X103272035Y-128039685D01*
X103293646Y-128028134D01*
X103312588Y-128012588D01*
X103328134Y-127993646D01*
X103339685Y-127972035D01*
X103346798Y-127948586D01*
X103349200Y-127924200D01*
X103349200Y-127249200D01*
X104650800Y-127249200D01*
X104650800Y-128850800D01*
X104650800Y-128850800D01*
G37*
G36*
X75807061Y-121540170D02*
X76035730Y-121585655D01*
X76492665Y-121774924D01*
X76552990Y-121799911D01*
X76681935Y-121853322D01*
X77150566Y-122166451D01*
X77263506Y-122241915D01*
X77758085Y-122736494D01*
X77758087Y-122736497D01*
X78146678Y-123318065D01*
X78414345Y-123964270D01*
X78550800Y-124650277D01*
X78550800Y-125349723D01*
X78414345Y-126035730D01*
X78146678Y-126681935D01*
X77900621Y-127050186D01*
X77758085Y-127263506D01*
X77263506Y-127758085D01*
X77263503Y-127758087D01*
X76681935Y-128146678D01*
X76035730Y-128414345D01*
X75807061Y-128459830D01*
X75349725Y-128550800D01*
X74650275Y-128550800D01*
X74192939Y-128459830D01*
X73964270Y-128414345D01*
X73318065Y-128146678D01*
X72736497Y-127758087D01*
X72736494Y-127758085D01*
X72241915Y-127263506D01*
X72099379Y-127050186D01*
X71853322Y-126681935D01*
X71585655Y-126035730D01*
X71449200Y-125349723D01*
X71449200Y-124650277D01*
X71585655Y-123964270D01*
X71853322Y-123318065D01*
X72241913Y-122736497D01*
X72241915Y-122736494D01*
X72736494Y-122241915D01*
X72849434Y-122166451D01*
X73318065Y-121853322D01*
X73447011Y-121799911D01*
X73507335Y-121774924D01*
X73964270Y-121585655D01*
X74192939Y-121540170D01*
X74650275Y-121449200D01*
X75349725Y-121449200D01*
X75807061Y-121540170D01*
X75807061Y-121540170D01*
G37*
G36*
X125807061Y-121540170D02*
X126035730Y-121585655D01*
X126492665Y-121774924D01*
X126552990Y-121799911D01*
X126681935Y-121853322D01*
X127150566Y-122166451D01*
X127263506Y-122241915D01*
X127758085Y-122736494D01*
X127758087Y-122736497D01*
X128146678Y-123318065D01*
X128414345Y-123964270D01*
X128550800Y-124650277D01*
X128550800Y-125349723D01*
X128414345Y-126035730D01*
X128146678Y-126681935D01*
X127900621Y-127050186D01*
X127758085Y-127263506D01*
X127263506Y-127758085D01*
X127263503Y-127758087D01*
X126681935Y-128146678D01*
X126035730Y-128414345D01*
X125807061Y-128459830D01*
X125349725Y-128550800D01*
X124650275Y-128550800D01*
X124192939Y-128459830D01*
X123964270Y-128414345D01*
X123318065Y-128146678D01*
X122736497Y-127758087D01*
X122736494Y-127758085D01*
X122241915Y-127263506D01*
X122099379Y-127050186D01*
X121853322Y-126681935D01*
X121585655Y-126035730D01*
X121449200Y-125349723D01*
X121449200Y-124650277D01*
X121585655Y-123964270D01*
X121853322Y-123318065D01*
X122241913Y-122736497D01*
X122241915Y-122736494D01*
X122736494Y-122241915D01*
X122849434Y-122166451D01*
X123318065Y-121853322D01*
X123447011Y-121799911D01*
X123507335Y-121774924D01*
X123964270Y-121585655D01*
X124192939Y-121540170D01*
X124650275Y-121449200D01*
X125349725Y-121449200D01*
X125807061Y-121540170D01*
X125807061Y-121540170D01*
G37*
G36*
X98550800Y-126891492D02*
X98553202Y-126915878D01*
X98560315Y-126939327D01*
X98571866Y-126960938D01*
X98587412Y-126979880D01*
X98606354Y-126995426D01*
X98627965Y-127006977D01*
X98651414Y-127014090D01*
X98675800Y-127016492D01*
X98700186Y-127014090D01*
X98800182Y-126994200D01*
X98899818Y-126994200D01*
X98997535Y-127013637D01*
X99089588Y-127051766D01*
X99172429Y-127107120D01*
X99242880Y-127177571D01*
X99298234Y-127260412D01*
X99336363Y-127352465D01*
X99355800Y-127450182D01*
X99355800Y-127549818D01*
X99336363Y-127647535D01*
X99298234Y-127739588D01*
X99242880Y-127822429D01*
X99172429Y-127892880D01*
X99089588Y-127948234D01*
X98997535Y-127986363D01*
X98899818Y-128005800D01*
X98800182Y-128005800D01*
X98702465Y-127986363D01*
X98610412Y-127948234D01*
X98527571Y-127892880D01*
X98457120Y-127822429D01*
X98401766Y-127739588D01*
X98363637Y-127647535D01*
X98344200Y-127549818D01*
X98344200Y-127450182D01*
X98363637Y-127352465D01*
X98401766Y-127260412D01*
X98457120Y-127177571D01*
X98520503Y-127114188D01*
X98536049Y-127095246D01*
X98547600Y-127073635D01*
X98554713Y-127050186D01*
X98557115Y-127025800D01*
X98554713Y-127001414D01*
X98547600Y-126977965D01*
X98536049Y-126956354D01*
X98520503Y-126937412D01*
X98501561Y-126921866D01*
X98479950Y-126910315D01*
X98456501Y-126903202D01*
X98432115Y-126900800D01*
X97249200Y-126900800D01*
X97249200Y-125099200D01*
X98550800Y-125099200D01*
X98550800Y-126891492D01*
X98550800Y-126891492D01*
G37*
G36*
X101299814Y-127014090D02*
X101324201Y-127016492D01*
X101348587Y-127014090D01*
X101372036Y-127006977D01*
X101379191Y-127003152D01*
X101385404Y-127023635D01*
X101396955Y-127045246D01*
X101412501Y-127064188D01*
X101431442Y-127079733D01*
X101472429Y-127107120D01*
X101542880Y-127177571D01*
X101598234Y-127260412D01*
X101636363Y-127352465D01*
X101655800Y-127450182D01*
X101655800Y-127549818D01*
X101636363Y-127647535D01*
X101598234Y-127739588D01*
X101542880Y-127822429D01*
X101472429Y-127892880D01*
X101389588Y-127948234D01*
X101297535Y-127986363D01*
X101199818Y-128005800D01*
X101100182Y-128005800D01*
X101002465Y-127986363D01*
X100910412Y-127948234D01*
X100827571Y-127892880D01*
X100757120Y-127822429D01*
X100701766Y-127739588D01*
X100663637Y-127647535D01*
X100644200Y-127549818D01*
X100644200Y-127450182D01*
X100663637Y-127352465D01*
X100701766Y-127260412D01*
X100757120Y-127177571D01*
X100827571Y-127107120D01*
X100910412Y-127051766D01*
X101002465Y-127013637D01*
X101100182Y-126994200D01*
X101199818Y-126994200D01*
X101299814Y-127014090D01*
X101299814Y-127014090D01*
G37*
G36*
X102750800Y-126850800D02*
X101500889Y-126850800D01*
X101476503Y-126853202D01*
X101453054Y-126860315D01*
X101449200Y-126862375D01*
X101449200Y-125149200D01*
X102750800Y-125149200D01*
X102750800Y-126850800D01*
X102750800Y-126850800D01*
G37*
G36*
X101429336Y-121677961D02*
X101531478Y-121708946D01*
X101582550Y-121724438D01*
X101707601Y-121791280D01*
X101723751Y-121799912D01*
X101847517Y-121901483D01*
X101847518Y-121901485D01*
X101847520Y-121901486D01*
X101923695Y-121994307D01*
X101949088Y-122025248D01*
X101984220Y-122090975D01*
X102024562Y-122166449D01*
X102040054Y-122217521D01*
X102071039Y-122319663D01*
X102082800Y-122439077D01*
X102082800Y-123280923D01*
X102071039Y-123400337D01*
X102040054Y-123502479D01*
X102024562Y-123553551D01*
X101984220Y-123629025D01*
X101949088Y-123694752D01*
X101847517Y-123818517D01*
X101723752Y-123920088D01*
X101658025Y-123955220D01*
X101582551Y-123995562D01*
X101531479Y-124011054D01*
X101429337Y-124042039D01*
X101270000Y-124057732D01*
X101110664Y-124042039D01*
X101008522Y-124011054D01*
X100957450Y-123995562D01*
X100881976Y-123955220D01*
X100816249Y-123920088D01*
X100692484Y-123818517D01*
X100590913Y-123694752D01*
X100515439Y-123553550D01*
X100468961Y-123400337D01*
X100457200Y-123280923D01*
X100457200Y-122439078D01*
X100468961Y-122319664D01*
X100515438Y-122166451D01*
X100515438Y-122166450D01*
X100590911Y-122025251D01*
X100590912Y-122025249D01*
X100692483Y-121901483D01*
X100692485Y-121901482D01*
X100692486Y-121901480D01*
X100816247Y-121799913D01*
X100816246Y-121799913D01*
X100816248Y-121799912D01*
X100881975Y-121764780D01*
X100957449Y-121724438D01*
X101008521Y-121708946D01*
X101110663Y-121677961D01*
X101270000Y-121662268D01*
X101429336Y-121677961D01*
X101429336Y-121677961D01*
G37*
G36*
X93809336Y-121677961D02*
X93911478Y-121708946D01*
X93962550Y-121724438D01*
X94087601Y-121791280D01*
X94103751Y-121799912D01*
X94227517Y-121901483D01*
X94227518Y-121901485D01*
X94227520Y-121901486D01*
X94303695Y-121994307D01*
X94329088Y-122025248D01*
X94364220Y-122090975D01*
X94404562Y-122166449D01*
X94420054Y-122217521D01*
X94451039Y-122319663D01*
X94462800Y-122439077D01*
X94462800Y-123280923D01*
X94451039Y-123400337D01*
X94420054Y-123502479D01*
X94404562Y-123553551D01*
X94364220Y-123629025D01*
X94329088Y-123694752D01*
X94227517Y-123818517D01*
X94103752Y-123920088D01*
X94038025Y-123955220D01*
X93962551Y-123995562D01*
X93911479Y-124011054D01*
X93809337Y-124042039D01*
X93650000Y-124057732D01*
X93490664Y-124042039D01*
X93388522Y-124011054D01*
X93337450Y-123995562D01*
X93261976Y-123955220D01*
X93196249Y-123920088D01*
X93072484Y-123818517D01*
X92970913Y-123694752D01*
X92895439Y-123553550D01*
X92848961Y-123400337D01*
X92837200Y-123280923D01*
X92837200Y-122439078D01*
X92848961Y-122319664D01*
X92895438Y-122166451D01*
X92895438Y-122166450D01*
X92970911Y-122025251D01*
X92970912Y-122025249D01*
X93072483Y-121901483D01*
X93072485Y-121901482D01*
X93072486Y-121901480D01*
X93196247Y-121799913D01*
X93196246Y-121799913D01*
X93196248Y-121799912D01*
X93261975Y-121764780D01*
X93337449Y-121724438D01*
X93388521Y-121708946D01*
X93490663Y-121677961D01*
X93650000Y-121662268D01*
X93809336Y-121677961D01*
X93809336Y-121677961D01*
G37*
G36*
X96349336Y-121677961D02*
X96451478Y-121708946D01*
X96502550Y-121724438D01*
X96627601Y-121791280D01*
X96643751Y-121799912D01*
X96767517Y-121901483D01*
X96767518Y-121901485D01*
X96767520Y-121901486D01*
X96843695Y-121994307D01*
X96869088Y-122025248D01*
X96904220Y-122090975D01*
X96944562Y-122166449D01*
X96960054Y-122217521D01*
X96991039Y-122319663D01*
X97002800Y-122439077D01*
X97002800Y-123280923D01*
X96991039Y-123400337D01*
X96960054Y-123502479D01*
X96944562Y-123553551D01*
X96904220Y-123629025D01*
X96869088Y-123694752D01*
X96767517Y-123818517D01*
X96643752Y-123920088D01*
X96578025Y-123955220D01*
X96502551Y-123995562D01*
X96451479Y-124011054D01*
X96349337Y-124042039D01*
X96190000Y-124057732D01*
X96030664Y-124042039D01*
X95928522Y-124011054D01*
X95877450Y-123995562D01*
X95801976Y-123955220D01*
X95736249Y-123920088D01*
X95612484Y-123818517D01*
X95510913Y-123694752D01*
X95435439Y-123553550D01*
X95388961Y-123400337D01*
X95377200Y-123280923D01*
X95377200Y-122439078D01*
X95388961Y-122319664D01*
X95435438Y-122166451D01*
X95435438Y-122166450D01*
X95510911Y-122025251D01*
X95510912Y-122025249D01*
X95612483Y-121901483D01*
X95612485Y-121901482D01*
X95612486Y-121901480D01*
X95736247Y-121799913D01*
X95736246Y-121799913D01*
X95736248Y-121799912D01*
X95801975Y-121764780D01*
X95877449Y-121724438D01*
X95928521Y-121708946D01*
X96030663Y-121677961D01*
X96190000Y-121662268D01*
X96349336Y-121677961D01*
X96349336Y-121677961D01*
G37*
G36*
X109049336Y-121677961D02*
X109151478Y-121708946D01*
X109202550Y-121724438D01*
X109327601Y-121791280D01*
X109343751Y-121799912D01*
X109467517Y-121901483D01*
X109467518Y-121901485D01*
X109467520Y-121901486D01*
X109543695Y-121994307D01*
X109569088Y-122025248D01*
X109604220Y-122090975D01*
X109644562Y-122166449D01*
X109660054Y-122217521D01*
X109691039Y-122319663D01*
X109702800Y-122439077D01*
X109702800Y-123280923D01*
X109691039Y-123400337D01*
X109660054Y-123502479D01*
X109644562Y-123553551D01*
X109604220Y-123629025D01*
X109569088Y-123694752D01*
X109467517Y-123818517D01*
X109343752Y-123920088D01*
X109278025Y-123955220D01*
X109202551Y-123995562D01*
X109151479Y-124011054D01*
X109049337Y-124042039D01*
X108890000Y-124057732D01*
X108730664Y-124042039D01*
X108628522Y-124011054D01*
X108577450Y-123995562D01*
X108501976Y-123955220D01*
X108436249Y-123920088D01*
X108312484Y-123818517D01*
X108210913Y-123694752D01*
X108135439Y-123553550D01*
X108088961Y-123400337D01*
X108077200Y-123280923D01*
X108077200Y-122439078D01*
X108088961Y-122319664D01*
X108135438Y-122166451D01*
X108135438Y-122166450D01*
X108210911Y-122025251D01*
X108210912Y-122025249D01*
X108312483Y-121901483D01*
X108312485Y-121901482D01*
X108312486Y-121901480D01*
X108436247Y-121799913D01*
X108436246Y-121799913D01*
X108436248Y-121799912D01*
X108501975Y-121764780D01*
X108577449Y-121724438D01*
X108628521Y-121708946D01*
X108730663Y-121677961D01*
X108890000Y-121662268D01*
X109049336Y-121677961D01*
X109049336Y-121677961D01*
G37*
G36*
X103969336Y-121677961D02*
X104071478Y-121708946D01*
X104122550Y-121724438D01*
X104247601Y-121791280D01*
X104263751Y-121799912D01*
X104387517Y-121901483D01*
X104387518Y-121901485D01*
X104387520Y-121901486D01*
X104463695Y-121994307D01*
X104489088Y-122025248D01*
X104524220Y-122090975D01*
X104564562Y-122166449D01*
X104580054Y-122217521D01*
X104611039Y-122319663D01*
X104622800Y-122439077D01*
X104622800Y-123280923D01*
X104611039Y-123400337D01*
X104580054Y-123502479D01*
X104564562Y-123553551D01*
X104524220Y-123629025D01*
X104489088Y-123694752D01*
X104387517Y-123818517D01*
X104263752Y-123920088D01*
X104198025Y-123955220D01*
X104122551Y-123995562D01*
X104071479Y-124011054D01*
X103969337Y-124042039D01*
X103810000Y-124057732D01*
X103650664Y-124042039D01*
X103548522Y-124011054D01*
X103497450Y-123995562D01*
X103421976Y-123955220D01*
X103356249Y-123920088D01*
X103232484Y-123818517D01*
X103130913Y-123694752D01*
X103055439Y-123553550D01*
X103008961Y-123400337D01*
X102997200Y-123280923D01*
X102997200Y-122439078D01*
X103008961Y-122319664D01*
X103055438Y-122166451D01*
X103055438Y-122166450D01*
X103130911Y-122025251D01*
X103130912Y-122025249D01*
X103232483Y-121901483D01*
X103232485Y-121901482D01*
X103232486Y-121901480D01*
X103356247Y-121799913D01*
X103356246Y-121799913D01*
X103356248Y-121799912D01*
X103421975Y-121764780D01*
X103497449Y-121724438D01*
X103548521Y-121708946D01*
X103650663Y-121677961D01*
X103810000Y-121662268D01*
X103969336Y-121677961D01*
X103969336Y-121677961D01*
G37*
G36*
X106509336Y-121677961D02*
X106611478Y-121708946D01*
X106662550Y-121724438D01*
X106787601Y-121791280D01*
X106803751Y-121799912D01*
X106927517Y-121901483D01*
X106927518Y-121901485D01*
X106927520Y-121901486D01*
X107003695Y-121994307D01*
X107029088Y-122025248D01*
X107064220Y-122090975D01*
X107104562Y-122166449D01*
X107120054Y-122217521D01*
X107151039Y-122319663D01*
X107162800Y-122439077D01*
X107162800Y-123280923D01*
X107151039Y-123400337D01*
X107120054Y-123502479D01*
X107104562Y-123553551D01*
X107064220Y-123629025D01*
X107029088Y-123694752D01*
X106927517Y-123818517D01*
X106803752Y-123920088D01*
X106738025Y-123955220D01*
X106662551Y-123995562D01*
X106611479Y-124011054D01*
X106509337Y-124042039D01*
X106350000Y-124057732D01*
X106190664Y-124042039D01*
X106088522Y-124011054D01*
X106037450Y-123995562D01*
X105961976Y-123955220D01*
X105896249Y-123920088D01*
X105772484Y-123818517D01*
X105670913Y-123694752D01*
X105595439Y-123553550D01*
X105548961Y-123400337D01*
X105537200Y-123280923D01*
X105537200Y-122439078D01*
X105548961Y-122319664D01*
X105595438Y-122166451D01*
X105595438Y-122166450D01*
X105670911Y-122025251D01*
X105670912Y-122025249D01*
X105772483Y-121901483D01*
X105772485Y-121901482D01*
X105772486Y-121901480D01*
X105896247Y-121799913D01*
X105896246Y-121799913D01*
X105896248Y-121799912D01*
X105961975Y-121764780D01*
X106037449Y-121724438D01*
X106088521Y-121708946D01*
X106190663Y-121677961D01*
X106350000Y-121662268D01*
X106509336Y-121677961D01*
X106509336Y-121677961D01*
G37*
G36*
X98889336Y-121677961D02*
X98991478Y-121708946D01*
X99042550Y-121724438D01*
X99167601Y-121791280D01*
X99183751Y-121799912D01*
X99307517Y-121901483D01*
X99307518Y-121901485D01*
X99307520Y-121901486D01*
X99383695Y-121994307D01*
X99409088Y-122025248D01*
X99444220Y-122090975D01*
X99484562Y-122166449D01*
X99500054Y-122217521D01*
X99531039Y-122319663D01*
X99542800Y-122439077D01*
X99542800Y-123280923D01*
X99531039Y-123400337D01*
X99500054Y-123502479D01*
X99484562Y-123553551D01*
X99444220Y-123629025D01*
X99409088Y-123694752D01*
X99307517Y-123818517D01*
X99183752Y-123920088D01*
X99118025Y-123955220D01*
X99042551Y-123995562D01*
X98991479Y-124011054D01*
X98889337Y-124042039D01*
X98730000Y-124057732D01*
X98570664Y-124042039D01*
X98468522Y-124011054D01*
X98417450Y-123995562D01*
X98341976Y-123955220D01*
X98276249Y-123920088D01*
X98152484Y-123818517D01*
X98050913Y-123694752D01*
X97975439Y-123553550D01*
X97928961Y-123400337D01*
X97917200Y-123280923D01*
X97917200Y-122439078D01*
X97928961Y-122319664D01*
X97975438Y-122166451D01*
X97975438Y-122166450D01*
X98050911Y-122025251D01*
X98050912Y-122025249D01*
X98152483Y-121901483D01*
X98152485Y-121901482D01*
X98152486Y-121901480D01*
X98276247Y-121799913D01*
X98276246Y-121799913D01*
X98276248Y-121799912D01*
X98341975Y-121764780D01*
X98417449Y-121724438D01*
X98468521Y-121708946D01*
X98570663Y-121677961D01*
X98730000Y-121662268D01*
X98889336Y-121677961D01*
X98889336Y-121677961D01*
G37*
G36*
X91922800Y-124053800D02*
X90297200Y-124053800D01*
X90297200Y-121666200D01*
X91922800Y-121666200D01*
X91922800Y-124053800D01*
X91922800Y-124053800D01*
G37*
G36*
X84950800Y-121625800D02*
X83349200Y-121625800D01*
X83349200Y-120274200D01*
X84950800Y-120274200D01*
X84950800Y-121625800D01*
X84950800Y-121625800D01*
G37*
G36*
X82450800Y-121625800D02*
X80849200Y-121625800D01*
X80849200Y-120274200D01*
X82450800Y-120274200D01*
X82450800Y-121625800D01*
X82450800Y-121625800D01*
G37*
G36*
X116450800Y-120900800D02*
X114849200Y-120900800D01*
X114849200Y-119999200D01*
X116450800Y-119999200D01*
X116450800Y-120900800D01*
X116450800Y-120900800D01*
G37*
G36*
X125400800Y-120200800D02*
X122599200Y-120200800D01*
X122599200Y-116349200D01*
X125400800Y-116349200D01*
X125400800Y-120200800D01*
X125400800Y-120200800D01*
G37*
G36*
X119150800Y-119950800D02*
X117549200Y-119950800D01*
X117549200Y-119049200D01*
X119150800Y-119049200D01*
X119150800Y-119950800D01*
X119150800Y-119950800D01*
G37*
G36*
X82350800Y-119150800D02*
X80749200Y-119150800D01*
X80749200Y-117749200D01*
X82350800Y-117749200D01*
X82350800Y-119150800D01*
X82350800Y-119150800D01*
G37*
G36*
X85050800Y-119150800D02*
X83449200Y-119150800D01*
X83449200Y-117749200D01*
X85050800Y-117749200D01*
X85050800Y-119150800D01*
X85050800Y-119150800D01*
G37*
G36*
X116450800Y-119000800D02*
X114849200Y-119000800D01*
X114849200Y-118099200D01*
X116450800Y-118099200D01*
X116450800Y-119000800D01*
X116450800Y-119000800D01*
G37*
G36*
X93450800Y-118630800D02*
X91049200Y-118630800D01*
X91049200Y-117929200D01*
X93450800Y-117929200D01*
X93450800Y-118630800D01*
X93450800Y-118630800D01*
G37*
G36*
X103150800Y-118630800D02*
X100749200Y-118630800D01*
X100749200Y-117929200D01*
X103150800Y-117929200D01*
X103150800Y-118630800D01*
X103150800Y-118630800D01*
G37*
G36*
X113089720Y-116456256D02*
X113160662Y-116470367D01*
X113260902Y-116511887D01*
X113350706Y-116571893D01*
X113351117Y-116572168D01*
X113427832Y-116648883D01*
X113427834Y-116648886D01*
X113488113Y-116739098D01*
X113529633Y-116839338D01*
X113550800Y-116945751D01*
X113550800Y-117054249D01*
X113529633Y-117160662D01*
X113488113Y-117260902D01*
X113428107Y-117350706D01*
X113427832Y-117351117D01*
X113351117Y-117427832D01*
X113351114Y-117427834D01*
X113260902Y-117488113D01*
X113160662Y-117529633D01*
X113089720Y-117543744D01*
X113054250Y-117550800D01*
X112945750Y-117550800D01*
X112910280Y-117543744D01*
X112839338Y-117529633D01*
X112739098Y-117488113D01*
X112648886Y-117427834D01*
X112648883Y-117427832D01*
X112572168Y-117351117D01*
X112571893Y-117350706D01*
X112511887Y-117260902D01*
X112470367Y-117160662D01*
X112449200Y-117054249D01*
X112449200Y-116945751D01*
X112470367Y-116839338D01*
X112511887Y-116739098D01*
X112572166Y-116648886D01*
X112572168Y-116648883D01*
X112648883Y-116572168D01*
X112649294Y-116571893D01*
X112739098Y-116511887D01*
X112839338Y-116470367D01*
X112910280Y-116456256D01*
X112945750Y-116449200D01*
X113054250Y-116449200D01*
X113089720Y-116456256D01*
X113089720Y-116456256D01*
G37*
G36*
X72470800Y-117410800D02*
X70069200Y-117410800D01*
X70069200Y-115609200D01*
X72470800Y-115609200D01*
X72470800Y-117410800D01*
X72470800Y-117410800D01*
G37*
G36*
X129930800Y-117410800D02*
X127529200Y-117410800D01*
X127529200Y-115609200D01*
X129930800Y-115609200D01*
X129930800Y-117410800D01*
X129930800Y-117410800D01*
G37*
G36*
X103150800Y-117360800D02*
X100749200Y-117360800D01*
X100749200Y-116659200D01*
X103150800Y-116659200D01*
X103150800Y-117360800D01*
X103150800Y-117360800D01*
G37*
G36*
X93450800Y-117360800D02*
X91049200Y-117360800D01*
X91049200Y-116659200D01*
X93450800Y-116659200D01*
X93450800Y-117360800D01*
X93450800Y-117360800D01*
G37*
G36*
X119050800Y-116675800D02*
X117449200Y-116675800D01*
X117449200Y-115324200D01*
X119050800Y-115324200D01*
X119050800Y-116675800D01*
X119050800Y-116675800D01*
G37*
G36*
X116550800Y-116675800D02*
X114949200Y-116675800D01*
X114949200Y-115324200D01*
X116550800Y-115324200D01*
X116550800Y-116675800D01*
X116550800Y-116675800D01*
G37*
G36*
X85050800Y-116650800D02*
X83449200Y-116650800D01*
X83449200Y-115249200D01*
X85050800Y-115249200D01*
X85050800Y-116650800D01*
X85050800Y-116650800D01*
G37*
G36*
X82350800Y-116650800D02*
X80749200Y-116650800D01*
X80749200Y-115249200D01*
X82350800Y-115249200D01*
X82350800Y-116650800D01*
X82350800Y-116650800D01*
G37*
G36*
X103150800Y-116090800D02*
X100749200Y-116090800D01*
X100749200Y-115389200D01*
X103150800Y-115389200D01*
X103150800Y-116090800D01*
X103150800Y-116090800D01*
G37*
G36*
X93450800Y-116090800D02*
X91049200Y-116090800D01*
X91049200Y-115389200D01*
X93450800Y-115389200D01*
X93450800Y-116090800D01*
X93450800Y-116090800D01*
G37*
G36*
X71658362Y-113073545D02*
X71746588Y-113082234D01*
X71859789Y-113116573D01*
X71916390Y-113133743D01*
X72054980Y-113207822D01*
X72072879Y-113217389D01*
X72108609Y-113246712D01*
X72210044Y-113329956D01*
X72268183Y-113400800D01*
X72322611Y-113467121D01*
X72322612Y-113467123D01*
X72406257Y-113623610D01*
X72406257Y-113623611D01*
X72457766Y-113793412D01*
X72475158Y-113970000D01*
X72457766Y-114146588D01*
X72423427Y-114259789D01*
X72406257Y-114316390D01*
X72387864Y-114350800D01*
X72322611Y-114472879D01*
X72293288Y-114508609D01*
X72210044Y-114610044D01*
X72108609Y-114693288D01*
X72072879Y-114722611D01*
X72072877Y-114722612D01*
X71916390Y-114806257D01*
X71868448Y-114820800D01*
X71746588Y-114857766D01*
X71658362Y-114866455D01*
X71614250Y-114870800D01*
X70925750Y-114870800D01*
X70881638Y-114866455D01*
X70793412Y-114857766D01*
X70671552Y-114820800D01*
X70623610Y-114806257D01*
X70467123Y-114722612D01*
X70467121Y-114722611D01*
X70431391Y-114693288D01*
X70329956Y-114610044D01*
X70246712Y-114508609D01*
X70217389Y-114472879D01*
X70152136Y-114350800D01*
X70133743Y-114316390D01*
X70116573Y-114259789D01*
X70082234Y-114146588D01*
X70064842Y-113970000D01*
X70082234Y-113793412D01*
X70133743Y-113623611D01*
X70133743Y-113623610D01*
X70217388Y-113467123D01*
X70217389Y-113467121D01*
X70271817Y-113400800D01*
X70329956Y-113329956D01*
X70431391Y-113246712D01*
X70467121Y-113217389D01*
X70485020Y-113207822D01*
X70623610Y-113133743D01*
X70680211Y-113116573D01*
X70793412Y-113082234D01*
X70881638Y-113073545D01*
X70925750Y-113069200D01*
X71614250Y-113069200D01*
X71658362Y-113073545D01*
X71658362Y-113073545D01*
G37*
G36*
X129118362Y-113073545D02*
X129206588Y-113082234D01*
X129319789Y-113116573D01*
X129376390Y-113133743D01*
X129514980Y-113207822D01*
X129532879Y-113217389D01*
X129568609Y-113246712D01*
X129670044Y-113329956D01*
X129728183Y-113400800D01*
X129782611Y-113467121D01*
X129782612Y-113467123D01*
X129866257Y-113623610D01*
X129866257Y-113623611D01*
X129917766Y-113793412D01*
X129935158Y-113970000D01*
X129917766Y-114146588D01*
X129883427Y-114259789D01*
X129866257Y-114316390D01*
X129847864Y-114350800D01*
X129782611Y-114472879D01*
X129753288Y-114508609D01*
X129670044Y-114610044D01*
X129568609Y-114693288D01*
X129532879Y-114722611D01*
X129532877Y-114722612D01*
X129376390Y-114806257D01*
X129328448Y-114820800D01*
X129206588Y-114857766D01*
X129118362Y-114866455D01*
X129074250Y-114870800D01*
X128385750Y-114870800D01*
X128341638Y-114866455D01*
X128253412Y-114857766D01*
X128131552Y-114820800D01*
X128083610Y-114806257D01*
X127927123Y-114722612D01*
X127927121Y-114722611D01*
X127891391Y-114693288D01*
X127789956Y-114610044D01*
X127706712Y-114508609D01*
X127677389Y-114472879D01*
X127612136Y-114350800D01*
X127593743Y-114316390D01*
X127576573Y-114259789D01*
X127542234Y-114146588D01*
X127524842Y-113970000D01*
X127542234Y-113793412D01*
X127593743Y-113623611D01*
X127593743Y-113623610D01*
X127677388Y-113467123D01*
X127677389Y-113467121D01*
X127731817Y-113400800D01*
X127789956Y-113329956D01*
X127891391Y-113246712D01*
X127927121Y-113217389D01*
X127945020Y-113207822D01*
X128083610Y-113133743D01*
X128140211Y-113116573D01*
X128253412Y-113082234D01*
X128341638Y-113073545D01*
X128385750Y-113069200D01*
X129074250Y-113069200D01*
X129118362Y-113073545D01*
X129118362Y-113073545D01*
G37*
G36*
X93450800Y-114820800D02*
X91049200Y-114820800D01*
X91049200Y-114119200D01*
X93450800Y-114119200D01*
X93450800Y-114820800D01*
X93450800Y-114820800D01*
G37*
G36*
X103150800Y-114820800D02*
X100749200Y-114820800D01*
X100749200Y-114119200D01*
X103150800Y-114119200D01*
X103150800Y-114820800D01*
X103150800Y-114820800D01*
G37*
G36*
X82350800Y-114350800D02*
X80749200Y-114350800D01*
X80749200Y-113449200D01*
X82350800Y-113449200D01*
X82350800Y-114350800D01*
X82350800Y-114350800D01*
G37*
G36*
X116450800Y-113900800D02*
X114849200Y-113900800D01*
X114849200Y-112999200D01*
X116450800Y-112999200D01*
X116450800Y-113900800D01*
X116450800Y-113900800D01*
G37*
G36*
X93450800Y-113550800D02*
X91049200Y-113550800D01*
X91049200Y-112849200D01*
X93450800Y-112849200D01*
X93450800Y-113550800D01*
X93450800Y-113550800D01*
G37*
G36*
X103150800Y-113550800D02*
X100749200Y-113550800D01*
X100749200Y-112849200D01*
X103150800Y-112849200D01*
X103150800Y-113550800D01*
X103150800Y-113550800D01*
G37*
G36*
X85050800Y-113400800D02*
X83449200Y-113400800D01*
X83449200Y-112499200D01*
X85050800Y-112499200D01*
X85050800Y-113400800D01*
X85050800Y-113400800D01*
G37*
G36*
X119150800Y-112950800D02*
X117549200Y-112950800D01*
X117549200Y-112049200D01*
X119150800Y-112049200D01*
X119150800Y-112950800D01*
X119150800Y-112950800D01*
G37*
G36*
X125400800Y-112650800D02*
X122599200Y-112650800D01*
X122599200Y-108799200D01*
X125400800Y-108799200D01*
X125400800Y-112650800D01*
X125400800Y-112650800D01*
G37*
G36*
X82350800Y-112450800D02*
X80749200Y-112450800D01*
X80749200Y-111549200D01*
X82350800Y-111549200D01*
X82350800Y-112450800D01*
X82350800Y-112450800D01*
G37*
G36*
X71658362Y-110533545D02*
X71746588Y-110542234D01*
X71845260Y-110572166D01*
X71916390Y-110593743D01*
X72019554Y-110648886D01*
X72072879Y-110677389D01*
X72108609Y-110706712D01*
X72210044Y-110789956D01*
X72293288Y-110891391D01*
X72322611Y-110927121D01*
X72322612Y-110927123D01*
X72406257Y-111083610D01*
X72406257Y-111083611D01*
X72457766Y-111253412D01*
X72475158Y-111430000D01*
X72457766Y-111606588D01*
X72423427Y-111719789D01*
X72406257Y-111776390D01*
X72332178Y-111914980D01*
X72322611Y-111932879D01*
X72293288Y-111968609D01*
X72210044Y-112070044D01*
X72108609Y-112153288D01*
X72072879Y-112182611D01*
X72072877Y-112182612D01*
X71916390Y-112266257D01*
X71868448Y-112280800D01*
X71746588Y-112317766D01*
X71658362Y-112326455D01*
X71614250Y-112330800D01*
X70925750Y-112330800D01*
X70881638Y-112326455D01*
X70793412Y-112317766D01*
X70671552Y-112280800D01*
X70623610Y-112266257D01*
X70467123Y-112182612D01*
X70467121Y-112182611D01*
X70431391Y-112153288D01*
X70329956Y-112070044D01*
X70246712Y-111968609D01*
X70217389Y-111932879D01*
X70207822Y-111914980D01*
X70133743Y-111776390D01*
X70116573Y-111719789D01*
X70082234Y-111606588D01*
X70064842Y-111430000D01*
X70082234Y-111253412D01*
X70133743Y-111083611D01*
X70133743Y-111083610D01*
X70217388Y-110927123D01*
X70217389Y-110927121D01*
X70246712Y-110891391D01*
X70329956Y-110789956D01*
X70431391Y-110706712D01*
X70467121Y-110677389D01*
X70520446Y-110648886D01*
X70623610Y-110593743D01*
X70694740Y-110572166D01*
X70793412Y-110542234D01*
X70881638Y-110533545D01*
X70925750Y-110529200D01*
X71614250Y-110529200D01*
X71658362Y-110533545D01*
X71658362Y-110533545D01*
G37*
G36*
X129118362Y-110533545D02*
X129206588Y-110542234D01*
X129305260Y-110572166D01*
X129376390Y-110593743D01*
X129479554Y-110648886D01*
X129532879Y-110677389D01*
X129568609Y-110706712D01*
X129670044Y-110789956D01*
X129753288Y-110891391D01*
X129782611Y-110927121D01*
X129782612Y-110927123D01*
X129866257Y-111083610D01*
X129866257Y-111083611D01*
X129917766Y-111253412D01*
X129935158Y-111430000D01*
X129917766Y-111606588D01*
X129883427Y-111719789D01*
X129866257Y-111776390D01*
X129792178Y-111914980D01*
X129782611Y-111932879D01*
X129753288Y-111968609D01*
X129670044Y-112070044D01*
X129568609Y-112153288D01*
X129532879Y-112182611D01*
X129532877Y-112182612D01*
X129376390Y-112266257D01*
X129328448Y-112280800D01*
X129206588Y-112317766D01*
X129118362Y-112326455D01*
X129074250Y-112330800D01*
X128385750Y-112330800D01*
X128341638Y-112326455D01*
X128253412Y-112317766D01*
X128131552Y-112280800D01*
X128083610Y-112266257D01*
X127927123Y-112182612D01*
X127927121Y-112182611D01*
X127891391Y-112153288D01*
X127789956Y-112070044D01*
X127706712Y-111968609D01*
X127677389Y-111932879D01*
X127667822Y-111914980D01*
X127593743Y-111776390D01*
X127576573Y-111719789D01*
X127542234Y-111606588D01*
X127524842Y-111430000D01*
X127542234Y-111253412D01*
X127593743Y-111083611D01*
X127593743Y-111083610D01*
X127677388Y-110927123D01*
X127677389Y-110927121D01*
X127706712Y-110891391D01*
X127789956Y-110789956D01*
X127891391Y-110706712D01*
X127927121Y-110677389D01*
X127980446Y-110648886D01*
X128083610Y-110593743D01*
X128154740Y-110572166D01*
X128253412Y-110542234D01*
X128341638Y-110533545D01*
X128385750Y-110529200D01*
X129074250Y-110529200D01*
X129118362Y-110533545D01*
X129118362Y-110533545D01*
G37*
G36*
X103150800Y-112280800D02*
X100749200Y-112280800D01*
X100749200Y-111579200D01*
X103150800Y-111579200D01*
X103150800Y-112280800D01*
X103150800Y-112280800D01*
G37*
G36*
X93450800Y-112280800D02*
X91049200Y-112280800D01*
X91049200Y-111579200D01*
X93450800Y-111579200D01*
X93450800Y-112280800D01*
X93450800Y-112280800D01*
G37*
G36*
X116450800Y-112000800D02*
X114849200Y-112000800D01*
X114849200Y-111099200D01*
X116450800Y-111099200D01*
X116450800Y-112000800D01*
X116450800Y-112000800D01*
G37*
G36*
X113089720Y-110456256D02*
X113160662Y-110470367D01*
X113260902Y-110511887D01*
X113350706Y-110571893D01*
X113351117Y-110572168D01*
X113427832Y-110648883D01*
X113427834Y-110648886D01*
X113488113Y-110739098D01*
X113529633Y-110839338D01*
X113529633Y-110839340D01*
X113550800Y-110945750D01*
X113550800Y-111054250D01*
X113543744Y-111089720D01*
X113529633Y-111160662D01*
X113488113Y-111260902D01*
X113428107Y-111350706D01*
X113427832Y-111351117D01*
X113351117Y-111427832D01*
X113351114Y-111427834D01*
X113260902Y-111488113D01*
X113160662Y-111529633D01*
X113089720Y-111543744D01*
X113054250Y-111550800D01*
X112945750Y-111550800D01*
X112910280Y-111543744D01*
X112839338Y-111529633D01*
X112739098Y-111488113D01*
X112648886Y-111427834D01*
X112648883Y-111427832D01*
X112572168Y-111351117D01*
X112571893Y-111350706D01*
X112511887Y-111260902D01*
X112470367Y-111160662D01*
X112456256Y-111089720D01*
X112449200Y-111054250D01*
X112449200Y-110945750D01*
X112470367Y-110839340D01*
X112470367Y-110839338D01*
X112511887Y-110739098D01*
X112572166Y-110648886D01*
X112572168Y-110648883D01*
X112648883Y-110572168D01*
X112649294Y-110571893D01*
X112739098Y-110511887D01*
X112839338Y-110470367D01*
X112910280Y-110456256D01*
X112945750Y-110449200D01*
X113054250Y-110449200D01*
X113089720Y-110456256D01*
X113089720Y-110456256D01*
G37*
G36*
X103150800Y-111010800D02*
X100749200Y-111010800D01*
X100749200Y-110309200D01*
X103150800Y-110309200D01*
X103150800Y-111010800D01*
X103150800Y-111010800D01*
G37*
G36*
X93450800Y-111010800D02*
X91049200Y-111010800D01*
X91049200Y-110309200D01*
X93450800Y-110309200D01*
X93450800Y-111010800D01*
X93450800Y-111010800D01*
G37*
G36*
X84950800Y-110625800D02*
X83349200Y-110625800D01*
X83349200Y-109274200D01*
X84950800Y-109274200D01*
X84950800Y-110625800D01*
X84950800Y-110625800D01*
G37*
G36*
X82450800Y-110625800D02*
X80849200Y-110625800D01*
X80849200Y-109274200D01*
X82450800Y-109274200D01*
X82450800Y-110625800D01*
X82450800Y-110625800D01*
G37*
G36*
X129118362Y-107993545D02*
X129206588Y-108002234D01*
X129319789Y-108036573D01*
X129376390Y-108053743D01*
X129514980Y-108127822D01*
X129532879Y-108137389D01*
X129568609Y-108166712D01*
X129670044Y-108249956D01*
X129730973Y-108324200D01*
X129782611Y-108387121D01*
X129782612Y-108387123D01*
X129866257Y-108543610D01*
X129866257Y-108543611D01*
X129917766Y-108713412D01*
X129935158Y-108890000D01*
X129917766Y-109066588D01*
X129883427Y-109179789D01*
X129866257Y-109236390D01*
X129846047Y-109274200D01*
X129782611Y-109392879D01*
X129753288Y-109428609D01*
X129670044Y-109530044D01*
X129568609Y-109613288D01*
X129532879Y-109642611D01*
X129532877Y-109642612D01*
X129376390Y-109726257D01*
X129328448Y-109740800D01*
X129206588Y-109777766D01*
X129118362Y-109786455D01*
X129074250Y-109790800D01*
X128385750Y-109790800D01*
X128341638Y-109786455D01*
X128253412Y-109777766D01*
X128131552Y-109740800D01*
X128083610Y-109726257D01*
X127927123Y-109642612D01*
X127927121Y-109642611D01*
X127891391Y-109613288D01*
X127789956Y-109530044D01*
X127706712Y-109428609D01*
X127677389Y-109392879D01*
X127613953Y-109274200D01*
X127593743Y-109236390D01*
X127576573Y-109179789D01*
X127542234Y-109066588D01*
X127524842Y-108890000D01*
X127542234Y-108713412D01*
X127593743Y-108543611D01*
X127593743Y-108543610D01*
X127677388Y-108387123D01*
X127677389Y-108387121D01*
X127729027Y-108324200D01*
X127789956Y-108249956D01*
X127891391Y-108166712D01*
X127927121Y-108137389D01*
X127945020Y-108127822D01*
X128083610Y-108053743D01*
X128140211Y-108036573D01*
X128253412Y-108002234D01*
X128341638Y-107993545D01*
X128385750Y-107989200D01*
X129074250Y-107989200D01*
X129118362Y-107993545D01*
X129118362Y-107993545D01*
G37*
G36*
X71658362Y-107993545D02*
X71746588Y-108002234D01*
X71859789Y-108036573D01*
X71916390Y-108053743D01*
X72054980Y-108127822D01*
X72072879Y-108137389D01*
X72108609Y-108166712D01*
X72210044Y-108249956D01*
X72270973Y-108324200D01*
X72322611Y-108387121D01*
X72322612Y-108387123D01*
X72406257Y-108543610D01*
X72406257Y-108543611D01*
X72457766Y-108713412D01*
X72475158Y-108890000D01*
X72457766Y-109066588D01*
X72423427Y-109179789D01*
X72406257Y-109236390D01*
X72386047Y-109274200D01*
X72322611Y-109392879D01*
X72293288Y-109428609D01*
X72210044Y-109530044D01*
X72108609Y-109613288D01*
X72072879Y-109642611D01*
X72072877Y-109642612D01*
X71916390Y-109726257D01*
X71868448Y-109740800D01*
X71746588Y-109777766D01*
X71658362Y-109786455D01*
X71614250Y-109790800D01*
X70925750Y-109790800D01*
X70881638Y-109786455D01*
X70793412Y-109777766D01*
X70671552Y-109740800D01*
X70623610Y-109726257D01*
X70467123Y-109642612D01*
X70467121Y-109642611D01*
X70431391Y-109613288D01*
X70329956Y-109530044D01*
X70246712Y-109428609D01*
X70217389Y-109392879D01*
X70153953Y-109274200D01*
X70133743Y-109236390D01*
X70116573Y-109179789D01*
X70082234Y-109066588D01*
X70064842Y-108890000D01*
X70082234Y-108713412D01*
X70133743Y-108543611D01*
X70133743Y-108543610D01*
X70217388Y-108387123D01*
X70217389Y-108387121D01*
X70269027Y-108324200D01*
X70329956Y-108249956D01*
X70431391Y-108166712D01*
X70467121Y-108137389D01*
X70485020Y-108127822D01*
X70623610Y-108053743D01*
X70680211Y-108036573D01*
X70793412Y-108002234D01*
X70881638Y-107993545D01*
X70925750Y-107989200D01*
X71614250Y-107989200D01*
X71658362Y-107993545D01*
X71658362Y-107993545D01*
G37*
G36*
X103150800Y-109740800D02*
X100749200Y-109740800D01*
X100749200Y-109039200D01*
X103150800Y-109039200D01*
X103150800Y-109740800D01*
X103150800Y-109740800D01*
G37*
G36*
X93450800Y-109740800D02*
X91049200Y-109740800D01*
X91049200Y-109039200D01*
X93450800Y-109039200D01*
X93450800Y-109740800D01*
X93450800Y-109740800D01*
G37*
G36*
X116550800Y-109675800D02*
X114949200Y-109675800D01*
X114949200Y-108324200D01*
X116550800Y-108324200D01*
X116550800Y-109675800D01*
X116550800Y-109675800D01*
G37*
G36*
X119050800Y-109675800D02*
X117449200Y-109675800D01*
X117449200Y-108324200D01*
X119050800Y-108324200D01*
X119050800Y-109675800D01*
X119050800Y-109675800D01*
G37*
G36*
X103150800Y-108470800D02*
X100749200Y-108470800D01*
X100749200Y-107769200D01*
X103150800Y-107769200D01*
X103150800Y-108470800D01*
X103150800Y-108470800D01*
G37*
G36*
X93450800Y-108470800D02*
X91049200Y-108470800D01*
X91049200Y-107769200D01*
X93450800Y-107769200D01*
X93450800Y-108470800D01*
X93450800Y-108470800D01*
G37*
G36*
X79366588Y-105162234D02*
X79479789Y-105196573D01*
X79536390Y-105213743D01*
X79674980Y-105287822D01*
X79692879Y-105297389D01*
X79728609Y-105326712D01*
X79830044Y-105409956D01*
X79913288Y-105511391D01*
X79942611Y-105547121D01*
X80026257Y-105703611D01*
X80077766Y-105873412D01*
X80090800Y-106005751D01*
X80090800Y-106694249D01*
X80077766Y-106826588D01*
X80043427Y-106939789D01*
X80026257Y-106996390D01*
X79952178Y-107134980D01*
X79942611Y-107152879D01*
X79915218Y-107186257D01*
X79830044Y-107290044D01*
X79692877Y-107402612D01*
X79536389Y-107486257D01*
X79479788Y-107503427D01*
X79366587Y-107537766D01*
X79190000Y-107555158D01*
X79013412Y-107537766D01*
X78900211Y-107503427D01*
X78843610Y-107486257D01*
X78687123Y-107402612D01*
X78687121Y-107402611D01*
X78651391Y-107373288D01*
X78549956Y-107290044D01*
X78437388Y-107152877D01*
X78353743Y-106996389D01*
X78310210Y-106852879D01*
X78302234Y-106826587D01*
X78289200Y-106694248D01*
X78289200Y-106005751D01*
X78302234Y-105873412D01*
X78353743Y-105703611D01*
X78437390Y-105547121D01*
X78466713Y-105511391D01*
X78549957Y-105409956D01*
X78651392Y-105326712D01*
X78687122Y-105297389D01*
X78705021Y-105287822D01*
X78843611Y-105213743D01*
X78900212Y-105196573D01*
X79013413Y-105162234D01*
X79190000Y-105144842D01*
X79366588Y-105162234D01*
X79366588Y-105162234D01*
G37*
G36*
X77550800Y-107550800D02*
X75749200Y-107550800D01*
X75749200Y-105149200D01*
X77550800Y-105149200D01*
X77550800Y-107550800D01*
X77550800Y-107550800D01*
G37*
G36*
X129118362Y-105453545D02*
X129206588Y-105462234D01*
X129319789Y-105496573D01*
X129376390Y-105513743D01*
X129485690Y-105572166D01*
X129532879Y-105597389D01*
X129568609Y-105626712D01*
X129670044Y-105709956D01*
X129753288Y-105811391D01*
X129782611Y-105847121D01*
X129782612Y-105847123D01*
X129866257Y-106003610D01*
X129866257Y-106003611D01*
X129917766Y-106173412D01*
X129935158Y-106350000D01*
X129917766Y-106526588D01*
X129916842Y-106529633D01*
X129866257Y-106696390D01*
X129796665Y-106826586D01*
X129782611Y-106852879D01*
X129753288Y-106888609D01*
X129670044Y-106990044D01*
X129568609Y-107073288D01*
X129532879Y-107102611D01*
X129532877Y-107102612D01*
X129376390Y-107186257D01*
X129319789Y-107203427D01*
X129206588Y-107237766D01*
X129118362Y-107246455D01*
X129074250Y-107250800D01*
X128385750Y-107250800D01*
X128341638Y-107246455D01*
X128253412Y-107237766D01*
X128140211Y-107203427D01*
X128083610Y-107186257D01*
X127927123Y-107102612D01*
X127927121Y-107102611D01*
X127891391Y-107073288D01*
X127789956Y-106990044D01*
X127706712Y-106888609D01*
X127677389Y-106852879D01*
X127663335Y-106826586D01*
X127593743Y-106696390D01*
X127543158Y-106529633D01*
X127542234Y-106526588D01*
X127524842Y-106350000D01*
X127542234Y-106173412D01*
X127593743Y-106003611D01*
X127593743Y-106003610D01*
X127677388Y-105847123D01*
X127677389Y-105847121D01*
X127706712Y-105811391D01*
X127789956Y-105709956D01*
X127891391Y-105626712D01*
X127927121Y-105597389D01*
X127974310Y-105572166D01*
X128083610Y-105513743D01*
X128140211Y-105496573D01*
X128253412Y-105462234D01*
X128341638Y-105453545D01*
X128385750Y-105449200D01*
X129074250Y-105449200D01*
X129118362Y-105453545D01*
X129118362Y-105453545D01*
G37*
G36*
X71658362Y-105453545D02*
X71746588Y-105462234D01*
X71859789Y-105496573D01*
X71916390Y-105513743D01*
X72025690Y-105572166D01*
X72072879Y-105597389D01*
X72108609Y-105626712D01*
X72210044Y-105709956D01*
X72293288Y-105811391D01*
X72322611Y-105847121D01*
X72322612Y-105847123D01*
X72406257Y-106003610D01*
X72406257Y-106003611D01*
X72457766Y-106173412D01*
X72475158Y-106350000D01*
X72457766Y-106526588D01*
X72456842Y-106529633D01*
X72406257Y-106696390D01*
X72336665Y-106826586D01*
X72322611Y-106852879D01*
X72293288Y-106888609D01*
X72210044Y-106990044D01*
X72108609Y-107073288D01*
X72072879Y-107102611D01*
X72072877Y-107102612D01*
X71916390Y-107186257D01*
X71859789Y-107203427D01*
X71746588Y-107237766D01*
X71658362Y-107246455D01*
X71614250Y-107250800D01*
X70925750Y-107250800D01*
X70881638Y-107246455D01*
X70793412Y-107237766D01*
X70680211Y-107203427D01*
X70623610Y-107186257D01*
X70467123Y-107102612D01*
X70467121Y-107102611D01*
X70431391Y-107073288D01*
X70329956Y-106990044D01*
X70246712Y-106888609D01*
X70217389Y-106852879D01*
X70203335Y-106826586D01*
X70133743Y-106696390D01*
X70083158Y-106529633D01*
X70082234Y-106526588D01*
X70064842Y-106350000D01*
X70082234Y-106173412D01*
X70133743Y-106003611D01*
X70133743Y-106003610D01*
X70217388Y-105847123D01*
X70217389Y-105847121D01*
X70246712Y-105811391D01*
X70329956Y-105709956D01*
X70431391Y-105626712D01*
X70467121Y-105597389D01*
X70514310Y-105572166D01*
X70623610Y-105513743D01*
X70680211Y-105496573D01*
X70793412Y-105462234D01*
X70881638Y-105453545D01*
X70925750Y-105449200D01*
X71614250Y-105449200D01*
X71658362Y-105453545D01*
X71658362Y-105453545D01*
G37*
G36*
X121089720Y-105456256D02*
X121160662Y-105470367D01*
X121260902Y-105511887D01*
X121313632Y-105547121D01*
X121351117Y-105572168D01*
X121427832Y-105648883D01*
X121427834Y-105648886D01*
X121488113Y-105739098D01*
X121529633Y-105839338D01*
X121550800Y-105945751D01*
X121550800Y-106054249D01*
X121529633Y-106160662D01*
X121488113Y-106260902D01*
X121428578Y-106350000D01*
X121427832Y-106351117D01*
X121351117Y-106427832D01*
X121351114Y-106427834D01*
X121260902Y-106488113D01*
X121160662Y-106529633D01*
X121089720Y-106543744D01*
X121054250Y-106550800D01*
X120945750Y-106550800D01*
X120910280Y-106543744D01*
X120839338Y-106529633D01*
X120739098Y-106488113D01*
X120648886Y-106427834D01*
X120648883Y-106427832D01*
X120572168Y-106351117D01*
X120571422Y-106350000D01*
X120511887Y-106260902D01*
X120470367Y-106160662D01*
X120449200Y-106054249D01*
X120449200Y-105945751D01*
X120470367Y-105839338D01*
X120511887Y-105739098D01*
X120572166Y-105648886D01*
X120572168Y-105648883D01*
X120648883Y-105572168D01*
X120686368Y-105547121D01*
X120739098Y-105511887D01*
X120839338Y-105470367D01*
X120910280Y-105456256D01*
X120945750Y-105449200D01*
X121054250Y-105449200D01*
X121089720Y-105456256D01*
X121089720Y-105456256D01*
G37*
G36*
X109097300Y-105349800D02*
X107852700Y-105349800D01*
X107852700Y-104740200D01*
X109097300Y-104740200D01*
X109097300Y-105349800D01*
X109097300Y-105349800D01*
G37*
G36*
X102747300Y-105349800D02*
X101502700Y-105349800D01*
X101502700Y-104740200D01*
X102747300Y-104740200D01*
X102747300Y-105349800D01*
X102747300Y-105349800D01*
G37*
G36*
X82118362Y-102923545D02*
X82206588Y-102932234D01*
X82288790Y-102957170D01*
X82376390Y-102983743D01*
X82514980Y-103057822D01*
X82532879Y-103067389D01*
X82559580Y-103089302D01*
X82670044Y-103179956D01*
X82753288Y-103281391D01*
X82782611Y-103317121D01*
X82782612Y-103317123D01*
X82866257Y-103473610D01*
X82866257Y-103473611D01*
X82917766Y-103643412D01*
X82935158Y-103820000D01*
X82917766Y-103996588D01*
X82901321Y-104050800D01*
X82866257Y-104166390D01*
X82792178Y-104304980D01*
X82782611Y-104322879D01*
X82753288Y-104358609D01*
X82670044Y-104460044D01*
X82568609Y-104543288D01*
X82532879Y-104572611D01*
X82532877Y-104572612D01*
X82376390Y-104656257D01*
X82319789Y-104673427D01*
X82206588Y-104707766D01*
X82118362Y-104716455D01*
X82074250Y-104720800D01*
X81385750Y-104720800D01*
X81341638Y-104716455D01*
X81253412Y-104707766D01*
X81140211Y-104673427D01*
X81083610Y-104656257D01*
X80927123Y-104572612D01*
X80927121Y-104572611D01*
X80891391Y-104543288D01*
X80789956Y-104460044D01*
X80706712Y-104358609D01*
X80677389Y-104322879D01*
X80667822Y-104304980D01*
X80593743Y-104166390D01*
X80558679Y-104050800D01*
X80542234Y-103996588D01*
X80524842Y-103820000D01*
X80542234Y-103643412D01*
X80593743Y-103473611D01*
X80593743Y-103473610D01*
X80677388Y-103317123D01*
X80677389Y-103317121D01*
X80706712Y-103281391D01*
X80789956Y-103179956D01*
X80900420Y-103089302D01*
X80927121Y-103067389D01*
X80945020Y-103057822D01*
X81083610Y-102983743D01*
X81171210Y-102957170D01*
X81253412Y-102932234D01*
X81341638Y-102923545D01*
X81385750Y-102919200D01*
X82074250Y-102919200D01*
X82118362Y-102923545D01*
X82118362Y-102923545D01*
G37*
G36*
X102747300Y-104079800D02*
X101502700Y-104079800D01*
X101502700Y-103470200D01*
X102747300Y-103470200D01*
X102747300Y-104079800D01*
X102747300Y-104079800D01*
G37*
G36*
X109097300Y-104079800D02*
X107852700Y-104079800D01*
X107852700Y-103470200D01*
X109097300Y-103470200D01*
X109097300Y-104079800D01*
X109097300Y-104079800D01*
G37*
G36*
X127521416Y-102956031D02*
X127532977Y-102957170D01*
X127584889Y-102972917D01*
X127636802Y-102988665D01*
X127691738Y-103018029D01*
X127732486Y-103039809D01*
X127732487Y-103039810D01*
X127732489Y-103039811D01*
X127816359Y-103108641D01*
X127885189Y-103192511D01*
X127936335Y-103288198D01*
X127967830Y-103392024D01*
X127978465Y-103500000D01*
X127967830Y-103607976D01*
X127936335Y-103711802D01*
X127885189Y-103807489D01*
X127816359Y-103891359D01*
X127732489Y-103960189D01*
X127732487Y-103960190D01*
X127732486Y-103960191D01*
X127691738Y-103981971D01*
X127636802Y-104011335D01*
X127584889Y-104027083D01*
X127532977Y-104042830D01*
X127521416Y-104043969D01*
X127452057Y-104050800D01*
X126847943Y-104050800D01*
X126778584Y-104043969D01*
X126767023Y-104042830D01*
X126715111Y-104027083D01*
X126663198Y-104011335D01*
X126608262Y-103981971D01*
X126567514Y-103960191D01*
X126567513Y-103960190D01*
X126567511Y-103960189D01*
X126483641Y-103891359D01*
X126414811Y-103807489D01*
X126363665Y-103711802D01*
X126332170Y-103607976D01*
X126321535Y-103500000D01*
X126332170Y-103392024D01*
X126363665Y-103288198D01*
X126414811Y-103192511D01*
X126483641Y-103108641D01*
X126567511Y-103039811D01*
X126567513Y-103039810D01*
X126567514Y-103039809D01*
X126608262Y-103018029D01*
X126663198Y-102988665D01*
X126715111Y-102972917D01*
X126767023Y-102957170D01*
X126778584Y-102956031D01*
X126847943Y-102949200D01*
X127452057Y-102949200D01*
X127521416Y-102956031D01*
X127521416Y-102956031D01*
G37*
G36*
X124543834Y-101830898D02*
X124553076Y-101831808D01*
X124652188Y-101861874D01*
X124743532Y-101910698D01*
X124823596Y-101976404D01*
X124869723Y-102032611D01*
X124889302Y-102056468D01*
X124938126Y-102147812D01*
X124968192Y-102246925D01*
X124968192Y-102246926D01*
X124975800Y-102324171D01*
X124975800Y-102675830D01*
X124969143Y-102743419D01*
X124968192Y-102753076D01*
X124938126Y-102852187D01*
X124938126Y-102852188D01*
X124889302Y-102943532D01*
X124823596Y-103023596D01*
X124743532Y-103089302D01*
X124652187Y-103138126D01*
X124553075Y-103168192D01*
X124543833Y-103169102D01*
X124450000Y-103178344D01*
X124356166Y-103169102D01*
X124346924Y-103168192D01*
X124247812Y-103138126D01*
X124156468Y-103089302D01*
X124129767Y-103067389D01*
X124076404Y-103023596D01*
X124010698Y-102943532D01*
X123961874Y-102852187D01*
X123949016Y-102809800D01*
X123931808Y-102753075D01*
X123930857Y-102743418D01*
X123924200Y-102675829D01*
X123924200Y-102324170D01*
X123931808Y-102246925D01*
X123931808Y-102246924D01*
X123961874Y-102147812D01*
X124010696Y-102056472D01*
X124010699Y-102056468D01*
X124076405Y-101976404D01*
X124156469Y-101910698D01*
X124247813Y-101861874D01*
X124346925Y-101831808D01*
X124356167Y-101830898D01*
X124450000Y-101821656D01*
X124543834Y-101830898D01*
X124543834Y-101830898D01*
G37*
G36*
X102747300Y-102809800D02*
X101502700Y-102809800D01*
X101502700Y-102200200D01*
X102747300Y-102200200D01*
X102747300Y-102809800D01*
X102747300Y-102809800D01*
G37*
G36*
X109097300Y-102809800D02*
X107852700Y-102809800D01*
X107852700Y-102200200D01*
X109097300Y-102200200D01*
X109097300Y-102809800D01*
X109097300Y-102809800D01*
G37*
G36*
X118650800Y-102700800D02*
X117049200Y-102700800D01*
X117049200Y-101299200D01*
X118650800Y-101299200D01*
X118650800Y-102700800D01*
X118650800Y-102700800D01*
G37*
G36*
X115950800Y-102700800D02*
X114349200Y-102700800D01*
X114349200Y-101299200D01*
X115950800Y-101299200D01*
X115950800Y-102700800D01*
X115950800Y-102700800D01*
G37*
G36*
X82118362Y-100383545D02*
X82206588Y-100392234D01*
X82319789Y-100426573D01*
X82376390Y-100443743D01*
X82426199Y-100470367D01*
X82532879Y-100527389D01*
X82568609Y-100556712D01*
X82670044Y-100639956D01*
X82751406Y-100739098D01*
X82782611Y-100777121D01*
X82782612Y-100777123D01*
X82866257Y-100933610D01*
X82869940Y-100945751D01*
X82917766Y-101103412D01*
X82935158Y-101280000D01*
X82917766Y-101456588D01*
X82895608Y-101529633D01*
X82866257Y-101626390D01*
X82863496Y-101631555D01*
X82782611Y-101782879D01*
X82753288Y-101818609D01*
X82670044Y-101920044D01*
X82568609Y-102003288D01*
X82532879Y-102032611D01*
X82532877Y-102032612D01*
X82376390Y-102116257D01*
X82319789Y-102133427D01*
X82206588Y-102167766D01*
X82118362Y-102176455D01*
X82074250Y-102180800D01*
X81385750Y-102180800D01*
X81341638Y-102176455D01*
X81253412Y-102167766D01*
X81140211Y-102133427D01*
X81083610Y-102116257D01*
X80927123Y-102032612D01*
X80927121Y-102032611D01*
X80891391Y-102003288D01*
X80789956Y-101920044D01*
X80706712Y-101818609D01*
X80677389Y-101782879D01*
X80596504Y-101631555D01*
X80593743Y-101626390D01*
X80564392Y-101529633D01*
X80542234Y-101456588D01*
X80524842Y-101280000D01*
X80542234Y-101103412D01*
X80590060Y-100945751D01*
X80593743Y-100933610D01*
X80677388Y-100777123D01*
X80677389Y-100777121D01*
X80708594Y-100739098D01*
X80789956Y-100639956D01*
X80891391Y-100556712D01*
X80927121Y-100527389D01*
X81033801Y-100470367D01*
X81083610Y-100443743D01*
X81140211Y-100426573D01*
X81253412Y-100392234D01*
X81341638Y-100383545D01*
X81385750Y-100379200D01*
X82074250Y-100379200D01*
X82118362Y-100383545D01*
X82118362Y-100383545D01*
G37*
G36*
X72646077Y-100668445D02*
X72737216Y-100706196D01*
X72737218Y-100706197D01*
X72786458Y-100739098D01*
X72819244Y-100761005D01*
X72888995Y-100830756D01*
X72943804Y-100912784D01*
X72981555Y-101003923D01*
X73000800Y-101100674D01*
X73000800Y-101199326D01*
X72981555Y-101296077D01*
X72943804Y-101387216D01*
X72943803Y-101387218D01*
X72916664Y-101427834D01*
X72888995Y-101469244D01*
X72819244Y-101538995D01*
X72819241Y-101538997D01*
X72737218Y-101593803D01*
X72737217Y-101593804D01*
X72737216Y-101593804D01*
X72646077Y-101631555D01*
X72549326Y-101650800D01*
X72450674Y-101650800D01*
X72353923Y-101631555D01*
X72262784Y-101593804D01*
X72262783Y-101593804D01*
X72262782Y-101593803D01*
X72180759Y-101538997D01*
X72180756Y-101538995D01*
X72111005Y-101469244D01*
X72083336Y-101427834D01*
X72056197Y-101387218D01*
X72056196Y-101387216D01*
X72018445Y-101296077D01*
X71999200Y-101199326D01*
X71999200Y-101100674D01*
X72018445Y-101003923D01*
X72056196Y-100912784D01*
X72111005Y-100830756D01*
X72180756Y-100761005D01*
X72213542Y-100739098D01*
X72262782Y-100706197D01*
X72262784Y-100706196D01*
X72353923Y-100668445D01*
X72450674Y-100649200D01*
X72549326Y-100649200D01*
X72646077Y-100668445D01*
X72646077Y-100668445D01*
G37*
G36*
X125175800Y-101550800D02*
X123724200Y-101550800D01*
X123724200Y-98449200D01*
X125175800Y-98449200D01*
X125175800Y-101550800D01*
X125175800Y-101550800D01*
G37*
G36*
X121089720Y-100456256D02*
X121160662Y-100470367D01*
X121260902Y-100511887D01*
X121350706Y-100571893D01*
X121351117Y-100572168D01*
X121427832Y-100648883D01*
X121427834Y-100648886D01*
X121488113Y-100739098D01*
X121529633Y-100839338D01*
X121550800Y-100945751D01*
X121550800Y-101054249D01*
X121529633Y-101160662D01*
X121488113Y-101260902D01*
X121428107Y-101350706D01*
X121427832Y-101351117D01*
X121351117Y-101427832D01*
X121351114Y-101427834D01*
X121260902Y-101488113D01*
X121160662Y-101529633D01*
X121113596Y-101538995D01*
X121054250Y-101550800D01*
X120945750Y-101550800D01*
X120886404Y-101538995D01*
X120839338Y-101529633D01*
X120739098Y-101488113D01*
X120648886Y-101427834D01*
X120648883Y-101427832D01*
X120572168Y-101351117D01*
X120571893Y-101350706D01*
X120511887Y-101260902D01*
X120470367Y-101160662D01*
X120449200Y-101054249D01*
X120449200Y-100945751D01*
X120470367Y-100839338D01*
X120511887Y-100739098D01*
X120572166Y-100648886D01*
X120572168Y-100648883D01*
X120648883Y-100572168D01*
X120649294Y-100571893D01*
X120739098Y-100511887D01*
X120839338Y-100470367D01*
X120910280Y-100456256D01*
X120945750Y-100449200D01*
X121054250Y-100449200D01*
X121089720Y-100456256D01*
X121089720Y-100456256D01*
G37*
G36*
X109097300Y-101539800D02*
X107852700Y-101539800D01*
X107852700Y-100930200D01*
X109097300Y-100930200D01*
X109097300Y-101539800D01*
X109097300Y-101539800D01*
G37*
G36*
X102747300Y-101539800D02*
X101502700Y-101539800D01*
X101502700Y-100930200D01*
X102747300Y-100930200D01*
X102747300Y-101539800D01*
X102747300Y-101539800D01*
G37*
G36*
X109097300Y-100269800D02*
X107852700Y-100269800D01*
X107852700Y-99660200D01*
X109097300Y-99660200D01*
X109097300Y-100269800D01*
X109097300Y-100269800D01*
G37*
G36*
X102747300Y-100269800D02*
X101502700Y-100269800D01*
X101502700Y-99660200D01*
X102747300Y-99660200D01*
X102747300Y-100269800D01*
X102747300Y-100269800D01*
G37*
G36*
X116050800Y-100175800D02*
X114449200Y-100175800D01*
X114449200Y-98824200D01*
X116050800Y-98824200D01*
X116050800Y-100175800D01*
X116050800Y-100175800D01*
G37*
G36*
X118550800Y-100175800D02*
X116949200Y-100175800D01*
X116949200Y-98824200D01*
X118550800Y-98824200D01*
X118550800Y-100175800D01*
X118550800Y-100175800D01*
G37*
G36*
X82118362Y-97843545D02*
X82206588Y-97852234D01*
X82319789Y-97886573D01*
X82376390Y-97903743D01*
X82450829Y-97943532D01*
X82532879Y-97987389D01*
X82568609Y-98016712D01*
X82670044Y-98099956D01*
X82734373Y-98178343D01*
X82782611Y-98237121D01*
X82782612Y-98237123D01*
X82866257Y-98393610D01*
X82866257Y-98393611D01*
X82917766Y-98563412D01*
X82935158Y-98740000D01*
X82917766Y-98916588D01*
X82893653Y-98996077D01*
X82866257Y-99086390D01*
X82821970Y-99169244D01*
X82782611Y-99242879D01*
X82753288Y-99278609D01*
X82670044Y-99380044D01*
X82568609Y-99463288D01*
X82532879Y-99492611D01*
X82532877Y-99492612D01*
X82376390Y-99576257D01*
X82319789Y-99593427D01*
X82206588Y-99627766D01*
X82118362Y-99636455D01*
X82074250Y-99640800D01*
X81385750Y-99640800D01*
X81341638Y-99636455D01*
X81253412Y-99627766D01*
X81140211Y-99593427D01*
X81083610Y-99576257D01*
X80927123Y-99492612D01*
X80927121Y-99492611D01*
X80891391Y-99463288D01*
X80789956Y-99380044D01*
X80706712Y-99278609D01*
X80677389Y-99242879D01*
X80638030Y-99169244D01*
X80593743Y-99086390D01*
X80566347Y-98996077D01*
X80542234Y-98916588D01*
X80524842Y-98740000D01*
X80542234Y-98563412D01*
X80593743Y-98393611D01*
X80593743Y-98393610D01*
X80677388Y-98237123D01*
X80677389Y-98237121D01*
X80725627Y-98178343D01*
X80789956Y-98099956D01*
X80891391Y-98016712D01*
X80927121Y-97987389D01*
X81009171Y-97943532D01*
X81083610Y-97903743D01*
X81140211Y-97886573D01*
X81253412Y-97852234D01*
X81341638Y-97843545D01*
X81385750Y-97839200D01*
X82074250Y-97839200D01*
X82118362Y-97843545D01*
X82118362Y-97843545D01*
G37*
G36*
X72646077Y-98368445D02*
X72737216Y-98406196D01*
X72737218Y-98406197D01*
X72818153Y-98460276D01*
X72819244Y-98461005D01*
X72888995Y-98530756D01*
X72943804Y-98612784D01*
X72981555Y-98703923D01*
X73000800Y-98800674D01*
X73000800Y-98899326D01*
X72981555Y-98996077D01*
X72943804Y-99087216D01*
X72888995Y-99169244D01*
X72819244Y-99238995D01*
X72819241Y-99238997D01*
X72737218Y-99293803D01*
X72737217Y-99293804D01*
X72737216Y-99293804D01*
X72646077Y-99331555D01*
X72549326Y-99350800D01*
X72450674Y-99350800D01*
X72353923Y-99331555D01*
X72262784Y-99293804D01*
X72262783Y-99293804D01*
X72262782Y-99293803D01*
X72180759Y-99238997D01*
X72180756Y-99238995D01*
X72111005Y-99169244D01*
X72056196Y-99087216D01*
X72018445Y-98996077D01*
X71999200Y-98899326D01*
X71999200Y-98800674D01*
X72018445Y-98703923D01*
X72056196Y-98612784D01*
X72111005Y-98530756D01*
X72180756Y-98461005D01*
X72181847Y-98460276D01*
X72262782Y-98406197D01*
X72262784Y-98406196D01*
X72353923Y-98368445D01*
X72450674Y-98349200D01*
X72549326Y-98349200D01*
X72646077Y-98368445D01*
X72646077Y-98368445D01*
G37*
G36*
X102747300Y-98999800D02*
X101502700Y-98999800D01*
X101502700Y-98390200D01*
X102747300Y-98390200D01*
X102747300Y-98999800D01*
X102747300Y-98999800D01*
G37*
G36*
X109097300Y-98999800D02*
X107852700Y-98999800D01*
X107852700Y-98390200D01*
X109097300Y-98390200D01*
X109097300Y-98999800D01*
X109097300Y-98999800D01*
G37*
G36*
X124543834Y-96830898D02*
X124553076Y-96831808D01*
X124652188Y-96861874D01*
X124743532Y-96910698D01*
X124823596Y-96976404D01*
X124884650Y-97050800D01*
X124889302Y-97056468D01*
X124938126Y-97147812D01*
X124968192Y-97246925D01*
X124968192Y-97246926D01*
X124975800Y-97324171D01*
X124975800Y-97675830D01*
X124968192Y-97753075D01*
X124938126Y-97852188D01*
X124889302Y-97943532D01*
X124823596Y-98023596D01*
X124743532Y-98089302D01*
X124652187Y-98138126D01*
X124553075Y-98168192D01*
X124543833Y-98169102D01*
X124450000Y-98178344D01*
X124356166Y-98169102D01*
X124346924Y-98168192D01*
X124247812Y-98138126D01*
X124156468Y-98089302D01*
X124076404Y-98023596D01*
X124010698Y-97943532D01*
X123961874Y-97852187D01*
X123957934Y-97839200D01*
X123931808Y-97753075D01*
X123929516Y-97729800D01*
X123924200Y-97675829D01*
X123924200Y-97324170D01*
X123931808Y-97246925D01*
X123931808Y-97246924D01*
X123961874Y-97147812D01*
X124010696Y-97056472D01*
X124010699Y-97056468D01*
X124076405Y-96976404D01*
X124156469Y-96910698D01*
X124247813Y-96861874D01*
X124346925Y-96831808D01*
X124356167Y-96830898D01*
X124450000Y-96821656D01*
X124543834Y-96830898D01*
X124543834Y-96830898D01*
G37*
G36*
X109097300Y-97729800D02*
X107852700Y-97729800D01*
X107852700Y-97120200D01*
X109097300Y-97120200D01*
X109097300Y-97729800D01*
X109097300Y-97729800D01*
G37*
G36*
X102747300Y-97729800D02*
X101502700Y-97729800D01*
X101502700Y-97120200D01*
X102747300Y-97120200D01*
X102747300Y-97729800D01*
X102747300Y-97729800D01*
G37*
G36*
X118550800Y-97675800D02*
X116949200Y-97675800D01*
X116949200Y-96324200D01*
X118550800Y-96324200D01*
X118550800Y-97675800D01*
X118550800Y-97675800D01*
G37*
G36*
X116050800Y-97675800D02*
X114449200Y-97675800D01*
X114449200Y-96324200D01*
X116050800Y-96324200D01*
X116050800Y-97675800D01*
X116050800Y-97675800D01*
G37*
G36*
X121089720Y-96456256D02*
X121160662Y-96470367D01*
X121260902Y-96511887D01*
X121350706Y-96571893D01*
X121351117Y-96572168D01*
X121427832Y-96648883D01*
X121427834Y-96648886D01*
X121488113Y-96739098D01*
X121529633Y-96839338D01*
X121550800Y-96945751D01*
X121550800Y-97054249D01*
X121529633Y-97160662D01*
X121488113Y-97260902D01*
X121445837Y-97324171D01*
X121427832Y-97351117D01*
X121351117Y-97427832D01*
X121351114Y-97427834D01*
X121260902Y-97488113D01*
X121160662Y-97529633D01*
X121089720Y-97543744D01*
X121054250Y-97550800D01*
X120945750Y-97550800D01*
X120910280Y-97543744D01*
X120839338Y-97529633D01*
X120739098Y-97488113D01*
X120648886Y-97427834D01*
X120648883Y-97427832D01*
X120572168Y-97351117D01*
X120554163Y-97324171D01*
X120511887Y-97260902D01*
X120470367Y-97160662D01*
X120449200Y-97054249D01*
X120449200Y-96945751D01*
X120470367Y-96839338D01*
X120511887Y-96739098D01*
X120572166Y-96648886D01*
X120572168Y-96648883D01*
X120648883Y-96572168D01*
X120649294Y-96571893D01*
X120739098Y-96511887D01*
X120839338Y-96470367D01*
X120910280Y-96456256D01*
X120945750Y-96449200D01*
X121054250Y-96449200D01*
X121089720Y-96456256D01*
X121089720Y-96456256D01*
G37*
G36*
X82930800Y-97100800D02*
X80529200Y-97100800D01*
X80529200Y-95299200D01*
X82930800Y-95299200D01*
X82930800Y-97100800D01*
X82930800Y-97100800D01*
G37*
G36*
X127521416Y-95956031D02*
X127532977Y-95957170D01*
X127584889Y-95972917D01*
X127636802Y-95988665D01*
X127691738Y-96018029D01*
X127732486Y-96039809D01*
X127732487Y-96039810D01*
X127732489Y-96039811D01*
X127816359Y-96108641D01*
X127885189Y-96192511D01*
X127936335Y-96288198D01*
X127967830Y-96392024D01*
X127978465Y-96500000D01*
X127967830Y-96607976D01*
X127936335Y-96711802D01*
X127885189Y-96807489D01*
X127816359Y-96891359D01*
X127732489Y-96960189D01*
X127732487Y-96960190D01*
X127732486Y-96960191D01*
X127702155Y-96976403D01*
X127636802Y-97011335D01*
X127584889Y-97027083D01*
X127532977Y-97042830D01*
X127521416Y-97043969D01*
X127452057Y-97050800D01*
X126847943Y-97050800D01*
X126778584Y-97043969D01*
X126767023Y-97042830D01*
X126715111Y-97027083D01*
X126663198Y-97011335D01*
X126597845Y-96976403D01*
X126567514Y-96960191D01*
X126567513Y-96960190D01*
X126567511Y-96960189D01*
X126483641Y-96891359D01*
X126414811Y-96807489D01*
X126363665Y-96711802D01*
X126332170Y-96607976D01*
X126321535Y-96500000D01*
X126332170Y-96392024D01*
X126363665Y-96288198D01*
X126414811Y-96192511D01*
X126483641Y-96108641D01*
X126567511Y-96039811D01*
X126567513Y-96039810D01*
X126567514Y-96039809D01*
X126608262Y-96018029D01*
X126663198Y-95988665D01*
X126715111Y-95972917D01*
X126767023Y-95957170D01*
X126778584Y-95956031D01*
X126847943Y-95949200D01*
X127452057Y-95949200D01*
X127521416Y-95956031D01*
X127521416Y-95956031D01*
G37*
G36*
X109097300Y-96459800D02*
X107852700Y-96459800D01*
X107852700Y-95850200D01*
X109097300Y-95850200D01*
X109097300Y-96459800D01*
X109097300Y-96459800D01*
G37*
G36*
X102747300Y-96459800D02*
X101502700Y-96459800D01*
X101502700Y-95850200D01*
X102747300Y-95850200D01*
X102747300Y-96459800D01*
X102747300Y-96459800D01*
G37*
G36*
X90933023Y-95330850D02*
X90330850Y-95933023D01*
X89410479Y-95012652D01*
X90012652Y-94410479D01*
X90933023Y-95330850D01*
X90933023Y-95330850D01*
G37*
G36*
X118650800Y-95200800D02*
X117049200Y-95200800D01*
X117049200Y-93799200D01*
X118650800Y-93799200D01*
X118650800Y-95200800D01*
X118650800Y-95200800D01*
G37*
G36*
X115950800Y-95200800D02*
X114349200Y-95200800D01*
X114349200Y-93799200D01*
X115950800Y-93799200D01*
X115950800Y-95200800D01*
X115950800Y-95200800D01*
G37*
G36*
X89589521Y-93987348D02*
X88987348Y-94589521D01*
X88066977Y-93669150D01*
X88669150Y-93066977D01*
X89589521Y-93987348D01*
X89589521Y-93987348D01*
G37*
G36*
X129118362Y-92753545D02*
X129206588Y-92762234D01*
X129319789Y-92796573D01*
X129376390Y-92813743D01*
X129514980Y-92887822D01*
X129532879Y-92897389D01*
X129568609Y-92926712D01*
X129670044Y-93009956D01*
X129753288Y-93111391D01*
X129782611Y-93147121D01*
X129782612Y-93147123D01*
X129866257Y-93303610D01*
X129866257Y-93303611D01*
X129917766Y-93473412D01*
X129935158Y-93650000D01*
X129917766Y-93826588D01*
X129887685Y-93925750D01*
X129866257Y-93996390D01*
X129846020Y-94034250D01*
X129782611Y-94152879D01*
X129753288Y-94188609D01*
X129670044Y-94290044D01*
X129568609Y-94373288D01*
X129532879Y-94402611D01*
X129532877Y-94402612D01*
X129376390Y-94486257D01*
X129319789Y-94503427D01*
X129206588Y-94537766D01*
X129118362Y-94546455D01*
X129074250Y-94550800D01*
X128385750Y-94550800D01*
X128341638Y-94546455D01*
X128253412Y-94537766D01*
X128140211Y-94503427D01*
X128083610Y-94486257D01*
X127927123Y-94402612D01*
X127927121Y-94402611D01*
X127891391Y-94373288D01*
X127789956Y-94290044D01*
X127706712Y-94188609D01*
X127677389Y-94152879D01*
X127613980Y-94034250D01*
X127593743Y-93996390D01*
X127572315Y-93925750D01*
X127542234Y-93826588D01*
X127524842Y-93650000D01*
X127542234Y-93473412D01*
X127593743Y-93303611D01*
X127593743Y-93303610D01*
X127677388Y-93147123D01*
X127677389Y-93147121D01*
X127706712Y-93111391D01*
X127789956Y-93009956D01*
X127891391Y-92926712D01*
X127927121Y-92897389D01*
X127945020Y-92887822D01*
X128083610Y-92813743D01*
X128140211Y-92796573D01*
X128253412Y-92762234D01*
X128341638Y-92753545D01*
X128385750Y-92749200D01*
X129074250Y-92749200D01*
X129118362Y-92753545D01*
X129118362Y-92753545D01*
G37*
G36*
X71658362Y-92753545D02*
X71746588Y-92762234D01*
X71859789Y-92796573D01*
X71916390Y-92813743D01*
X72054980Y-92887822D01*
X72072879Y-92897389D01*
X72108609Y-92926712D01*
X72210044Y-93009956D01*
X72293288Y-93111391D01*
X72322611Y-93147121D01*
X72322612Y-93147123D01*
X72406257Y-93303610D01*
X72406257Y-93303611D01*
X72457766Y-93473412D01*
X72475158Y-93650000D01*
X72457766Y-93826588D01*
X72427685Y-93925750D01*
X72406257Y-93996390D01*
X72386020Y-94034250D01*
X72322611Y-94152879D01*
X72293288Y-94188609D01*
X72210044Y-94290044D01*
X72108609Y-94373288D01*
X72072879Y-94402611D01*
X72072877Y-94402612D01*
X71916390Y-94486257D01*
X71859789Y-94503427D01*
X71746588Y-94537766D01*
X71658362Y-94546455D01*
X71614250Y-94550800D01*
X70925750Y-94550800D01*
X70881638Y-94546455D01*
X70793412Y-94537766D01*
X70680211Y-94503427D01*
X70623610Y-94486257D01*
X70467123Y-94402612D01*
X70467121Y-94402611D01*
X70431391Y-94373288D01*
X70329956Y-94290044D01*
X70246712Y-94188609D01*
X70217389Y-94152879D01*
X70153980Y-94034250D01*
X70133743Y-93996390D01*
X70112315Y-93925750D01*
X70082234Y-93826588D01*
X70064842Y-93650000D01*
X70082234Y-93473412D01*
X70133743Y-93303611D01*
X70133743Y-93303610D01*
X70217388Y-93147123D01*
X70217389Y-93147121D01*
X70246712Y-93111391D01*
X70329956Y-93009956D01*
X70431391Y-92926712D01*
X70467121Y-92897389D01*
X70485020Y-92887822D01*
X70623610Y-92813743D01*
X70680211Y-92796573D01*
X70793412Y-92762234D01*
X70881638Y-92753545D01*
X70925750Y-92749200D01*
X71614250Y-92749200D01*
X71658362Y-92753545D01*
X71658362Y-92753545D01*
G37*
G36*
X79464720Y-93436256D02*
X79535662Y-93450367D01*
X79635902Y-93491887D01*
X79725706Y-93551893D01*
X79726117Y-93552168D01*
X79802832Y-93628883D01*
X79802834Y-93628886D01*
X79863113Y-93719098D01*
X79904633Y-93819338D01*
X79925800Y-93925751D01*
X79925800Y-94034249D01*
X79904633Y-94140662D01*
X79863113Y-94240902D01*
X79803107Y-94330706D01*
X79802832Y-94331117D01*
X79726117Y-94407832D01*
X79726114Y-94407834D01*
X79635902Y-94468113D01*
X79535662Y-94509633D01*
X79464720Y-94523744D01*
X79429250Y-94530800D01*
X79320750Y-94530800D01*
X79285280Y-94523744D01*
X79214338Y-94509633D01*
X79114098Y-94468113D01*
X79023886Y-94407834D01*
X79023883Y-94407832D01*
X78947168Y-94331117D01*
X78946893Y-94330706D01*
X78886887Y-94240902D01*
X78845367Y-94140662D01*
X78824200Y-94034249D01*
X78824200Y-93925751D01*
X78845367Y-93819338D01*
X78886887Y-93719098D01*
X78947166Y-93628886D01*
X78947168Y-93628883D01*
X79023883Y-93552168D01*
X79024294Y-93551893D01*
X79114098Y-93491887D01*
X79214338Y-93450367D01*
X79285280Y-93436256D01*
X79320750Y-93429200D01*
X79429250Y-93429200D01*
X79464720Y-93436256D01*
X79464720Y-93436256D01*
G37*
G36*
X76924720Y-93436256D02*
X76995662Y-93450367D01*
X77095902Y-93491887D01*
X77185706Y-93551893D01*
X77186117Y-93552168D01*
X77262832Y-93628883D01*
X77262834Y-93628886D01*
X77323113Y-93719098D01*
X77364633Y-93819338D01*
X77385800Y-93925751D01*
X77385800Y-94034249D01*
X77364633Y-94140662D01*
X77323113Y-94240902D01*
X77263107Y-94330706D01*
X77262832Y-94331117D01*
X77186117Y-94407832D01*
X77186114Y-94407834D01*
X77095902Y-94468113D01*
X76995662Y-94509633D01*
X76924720Y-94523744D01*
X76889250Y-94530800D01*
X76780750Y-94530800D01*
X76745280Y-94523744D01*
X76674338Y-94509633D01*
X76574098Y-94468113D01*
X76483886Y-94407834D01*
X76483883Y-94407832D01*
X76407168Y-94331117D01*
X76406893Y-94330706D01*
X76346887Y-94240902D01*
X76305367Y-94140662D01*
X76284200Y-94034249D01*
X76284200Y-93925751D01*
X76305367Y-93819338D01*
X76346887Y-93719098D01*
X76407166Y-93628886D01*
X76407168Y-93628883D01*
X76483883Y-93552168D01*
X76484294Y-93551893D01*
X76574098Y-93491887D01*
X76674338Y-93450367D01*
X76745280Y-93436256D01*
X76780750Y-93429200D01*
X76889250Y-93429200D01*
X76924720Y-93436256D01*
X76924720Y-93436256D01*
G37*
G36*
X108897300Y-92899800D02*
X107652700Y-92899800D01*
X107652700Y-92290200D01*
X108897300Y-92290200D01*
X108897300Y-92899800D01*
X108897300Y-92899800D01*
G37*
G36*
X102547300Y-92899800D02*
X101302700Y-92899800D01*
X101302700Y-92290200D01*
X102547300Y-92290200D01*
X102547300Y-92899800D01*
X102547300Y-92899800D01*
G37*
G36*
X94334763Y-88697056D02*
X94069598Y-88962222D01*
X90462222Y-92569598D01*
X90197056Y-92834763D01*
X88993842Y-91631549D01*
X89330840Y-91294551D01*
X89330851Y-91294542D01*
X89684404Y-90940988D01*
X89966115Y-90659278D01*
X89966124Y-90659267D01*
X90391500Y-90233891D01*
X90391511Y-90233882D01*
X90745064Y-89880328D01*
X91452171Y-89173221D01*
X91733882Y-88891511D01*
X91733891Y-88891500D01*
X92159267Y-88466124D01*
X92159278Y-88466115D01*
X92512831Y-88112561D01*
X92794542Y-87830851D01*
X92794551Y-87830840D01*
X93131549Y-87493842D01*
X94334763Y-88697056D01*
X94334763Y-88697056D01*
G37*
G36*
X84205454Y-87830845D02*
X84205459Y-87830851D01*
X84840723Y-88466115D01*
X84840729Y-88466120D01*
X85266114Y-88891505D01*
X85266119Y-88891511D01*
X86608490Y-90233882D01*
X86608496Y-90233887D01*
X87033881Y-90659272D01*
X87033886Y-90659278D01*
X87669150Y-91294542D01*
X87669156Y-91294547D01*
X88006158Y-91631549D01*
X86802944Y-92834763D01*
X86537779Y-92569598D01*
X86537773Y-92569593D01*
X85758835Y-91790655D01*
X85758830Y-91790649D01*
X85477119Y-91508938D01*
X85477113Y-91508933D01*
X83991068Y-90022888D01*
X83991063Y-90022882D01*
X83709352Y-89741171D01*
X83709346Y-89741166D01*
X82930408Y-88962228D01*
X82930403Y-88962222D01*
X82665237Y-88697056D01*
X83868451Y-87493842D01*
X84205454Y-87830845D01*
X84205454Y-87830845D01*
G37*
G36*
X118650800Y-92700800D02*
X117049200Y-92700800D01*
X117049200Y-91299200D01*
X118650800Y-91299200D01*
X118650800Y-92700800D01*
X118650800Y-92700800D01*
G37*
G36*
X115950800Y-92700800D02*
X114349200Y-92700800D01*
X114349200Y-91299200D01*
X115950800Y-91299200D01*
X115950800Y-92700800D01*
X115950800Y-92700800D01*
G37*
G36*
X71658362Y-90213545D02*
X71746588Y-90222234D01*
X71859789Y-90256573D01*
X71916390Y-90273743D01*
X72054980Y-90347822D01*
X72072879Y-90357389D01*
X72075925Y-90359889D01*
X72210044Y-90469956D01*
X72292876Y-90570889D01*
X72322611Y-90607121D01*
X72322612Y-90607123D01*
X72406257Y-90763610D01*
X72406257Y-90763611D01*
X72457766Y-90933412D01*
X72475158Y-91110000D01*
X72457766Y-91286588D01*
X72455350Y-91294551D01*
X72406257Y-91456390D01*
X72332178Y-91594980D01*
X72322611Y-91612879D01*
X72308724Y-91629800D01*
X72210044Y-91750044D01*
X72108609Y-91833288D01*
X72072879Y-91862611D01*
X72072877Y-91862612D01*
X71916390Y-91946257D01*
X71859789Y-91963427D01*
X71746588Y-91997766D01*
X71658362Y-92006455D01*
X71614250Y-92010800D01*
X70925750Y-92010800D01*
X70881638Y-92006455D01*
X70793412Y-91997766D01*
X70680211Y-91963427D01*
X70623610Y-91946257D01*
X70467123Y-91862612D01*
X70467121Y-91862611D01*
X70431391Y-91833288D01*
X70329956Y-91750044D01*
X70231276Y-91629800D01*
X70217389Y-91612879D01*
X70207822Y-91594980D01*
X70133743Y-91456390D01*
X70084650Y-91294551D01*
X70082234Y-91286588D01*
X70064842Y-91110000D01*
X70082234Y-90933412D01*
X70133743Y-90763611D01*
X70133743Y-90763610D01*
X70217388Y-90607123D01*
X70217389Y-90607121D01*
X70247124Y-90570889D01*
X70329956Y-90469956D01*
X70464075Y-90359889D01*
X70467121Y-90357389D01*
X70485020Y-90347822D01*
X70623610Y-90273743D01*
X70680211Y-90256573D01*
X70793412Y-90222234D01*
X70881638Y-90213545D01*
X70925750Y-90209200D01*
X71614250Y-90209200D01*
X71658362Y-90213545D01*
X71658362Y-90213545D01*
G37*
G36*
X129118362Y-90213545D02*
X129206588Y-90222234D01*
X129319789Y-90256573D01*
X129376390Y-90273743D01*
X129514980Y-90347822D01*
X129532879Y-90357389D01*
X129535925Y-90359889D01*
X129670044Y-90469956D01*
X129752876Y-90570889D01*
X129782611Y-90607121D01*
X129782612Y-90607123D01*
X129866257Y-90763610D01*
X129866257Y-90763611D01*
X129917766Y-90933412D01*
X129935158Y-91110000D01*
X129917766Y-91286588D01*
X129915350Y-91294551D01*
X129866257Y-91456390D01*
X129792178Y-91594980D01*
X129782611Y-91612879D01*
X129768724Y-91629800D01*
X129670044Y-91750044D01*
X129568609Y-91833288D01*
X129532879Y-91862611D01*
X129532877Y-91862612D01*
X129376390Y-91946257D01*
X129319789Y-91963427D01*
X129206588Y-91997766D01*
X129118362Y-92006455D01*
X129074250Y-92010800D01*
X128385750Y-92010800D01*
X128341638Y-92006455D01*
X128253412Y-91997766D01*
X128140211Y-91963427D01*
X128083610Y-91946257D01*
X127927123Y-91862612D01*
X127927121Y-91862611D01*
X127891391Y-91833288D01*
X127789956Y-91750044D01*
X127691276Y-91629800D01*
X127677389Y-91612879D01*
X127667822Y-91594980D01*
X127593743Y-91456390D01*
X127544650Y-91294551D01*
X127542234Y-91286588D01*
X127524842Y-91110000D01*
X127542234Y-90933412D01*
X127593743Y-90763611D01*
X127593743Y-90763610D01*
X127677388Y-90607123D01*
X127677389Y-90607121D01*
X127707124Y-90570889D01*
X127789956Y-90469956D01*
X127924075Y-90359889D01*
X127927121Y-90357389D01*
X127945020Y-90347822D01*
X128083610Y-90273743D01*
X128140211Y-90256573D01*
X128253412Y-90222234D01*
X128341638Y-90213545D01*
X128385750Y-90209200D01*
X129074250Y-90209200D01*
X129118362Y-90213545D01*
X129118362Y-90213545D01*
G37*
G36*
X76924720Y-90896256D02*
X76995662Y-90910367D01*
X77095902Y-90951887D01*
X77185706Y-91011893D01*
X77186117Y-91012168D01*
X77262832Y-91088883D01*
X77262834Y-91088886D01*
X77323113Y-91179098D01*
X77364633Y-91279338D01*
X77385800Y-91385751D01*
X77385800Y-91494249D01*
X77364633Y-91600662D01*
X77323113Y-91700902D01*
X77274201Y-91774102D01*
X77262832Y-91791117D01*
X77186117Y-91867832D01*
X77186114Y-91867834D01*
X77095902Y-91928113D01*
X76995662Y-91969633D01*
X76924720Y-91983744D01*
X76889250Y-91990800D01*
X76780750Y-91990800D01*
X76745280Y-91983744D01*
X76674338Y-91969633D01*
X76574098Y-91928113D01*
X76483886Y-91867834D01*
X76483883Y-91867832D01*
X76407168Y-91791117D01*
X76395799Y-91774102D01*
X76346887Y-91700902D01*
X76305367Y-91600662D01*
X76284200Y-91494249D01*
X76284200Y-91385751D01*
X76305367Y-91279338D01*
X76346887Y-91179098D01*
X76407166Y-91088886D01*
X76407168Y-91088883D01*
X76483883Y-91012168D01*
X76484294Y-91011893D01*
X76574098Y-90951887D01*
X76674338Y-90910367D01*
X76745280Y-90896256D01*
X76780750Y-90889200D01*
X76889250Y-90889200D01*
X76924720Y-90896256D01*
X76924720Y-90896256D01*
G37*
G36*
X102547300Y-91629800D02*
X101302700Y-91629800D01*
X101302700Y-91020200D01*
X102547300Y-91020200D01*
X102547300Y-91629800D01*
X102547300Y-91629800D01*
G37*
G36*
X108897300Y-91629800D02*
X107652700Y-91629800D01*
X107652700Y-91020200D01*
X108897300Y-91020200D01*
X108897300Y-91629800D01*
X108897300Y-91629800D01*
G37*
G36*
X125400800Y-91200800D02*
X122599200Y-91200800D01*
X122599200Y-87349200D01*
X125400800Y-87349200D01*
X125400800Y-91200800D01*
X125400800Y-91200800D01*
G37*
G36*
X102547300Y-90359800D02*
X101302700Y-90359800D01*
X101302700Y-89750200D01*
X102547300Y-89750200D01*
X102547300Y-90359800D01*
X102547300Y-90359800D01*
G37*
G36*
X108897300Y-90359800D02*
X107652700Y-90359800D01*
X107652700Y-89750200D01*
X108897300Y-89750200D01*
X108897300Y-90359800D01*
X108897300Y-90359800D01*
G37*
G36*
X118687412Y-88812588D02*
X118706354Y-88828134D01*
X118727965Y-88839685D01*
X118751414Y-88846798D01*
X118775800Y-88849200D01*
X119075800Y-88849200D01*
X119075800Y-90150800D01*
X118775800Y-90150800D01*
X118751414Y-90153202D01*
X118727965Y-90160315D01*
X118706354Y-90171866D01*
X118687412Y-90187412D01*
X118676424Y-90200800D01*
X117049200Y-90200800D01*
X117049200Y-88799200D01*
X118676424Y-88799200D01*
X118687412Y-88812588D01*
X118687412Y-88812588D01*
G37*
G36*
X115950800Y-90200800D02*
X114323576Y-90200800D01*
X114312588Y-90187412D01*
X114293646Y-90171866D01*
X114272035Y-90160315D01*
X114248586Y-90153202D01*
X114224200Y-90150800D01*
X113924200Y-90150800D01*
X113924200Y-88849200D01*
X114224200Y-88849200D01*
X114248586Y-88846798D01*
X114272035Y-88839685D01*
X114293646Y-88828134D01*
X114312588Y-88812588D01*
X114323576Y-88799200D01*
X115950800Y-88799200D01*
X115950800Y-90200800D01*
X115950800Y-90200800D01*
G37*
G36*
X71641318Y-87671866D02*
X71746588Y-87682234D01*
X71859789Y-87716573D01*
X71916390Y-87733743D01*
X72054980Y-87807822D01*
X72072879Y-87817389D01*
X72089269Y-87830840D01*
X72210044Y-87929956D01*
X72293288Y-88031391D01*
X72322611Y-88067121D01*
X72322612Y-88067123D01*
X72406257Y-88223610D01*
X72406257Y-88223611D01*
X72457766Y-88393412D01*
X72475158Y-88570000D01*
X72457766Y-88746588D01*
X72441806Y-88799200D01*
X72406257Y-88916390D01*
X72334514Y-89050610D01*
X72322611Y-89072879D01*
X72308724Y-89089800D01*
X72210044Y-89210044D01*
X72108609Y-89293288D01*
X72072879Y-89322611D01*
X72072877Y-89322612D01*
X71916390Y-89406257D01*
X71859789Y-89423427D01*
X71746588Y-89457766D01*
X71658362Y-89466455D01*
X71614250Y-89470800D01*
X70925750Y-89470800D01*
X70881638Y-89466455D01*
X70793412Y-89457766D01*
X70680211Y-89423427D01*
X70623610Y-89406257D01*
X70467123Y-89322612D01*
X70467121Y-89322611D01*
X70431391Y-89293288D01*
X70329956Y-89210044D01*
X70231276Y-89089800D01*
X70217389Y-89072879D01*
X70205486Y-89050610D01*
X70133743Y-88916390D01*
X70098194Y-88799200D01*
X70082234Y-88746588D01*
X70064842Y-88570000D01*
X70082234Y-88393412D01*
X70133743Y-88223611D01*
X70133743Y-88223610D01*
X70217388Y-88067123D01*
X70217389Y-88067121D01*
X70246712Y-88031391D01*
X70329956Y-87929956D01*
X70450731Y-87830840D01*
X70467121Y-87817389D01*
X70485020Y-87807822D01*
X70623610Y-87733743D01*
X70680211Y-87716573D01*
X70793412Y-87682234D01*
X70898682Y-87671866D01*
X70925750Y-87669200D01*
X71614250Y-87669200D01*
X71641318Y-87671866D01*
X71641318Y-87671866D01*
G37*
G36*
X129101318Y-87671866D02*
X129206588Y-87682234D01*
X129319789Y-87716573D01*
X129376390Y-87733743D01*
X129514980Y-87807822D01*
X129532879Y-87817389D01*
X129549269Y-87830840D01*
X129670044Y-87929956D01*
X129753288Y-88031391D01*
X129782611Y-88067121D01*
X129782612Y-88067123D01*
X129866257Y-88223610D01*
X129866257Y-88223611D01*
X129917766Y-88393412D01*
X129935158Y-88570000D01*
X129917766Y-88746588D01*
X129901806Y-88799200D01*
X129866257Y-88916390D01*
X129794514Y-89050610D01*
X129782611Y-89072879D01*
X129768724Y-89089800D01*
X129670044Y-89210044D01*
X129568609Y-89293288D01*
X129532879Y-89322611D01*
X129532877Y-89322612D01*
X129376390Y-89406257D01*
X129319789Y-89423427D01*
X129206588Y-89457766D01*
X129118362Y-89466455D01*
X129074250Y-89470800D01*
X128385750Y-89470800D01*
X128341638Y-89466455D01*
X128253412Y-89457766D01*
X128140211Y-89423427D01*
X128083610Y-89406257D01*
X127927123Y-89322612D01*
X127927121Y-89322611D01*
X127891391Y-89293288D01*
X127789956Y-89210044D01*
X127691276Y-89089800D01*
X127677389Y-89072879D01*
X127665486Y-89050610D01*
X127593743Y-88916390D01*
X127558194Y-88799200D01*
X127542234Y-88746588D01*
X127524842Y-88570000D01*
X127542234Y-88393412D01*
X127593743Y-88223611D01*
X127593743Y-88223610D01*
X127677388Y-88067123D01*
X127677389Y-88067121D01*
X127706712Y-88031391D01*
X127789956Y-87929956D01*
X127910731Y-87830840D01*
X127927121Y-87817389D01*
X127945020Y-87807822D01*
X128083610Y-87733743D01*
X128140211Y-87716573D01*
X128253412Y-87682234D01*
X128358682Y-87671866D01*
X128385750Y-87669200D01*
X129074250Y-87669200D01*
X129101318Y-87671866D01*
X129101318Y-87671866D01*
G37*
G36*
X76924720Y-88356256D02*
X76995662Y-88370367D01*
X77095902Y-88411887D01*
X77177058Y-88466115D01*
X77186117Y-88472168D01*
X77262832Y-88548883D01*
X77262834Y-88548886D01*
X77323113Y-88639098D01*
X77364633Y-88739338D01*
X77378744Y-88810280D01*
X77384594Y-88839685D01*
X77385800Y-88845751D01*
X77385800Y-88954249D01*
X77364633Y-89060662D01*
X77323113Y-89160902D01*
X77263107Y-89250706D01*
X77262832Y-89251117D01*
X77186117Y-89327832D01*
X77186114Y-89327834D01*
X77095902Y-89388113D01*
X76995662Y-89429633D01*
X76924720Y-89443744D01*
X76889250Y-89450800D01*
X76780750Y-89450800D01*
X76745280Y-89443744D01*
X76674338Y-89429633D01*
X76574098Y-89388113D01*
X76483886Y-89327834D01*
X76483883Y-89327832D01*
X76407168Y-89251117D01*
X76406893Y-89250706D01*
X76346887Y-89160902D01*
X76305367Y-89060662D01*
X76284200Y-88954249D01*
X76284200Y-88845751D01*
X76285407Y-88839685D01*
X76291256Y-88810280D01*
X76305367Y-88739338D01*
X76346887Y-88639098D01*
X76407166Y-88548886D01*
X76407168Y-88548883D01*
X76483883Y-88472168D01*
X76492942Y-88466115D01*
X76574098Y-88411887D01*
X76674338Y-88370367D01*
X76745280Y-88356256D01*
X76780750Y-88349200D01*
X76889250Y-88349200D01*
X76924720Y-88356256D01*
X76924720Y-88356256D01*
G37*
G36*
X81089521Y-88512652D02*
X80169150Y-89433023D01*
X79566977Y-88830850D01*
X80487348Y-87910479D01*
X81089521Y-88512652D01*
X81089521Y-88512652D01*
G37*
G36*
X108897300Y-89089800D02*
X107652700Y-89089800D01*
X107652700Y-88480200D01*
X108897300Y-88480200D01*
X108897300Y-89089800D01*
X108897300Y-89089800D01*
G37*
G36*
X102547300Y-89089800D02*
X101302700Y-89089800D01*
X101302700Y-88480200D01*
X102547300Y-88480200D01*
X102547300Y-89089800D01*
X102547300Y-89089800D01*
G37*
G36*
X82433023Y-87169150D02*
X81512652Y-88089521D01*
X80910479Y-87487348D01*
X81830850Y-86566977D01*
X82433023Y-87169150D01*
X82433023Y-87169150D01*
G37*
G36*
X108897300Y-87819800D02*
X107652700Y-87819800D01*
X107652700Y-87210200D01*
X108897300Y-87210200D01*
X108897300Y-87819800D01*
X108897300Y-87819800D01*
G37*
G36*
X102547300Y-87819800D02*
X101302700Y-87819800D01*
X101302700Y-87210200D01*
X102547300Y-87210200D01*
X102547300Y-87819800D01*
X102547300Y-87819800D01*
G37*
G36*
X118687412Y-86312588D02*
X118706354Y-86328134D01*
X118727965Y-86339685D01*
X118751414Y-86346798D01*
X118775800Y-86349200D01*
X119075800Y-86349200D01*
X119075800Y-87650800D01*
X118775800Y-87650800D01*
X118751414Y-87653202D01*
X118727965Y-87660315D01*
X118706354Y-87671866D01*
X118687412Y-87687412D01*
X118676424Y-87700800D01*
X117049200Y-87700800D01*
X117049200Y-86299200D01*
X118676424Y-86299200D01*
X118687412Y-86312588D01*
X118687412Y-86312588D01*
G37*
G36*
X115950800Y-87700800D02*
X114323576Y-87700800D01*
X114312588Y-87687412D01*
X114293646Y-87671866D01*
X114272035Y-87660315D01*
X114248586Y-87653202D01*
X114224200Y-87650800D01*
X113924200Y-87650800D01*
X113924200Y-86349200D01*
X114224200Y-86349200D01*
X114248586Y-86346798D01*
X114272035Y-86339685D01*
X114293646Y-86328134D01*
X114312588Y-86312588D01*
X114323576Y-86299200D01*
X115950800Y-86299200D01*
X115950800Y-87700800D01*
X115950800Y-87700800D01*
G37*
G36*
X96089521Y-86512652D02*
X95169150Y-87433023D01*
X94566977Y-86830850D01*
X95487348Y-85910479D01*
X96089521Y-86512652D01*
X96089521Y-86512652D01*
G37*
G36*
X71658362Y-85133545D02*
X71746588Y-85142234D01*
X71835317Y-85169150D01*
X71916390Y-85193743D01*
X72054980Y-85267822D01*
X72072879Y-85277389D01*
X72104018Y-85302944D01*
X72210044Y-85389956D01*
X72289970Y-85487348D01*
X72322611Y-85527121D01*
X72322612Y-85527123D01*
X72406257Y-85683610D01*
X72406257Y-85683611D01*
X72457766Y-85853412D01*
X72475158Y-86030000D01*
X72457766Y-86206588D01*
X72442310Y-86257538D01*
X72406257Y-86376390D01*
X72386020Y-86414250D01*
X72322611Y-86532879D01*
X72308724Y-86549800D01*
X72210044Y-86670044D01*
X72108609Y-86753288D01*
X72072879Y-86782611D01*
X72072877Y-86782612D01*
X71916390Y-86866257D01*
X71859789Y-86883427D01*
X71746588Y-86917766D01*
X71658362Y-86926455D01*
X71614250Y-86930800D01*
X70925750Y-86930800D01*
X70881638Y-86926455D01*
X70793412Y-86917766D01*
X70680211Y-86883427D01*
X70623610Y-86866257D01*
X70467123Y-86782612D01*
X70467121Y-86782611D01*
X70431391Y-86753288D01*
X70329956Y-86670044D01*
X70231276Y-86549800D01*
X70217389Y-86532879D01*
X70153980Y-86414250D01*
X70133743Y-86376390D01*
X70097690Y-86257538D01*
X70082234Y-86206588D01*
X70064842Y-86030000D01*
X70082234Y-85853412D01*
X70133743Y-85683611D01*
X70133743Y-85683610D01*
X70217388Y-85527123D01*
X70217389Y-85527121D01*
X70250030Y-85487348D01*
X70329956Y-85389956D01*
X70435982Y-85302944D01*
X70467121Y-85277389D01*
X70485020Y-85267822D01*
X70623610Y-85193743D01*
X70704683Y-85169150D01*
X70793412Y-85142234D01*
X70881638Y-85133545D01*
X70925750Y-85129200D01*
X71614250Y-85129200D01*
X71658362Y-85133545D01*
X71658362Y-85133545D01*
G37*
G36*
X129118362Y-85133545D02*
X129206588Y-85142234D01*
X129295317Y-85169150D01*
X129376390Y-85193743D01*
X129514980Y-85267822D01*
X129532879Y-85277389D01*
X129564018Y-85302944D01*
X129670044Y-85389956D01*
X129749970Y-85487348D01*
X129782611Y-85527121D01*
X129782612Y-85527123D01*
X129866257Y-85683610D01*
X129866257Y-85683611D01*
X129917766Y-85853412D01*
X129935158Y-86030000D01*
X129917766Y-86206588D01*
X129902310Y-86257538D01*
X129866257Y-86376390D01*
X129846020Y-86414250D01*
X129782611Y-86532879D01*
X129768724Y-86549800D01*
X129670044Y-86670044D01*
X129568609Y-86753288D01*
X129532879Y-86782611D01*
X129532877Y-86782612D01*
X129376390Y-86866257D01*
X129319789Y-86883427D01*
X129206588Y-86917766D01*
X129118362Y-86926455D01*
X129074250Y-86930800D01*
X128385750Y-86930800D01*
X128341638Y-86926455D01*
X128253412Y-86917766D01*
X128140211Y-86883427D01*
X128083610Y-86866257D01*
X127927123Y-86782612D01*
X127927121Y-86782611D01*
X127891391Y-86753288D01*
X127789956Y-86670044D01*
X127691276Y-86549800D01*
X127677389Y-86532879D01*
X127613980Y-86414250D01*
X127593743Y-86376390D01*
X127557690Y-86257538D01*
X127542234Y-86206588D01*
X127524842Y-86030000D01*
X127542234Y-85853412D01*
X127593743Y-85683611D01*
X127593743Y-85683610D01*
X127677388Y-85527123D01*
X127677389Y-85527121D01*
X127710030Y-85487348D01*
X127789956Y-85389956D01*
X127895982Y-85302944D01*
X127927121Y-85277389D01*
X127945020Y-85267822D01*
X128083610Y-85193743D01*
X128164683Y-85169150D01*
X128253412Y-85142234D01*
X128341638Y-85133545D01*
X128385750Y-85129200D01*
X129074250Y-85129200D01*
X129118362Y-85133545D01*
X129118362Y-85133545D01*
G37*
G36*
X76924720Y-85816256D02*
X76995662Y-85830367D01*
X77095902Y-85871887D01*
X77153659Y-85910480D01*
X77186117Y-85932168D01*
X77262832Y-86008883D01*
X77262834Y-86008886D01*
X77323113Y-86099098D01*
X77364633Y-86199338D01*
X77385800Y-86305751D01*
X77385800Y-86414249D01*
X77364633Y-86520662D01*
X77323113Y-86620902D01*
X77287684Y-86673924D01*
X77262832Y-86711117D01*
X77186117Y-86787832D01*
X77186114Y-86787834D01*
X77095902Y-86848113D01*
X76995662Y-86889633D01*
X76924720Y-86903744D01*
X76889250Y-86910800D01*
X76780750Y-86910800D01*
X76745280Y-86903744D01*
X76674338Y-86889633D01*
X76574098Y-86848113D01*
X76483886Y-86787834D01*
X76483883Y-86787832D01*
X76407168Y-86711117D01*
X76382316Y-86673924D01*
X76346887Y-86620902D01*
X76305367Y-86520662D01*
X76284200Y-86414249D01*
X76284200Y-86305751D01*
X76305367Y-86199338D01*
X76346887Y-86099098D01*
X76407166Y-86008886D01*
X76407168Y-86008883D01*
X76483883Y-85932168D01*
X76516341Y-85910480D01*
X76574098Y-85871887D01*
X76674338Y-85830367D01*
X76745280Y-85816256D01*
X76780750Y-85809200D01*
X76889250Y-85809200D01*
X76924720Y-85816256D01*
X76924720Y-85816256D01*
G37*
G36*
X80968827Y-85470711D02*
X79765614Y-86673924D01*
X78420979Y-85329289D01*
X79624192Y-84126076D01*
X80968827Y-85470711D01*
X80968827Y-85470711D01*
G37*
G36*
X102547300Y-86549800D02*
X101302700Y-86549800D01*
X101302700Y-85940200D01*
X102547300Y-85940200D01*
X102547300Y-86549800D01*
X102547300Y-86549800D01*
G37*
G36*
X108897300Y-86549800D02*
X107652700Y-86549800D01*
X107652700Y-85940200D01*
X108897300Y-85940200D01*
X108897300Y-86549800D01*
X108897300Y-86549800D01*
G37*
G36*
X90462222Y-81430403D02*
X90462228Y-81430408D01*
X91241166Y-82209346D01*
X91241171Y-82209352D01*
X91522882Y-82491063D01*
X91522888Y-82491068D01*
X93008933Y-83977113D01*
X93008938Y-83977119D01*
X93290649Y-84258830D01*
X93290655Y-84258835D01*
X94069593Y-85037773D01*
X94069598Y-85037779D01*
X94334763Y-85302944D01*
X93131549Y-86506158D01*
X92794547Y-86169156D01*
X92794542Y-86169150D01*
X92159278Y-85533886D01*
X92159272Y-85533881D01*
X91733887Y-85108496D01*
X91733882Y-85108490D01*
X90391511Y-83766119D01*
X90391505Y-83766114D01*
X89966120Y-83340729D01*
X89966115Y-83340723D01*
X89330851Y-82705459D01*
X89330845Y-82705454D01*
X88993842Y-82368451D01*
X90197056Y-81165237D01*
X90462222Y-81430403D01*
X90462222Y-81430403D01*
G37*
G36*
X88006158Y-82368451D02*
X87669150Y-82705459D01*
X87315596Y-83059012D01*
X86608489Y-83766119D01*
X86254935Y-84119672D01*
X85547828Y-84826779D01*
X85266118Y-85108490D01*
X84840722Y-85533886D01*
X84487168Y-85887439D01*
X84205458Y-86169150D01*
X83868451Y-86506158D01*
X82665237Y-85302944D01*
X82930403Y-85037779D01*
X82930412Y-85037768D01*
X83709341Y-84258839D01*
X83709352Y-84258830D01*
X83991063Y-83977119D01*
X83991072Y-83977108D01*
X85477108Y-82491072D01*
X85477119Y-82491063D01*
X85758830Y-82209352D01*
X85758839Y-82209341D01*
X86537768Y-81430412D01*
X86537779Y-81430403D01*
X86802944Y-81165237D01*
X88006158Y-82368451D01*
X88006158Y-82368451D01*
G37*
G36*
X97433023Y-85169150D02*
X96512652Y-86089521D01*
X95910479Y-85487348D01*
X96830850Y-84566977D01*
X97433023Y-85169150D01*
X97433023Y-85169150D01*
G37*
G36*
X108897300Y-85279800D02*
X107652700Y-85279800D01*
X107652700Y-84670200D01*
X108897300Y-84670200D01*
X108897300Y-85279800D01*
X108897300Y-85279800D01*
G37*
G36*
X102547300Y-85279800D02*
X101302700Y-85279800D01*
X101302700Y-84670200D01*
X102547300Y-84670200D01*
X102547300Y-85279800D01*
X102547300Y-85279800D01*
G37*
G36*
X118650800Y-85200800D02*
X117049200Y-85200800D01*
X117049200Y-83799200D01*
X118650800Y-83799200D01*
X118650800Y-85200800D01*
X118650800Y-85200800D01*
G37*
G36*
X115950800Y-85200800D02*
X114349200Y-85200800D01*
X114349200Y-83799200D01*
X115950800Y-83799200D01*
X115950800Y-85200800D01*
X115950800Y-85200800D01*
G37*
G36*
X82779021Y-83660517D02*
X81575808Y-84863730D01*
X80231173Y-83519095D01*
X81434386Y-82315882D01*
X82779021Y-83660517D01*
X82779021Y-83660517D01*
G37*
G36*
X79233023Y-83830850D02*
X78630850Y-84433023D01*
X77710479Y-83512652D01*
X78312652Y-82910479D01*
X79233023Y-83830850D01*
X79233023Y-83830850D01*
G37*
G36*
X72470800Y-84390800D02*
X70069200Y-84390800D01*
X70069200Y-82589200D01*
X72470800Y-82589200D01*
X72470800Y-84390800D01*
X72470800Y-84390800D01*
G37*
G36*
X129930800Y-84390800D02*
X127529200Y-84390800D01*
X127529200Y-82589200D01*
X129930800Y-82589200D01*
X129930800Y-84390800D01*
X129930800Y-84390800D01*
G37*
G36*
X102547300Y-84009800D02*
X101302700Y-84009800D01*
X101302700Y-83400200D01*
X102547300Y-83400200D01*
X102547300Y-84009800D01*
X102547300Y-84009800D01*
G37*
G36*
X108897300Y-84009800D02*
X107652700Y-84009800D01*
X107652700Y-83400200D01*
X108897300Y-83400200D01*
X108897300Y-84009800D01*
X108897300Y-84009800D01*
G37*
G36*
X125400800Y-83650800D02*
X122599200Y-83650800D01*
X122599200Y-79799200D01*
X125400800Y-79799200D01*
X125400800Y-83650800D01*
X125400800Y-83650800D01*
G37*
G36*
X80361272Y-82759099D02*
X79759099Y-83361272D01*
X78838728Y-82440901D01*
X79440901Y-81838728D01*
X80361272Y-82759099D01*
X80361272Y-82759099D01*
G37*
G36*
X77889521Y-82487348D02*
X77287348Y-83089521D01*
X76366977Y-82169150D01*
X76969150Y-81566977D01*
X77889521Y-82487348D01*
X77889521Y-82487348D01*
G37*
G36*
X115850800Y-82700800D02*
X114249200Y-82700800D01*
X114249200Y-81299200D01*
X115850800Y-81299200D01*
X115850800Y-82700800D01*
X115850800Y-82700800D01*
G37*
G36*
X118550800Y-82700800D02*
X116949200Y-82700800D01*
X116949200Y-81299200D01*
X118550800Y-81299200D01*
X118550800Y-82700800D01*
X118550800Y-82700800D01*
G37*
G36*
X82782503Y-81607107D02*
X82357107Y-82032503D01*
X80517497Y-80192893D01*
X80942893Y-79767497D01*
X82782503Y-81607107D01*
X82782503Y-81607107D01*
G37*
G36*
X79017770Y-81415597D02*
X78415597Y-82017770D01*
X77495226Y-81097399D01*
X78097399Y-80495226D01*
X79017770Y-81415597D01*
X79017770Y-81415597D01*
G37*
G36*
X86561272Y-80390901D02*
X85640901Y-81311272D01*
X85038728Y-80709099D01*
X85959099Y-79788728D01*
X86561272Y-80390901D01*
X86561272Y-80390901D01*
G37*
G36*
X83631031Y-80758579D02*
X83205635Y-81183975D01*
X81366025Y-79344365D01*
X81791421Y-78918969D01*
X83631031Y-80758579D01*
X83631031Y-80758579D01*
G37*
G36*
X118650800Y-80450800D02*
X117049200Y-80450800D01*
X117049200Y-79049200D01*
X118650800Y-79049200D01*
X118650800Y-80450800D01*
X118650800Y-80450800D01*
G37*
G36*
X115950800Y-80450800D02*
X114349200Y-80450800D01*
X114349200Y-79049200D01*
X115950800Y-79049200D01*
X115950800Y-80450800D01*
X115950800Y-80450800D01*
G37*
G36*
X84479559Y-79910051D02*
X84054163Y-80335447D01*
X82214553Y-78495837D01*
X82639949Y-78070441D01*
X84479559Y-79910051D01*
X84479559Y-79910051D01*
G37*
G36*
X87904774Y-79047399D02*
X86984403Y-79967770D01*
X86382230Y-79365597D01*
X87302601Y-78445226D01*
X87904774Y-79047399D01*
X87904774Y-79047399D01*
G37*
G36*
X113089720Y-78456256D02*
X113160662Y-78470367D01*
X113260902Y-78511887D01*
X113319138Y-78550800D01*
X113351117Y-78572168D01*
X113427832Y-78648883D01*
X113427834Y-78648886D01*
X113488113Y-78739098D01*
X113529633Y-78839338D01*
X113550800Y-78945751D01*
X113550800Y-79054249D01*
X113529633Y-79160662D01*
X113488113Y-79260902D01*
X113432344Y-79344365D01*
X113427832Y-79351117D01*
X113351117Y-79427832D01*
X113351114Y-79427834D01*
X113260902Y-79488113D01*
X113160662Y-79529633D01*
X113089720Y-79543744D01*
X113054250Y-79550800D01*
X112945750Y-79550800D01*
X112910280Y-79543744D01*
X112839338Y-79529633D01*
X112739098Y-79488113D01*
X112648886Y-79427834D01*
X112648883Y-79427832D01*
X112572168Y-79351117D01*
X112567656Y-79344365D01*
X112511887Y-79260902D01*
X112470367Y-79160662D01*
X112449200Y-79054249D01*
X112449200Y-78945751D01*
X112470367Y-78839338D01*
X112511887Y-78739098D01*
X112572166Y-78648886D01*
X112572168Y-78648883D01*
X112648883Y-78572168D01*
X112680862Y-78550800D01*
X112739098Y-78511887D01*
X112839338Y-78470367D01*
X112910280Y-78456256D01*
X112945750Y-78449200D01*
X113054250Y-78449200D01*
X113089720Y-78456256D01*
X113089720Y-78456256D01*
G37*
G36*
X125807061Y-71540170D02*
X126035730Y-71585655D01*
X126681935Y-71853322D01*
X127014897Y-72075800D01*
X127263506Y-72241915D01*
X127758085Y-72736494D01*
X127758087Y-72736497D01*
X128146678Y-73318065D01*
X128414345Y-73964270D01*
X128550800Y-74650277D01*
X128550800Y-75349723D01*
X128414345Y-76035730D01*
X128146678Y-76681935D01*
X128121860Y-76719078D01*
X127758085Y-77263506D01*
X127263506Y-77758085D01*
X127263503Y-77758087D01*
X126681935Y-78146678D01*
X126035730Y-78414345D01*
X125807061Y-78459830D01*
X125349725Y-78550800D01*
X124650275Y-78550800D01*
X124192939Y-78459830D01*
X123964270Y-78414345D01*
X123318065Y-78146678D01*
X122736497Y-77758087D01*
X122736494Y-77758085D01*
X122241915Y-77263506D01*
X121878140Y-76719078D01*
X121853322Y-76681935D01*
X121585655Y-76035730D01*
X121449200Y-75349723D01*
X121449200Y-74650277D01*
X121585655Y-73964270D01*
X121853322Y-73318065D01*
X122241913Y-72736497D01*
X122241915Y-72736494D01*
X122736494Y-72241915D01*
X122985103Y-72075800D01*
X123318065Y-71853322D01*
X123964270Y-71585655D01*
X124192939Y-71540170D01*
X124650275Y-71449200D01*
X125349725Y-71449200D01*
X125807061Y-71540170D01*
X125807061Y-71540170D01*
G37*
G36*
X75807061Y-71540170D02*
X76035730Y-71585655D01*
X76681935Y-71853322D01*
X77014897Y-72075800D01*
X77263506Y-72241915D01*
X77758085Y-72736494D01*
X77758087Y-72736497D01*
X78146678Y-73318065D01*
X78414345Y-73964270D01*
X78550800Y-74650277D01*
X78550800Y-75349723D01*
X78414345Y-76035730D01*
X78146678Y-76681935D01*
X78121860Y-76719078D01*
X77758085Y-77263506D01*
X77263506Y-77758085D01*
X77263503Y-77758087D01*
X76681935Y-78146678D01*
X76035730Y-78414345D01*
X75807061Y-78459830D01*
X75349725Y-78550800D01*
X74650275Y-78550800D01*
X74192939Y-78459830D01*
X73964270Y-78414345D01*
X73318065Y-78146678D01*
X72736497Y-77758087D01*
X72736494Y-77758085D01*
X72241915Y-77263506D01*
X71878140Y-76719078D01*
X71853322Y-76681935D01*
X71585655Y-76035730D01*
X71449200Y-75349723D01*
X71449200Y-74650277D01*
X71585655Y-73964270D01*
X71853322Y-73318065D01*
X72241913Y-72736497D01*
X72241915Y-72736494D01*
X72736494Y-72241915D01*
X72985103Y-72075800D01*
X73318065Y-71853322D01*
X73964270Y-71585655D01*
X74192939Y-71540170D01*
X74650275Y-71449200D01*
X75349725Y-71449200D01*
X75807061Y-71540170D01*
X75807061Y-71540170D01*
G37*
G36*
X96349336Y-75957961D02*
X96451478Y-75988946D01*
X96502550Y-76004438D01*
X96627601Y-76071280D01*
X96643751Y-76079912D01*
X96767517Y-76181483D01*
X96767518Y-76181485D01*
X96767520Y-76181486D01*
X96843695Y-76274307D01*
X96869088Y-76305248D01*
X96904220Y-76370975D01*
X96944562Y-76446449D01*
X96960054Y-76497521D01*
X96991039Y-76599663D01*
X97002800Y-76719077D01*
X97002800Y-77560923D01*
X96991039Y-77680337D01*
X96960054Y-77782479D01*
X96944562Y-77833551D01*
X96904220Y-77909025D01*
X96869088Y-77974752D01*
X96767517Y-78098517D01*
X96643752Y-78200088D01*
X96578025Y-78235220D01*
X96502551Y-78275562D01*
X96451479Y-78291054D01*
X96349337Y-78322039D01*
X96190000Y-78337732D01*
X96030664Y-78322039D01*
X95928522Y-78291054D01*
X95877450Y-78275562D01*
X95801976Y-78235220D01*
X95736249Y-78200088D01*
X95612484Y-78098517D01*
X95510913Y-77974752D01*
X95435439Y-77833550D01*
X95388961Y-77680337D01*
X95377200Y-77560923D01*
X95377200Y-76719078D01*
X95388961Y-76599664D01*
X95435438Y-76446451D01*
X95435438Y-76446450D01*
X95510911Y-76305251D01*
X95510912Y-76305249D01*
X95612483Y-76181483D01*
X95612485Y-76181482D01*
X95612486Y-76181480D01*
X95736247Y-76079913D01*
X95736246Y-76079913D01*
X95736248Y-76079912D01*
X95818907Y-76035730D01*
X95877449Y-76004438D01*
X95928521Y-75988946D01*
X96030663Y-75957961D01*
X96190000Y-75942268D01*
X96349336Y-75957961D01*
X96349336Y-75957961D01*
G37*
G36*
X109049336Y-75957961D02*
X109151478Y-75988946D01*
X109202550Y-76004438D01*
X109327601Y-76071280D01*
X109343751Y-76079912D01*
X109467517Y-76181483D01*
X109467518Y-76181485D01*
X109467520Y-76181486D01*
X109543695Y-76274307D01*
X109569088Y-76305248D01*
X109604220Y-76370975D01*
X109644562Y-76446449D01*
X109660054Y-76497521D01*
X109691039Y-76599663D01*
X109702800Y-76719077D01*
X109702800Y-77560923D01*
X109691039Y-77680337D01*
X109660054Y-77782479D01*
X109644562Y-77833551D01*
X109604220Y-77909025D01*
X109569088Y-77974752D01*
X109467517Y-78098517D01*
X109343752Y-78200088D01*
X109278025Y-78235220D01*
X109202551Y-78275562D01*
X109151479Y-78291054D01*
X109049337Y-78322039D01*
X108890000Y-78337732D01*
X108730664Y-78322039D01*
X108628522Y-78291054D01*
X108577450Y-78275562D01*
X108501976Y-78235220D01*
X108436249Y-78200088D01*
X108312484Y-78098517D01*
X108210913Y-77974752D01*
X108135439Y-77833550D01*
X108088961Y-77680337D01*
X108077200Y-77560923D01*
X108077200Y-76719078D01*
X108088961Y-76599664D01*
X108135438Y-76446451D01*
X108135438Y-76446450D01*
X108210911Y-76305251D01*
X108210912Y-76305249D01*
X108312483Y-76181483D01*
X108312485Y-76181482D01*
X108312486Y-76181480D01*
X108436247Y-76079913D01*
X108436246Y-76079913D01*
X108436248Y-76079912D01*
X108518907Y-76035730D01*
X108577449Y-76004438D01*
X108628521Y-75988946D01*
X108730663Y-75957961D01*
X108890000Y-75942268D01*
X109049336Y-75957961D01*
X109049336Y-75957961D01*
G37*
G36*
X106509336Y-75957961D02*
X106611478Y-75988946D01*
X106662550Y-76004438D01*
X106787601Y-76071280D01*
X106803751Y-76079912D01*
X106927517Y-76181483D01*
X106927518Y-76181485D01*
X106927520Y-76181486D01*
X107003695Y-76274307D01*
X107029088Y-76305248D01*
X107064220Y-76370975D01*
X107104562Y-76446449D01*
X107120054Y-76497521D01*
X107151039Y-76599663D01*
X107162800Y-76719077D01*
X107162800Y-77560923D01*
X107151039Y-77680337D01*
X107120054Y-77782479D01*
X107104562Y-77833551D01*
X107064220Y-77909025D01*
X107029088Y-77974752D01*
X106927517Y-78098517D01*
X106803752Y-78200088D01*
X106738025Y-78235220D01*
X106662551Y-78275562D01*
X106611479Y-78291054D01*
X106509337Y-78322039D01*
X106350000Y-78337732D01*
X106190664Y-78322039D01*
X106088522Y-78291054D01*
X106037450Y-78275562D01*
X105961976Y-78235220D01*
X105896249Y-78200088D01*
X105772484Y-78098517D01*
X105670913Y-77974752D01*
X105595439Y-77833550D01*
X105548961Y-77680337D01*
X105537200Y-77560923D01*
X105537200Y-76719078D01*
X105548961Y-76599664D01*
X105595438Y-76446451D01*
X105595438Y-76446450D01*
X105670911Y-76305251D01*
X105670912Y-76305249D01*
X105772483Y-76181483D01*
X105772485Y-76181482D01*
X105772486Y-76181480D01*
X105896247Y-76079913D01*
X105896246Y-76079913D01*
X105896248Y-76079912D01*
X105978907Y-76035730D01*
X106037449Y-76004438D01*
X106088521Y-75988946D01*
X106190663Y-75957961D01*
X106350000Y-75942268D01*
X106509336Y-75957961D01*
X106509336Y-75957961D01*
G37*
G36*
X103969336Y-75957961D02*
X104071478Y-75988946D01*
X104122550Y-76004438D01*
X104247601Y-76071280D01*
X104263751Y-76079912D01*
X104387517Y-76181483D01*
X104387518Y-76181485D01*
X104387520Y-76181486D01*
X104463695Y-76274307D01*
X104489088Y-76305248D01*
X104524220Y-76370975D01*
X104564562Y-76446449D01*
X104580054Y-76497521D01*
X104611039Y-76599663D01*
X104622800Y-76719077D01*
X104622800Y-77560923D01*
X104611039Y-77680337D01*
X104580054Y-77782479D01*
X104564562Y-77833551D01*
X104524220Y-77909025D01*
X104489088Y-77974752D01*
X104387517Y-78098517D01*
X104263752Y-78200088D01*
X104198025Y-78235220D01*
X104122551Y-78275562D01*
X104071479Y-78291054D01*
X103969337Y-78322039D01*
X103810000Y-78337732D01*
X103650664Y-78322039D01*
X103548522Y-78291054D01*
X103497450Y-78275562D01*
X103421976Y-78235220D01*
X103356249Y-78200088D01*
X103232484Y-78098517D01*
X103130913Y-77974752D01*
X103055439Y-77833550D01*
X103008961Y-77680337D01*
X102997200Y-77560923D01*
X102997200Y-76719078D01*
X103008961Y-76599664D01*
X103055438Y-76446451D01*
X103055438Y-76446450D01*
X103130911Y-76305251D01*
X103130912Y-76305249D01*
X103232483Y-76181483D01*
X103232485Y-76181482D01*
X103232486Y-76181480D01*
X103356247Y-76079913D01*
X103356246Y-76079913D01*
X103356248Y-76079912D01*
X103438907Y-76035730D01*
X103497449Y-76004438D01*
X103548521Y-75988946D01*
X103650663Y-75957961D01*
X103810000Y-75942268D01*
X103969336Y-75957961D01*
X103969336Y-75957961D01*
G37*
G36*
X98889336Y-75957961D02*
X98991478Y-75988946D01*
X99042550Y-76004438D01*
X99167601Y-76071280D01*
X99183751Y-76079912D01*
X99307517Y-76181483D01*
X99307518Y-76181485D01*
X99307520Y-76181486D01*
X99383695Y-76274307D01*
X99409088Y-76305248D01*
X99444220Y-76370975D01*
X99484562Y-76446449D01*
X99500054Y-76497521D01*
X99531039Y-76599663D01*
X99542800Y-76719077D01*
X99542800Y-77560923D01*
X99531039Y-77680337D01*
X99500054Y-77782479D01*
X99484562Y-77833551D01*
X99444220Y-77909025D01*
X99409088Y-77974752D01*
X99307517Y-78098517D01*
X99183752Y-78200088D01*
X99118025Y-78235220D01*
X99042551Y-78275562D01*
X98991479Y-78291054D01*
X98889337Y-78322039D01*
X98730000Y-78337732D01*
X98570664Y-78322039D01*
X98468522Y-78291054D01*
X98417450Y-78275562D01*
X98341976Y-78235220D01*
X98276249Y-78200088D01*
X98152484Y-78098517D01*
X98050913Y-77974752D01*
X97975439Y-77833550D01*
X97928961Y-77680337D01*
X97917200Y-77560923D01*
X97917200Y-76719078D01*
X97928961Y-76599664D01*
X97975438Y-76446451D01*
X97975438Y-76446450D01*
X98050911Y-76305251D01*
X98050912Y-76305249D01*
X98152483Y-76181483D01*
X98152485Y-76181482D01*
X98152486Y-76181480D01*
X98276247Y-76079913D01*
X98276246Y-76079913D01*
X98276248Y-76079912D01*
X98358907Y-76035730D01*
X98417449Y-76004438D01*
X98468521Y-75988946D01*
X98570663Y-75957961D01*
X98730000Y-75942268D01*
X98889336Y-75957961D01*
X98889336Y-75957961D01*
G37*
G36*
X93809336Y-75957961D02*
X93911478Y-75988946D01*
X93962550Y-76004438D01*
X94087601Y-76071280D01*
X94103751Y-76079912D01*
X94227517Y-76181483D01*
X94227518Y-76181485D01*
X94227520Y-76181486D01*
X94303695Y-76274307D01*
X94329088Y-76305248D01*
X94364220Y-76370975D01*
X94404562Y-76446449D01*
X94420054Y-76497521D01*
X94451039Y-76599663D01*
X94462800Y-76719077D01*
X94462800Y-77560923D01*
X94451039Y-77680337D01*
X94420054Y-77782479D01*
X94404562Y-77833551D01*
X94364220Y-77909025D01*
X94329088Y-77974752D01*
X94227517Y-78098517D01*
X94103752Y-78200088D01*
X94038025Y-78235220D01*
X93962551Y-78275562D01*
X93911479Y-78291054D01*
X93809337Y-78322039D01*
X93650000Y-78337732D01*
X93490664Y-78322039D01*
X93388522Y-78291054D01*
X93337450Y-78275562D01*
X93261976Y-78235220D01*
X93196249Y-78200088D01*
X93072484Y-78098517D01*
X92970913Y-77974752D01*
X92895439Y-77833550D01*
X92848961Y-77680337D01*
X92837200Y-77560923D01*
X92837200Y-76719078D01*
X92848961Y-76599664D01*
X92895438Y-76446451D01*
X92895438Y-76446450D01*
X92970911Y-76305251D01*
X92970912Y-76305249D01*
X93072483Y-76181483D01*
X93072485Y-76181482D01*
X93072486Y-76181480D01*
X93196247Y-76079913D01*
X93196246Y-76079913D01*
X93196248Y-76079912D01*
X93278907Y-76035730D01*
X93337449Y-76004438D01*
X93388521Y-75988946D01*
X93490663Y-75957961D01*
X93650000Y-75942268D01*
X93809336Y-75957961D01*
X93809336Y-75957961D01*
G37*
G36*
X91269336Y-75957961D02*
X91371478Y-75988946D01*
X91422550Y-76004438D01*
X91547601Y-76071280D01*
X91563751Y-76079912D01*
X91687517Y-76181483D01*
X91687518Y-76181485D01*
X91687520Y-76181486D01*
X91763695Y-76274307D01*
X91789088Y-76305248D01*
X91824220Y-76370975D01*
X91864562Y-76446449D01*
X91880054Y-76497521D01*
X91911039Y-76599663D01*
X91922800Y-76719077D01*
X91922800Y-77560923D01*
X91911039Y-77680337D01*
X91880054Y-77782479D01*
X91864562Y-77833551D01*
X91824220Y-77909025D01*
X91789088Y-77974752D01*
X91687517Y-78098517D01*
X91563752Y-78200088D01*
X91498025Y-78235220D01*
X91422551Y-78275562D01*
X91371479Y-78291054D01*
X91269337Y-78322039D01*
X91110000Y-78337732D01*
X90950664Y-78322039D01*
X90848522Y-78291054D01*
X90797450Y-78275562D01*
X90721976Y-78235220D01*
X90656249Y-78200088D01*
X90532484Y-78098517D01*
X90430913Y-77974752D01*
X90355439Y-77833550D01*
X90308961Y-77680337D01*
X90297200Y-77560923D01*
X90297200Y-76719078D01*
X90308961Y-76599664D01*
X90355438Y-76446451D01*
X90355438Y-76446450D01*
X90430911Y-76305251D01*
X90430912Y-76305249D01*
X90532483Y-76181483D01*
X90532485Y-76181482D01*
X90532486Y-76181480D01*
X90656247Y-76079913D01*
X90656246Y-76079913D01*
X90656248Y-76079912D01*
X90738907Y-76035730D01*
X90797449Y-76004438D01*
X90848521Y-75988946D01*
X90950663Y-75957961D01*
X91110000Y-75942268D01*
X91269336Y-75957961D01*
X91269336Y-75957961D01*
G37*
G36*
X101429336Y-75957961D02*
X101531478Y-75988946D01*
X101582550Y-76004438D01*
X101707601Y-76071280D01*
X101723751Y-76079912D01*
X101847517Y-76181483D01*
X101847518Y-76181485D01*
X101847520Y-76181486D01*
X101923695Y-76274307D01*
X101949088Y-76305248D01*
X101984220Y-76370975D01*
X102024562Y-76446449D01*
X102040054Y-76497521D01*
X102071039Y-76599663D01*
X102082800Y-76719077D01*
X102082800Y-77560923D01*
X102071039Y-77680337D01*
X102040054Y-77782479D01*
X102024562Y-77833551D01*
X101984220Y-77909025D01*
X101949088Y-77974752D01*
X101847517Y-78098517D01*
X101723752Y-78200088D01*
X101658025Y-78235220D01*
X101582551Y-78275562D01*
X101531479Y-78291054D01*
X101429337Y-78322039D01*
X101270000Y-78337732D01*
X101110664Y-78322039D01*
X101008522Y-78291054D01*
X100957450Y-78275562D01*
X100881976Y-78235220D01*
X100816249Y-78200088D01*
X100692484Y-78098517D01*
X100590913Y-77974752D01*
X100515439Y-77833550D01*
X100468961Y-77680337D01*
X100457200Y-77560923D01*
X100457200Y-76719078D01*
X100468961Y-76599664D01*
X100515438Y-76446451D01*
X100515438Y-76446450D01*
X100590911Y-76305251D01*
X100590912Y-76305249D01*
X100692483Y-76181483D01*
X100692485Y-76181482D01*
X100692486Y-76181480D01*
X100816247Y-76079913D01*
X100816246Y-76079913D01*
X100816248Y-76079912D01*
X100898907Y-76035730D01*
X100957449Y-76004438D01*
X101008521Y-75988946D01*
X101110663Y-75957961D01*
X101270000Y-75942268D01*
X101429336Y-75957961D01*
X101429336Y-75957961D01*
G37*
G36*
X119572800Y-75500800D02*
X118171200Y-75500800D01*
X118171200Y-73899200D01*
X119572800Y-73899200D01*
X119572800Y-75500800D01*
X119572800Y-75500800D01*
G37*
G36*
X101296077Y-72018445D02*
X101375671Y-72051414D01*
X101387218Y-72056197D01*
X101412181Y-72072877D01*
X101469244Y-72111005D01*
X101538995Y-72180756D01*
X101538997Y-72180759D01*
X101558565Y-72210044D01*
X101593804Y-72262784D01*
X101631555Y-72353923D01*
X101650800Y-72450674D01*
X101650800Y-72549326D01*
X101631555Y-72646077D01*
X101593804Y-72737216D01*
X101538995Y-72819244D01*
X101472427Y-72885812D01*
X101456881Y-72904754D01*
X101445330Y-72926365D01*
X101438217Y-72949814D01*
X101435815Y-72974200D01*
X101438217Y-72998586D01*
X101445330Y-73022035D01*
X101456881Y-73043646D01*
X101472427Y-73062588D01*
X101491369Y-73078134D01*
X101512980Y-73089685D01*
X101536429Y-73096798D01*
X101560815Y-73099200D01*
X102750800Y-73099200D01*
X102750800Y-74900800D01*
X101449200Y-74900800D01*
X101449200Y-73103410D01*
X101446798Y-73079024D01*
X101439685Y-73055575D01*
X101428134Y-73033964D01*
X101412588Y-73015022D01*
X101393646Y-72999476D01*
X101372035Y-72987925D01*
X101348586Y-72980812D01*
X101324200Y-72978410D01*
X101299814Y-72980812D01*
X101199326Y-73000800D01*
X101100674Y-73000800D01*
X101003923Y-72981555D01*
X100912784Y-72943804D01*
X100912783Y-72943804D01*
X100912782Y-72943803D01*
X100830759Y-72888997D01*
X100830756Y-72888995D01*
X100761005Y-72819244D01*
X100706196Y-72737216D01*
X100668445Y-72646077D01*
X100649200Y-72549326D01*
X100649200Y-72450674D01*
X100668445Y-72353923D01*
X100706196Y-72262784D01*
X100741436Y-72210044D01*
X100761003Y-72180759D01*
X100761005Y-72180756D01*
X100830756Y-72111005D01*
X100887819Y-72072877D01*
X100912782Y-72056197D01*
X100924329Y-72051414D01*
X101003923Y-72018445D01*
X101100674Y-71999200D01*
X101199326Y-71999200D01*
X101296077Y-72018445D01*
X101296077Y-72018445D01*
G37*
G36*
X98550800Y-74850800D02*
X97249200Y-74850800D01*
X97249200Y-73149200D01*
X98508110Y-73149200D01*
X98532496Y-73146798D01*
X98550800Y-73141246D01*
X98550800Y-74850800D01*
X98550800Y-74850800D01*
G37*
G36*
X98996077Y-72018445D02*
X99075671Y-72051414D01*
X99087218Y-72056197D01*
X99112181Y-72072877D01*
X99169244Y-72111005D01*
X99238995Y-72180756D01*
X99238997Y-72180759D01*
X99258565Y-72210044D01*
X99293804Y-72262784D01*
X99331555Y-72353923D01*
X99350800Y-72450674D01*
X99350800Y-72549326D01*
X99331555Y-72646077D01*
X99293804Y-72737216D01*
X99238995Y-72819244D01*
X99169244Y-72888995D01*
X99169241Y-72888997D01*
X99087218Y-72943803D01*
X99087217Y-72943804D01*
X99087216Y-72943804D01*
X98996077Y-72981555D01*
X98899326Y-73000800D01*
X98800674Y-73000800D01*
X98700186Y-72980812D01*
X98675800Y-72978410D01*
X98651413Y-72980812D01*
X98627964Y-72987925D01*
X98627222Y-72988322D01*
X98623595Y-72976365D01*
X98612044Y-72954754D01*
X98596498Y-72935812D01*
X98577556Y-72920266D01*
X98530756Y-72888995D01*
X98461005Y-72819244D01*
X98406196Y-72737216D01*
X98368445Y-72646077D01*
X98349200Y-72549326D01*
X98349200Y-72450674D01*
X98368445Y-72353923D01*
X98406196Y-72262784D01*
X98441436Y-72210044D01*
X98461003Y-72180759D01*
X98461005Y-72180756D01*
X98530756Y-72111005D01*
X98587819Y-72072877D01*
X98612782Y-72056197D01*
X98624329Y-72051414D01*
X98703923Y-72018445D01*
X98800674Y-71999200D01*
X98899326Y-71999200D01*
X98996077Y-72018445D01*
X98996077Y-72018445D01*
G37*
G36*
X119572800Y-72800800D02*
X118171200Y-72800800D01*
X118171200Y-71199200D01*
X119572800Y-71199200D01*
X119572800Y-72800800D01*
X119572800Y-72800800D01*
G37*
G36*
X104650800Y-72750800D02*
X103349200Y-72750800D01*
X103349200Y-72075800D01*
X103346798Y-72051414D01*
X103339685Y-72027965D01*
X103328134Y-72006354D01*
X103312588Y-71987412D01*
X103293646Y-71971866D01*
X103272035Y-71960315D01*
X103248586Y-71953202D01*
X103224200Y-71950800D01*
X102649200Y-71950800D01*
X102649200Y-71149200D01*
X104650800Y-71149200D01*
X104650800Y-72750800D01*
X104650800Y-72750800D01*
G37*
G36*
X97350800Y-71950800D02*
X96775800Y-71950800D01*
X96751414Y-71953202D01*
X96727965Y-71960315D01*
X96706354Y-71971866D01*
X96687412Y-71987412D01*
X96671866Y-72006354D01*
X96660315Y-72027965D01*
X96653202Y-72051414D01*
X96650800Y-72075800D01*
X96650800Y-72750800D01*
X95349200Y-72750800D01*
X95349200Y-71149200D01*
X97350800Y-71149200D01*
X97350800Y-71950800D01*
X97350800Y-71950800D01*
G37*
G36*
X86206588Y-70082234D02*
X86319789Y-70116573D01*
X86376390Y-70133743D01*
X86514980Y-70207822D01*
X86532879Y-70217389D01*
X86568609Y-70246712D01*
X86670044Y-70329956D01*
X86753288Y-70431391D01*
X86782611Y-70467121D01*
X86866257Y-70623611D01*
X86917766Y-70793412D01*
X86930800Y-70925751D01*
X86930800Y-71614249D01*
X86917766Y-71746588D01*
X86885389Y-71853321D01*
X86866257Y-71916390D01*
X86818170Y-72006354D01*
X86782611Y-72072879D01*
X86753288Y-72108609D01*
X86670044Y-72210044D01*
X86532877Y-72322612D01*
X86376389Y-72406257D01*
X86319788Y-72423427D01*
X86206587Y-72457766D01*
X86030000Y-72475158D01*
X85853412Y-72457766D01*
X85740211Y-72423427D01*
X85683610Y-72406257D01*
X85527123Y-72322612D01*
X85527121Y-72322611D01*
X85491391Y-72293288D01*
X85389956Y-72210044D01*
X85277388Y-72072877D01*
X85193743Y-71916389D01*
X85142235Y-71746589D01*
X85142234Y-71746587D01*
X85129200Y-71614248D01*
X85129200Y-70925751D01*
X85142234Y-70793412D01*
X85193743Y-70623611D01*
X85277390Y-70467121D01*
X85306713Y-70431391D01*
X85389957Y-70329956D01*
X85491392Y-70246712D01*
X85527122Y-70217389D01*
X85545021Y-70207822D01*
X85683611Y-70133743D01*
X85740212Y-70116573D01*
X85853413Y-70082234D01*
X86030000Y-70064842D01*
X86206588Y-70082234D01*
X86206588Y-70082234D01*
G37*
G36*
X106526587Y-70082234D02*
X106639788Y-70116573D01*
X106696389Y-70133743D01*
X106852877Y-70217388D01*
X106990044Y-70329956D01*
X107073288Y-70431391D01*
X107102611Y-70467121D01*
X107102612Y-70467123D01*
X107186257Y-70623610D01*
X107186258Y-70623613D01*
X107237766Y-70793412D01*
X107250800Y-70925751D01*
X107250800Y-71614249D01*
X107237766Y-71746588D01*
X107186257Y-71916389D01*
X107102611Y-72072879D01*
X107073288Y-72108609D01*
X106990044Y-72210044D01*
X106888609Y-72293288D01*
X106852879Y-72322611D01*
X106852877Y-72322612D01*
X106696390Y-72406257D01*
X106639789Y-72423427D01*
X106526588Y-72457766D01*
X106350000Y-72475158D01*
X106173413Y-72457766D01*
X106060212Y-72423427D01*
X106003611Y-72406257D01*
X105847124Y-72322612D01*
X105847122Y-72322611D01*
X105811392Y-72293288D01*
X105709957Y-72210044D01*
X105626713Y-72108609D01*
X105597390Y-72072879D01*
X105513743Y-71916389D01*
X105462234Y-71746588D01*
X105449200Y-71614249D01*
X105449200Y-70925752D01*
X105462234Y-70793413D01*
X105496573Y-70680212D01*
X105513743Y-70623611D01*
X105597388Y-70467123D01*
X105709956Y-70329956D01*
X105811391Y-70246712D01*
X105847121Y-70217389D01*
X105865020Y-70207822D01*
X106003610Y-70133743D01*
X106060211Y-70116573D01*
X106173412Y-70082234D01*
X106350000Y-70064842D01*
X106526587Y-70082234D01*
X106526587Y-70082234D01*
G37*
G36*
X109066587Y-70082234D02*
X109179788Y-70116573D01*
X109236389Y-70133743D01*
X109392877Y-70217388D01*
X109530044Y-70329956D01*
X109613288Y-70431391D01*
X109642611Y-70467121D01*
X109642612Y-70467123D01*
X109726257Y-70623610D01*
X109726258Y-70623613D01*
X109777766Y-70793412D01*
X109790800Y-70925751D01*
X109790800Y-71614249D01*
X109777766Y-71746588D01*
X109726257Y-71916389D01*
X109642611Y-72072879D01*
X109613288Y-72108609D01*
X109530044Y-72210044D01*
X109428609Y-72293288D01*
X109392879Y-72322611D01*
X109392877Y-72322612D01*
X109236390Y-72406257D01*
X109179789Y-72423427D01*
X109066588Y-72457766D01*
X108890000Y-72475158D01*
X108713413Y-72457766D01*
X108600212Y-72423427D01*
X108543611Y-72406257D01*
X108387124Y-72322612D01*
X108387122Y-72322611D01*
X108351392Y-72293288D01*
X108249957Y-72210044D01*
X108166713Y-72108609D01*
X108137390Y-72072879D01*
X108053743Y-71916389D01*
X108002234Y-71746588D01*
X107989200Y-71614249D01*
X107989200Y-70925752D01*
X108002234Y-70793413D01*
X108036573Y-70680212D01*
X108053743Y-70623611D01*
X108137388Y-70467123D01*
X108249956Y-70329956D01*
X108351391Y-70246712D01*
X108387121Y-70217389D01*
X108405020Y-70207822D01*
X108543610Y-70133743D01*
X108600211Y-70116573D01*
X108713412Y-70082234D01*
X108890000Y-70064842D01*
X109066587Y-70082234D01*
X109066587Y-70082234D01*
G37*
G36*
X111606587Y-70082234D02*
X111719788Y-70116573D01*
X111776389Y-70133743D01*
X111932877Y-70217388D01*
X112070044Y-70329956D01*
X112153288Y-70431391D01*
X112182611Y-70467121D01*
X112182612Y-70467123D01*
X112266257Y-70623610D01*
X112266258Y-70623613D01*
X112317766Y-70793412D01*
X112330800Y-70925751D01*
X112330800Y-71614249D01*
X112317766Y-71746588D01*
X112266257Y-71916389D01*
X112182611Y-72072879D01*
X112153288Y-72108609D01*
X112070044Y-72210044D01*
X111968609Y-72293288D01*
X111932879Y-72322611D01*
X111932877Y-72322612D01*
X111776390Y-72406257D01*
X111719789Y-72423427D01*
X111606588Y-72457766D01*
X111430000Y-72475158D01*
X111253413Y-72457766D01*
X111140212Y-72423427D01*
X111083611Y-72406257D01*
X110927124Y-72322612D01*
X110927122Y-72322611D01*
X110891392Y-72293288D01*
X110789957Y-72210044D01*
X110706713Y-72108609D01*
X110677390Y-72072879D01*
X110593743Y-71916389D01*
X110542234Y-71746588D01*
X110529200Y-71614249D01*
X110529200Y-70925752D01*
X110542234Y-70793413D01*
X110576573Y-70680212D01*
X110593743Y-70623611D01*
X110677388Y-70467123D01*
X110789956Y-70329956D01*
X110891391Y-70246712D01*
X110927121Y-70217389D01*
X110945020Y-70207822D01*
X111083610Y-70133743D01*
X111140211Y-70116573D01*
X111253412Y-70082234D01*
X111430000Y-70064842D01*
X111606587Y-70082234D01*
X111606587Y-70082234D01*
G37*
G36*
X114146587Y-70082234D02*
X114259788Y-70116573D01*
X114316389Y-70133743D01*
X114472877Y-70217388D01*
X114610044Y-70329956D01*
X114693288Y-70431391D01*
X114722611Y-70467121D01*
X114722612Y-70467123D01*
X114806257Y-70623610D01*
X114806258Y-70623613D01*
X114857766Y-70793412D01*
X114870800Y-70925751D01*
X114870800Y-71614249D01*
X114857766Y-71746588D01*
X114806257Y-71916389D01*
X114722611Y-72072879D01*
X114693288Y-72108609D01*
X114610044Y-72210044D01*
X114508609Y-72293288D01*
X114472879Y-72322611D01*
X114472877Y-72322612D01*
X114316390Y-72406257D01*
X114259789Y-72423427D01*
X114146588Y-72457766D01*
X113970000Y-72475158D01*
X113793413Y-72457766D01*
X113680212Y-72423427D01*
X113623611Y-72406257D01*
X113467124Y-72322612D01*
X113467122Y-72322611D01*
X113431392Y-72293288D01*
X113329957Y-72210044D01*
X113246713Y-72108609D01*
X113217390Y-72072879D01*
X113133743Y-71916389D01*
X113082234Y-71746588D01*
X113069200Y-71614249D01*
X113069200Y-70925752D01*
X113082234Y-70793413D01*
X113116573Y-70680212D01*
X113133743Y-70623611D01*
X113217388Y-70467123D01*
X113329956Y-70329956D01*
X113431391Y-70246712D01*
X113467121Y-70217389D01*
X113485020Y-70207822D01*
X113623610Y-70133743D01*
X113680211Y-70116573D01*
X113793412Y-70082234D01*
X113970000Y-70064842D01*
X114146587Y-70082234D01*
X114146587Y-70082234D01*
G37*
G36*
X88746588Y-70082234D02*
X88859789Y-70116573D01*
X88916390Y-70133743D01*
X89054980Y-70207822D01*
X89072879Y-70217389D01*
X89108609Y-70246712D01*
X89210044Y-70329956D01*
X89293288Y-70431391D01*
X89322611Y-70467121D01*
X89406257Y-70623611D01*
X89457766Y-70793412D01*
X89470800Y-70925751D01*
X89470800Y-71614249D01*
X89457766Y-71746588D01*
X89425389Y-71853321D01*
X89406257Y-71916390D01*
X89358170Y-72006354D01*
X89322611Y-72072879D01*
X89293288Y-72108609D01*
X89210044Y-72210044D01*
X89072877Y-72322612D01*
X88916389Y-72406257D01*
X88859788Y-72423427D01*
X88746587Y-72457766D01*
X88570000Y-72475158D01*
X88393412Y-72457766D01*
X88280211Y-72423427D01*
X88223610Y-72406257D01*
X88067123Y-72322612D01*
X88067121Y-72322611D01*
X88031391Y-72293288D01*
X87929956Y-72210044D01*
X87817388Y-72072877D01*
X87733743Y-71916389D01*
X87682235Y-71746589D01*
X87682234Y-71746587D01*
X87669200Y-71614248D01*
X87669200Y-70925751D01*
X87682234Y-70793412D01*
X87733743Y-70623611D01*
X87817390Y-70467121D01*
X87846713Y-70431391D01*
X87929957Y-70329956D01*
X88031392Y-70246712D01*
X88067122Y-70217389D01*
X88085021Y-70207822D01*
X88223611Y-70133743D01*
X88280212Y-70116573D01*
X88393413Y-70082234D01*
X88570000Y-70064842D01*
X88746588Y-70082234D01*
X88746588Y-70082234D01*
G37*
G36*
X91286588Y-70082234D02*
X91399789Y-70116573D01*
X91456390Y-70133743D01*
X91594980Y-70207822D01*
X91612879Y-70217389D01*
X91648609Y-70246712D01*
X91750044Y-70329956D01*
X91833288Y-70431391D01*
X91862611Y-70467121D01*
X91946257Y-70623611D01*
X91997766Y-70793412D01*
X92010800Y-70925751D01*
X92010800Y-71614249D01*
X91997766Y-71746588D01*
X91965389Y-71853321D01*
X91946257Y-71916390D01*
X91898170Y-72006354D01*
X91862611Y-72072879D01*
X91833288Y-72108609D01*
X91750044Y-72210044D01*
X91612877Y-72322612D01*
X91456389Y-72406257D01*
X91399788Y-72423427D01*
X91286587Y-72457766D01*
X91110000Y-72475158D01*
X90933412Y-72457766D01*
X90820211Y-72423427D01*
X90763610Y-72406257D01*
X90607123Y-72322612D01*
X90607121Y-72322611D01*
X90571391Y-72293288D01*
X90469956Y-72210044D01*
X90357388Y-72072877D01*
X90273743Y-71916389D01*
X90222235Y-71746589D01*
X90222234Y-71746587D01*
X90209200Y-71614248D01*
X90209200Y-70925751D01*
X90222234Y-70793412D01*
X90273743Y-70623611D01*
X90357390Y-70467121D01*
X90386713Y-70431391D01*
X90469957Y-70329956D01*
X90571392Y-70246712D01*
X90607122Y-70217389D01*
X90625021Y-70207822D01*
X90763611Y-70133743D01*
X90820212Y-70116573D01*
X90933413Y-70082234D01*
X91110000Y-70064842D01*
X91286588Y-70082234D01*
X91286588Y-70082234D01*
G37*
G36*
X93826588Y-70082234D02*
X93939789Y-70116573D01*
X93996390Y-70133743D01*
X94134980Y-70207822D01*
X94152879Y-70217389D01*
X94188609Y-70246712D01*
X94290044Y-70329956D01*
X94373288Y-70431391D01*
X94402611Y-70467121D01*
X94486257Y-70623611D01*
X94537766Y-70793412D01*
X94550800Y-70925751D01*
X94550800Y-71614249D01*
X94537766Y-71746588D01*
X94505389Y-71853321D01*
X94486257Y-71916390D01*
X94438170Y-72006354D01*
X94402611Y-72072879D01*
X94373288Y-72108609D01*
X94290044Y-72210044D01*
X94152877Y-72322612D01*
X93996389Y-72406257D01*
X93939788Y-72423427D01*
X93826587Y-72457766D01*
X93650000Y-72475158D01*
X93473412Y-72457766D01*
X93360211Y-72423427D01*
X93303610Y-72406257D01*
X93147123Y-72322612D01*
X93147121Y-72322611D01*
X93111391Y-72293288D01*
X93009956Y-72210044D01*
X92897388Y-72072877D01*
X92813743Y-71916389D01*
X92762235Y-71746589D01*
X92762234Y-71746587D01*
X92749200Y-71614248D01*
X92749200Y-70925751D01*
X92762234Y-70793412D01*
X92813743Y-70623611D01*
X92897390Y-70467121D01*
X92926713Y-70431391D01*
X93009957Y-70329956D01*
X93111392Y-70246712D01*
X93147122Y-70217389D01*
X93165021Y-70207822D01*
X93303611Y-70133743D01*
X93360212Y-70116573D01*
X93473413Y-70082234D01*
X93650000Y-70064842D01*
X93826588Y-70082234D01*
X93826588Y-70082234D01*
G37*
G36*
X117410800Y-72470800D02*
X115609200Y-72470800D01*
X115609200Y-70069200D01*
X117410800Y-70069200D01*
X117410800Y-72470800D01*
X117410800Y-72470800D01*
G37*
G36*
X84390800Y-72470800D02*
X82589200Y-72470800D01*
X82589200Y-70069200D01*
X84390800Y-70069200D01*
X84390800Y-72470800D01*
X84390800Y-72470800D01*
G37*
M02*
