%TF.GenerationSoftware,KiCad,Pcbnew,5.0.2-bee76a0~70~ubuntu16.04.1*%
%TF.CreationDate,2019-04-28T15:28:11+02:00*%
%TF.ProjectId,bcl4v2,62636c34-7632-42e6-9b69-6361645f7063,rev?*%
%TF.SameCoordinates,Original*%
%TF.FileFunction,Profile,NP*%
%FSLAX46Y46*%
G04 Gerber Fmt 4.6, Leading zero omitted, Abs format (unit mm)*
G04 Created by KiCad (PCBNEW 5.0.2-bee76a0~70~ubuntu16.04.1) date Ne 28. duben 2019, 15:28:11 CEST*
%MOMM*%
%LPD*%
G01*
G04 APERTURE LIST*
%ADD10C,0.381000*%
G04 APERTURE END LIST*
D10*
X95000000Y-129000000D02*
X95000000Y-130000000D01*
X105000000Y-129000000D02*
X105000000Y-130000000D01*
X105000000Y-70000000D02*
X105000000Y-71000000D01*
X95000000Y-70000000D02*
X95000000Y-71000000D01*
X70000000Y-95000000D02*
X70000000Y-75000000D01*
X70000000Y-125000000D02*
X70000000Y-105000000D01*
X95000000Y-130000000D02*
X75000000Y-130000000D01*
X125000000Y-130000000D02*
X105000000Y-130000000D01*
X130000000Y-105000000D02*
X130000000Y-125000000D01*
X130000000Y-75000000D02*
X130000000Y-95000000D01*
X105000000Y-70000000D02*
X125000000Y-70000000D01*
X75000000Y-70000000D02*
X95000000Y-70000000D01*
X75000000Y-130000000D02*
G75*
G02X70000000Y-125000000I0J5000000D01*
G01*
X130000000Y-125000000D02*
G75*
G02X125000000Y-130000000I-5000000J0D01*
G01*
X125000000Y-70000000D02*
G75*
G02X130000000Y-75000000I0J-5000000D01*
G01*
X70000000Y-75000000D02*
G75*
G02X75000000Y-70000000I5000000J0D01*
G01*
X95000000Y-71000000D02*
X105000000Y-71000000D01*
X70750000Y-105000000D02*
X70000000Y-105000000D01*
X70750000Y-95000000D02*
X70750000Y-105000000D01*
X70000000Y-95000000D02*
X70750000Y-95000000D01*
X95000000Y-129000000D02*
X105000000Y-129000000D01*
X129000000Y-105000000D02*
X130000000Y-105000000D01*
X129000000Y-95000000D02*
X129000000Y-105000000D01*
X130000000Y-95000000D02*
X129000000Y-95000000D01*
M02*
