%TF.GenerationSoftware,KiCad,Pcbnew,5.0.2-bee76a0~70~ubuntu16.04.1*%
%TF.CreationDate,2019-07-03T15:14:37+02:00*%
%TF.ProjectId,bcl4v2,62636c34-7632-42e6-9b69-6361645f7063,rev?*%
%TF.SameCoordinates,Original*%
%TF.FileFunction,Copper,L2,Bot*%
%TF.FilePolarity,Positive*%
%FSLAX46Y46*%
G04 Gerber Fmt 4.6, Leading zero omitted, Abs format (unit mm)*
G04 Created by KiCad (PCBNEW 5.0.2-bee76a0~70~ubuntu16.04.1) date St 3. červenec 2019, 15:14:37 CEST*
%MOMM*%
%LPD*%
G01*
G04 APERTURE LIST*
%ADD10C,0.150000*%
%ADD11R,2.000000X5.000000*%
%ADD12R,2.000000X4.000000*%
%ADD13C,1.346200*%
%ADD14C,0.609600*%
G04 APERTURE END LIST*
D10*
X82240000Y-100000000D02*
X82240000Y-106000000D01*
X117780000Y-106000000D02*
X82240000Y-106000000D01*
X117780000Y-100000000D02*
X117780000Y-106000000D01*
X82240000Y-100000000D02*
X117780000Y-100000000D01*
D11*
X93670000Y-102500000D03*
X91130000Y-102500000D03*
X88590000Y-102500000D03*
X86050000Y-102500000D03*
X83510000Y-102500000D03*
D12*
X116510000Y-102000000D03*
X113970000Y-102000000D03*
X111430000Y-102000000D03*
X108890000Y-102000000D03*
X106350000Y-102000000D03*
D13*
X116500000Y-103997900D03*
X114000000Y-103997900D03*
X111400000Y-103997900D03*
X108900000Y-104200003D03*
X106300000Y-104100008D03*
D14*
X116510000Y-103987900D02*
X116500000Y-103997900D01*
X116510000Y-102000000D02*
X116510000Y-103987900D01*
X114000000Y-102030000D02*
X113970000Y-102000000D01*
X114000000Y-103997900D02*
X114000000Y-102030000D01*
X111430000Y-103967900D02*
X111400000Y-103997900D01*
X111430000Y-102000000D02*
X111430000Y-103967900D01*
X108900000Y-102010000D02*
X108900000Y-103248096D01*
X108900000Y-103248096D02*
X108900000Y-104200003D01*
X108890000Y-102000000D02*
X108900000Y-102010000D01*
X106350000Y-102000000D02*
X106300000Y-102050000D01*
X106300000Y-103148101D02*
X106300000Y-104100008D01*
X106300000Y-102050000D02*
X106300000Y-103148101D01*
M02*
