%TF.GenerationSoftware,KiCad,Pcbnew,5.0.2-bee76a0~70~ubuntu16.04.1*%
%TF.CreationDate,2019-07-30T14:05:49+02:00*%
%TF.ProjectId,bcl4v2,62636c34-7632-42e6-9b69-6361645f7063,rev?*%
%TF.SameCoordinates,Original*%
%TF.FileFunction,Legend,Top*%
%TF.FilePolarity,Positive*%
%FSLAX46Y46*%
G04 Gerber Fmt 4.6, Leading zero omitted, Abs format (unit mm)*
G04 Created by KiCad (PCBNEW 5.0.2-bee76a0~70~ubuntu16.04.1) date Út 30. červenec 2019, 14:05:49 CEST*
%MOMM*%
%LPD*%
G01*
G04 APERTURE LIST*
%ADD10C,0.150000*%
G04 APERTURE END LIST*
D10*
X82240000Y-100000000D02*
X82240000Y-106000000D01*
X117780000Y-106000000D02*
X82240000Y-106000000D01*
X117780000Y-100000000D02*
X117780000Y-106000000D01*
X82240000Y-100000000D02*
X117780000Y-100000000D01*
X105066666Y-106852380D02*
X105066666Y-107566666D01*
X105019047Y-107709523D01*
X104923809Y-107804761D01*
X104780952Y-107852380D01*
X104685714Y-107852380D01*
X105447619Y-106852380D02*
X106066666Y-106852380D01*
X105733333Y-107233333D01*
X105876190Y-107233333D01*
X105971428Y-107280952D01*
X106019047Y-107328571D01*
X106066666Y-107423809D01*
X106066666Y-107661904D01*
X106019047Y-107757142D01*
X105971428Y-107804761D01*
X105876190Y-107852380D01*
X105590476Y-107852380D01*
X105495238Y-107804761D01*
X105447619Y-107757142D01*
X84466666Y-106552380D02*
X84466666Y-107266666D01*
X84419047Y-107409523D01*
X84323809Y-107504761D01*
X84180952Y-107552380D01*
X84085714Y-107552380D01*
X85466666Y-107552380D02*
X84895238Y-107552380D01*
X85180952Y-107552380D02*
X85180952Y-106552380D01*
X85085714Y-106695238D01*
X84990476Y-106790476D01*
X84895238Y-106838095D01*
M02*
