%TF.GenerationSoftware,KiCad,Pcbnew,5.0.2-bee76a0~70~ubuntu16.04.1*%
%TF.CreationDate,2019-07-03T15:14:37+02:00*%
%TF.ProjectId,bcl4v2,62636c34-7632-42e6-9b69-6361645f7063,rev?*%
%TF.SameCoordinates,Original*%
%TF.FileFunction,Soldermask,Bot*%
%TF.FilePolarity,Negative*%
%FSLAX46Y46*%
G04 Gerber Fmt 4.6, Leading zero omitted, Abs format (unit mm)*
G04 Created by KiCad (PCBNEW 5.0.2-bee76a0~70~ubuntu16.04.1) date St 3. červenec 2019, 15:14:37 CEST*
%MOMM*%
%LPD*%
G01*
G04 APERTURE LIST*
%ADD10C,0.150000*%
G04 APERTURE END LIST*
D10*
X82240000Y-100000000D02*
X82240000Y-106000000D01*
X117780000Y-106000000D02*
X82240000Y-106000000D01*
X117780000Y-100000000D02*
X117780000Y-106000000D01*
X82240000Y-100000000D02*
X117780000Y-100000000D01*
G36*
X92180800Y-105050800D02*
X90079200Y-105050800D01*
X90079200Y-99949200D01*
X92180800Y-99949200D01*
X92180800Y-105050800D01*
X92180800Y-105050800D01*
G37*
G36*
X84560800Y-105050800D02*
X82459200Y-105050800D01*
X82459200Y-99949200D01*
X84560800Y-99949200D01*
X84560800Y-105050800D01*
X84560800Y-105050800D01*
G37*
G36*
X87100800Y-105050800D02*
X84999200Y-105050800D01*
X84999200Y-99949200D01*
X87100800Y-99949200D01*
X87100800Y-105050800D01*
X87100800Y-105050800D01*
G37*
G36*
X89640800Y-105050800D02*
X87539200Y-105050800D01*
X87539200Y-99949200D01*
X89640800Y-99949200D01*
X89640800Y-105050800D01*
X89640800Y-105050800D01*
G37*
G36*
X94720800Y-105050800D02*
X92619200Y-105050800D01*
X92619200Y-99949200D01*
X94720800Y-99949200D01*
X94720800Y-105050800D01*
X94720800Y-105050800D01*
G37*
G36*
X115020800Y-104050800D02*
X112919200Y-104050800D01*
X112919200Y-99949200D01*
X115020800Y-99949200D01*
X115020800Y-104050800D01*
X115020800Y-104050800D01*
G37*
G36*
X112480800Y-104050800D02*
X110379200Y-104050800D01*
X110379200Y-99949200D01*
X112480800Y-99949200D01*
X112480800Y-104050800D01*
X112480800Y-104050800D01*
G37*
G36*
X109940800Y-104050800D02*
X107839200Y-104050800D01*
X107839200Y-99949200D01*
X109940800Y-99949200D01*
X109940800Y-104050800D01*
X109940800Y-104050800D01*
G37*
G36*
X107400800Y-104050800D02*
X105299200Y-104050800D01*
X105299200Y-99949200D01*
X107400800Y-99949200D01*
X107400800Y-104050800D01*
X107400800Y-104050800D01*
G37*
G36*
X117560800Y-104050800D02*
X115459200Y-104050800D01*
X115459200Y-99949200D01*
X117560800Y-99949200D01*
X117560800Y-104050800D01*
X117560800Y-104050800D01*
G37*
M02*
